<?xml version="1.0" encoding="iso-8859-1"?>
<!-- Generator: Adobe Illustrator 19.0.0, SVG Export Plug-In . SVG Version: 6.00 Build 0)  -->
<svg version="1.1" id="Layer_1" xmlns="http://www.w3.org/2000/svg" xmlns:xlink="http://www.w3.org/1999/xlink" x="0px" y="0px"
	 viewBox="0 0 344.834 344.834" style="enable-background:new 0 0 344.834 344.834;" xml:space="preserve">
<g id="XMLID_1219_">
	<g id="XMLID_1220_">
		<g id="XMLID_1221_">
			<path id="XMLID_1222_" style="fill:#B3404A;" d="M76.412,342.768c-5.534,0-10.393-3.335-12.377-8.496l-15.427-40.109
				l-40.11-15.426c-4.204-1.617-7.271-5.212-8.206-9.618s0.409-8.938,3.594-12.122l78.805-78.805l81.888,81.888l-78.806,78.806
				C83.269,341.389,79.945,342.768,76.412,342.768z M25.371,263.798l33.216,12.775c3.493,1.342,6.27,4.118,7.613,7.614L78.973,317.4
				l57.32-57.32l-53.602-53.604L25.371,263.798z"/>
		</g>
		<g id="XMLID_1225_">
			<path id="XMLID_1226_" style="fill:#B3404A;" d="M268.414,342.77c-3.474,0-6.832-1.367-9.351-3.884l-17.503-17.502l14.143-14.143
				l10.16,10.16l12.775-33.216c1.343-3.494,4.119-6.27,7.615-7.613l33.212-12.774l-64.392-64.392l14.143-14.142l71.734,71.734
				c3.184,3.184,4.527,7.715,3.593,12.12c-0.935,4.406-4.002,8.002-8.206,9.619l-40.109,15.427l-15.427,40.109
				c-1.616,4.203-5.212,7.271-9.617,8.206C270.263,342.674,269.334,342.77,268.414,342.77z"/>
		</g>
	</g>
	<path id="XMLID_1227_" style="fill:#F4B2B0;" d="M292.412,190.763c4.302-13.251,26.139-24.305,26.139-38.99
		c0-14.686-21.837-25.74-26.139-38.991c-4.459-13.733,6.554-35.482-1.765-46.914c-8.403-11.546-32.546-7.75-44.092-16.153
		c-11.432-8.319-15.236-32.499-28.969-36.958c-13.251-4.302-30.482,12.883-45.167,12.883c-14.686,0-31.916-17.186-45.167-12.883
		c-13.734,4.459-17.537,28.639-28.969,36.958c-11.546,8.403-35.689,4.607-44.092,16.153c-8.32,11.431,2.694,33.18-1.765,46.914
		c-4.302,13.251-26.139,24.305-26.139,38.991s21.837,25.74,26.139,38.991c4.459,13.734-6.554,35.482,1.765,46.914
		c8.403,11.546,32.546,7.75,44.092,16.153c11.432,8.32,15.236,32.5,28.969,36.959c13.251,4.302,30.482-12.883,45.167-12.883
		c14.686,0,31.916,17.186,45.167,12.883c13.734-4.459,17.537-28.639,28.969-36.958c11.546-8.403,35.689-4.607,44.092-16.152
		C298.966,226.246,287.953,204.496,292.412,190.763z M172.418,231.772c-44.183,0-80-35.817-80-80s35.817-80,80-80
		c18.394,0,35.338,6.208,48.852,16.643c18.946,14.63,31.148,37.569,31.148,63.357C252.418,195.955,216.601,231.772,172.418,231.772z
		"/>
	<path id="XMLID_1230_" style="fill:#B3404A;" d="M213.025,301.479c-8.487,0-16.5-3.908-24.249-7.688
		c-5.934-2.894-12.068-5.887-16.357-5.887s-10.424,2.993-16.357,5.887c-7.749,3.78-15.762,7.688-24.248,7.688
		c-2.664,0-5.237-0.397-7.65-1.18c-11.548-3.75-17.399-14.841-22.563-24.627c-2.973-5.634-6.046-11.46-9.202-13.757
		c-3.24-2.358-9.801-3.506-16.146-4.616c-10.822-1.894-23.089-4.04-30.147-13.737c-6.996-9.613-5.274-21.879-3.756-32.701
		c0.903-6.436,1.838-13.09,0.564-17.01c-1.159-3.571-5.677-8.214-10.047-12.704c-7.771-7.987-16.581-17.041-16.581-29.375
		s8.81-21.387,16.581-29.375c4.37-4.49,8.888-9.133,10.048-12.705c1.272-3.919,0.338-10.573-0.565-17.009
		c-1.519-10.822-3.24-23.088,3.755-32.701c7.059-9.698,19.326-11.844,30.148-13.738c6.345-1.11,12.904-2.257,16.146-4.616
		c3.156-2.296,6.229-8.122,9.201-13.756c5.163-9.786,11.015-20.878,22.563-24.628c2.413-0.783,4.986-1.18,7.65-1.18
		c8.486,0,16.5,3.908,24.249,7.688c5.934,2.894,12.068,5.887,16.357,5.887c4.288,0,10.424-2.993,16.357-5.887
		c7.749-3.78,15.762-7.688,24.248-7.688c2.664,0,5.238,0.397,7.65,1.18c11.548,3.75,17.399,14.842,22.563,24.628
		c2.972,5.634,6.046,11.459,9.201,13.756c3.242,2.359,9.802,3.506,16.146,4.616c10.822,1.894,23.09,4.04,30.147,13.737
		c6.996,9.613,5.274,21.879,3.756,32.701c-0.903,6.436-1.838,13.09-0.564,17.009c1.159,3.572,5.678,8.215,10.047,12.706
		c7.772,7.987,16.581,17.04,16.581,29.374s-8.81,21.387-16.581,29.374c-4.37,4.49-8.888,9.133-10.048,12.705
		c-1.272,3.919-0.338,10.574,0.565,17.009c1.519,10.822,3.24,23.088-3.755,32.701c-7.06,9.698-19.326,11.844-30.148,13.738
		c-6.345,1.109-12.905,2.257-16.146,4.616c-3.155,2.296-6.229,8.122-9.2,13.756c-5.163,9.786-11.015,20.878-22.563,24.628
		C218.263,301.082,215.689,301.479,213.025,301.479z M172.418,267.905c8.906,0,17.151,4.022,25.125,7.911
		c5.709,2.784,11.612,5.664,15.481,5.664c0.571,0,1.054-0.066,1.474-0.203c3.824-1.242,7.663-8.518,11.05-14.938
		c4.037-7.652,8.212-15.566,15.121-20.595c6.993-5.089,15.877-6.643,24.469-8.146c7.089-1.24,15.124-2.646,17.424-5.806
		c2.236-3.073,1.111-11.084,0.12-18.152c-1.219-8.681-2.479-17.658,0.219-25.965c2.599-8.003,8.769-14.344,14.735-20.477
		c5.116-5.258,10.915-11.217,10.915-15.426s-5.799-10.168-10.915-15.426c-5.967-6.132-12.137-12.473-14.735-20.477
		c-2.697-8.307-1.438-17.284-0.219-25.965c0.991-7.068,2.116-15.079-0.121-18.152c-2.299-3.16-10.334-4.565-17.423-5.805
		c-8.592-1.503-17.476-3.057-24.469-8.146c-6.91-5.029-11.085-12.942-15.122-20.595c-3.387-6.419-7.226-13.695-11.051-14.938
		c-0.419-0.136-0.901-0.203-1.473-0.203c-3.869,0-9.771,2.879-15.48,5.664c-7.974,3.889-16.219,7.911-25.125,7.911
		s-17.151-4.021-25.126-7.911c-5.708-2.784-11.611-5.664-15.48-5.664c-0.571,0-1.054,0.066-1.474,0.203
		c-3.824,1.242-7.663,8.519-11.05,14.938c-4.037,7.653-8.212,15.566-15.121,20.595c-6.993,5.089-15.877,6.643-24.469,8.146
		c-7.089,1.24-15.124,2.646-17.424,5.806c-2.236,3.073-1.111,11.084-0.12,18.152c1.219,8.681,2.479,17.658-0.219,25.965
		c-2.599,8.003-8.769,14.344-14.735,20.476c-5.116,5.258-10.915,11.217-10.915,15.427S42.084,161.942,47.2,167.2
		c5.967,6.132,12.137,12.473,14.735,20.476c2.697,8.308,1.438,17.284,0.219,25.966c-0.991,7.068-2.116,15.079,0.121,18.152
		c2.299,3.16,10.334,4.565,17.423,5.805c8.592,1.503,17.476,3.057,24.468,8.146c6.911,5.029,11.086,12.942,15.123,20.595
		c3.387,6.419,7.226,13.696,11.05,14.938c0.42,0.136,0.902,0.203,1.474,0.203c3.868,0,9.771-2.879,15.479-5.664
		C155.267,271.927,163.512,267.905,172.418,267.905z"/>
	<path id="XMLID_1233_" style="fill:#B3404A;" d="M172.418,241.772c-49.626,0-90-40.374-90-90s40.374-90,90-90
		c20.092,0,39.098,6.476,54.964,18.729c22.266,17.193,35.036,43.171,35.036,71.271C262.418,201.398,222.044,241.772,172.418,241.772
		z M172.418,81.772c-38.598,0-70,31.402-70,70s31.402,70,70,70s70-31.402,70-70c0-21.857-9.936-42.064-27.26-55.442
		C202.826,86.807,188.046,81.772,172.418,81.772z"/>
</g>
<g>
</g>
<g>
</g>
<g>
</g>
<g>
</g>
<g>
</g>
<g>
</g>
<g>
</g>
<g>
</g>
<g>
</g>
<g>
</g>
<g>
</g>
<g>
</g>
<g>
</g>
<g>
</g>
<g>
</g>
</svg>
