<?xml version="1.0" encoding="iso-8859-1"?>
<!-- Generator: Adobe Illustrator 19.0.0, SVG Export Plug-In . SVG Version: 6.00 Build 0)  -->
<svg version="1.1" id="Layer_1" xmlns="http://www.w3.org/2000/svg" xmlns:xlink="http://www.w3.org/1999/xlink" x="0px" y="0px"
	 viewBox="0 0 344.656 344.656" style="enable-background:new 0 0 344.656 344.656;" xml:space="preserve">
<g id="XMLID_1044_">
	<g id="XMLID_1045_">
		<path id="XMLID_1046_" style="fill:#B3404A;" d="M252.328,100.221h-20V59.618c0-15.17-12.342-27.512-27.512-27.512H139.84
			c-15.17,0-27.512,12.342-27.512,27.512v40.603h-20V59.618c0-26.198,21.314-47.512,47.512-47.512h64.976
			c26.198,0,47.512,21.314,47.512,47.512V100.221z"/>
	</g>
	<g id="XMLID_1047_">
		<path id="XMLID_1048_" style="fill:#B3404A;" d="M303.376,332.55H41.279C18.518,332.55,0,314.032,0,291.271V112.324
			c0-22.761,18.518-41.279,41.279-41.279h262.098c22.761,0,41.279,18.518,41.279,41.279v178.947
			C344.655,314.032,326.138,332.55,303.376,332.55z M41.279,91.045C29.545,91.045,20,100.591,20,112.324v178.947
			c0,11.733,9.545,21.279,21.279,21.279h262.098c11.733,0,21.279-9.545,21.279-21.279V112.324c0-11.733-9.545-21.279-21.279-21.279
			H41.279z"/>
	</g>
	<g id="XMLID_1051_">
		<path id="XMLID_1052_" style="fill:#F4B2B0;" d="M41.425,80.861c-18.124,0-31.578,16.979-27.232,34.574
			C29.802,178.636,87.154,225.861,155,225.861h34.655c67.846,0,125.198-47.225,140.807-110.426
			c4.346-17.595-9.108-34.574-27.232-34.574C303.23,80.861,41.425,80.861,41.425,80.861z"/>
		<path id="XMLID_1053_" style="fill:#B3404A;" d="M189.655,235.861H155c-34.742,0-68.913-11.963-96.218-33.687
			c-26.859-21.368-46.142-51.321-54.298-84.341c-2.801-11.343-0.265-23.139,6.959-32.364c7.27-9.284,18.198-14.608,29.981-14.608
			h261.807c11.784,0,22.711,5.324,29.981,14.608c7.224,9.225,9.76,21.021,6.959,32.363c-8.156,33.021-27.439,62.974-54.298,84.342
			C258.568,223.897,224.397,235.861,189.655,235.861z M41.424,90.861c-5.593,0-10.782,2.529-14.235,6.938
			c-3.407,4.351-4.606,9.905-3.289,15.238C38.854,173.578,92.764,215.861,155,215.861h34.655
			c62.236,0,116.146-42.283,131.099-102.824c1.317-5.333,0.119-10.886-3.289-15.237c-3.453-4.41-8.642-6.938-14.235-6.938
			L41.424,90.861L41.424,90.861z"/>
	</g>
	<g id="XMLID_1056_">
		<g id="XMLID_1057_">
			<path id="XMLID_41_" style="fill:#F4B2B0;" d="M108.134,254.887H96.521c-7.483,0-13.548-6.066-13.548-13.548v-40.645
				c0-7.483,6.066-13.548,13.548-13.548h11.613c7.483,0,13.548,6.066,13.548,13.548v40.645
				C121.682,248.821,115.617,254.887,108.134,254.887z"/>
			<path id="XMLID_1058_" style="fill:#B3404A;" d="M108.134,264.887H96.521c-12.984,0-23.548-10.564-23.548-23.548v-40.646
				c0-12.984,10.564-23.548,23.548-23.548h11.613c12.984,0,23.548,10.564,23.548,23.548v40.646
				C131.683,254.323,121.119,264.887,108.134,264.887z M96.521,197.145c-1.957,0-3.548,1.592-3.548,3.548v40.646
				c0,1.957,1.592,3.548,3.548,3.548h11.613c1.957,0,3.548-1.592,3.548-3.548v-40.646c0-1.957-1.592-3.548-3.548-3.548H96.521z"/>
		</g>
		<g id="XMLID_1061_">
			<path id="XMLID_36_" style="fill:#F4B2B0;" d="M248.134,254.887h-11.613c-7.483,0-13.548-6.066-13.548-13.548v-40.645
				c0-7.483,6.066-13.548,13.548-13.548h11.613c7.483,0,13.548,6.066,13.548,13.548v40.645
				C261.682,248.821,255.617,254.887,248.134,254.887z"/>
			<path id="XMLID_1062_" style="fill:#B3404A;" d="M248.134,264.887h-11.613c-12.984,0-23.548-10.564-23.548-23.548v-40.646
				c0-12.984,10.564-23.548,23.548-23.548h11.613c12.984,0,23.548,10.564,23.548,23.548v40.646
				C271.683,254.323,261.119,264.887,248.134,264.887z M236.521,197.145c-1.957,0-3.548,1.592-3.548,3.548v40.646
				c0,1.957,1.592,3.548,3.548,3.548h11.613c1.957,0,3.548-1.592,3.548-3.548v-40.646c0-1.957-1.592-3.548-3.548-3.548H236.521z"/>
		</g>
	</g>
</g>
<g>
</g>
<g>
</g>
<g>
</g>
<g>
</g>
<g>
</g>
<g>
</g>
<g>
</g>
<g>
</g>
<g>
</g>
<g>
</g>
<g>
</g>
<g>
</g>
<g>
</g>
<g>
</g>
<g>
</g>
</svg>
