<?xml version="1.0" encoding="iso-8859-1"?>
<!-- Generator: Adobe Illustrator 19.0.0, SVG Export Plug-In . SVG Version: 6.00 Build 0)  -->
<svg version="1.1" id="Layer_1" xmlns="http://www.w3.org/2000/svg" xmlns:xlink="http://www.w3.org/1999/xlink" x="0px" y="0px"
	 viewBox="0 0 361.982 361.982" style="enable-background:new 0 0 361.982 361.982;" xml:space="preserve">
<g id="XMLID_959_">
	<g id="XMLID_960_">
		<g id="XMLID_961_">
			<path id="XMLID_962_" style="fill:#B3404A;" d="M300.991,279.975h-240V179.658c0-69.669,53.832-126.35,120-126.35
				s120,56.681,120,126.35V279.975z M80.991,259.975h200v-80.316c0-58.642-44.859-106.351-100-106.351
				c-55.14,0-100,47.708-100,106.35V259.975z"/>
		</g>
		<g id="XMLID_965_">
			<path id="XMLID_966_" style="fill:#F4B2B0;" d="M224.131,307.01h-43.14l0,0h-43.158c-1.446,0-1.799,1.732-1.75,2.588
				c1.341,23.633,20.93,42.384,44.899,42.384c13.514,0,25.636-5.961,33.88-15.397c0.042-0.049,0.082-0.1,0.124-0.149
				c0.413-0.477,0.82-0.96,1.213-1.455c0.075-0.094,0.144-0.193,0.218-0.288c0.355-0.454,0.707-0.91,1.045-1.378
				c0.041-0.057,0.079-0.117,0.12-0.175c0.771-1.077,1.498-2.187,2.173-3.332c0.017-0.03,0.033-0.061,0.05-0.09
				c0.337-0.574,0.663-1.155,0.974-1.746c0.009-0.017,0.017-0.035,0.026-0.053c0.645-1.225,1.235-2.483,1.767-3.771
				c0.01-0.023,0.018-0.047,0.027-0.071c0.796-1.938,1.462-3.944,1.983-6.006c0.092-0.366,0.168-0.738,0.252-1.107
				c0.075-0.333,0.159-0.664,0.227-1c0.038-0.19,0.066-0.385,0.102-0.576c0.182-0.966,0.331-1.943,0.45-2.93
				c0.101-0.835,0.182-1.676,0.236-2.525c0.011-0.167,0.03-0.331,0.039-0.498c0.005-0.1,0.011-0.214,0.013-0.335
				C225.918,308.253,225.761,307.01,224.131,307.01z"/>
			<path id="XMLID_967_" style="fill:#B3404A;" d="M180.982,361.982c-29.127,0-53.234-22.761-54.883-51.818
				c-0.202-3.534,1.06-7.108,3.374-9.558c2.19-2.319,5.16-3.596,8.36-3.596h86.298c3.255,0,6.249,1.223,8.43,3.445
				c1.568,1.598,3.421,4.426,3.34,8.831c-0.003,0.209-0.013,0.426-0.021,0.621c-0.015,0.268-0.03,0.479-0.05,0.688
				c-0.064,0.991-0.161,2.031-0.288,3.072c-0.147,1.218-0.333,2.426-0.551,3.58c-0.044,0.261-0.081,0.474-0.123,0.683
				c-0.069,0.343-0.142,0.657-0.216,0.971l-0.122,0.538c-0.078,0.357-0.157,0.715-0.246,1.068c-0.621,2.453-1.416,4.873-2.369,7.215
				l-0.106,0.265c-0.617,1.498-1.327,3.016-2.101,4.493l-0.083,0.161c-0.36,0.684-0.737,1.358-1.127,2.024l-0.126,0.221
				c-0.785,1.333-1.657,2.673-2.592,3.985c-0.065,0.096-0.128,0.186-0.191,0.274c-0.418,0.579-0.834,1.121-1.253,1.658
				c-0.114,0.153-0.216,0.286-0.32,0.417c-0.452,0.568-0.934,1.143-1.423,1.709l-0.148,0.177
				C211.944,355.124,196.851,361.982,180.982,361.982z M147.457,317.01c4.313,14.501,17.763,24.972,33.525,24.972
				c10.055,0,19.624-4.331,26.27-11.886l0.121-0.144c0.354-0.409,0.655-0.765,0.944-1.126c0.083-0.11,0.155-0.206,0.229-0.3
				c0.254-0.326,0.516-0.662,0.767-1.007l0.122-0.177c0.603-0.843,1.148-1.676,1.637-2.495c0.041-0.073,0.082-0.146,0.125-0.218
				c0.215-0.366,0.437-0.759,0.651-1.159l0.174-0.333c0.455-0.873,0.874-1.766,1.246-2.657l0.1-0.245
				c0.426-1.038,0.809-2.123,1.138-3.225H147.457z"/>
		</g>
		<g id="XMLID_970_">
			<path id="XMLID_971_" style="fill:#B3404A;" d="M297.201,315.496h-26.21v-20h26.21c2.09,0,3.79-1.7,3.79-3.79v-8
				c0-2.09-1.7-3.791-3.79-3.791H64.782c-2.09,0-3.791,1.7-3.791,3.791v8c0,2.09,1.701,3.79,3.791,3.79h176.209v20H64.782
				c-13.118,0-23.791-10.672-23.791-23.79v-8c0-13.118,10.672-23.791,23.791-23.791h232.419c13.118,0,23.79,10.672,23.79,23.791v8
				C320.991,304.824,310.319,315.496,297.201,315.496z"/>
		</g>
		<g id="XMLID_972_">
			<path id="XMLID_973_" style="fill:#F4B2B0;" d="M180.991,63.308c10.381,0,20.448,1.544,30,4.426V40c0-16.5-13.5-30-30-30
				s-30,13.5-30,30v27.734C160.544,64.852,170.61,63.308,180.991,63.308z"/>
			<path id="XMLID_974_" style="fill:#B3404A;" d="M140.991,81.198V40c0-22.056,17.944-40,40-40s40,17.944,40,40v41.198
				l-12.889-3.89c-17.593-5.31-36.632-5.31-54.222,0L140.991,81.198z M180.991,53.308c6.721,0,13.41,0.593,20,1.769V40
				c0-11.028-8.972-20-20-20s-20,8.972-20,20v15.077C167.581,53.901,174.271,53.308,180.991,53.308z"/>
		</g>
	</g>
	<g id="XMLID_977_">
		<path id="XMLID_978_" style="fill:#B3404A;" d="M116.658,174.799h-20c0-45.563,35.29-82.631,78.667-82.631v20
			C142.976,112.168,116.658,140.264,116.658,174.799z"/>
	</g>
</g>
<g>
</g>
<g>
</g>
<g>
</g>
<g>
</g>
<g>
</g>
<g>
</g>
<g>
</g>
<g>
</g>
<g>
</g>
<g>
</g>
<g>
</g>
<g>
</g>
<g>
</g>
<g>
</g>
<g>
</g>
</svg>
