<?xml version="1.0" encoding="iso-8859-1"?>
<!-- Generator: Adobe Illustrator 19.0.0, SVG Export Plug-In . SVG Version: 6.00 Build 0)  -->
<svg version="1.1" id="Layer_1" xmlns="http://www.w3.org/2000/svg" xmlns:xlink="http://www.w3.org/1999/xlink" x="0px" y="0px"
	 viewBox="0 0 359.311 359.311" style="enable-background:new 0 0 359.311 359.311;" xml:space="preserve">
<g id="XMLID_795_">
	<g id="XMLID_796_">
		<path id="XMLID_797_" style="fill:#B3404A;" d="M299.367,359.311H59.945c-23.009,0-41.728-18.719-41.728-41.728V41.728
			C18.218,18.719,36.937,0,59.945,0h239.422c23.009,0,41.728,18.719,41.728,41.728v275.855
			C341.095,340.592,322.376,359.311,299.367,359.311z M59.945,20c-11.98,0-21.728,9.747-21.728,21.728v275.855
			c0,11.98,9.747,21.728,21.728,21.728h239.422c11.98,0,21.728-9.747,21.728-21.728V41.728c0-11.98-9.747-21.728-21.728-21.728
			H59.945z"/>
	</g>
	<g id="XMLID_800_">
		<path id="XMLID_801_" style="fill:#F4B2B0;" d="M299.367,10H59.945c-17.522,0-31.727,14.205-31.727,31.727v275.856
			c0,17.522,14.205,31.727,31.727,31.727h239.422c17.522,0,31.727-14.205,31.727-31.727V41.727C331.094,24.205,316.89,10,299.367,10
			z M290.521,285.881c0,12.624-10.233,22.857-22.857,22.857H91.649c-12.624,0-22.857-10.233-22.857-22.857V73.43
			c0-12.624,10.233-22.857,22.857-22.857h176.015c12.624,0,22.857,10.233,22.857,22.857V285.881z"/>
		<path id="XMLID_804_" style="fill:#B3404A;" d="M299.367,359.311H59.945c-23.008,0-41.727-18.719-41.727-41.728V41.728
			C18.219,18.719,36.938,0,59.945,0h239.422c23.008,0,41.727,18.719,41.727,41.728v275.855
			C341.094,340.592,322.375,359.311,299.367,359.311z M59.945,20c-11.98,0-21.727,9.747-21.727,21.728v275.855
			c0,11.98,9.746,21.728,21.727,21.728h239.422c11.98,0,21.727-9.747,21.727-21.728V41.728c0-11.98-9.746-21.728-21.727-21.728
			H59.945z M267.664,318.737H91.648c-18.117,0-32.856-14.739-32.856-32.856V73.43c0-18.117,14.739-32.856,32.856-32.856h176.016
			c18.117,0,32.856,14.739,32.856,32.856v212.451C300.521,303.998,285.781,318.737,267.664,318.737z M91.648,60.573
			c-7.089,0-12.856,5.768-12.856,12.856V285.88c0,7.089,5.768,12.856,12.856,12.856h176.016c7.089,0,12.856-5.768,12.856-12.856
			V73.43c0-7.089-5.768-12.856-12.856-12.856L91.648,60.573L91.648,60.573z"/>
	</g>
	<g id="XMLID_809_">
		<g id="XMLID_810_">
			<path id="XMLID_811_" style="fill:#B3404A;" d="M108.904,217.24c-2.641,0-5.096-0.424-7.364-1.27
				c-2.269-0.846-4.215-2.031-5.841-3.556c-1.625-1.523-2.913-3.317-3.86-5.383c-0.949-2.065-1.421-4.317-1.421-6.755
				c0-2.641,0.558-5.045,1.675-7.212c1.118-2.167,2.692-4.029,4.724-5.587c2.031-1.557,4.435-2.777,7.212-3.658
				c2.777-0.879,5.858-1.32,9.245-1.32c2.234,0,4.401,0.188,6.501,0.559c2.098,0.373,3.927,0.931,5.485,1.677v-2.438
				c0-6.162-3.556-9.245-10.666-9.245c-2.913,0-5.689,0.492-8.33,1.474s-5.418,2.454-8.33,4.418l-4.774-10.157
				c3.52-2.302,7.177-4.029,10.97-5.181c3.792-1.152,7.822-1.727,12.088-1.727c8.059,0,14.288,1.896,18.691,5.688
				c4.401,3.794,6.603,9.345,6.603,16.659v13.714c0,1.625,0.254,2.76,0.763,3.402c0.507,0.644,1.405,1.033,2.691,1.168v13.714
				c-1.421,0.339-2.709,0.559-3.859,0.661c-1.153,0.101-2.201,0.152-3.149,0.152c-3.048,0-5.35-0.594-6.907-1.778
				c-1.559-1.183-2.54-2.86-2.947-5.028l-0.305-2.438c-2.371,3.048-5.198,5.384-8.482,7.009
				C116.03,216.427,112.562,217.24,108.904,217.24z M113.679,205.559c1.76,0,3.469-0.305,5.129-0.915
				c1.659-0.609,3.031-1.422,4.115-2.438c1.557-1.218,2.336-2.505,2.336-3.86v-5.079c-1.422-0.541-2.963-0.965-4.622-1.27
				c-1.66-0.305-3.199-0.457-4.622-0.457c-2.98,0-5.435,0.678-7.364,2.031c-1.931,1.356-2.896,3.116-2.896,5.283
				c0,1.965,0.745,3.573,2.235,4.826C109.479,204.933,111.376,205.559,113.679,205.559z"/>
		</g>
		<g id="XMLID_814_">
			<path id="XMLID_815_" style="fill:#B3404A;" d="M185.294,217.24c-4.064,0-7.619-0.863-10.667-2.59
				c-3.047-1.727-5.451-4.147-7.212-7.264v8.838h-14.119V142.07h16.253v29.559c1.761-3.047,4.115-5.434,7.06-7.16
				c2.947-1.727,6.415-2.59,10.413-2.59c3.386,0,6.501,0.727,9.345,2.184c2.845,1.456,5.283,3.437,7.314,5.942
				c2.031,2.506,3.622,5.47,4.774,8.889c1.15,3.421,1.727,7.06,1.727,10.92s-0.627,7.466-1.879,10.818
				c-1.254,3.353-2.997,6.266-5.231,8.736c-2.235,2.473-4.876,4.403-7.924,5.791C192.099,216.546,188.814,217.24,185.294,217.24z
				 M180.721,203.527c1.896,0,3.622-0.356,5.181-1.067c1.557-0.711,2.895-1.677,4.013-2.895c1.118-1.22,1.996-2.657,2.641-4.317
				c0.643-1.659,0.965-3.47,0.965-5.435c0-1.896-0.305-3.708-0.914-5.435c-0.61-1.727-1.44-3.233-2.49-4.52
				c-1.05-1.286-2.32-2.302-3.809-3.047c-1.49-0.745-3.082-1.118-4.774-1.118c-2.575,0-4.928,0.881-7.061,2.641
				c-2.132,1.762-3.776,3.962-4.926,6.603v11.174c1.082,2.303,2.657,4.115,4.724,5.435
				C176.337,202.867,178.486,203.527,180.721,203.527z"/>
		</g>
		<g id="XMLID_818_">
			<path id="XMLID_819_" style="fill:#B3404A;" d="M215.159,189.509c0-3.658,0.643-7.162,1.93-10.513
				c1.286-3.353,3.149-6.298,5.587-8.838s5.435-4.554,8.991-6.044c3.556-1.489,7.601-2.234,12.138-2.234
				c6.162,0,11.343,1.304,15.543,3.911c4.198,2.608,7.347,6.01,9.447,10.209l-15.848,4.774c-2.099-3.386-5.181-5.079-9.243-5.079
				c-3.387,0-6.214,1.254-8.482,3.758c-2.271,2.506-3.403,5.858-3.403,10.057c0,2.099,0.305,4.013,0.914,5.739
				c0.61,1.727,1.456,3.199,2.54,4.419c1.082,1.218,2.352,2.167,3.81,2.843c1.455,0.678,2.996,1.017,4.622,1.017
				c2.031,0,3.893-0.491,5.587-1.474c1.692-0.98,2.945-2.25,3.758-3.809l15.846,4.876c-1.965,4.131-5.096,7.517-9.396,10.157
				c-4.302,2.642-9.533,3.962-15.695,3.962c-4.469,0-8.482-0.761-12.036-2.286c-3.556-1.523-6.57-3.556-9.041-6.094
				c-2.473-2.54-4.352-5.485-5.639-8.838C215.801,196.67,215.159,193.165,215.159,189.509z"/>
		</g>
	</g>
</g>
<g>
</g>
<g>
</g>
<g>
</g>
<g>
</g>
<g>
</g>
<g>
</g>
<g>
</g>
<g>
</g>
<g>
</g>
<g>
</g>
<g>
</g>
<g>
</g>
<g>
</g>
<g>
</g>
<g>
</g>
</svg>
