<?xml version="1.0" encoding="iso-8859-1"?>
<!-- Generator: Adobe Illustrator 19.0.0, SVG Export Plug-In . SVG Version: 6.00 Build 0)  -->
<svg version="1.1" id="Layer_1" xmlns="http://www.w3.org/2000/svg" xmlns:xlink="http://www.w3.org/1999/xlink" x="0px" y="0px"
	 viewBox="0 0 327.389 327.389" style="enable-background:new 0 0 327.389 327.389;" xml:space="preserve">
<g id="XMLID_2102_">
	<g id="XMLID_2103_">
		<g id="XMLID_2104_">
			<path id="XMLID_52_" style="fill:#F4B2B0;" d="M61.049,273.766h57.637v40.849c0,1.976-2.405,3.316-4.589,2.559l-22.957-7.966
				c-0.814-0.283-1.73-0.283-2.544,0l-22.957,7.966c-2.184,0.758-4.589-0.583-4.589-2.559L61.049,273.766L61.049,273.766z"/>
			<path id="XMLID_2105_" style="fill:#B3404A;" d="M115.373,327.389c-1.553,0-3.085-0.258-4.553-0.768l-20.952-7.271l-20.952,7.271
				c-1.468,0.51-3,0.768-4.553,0.768c-7.341,0-13.314-5.73-13.314-12.773v-50.85h77.637v50.85
				C128.686,321.658,122.714,327.388,115.373,327.389z M89.868,298.995c1.556,0,3.086,0.257,4.547,0.763l14.272,4.953v-20.945H71.05
				v20.945l14.268-4.951C86.783,299.252,88.312,298.995,89.868,298.995z"/>
		</g>
		<g id="XMLID_2108_">
			<path id="XMLID_2109_" style="fill:#B3404A;" d="M239.225,283.077H59.647c-22.586,0-40.961-18.375-40.961-40.962V40.962
				C18.687,18.375,37.062,0,59.647,0h179.577c16.245,0,29.461,13.217,29.461,29.462v224.153
				C268.687,269.86,255.47,283.077,239.225,283.077z M59.647,20c-11.558,0-20.961,9.403-20.961,20.962v201.153
				c0,11.559,9.403,20.962,20.961,20.962h179.577c5.217,0,9.461-4.244,9.461-9.462V29.462c0-5.218-4.244-9.462-9.461-9.462H59.647z"
				/>
		</g>
	</g>
	<g id="XMLID_2112_">
		<g id="XMLID_2113_">
			<path id="XMLID_2114_" style="fill:#B3404A;" d="M182.611,282.369c-22.909,0-44.447-8.921-60.646-25.12
				s-25.12-37.736-25.12-60.646s8.921-44.447,25.12-60.646c16.199-16.198,37.737-25.119,60.646-25.119s44.447,8.921,60.646,25.119
				c16.199,16.199,25.121,37.737,25.121,60.646s-8.921,44.446-25.121,60.646C227.059,273.448,205.52,282.369,182.611,282.369z
				 M182.611,130.838c-17.567,0-34.082,6.84-46.504,19.262c-12.421,12.422-19.262,28.937-19.262,46.504
				c0,17.566,6.841,34.082,19.262,46.503c12.422,12.422,28.937,19.263,46.504,19.263s34.082-6.841,46.503-19.263
				c12.422-12.421,19.263-28.937,19.263-46.503c0-17.567-6.841-34.082-19.263-46.504
				C216.693,137.678,200.178,130.838,182.611,130.838z"/>
		</g>
		<g id="XMLID_2117_">
			<path id="XMLID_38_" style="fill:#F4B2B0;" d="M236.186,250.178c-6.563,6.563-14.032,11.667-22.004,15.319l39.483,39.483
				c10.264,10.264,27.059,10.264,37.322,0c10.264-10.264,10.264-27.059,0-37.322l-39.483-39.483
				C247.854,236.146,242.749,243.615,236.186,250.178z"/>
			<path id="XMLID_2118_" style="fill:#B3404A;" d="M272.328,322.678c-9.741,0-18.879-3.773-25.732-10.626l-49.655-49.655
				l13.079-5.991c7.099-3.252,13.524-7.727,19.097-13.299c5.571-5.57,10.045-11.995,13.299-19.097l5.991-13.077l49.655,49.654
				c14.188,14.189,14.188,37.275,0,51.465C291.207,318.904,282.069,322.678,272.328,322.678z M230.559,267.731l30.178,30.178
				c3.075,3.075,7.191,4.769,11.59,4.769s8.515-1.693,11.59-4.769s4.769-7.191,4.769-11.59s-1.694-8.515-4.769-11.59l-30.177-30.178
				c-3.063,4.536-6.565,8.78-10.483,12.697C239.339,261.167,235.094,264.67,230.559,267.731z"/>
		</g>
	</g>
	<g id="XMLID_2121_">
		<rect id="XMLID_2122_" x="78.687" y="62.678" style="fill:#B3404A;" width="130.333" height="20"/>
	</g>
</g>
<g>
</g>
<g>
</g>
<g>
</g>
<g>
</g>
<g>
</g>
<g>
</g>
<g>
</g>
<g>
</g>
<g>
</g>
<g>
</g>
<g>
</g>
<g>
</g>
<g>
</g>
<g>
</g>
<g>
</g>
</svg>
