<?xml version="1.0" encoding="iso-8859-1"?>
<!-- Generator: Adobe Illustrator 19.0.0, SVG Export Plug-In . SVG Version: 6.00 Build 0)  -->
<svg version="1.1" id="Layer_1" xmlns="http://www.w3.org/2000/svg" xmlns:xlink="http://www.w3.org/1999/xlink" x="0px" y="0px"
	 viewBox="0 0 359.311 359.311" style="enable-background:new 0 0 359.311 359.311;" xml:space="preserve">
<g id="XMLID_1378_">
	<g id="XMLID_1379_">
		<path id="XMLID_1380_" style="fill:#B3404A;" d="M299.367,359.311H59.945c-23.008,0-41.727-18.719-41.727-41.728V41.728
			C18.218,18.719,36.937,0,59.945,0h239.422c23.008,0,41.727,18.719,41.727,41.728v275.855
			C341.094,340.592,322.376,359.311,299.367,359.311z M59.945,20c-11.98,0-21.727,9.747-21.727,21.728v275.855
			c0,11.98,9.747,21.728,21.727,21.728h239.422c11.98,0,21.727-9.747,21.727-21.728V41.728c0-11.98-9.747-21.728-21.727-21.728
			H59.945z"/>
	</g>
	<g id="XMLID_1383_">
		<path id="XMLID_40_" style="fill:#F4B2B0;" d="M217.165,17.205h65.761v142.132c0,4.695-4.773,7.88-9.109,6.08l-21.247-8.826
			c-1.617-0.672-3.434-0.672-5.051,0l-21.247,8.826c-4.335,1.801-9.109-1.385-9.109-6.08V17.205H217.165z"/>
		<path id="XMLID_1384_" style="fill:#B3404A;" d="M276.349,175.927c-2.187,0-4.329-0.43-6.366-1.275l-19.936-8.281l-19.936,8.281
			c-2.038,0.846-4.179,1.275-6.366,1.275c-9.142,0-16.579-7.442-16.579-16.59V7.205h85.761v152.132
			C292.927,168.484,285.49,175.926,276.349,175.927z M227.165,27.205v127.013l16.52-6.862c4.051-1.684,8.67-1.685,12.724,0.001
			l16.518,6.861V27.205H227.165z"/>
	</g>
	<g id="XMLID_1387_">
		<path id="XMLID_1388_" style="fill:#F4B2B0;" d="M98.853,10H59.945c-17.522,0-31.727,14.205-31.727,31.727v275.856
			c0,17.522,14.205,31.727,31.727,31.727h38.907L98.853,10L98.853,10z"/>
		<path id="XMLID_1389_" style="fill:#B3404A;" d="M108.853,359.311H59.945c-23.008,0-41.727-18.719-41.727-41.728V41.728
			C18.218,18.719,36.937,0,59.945,0h48.908C108.853,0,108.853,359.311,108.853,359.311z M59.945,20
			c-11.98,0-21.727,9.747-21.727,21.728v275.855c0,11.98,9.747,21.728,21.727,21.728h28.908V20H59.945z"/>
	</g>
</g>
<g>
</g>
<g>
</g>
<g>
</g>
<g>
</g>
<g>
</g>
<g>
</g>
<g>
</g>
<g>
</g>
<g>
</g>
<g>
</g>
<g>
</g>
<g>
</g>
<g>
</g>
<g>
</g>
<g>
</g>
</svg>
