<?xml version="1.0" encoding="iso-8859-1"?>
<!-- Generator: Adobe Illustrator 19.0.0, SVG Export Plug-In . SVG Version: 6.00 Build 0)  -->
<svg version="1.1" id="Layer_1" xmlns="http://www.w3.org/2000/svg" xmlns:xlink="http://www.w3.org/1999/xlink" x="0px" y="0px"
	 viewBox="0 0 389.427 389.427" style="enable-background:new 0 0 389.427 389.427;" xml:space="preserve">
<g id="XMLID_1638_">
	<g id="XMLID_1639_">
		<path id="XMLID_1640_" style="fill:#B3404A;" d="M264.039,321.289H125.413l-1.136-8.707c-1.748-13.402-7.901-19.354-18.096-29.215
			c-0.77-0.744-1.551-1.5-2.343-2.272c-17.242-16.8-40.854-39.807-40.854-94.547c0-35.121,13.973-67.112,39.345-90.079
			c24.267-21.966,57.076-34.064,92.384-34.064s68.118,12.097,92.385,34.064c5.498,4.977,10.539,10.464,14.983,16.309
			c2.525,3.322,4.894,6.808,7.042,10.363c1.077,1.781,2.116,3.608,3.091,5.432c1.953,3.656,3.736,7.466,5.299,11.324
			c1.167,2.879,2.239,5.857,3.187,8.85c3.812,12.055,5.743,24.771,5.743,37.801c0,22.847-4.021,41.912-12.293,58.283
			c-0.492,0.972-0.992,1.924-1.503,2.856c-1.46,2.674-3.075,5.333-4.798,7.899c-0.553,0.824-1.112,1.632-1.676,2.424
			c-2.107,2.958-4.374,5.829-6.933,8.779c-4.612,5.317-9.379,9.945-13.586,14.028c-0.842,0.817-1.672,1.617-2.489,2.404
			c-10.172,9.794-16.311,15.706-18.024,29.315L264.039,321.289z M142.359,301.289h104.65c4.076-14.941,12.961-23.495,22.284-32.472
			c0.798-0.768,1.608-1.549,2.431-2.347c4.109-3.989,8.358-8.114,12.407-12.781c2.136-2.464,4.018-4.845,5.751-7.278
			c0.458-0.643,0.912-1.3,1.362-1.97c1.383-2.061,2.68-4.196,3.853-6.343c0.41-0.75,0.811-1.511,1.202-2.287
			c6.825-13.507,10.144-29.622,10.144-49.262c0-10.981-1.619-21.669-4.813-31.769c-0.788-2.493-1.682-4.974-2.653-7.372
			c-1.3-3.208-2.781-6.374-4.403-9.41c-0.809-1.515-1.673-3.033-2.566-4.512c-1.783-2.95-3.751-5.845-5.848-8.604
			c-3.697-4.863-7.898-9.435-12.483-13.585c-20.582-18.631-48.625-28.891-78.963-28.891s-58.381,10.26-78.962,28.891
			c-21.13,19.127-32.767,45.852-32.767,75.251c0,46.303,18.494,64.323,34.812,80.222c0.774,0.754,1.539,1.493,2.291,2.221
			C129.383,277.984,138.244,286.555,142.359,301.289z"/>
	</g>
	<g id="XMLID_1643_">
		<g id="XMLID_1644_">
			
				<rect id="XMLID_1645_" x="127.379" y="248.483" transform="matrix(-0.4961 -0.8682 0.8682 -0.4961 32.4858 535.8177)" style="fill:#B3404A;" width="88.68" height="19.999"/>
		</g>
		<g id="XMLID_1646_">
			
				<rect id="XMLID_1647_" x="207.713" y="214.141" transform="matrix(-0.8682 -0.4961 0.4961 -0.8682 278.5006 590.9201)" style="fill:#B3404A;" width="19.999" height="88.68"/>
		</g>
	</g>
	<g id="XMLID_1648_">
		<g id="XMLID_1649_">
			<rect id="XMLID_1650_" x="184.713" style="fill:#B3404A;" width="20" height="40"/>
		</g>
		<g id="XMLID_1651_">
			<rect id="XMLID_1652_" x="344.714" y="140" style="fill:#B3404A;" width="35" height="20"/>
		</g>
		<g id="XMLID_1653_">
			<rect id="XMLID_1654_" x="9.713" y="140" style="fill:#B3404A;" width="35" height="20"/>
		</g>
		<g id="XMLID_1655_">
			
				<rect id="XMLID_1656_" x="304.712" y="45.856" transform="matrix(-0.7071 -0.7071 0.7071 -0.7071 494.8227 324.9573)" style="fill:#B3404A;" width="20.001" height="28.284"/>
		</g>
		<g id="XMLID_1657_">
			
				<rect id="XMLID_1658_" x="60.571" y="49.999" transform="matrix(-0.7071 -0.7071 0.7071 -0.7071 85.1174 155.2552)" style="fill:#B3404A;" width="28.284" height="20.001"/>
		</g>
	</g>
	<g id="XMLID_1659_">
		<path id="XMLID_1660_" style="fill:#F4B2B0;" d="M128.783,296.461v34.316c0,6.127,4.967,11.095,11.095,11.095h7.903v26.46
			c0,6.127,4.967,11.095,11.095,11.095h71.675c6.127,0,11.095-4.967,11.095-11.095v-26.46h7.903c6.127,0,11.095-4.967,11.095-11.095
			v-34.316H128.783z"/>
		<path id="XMLID_1661_" style="fill:#B3404A;" d="M230.551,389.427h-71.675c-11.632,0-21.095-9.463-21.095-21.095v-16.563
			c-10.65-1.056-18.998-10.067-18.998-20.991v-44.316h151.86v44.316c0,10.924-8.347,19.935-18.997,20.991v16.563
			C251.646,379.964,242.183,389.427,230.551,389.427z M138.783,306.461v24.316c0,0.604,0.491,1.095,1.095,1.095h17.903v36.459
			c0,0.604,0.491,1.095,1.095,1.095h71.675c0.604,0,1.095-0.491,1.095-1.095v-36.459h17.903c0.604,0,1.094-0.491,1.094-1.095
			v-24.316H138.783z"/>
	</g>
</g>
<g>
</g>
<g>
</g>
<g>
</g>
<g>
</g>
<g>
</g>
<g>
</g>
<g>
</g>
<g>
</g>
<g>
</g>
<g>
</g>
<g>
</g>
<g>
</g>
<g>
</g>
<g>
</g>
<g>
</g>
</svg>
