<?xml version="1.0" encoding="iso-8859-1"?>
<!-- Generator: Adobe Illustrator 19.0.0, SVG Export Plug-In . SVG Version: 6.00 Build 0)  -->
<svg version="1.1" id="Layer_1" xmlns="http://www.w3.org/2000/svg" xmlns:xlink="http://www.w3.org/1999/xlink" x="0px" y="0px"
	 viewBox="0 0 360 360" style="enable-background:new 0 0 360 360;" xml:space="preserve">
<g id="XMLID_1928_">
	<g id="XMLID_1929_">
		<path id="XMLID_1930_" style="fill:#B3404A;" d="M288.25,360H71.75c-18.886,0-34.25-15.364-34.25-34.25V34.25
			C37.5,15.364,52.864,0,71.75,0h216.5c18.886,0,34.25,15.364,34.25,34.25v291.5C322.5,344.636,307.136,360,288.25,360z M71.75,20
			c-7.857,0-14.25,6.393-14.25,14.25v291.5c0,7.857,6.393,14.25,14.25,14.25h216.5c7.857,0,14.25-6.393,14.25-14.25V34.25
			c0-7.857-6.393-14.25-14.25-14.25H71.75z"/>
	</g>
	<g id="XMLID_1933_">
		<path id="XMLID_49_" style="fill:#F4B2B0;" d="M259,120H101c-6.075,0-11-4.925-11-11V71c0-6.075,4.925-11,11-11h158
			c6.075,0,11,4.925,11,11v38C270,115.075,265.075,120,259,120z"/>
		<path id="XMLID_1934_" style="fill:#B3404A;" d="M259,130H101c-11.58,0-21-9.421-21-21V71c0-11.579,9.42-21,21-21h158
			c11.58,0,21,9.421,21,21v38C280,120.579,270.58,130,259,130z M101,70c-0.551,0-1,0.448-1,1v38c0,0.552,0.449,1,1,1h158
			c0.551,0,1-0.448,1-1V71c0-0.552-0.449-1-1-1H101z"/>
	</g>
	<g id="XMLID_1937_">
		<path id="XMLID_1938_" style="fill:#B3404A;" d="M267,300.251h-60.5c-11.58,0-21-9.421-21-21v-103.5c0-11.579,9.42-21,21-21H267
			v20h-60.5c-0.551,0-1,0.448-1,1v103.5c0,0.552,0.449,1,1,1H267V300.251z"/>
	</g>
	<g id="XMLID_1939_">
		<g id="XMLID_1940_">
			<rect id="XMLID_1941_" x="221.836" y="201.669" style="fill:#B3404A;" width="47.327" height="20"/>
		</g>
		<g id="XMLID_1942_">
			<rect id="XMLID_1943_" x="221.836" y="233.333" style="fill:#B3404A;" width="47.327" height="20"/>
		</g>
	</g>
	<g id="XMLID_1944_">
		<g id="XMLID_1945_">
			<rect id="XMLID_1946_" x="104.5" y="173.338" style="fill:#B3404A;" width="20" height="47.327"/>
		</g>
		<g id="XMLID_1947_">
			<rect id="XMLID_1948_" x="90.836" y="187.001" style="fill:#B3404A;" width="47.327" height="20"/>
		</g>
	</g>
	<g id="XMLID_1949_">
		<rect id="XMLID_1950_" x="90.836" y="271.665" style="fill:#B3404A;" width="47.327" height="20"/>
	</g>
</g>
<g>
</g>
<g>
</g>
<g>
</g>
<g>
</g>
<g>
</g>
<g>
</g>
<g>
</g>
<g>
</g>
<g>
</g>
<g>
</g>
<g>
</g>
<g>
</g>
<g>
</g>
<g>
</g>
<g>
</g>
</svg>
