<?xml version="1.0" encoding="iso-8859-1"?>
<!-- Generator: Adobe Illustrator 19.0.0, SVG Export Plug-In . SVG Version: 6.00 Build 0)  -->
<svg version="1.1" id="Layer_1" xmlns="http://www.w3.org/2000/svg" xmlns:xlink="http://www.w3.org/1999/xlink" x="0px" y="0px"
	 viewBox="0 0 369.047 369.047" style="enable-background:new 0 0 369.047 369.047;" xml:space="preserve">
<g id="XMLID_1491_">
	<g id="XMLID_1492_">
		<path id="XMLID_1493_" style="fill:#B3404A;" d="M231.523,364.523h-94v-96h94V364.523z M157.523,344.523h54v-56h-54V344.523z"/>
	</g>
	<g id="XMLID_1496_">
		<g id="XMLID_1497_">
			<path id="XMLID_1498_" style="fill:#B3404A;" d="M327.892,308.419H41.155c-22.692,0-41.154-18.462-41.154-41.155V45.678
				c0-22.692,18.462-41.154,41.154-41.154h286.736c22.692,0,41.154,18.462,41.154,41.154v221.586
				C369.046,289.957,350.584,308.419,327.892,308.419z M41.155,24.523c-11.664,0-21.154,9.489-21.154,21.154v221.586
				c0,11.665,9.49,21.155,21.154,21.155h286.736c11.664,0,21.154-9.49,21.154-21.155V45.678c0-11.665-9.49-21.154-21.154-21.154
				H41.155V24.523z"/>
		</g>
		<g id="XMLID_1501_">
			<path id="XMLID_1502_" style="fill:#B3404A;" d="M293.968,268.419H75.078C55.736,268.419,40,252.683,40,233.341V79.602
				c0-19.342,15.736-35.078,35.078-35.078h218.89c19.342,0,35.078,15.736,35.078,35.078h-20c0-8.314-6.764-15.078-15.078-15.078
				H75.078C66.764,64.523,60,71.287,60,79.602v153.739c0,8.314,6.764,15.078,15.078,15.078h218.89
				c8.314,0,15.078-6.764,15.078-15.078v-85.818h20v85.818C329.046,252.683,313.31,268.419,293.968,268.419z"/>
		</g>
	</g>
	<g id="XMLID_1503_">
		<path id="XMLID_1504_" style="fill:#F4B2B0;" d="M10,220.523v46.741c0,17.206,13.948,31.154,31.155,31.154h286.737
			c17.206,0,31.155-13.948,31.155-31.154v-46.741L10,220.523L10,220.523z"/>
		<path id="XMLID_1505_" style="fill:#B3404A;" d="M327.892,308.418H41.155C18.462,308.418,0,289.956,0,267.264v-56.74h369.047
			v56.74C369.047,289.956,350.585,308.418,327.892,308.418z M20,230.523v36.74c0,11.665,9.49,21.154,21.155,21.154h286.736
			c11.665,0,21.155-9.489,21.155-21.154v-36.74H20z"/>
	</g>
	<g id="XMLID_1508_">
		<rect id="XMLID_1509_" x="166.523" y="249.471" style="fill:#B3404A;" width="36" height="20"/>
	</g>
	<g id="XMLID_1510_">
		<rect id="XMLID_1511_" x="105.023" y="344.523" style="fill:#B3404A;" width="159" height="20"/>
	</g>
</g>
<g>
</g>
<g>
</g>
<g>
</g>
<g>
</g>
<g>
</g>
<g>
</g>
<g>
</g>
<g>
</g>
<g>
</g>
<g>
</g>
<g>
</g>
<g>
</g>
<g>
</g>
<g>
</g>
<g>
</g>
</svg>
