<?xml version="1.0" encoding="iso-8859-1"?>
<!-- Generator: Adobe Illustrator 19.0.0, SVG Export Plug-In . SVG Version: 6.00 Build 0)  -->
<svg version="1.1" id="Layer_1" xmlns="http://www.w3.org/2000/svg" xmlns:xlink="http://www.w3.org/1999/xlink" x="0px" y="0px"
	 viewBox="0 0 359.549 359.549" style="enable-background:new 0 0 359.549 359.549;" xml:space="preserve">
<g id="XMLID_979_">
	<g id="XMLID_980_">
		<path id="XMLID_981_" style="fill:#B3404A;" d="M199.775,251.825c-0.246,0-0.483-0.003-0.724-0.012
			c-31.271-0.199-60.852-13.963-81.183-37.787c-16.588-19.439-25.724-44.239-25.724-69.832c0-21.979,6.582-43.119,19.033-61.134
			c12.158-17.59,29.052-31.048,48.854-38.918c12.655-5.028,26.026-7.577,39.743-7.577c21.244,0,41.801,6.189,59.448,17.897
			c30.17,20.021,48.182,53.566,48.182,89.733c0,4.197-0.248,8.444-0.738,12.624c-2.748,23.578-13.484,45.924-30.229,62.916
			C256.056,240.427,228.829,251.825,199.775,251.825z M199.775,56.564c-11.177,0-22.063,2.074-32.357,6.164
			c-33.576,13.345-55.272,45.322-55.272,81.466c0,20.838,7.436,41.027,20.937,56.849c16.594,19.443,40.747,30.659,66.268,30.771
			l0.436,0.01c23.651-0.002,45.813-9.281,62.405-26.127c13.636-13.837,22.376-32.02,24.612-51.201
			c0.4-3.416,0.603-6.879,0.603-10.302c0-29.447-14.669-56.763-39.239-73.068C233.807,61.6,217.073,56.564,199.775,56.564z"/>
	</g>
	<g id="XMLID_984_">
		<path id="XMLID_985_" style="fill:#B3404A;" d="M196.344,288.398c-79.511,0-144.198-64.688-144.198-144.199
			C52.145,64.688,116.832,0,196.344,0v20C127.859,20,72.145,75.715,72.145,144.199s55.715,124.199,124.198,124.199
			c33.175,0,64.364-12.919,87.822-36.377l14.143,14.143C271.072,273.398,234.861,288.398,196.344,288.398z"/>
	</g>
	<g id="XMLID_986_">
		<g id="XMLID_987_">
			<rect id="XMLID_988_" x="186.775" y="278.398" style="fill:#B3404A;" width="20" height="71.151"/>
		</g>
		<g id="XMLID_989_">
			<rect id="XMLID_990_" x="127.774" y="339.549" style="fill:#B3404A;" width="138" height="20"/>
		</g>
	</g>
	<g id="XMLID_991_">
		<path id="XMLID_992_" style="fill:#F4B2B0;" d="M243.445,94.144c-19.34,11.27-19.34,35.48-29.34,47.3
			c-10,11.83-38.66-16.89-37.41-34.91c1.24-18.02-4.59-15.76-7.92-18.58c-2.12-1.79-3.98-19.92-5.05-33.52
			c11.15-4.43,23.32-7.87,36.05-7.87c19.93,0,38.47,6.98,53.92,17.23C254.605,75.964,253.095,88.524,243.445,94.144z"/>
		<path id="XMLID_993_" style="fill:#B3404A;" d="M207.956,154.219c-11.136,0-21.179-8.981-26.174-14.335
			c-3.805-4.078-16.136-18.584-15.063-34.041c0.293-4.266,0.084-6.532-0.104-7.611c-1.139-0.525-2.716-1.303-4.302-2.646
			c-3.387-2.859-4.817-7.041-6.368-18.637c-0.961-7.182-1.721-15.781-2.188-21.73l-0.579-7.354l6.855-2.724
			c14.525-5.771,27.525-8.577,39.742-8.577c20.258,0,40.815,6.535,59.448,18.897l4.079,2.706l0.364,4.881
			c1.47,19.642-3.641,33.012-15.189,39.737c-8.974,5.229-12.577,14.775-16.393,24.881c-2.684,7.11-5.46,14.461-10.345,20.236
			C218.297,151.975,213.401,154.219,207.956,154.219z M207.956,134.219v10V134.219C207.957,134.219,207.957,134.219,207.956,134.219
			L207.956,134.219z M176.836,80.977c8.047,4.361,10.822,11.917,9.836,26.244c-0.275,3.974,2.979,11.779,9.734,19.019
			c4.749,5.09,8.862,7.301,10.769,7.842c2.329-3.229,4.214-8.221,6.199-13.479c4.423-11.714,9.927-26.293,25.036-35.099
			c4.353-2.534,5.514-9.408,5.508-16.053c-14.157-8.446-29.323-12.887-44.143-12.887c-7.886,0-16.102,1.481-25.441,4.62
			C175.303,71.755,176.208,77.911,176.836,80.977z"/>
	</g>
	<g id="XMLID_997_">
		<path id="XMLID_998_" style="fill:#F4B2B0;" d="M199.305,240.814c-29.56-0.13-56.02-13.41-73.83-34.28
			c12.01-14.77,33.49-36.18,44.63-23.65c16,18,19.34,36,26.67,35.66C200.715,218.364,200.415,229.524,199.305,240.814z"/>
		<path id="XMLID_999_" style="fill:#B3404A;" d="M208.366,250.854l-9.104-0.04c-31.349-0.138-61.016-13.911-81.393-37.788
			l-5.408-6.337l5.256-6.463c16.791-20.65,31.639-31.121,44.13-31.121c6.143,0,11.582,2.467,15.732,7.135
			c8.264,9.297,13.42,18.543,17.184,25.294c1.431,2.565,3.146,5.641,4.282,7.207c2.54,0.47,4.851,1.762,6.656,3.754
			c4.288,4.731,5.219,12.398,3.557,29.299L208.366,250.854z M138.904,206.234c13.936,13.455,31.897,21.899,51.107,24.042
			c0.037-1.342,0.031-2.413,0.003-3.263c-5.517-2.821-9.043-9.144-12.72-15.738c-3.499-6.275-7.854-14.085-14.663-21.746
			c-0.377-0.423-0.447-0.423-0.785-0.423C158.021,189.105,149.547,194.514,138.904,206.234z"/>
	</g>
	<g id="XMLID_1002_">
		<path id="XMLID_1003_" style="fill:#F4B2B0;" d="M295.735,155.654c-2.58,22.13-12.57,41.99-27.42,57.06
			c-17.02-3.5-28.54-15.36-28.54-29.44c0-16.84,17.91-30.5,40-30.5C285.835,152.774,290.585,153.804,295.735,155.654z"/>
		<path id="XMLID_1004_" style="fill:#B3404A;" d="M271.623,223.604l-5.323-1.095c-21.847-4.493-36.525-20.26-36.525-39.235
			c0-22.332,22.43-40.5,50-40.5c6.788,0,12.571,1.037,19.341,3.469l7.472,2.684l-0.92,7.886
			c-2.749,23.583-13.485,45.929-30.229,62.921L271.623,223.604z M279.774,162.774c-16.262,0-30,9.388-30,20.5
			c0,7.846,5.98,14.732,15.337,18.169c9.491-11.009,16.136-24.281,19.251-38.397C282.893,162.859,281.396,162.774,279.774,162.774z"
			/>
	</g>
</g>
<g>
</g>
<g>
</g>
<g>
</g>
<g>
</g>
<g>
</g>
<g>
</g>
<g>
</g>
<g>
</g>
<g>
</g>
<g>
</g>
<g>
</g>
<g>
</g>
<g>
</g>
<g>
</g>
<g>
</g>
</svg>
