<?xml version="1.0" encoding="iso-8859-1"?>
<!-- Generator: Adobe Illustrator 19.0.0, SVG Export Plug-In . SVG Version: 6.00 Build 0)  -->
<svg version="1.1" id="Layer_1" xmlns="http://www.w3.org/2000/svg" xmlns:xlink="http://www.w3.org/1999/xlink" x="0px" y="0px"
	 viewBox="0 0 370.968 370.968" style="enable-background:new 0 0 370.968 370.968;" xml:space="preserve">
<g id="XMLID_1759_">
	<g id="XMLID_1760_">
		<path id="XMLID_1761_" style="fill:#B3404A;" d="M346.922,281.635H24.047V79.351c0-18.073,14.703-32.777,32.776-32.777h257.322
			c18.073,0,32.776,14.704,32.776,32.777v202.284H346.922z M44.047,261.635h282.875V79.351c0-7.045-5.731-12.777-12.776-12.777
			H56.823c-7.045,0-12.776,5.732-12.776,12.777V261.635z"/>
	</g>
	<g id="XMLID_1764_">
		<path id="XMLID_1765_" style="fill:#B3404A;" d="M306.922,281.635H64.047V109.301c0-12.532,10.195-22.728,22.728-22.728h197.42
			c12.532,0,22.728,10.195,22.728,22.728h-20c0-1.504-1.224-2.728-2.728-2.728H86.774c-1.504,0-2.728,1.224-2.728,2.728v152.334
			h202.875V149.517h20L306.922,281.635L306.922,281.635z"/>
	</g>
	<g id="XMLID_1766_">
		<path id="XMLID_35_" style="fill:#F4B2B0;" d="M350.028,314.395H20.941c-6.043,0-10.941-4.898-10.941-10.941v-20.874
			c0-6.043,4.898-10.941,10.941-10.941h329.087c6.043,0,10.941,4.898,10.941,10.941v20.874
			C360.969,309.496,356.07,314.395,350.028,314.395z"/>
		<path id="XMLID_1767_" style="fill:#B3404A;" d="M350.027,324.395H20.941C9.395,324.395,0,315,0,303.454v-20.873
			c0-11.547,9.395-20.941,20.941-20.941h329.086c11.547,0,20.941,9.395,20.941,20.941v20.873
			C370.969,315,361.574,324.395,350.027,324.395z M20.941,281.639c-0.52,0-0.941,0.422-0.941,0.941v20.873
			c0,0.52,0.422,0.941,0.941,0.941h329.086c0.52,0,0.941-0.422,0.941-0.941V282.58c0-0.52-0.422-0.941-0.941-0.941H20.941z"/>
	</g>
</g>
<g>
</g>
<g>
</g>
<g>
</g>
<g>
</g>
<g>
</g>
<g>
</g>
<g>
</g>
<g>
</g>
<g>
</g>
<g>
</g>
<g>
</g>
<g>
</g>
<g>
</g>
<g>
</g>
<g>
</g>
</svg>
