<?xml version="1.0" encoding="iso-8859-1"?>
<!-- Generator: Adobe Illustrator 19.0.0, SVG Export Plug-In . SVG Version: 6.00 Build 0)  -->
<svg version="1.1" id="Layer_1" xmlns="http://www.w3.org/2000/svg" xmlns:xlink="http://www.w3.org/1999/xlink" x="0px" y="0px"
	 viewBox="0 0 371.352 371.352" style="enable-background:new 0 0 371.352 371.352;" xml:space="preserve">
<g id="XMLID_2273_">
	<g id="XMLID_2274_">
		<g id="XMLID_2275_">
			<path id="XMLID_2276_" style="fill:#B3404A;" d="M240.271,194.703h-109.19c-23.576,0-42.756-19.181-42.756-42.757V42.757
				C88.325,19.181,107.505,0,131.081,0H240.27c23.576,0,42.756,19.181,42.756,42.757v109.189
				C283.027,175.522,263.847,194.703,240.271,194.703z M131.081,20c-12.548,0-22.756,10.209-22.756,22.757v109.189
				c0,12.548,10.208,22.757,22.756,22.757H240.27c12.548,0,22.756-10.209,22.756-22.757V42.757C263.026,30.209,252.818,20,240.27,20
				H131.081z"/>
		</g>
		<g id="XMLID_2279_">
			<path id="XMLID_2280_" style="fill:#B3404A;" d="M175.784,49.895h19.784l34.623,94.913h-22.458l-7.352-21.255h-29.543
				l-7.219,21.255h-22.458L175.784,49.895z M196.771,108.447l-11.095-33.554l-11.363,33.554H196.771z"/>
		</g>
	</g>
	<g id="XMLID_2283_">
		<g id="XMLID_2284_">
			<g id="XMLID_2285_">
				<path id="XMLID_50_" style="fill:#F4B2B0;" d="M152.44,361.351H43.251c-18.091,0-32.757-14.666-32.757-32.757V219.406
					c0-18.091,14.666-32.757,32.757-32.757H152.44c18.091,0,32.757,14.666,32.757,32.757v109.189
					C185.197,346.686,170.531,361.351,152.44,361.351z"/>
				<path id="XMLID_2286_" style="fill:#B3404A;" d="M152.44,371.352H43.251c-23.576,0-42.757-19.181-42.757-42.757v-109.19
					c0-23.576,19.181-42.757,42.757-42.757H152.44c23.576,0,42.757,19.181,42.757,42.757v109.189
					C195.197,352.171,176.016,371.352,152.44,371.352z M43.251,196.648c-12.548,0-22.757,10.209-22.757,22.757v109.189
					c0,12.548,10.208,22.757,22.757,22.757H152.44c12.548,0,22.757-10.209,22.757-22.757V219.405
					c0-12.548-10.208-22.757-22.757-22.757H43.251z"/>
			</g>
			<g id="XMLID_2289_">
				<path id="XMLID_2290_" style="fill:#B3404A;" d="M137.08,297.127c0,4.1-0.848,7.665-2.54,10.695
					c-1.694,3.03-4.011,5.548-6.951,7.553c-2.941,2.005-6.373,3.521-10.294,4.545c-3.923,1.025-8.067,1.538-12.432,1.538H58.611
					v-94.913h52.803c3.296,0,6.283,0.715,8.956,2.139c2.674,1.427,4.946,3.276,6.818,5.548c1.872,2.273,3.319,4.859,4.344,7.754
					c1.024,2.898,1.538,5.861,1.538,8.889c0,4.546-1.136,8.824-3.409,12.834c-2.273,4.01-5.682,7.041-10.227,9.09
					c5.435,1.604,9.736,4.458,12.9,8.556C135.497,285.453,137.08,290.71,137.08,297.127z M80.534,245.259v19.651h21.522
					c2.406,0,4.545-0.802,6.417-2.406c1.871-1.604,2.807-4.098,2.807-7.487c0-3.117-0.825-5.524-2.473-7.218
					c-1.65-1.693-3.632-2.541-5.949-2.541H80.534V245.259z M114.756,292.715c0-2.94-0.848-5.435-2.54-7.486
					c-1.694-2.049-3.833-3.075-6.417-3.075H80.534v20.721h24.33c2.851,0,5.213-0.936,7.085-2.807
					C113.82,298.196,114.756,295.747,114.756,292.715z"/>
			</g>
		</g>
		<g id="XMLID_2294_">
			<g id="XMLID_2295_">
				<path id="XMLID_2296_" style="fill:#B3404A;" d="M328.101,371.352H218.912c-23.576,0-42.757-19.181-42.757-42.757v-109.19
					c0-23.576,19.181-42.757,42.757-42.757h109.189c23.576,0,42.757,19.181,42.757,42.757v109.189
					C370.857,352.171,351.677,371.352,328.101,371.352z M218.912,196.648c-12.548,0-22.757,10.209-22.757,22.757v109.189
					c0,12.548,10.208,22.757,22.757,22.757h109.189c12.548,0,22.757-10.209,22.757-22.757V219.405
					c0-12.548-10.208-22.757-22.757-22.757H218.912z"/>
			</g>
			<g id="XMLID_2299_">
				<path id="XMLID_2300_" style="fill:#B3404A;" d="M230.261,273.064c0-5.702,1.069-11.383,3.208-17.044
					c2.139-5.658,5.258-10.716,9.358-15.172c4.098-4.455,9.09-8.065,14.972-10.829c5.882-2.762,12.565-4.144,20.052-4.144
					c8.911,0,16.643,1.918,23.193,5.749c6.55,3.833,11.43,8.822,14.638,14.972l-16.843,11.764c-1.069-2.494-2.43-4.566-4.078-6.216
					c-1.65-1.648-3.454-2.985-5.414-4.01c-1.962-1.023-3.967-1.737-6.016-2.139c-2.051-0.401-4.056-0.601-6.016-0.601
					c-4.19,0-7.843,0.848-10.961,2.54c-3.121,1.695-5.704,3.877-7.754,6.551c-2.051,2.673-3.565,5.704-4.545,9.09
					c-0.981,3.388-1.47,6.817-1.47,10.293c0,3.743,0.579,7.353,1.738,10.829c1.157,3.476,2.828,6.55,5.013,9.223
					c2.183,2.675,4.812,4.792,7.887,6.35c3.075,1.561,6.527,2.34,10.361,2.34c1.959,0,3.987-0.244,6.082-0.735
					c2.093-0.489,4.098-1.247,6.016-2.273c1.915-1.023,3.676-2.36,5.28-4.01c1.604-1.648,2.895-3.677,3.877-6.082l17.913,10.561
					c-1.427,3.476-3.543,6.595-6.35,9.357c-2.807,2.764-6.038,5.08-9.692,6.951c-3.655,1.871-7.532,3.298-11.63,4.278
					c-4.1,0.98-8.111,1.471-12.031,1.471c-6.864,0-13.167-1.404-18.915-4.211c-5.748-2.807-10.695-6.527-14.839-11.162
					c-4.144-4.633-7.352-9.893-9.625-15.774C231.397,285.095,230.261,279.126,230.261,273.064z"/>
			</g>
		</g>
	</g>
</g>
<g>
</g>
<g>
</g>
<g>
</g>
<g>
</g>
<g>
</g>
<g>
</g>
<g>
</g>
<g>
</g>
<g>
</g>
<g>
</g>
<g>
</g>
<g>
</g>
<g>
</g>
<g>
</g>
<g>
</g>
</svg>
