<?xml version="1.0" encoding="iso-8859-1"?>
<!-- Generator: Adobe Illustrator 19.0.0, SVG Export Plug-In . SVG Version: 6.00 Build 0)  -->
<svg version="1.1" id="Layer_1" xmlns="http://www.w3.org/2000/svg" xmlns:xlink="http://www.w3.org/1999/xlink" x="0px" y="0px"
	 viewBox="0 0 379.785 379.785" style="enable-background:new 0 0 379.785 379.785;" xml:space="preserve">
<g id="XMLID_1450_">
	<g id="XMLID_1451_">
		<path id="XMLID_51_" style="fill:#F4B2B0;" d="M196.951,299.226h-14.116c-3.512,0-6.359-2.847-6.359-6.359V71.883h26.833v220.984
			C203.31,296.379,200.462,299.226,196.951,299.226z"/>
		<path id="XMLID_1452_" style="fill:#B3404A;" d="M196.951,309.226h-14.115c-9.021,0-16.359-7.338-16.359-16.358V61.883h46.833
			v230.984C213.31,301.888,205.971,309.226,196.951,309.226z M186.477,289.226h6.833V81.883h-6.833L186.477,289.226L186.477,289.226
			z"/>
	</g>
	<g id="XMLID_1455_">
		<path id="XMLID_1456_" style="fill:#F4B2B0;" d="M182.392,10h-16.745c-10.554,0-19.109,8.555-19.109,19.109v53.017h35.854h50.854
			V29.109c0-10.554-8.555-19.109-19.109-19.109H182.392z"/>
		<path id="XMLID_1457_" style="fill:#B3404A;" d="M243.246,92.126H136.539V29.109C136.539,13.059,149.598,0,165.648,0h48.489
			c16.051,0,29.109,13.059,29.109,29.109V92.126L243.246,92.126z M156.539,72.126h66.707V29.109c0-5.022-4.086-9.109-9.109-9.109
			h-48.489c-5.022,0-9.109,4.087-9.109,9.109L156.539,72.126L156.539,72.126z"/>
	</g>
	<g id="XMLID_1460_">
		<path id="XMLID_1461_" style="fill:#B3404A;" d="M189.892,379.785c-7.216,0-12.675-0.908-15.831-5.32l-30.638-42.349
			c-0.295-0.407-0.622-0.829-0.957-1.265c-2.36-3.067-5.928-7.703-5.928-13.82V61.883h106.707v255.148
			c0,6.118-3.567,10.753-5.928,13.82c-0.335,0.436-0.662,0.857-0.957,1.266l-30.642,42.354
			C202.564,378.878,197.107,379.785,189.892,379.785z M188.098,359.744c1.032,0.049,2.56,0.049,3.59,0l28.47-39.351
			c0.406-0.561,0.851-1.143,1.311-1.74c0.538-0.698,1.377-1.789,1.778-2.459V81.883h-66.707v234.312
			c0.4,0.669,1.24,1.761,1.777,2.459c0.46,0.598,0.906,1.18,1.311,1.739L188.098,359.744z"/>
	</g>
	<g id="XMLID_1464_">
		<rect id="XMLID_1465_" x="136.539" y="61.883" style="fill:#B3404A;" width="106.707" height="23.01"/>
	</g>
	<g id="XMLID_1466_">
		<path id="XMLID_1467_" style="fill:#F4B2B0;" d="M162.733,341.559l19.455,27.077c1.071,1.531,14.338,1.531,15.41,0l19.455-27.077
			H162.733z"/>
		<path id="XMLID_1468_" style="fill:#B3404A;" d="M189.893,379.785c-7.228,0-12.692-0.911-15.845-5.34l-30.813-42.886h93.316
			l-30.812,42.883C202.586,378.874,197.121,379.785,189.893,379.785z M188.113,359.745c1.024,0.049,2.534,0.049,3.56,0l5.881-8.186
			h-15.322L188.113,359.745z"/>
	</g>
</g>
<g>
</g>
<g>
</g>
<g>
</g>
<g>
</g>
<g>
</g>
<g>
</g>
<g>
</g>
<g>
</g>
<g>
</g>
<g>
</g>
<g>
</g>
<g>
</g>
<g>
</g>
<g>
</g>
<g>
</g>
</svg>
