<?xml version="1.0" encoding="iso-8859-1"?>
<!-- Generator: Adobe Illustrator 19.0.0, SVG Export Plug-In . SVG Version: 6.00 Build 0)  -->
<svg version="1.1" id="Layer_1" xmlns="http://www.w3.org/2000/svg" xmlns:xlink="http://www.w3.org/1999/xlink" x="0px" y="0px"
	 viewBox="0 0 343.283 343.283" style="enable-background:new 0 0 343.283 343.283;" xml:space="preserve">
<g id="XMLID_1664_">
	<g id="XMLID_1665_">
		<path id="XMLID_51_" style="fill:#F4B2B0;" d="M47.045,38.722l-11.84,11.84c-7.462,7.462-7.462,19.562,0,27.024l37.489,37.489
			l25.352-25.352l25.352-25.352L85.91,26.881c-7.462-7.462-19.562-7.462-27.024,0L47.045,38.722z"/>
		<path id="XMLID_1666_" style="fill:#B3404A;" d="M72.693,129.216l-44.56-44.559c-5.498-5.498-8.526-12.809-8.526-20.583
			c0-7.775,3.028-15.086,8.526-20.584l23.681-23.68c5.498-5.497,12.808-8.525,20.583-8.525l0,0c7.775,0,15.085,3.028,20.583,8.525
			l44.561,44.561L72.693,129.216z M72.397,31.284c-2.434,0-4.721,0.947-6.44,2.668L42.276,57.633c-3.552,3.552-3.552,9.33,0,12.882
			l30.417,30.418l36.563-36.563L78.838,33.952C77.118,32.231,74.831,31.284,72.397,31.284z"/>
	</g>
	<g id="XMLID_1669_">
		<path id="XMLID_46_" style="fill:#F4B2B0;" d="M275.63,267.306l-23.415,23.415c-1.54,1.54-0.709,4.175,1.435,4.554l56.864,10.035
			c1.84,0.325,3.443-1.278,3.118-3.118l-10.035-56.865c-0.378-2.144-3.014-2.975-4.554-1.435L275.63,267.306z"/>
		<path id="XMLID_1670_" style="fill:#B3404A;" d="M310.991,315.352C310.99,315.352,310.991,315.352,310.991,315.352
			c-0.739,0-1.482-0.065-2.212-0.193l-56.867-10.036c-4.675-0.823-8.468-4.149-9.897-8.679s-0.231-9.432,3.127-12.791l46.832-46.832
			c2.396-2.397,5.58-3.72,8.961-3.72c6.176,0,11.438,4.409,12.512,10.484l10.034,56.869c0.654,3.701-0.355,7.478-2.771,10.358
			C318.289,313.697,314.747,315.352,310.991,315.352z M269.212,287.866l32.759,5.781l-5.78-32.76L269.212,287.866z"/>
	</g>
	<g id="XMLID_1673_">
		<polygon id="XMLID_1674_" style="fill:#B3404A;" points="246.763,303.286 51.308,107.831 116.155,42.985 311.609,238.438 
			297.467,252.581 116.155,71.269 79.593,107.831 260.905,289.144 		"/>
	</g>
	<g id="XMLID_1675_">
		<g id="XMLID_1676_">
			<path id="XMLID_1677_" style="fill:#B3404A;" d="M81.098,343.283c-3.532,0-6.854-1.375-9.354-3.872L3.875,271.542
				c-5.158-5.159-5.158-13.553,0-18.712l13.54-13.54c2.499-2.499,5.822-3.875,9.355-3.875c3.534,0,6.857,1.376,9.356,3.875
				l5.131,5.132l7.589-7.588l-5.132-5.133c-2.499-2.498-3.875-5.821-3.875-9.354c0-3.534,1.376-6.857,3.875-9.356l22.594-22.594
				c2.499-2.499,5.822-3.875,9.356-3.875c3.533,0,6.856,1.376,9.355,3.875l4.354,4.354l7.588-7.589l-4.354-4.354
				c-5.158-5.159-5.158-13.553,0-18.712l21.625-21.625l86.578,86.578L90.453,339.408C87.954,341.907,84.632,343.283,81.098,343.283z
				 M22.804,262.186l58.294,58.294l91.429-91.43l-58.293-58.293l-2.696,2.695l13.71,13.71l-35.873,35.873l-13.709-13.71
				l-13.021,13.021l14.486,14.487l-35.872,35.873l-14.487-14.488L22.804,262.186z"/>
		</g>
		<g id="XMLID_1680_">
			<path id="XMLID_1681_" style="fill:#B3404A;" d="M237.374,192.487l-86.577-86.576l13.3-13.302c2.499-2.5,5.822-3.876,9.356-3.876
				s6.856,1.376,9.355,3.875l4.354,4.354l7.588-7.588l-4.354-4.354c-2.499-2.499-3.875-5.821-3.875-9.355s1.376-6.856,3.875-9.355
				l22.594-22.595c2.499-2.499,5.821-3.875,9.355-3.875c3.535,0,6.857,1.376,9.356,3.875l5.131,5.132l7.589-7.589l-5.131-5.131
				c-2.5-2.499-3.876-5.821-3.876-9.355s1.376-6.857,3.875-9.356l13.54-13.539C255.327,1.378,258.65,0,262.187,0
				c3.535,0,6.858,1.378,9.358,3.879l67.863,67.863c5.158,5.159,5.158,13.552,0,18.711L237.374,192.487z M192.79,119.619
				l44.584,44.584l83.105-83.105l-58.294-58.293l-3.967,3.966l14.488,14.487L236.833,77.13l-14.486-14.486l-13.021,13.021
				l13.71,13.709L192.79,119.619z"/>
		</g>
	</g>
</g>
<g>
</g>
<g>
</g>
<g>
</g>
<g>
</g>
<g>
</g>
<g>
</g>
<g>
</g>
<g>
</g>
<g>
</g>
<g>
</g>
<g>
</g>
<g>
</g>
<g>
</g>
<g>
</g>
<g>
</g>
</svg>
