<?xml version="1.0" encoding="iso-8859-1"?>
<!-- Generator: Adobe Illustrator 19.0.0, SVG Export Plug-In . SVG Version: 6.00 Build 0)  -->
<svg version="1.1" id="Layer_1" xmlns="http://www.w3.org/2000/svg" xmlns:xlink="http://www.w3.org/1999/xlink" x="0px" y="0px"
	 viewBox="0 0 379.785 379.785" style="enable-background:new 0 0 379.785 379.785;" xml:space="preserve">
<g id="XMLID_1684_">
	<g id="XMLID_1685_">
		<g id="XMLID_1686_">
			<path id="XMLID_69_" style="fill:#F4B2B0;" d="M189.893,369.785h16.745c10.554,0,19.109-8.555,19.109-19.109v-53.017h-35.854
				h-35.854v53.017c0,10.554,8.555,19.109,19.109,19.109H189.893z"/>
			<path id="XMLID_1687_" style="fill:#B3404A;" d="M206.637,379.785h-33.49c-16.051,0-29.108-13.059-29.108-29.109v-63.017h91.707
				v63.017C235.745,366.727,222.688,379.785,206.637,379.785z M164.038,307.659v43.017c0,5.022,4.086,9.109,9.108,9.109h33.49
				c5.022,0,9.108-4.087,9.108-9.109v-43.017H164.038z"/>
		</g>
		<g id="XMLID_1690_">
			<path id="XMLID_64_" style="fill:#F4B2B0;" d="M189.893,62.688h33.113c2.177,0,3.454-2.451,2.205-4.235l-33.113-47.305
				c-1.071-1.531-3.338-1.531-4.41,0l-33.114,47.305c-1.249,1.784,0.027,4.235,2.205,4.235H189.893z"/>
			<path id="XMLID_1691_" style="fill:#B3404A;" d="M223.005,72.688h-66.227c-4.75,0-9.063-2.617-11.258-6.831
				c-2.193-4.213-1.863-9.248,0.86-13.139l33.113-47.305C181.868,2.023,185.755,0,189.893,0c4.139,0,8.026,2.024,10.399,5.416
				l33.111,47.303c2.724,3.891,3.054,8.926,0.86,13.139C232.068,70.071,227.755,72.688,223.005,72.688z M170.815,52.688h38.152
				l-19.076-27.252L170.815,52.688z"/>
		</g>
		<g id="XMLID_1694_">
			<polygon id="XMLID_1695_" style="fill:#B3404A;" points="235.745,317.902 144.038,317.902 144.038,57.659 164.038,57.659 
				164.038,297.902 215.745,297.902 215.745,57.659 235.745,57.659 			"/>
		</g>
	</g>
	<g id="XMLID_1696_">
		<g id="XMLID_1697_">
			<path id="XMLID_56_" style="fill:#F4B2B0;" d="M313.745,369.785h16.745c10.554,0,19.109-8.555,19.109-19.109v-53.017h-35.854
				h-35.854v53.017c0,10.554,8.555,19.109,19.109,19.109H313.745z"/>
			<path id="XMLID_1698_" style="fill:#B3404A;" d="M330.489,379.785H297c-16.051,0-29.108-13.059-29.108-29.109v-63.017h91.707
				v63.017C359.599,366.727,346.54,379.785,330.489,379.785z M287.892,307.659v43.017c0,5.022,4.086,9.109,9.108,9.109h33.489
				c5.022,0,9.109-4.087,9.109-9.109v-43.017H287.892z"/>
		</g>
		<g id="XMLID_1701_">
			<path id="XMLID_51_" style="fill:#F4B2B0;" d="M313.745,166.517h33.113c2.177,0,3.454-2.451,2.205-4.235l-33.113-47.305
				c-1.071-1.531-3.338-1.531-4.41,0l-33.114,47.305c-1.249,1.784,0.027,4.235,2.205,4.235H313.745z"/>
			<path id="XMLID_1702_" style="fill:#B3404A;" d="M346.858,176.518H280.63c-4.75,0-9.063-2.617-11.257-6.83
				c-2.193-4.214-1.863-9.249,0.86-13.14l33.113-47.305c2.373-3.39,6.26-5.413,10.397-5.413s8.024,2.023,10.397,5.413l33.113,47.305
				c2.724,3.891,3.054,8.926,0.86,13.139C355.922,173.9,351.608,176.518,346.858,176.518z M294.669,156.518h38.152l-19.076-27.252
				L294.669,156.518z"/>
		</g>
		<g id="XMLID_1705_">
			<polygon id="XMLID_1706_" style="fill:#B3404A;" points="359.599,317.902 267.892,317.902 267.892,161.488 287.892,161.488 
				287.892,297.902 339.599,297.902 339.599,161.488 359.599,161.488 			"/>
		</g>
	</g>
	<g id="XMLID_1707_">
		<g id="XMLID_1708_">
			<path id="XMLID_43_" style="fill:#F4B2B0;" d="M66.04,369.785h16.745c10.554,0,19.109-8.555,19.109-19.109v-53.017H66.04H30.187
				v53.017c0,10.554,8.555,19.109,19.109,19.109H66.04z"/>
			<path id="XMLID_1709_" style="fill:#B3404A;" d="M82.785,379.785H49.296c-16.051,0-29.109-13.059-29.109-29.109v-63.017h91.707
				v63.017C111.894,366.727,98.836,379.785,82.785,379.785z M40.187,307.659v43.017c0,5.022,4.087,9.109,9.109,9.109h33.489
				c5.022,0,9.108-4.087,9.108-9.109v-43.017H40.187z"/>
		</g>
		<g id="XMLID_1712_">
			<path id="XMLID_38_" style="fill:#F4B2B0;" d="M66.04,130.454h33.113c2.177,0,3.454-2.451,2.205-4.235L68.245,78.915
				c-1.071-1.531-3.338-1.531-4.41,0L30.722,126.22c-1.249,1.784,0.027,4.235,2.205,4.235H66.04V130.454z"/>
			<path id="XMLID_1713_" style="fill:#B3404A;" d="M99.154,140.454H32.926c-4.751,0-9.064-2.618-11.258-6.832
				s-1.863-9.248,0.862-13.14L55.643,73.18c2.371-3.39,6.259-5.414,10.397-5.414c4.138,0,8.025,2.024,10.398,5.416l33.111,47.303
				c2.724,3.889,3.054,8.923,0.86,13.137S103.904,140.454,99.154,140.454z M46.965,120.454h38.151L66.04,93.203L46.965,120.454z"/>
		</g>
		<g id="XMLID_1716_">
			<polygon id="XMLID_1717_" style="fill:#B3404A;" points="111.894,317.902 20.187,317.902 20.187,125.425 40.187,125.425 
				40.187,297.902 91.894,297.902 91.894,125.425 111.894,125.425 			"/>
		</g>
	</g>
</g>
<g>
</g>
<g>
</g>
<g>
</g>
<g>
</g>
<g>
</g>
<g>
</g>
<g>
</g>
<g>
</g>
<g>
</g>
<g>
</g>
<g>
</g>
<g>
</g>
<g>
</g>
<g>
</g>
<g>
</g>
</svg>
