<?xml version="1.0" encoding="iso-8859-1"?>
<!-- Generator: Adobe Illustrator 19.0.0, SVG Export Plug-In . SVG Version: 6.00 Build 0)  -->
<svg version="1.1" id="Layer_1" xmlns="http://www.w3.org/2000/svg" xmlns:xlink="http://www.w3.org/1999/xlink" x="0px" y="0px"
	 viewBox="0 0 360.285 360.285" style="enable-background:new 0 0 360.285 360.285;" xml:space="preserve">
<g id="XMLID_847_">
	<g id="XMLID_848_">
		<path id="XMLID_850_" style="fill:#B3404A;" d="M294.031,297.285h-22.389v-20h22.389c12.468,0,22.611-9.558,22.611-21.307v-33.386
			c0-11.749-10.144-21.307-22.611-21.307h-22.389v-20h22.389c23.496,0,42.611,18.53,42.611,41.307v33.386
			C336.643,278.754,317.528,297.285,294.031,297.285z"/>
	</g>
	<g id="XMLID_851_">
		<g id="XMLID_853_">
			<path id="XMLID_854_" style="fill:#B3404A;" d="M208.643,360.285h-110c-41.355,0-75-33.645-75-75v-144h260v144
				C283.643,326.64,249.999,360.285,208.643,360.285z M43.643,161.285v124c0,30.327,24.673,55,55,55h110c30.327,0,55-24.673,55-55
				v-124H43.643z"/>
		</g>
		<g id="XMLID_857_">
			<polygon id="XMLID_858_" style="fill:#B3404A;" points="283.643,294.284 227.31,294.284 227.31,277.285 263.643,277.285 
				263.643,201.285 43.643,201.285 43.643,277.285 190.643,277.285 190.643,294.284 25.643,294.284 25.643,181.285 283.643,181.285 
							"/>
		</g>
		<g id="XMLID_859_">
			<g id="XMLID_860_">
				<g id="XMLID_861_">
					<path id="XMLID_61_" style="fill:#F4B2B0;" d="M258.07,74.199c0-22.596-28.64-40.915-28.64-40.915s-28.64,18.318-28.64,40.915
						c0,12.711,4.057,24.067,10.422,31.572c3.536,4.169,7.785,7.149,12.446,8.512c1.864,0.545,3.795,0.831,5.772,0.831
						c0.362,0,0.72-0.02,1.078-0.039l0,0C245.825,114.264,258.07,96.279,258.07,74.199z"/>
					<path id="XMLID_862_" style="fill:#B3404A;" d="M229.428,125.114c-2.894,0-5.779-0.415-8.577-1.233
						c-6.43-1.879-12.399-5.905-17.266-11.64c-8.133-9.588-12.797-23.454-12.797-38.042c0-27.283,29.848-47.162,33.251-49.339
						l5.389-3.446l5.388,3.446c3.404,2.177,33.253,22.056,33.253,49.339c0,27.421-16.268,49.762-37.034,50.861
						C230.469,125.091,229.952,125.114,229.428,125.114z M229.428,45.668c-7.836,6.348-18.639,17.539-18.639,28.531
						c0,9.777,3.009,19.162,8.048,25.103c2.327,2.743,4.964,4.604,7.627,5.382c1.137,0.333,2.309,0.469,3.46,0.407
						c8.791-0.466,18.146-12.988,18.146-30.893C248.07,63.21,237.273,52.022,229.428,45.668z"/>
				</g>
				<g id="XMLID_865_">
					<rect id="XMLID_866_" x="202.071" y="111.764" style="fill:#B3404A;" width="54.717" height="20"/>
				</g>
				<g id="XMLID_867_">
					<rect id="XMLID_868_" x="219.428" y="115.075" style="fill:#B3404A;" width="20" height="31.21"/>
				</g>
			</g>
			<g id="XMLID_869_">
				<path id="XMLID_870_" style="fill:#F4B2B0;" d="M145.988,17.525h-12.473c-5.307,0-9.609,4.997-9.609,11.161v30.358h22.082
					h22.082V28.686c0-6.164-4.302-11.161-9.609-11.161C158.461,17.525,145.988,17.525,145.988,17.525z"/>
				<path id="XMLID_871_" style="fill:#B3404A;" d="M178.07,69.044h-64.165V28.686c0-11.668,8.797-21.161,19.609-21.161h24.946
					c10.813,0,19.609,9.493,19.609,21.161v40.358H178.07z M133.906,49.044h24.165V28.686c0-0.543-0.136-0.932-0.257-1.161h-23.65
					c-0.121,0.229-0.257,0.618-0.257,1.161v20.358H133.906z"/>
			</g>
			<g id="XMLID_874_">
				<path id="XMLID_875_" style="fill:#B3404A;" d="M178.07,161.285h-64.164V41.716h64.164V161.285z M133.906,141.285h24.164V61.716
					h-24.164V141.285z"/>
			</g>
			<g id="XMLID_878_">
				<g id="XMLID_879_">
					<path id="XMLID_880_" style="fill:#F4B2B0;" d="M88.778,46.588L75.114,13.665c-2.028-4.886-7.999-4.886-10.026,0L51.424,46.588
						c-0.764,1.842,0.387,3.981,2.142,3.981h33.07C88.391,50.569,89.542,48.43,88.778,46.588z"/>
					<path id="XMLID_881_" style="fill:#B3404A;" d="M86.636,60.569h-33.07c-4.077,0-7.887-2.061-10.192-5.513
						c-2.429-3.638-2.873-8.237-1.187-12.301L55.852,9.832C58.33,3.859,63.923,0,70.101,0S81.872,3.859,84.35,9.832l13.664,32.923
						c1.687,4.065,1.243,8.663-1.187,12.301C94.523,58.508,90.713,60.569,86.636,60.569z M64.749,40.569h10.704l-5.352-12.895
						L64.749,40.569z"/>
				</g>
				<g id="XMLID_884_">
					<path id="XMLID_885_" style="fill:#B3404A;" d="M100.986,156.569h-61.77V50.232c0-4.758,3.6-9.886,10.272-10.018
						c0.331-0.006,0.815-0.013,1.432-0.018c1.156-0.011,2.806-0.02,4.787-0.026c7.852-0.027,20.936-0.027,28.787,0
						c1.981,0.007,3.631,0.016,4.787,0.026c0.617,0.005,1.102,0.012,1.432,0.018c6.672,0.132,10.272,5.26,10.272,10.018
						L100.986,156.569L100.986,156.569z M59.217,136.569h21.77V60.161c-3.01-0.007-6.667-0.011-10.885-0.011
						s-7.875,0.004-10.885,0.011C59.216,60.161,59.216,136.569,59.217,136.569z"/>
				</g>
			</g>
		</g>
	</g>
</g>
<g>
</g>
<g>
</g>
<g>
</g>
<g>
</g>
<g>
</g>
<g>
</g>
<g>
</g>
<g>
</g>
<g>
</g>
<g>
</g>
<g>
</g>
<g>
</g>
<g>
</g>
<g>
</g>
<g>
</g>
</svg>
