<?xml version="1.0" encoding="iso-8859-1"?>
<!-- Generator: Adobe Illustrator 19.0.0, SVG Export Plug-In . SVG Version: 6.00 Build 0)  -->
<svg version="1.1" id="Layer_1" xmlns="http://www.w3.org/2000/svg" xmlns:xlink="http://www.w3.org/1999/xlink" x="0px" y="0px"
	 viewBox="0 0 335.152 335.152" style="enable-background:new 0 0 335.152 335.152;" xml:space="preserve">
<g id="XMLID_2154_">
	<g id="XMLID_2155_">
		<path id="XMLID_2156_" style="fill:#B3404A;" d="M286.023,173.783H49.128V22.973c0-11.239,9.145-20.384,20.384-20.384h196.129
			c11.239,0,20.383,9.145,20.383,20.384L286.023,173.783L286.023,173.783z M69.128,153.783h196.896V22.973
			c0-0.212-0.172-0.384-0.383-0.384H69.512c-0.212,0-0.384,0.172-0.384,0.384V153.783z"/>
	</g>
	<g id="XMLID_2159_">
		<g id="XMLID_2160_">
			<path id="XMLID_2161_" style="fill:#B3404A;" d="M69.128,162.589H22.576V42.973c0-11.239,9.145-20.384,20.384-20.384h26.168
				V162.589z M42.576,142.589h6.552v-100H42.96c-0.212,0-0.384,0.172-0.384,0.384V142.589z"/>
		</g>
		<g id="XMLID_2164_">
			<path id="XMLID_2165_" style="fill:#B3404A;" d="M312.576,162.589h-46.553v-140h26.169c11.239,0,20.384,9.145,20.384,20.384
				V162.589z M286.023,142.589h6.553V42.973c0-0.212-0.172-0.384-0.384-0.384h-6.169V142.589z"/>
		</g>
	</g>
	<g id="XMLID_2168_">
		<path id="XMLID_2169_" style="fill:#B3404A;" d="M265.641,332.562H69.512c-11.239,0-20.384-9.145-20.384-20.384V171.395h236.896
			v140.782C286.023,323.417,276.88,332.562,265.641,332.562z M69.128,191.395v120.782c0,0.212,0.172,0.384,0.384,0.384h196.129
			c0.211,0,0.383-0.172,0.383-0.384V191.395H69.128z"/>
	</g>
	<g id="XMLID_2172_">
		<g id="XMLID_2173_">
			<path id="XMLID_2174_" style="fill:#B3404A;" d="M69.128,312.589H42.96c-11.239,0-20.384-9.145-20.384-20.384V172.589h46.552
				V312.589z M42.576,192.589v99.616c0,0.212,0.172,0.384,0.384,0.384h6.168v-100H42.576z"/>
		</g>
		<g id="XMLID_2177_">
			<path id="XMLID_2178_" style="fill:#B3404A;" d="M292.192,312.589h-26.169v-140h46.553v119.616
				C312.576,303.444,303.432,312.589,292.192,312.589z M286.023,292.589h6.169c0.212,0,0.384-0.172,0.384-0.384v-99.616h-6.553
				V292.589z"/>
		</g>
	</g>
	<g id="XMLID_2181_">
		<path id="XMLID_2182_" style="fill:#F4B2B0;" d="M318.658,81.035H167.576H16.494c-3.586,0-6.494,2.907-6.494,6.494v132.966
			c0,3.586,2.907,6.494,6.494,6.494h42.634v-45.592h108.448h108.448v45.592h42.634c3.586,0,6.494-2.907,6.494-6.494V87.527
			C325.152,83.941,322.245,81.035,318.658,81.035z"/>
		<path id="XMLID_2183_" style="fill:#B3404A;" d="M318.658,236.988h-52.635v-45.592H69.128v45.592H16.494
			C7.399,236.988,0,229.589,0,220.493V87.527c0-9.095,7.399-16.493,16.494-16.493h302.164c9.095,0,16.494,7.398,16.494,16.493
			v132.966C335.152,229.589,327.753,236.988,318.658,236.988z M286.023,216.988h29.129V91.035H20v125.953h29.128v-45.592h236.896
			L286.023,216.988L286.023,216.988z"/>
	</g>
</g>
<g>
</g>
<g>
</g>
<g>
</g>
<g>
</g>
<g>
</g>
<g>
</g>
<g>
</g>
<g>
</g>
<g>
</g>
<g>
</g>
<g>
</g>
<g>
</g>
<g>
</g>
<g>
</g>
<g>
</g>
</svg>
