<?xml version="1.0" encoding="iso-8859-1"?>
<!-- Generator: Adobe Illustrator 19.0.0, SVG Export Plug-In . SVG Version: 6.00 Build 0)  -->
<svg version="1.1" id="Layer_1" xmlns="http://www.w3.org/2000/svg" xmlns:xlink="http://www.w3.org/1999/xlink" x="0px" y="0px"
	 viewBox="0 0 295.369 295.369" style="enable-background:new 0 0 295.369 295.369;" xml:space="preserve">
<g id="XMLID_1_">
	<g id="XMLID_40_">
		<g id="XMLID_2382_">
			<path id="XMLID_2383_" style="fill:#B3404A;" d="M101.465,295.174c-36.009,0-68.493-8.291-80.834-20.631
				c-12.684-12.685-20.97-46.072-20.62-83.081c0.038-4.139,0.185-8.31,0.436-12.393c0.301-5.006,0.783-10.16,1.433-15.302
				c5.051-39.771,25.57-82.719,52.276-109.425c26.7-26.701,69.647-47.217,109.408-52.267c5.091-0.642,10.242-1.121,15.318-1.427
				c4.127-0.255,8.301-0.404,12.387-0.442c36.881-0.349,70.472,8.028,83.072,20.628c12.965,12.967,21.41,46.394,21.015,83.179
				c-0.036,3.994-0.189,8.155-0.457,12.351c-0.313,5.088-0.809,10.257-1.471,15.342c-5.142,39.596-25.788,82.506-52.597,109.315
				c-26.708,26.707-69.656,47.227-109.417,52.275c-5.165,0.651-10.318,1.134-15.326,1.435c-4.047,0.249-8.217,0.396-12.379,0.435
				C102.962,295.172,102.209,295.174,101.465,295.174z M193.514,20.196c-0.683,0-1.37,0.003-2.057,0.01
				c-3.74,0.034-7.561,0.171-11.357,0.405c-4.661,0.28-9.373,0.719-14.025,1.306c-35.63,4.524-74.013,22.805-97.776,46.569
				C44.529,92.254,26.246,130.64,21.72,166.28c-0.593,4.703-1.034,9.418-1.31,14.005c-0.231,3.751-0.365,7.568-0.399,11.362
				c-0.35,36.893,8.422,62.414,14.763,68.754c6.134,6.135,30.881,14.773,66.691,14.773c0.682,0,1.371-0.003,2.058-0.01
				c3.817-0.035,7.636-0.169,11.352-0.398c4.59-0.275,9.306-0.717,14.03-1.313c35.629-4.524,74.016-22.808,97.785-46.576
				c23.885-23.885,42.297-62.254,46.906-97.752c0.604-4.641,1.057-9.354,1.343-14.013c0.246-3.855,0.387-7.649,0.419-11.299
				c0.371-34.501-7.533-61.213-15.158-68.839C254.062,28.839,229.315,20.196,193.514,20.196z"/>
		</g>
		<g id="XMLID_2386_">
			<g id="XMLID_2387_">
				<g id="XMLID_2388_">
					<path id="XMLID_52_" style="fill:#F4B2B0;" d="M284.92,115.728c-26.375-1.895-52.213-12.926-72.38-33.093
						c-20.068-20.068-31.091-45.757-33.057-72.005c4.009-0.247,7.983-0.389,11.879-0.424c35.879-0.34,66.051,7.842,75.908,17.699
						c10.267,10.267,18.47,40.348,18.088,76C285.322,107.787,285.174,111.739,284.92,115.728z"/>
					<path id="XMLID_2389_" style="fill:#B3404A;" d="M294.259,126.424l-10.056-0.722c-29.692-2.133-57.654-14.916-78.734-35.995
						c-20.977-20.978-33.746-48.795-35.958-78.329l-0.757-10.103l10.111-0.625c4.144-0.257,8.317-0.406,12.404-0.444
						c36.881-0.349,70.472,8.028,83.072,20.628c12.965,12.967,21.41,46.394,21.015,83.179c-0.036,3.994-0.189,8.154-0.457,12.351
						L294.259,126.424z M190.753,20.213c3.698,20.867,13.735,40.229,28.858,55.352c15.223,15.223,34.721,25.286,55.739,28.931
						c0.003-0.228,0.005-0.454,0.007-0.681c0.371-34.501-7.533-61.213-15.158-68.839c-6.137-6.137-30.884-14.779-66.686-14.779
						c-0.683,0-1.37,0.003-2.057,0.01C191.223,20.208,190.988,20.21,190.753,20.213z"/>
				</g>
			</g>
			<g id="XMLID_2392_">
				<path id="XMLID_46_" style="fill:#F4B2B0;" d="M115.49,284.747c-4.009,0.247-7.976,0.382-11.872,0.417
					c-35.878,0.339-66.058-7.835-75.915-17.692s-18.031-40.036-17.692-75.915c0.035-3.896,0.17-7.863,0.417-11.872
					c26.248,1.966,51.937,12.99,72.005,33.057S113.524,258.5,115.49,284.747z"/>
				<path id="XMLID_2393_" style="fill:#B3404A;" d="M101.465,295.174c-36.009,0-68.493-8.291-80.834-20.631
					c-12.684-12.684-20.971-46.071-20.62-83.08c0.038-4.138,0.185-8.31,0.436-12.393l0.624-10.113l10.104,0.757
					c29.535,2.212,57.353,14.982,78.329,35.958s33.745,48.794,35.957,78.329l0.757,10.104l-10.113,0.624
					c-4.063,0.25-8.233,0.396-12.395,0.436C102.962,295.172,102.209,295.174,101.465,295.174z M20.018,190.958
					c-0.003,0.229-0.005,0.46-0.007,0.689c-0.35,36.893,8.422,62.414,14.763,68.754c6.134,6.135,30.881,14.773,66.691,14.773
					c0.682,0,1.371-0.003,2.058-0.01c0.231-0.002,0.463-0.004,0.694-0.007c-3.698-20.866-13.734-40.223-28.855-55.344
					C60.24,204.692,40.883,194.656,20.018,190.958z"/>
			</g>
		</g>
	</g>
	<g id="XMLID_33_">
		<g id="XMLID_2396_">
			
				<rect id="XMLID_2397_" x="143.745" y="106.928" transform="matrix(-0.7071 -0.7071 0.7071 -0.7071 221.6019 325.6472)" style="fill:#B3404A;" width="68.999" height="20.001"/>
		</g>
		<g id="XMLID_2398_">
			
				<rect id="XMLID_2399_" x="112.984" y="137.686" transform="matrix(-0.7071 -0.7071 0.7071 -0.7071 147.3409 356.4027)" style="fill:#B3404A;" width="68.999" height="20.001"/>
		</g>
		<g id="XMLID_2400_">
			
				<rect id="XMLID_2401_" x="82.229" y="168.446" transform="matrix(-0.7071 -0.7071 0.7071 -0.7071 73.0879 387.1671)" style="fill:#B3404A;" width="68.999" height="20.001"/>
		</g>
	</g>
	<g id="XMLID_3_">
		
			<rect id="XMLID_2402_" x="137.486" y="55.688" transform="matrix(-0.7071 -0.7071 0.7071 -0.7071 147.3443 356.4059)" style="fill:#B3404A;" width="20.001" height="183.998"/>
	</g>
</g>
<g>
</g>
<g>
</g>
<g>
</g>
<g>
</g>
<g>
</g>
<g>
</g>
<g>
</g>
<g>
</g>
<g>
</g>
<g>
</g>
<g>
</g>
<g>
</g>
<g>
</g>
<g>
</g>
<g>
</g>
</svg>
