<?xml version="1.0" encoding="iso-8859-1"?>
<!-- Generator: Adobe Illustrator 19.0.0, SVG Export Plug-In . SVG Version: 6.00 Build 0)  -->
<svg version="1.1" id="Layer_1" xmlns="http://www.w3.org/2000/svg" xmlns:xlink="http://www.w3.org/1999/xlink" x="0px" y="0px"
	 viewBox="0 0 363.072 363.072" style="enable-background:new 0 0 363.072 363.072;" xml:space="preserve">
<g id="XMLID_1195_">
	<g id="XMLID_1196_">
		<path id="XMLID_1197_" style="fill:#B3404A;" d="M95.002,300.152c-0.985,0-1.961-0.01-2.933-0.029
			c-31.968-0.631-54.589-11.154-65.417-30.431c-12.47-22.198-6.688-52.174,16.281-84.406c21.431-30.073,55.729-59.272,96.575-82.217
			s83.626-37.044,120.459-39.699c39.474-2.848,68.084,7.812,80.554,30.01c10.151,18.071,8.291,41.21-5.381,66.915
			c-12.4,23.312-33.666,47.208-61.5,69.104c-2.276,1.791-4.609,3.577-6.936,5.31l-11.949-16.038
			c2.187-1.629,4.381-3.309,6.521-4.992c25.299-19.902,45.26-42.196,56.206-62.776c7.191-13.521,14.001-32.776,5.602-47.728
			c-8.339-14.845-30.82-22.084-61.679-19.858c-33.956,2.448-73.769,15.655-112.102,37.189
			c-38.333,21.533-70.325,48.661-90.082,76.386c-17.955,25.196-23.471,48.161-15.132,63.005
			c7.061,12.568,24.24,19.753,48.374,20.229c26.059,0.513,58.326-6.808,90.946-20.616l7.797,18.418
			C157.24,292.307,123.22,300.152,95.002,300.152z"/>
	</g>
	<g id="XMLID_1198_">
		<path id="XMLID_1199_" style="fill:#B3404A;" d="M272.17,300.155c-3.94,0-8.01-0.15-12.202-0.452
			c-36.833-2.655-79.612-16.754-120.459-39.699s-75.145-52.144-96.575-82.217c-22.969-32.232-28.751-62.208-16.281-84.406
			c9.668-17.21,29.067-27.563,56.103-29.938l1.75,19.923C70.45,84.6,52.03,89.039,44.09,103.175
			c-8.339,14.844-2.823,37.809,15.132,63.005c19.757,27.726,51.749,54.854,90.082,76.386
			c38.333,21.534,78.145,34.741,112.102,37.189c30.854,2.221,53.341-5.013,61.679-19.857c8.339-14.844,2.824-37.809-15.131-63.005
			c-19.758-27.725-51.75-54.853-90.083-76.386l9.795-17.438c40.847,22.945,75.145,52.144,96.575,82.217
			c22.969,32.232,28.751,62.208,16.281,84.407C329.376,289.533,305.338,300.155,272.17,300.155z"/>
	</g>
	<g id="XMLID_1200_">
		<path id="XMLID_1201_" style="fill:#B3404A;" d="M183.587,361.536c-25.461,0-48.764-19.722-65.616-55.534
			c-15.725-33.414-24.384-77.616-24.384-124.466s8.659-91.053,24.384-124.466c16.853-35.812,40.155-55.534,65.616-55.534
			s48.764,19.722,65.616,55.534c15.725,33.414,24.384,77.616,24.384,124.466s-8.659,91.053-24.384,124.466
			C232.351,341.814,209.048,361.536,183.587,361.536z M183.587,21.536c-17.026,0-34.347,16.056-47.521,44.05
			c-14.496,30.805-22.479,71.983-22.479,115.95s7.983,85.146,22.479,115.95c13.174,27.994,30.494,44.05,47.521,44.05
			s34.347-16.056,47.521-44.05c14.496-30.805,22.479-71.983,22.479-115.95s-7.983-85.146-22.479-115.95
			C217.934,37.592,200.613,21.536,183.587,21.536z"/>
	</g>
	<g id="XMLID_1204_">
		<circle id="XMLID_1205_" style="fill:#F4B2B0;" cx="183.587" cy="181.536" r="35.441"/>
		<path id="XMLID_1206_" style="fill:#B3404A;" d="M183.587,226.977c-25.056,0-45.44-20.385-45.44-45.441
			s20.385-45.441,45.44-45.441c25.057,0,45.441,20.385,45.441,45.441S208.644,226.977,183.587,226.977z M183.587,156.095
			c-14.028,0-25.44,11.413-25.44,25.441s11.412,25.441,25.44,25.441s25.441-11.413,25.441-25.441S197.615,156.095,183.587,156.095z"
			/>
	</g>
	<g id="XMLID_1209_">
		<circle id="XMLID_1210_" style="fill:#F4B2B0;" cx="332.83" cy="101.536" r="20.243"/>
		<path id="XMLID_1211_" style="fill:#B3404A;" d="M332.83,131.779c-16.676,0-30.243-13.567-30.243-30.243
			s13.567-30.243,30.243-30.243s30.242,13.567,30.242,30.243S349.506,131.779,332.83,131.779z M332.83,91.293
			c-5.648,0-10.243,4.595-10.243,10.243s4.595,10.243,10.243,10.243c5.647,0,10.242-4.595,10.242-10.243
			S338.478,91.293,332.83,91.293z"/>
	</g>
	<g id="XMLID_1214_">
		<circle id="XMLID_1215_" style="fill:#F4B2B0;" cx="30.242" cy="270.536" r="20.243"/>
		<path id="XMLID_1216_" style="fill:#B3404A;" d="M30.242,300.779C13.566,300.779,0,287.212,0,270.536s13.566-30.243,30.242-30.243
			s30.243,13.567,30.243,30.243S46.918,300.779,30.242,300.779z M30.242,260.293c-5.647,0-10.242,4.595-10.242,10.243
			s4.595,10.243,10.242,10.243c5.648,0,10.243-4.595,10.243-10.243S35.891,260.293,30.242,260.293z"/>
	</g>
</g>
<g>
</g>
<g>
</g>
<g>
</g>
<g>
</g>
<g>
</g>
<g>
</g>
<g>
</g>
<g>
</g>
<g>
</g>
<g>
</g>
<g>
</g>
<g>
</g>
<g>
</g>
<g>
</g>
<g>
</g>
</svg>
