<?xml version="1.0" encoding="iso-8859-1"?>
<!-- Generator: Adobe Illustrator 19.0.0, SVG Export Plug-In . SVG Version: 6.00 Build 0)  -->
<svg version="1.1" id="Layer_1" xmlns="http://www.w3.org/2000/svg" xmlns:xlink="http://www.w3.org/1999/xlink" x="0px" y="0px"
	 viewBox="0 0 363.902 363.902" style="enable-background:new 0 0 363.902 363.902;" xml:space="preserve">
<g id="XMLID_1889_">
	<g id="XMLID_1890_">
		<path id="XMLID_1891_" style="fill:#B3404A;" d="M301.005,212.727H78.354v-71.489h245.523v48.616
			C323.878,202.467,313.617,212.727,301.005,212.727z M98.354,192.727h202.65c1.584,0,2.873-1.289,2.873-2.873v-28.616H98.354
			V192.727z"/>
	</g>
	<g id="XMLID_1894_">
		<path id="XMLID_1895_" style="fill:#B3404A;" d="M333.443,307.467H23.479c-12.896,0-23.387-10.491-23.387-23.387V166.982h86.593
			v62.52c0,1.867,1.52,3.387,3.387,3.387h243.372c12.896,0,23.388,10.491,23.388,23.387v27.805
			C356.831,296.976,346.34,307.467,333.443,307.467z M20.092,186.982v97.098c0,1.867,1.52,3.387,3.387,3.387h309.965
			c1.868,0,3.388-1.52,3.388-3.387v-27.805c0-1.867-1.52-3.387-3.388-3.387H90.071c-12.896,0-23.387-10.491-23.387-23.387v-42.52
			L20.092,186.982L20.092,186.982z"/>
	</g>
	<g id="XMLID_1898_">
		<path id="XMLID_35_" style="fill:#F4B2B0;" d="M10,164.491c38-19.851,197.674-98.056,273.068-98.056
			c28.08,0,47.62,8.152,59.348,24.209c15.055,20.564,11.941,47.529,9.463,58.273L10,206.47V164.491z"/>
		<path id="XMLID_1899_" style="fill:#B3404A;" d="M0,218.295v-59.862l5.37-2.805c5.888-3.076,59.376-30.805,123.369-56.87
			c68.947-28.083,120.871-42.322,154.329-42.322c31.019,0,53.703,9.524,67.423,28.31c19.146,26.152,12.632,59.917,11.132,66.42
			l-1.501,6.505L0,218.295z M20,170.601v24.046l323.272-54.421c1.338-10.152,1.858-28.944-8.926-43.675
			c-9.888-13.538-26.659-20.115-51.278-20.115C209.005,76.435,51.1,154.792,20,170.601z"/>
	</g>
</g>
<g>
</g>
<g>
</g>
<g>
</g>
<g>
</g>
<g>
</g>
<g>
</g>
<g>
</g>
<g>
</g>
<g>
</g>
<g>
</g>
<g>
</g>
<g>
</g>
<g>
</g>
<g>
</g>
<g>
</g>
</svg>
