<?xml version="1.0" encoding="iso-8859-1"?>
<!-- Generator: Adobe Illustrator 19.0.0, SVG Export Plug-In . SVG Version: 6.00 Build 0)  -->
<svg version="1.1" id="Layer_1" xmlns="http://www.w3.org/2000/svg" xmlns:xlink="http://www.w3.org/1999/xlink" x="0px" y="0px"
	 viewBox="0 0 376.02 376.02" style="enable-background:new 0 0 376.02 376.02;" xml:space="preserve">
<g id="XMLID_1349_">
	<g id="XMLID_1350_">
		<path id="XMLID_1351_" style="fill:#B3404A;" d="M303.221,376.02H72.799c-23.008,0-41.727-18.719-41.727-41.728V41.728
			C31.072,18.719,49.791,0,72.799,0h230.422c23.008,0,41.727,18.719,41.727,41.728v292.564
			C344.948,357.301,326.229,376.02,303.221,376.02z M72.799,20c-11.98,0-21.727,9.747-21.727,21.728v292.564
			c0,11.98,9.747,21.728,21.727,21.728h230.422c11.98,0,21.727-9.747,21.727-21.728V41.728c0-11.98-9.747-21.728-21.727-21.728
			H72.799z"/>
	</g>
	<g id="XMLID_1354_">
		<path id="XMLID_1355_" style="fill:#B3404A;" d="M279.517,298.446H104.502c-18.117,0-32.857-14.74-32.857-32.857V73.431
			c0-18.117,14.74-32.857,32.857-32.857h175.015c9.541,0,17.016,4.299,21.047,12.105c3.376,6.538,3.81,14.524,3.81,20.752v192.158
			c0,6.228-0.433,14.214-3.81,20.752C296.533,294.147,289.058,298.446,279.517,298.446z M104.502,60.573
			c-7.089,0-12.857,5.768-12.857,12.857v192.158c0,7.09,5.768,12.857,12.857,12.857h175.015c2.614,0,2.921-0.595,3.277-1.283
			c1.048-2.03,1.58-5.924,1.58-11.574V73.431c0-5.65-0.531-9.544-1.58-11.574c-0.356-0.688-0.663-1.283-3.277-1.283L104.502,60.573
			L104.502,60.573z"/>
	</g>
	<g id="XMLID_1358_">
		<path id="XMLID_1359_" style="fill:#F4B2B0;" d="M303.221,10.001H72.799c-17.522,0-31.727,14.205-31.727,31.727v292.564
			c0,17.522,14.205,31.727,31.727,31.727h230.422c17.522,0,31.727-14.205,31.727-31.727V41.728
			C334.948,24.205,320.743,10.001,303.221,10.001z M294.374,265.589c0,12.624-2.233,22.857-14.857,22.857H104.502
			c-12.624,0-22.857-10.233-22.857-22.857V73.43c0-12.624,10.233-22.857,22.857-22.857h175.015
			c12.624,0,14.857,10.233,14.857,22.857V265.589z"/>
		<path id="XMLID_1362_" style="fill:#B3404A;" d="M303.221,376.02H72.799c-23.008,0-41.727-18.719-41.727-41.728V41.728
			c0-23.008,18.719-41.727,41.727-41.727h230.422c23.008,0,41.727,18.719,41.727,41.727v292.564
			C344.948,357.301,326.229,376.02,303.221,376.02z M72.799,20.001c-11.98,0-21.727,9.746-21.727,21.727v292.564
			c0,11.98,9.747,21.728,21.727,21.728h230.422c11.98,0,21.727-9.747,21.727-21.728V41.728c0-11.98-9.747-21.727-21.727-21.727
			C303.221,20.001,72.799,20.001,72.799,20.001z M279.517,298.446H104.502c-18.117,0-32.857-14.74-32.857-32.857V73.431
			c0-18.117,14.74-32.857,32.857-32.857h175.015c9.541,0,17.016,4.299,21.047,12.105c3.376,6.538,3.81,14.524,3.81,20.752v192.158
			c0,6.228-0.433,14.214-3.81,20.752C296.533,294.147,289.058,298.446,279.517,298.446z M104.502,60.573
			c-7.089,0-12.857,5.768-12.857,12.857v192.158c0,7.09,5.768,12.857,12.857,12.857h175.015c2.614,0,2.921-0.595,3.277-1.283
			c1.048-2.03,1.58-5.924,1.58-11.574V73.431c0-5.65-0.531-9.544-1.58-11.574c-0.356-0.688-0.663-1.283-3.277-1.283L104.502,60.573
			L104.502,60.573z"/>
	</g>
	<g id="XMLID_1367_">
		<g id="XMLID_1368_">
			<rect id="XMLID_1369_" x="117.01" y="90.716" style="fill:#B3404A;" width="102" height="20"/>
		</g>
		<g id="XMLID_1370_">
			<rect id="XMLID_1371_" x="117.01" y="137.382" style="fill:#B3404A;" width="142" height="20"/>
		</g>
		<g id="XMLID_1372_">
			<rect id="XMLID_1373_" x="117.01" y="230.716" style="fill:#B3404A;" width="142" height="20"/>
		</g>
		<g id="XMLID_1374_">
			<rect id="XMLID_1375_" x="117.01" y="184.049" style="fill:#B3404A;" width="102" height="20"/>
		</g>
	</g>
	<g id="XMLID_1376_">
		<path id="XMLID_1377_" style="fill:#B3404A;" d="M220.51,344.716h-20v-14.667h-25v14.667h-20v-15.5
			c0-10.568,8.598-19.167,19.167-19.167h26.667c10.568,0,19.167,8.599,19.167,19.167L220.51,344.716L220.51,344.716z"/>
	</g>
</g>
<g>
</g>
<g>
</g>
<g>
</g>
<g>
</g>
<g>
</g>
<g>
</g>
<g>
</g>
<g>
</g>
<g>
</g>
<g>
</g>
<g>
</g>
<g>
</g>
<g>
</g>
<g>
</g>
<g>
</g>
</svg>
