<svg height="512" viewBox="0 0 60 60" width="512" xmlns="http://www.w3.org/2000/svg"><g id="Page-1" fill="none" fill-rule="evenodd"><g id="004---Turntable"><g id="Color" transform="translate(1 1)"><circle id="Oval" cx="29" cy="29" fill="#607d8b" fill-rule="nonzero" r="29"/><path id="Shape" d="m29 0c-.5033333 0-1.0033333.013-1.5.039 15.4111977.80006096 27.4965111 13.5290489 27.4965111 28.961s-12.0853134 28.160939-27.4965111 28.961c.4973333.026.9973333.039 1.5.039 16.0162576-.0000002 28.9999996-12.9837424 28.9999996-29s-12.983742-28.99999976-28.9999996-29z" fill="#37474f"/><circle id="Oval" cx="29" cy="29" fill="#f44335" fill-rule="nonzero" r="10"/><path id="Shape" d="m29 19c-.5024253.0040337-1.0038371.045818-1.5.125 4.8867805.7347638 8.5012202 4.9332896 8.5012202 9.875s-3.6144397 9.1402362-8.5012202 9.875c3.710451.5677523 7.4261819-.9912669 9.6206899-4.0365787s2.4977618-7.0634251.7851783-10.4036118c-1.7125836-3.3401866-5.152234-5.4392346-8.9058682-5.4348095z" fill="#c81e1e"/><path id="Shape" d="m9 30c-.55228475 0-1-.4477153-1-1 .01267598-11.5927251 9.4072749-20.98732402 21-21 .5522847 0 1 .44771525 1 1s-.4477153 1-1 1c-10.4886126.0115735-18.9884265 8.5113874-19 19 0 .5522847-.44771525 1-1 1z" fill="#cfd8dc" fill-rule="nonzero"/><path id="Shape" d="m13 30c-.5522847 0-1-.4477153-1-1 .010471-9.3845001 7.6154999-16.989529 17-17 .5522847 0 1 .4477153 1 1s-.4477153 1-1 1c-8.2803876.0093685-14.9906315 6.7196124-15 15 0 .5522847-.4477153 1-1 1z" fill="#cfd8dc" fill-rule="nonzero"/><circle id="Oval" cx="29" cy="29" fill="#f5f5f5" fill-rule="nonzero" r="2"/><path id="Shape" d="m45.48 42.67 3.92-4.55c.1724034-.201559.2576705-.463353.2370412-.7277834-.0206293-.2644303-.145465-.5098333-.3470412-.6822166l-3.03-2.61c-.4170647-.3614773-1.0481266-.3167211-1.41.1l-3.91 4.55z" fill="#9e9e9e"/><path id="Shape" d="m49.29 36.71-3.03-2.61c-.4170647-.3614773-1.0481266-.3167211-1.41.1l-.627.73 2.067 1.78c.2015762.1723833.3264119.4177863.3470412.6822166.0206293.2644304-.0646378.5262244-.2370412.7277834l-2.64 3.065 1.72 1.485 3.92-4.55c.1724034-.201559.2576705-.463353.2370412-.7277834-.0206293-.2644303-.145465-.5098333-.3470412-.6822166z" fill="#707070"/><g fill-rule="nonzero"><rect id="Rectangle-path" fill="#37474f" height="8" rx="1" transform="matrix(.653 -.758 .758 .653 -20.638 45.495)" width="12" x="33.294" y="41.254"/><path id="Shape" d="m49.23 36.66 4.33-5.41c.2355122-.293329.3844377-.6465941.43-1.02l3.45-30.23h-4.03l-3.33 29.2-3.89 4.86z" fill="#f5f5f5"/><circle id="Oval" cx="29" cy="54" fill="#37474f" r="1"/><circle id="Oval" cx="29" cy="4" fill="#37474f" r="1"/><circle id="Oval" cx="24.659" cy="53.62" fill="#37474f" r="1"/><circle id="Oval" cx="33.341" cy="4.38" fill="#37474f" r="1"/><circle id="Oval" cx="20.449" cy="52.492" fill="#37474f" r="1"/><circle id="Oval" cx="37.551" cy="5.508" fill="#37474f" r="1"/><circle id="Oval" cx="16.5" cy="50.651" fill="#37474f" r="1"/><circle id="Oval" cx="41.5" cy="7.349" fill="#37474f" r="1"/><circle id="Oval" cx="12.93" cy="48.151" fill="#37474f" r="1"/><circle id="Oval" cx="45.07" cy="9.849" fill="#37474f" r="1"/><circle id="Oval" cx="9.849" cy="45.07" fill="#37474f" r="1"/><circle id="Oval" cx="48.151" cy="12.93" fill="#37474f" r="1"/><circle id="Oval" cx="7.349" cy="41.5" fill="#37474f" r="1"/><circle id="Oval" cx="5.508" cy="37.551" fill="#37474f" r="1"/><circle id="Oval" cx="4.38" cy="33.341" fill="#37474f" r="1"/><circle id="Oval" cx="4" cy="29" fill="#37474f" r="1"/><circle id="Oval" cx="4.38" cy="24.659" fill="#37474f" r="1"/><circle id="Oval" cx="5.508" cy="20.449" fill="#37474f" r="1"/><circle id="Oval" cx="7.349" cy="16.5" fill="#37474f" r="1"/><circle id="Oval" cx="9.849" cy="12.93" fill="#37474f" r="1"/><circle id="Oval" cx="12.93" cy="9.849" fill="#37474f" r="1"/><circle id="Oval" cx="16.5" cy="7.349" fill="#37474f" r="1"/><circle id="Oval" cx="20.449" cy="5.508" fill="#37474f" r="1"/><circle id="Oval" cx="24.659" cy="4.38" fill="#37474f" r="1"/><circle id="Oval" cx="33.341" cy="53.62" fill="#37474f" r="1"/></g></g><g id="Outline" fill="#000" fill-rule="nonzero"><path id="Shape" d="m30 41c6.0751322 0 11-4.9248678 11-11s-4.9248678-11-11-11-11 4.9248678-11 11c.0071635 6.0721626 4.9278374 10.9928365 11 11zm0-20c4.9705627 0 9 4.0294373 9 9s-4.0294373 9-9 9-9-4.0294373-9-9c.006061-4.9680501 4.0319499-8.993939 9-9z"/><path id="Shape" d="m30 33c1.6568542 0 3-1.3431458 3-3s-1.3431458-3-3-3-3 1.3431458-3 3 1.3431458 3 3 3zm0-4c.5522847 0 1 .4477153 1 1s-.4477153 1-1 1-1-.4477153-1-1 .4477153-1 1-1z"/><path id="Shape" d="m30 60c16.5607751-.018737 29.981263-13.4392249 30-30 .006157-4.1186216-.8452415-8.1934146-2.5-11.965l1.934-16.922c.032201-.28313901-.0579233-.56656725-.2477406-.77910906-.1898172-.21254182-.4612952-.33400636-.7462594-.33389094h-4.03c-.5083349.00030246-.9355582.38192091-.993.887l-1.043 9.143c-5.6677835-6.40639602-13.8203626-10.06110097-22.374-10.03-16.5685425 0-30 13.4314575-30 30s13.4314575 30 30 30zm25.3-58h2.016l-3.316 29.1c-.0228336.1938104-.0993795.3773819-.221.53l-3.681 4.6-1.515-1.3 3.278-4.1c.1178471-.1471743.1916865-.3246662.213-.512zm-14.016 38.507 4.547 3.914-6.531 7.579-4.547-3.916zm5.094 1.749-3.03-2.61 3.259-3.788 3.035 2.609zm-16.378-40.256c8.6278925-.03094802 16.780084 3.9499939 22.061 10.773l-1.942 17.027-3.26 4.073c-.1326437-.0167028-.2665517-.0210548-.4-.013-.531538.034421-1.0264844.2826157-1.372.688l-3.44 4c-.699283-.1334634-1.4167982.1148486-1.884.652l-6.527 7.577c-.3460697.4021593-.5181624.9253478-.4784024 1.4544182s.288114 1.0206621.6904024 1.3665818l4.552 3.918c.8370594.720237 2.0994409.6257822 2.82-.211l6.526-7.577c.4622129-.5399864.602034-1.2851907.367-1.956l3.447-4c.4974508-.5703627.6216563-1.3763358.319-2.07l3.853-4.814c.3580292-.4433199.5842943-.9783172.653-1.544l1-8.8c3.1996094 11.5818639-1.3470306 23.9139653-11.2990532 30.6470419-9.9520225 6.7330766-23.0904322 6.3658592-32.650834-.9125878-9.56040172-7.278447-13.41111963-19.8452537-9.56958669-31.2303184 3.84153294-11.38506469 14.51877289-19.04986771 26.53447389-19.0481357z"/></g></g></g></svg>