<svg height="512" viewBox="0 0 60 60" width="512" xmlns="http://www.w3.org/2000/svg"><g id="Page-1" fill="none" fill-rule="evenodd"><g id="024---Chimes"><g id="Color" transform="translate(1 1)"><g fill-rule="nonzero"><rect id="Rectangle-path" fill="#a0522d" height="16" rx="8" width="58"/><path id="Shape" d="m50 0h-3c4.418278 0 8 3.581722 8 8s-3.581722 8-8 8h3c4.418278 0 8-3.581722 8-8s-3.581722-8-8-8z" fill="#783e22"/><circle id="Oval" cx="49" cy="8" fill="#607d8b" r="3"/><circle id="Oval" cx="49" cy="8" fill="#607d8b" r="3"/><path id="Shape" d="m49 5c-.5281059.00274535-1.0459153.14635115-1.5.416.9273539.5298262 1.4996803 1.5159639 1.4996803 2.584s-.5723264 2.0541738-1.4996803 2.584c.4540847.2696489.9718941.4132547 1.5.416 1.6568542 0 3-1.34314575 3-3s-1.3431458-3-3-3z" fill="#37474f"/></g><path id="Shape" d="m8 14v6" stroke="#000" stroke-linecap="round" stroke-linejoin="round" stroke-width="2"/><path id="Shape" d="m9 5h-2c-.55228475 0-1-.44771525-1-1s.44771525-1 1-1h2c.55228475 0 1 .44771525 1 1s-.44771525 1-1 1z" fill="#f5f5f5" fill-rule="nonzero"/><path id="Shape" d="m33 5h-20c-.5522847 0-1-.44771525-1-1s.4477153-1 1-1h20c.5522847 0 1 .44771525 1 1s-.4477153 1-1 1z" fill="#f5f5f5" fill-rule="nonzero"/><path id="Shape" d="m12 23v32c0-1.6568542-1.3431458-3-3-3-1.65685425 0-3 1.3431458-3 3v-32c.00000003-1.6568542 1.34314578-2.9999999 3-2.9999999 1.6568542 0 3 1.3431457 3 2.9999999z" fill="#00bcd4" fill-rule="nonzero"/><path id="Shape" d="m11.12 20.88c-.9572619-.9669595-2.44980712-1.1582692-3.62-.464.22669652.1273239.43608006.2832692.623.464.56232245.5621246.87786526 1.3248963.877 2.12v29c1.6568542 0 3 1.3431458 3 3v-32c.0000702-.7955351-.3165773-1.5583676-.88-2.12z" fill="#00838f" fill-rule="nonzero"/><path id="Shape" d="m12 55c0 1.6568542-1.3431458 3-3 3-1.65685425 0-3-1.3431458-3-3s1.34314575-3 3-3c1.6568542 0 3 1.3431458 3 3z" fill="#00695c" fill-rule="nonzero"/><path id="Shape" d="m18 14v6" stroke="#000" stroke-linecap="round" stroke-linejoin="round" stroke-width="2"/><path id="Shape" d="m22 23v28c0-1.6568542-1.3431458-3-3-3s-3 1.3431458-3 3v-28c0-1.6568542 1.3431458-3 3-3s3 1.3431458 3 3z" fill="#00bcd4" fill-rule="nonzero"/><path id="Shape" d="m21.12 20.88c-.957737-.9684702-2.4521116-1.1598558-3.623-.464.2266965.1273239.4360801.2832692.623.464.5634227.5616324.8800702 1.3244649.88 2.12v25c1.6568542 0 3 1.3431458 3 3v-28c.0000702-.7955351-.3165773-1.5583676-.88-2.12z" fill="#00838f" fill-rule="nonzero"/><path id="Shape" d="m22 51c0 1.6568542-1.3431458 3-3 3s-3-1.3431458-3-3 1.3431458-3 3-3 3 1.3431458 3 3z" fill="#00695c" fill-rule="nonzero"/><path id="Shape" d="m29 14v6" stroke="#000" stroke-linecap="round" stroke-linejoin="round" stroke-width="2"/><path id="Shape" d="m32 23v22c0-1.6568542-1.3431458-3-3-3s-3 1.3431458-3 3v-22c0-1.6568542 1.3431458-3 3-3s3 1.3431458 3 3z" fill="#00bcd4" fill-rule="nonzero"/><path id="Shape" d="m31.12 20.88c-.957737-.9684702-2.4521116-1.1598558-3.623-.464.2266965.1273239.4360801.2832692.623.464.5634227.5616324.8800702 1.3244649.88 2.12v19c1.6568542 0 3 1.3431458 3 3v-22c.0000702-.7955351-.3165773-1.5583676-.88-2.12z" fill="#00838f" fill-rule="nonzero"/><path id="Shape" d="m32 45c0 1.6568542-1.3431458 3-3 3s-3-1.3431458-3-3 1.3431458-3 3-3 3 1.3431458 3 3z" fill="#00695c" fill-rule="nonzero"/><path id="Shape" d="m39 14v6" stroke="#000" stroke-linecap="round" stroke-linejoin="round" stroke-width="2"/><path id="Shape" d="m42 23v16c0-1.6568542-1.3431458-3-3-3s-3 1.3431458-3 3v-16c0-1.6568542 1.3431458-3 3-3s3 1.3431458 3 3z" fill="#00bcd4" fill-rule="nonzero"/><path id="Shape" d="m41.12 20.88c-.957737-.9684702-2.4521116-1.1598558-3.623-.464.2266965.1273239.4360801.2832692.623.464.5634227.5616324.8800702 1.3244649.88 2.12v13c1.6568542 0 3 1.3431458 3 3v-16c.0000702-.7955351-.3165773-1.5583676-.88-2.12z" fill="#00838f" fill-rule="nonzero"/><path id="Shape" d="m42 39c0 1.6568542-1.3431458 3-3 3s-3-1.3431458-3-3 1.3431458-3 3-3 3 1.3431458 3 3z" fill="#00695c" fill-rule="nonzero"/><path id="Shape" d="m49 14v6" stroke="#000" stroke-linecap="round" stroke-linejoin="round" stroke-width="2"/><path id="Shape" d="m52 23v12c-.0000001-1.6568542-1.3431458-2.9999999-3-2.9999999s-2.9999999 1.3431457-3 2.9999999v-12c0-1.6568542 1.3431458-3 3-3s3 1.3431458 3 3z" fill="#00bcd4" fill-rule="nonzero"/><path id="Shape" d="m51.12 20.88c-.957737-.9684702-2.4521116-1.1598558-3.623-.464.2266965.1273239.4360801.2832692.623.464.5634227.5616324.8800702 1.3244649.88 2.12v9c1.6568542 0 3 1.3431458 3 3v-12c.0000702-.7955351-.3165773-1.5583676-.88-2.12z" fill="#00838f" fill-rule="nonzero"/><path id="Shape" d="m52 35c0 1.6568542-1.3431458 3-3 3s-3-1.3431458-3-3 1.3431458-3 3-3 3 1.3431458 3 3z" fill="#00695c" fill-rule="nonzero"/></g><g id="Outline" fill="#000" fill-rule="nonzero"><path id="Shape" d="m8 17.941v2.615c-1.23335224.7089761-1.99550441 2.0214021-2 3.444v32c.00000003 2.209139 1.79086102 3.9999999 4 3.9999999 2.209139 0 4-1.7908609 4-3.9999999v-32c0-2.209139-1.790861-4-4-4v-2h8v2.556c-1.2333522.7089761-1.9955044 2.0214021-2 3.444v28c0 2.209139 1.790861 4 4 4s4-1.790861 4-4v-28c0-2.209139-1.790861-4-4-4v-2h9v2.142c-1.7606851.4545933-2.9931852 2.0395884-3 3.858v22c0 2.209139 1.790861 4 4 4s4-1.790861 4-4v-22c-.0068148-1.8184116-1.2393149-3.4034067-3-3.858v-2.142h8v2.142c-1.7606851.4545933-2.9931852 2.0395884-3 3.858v16c0 2.209139 1.790861 4 4 4s4-1.790861 4-4v-16c-.0068148-1.8184116-1.2393149-3.4034067-3-3.858v-2.142h8v2.142c-1.7606851.4545933-2.9931852 2.0395884-3 3.858v12c0 2.209139 1.790861 4 4 4s4-1.790861 4-4v-12c-.0068148-1.8184116-1.2393149-3.4034067-3-3.858v-2.142c4.9705627 0 9-4.0294373 9-9 0-4.97056275-4.0294373-9-9-9h-42c-4.76496351.01506403-8.69241904 3.74148547-8.9575995 8.49908818-.26518047 4.75760272 3.22382551 8.89740472 7.9575995 9.44191182zm2 40.059c-1.1045695 0-2-.8954305-2-2s.8954305-2 2-2 2 .8954305 2 2-.8954305 2-2 2zm2-34v28.556c-1.2302804-.7413607-2.76971959-.7413607-4 0v-28.556c0-1.1045695.8954305-2 2-2s2 .8954305 2 2zm8 30c-1.1045695 0-2-.8954305-2-2s.8954305-2 2-2 2 .8954305 2 2-.8954305 2-2 2zm2-30v24.556c-1.2302804-.7413607-2.7697196-.7413607-4 0v-24.556c0-1.1045695.8954305-2 2-2s2 .8954305 2 2zm8 24c-1.1045695 0-2-.8954305-2-2s.8954305-2 2-2 2 .8954305 2 2-.8954305 2-2 2zm2-24v18.556c-1.2302804-.7413607-2.7697196-.7413607-4 0v-18.556c0-1.1045695.8954305-2 2-2s2 .8954305 2 2zm8 18c-1.1045695 0-2-.8954305-2-2s.8954305-2 2-2 2 .8954305 2 2-.8954305 2-2 2zm2-18v12.556c-1.2302804-.7413607-2.7697196-.7413607-4 0v-12.556c0-1.1045695.8954305-2 2-2s2 .8954305 2 2zm8 14c-1.1045695 0-2-.8954305-2-2s.8954305-2 2-2 2 .8954305 2 2-.8954305 2-2 2zm2-14v8.556c-1.2302804-.7413607-2.7697196-.7413607-4 0v-8.556c0-1.1045695.8954305-2 2-2s2 .8954305 2 2zm-43-22h42c3.8659932 0 7 3.13400675 7 7 0 3.8659932-3.1340068 7-7 7v-1c0-.5522847-.4477153-1-1-1s-1 .4477153-1 1v1h-8v-1c0-.5522847-.4477153-1-1-1s-1 .4477153-1 1v1h-8v-1c0-.5522847-.4477153-1-1-1s-1 .4477153-1 1v1h-9v-1c0-.5522847-.4477153-1-1-1s-1 .4477153-1 1v1h-8v-1c0-.5522847-.44771525-1-1-1s-1 .4477153-1 1v.92c-3.60902175-.5496345-6.18968051-3.7805374-5.92809638-7.42178853.26158413-3.64125114 3.27756962-6.47009623 6.92809638-6.49821147z"/><path id="Shape" d="m50 13c2.209139 0 4-1.790861 4-4s-1.790861-4-4-4-4 1.790861-4 4 1.790861 4 4 4zm0-6c1.1045695 0 2 .8954305 2 2s-.8954305 2-2 2-2-.8954305-2-2 .8954305-2 2-2z"/><circle id="Oval" cx="10" cy="48" r="1"/><circle id="Oval" cx="20" cy="44" r="1"/><circle id="Oval" cx="30" cy="38" r="1"/><circle id="Oval" cx="40" cy="32" r="1"/><circle id="Oval" cx="50" cy="28" r="1"/></g></g></g></svg>