<svg height="512pt" viewBox="0 -46 512 512" width="512pt" xmlns="http://www.w3.org/2000/svg"><path d="m346 40s-40.289062-30-90-30-90 30-90 30h-90v146.238281h360v-146.238281zm0 0" fill="#866d67"/><path d="m346 100h-60c-16.570312 0-30 13.429688-30 30 0-16.570312-13.429688-30-30-30h-60c-16.570312 0-30 13.429688-30 30v40c0 2.539062.308594 5 .910156 7.339844h238.179688c.601562-2.339844.910156-4.800782.910156-7.339844v-40c0-16.570312-13.429688-30-30-30zm0 0" fill="#fff2fb"/><path d="m10 260h492v90h-492zm0 0" fill="#866d67"/><path d="m256 170c131.859375 0 245.898438 29.984375 246 30v60h-492v-60c80.945312-15.503906 140.011719-30 246-30zm0 0" fill="#ff712f"/><path d="m502 160c-5.523438 0-10 4.476562-10 10v17.273438c-10.058594-2.332032-25.8125-5.753907-46-9.414063v-167.859375c0-5.523438-4.476562-10-10-10s-10 4.476562-10 10v20h-76.84375c-10.390625-7.03125-47.796875-30-93.15625-30s-82.765625 22.96875-93.15625 30h-76.84375v-20c0-5.523438-4.476562-10-10-10s-10 4.476562-10 10v167.859375c-20.1875 3.660156-35.941406 7.082031-46 9.414063v-17.273438c0-5.523438-4.476562-10-10-10s-10 4.476562-10 10v240c0 5.523438 4.476562 10 10 10s10-4.476562 10-10v-50h191c5.523438 0 10-4.476562 10-10s-4.476562-10-10-10h-191v-70h472v70h-191c-5.523438 0-10 4.476562-10 10s4.476562 10 10 10h191v50c0 5.523438 4.476562 10 10 10s10-4.476562 10-10v-240c0-5.523438-4.476562-10-10-10zm-336-110c2.152344 0 4.246094-.695312 5.972656-1.980469.375-.277343 38.164063-28.019531 84.027344-28.019531 45.632812 0 83.660156 27.75 84.027344 28.019531 1.726562 1.285157 3.820312 1.980469 5.972656 1.980469h80v124.433594c-13.296875-2.167969-26.671875-4.105469-40-5.800782v-38.632812c0-22.054688-17.945312-40-40-40h-60c-11.9375 0-22.664062 5.265625-30 13.585938-7.335938-8.320313-18.0625-13.585938-30-13.585938h-60c-22.054688 0-40 17.945312-40 40v38.632812c-13.328125 1.695313-26.703125 3.632813-40 5.800782v-124.433594zm100 110.0625v-30.0625c0-11.027344 8.972656-20 20-20h60c11.027344 0 20 8.972656 20 20v36.246094c-34.3125-3.753906-67.859375-5.824219-100-6.183594zm-120 6.183594v-36.246094c0-11.027344 8.972656-20 20-20h60c11.027344 0 20 8.972656 20 20v30.0625c-32.140625.359375-65.6875 2.429688-100 6.183594zm-126 83.753906v-42.171875c66.011719-15.765625 154.898438-27.828125 236-27.828125 81.011719 0 171.222656 12.359375 236 27.828125v42.171875zm0 0"/><path d="m266 350c0 5.523438-4.476562 10-10 10s-10-4.476562-10-10 4.476562-10 10-10 10 4.476562 10 10zm0 0"/></svg>