<svg height="512pt" viewBox="-66 0 512 512" width="512pt" xmlns="http://www.w3.org/2000/svg"><path d="m370 90v20c0 11.050781-8.949219 20-20 20-15.886719 0-304.433594 0-320 0-11.050781 0-20-8.949219-20-20v-20c0-11.050781 8.949219-20 20-20h320c11.050781 0 20 8.949219 20 20zm0 0" fill="#76e2f8"/><path d="m340 482c0 11.050781-8.949219 20-20 20h-260c-11.050781 0-20-8.949219-20-20 0-13.574219 0-334.878906 0-352h300zm0 0" fill="#fff2fb"/><path d="m10 180c-5.523438 0-10 4.476562-10 10s4.476562 10 10 10h20v282c0 16.542969 13.457031 30 30 30h85c5.523438 0 10-4.476562 10-10s-4.476562-10-10-10h-85c-5.515625 0-10-4.484375-10-10v-342h280v342c0 5.515625-4.484375 10-10 10h-85c-5.523438 0-10 4.476562-10 10s4.476562 10 10 10h85c16.542969 0 30-13.457031 30-30v-282h20c5.523438 0 10-4.476562 10-10s-4.476562-10-10-10h-20v-40c16.542969 0 30-13.457031 30-30v-20c0-16.542969-13.457031-30-30-30h-90v-30c0-16.542969-13.457031-30-30-30h-80c-16.542969 0-30 13.457031-30 30v30h-90c-16.542969 0-30 13.457031-30 30v20c0 16.542969 13.457031 30 30 30v40zm130-150c0-5.515625 4.484375-10 10-10h80c5.515625 0 10 4.484375 10 10v30h-100zm-120 80v-20c0-5.515625 4.484375-10 10-10h320c5.515625 0 10 4.484375 10 10v20c0 5.515625-4.484375 10-10 10h-320c-5.515625 0-10-4.484375-10-10zm0 0"/><path d="m90 190v252c0 5.523438 4.476562 10 10 10s10-4.476562 10-10v-252c0-5.523438-4.476562-10-10-10s-10 4.476562-10 10zm0 0"/><path d="m200 190c0-5.523438-4.476562-10-10-10s-10 4.476562-10 10v252c0 5.523438 4.476562 10 10 10s10-4.476562 10-10zm0 0"/><path d="m290 442v-252c0-5.523438-4.476562-10-10-10s-10 4.476562-10 10v252c0 5.523438 4.476562 10 10 10s10-4.476562 10-10zm0 0"/><path d="m200 502c0 5.523438-4.476562 10-10 10s-10-4.476562-10-10 4.476562-10 10-10 10 4.476562 10 10zm0 0"/></svg>