<svg height="512pt" viewBox="0 0 512 512" width="512pt" xmlns="http://www.w3.org/2000/svg"><path d="m436 10v216c-36.453125 0-326.082031 0-360 0v-216zm0 0" fill="#76e2f8"/><path d="m181 226h150c-24.851562 0-45 20.148438-45 45s20.148438 45 45 45c-10.128906 0-139.871094 0-150 0 24.851562 0 45-20.148438 45-45s-20.148438-45-45-45zm0 0" fill="#866d67"/><path d="m482 316c-47.21875 0-401.253906 0-452 0-11.050781 0-20 8.949219-20 20v146c0 11.050781 8.949219 20 20 20h452c11.050781 0 20-8.949219 20-20 0-8.113281 0-137.886719 0-146 0-11.050781-8.949219-20-20-20zm0 0" fill="#ffc473"/><path d="m482 306h-151c-19.300781 0-35-15.699219-35-35s15.699219-35 35-35h105c5.523438 0 10-4.476562 10-10v-216c0-5.523438-4.476562-10-10-10h-360c-5.523438 0-10 4.476562-10 10v216c0 5.523438 4.476562 10 10 10h105c19.300781 0 35 15.699219 35 35s-15.699219 35-35 35h-151c-16.542969 0-30 13.457031-30 30v146c0 16.542969 13.457031 30 30 30h452c16.542969 0 30-13.457031 30-30v-146c0-16.542969-13.457031-30-30-30zm-336 113h100v20c0 5.523438 4.476562 10 10 10s10-4.476562 10-10v-20h100v73h-220zm220-20h-220v-73h100v20c0 5.523438 4.476562 10 10 10s10-4.476562 10-10v-20h100zm-280-379h340v196h-340zm137.394531 215.988281h65.210938c-7.871094 9.527344-12.605469 21.726563-12.605469 35.011719s4.734375 25.484375 12.605469 35h-65.210938c7.871094-9.515625 12.605469-21.714844 12.605469-35s-4.734375-25.484375-12.605469-35.011719zm-203.394531 246.011719v-63h20c5.523438 0 10-4.476562 10-10s-4.476562-10-10-10h-20v-63c0-5.515625 4.484375-10 10-10h96v166h-96c-5.515625 0-10-4.484375-10-10zm462 10h-96v-166h96c5.515625 0 10 4.484375 10 10v63h-20c-5.523438 0-10 4.476562-10 10s4.476562 10 10 10h20v63c0 5.515625-4.484375 10-10 10zm0 0"/><path d="m246 50c0 5.523438-4.476562 10-10 10s-10-4.476562-10-10 4.476562-10 10-10 10 4.476562 10 10zm0 0"/><path d="m201 50c0-5.523438-4.476562-10-10-10h-75c-5.523438 0-10 4.476562-10 10s4.476562 10 10 10h75c5.523438 0 10-4.476562 10-10zm0 0"/></svg>