<svg height="512pt" viewBox="0 0 512 512" width="512pt" xmlns="http://www.w3.org/2000/svg"><path d="m90 243.171875v178.828125c0 11.050781 8.949219 20 20 20h40c11.050781 0 20-8.949219 20-20 0-21.300781 0-159.648438 0-177.351562zm0 0" fill="#866d67"/><path d="m170 244.648438c-27.8125 6.582031-52.777344 8.140624-80-1.476563-46.609375-16.472656-80-60.933594-80-113.171875 0-66.269531 53.730469-120 120-120 80 0 210.851562 83.941406 266 80 43.550781-3.109375 106-50 106-50v180s-62.449219-46.890625-106-50c-48.113281-3.4375-147.921875 56.175781-226 74.648438zm0 0" fill="#ff712f"/><path d="m426 402h-50c-16.570312 0-30-13.429688-30-30s13.429688-30 30-30h50zm0 0" fill="#866d67"/><path d="m200 130c0 38.660156-31.339844 70-70 70s-70-31.339844-70-70 31.339844-70 70-70 70 31.339844 70 70zm0 0" fill="#fff2fb"/><path d="m130 210c44.113281 0 80-35.886719 80-80s-35.886719-80-80-80-80 35.886719-80 80 35.886719 80 80 80zm0-140c33.085938 0 60 26.914062 60 60s-26.914062 60-60 60-60-26.914062-60-60 26.914062-60 60-60zm0 0"/><path d="m100 160h60c5.523438 0 10-4.476562 10-10s-4.476562-10-10-10h-60c-5.523438 0-10 4.476562-10 10s4.476562 10 10 10zm0 0"/><path d="m100 120h60c5.523438 0 10-4.476562 10-10s-4.476562-10-10-10h-60c-5.523438 0-10 4.476562-10 10s4.476562 10 10 10zm0 0"/><path d="m20 130c0 5.523438-4.476562 10-10 10s-10-4.476562-10-10 4.476562-10 10-10 10 4.476562 10 10zm0 0"/><path d="m506.46875 31.054688c-3.390625-1.695313-7.445312-1.328126-10.472656.949218-.601563.449219-60.5625 45.15625-100.710938 48.023438-23.730468 1.6875-66.257812-15.898438-111.261718-34.53125-54.035157-22.367188-109.910157-45.496094-154.023438-45.496094-54.15625 0-101.53125 33.296875-120.886719 82.101562-2.039062 5.132813.476563 10.945313 5.609375 12.980469 5.132813 2.039063 10.941406-.476562 12.980469-5.609375 16.738281-42.203125 56.890625-69.472656 102.296875-69.472656 40.136719 0 96.578125 23.363281 146.371094 43.976562 49.300781 20.40625 91.878906 38.03125 120.339844 36 32.421874-2.316406 73.167968-26.246093 95.289062-40.835937v141.71875c-22.121094-14.589844-62.867188-38.519531-95.285156-40.832031-29.523438-2.105469-72.429688 15.734375-122.117188 36.398437-40.753906 16.945313-102.148437 43.574219-144.597656 43.574219-45.316406 0-85.695312-27.617188-102.296875-69.472656-2.035156-5.136719-7.847656-7.644532-12.980469-5.609375-5.132812 2.035156-7.648437 7.847656-5.609375 12.980469 12.980469 32.734374 38.59375 58.6875 70.886719 72.132812v111.96875c-44.113281 0-80 35.886719-80 80 0 38.597656 31.402344 70 70 70 35.203125 0 64.40625-26.125 69.273438-60h10.726562c16.542969 0 30-13.457031 30-30v-40h157.265625c4.453125 17.234375 20.128906 30 38.734375 30h50c5.523438 0 10-4.476562 10-10v-20h20c5.523438 0 10-4.476562 10-10s-4.476562-10-10-10h-20v-20c0-5.523438-4.476562-10-10-10h-50c-18.605469 0-34.28125 12.765625-38.734375 30h-157.265625v-72h30.429688c16.230468 0 29.21875-12.894531 29.566406-29.359375.003906-.070313.003906-28.535156.003906-28.535156 14.195312-5.558594 28.4375-11.460938 42.277344-17.214844 45.371094-18.867187 88.21875-36.695313 113.011718-34.917969 40.078126 2.863282 100.105469 47.574219 100.707032 48.023438 3.027344 2.273437 7.082031 2.640625 10.472656.949218 3.390625-1.691406 5.53125-5.15625 5.53125-8.945312v-180c0-3.789062-2.140625-7.253906-5.53125-8.945312zm-130.46875 320.945312h40v40h-40c-11.027344 0-20-8.972656-20-20s8.972656-20 20-20zm-306 140c-27.570312 0-50-22.429688-50-50 0-33.085938 26.914062-60 60-60v40c0 16.542969 13.457031 29.988281 30 29.988281h8.992188c-4.644532 22.796875-24.847657 40.011719-48.992188 40.011719zm90-70c0 5.515625-4.484375 10-10 10h-40c-5.515625 0-10-4.484375-10-10v-165.484375c9.785156 2.316406 19.828125 3.484375 30 3.484375 9.164062 0 19.066406-1 30-3.023438zm50.429688-152h-30.429688v-17.550781c11.957031-3.152344 25.011719-7.3125 40-12.757813v20.617188c-.160156 5.53125-4.261719 9.691406-9.570312 9.691406zm0 0"/></svg>