<svg height="512pt" viewBox="0 -36 512 512" width="512pt" xmlns="http://www.w3.org/2000/svg"><path d="m457 160h-62.070312c-52.691407 0-101.519532-27.640625-128.628907-72.828125l-12.820312-21.371094c-20.769531-34.621093-58.179688-55.800781-98.550781-55.800781-63.46875 0-114.929688 51.460938-114.929688 114.929688v37.640624c-17.480469 6.167969-30 22.839844-30 42.429688s12.519531 36.261719 30 42.441406v162.558594c0 11.050781 8.949219 20 20 20h392c11.050781 0 20-8.949219 20-20v-162.558594c17.480469-6.179687 30-22.851562 30-42.441406 0-24.851562-20.148438-45-45-45zm0 0" fill="#ff712f"/><path d="m412 280v60h-312v-60s73.160156-20 156-20 156 20 156 20zm0 0" fill="#ffc473"/><path d="m457 150h-62.070312c-48.898438 0-94.902344-26.046875-120.054688-67.972656l-12.820312-21.371094c-22.445313-37.414062-63.492188-60.65625-107.125-60.65625-68.886719 0-124.929688 56.042969-124.929688 124.929688v31.085937c-18.195312 9.289063-30 28.15625-30 48.984375 0 20.824219 11.800781 39.707031 30 49.003906v155.996094c0 16.542969 13.457031 30 30 30h151c5.523438 0 10-4.476562 10-10s-4.476562-10-10-10h-101v-70h292v70h-101c-5.523438 0-10 4.476562-10 10s4.476562 10 10 10h151c16.542969 0 30-13.457031 30-30v-155.996094c18.199219-9.296875 30-28.179687 30-49.003906 0-30.328125-24.671875-55-55-55zm-302.070312-130c36.644531 0 71.121093 19.519531 89.976562 50.945312l12.820312 21.367188c28.878907 48.140625 80.96875 77.675781 137.203126 77.675781h19.675781c-7.871094 9.519531-12.605469 21.726563-12.605469 35.011719v62.222656c-24.652344-5.726562-82.128906-17.222656-146-17.222656s-121.347656 11.496094-146 17.222656v-62.222656c0-30.328125-24.671875-55-55-55-1.679688 0-3.34375.078125-5 .230469v-25.300781c0-57.859376 47.070312-104.929688 104.929688-104.929688zm-104.929688 390v-162.558594c0-4.238281-2.671875-8.015625-6.667969-9.429687-13.953125-4.933594-23.332031-18.199219-23.332031-33.011719 0-19.257812 15.640625-35 35-35 19.300781 0 35 15.699219 35 35v215h-30c-5.515625 0-10-4.484375-10-10zm60-80v-42.199219c20.398438-4.890625 80.464844-17.800781 146-17.800781s125.601562 12.910156 146 17.800781v42.199219zm358.667969-91.988281c-3.996094 1.414062-6.667969 5.191406-6.667969 9.429687v162.558594c0 5.515625-4.484375 10-10 10h-30v-215c0-19.300781 15.699219-35 35-35s35 15.699219 35 35c0 14.8125-9.378906 28.078125-23.332031 33.011719zm0 0"/><path d="m266 430c0 5.523438-4.476562 10-10 10s-10-4.476562-10-10 4.476562-10 10-10 10 4.476562 10 10zm0 0"/></svg>