<svg height="512pt" viewBox="0 0 512 512" width="512pt" xmlns="http://www.w3.org/2000/svg"><path d="m502 70v432h-120c0-17.703125 0-414.125 0-432l60-60zm0 0" fill="#ffc473"/><path d="m316 392h66v60h-66zm0 0" fill="#866d67"/><path d="m316 136h66v60h-66zm0 0" fill="#866d67"/><path d="m316 502h-120c0-17.703125 0-414.125 0-432l60-60 60 60zm0 0" fill="#ffc473"/><path d="m130 392h66v60h-66zm0 0" fill="#866d67"/><path d="m130 136h66v60h-66zm0 0" fill="#866d67"/><path d="m130 502h-120v-432l60-60 60 60zm0 0" fill="#ffc473"/><path d="m452 156c0 5.523438-4.476562 10-10 10s-10-4.476562-10-10 4.476562-10 10-10 10 4.476562 10 10zm0 0"/><path d="m452 422c0 5.523438-4.476562 10-10 10s-10-4.476562-10-10 4.476562-10 10-10 10 4.476562 10 10zm0 0"/><path d="m266 156c0 5.523438-4.476562 10-10 10s-10-4.476562-10-10 4.476562-10 10-10 10 4.476562 10 10zm0 0"/><path d="m266 422c0 5.523438-4.476562 10-10 10s-10-4.476562-10-10 4.476562-10 10-10 10 4.476562 10 10zm0 0"/><path d="m80 156c0 5.523438-4.476562 10-10 10s-10-4.476562-10-10 4.476562-10 10-10 10 4.476562 10 10zm0 0"/><path d="m80 422c0 5.523438-4.476562 10-10 10s-10-4.476562-10-10 4.476562-10 10-10 10 4.476562 10 10zm0 0"/><path d="m449.070312 2.929688c-3.90625-3.90625-10.234374-3.90625-14.140624 0l-60 60c-1.875 1.875-2.929688 4.417968-2.929688 7.070312v56h-46v-56c0-2.652344-1.054688-5.195312-2.929688-7.070312l-60-60c-3.90625-3.90625-10.234374-3.90625-14.140624 0l-60 60c-1.875 1.875-2.929688 4.417968-2.929688 7.070312v56h-46v-56c0-2.652344-1.054688-5.195312-2.929688-7.070312l-60-60c-3.90625-3.90625-10.234374-3.90625-14.140624 0l-60 60c-1.875 1.875-2.929688 4.417968-2.929688 7.070312v161c0 5.523438 4.476562 10 10 10s10-4.476562 10-10v-156.859375l50-50 50 50v417.859375h-100v-171c0-5.523438-4.476562-10-10-10s-10 4.476562-10 10v181c0 5.523438 4.476562 10 10 10h120c5.523438 0 10-4.476562 10-10v-40h46v40c0 5.523438 4.476562 10 10 10h120c5.523438 0 10-4.476562 10-10v-40h46v40c0 5.523438 4.476562 10 10 10h120c5.523438 0 10-4.476562 10-10v-432c0-2.652344-1.054688-5.195312-2.929688-7.070312zm-123.070312 203.070312h46v176h-46zm46-60v40h-46v-40zm-232 60h46v176h-46zm46-60v40h-46v-40zm-46 296v-40h46v40zm166 50h-100v-417.859375l50-50 50 50zm20-50v-40h46v40zm166 50h-100v-417.859375l50-50 50 50zm0 0"/><path d="m20 276c0 5.523438-4.476562 10-10 10s-10-4.476562-10-10 4.476562-10 10-10 10 4.476562 10 10zm0 0"/></svg>