<svg height="512pt" viewBox="0 0 512 512" width="512pt" xmlns="http://www.w3.org/2000/svg"><path d="m40 106v396h432c0-44.695312 0-351.121094 0-396zm0 0" fill="#ff712f"/><path d="m256 202c-82.839844 0-150 67.160156-150 150v150h300c0-6.925781 0-143.101562 0-150 0-82.839844-67.160156-150-150-150zm0 0" fill="#ffc473"/><path d="m328.039062 358.050781-33.46875-44.621093-38.570312 38.570312v-90l-72.039062 96.050781c-11.28125 15.027344-17.960938 33.710938-17.960938 53.949219 0 49.710938 40.289062 90 90 90s90-40.289062 90-90c0-20.238281-6.679688-38.921875-17.960938-53.949219zm0 0" fill="#ff712f"/><path d="m502 30v56c0 11.050781-8.949219 20-20 20-45.125 0-396.140625 0-452 0-11.050781 0-20-8.949219-20-20v-56c0-11.050781 8.949219-20 20-20h452c11.050781 0 20 8.949219 20 20zm0 0" fill="#866d67"/><path d="m406 412h66v90h-66zm0 0" fill="#866d67"/><path d="m282 457.019531c2.539062 4.410157 4 9.519531 4 14.980469 0 16.570312-13.429688 30-30 30s-30-13.429688-30-30c0-5.460938 1.460938-10.570312 4-14.980469l26-45.019531zm0 0" fill="#ffc473"/><path d="m40 382h66v120h-66zm0 0" fill="#866d67"/><path d="m266 10c0 5.523438-4.476562 10-10 10s-10-4.476562-10-10 4.476562-10 10-10 10 4.476562 10 10zm0 0"/><path d="m482 0h-181c-5.523438 0-10 4.476562-10 10s4.476562 10 10 10h181c5.515625 0 10 4.484375 10 10v56c0 5.515625-4.484375 10-10 10h-452c-5.515625 0-10-4.484375-10-10v-56c0-5.515625 4.484375-10 10-10h181c5.523438 0 10-4.476562 10-10s-4.476562-10-10-10h-181c-16.542969 0-30 13.457031-30 30v56c0 16.542969 13.457031 30 30 30v376h-20c-5.523438 0-10 4.476562-10 10s4.476562 10 10 10h492c5.523438 0 10-4.476562 10-10s-4.476562-10-10-10h-20v-376c16.542969 0 30-13.457031 30-30v-56c0-16.542969-13.457031-30-30-30zm-432 392h46v100h-46zm202.171875-30.761719c3.738281 1.546875 8.039063.691407 10.898437-2.167969l30.417969-30.414062 26.554688 35.398438c10.4375 13.910156 15.957031 30.488281 15.957031 47.945312 0 30.0625-16.675781 56.292969-41.257812 69.960938.820312-3.1875 1.257812-6.523438 1.257812-9.960938 0-7.007812-1.84375-13.910156-5.339844-19.980469l-26-45.019531c-1.789062-3.09375-5.089844-5-8.660156-5s-6.871094 1.90625-8.660156 5l-26.003906 45.027344c-3.492188 6.0625-5.335938 12.964844-5.335938 19.972656 0 3.4375.4375 6.773438 1.257812 9.960938-24.582031-13.667969-41.257812-39.898438-41.257812-69.960938 0-17.457031 5.519531-34.035156 15.960938-47.949219l54.039062-72.050781v60c0 4.042969 2.4375 7.691406 6.171875 9.238281zm-16.171875 110.761719c0-3.507812.921875-6.960938 2.660156-9.980469l17.339844-30.023437 17.335938 30.015625c1.742187 3.027343 2.664062 6.480469 2.664062 9.988281 0 11.027344-8.972656 20-20 20s-20-8.972656-20-20zm120-60c0-21.820312-6.902344-42.550781-19.960938-59.949219l-33.46875-44.621093c-1.742187-2.320313-4.398437-3.769532-7.292968-3.976563-2.886719-.203125-5.726563.855469-7.777344 2.90625l-21.5 21.5v-65.859375c0-4.304688-2.753906-8.125-6.839844-9.488281-4.078125-1.359375-8.578125.042969-11.160156 3.488281l-72.039062 96.046875c-13.058594 17.402344-19.960938 38.132813-19.960938 59.953125 0 32.675781 15.753906 61.742188 40.066406 80h-80.066406v-140c0-77.195312 62.804688-140 140-140s140 62.804688 140 140v140h-80.066406c24.3125-18.257812 40.066406-47.324219 40.066406-80zm60 80v-70h46v70zm46-330h-86c-5.523438 0-10 4.476562-10 10s4.476562 10 10 10h86v40h-26c-5.523438 0-10 4.476562-10 10s4.476562 10 10 10h26v160h-46v-50c0-88.222656-71.773438-160-160-160s-160 71.777344-160 160v20h-46v-130h26c5.523438 0 10-4.476562 10-10s-4.476562-10-10-10h-26v-40h86c5.523438 0 10-4.476562 10-10s-4.476562-10-10-10h-86v-46h412zm0 0"/></svg>