<svg height="512pt" viewBox="0 0 512 512" width="512pt" xmlns="http://www.w3.org/2000/svg"><path d="m40 226c-16.570312 0-30 13.429688-30 30s13.429688 30 30 30h37.390625v-60zm0 0" fill="#866d67"/><path d="m472 226h-37.390625v60h37.390625c16.570312 0 30-13.429688 30-30s-13.429688-30-30-30zm0 0" fill="#866d67"/><path d="m436 256c0 130.488281-79.164062 246-180 246-105.6875 0-180-122.273438-180-246 0-130.488281 79.164062-246 180-246 105.6875 0 180 122.273438 180 246zm0 0" fill="#76e2f8"/><path d="m396 256c0-113.769531-62.679688-206-140-206s-140 92.230469-140 206 62.679688 206 140 206 140-92.230469 140-206zm0 0" fill="#fff2fb"/><path d="m106 256c0 98.464844 55.511719 216 150 216 93.71875 0 150-116.269531 150-216 0-98.464844-55.511719-216-150-216-93.71875 0-150 116.269531-150 216zm150-196c83.054688 0 130 111.21875 130 196 0 85.253906-47.214844 196-130 196-83.054688 0-130-111.21875-130-196 0-85.253906 47.214844-196 130-196zm0 0"/><path d="m472 216h-28.402344c-11.933594-99.164062-67.394531-181.984375-139.917968-207.707031-5.203126-1.847657-10.921876.875-12.765626 6.082031-1.847656 5.203125.875 10.921875 6.082032 12.769531 83.96875 29.78125 129.003906 135.285157 129.003906 228.855469 0 110.429688-65.734375 236-170 236-105.292969 0-170-127.042969-170-236 0-99.046875 48.871094-200.433594 129.003906-228.855469 5.207032-1.847656 7.929688-7.566406 6.082032-12.769531-1.847657-5.207031-7.566407-7.929688-12.765626-6.082031-72.523437 25.722656-127.988281 108.546875-139.917968 207.707031h-28.402344c-22.054688 0-40 17.945312-40 40v246c0 5.523438 4.476562 10 10 10h492c5.523438 0 10-4.476562 10-10v-246c0-22.054688-17.945312-40-40-40zm20 40c0 11.027344-8.972656 20-20 20h-26.621094c.398438-6.648438.621094-13.335938.621094-20s-.222656-13.355469-.621094-20h26.621094c11.027344 0 20 8.972656 20 20zm-452-20.011719h26.621094c-.398438 6.660157-.621094 13.347657-.621094 20.011719s.222656 13.355469.621094 20h-26.621094c-11.027344 0-20-8.972656-20-20s8.972656-20 20-20.011719zm-20 256.011719v-201.382812c5.886719 3.417968 12.71875 5.382812 20 5.382812h28.410156c11.628906 96.699219 61.304688 165.644531 114.542969 196zm309.046875 0c53.117187-30.285156 102.898437-99.175781 114.542969-196h28.410156c7.28125 0 14.113281-1.964844 20-5.382812v201.382812zm0 0"/><path d="m266 10c0 5.523438-4.476562 10-10 10s-10-4.476562-10-10 4.476562-10 10-10 10 4.476562 10 10zm0 0"/><path d="m203.070312 233.070312 60-60c3.90625-3.90625 3.90625-10.234374 0-14.140624s-10.234374-3.90625-14.140624 0l-60 60c-3.90625 3.902343-3.90625 10.234374 0 14.140624s10.234374 3.90625 14.140624 0zm0 0"/><path d="m308.929688 278.929688-60 60c-3.90625 3.90625-3.90625 10.234374 0 14.140624s10.234374 3.90625 14.140624 0l60-60c3.90625-3.902343 3.90625-10.234374 0-14.140624s-10.234374-3.90625-14.140624 0zm0 0"/><path d="m203.070312 323.070312 120-120c3.90625-3.90625 3.90625-10.234374 0-14.140624s-10.234374-3.90625-14.140624 0l-120 120c-3.90625 3.902343-3.90625 10.234374 0 14.140624s10.234374 3.90625 14.140624 0zm0 0"/></svg>