<svg height="512pt" viewBox="-46 0 512 512" width="512pt" xmlns="http://www.w3.org/2000/svg"><path d="m10 196v286c0 11.050781 8.949219 20 20 20h360c11.050781 0 20-8.949219 20-20v-286zm0 0" fill="#fff2fb"/><path d="m390 10h-360c-11.050781 0-20 8.949219-20 20v166h400v-166c0-11.050781-8.949219-20-20-20zm0 0" fill="#76e2f8"/><path d="m360 286c0 82.839844-67.160156 150-150 150s-150-67.160156-150-150c0-82.820312 67.144531-150 150-150 82.820312 0 150 67.148438 150 150zm0 0" fill="#866d67"/><path d="m320 286h-46.460938c-22.058593 0-43.808593-5.140625-63.539062-15s-41.480469-15-63.539062-15h-42.300782c13.101563-46.121094 55.589844-80 105.839844-80 60.648438 0 110 49.351562 110 110zm0 0" fill="#fff2fb"/><path d="m273.539062 286h46.460938c0 60.648438-49.351562 110-110 110s-110-49.351562-110-110c0-10.398438 1.449219-20.460938 4.160156-30h42.300782c22.058593 0 43.808593 5.140625 63.539062 15s41.480469 15 63.539062 15zm0 0" fill="#76e2f8"/><path d="m210 166c-65.640625 0-120 53.53125-120 120 0 66.167969 53.832031 120 120 120s120-53.832031 120-120-53.832031-120-120-120zm0 20c51.765625 0 94.46875 39.539062 99.5 90h-35.960938c-20.386718 0-40.8125-4.820312-59.070312-13.945312-21.015625-10.503907-44.53125-16.054688-68.007812-16.054688h-28.089844c15.746094-35.898438 51.699218-60 91.628906-60zm0 200c-55.140625 0-100-44.859375-100-100 0-6.746094.683594-13.445312 2.019531-20h34.441407c20.386718 0 40.8125 4.820312 59.070312 13.945312 21.015625 10.503907 44.535156 16.054688 68.007812 16.042969h35.960938c-5.03125 50.472657-47.734375 90.011719-99.5 90.011719zm0 0"/><path d="m280 80h70c5.523438 0 10-4.476562 10-10s-4.476562-10-10-10h-70c-5.523438 0-10 4.476562-10 10s4.476562 10 10 10zm0 0"/><path d="m60 80h30c5.523438 0 10-4.476562 10-10s-4.476562-10-10-10h-30c-5.523438 0-10 4.476562-10 10s4.476562 10 10 10zm0 0"/><path d="m140 80h30c5.523438 0 10-4.476562 10-10s-4.476562-10-10-10h-30c-5.523438 0-10 4.476562-10 10s4.476562 10 10 10zm0 0"/><path d="m220 502c0 5.523438-4.476562 10-10 10s-10-4.476562-10-10 4.476562-10 10-10 10 4.476562 10 10zm0 0"/><path d="m0 30v452c0 16.542969 13.457031 30 30 30h135c5.523438 0 10-4.476562 10-10s-4.476562-10-10-10h-135c-5.515625 0-10-4.484375-10-10v-276.011719h51.394531c-14.046875 24.21875-21.394531 51.53125-21.394531 80.011719 0 88.222656 71.777344 160 160 160s160-71.777344 160-160c0-28.480469-7.347656-55.792969-21.394531-80h51.394531v276c0 5.515625-4.484375 10-10 10h-135c-5.523438 0-10 4.476562-10 10s4.476562 10 10 10h135c16.542969 0 30-13.457031 30-30v-452c0-16.542969-13.457031-30-30-30h-360c-16.542969 0-30 13.457031-30 30zm210 396c-77.195312 0-140-62.804688-140-140 0-75.234375 60.511719-140 140-140 77.414062 0 140 62.714844 140 140 0 77.195312-62.804688 140-140 140zm190-396v156h-65.113281c-29.417969-36.675781-74.441407-60-124.886719-60-50.410156 0-95.449219 23.296875-124.886719 60h-65.113281v-156c0-5.515625 4.484375-10 10-10h360c5.515625 0 10 4.484375 10 10zm0 0"/></svg>