<svg height="512pt" viewBox="0 0 512.00049 512" width="512pt" xmlns="http://www.w3.org/2000/svg"><path d="m494.761719 18.046875c4.882812 5.09375 7.507812 12.058594 7.207031 19.113281-5.214844 121.78125-55.648438 236.425782-142.019531 322.789063-86.363281 86.371093-201.007813 136.804687-322.789063 142.019531-.378906.007812-.75.019531-1.121094.019531-6.746093 0-13.140624-2.5625-18.003906-7.226562-5.105468-4.882813-8.027344-11.730469-8.027344-18.796875v-439.933594c0-14.351562 11.671876-26.023438 26.023438-26.023438h439.933594c7.058594 0 13.902344 2.933594 18.796875 8.039063zm0 0" fill="#fff2fb"/><path d="m286.238281 266.222656c0 11.054688-8.960937 20.015625-20.015625 20.015625-11.054687 0-20.019531-8.960937-20.019531-20.015625 0-11.054687 8.964844-20.015625 20.019531-20.015625 11.054688 0 20.015625 8.960938 20.015625 20.015625zm0 0" fill="#76e2f8"/><path d="m229.25 178.46875c9.6875 14.523438 7.777344 33.867188-4.574219 46.207031-12.339843 12.351563-31.683593 14.261719-46.207031 4.574219l-111.964844-87.980469c-15.761718-10.511719-17.972656-32.820312-4.574218-46.210937l33.128906-33.125c13.390625-13.402344 35.699218-11.191406 46.207031 4.570312zm0 0" fill="#76e2f8"/><path d="m36.039062 511.996094c.460938 0 .917969-.011719 1.390626-.023438.054687 0 .105468-.003906.160156-.003906 124.308594-5.324219 241.304687-56.796875 329.4375-144.941406 88.140625-88.132813 139.617187-205.128906 144.941406-329.441406.878906-20.6875-15.75-37.585938-36.003906-37.585938h-439.933594c-19.867188 0-36.03125 16.164062-36.03125 36.03125v439.933594c0 19.625 15.867188 36.03125 36.039062 36.03125zm-16.023437-475.964844c0-8.832031 7.183594-16.015625 16.015625-16.015625h439.933594c8.945312 0 16.398437 7.46875 16.003906 16.71875-5.109375 119.285156-54.503906 231.558594-139.097656 316.136719-84.558594 84.570312-196.804688 133.964844-316.058594 139.09375-.261719.007812-.519531.015625-.773438.015625-9.023437 0-16.023437-7.347657-16.023437-16.015625zm0 0"/><path d="m266.222656 236.195312c-16.558594 0-30.027344 13.46875-30.027344 30.027344 0 16.554688 13.46875 30.023438 30.027344 30.023438 16.554688 0 30.023438-13.46875 30.023438-30.023438 0-16.558594-13.46875-30.027344-30.023438-30.027344zm0 40.035157c-5.519531 0-10.007812-4.488281-10.007812-10.007813 0-5.519531 4.488281-10.007812 10.007812-10.007812 5.515625 0 10.007813 4.488281 10.007813 10.007812 0 5.519532-4.492188 10.007813-10.007813 10.007813zm0 0"/><path d="m60.609375 149.363281s112.089844 88.070313 112.304687 88.214844c18.429688 12.292969 43.171876 9.851563 58.835938-5.820313 15.675781-15.660156 18.125-40.410156 5.828125-58.84375-.144531-.214843-.296875-.425781-.457031-.628906l-87.761719-111.675781c-14.117187-20.714844-43.628906-23.515625-61.378906-5.753906l-33.121094 33.125c-17.800781 17.785156-14.921875 47.292969 5.75 61.382812zm8.398437-47.226562 33.132813-33.132813c8.910156-8.914062 23.785156-7.46875 30.800781 3.054688.144532.214844.296875.425781.457032.632812l87.722656 111.632813c6.796875 10.484375 5.339844 24.421875-3.515625 33.273437-.003907.003906-.003907.003906-.007813.003906-8.851562 8.859376-22.785156 10.316407-33.273437 3.519532 0 0-112.050781-88.035156-112.265625-88.179688-10.519532-7.011718-11.976563-21.886718-3.050782-30.804687zm0 0"/><path d="m328.273438 308.257812c0 5.527344-4.480469 10.007813-10.007813 10.007813s-10.007813-4.480469-10.007813-10.007813c0-5.527343 4.480469-10.007812 10.007813-10.007812s10.007813 4.480469 10.007813 10.007812zm0 0"/><path d="m278.6875 331.019531c-55.515625 46.371094-121.894531 77.125-192.617188 89.34375v-224.199219c0-5.527343-4.480468-10.007812-10.007812-10.007812s-10.007812 4.480469-10.007812 10.007812v235.914063c0 6.085937 5.394531 10.773437 11.433593 9.90625 78.667969-11.296875 152.679688-44.359375 214.03125-95.605469 4.242188-3.542968 4.808594-9.855468 1.265625-14.09375-3.546875-4.242187-9.855468-4.808594-14.097656-1.265625zm0 0"/><path d="m196.164062 86.070312h224.199219c-11.425781 66.035157-39.183593 128.691407-80.667969 181.871094-3.402343 4.355469-2.625 10.648438 1.734376 14.046875 4.359374 3.398438 10.648437 2.621094 14.046874-1.734375 46.015626-58.984375 75.929688-129.101562 86.511719-202.765625.863281-6.027343-3.8125-11.433593-9.90625-11.433593h-235.917969c-5.527343 0-10.007812 4.480468-10.007812 10.007812s4.480469 10.007812 10.007812 10.007812zm0 0"/></svg>