<svg height="512pt" viewBox="-96 0 512 512" width="512pt" xmlns="http://www.w3.org/2000/svg"><path d="m290 10h-260c-11.050781 0-20 8.949219-20 20v422c0 11.050781 8.949219 20 20 20h260c11.050781 0 20-8.949219 20-20 0-.875 0-407.304688 0-422 0-11.050781-8.949219-20-20-20zm0 0" fill="#76e2f8"/><path d="m70 70h60v93h-60zm0 0" fill="#fff2fb"/><path d="m130 163v33h-60v-33c0-16.570312 13.429688-30 30-30s30 13.429688 30 30zm0 0" fill="#866d67"/><path d="m60 70v126c0 5.523438 4.476562 10 10 10h60c5.523438 0 10-4.476562 10-10v-126c0-5.523438-4.476562-10-10-10h-60c-5.523438 0-10 4.476562-10 10zm60 116h-40v-23c0-11.027344 8.972656-20 20-20s20 8.972656 20 20zm0-106v48.382812c-5.886719-3.417968-12.71875-5.382812-20-5.382812s-14.113281 1.964844-20 5.382812v-48.382812zm0 0"/><path d="m260 166v-66c0-5.523438-4.476562-10-10-10s-10 4.476562-10 10v66c0 5.523438 4.476562 10 10 10s10-4.476562 10-10zm0 0"/><path d="m250 392c5.523438 0 10-4.476562 10-10v-66c0-5.523438-4.476562-10-10-10s-10 4.476562-10 10v66c0 5.523438 4.476562 10 10 10zm0 0"/><path d="m170 10c0 5.523438-4.476562 10-10 10s-10-4.476562-10-10 4.476562-10 10-10 10 4.476562 10 10zm0 0"/><path d="m115 0h-85c-16.542969 0-30 13.457031-30 30v422c0 16.542969 13.457031 30 30 30v20c0 5.523438 4.476562 10 10 10s10-4.476562 10-10v-20h220v20c0 5.523438 4.476562 10 10 10s10-4.476562 10-10v-20c16.542969 0 30-13.457031 30-30v-422c0-16.542969-13.457031-30-30-30h-85c-5.523438 0-10 4.476562-10 10s4.476562 10 10 10h85c5.515625 0 10 4.484375 10 10v216h-280v-216c0-5.515625 4.484375-10 10-10h85c5.523438 0 10-4.476562 10-10s-4.476562-10-10-10zm185 266v186c0 5.515625-4.484375 10-10 10h-260c-5.515625 0-10-4.484375-10-10v-186zm0 0"/></svg>