<svg height="512pt" viewBox="0 0 512 512" width="512pt" xmlns="http://www.w3.org/2000/svg"><path d="m10 280v202c0 11.050781 8.949219 20 20 20h452c11.050781 0 20-8.949219 20-20v-202zm0 0" fill="#76e2f8"/><path d="m50 49h412v413h-412zm0 0" fill="#fff2fb"/><path d="m482 10c-16.519531 0-415.390625 0-452 0-11.050781 0-20 8.949219-20 20v250c13.570312 0 26.929688-1.128906 40-3.289062 114.578125-18.972657 206-117.730469 206-236.710938 0 118.980469 91.421875 217.738281 206 236.710938 13.070312 2.160156 26.429688 3.289062 40 3.289062v-250c0-11.050781-8.949219-20-20-20zm0 0" fill="#ff712f"/><path d="m482 0h-452c-16.542969 0-30 13.457031-30 30v452c0 16.542969 13.457031 30 30 30h181c5.523438 0 10-4.476562 10-10s-4.476562-10-10-10h-181c-5.515625 0-10-4.484375-10-10v-192.203125c6.671875-.261719 13.351562-.796875 20-1.582031v173.785156c0 5.523438 4.476562 10 10 10h412c5.523438 0 10-4.476562 10-10v-173.785156c6.648438.785156 13.328125 1.320312 20 1.582031v192.203125c0 5.515625-4.484375 10-10 10h-181c-5.523438 0-10 4.476562-10 10s4.476562 10 10 10h181c16.542969 0 30-13.457031 30-30v-452c0-16.542969-13.457031-30-30-30zm-462 30c0-5.515625 4.484375-10 10-10h126v20c0 61.394531-45.210938 108.679688-90.011719 128.3125-9.886719 4.332031-6.769531 19.160156 4.015625 19.160156 1.339844 0 2.703125-.269531 4.007813-.84375 61.003906-26.726562 101.988281-85.652344 101.988281-146.628906v-20h70v20c0 120.675781-100.644531 224.398438-226 229.78125zm40 255.03125c80.90625-16.1875 152.320312-71.46875 186-149.21875v134.1875h-20c-5.523438 0-10 4.476562-10 10s4.476562 10 10 10h20v162h-186zm206 166.96875v-162h20c5.523438 0 10-4.476562 10-10s-4.476562-10-10-10h-20v-134.1875c33.644531 77.664062 104.976562 133.007812 186 149.21875v166.96875zm-10 60c5.523438 0 10-4.476562 10-10s-4.476562-10-10-10-10 4.476562-10 10 4.476562 10 10 10zm10-472v-20h70v20c0 60.976562 40.984375 119.902344 101.988281 146.628906 5.066407 2.222656 10.960938-.097656 13.171875-5.144531 2.214844-5.058594-.089844-10.957031-5.148437-13.171875-44.800781-19.632812-90.011719-66.917969-90.011719-128.3125v-20h126c5.515625 0 10 4.484375 10 10v239.78125c-125.507812-5.386719-226-109.273438-226-229.78125zm0 0"/></svg>