<svg height="512pt" viewBox="0 0 512 512" width="512pt" xmlns="http://www.w3.org/2000/svg"><path d="m442 110c0 11.050781-8.949219 20-20 20h-332c-11.050781 0-20-8.949219-20-20 0-9.679688 0-70.257812 0-80 0-11.050781 8.949219-20 20-20h332c11.050781 0 20 8.949219 20 20zm0 0" fill="#ffc473"/><path d="m306 306v20c0 11.050781-8.949219 20-20 20h-60c-11.050781 0-20-8.949219-20-20v-20c0-11.050781 8.949219-20 20-20h60c11.050781 0 20 8.949219 20 20zm0 0" fill="#ff712f"/><path d="m286 346v136c0 11.050781-8.949219 20-20 20h-20c-11.050781 0-20-8.949219-20-20v-136zm0 0" fill="#866d67"/><path d="m502 60h-50v-30c0-16.542969-13.457031-30-30-30h-121c-5.523438 0-10 4.476562-10 10s4.476562 10 10 10h121c5.515625 0 10 4.484375 10 10v80c0 5.515625-4.484375 10-10 10h-332c-5.515625 0-10-4.484375-10-10v-80c0-5.515625 4.484375-10 10-10h121c5.523438 0 10-4.476562 10-10s-4.476562-10-10-10h-121c-16.542969 0-30 13.457031-30 30v30h-50c-5.523438 0-10 4.476562-10 10s4.476562 10 10 10h50v30c0 16.542969 13.457031 30 30 30h332c16.542969 0 30-13.457031 30-30v-30h40v100h-236c-5.523438 0-10 4.476562-10 10v86h-20c-16.542969 0-30 13.457031-30 30v20c0 13.035156 8.359375 24.152344 20 28.28125v127.71875c0 16.542969 13.457031 30 30 30h20c16.542969 0 30-13.457031 30-30v-127.71875c11.640625-4.128906 20-15.246094 20-28.28125v-20c0-16.542969-13.457031-30-30-30h-20v-76h236c5.523438 0 10-4.476562 10-10v-120c0-5.523438-4.476562-10-10-10zm-236 432h-20c-5.515625 0-10-4.484375-10-10v-126h40v126c0 5.515625-4.484375 10-10 10zm30-186v20c0 5.515625-4.484375 10-10 10h-60c-5.515625 0-10-4.484375-10-10v-20c0-5.515625 4.484375-10 10-10h60c5.515625 0 10 4.484375 10 10zm0 0"/><path d="m266 10c0 5.523438-4.476562 10-10 10s-10-4.476562-10-10 4.476562-10 10-10 10 4.476562 10 10zm0 0"/></svg>