<svg height="512pt" viewBox="0 0 512 512" width="512pt" xmlns="http://www.w3.org/2000/svg"><path d="m322 30v452c0 11.050781-8.949219 20-20 20h-272c-11.050781 0-20-8.949219-20-20v-452c0-11.050781 8.949219-20 20-20h272c11.050781 0 20 8.949219 20 20zm0 0" fill="#76e2f8"/><path d="m502 246v40c0 16.570312-13.429688 30-30 30-7.257812 0-52.691406 0-60 0-16.574219 0-30-13.429688-30-30v-40c0-11.050781 8.949219-20 20-20h80c11.050781 0 20 8.949219 20 20zm0 0" fill="#76e2f8"/><path d="m166 76c49.710938 0 90 40.289062 90 90s-40.289062 90-90 90-90-40.289062-90-90 40.289062-90 90-90zm0 0" fill="#fff2fb"/><path d="m166 256c49.710938 0 90 40.289062 90 90s-40.289062 90-90 90-90-40.289062-90-90 40.289062-90 90-90zm0 0" fill="#fff2fb"/><path d="m206 166c0 5.523438-4.476562 10-10 10s-10-4.476562-10-10 4.476562-10 10-10 10 4.476562 10 10zm0 0"/><path d="m206 346c0 5.523438-4.476562 10-10 10s-10-4.476562-10-10 4.476562-10 10-10 10 4.476562 10 10zm0 0"/><path d="m146 166c0 5.523438-4.476562 10-10 10s-10-4.476562-10-10 4.476562-10 10-10 10 4.476562 10 10zm0 0"/><path d="m146 346c0 5.523438-4.476562 10-10 10s-10-4.476562-10-10 4.476562-10 10-10 10 4.476562 10 10zm0 0"/><path d="m66 346c0 55.140625 44.859375 100 100 100s100-44.859375 100-100c0-39.535156-23.0625-73.78125-56.433594-90 33.371094-16.21875 56.433594-50.464844 56.433594-90 0-55.140625-44.859375-100-100-100s-100 44.859375-100 100c0 39.535156 23.0625 73.78125 56.433594 90-33.371094 16.21875-56.433594 50.464844-56.433594 90zm20-180c0-44.113281 35.886719-80 80-80s80 35.886719 80 80-35.886719 80-80 80-80-35.886719-80-80zm80 100c44.113281 0 80 35.886719 80 80s-35.886719 80-80 80-80-35.886719-80-80 35.886719-80 80-80zm0 0"/><path d="m482 216v-50c0-5.523438-4.476562-10-10-10s-10 4.476562-10 10v50h-40v-50c0-5.523438-4.476562-10-10-10s-10 4.476562-10 10v50c-16.542969 0-30 13.457031-30 30v40c0 22.027344 17.816406 40 40 40h20v116c0 27.570312-22.429688 50-50 50h-51.71875c1.109375-3.128906 1.71875-6.492188 1.71875-10v-452c0-16.542969-13.457031-30-30-30h-272c-16.542969 0-30 13.457031-30 30v452c0 16.542969 13.457031 30 30 30h91c5.523438 0 10-4.476562 10-10s-4.476562-10-10-10h-91c-5.515625 0-10-4.484375-10-10v-452c0-5.515625 4.484375-10 10-10h272c5.515625 0 10 4.484375 10 10v452c0 5.515625-4.484375 10-10 10h-91c-5.523438 0-10 4.476562-10 10s4.476562 10 10 10h171c38.597656 0 70-31.402344 70-70v-116h20c22.054688 0 40-17.945312 40-40v-40c0-16.542969-13.457031-30-30-30zm10 70c0 11.027344-8.972656 20-20 20h-60c-11.023438 0-20-8.917969-20-20v-40c0-5.515625 4.484375-10 10-10h80c5.515625 0 10 4.484375 10 10zm0 0"/><path d="m176 502c0 5.523438-4.476562 10-10 10s-10-4.476562-10-10 4.476562-10 10-10 10 4.476562 10 10zm0 0"/></svg>