<svg height="512pt" viewBox="0 0 512 512" width="512pt" xmlns="http://www.w3.org/2000/svg"><path d="m452.269531 322h-412.269531v30c0 49.710938 40.289062 90 90 90h217.128906c38.742188 0 73.132813-24.789062 85.382813-61.539062l19.867187-58.460938zm0 0" fill="#fff2fb"/><path d="m502 10v342c0-16.570312-13.429688-30-30-30-9.808594 0-18.519531 4.710938-24 11.988281 0 .011719 0 .023438-.011719.023438-3.757812 5.007812-5.988281 11.238281-5.988281 17.976562-.011719-16.566406-13.429688-29.988281-30-29.988281s-30 13.429688-30 30c0-16.570312-13.429688-30-30-30s-30 13.429688-30 30c0-16.570312-13.429688-30-30-30s-30 13.429688-30 30c0-14.9375 0-324.929688 0-342 0 16.570312 13.429688 30 30 30s30-13.429688 30-30c0 16.570312 13.429688 30 30 30s30-13.429688 30-30c0 16.570312 13.429688 30 30 30s30-13.429688 30-30c0 16.570312 13.429688 30 30 30s30-13.429688 30-30zm0 0" fill="#76e2f8"/><path d="m160 100v30h-60v-30c0-16.570312 13.429688-30 30-30s30 13.429688 30 30zm0 0" fill="#fff2fb"/><path d="m322 90c-5.523438 0-10 4.476562-10 10v162c0 5.523438 4.476562 10 10 10s10-4.476562 10-10v-162c0-5.523438-4.476562-10-10-10zm0 0"/><path d="m382 90c-5.523438 0-10 4.476562-10 10v162c0 5.523438 4.476562 10 10 10s10-4.476562 10-10v-162c0-5.523438-4.476562-10-10-10zm0 0"/><path d="m442 90c-5.523438 0-10 4.476562-10 10v162c0 5.523438 4.476562 10 10 10s10-4.476562 10-10v-162c0-5.523438-4.476562-10-10-10zm0 0"/><path d="m256 442c0 5.523438-4.476562 10-10 10s-10-4.476562-10-10 4.476562-10 10-10 10 4.476562 10 10zm0 0"/><path d="m502 0c-5.523438 0-10 4.476562-10 10 0 11.027344-8.972656 20-20 20s-20-8.972656-20-20c0-5.523438-4.476562-10-10-10s-10 4.476562-10 10c0 11.027344-8.972656 20-20 20s-20-8.972656-20-20c0-5.523438-4.476562-10-10-10s-10 4.476562-10 10c0 11.027344-8.972656 20-20 20s-20-8.972656-20-20c0-5.523438-4.476562-10-10-10s-10 4.476562-10 10c0 11.027344-8.972656 20-20 20s-20-8.972656-20-20c0-5.523438-4.476562-10-10-10s-10 4.476562-10 10v302h-202v-292h70v41.265625c-17.234375 4.453125-30 20.128906-30 38.734375v30c0 5.523438 4.476562 10 10 10h60c5.523438 0 10-4.476562 10-10v-30c0-18.605469-12.765625-34.28125-30-38.734375v-51.265625c0-5.523438-4.476562-10-10-10h-90c-5.523438 0-10 4.476562-10 10v302h-20c-5.523438 0-10 4.476562-10 10s4.476562 10 10 10h20v20c0 49.84375 36.65625 91.285156 84.425781 98.785156l-20.605469 41.214844h-23.820312c-5.523438 0-10 4.476562-10 10s4.476562 10 10 10h30c3.789062 0 7.25-2.140625 8.945312-5.527344l27.234376-54.472656h64.820312c5.523438 0 10-4.476562 10-10s-4.476562-10-10-10h-71c-44.113281 0-80-35.886719-80-80v-20h202v20c0 5.523438 4.476562 10 10 10s10-4.476562 10-10c0-11.027344 8.972656-20 20-20s20 8.972656 20 20c0 5.523438 4.476562 10 10 10s10-4.476562 10-10c0-11.027344 8.972656-20 20-20s20 8.972656 20 20c0 5.523438 4.476562 10 10 10s10-4.476562 10-10c0-11.027344 8.972656-20 20-20 10.53125 0 19.191406 8.1875 19.945312 18.535156l-8.921874 26.761719c-10.90625 32.71875-41.40625 54.703125-75.894532 54.703125h-56.128906c-5.523438 0-10 4.476562-10 10s4.476562 10 10 10h54.820312l27.234376 54.472656c1.695312 3.386719 5.15625 5.527344 8.945312 5.527344h30c5.523438 0 10-4.476562 10-10s-4.476562-10-10-10h-23.820312l-21.007813-42.019531c34.535156-7.03125 63.351563-31.941407 74.824219-66.359375 3.214844-9.640625 11.464844-34.402344 14.914062-44.75 3.8125-4.382813 9.234375-6.871094 15.089844-6.871094 11.027344 0 20 8.972656 20 20 0 5.523438 4.476562 10 10 10s10-4.476562 10-10v-342c0-5.523438-4.476562-10-10-10zm-352 100v20h-40v-20c0-11.027344 8.972656-20 20-20s20 8.972656 20 20zm342 217.367188c-5.886719-3.414063-12.71875-5.367188-20-5.367188-11.640625 0-22.417969 4.902344-30.019531 13.554688-7.335938-8.308594-18.058594-13.554688-29.980469-13.554688-11.933594 0-22.664062 5.253906-30 13.570312-7.335938-8.316406-18.066406-13.570312-30-13.570312s-22.664062 5.253906-30 13.570312c-7.335938-8.316406-18.066406-13.570312-30-13.570312-7.28125 0-14.113281 1.953125-20 5.367188v-272.734376c5.886719 3.414063 12.71875 5.367188 20 5.367188 11.933594 0 22.664062-5.253906 30-13.570312 7.335938 8.316406 18.066406 13.570312 30 13.570312s22.664062-5.253906 30-13.570312c7.335938 8.316406 18.066406 13.570312 30 13.570312s22.664062-5.253906 30-13.570312c7.335938 8.316406 18.066406 13.570312 30 13.570312 7.28125 0 14.113281-1.953125 20-5.367188zm0 0"/></svg>