<svg height="512pt" viewBox="-96 0 512 512" width="512pt" xmlns="http://www.w3.org/2000/svg"><g fill="#ffc473"><path d="m310 220c0 16.570312-13.429688 30-30 30s-30-13.429688-30-30 13.429688-30 30-30 30 13.429688 30 30zm0 0"/><path d="m280 70c0 16.570312-13.429688 30-30 30s-30-13.429688-30-30 13.429688-30 30-30 30 13.429688 30 30zm0 0"/><path d="m100 40c0 16.570312-13.429688 30-30 30s-30-13.429688-30-30 13.429688-30 30-30 30 13.429688 30 30zm0 0"/><path d="m70 190c0 16.570312-13.429688 30-30 30s-30-13.429688-30-30 13.429688-30 30-30 30 13.429688 30 30zm0 0"/></g><path d="m110 40c0-22.054688-17.945312-40-40-40s-40 17.945312-40 40c0 18.8125 13.058594 34.621094 30.582031 38.871094 4.375 34.421875 33.824219 61.128906 69.417969 61.128906h20v45c0 5.523438 4.476562 10 10 10s10-4.476562 10-10v-15h20c35.59375 0 65.042969-26.707031 69.417969-61.128906 17.523437-4.25 30.582031-20.058594 30.582031-38.871094 0-22.054688-17.945312-40-40-40s-40 17.945312-40 40c0 18.335938 12.40625 33.816406 29.257812 38.523438-4.058593 23.523437-24.59375 41.476562-49.257812 41.476562h-20v-140c0-5.523438-4.476562-10-10-10s-10 4.476562-10 10v110h-20c-24.664062 0-45.199219-17.953125-49.257812-41.476562 16.855468-4.707032 29.257812-20.1875 29.257812-38.523438zm120 30c0-11.027344 8.972656-20 20-20s20 8.972656 20 20-8.972656 20-20 20-20-8.972656-20-20zm-160-10c-11.027344 0-20-8.972656-20-20s8.972656-20 20-20 20 8.972656 20 20-8.972656 20-20 20zm0 0"/><path d="m0 190c0 18.746094 12.964844 34.511719 30.394531 38.824219 4.484375 51.023437 47.441407 91.175781 99.605469 91.175781h20v142h-50c-22.054688 0-40 17.945312-40 40 0 5.523438 4.476562 10 10 10s10-4.476562 10-10c0-11.027344 8.972656-20 20-20h50v20c0 5.523438 4.476562 10 10 10s10-4.476562 10-10v-20h50c11.027344 0 20 8.972656 20 20 0 5.523438 4.476562 10 10 10s10-4.476562 10-10c0-22.054688-17.945312-40-40-40h-50v-112h20c52.164062 0 95.121094-40.152344 99.605469-91.175781 17.429687-4.3125 30.394531-20.082031 30.394531-38.824219 0-22.054688-17.945312-40-40-40s-40 17.945312-40 40c0 18.433594 12.539062 33.984375 29.53125 38.601562-4.304688 40.082032-38.324219 71.398438-79.53125 71.398438h-20v-55c0-5.523438-4.476562-10-10-10s-10 4.476562-10 10v25h-20c-41.207031 0-75.226562-31.316406-79.53125-71.398438 16.992188-4.613281 29.53125-20.167968 29.53125-38.601562 0-22.054688-17.945312-40-40-40s-40 17.945312-40 40zm260 30c0-11.027344 8.972656-20 20-20s20 8.972656 20 20-8.972656 20-20 20-20-8.972656-20-20zm-220-50c11.027344 0 20 8.972656 20 20s-8.972656 20-20 20-20-8.972656-20-20 8.972656-20 20-20zm0 0"/><path d="m170 230c0 5.523438-4.476562 10-10 10s-10-4.476562-10-10 4.476562-10 10-10 10 4.476562 10 10zm0 0"/></svg>