<svg height="511pt" viewBox="0 0 511 511.99999" width="511pt" xmlns="http://www.w3.org/2000/svg"><path d="m436.5 136v30c0 98.773438-79.949219 180-180 180-99.011719 0-180-80.1875-180-180v-30zm0 0" fill="#ff712f"/><path d="m416.5 20c11.046875 0 20 8.949219 20 20s-8.953125 20-20 20h-70c0-13.988281 0-26.011719 0-40zm0 0" fill="#866d67"/><path d="m376.5 457c0 24.851562-20.148438 44.996094-45 44.996094-24.855469 0-45-20.144532-45-44.996094 0-24.855469 20.144531-45 45-45 24.851562 0 45 20.144531 45 45zm0 0" fill="#866d67"/><path d="m286.5 40c0 16.566406-13.433594 30-30 30-16.570312 0-30-13.433594-30-30 0-16.570312 13.429688-30 30-30 16.566406 0 30 13.429688 30 30zm0 0" fill="#ffc473"/><path d="m226.5 40c0 16.566406-13.433594 30-30 30-16.570312 0-30-13.433594-30-30 0-16.570312 13.429688-30 30-30 16.566406 0 30 13.429688 30 30zm0 0" fill="#ff712f"/><path d="m166.5 40c0 16.566406-13.433594 30-30 30-16.570312 0-30-13.433594-30-30 0-16.570312 13.429688-30 30-30 16.566406 0 30 13.429688 30 30zm0 0" fill="#ffc473"/><path d="m97.765625 30h-21.265625c-5.523438 0-10 4.476562-10 10s4.476562 10 10 10h21.265625c4.453125 17.234375 20.128906 30 38.734375 30 11.9375 0 22.664062-5.265625 30-13.585938 7.335938 8.320313 18.0625 13.585938 30 13.585938s22.664062-5.265625 30-13.585938c7.335938 8.320313 18.0625 13.585938 30 13.585938 18.601562 0 34.28125-12.765625 38.734375-30h41.265625v10c0 5.523438 4.476562 10 10 10h70c16.539062 0 30-13.457031 30-30s-13.460938-30-30-30h-70c-5.523438 0-10 4.476562-10 10v10h-41.265625c-4.453125-17.234375-20.132813-30-38.734375-30-11.9375 0-22.664062 5.265625-30 13.585938-7.335938-8.320313-18.0625-13.585938-30-13.585938s-22.664062 5.265625-30 13.585938c-7.335938-8.320313-18.0625-13.585938-30-13.585938-18.605469 0-34.28125 12.765625-38.734375 30zm258.734375 0h60c5.511719 0 10 4.484375 10 10s-4.488281 10-10 10h-60zm-100-10c11.027344 0 20 8.972656 20 20s-8.972656 20-20 20-20-8.972656-20-20 8.972656-20 20-20zm-60 0c11.027344 0 20 8.972656 20 20s-8.972656 20-20 20-20-8.972656-20-20 8.972656-20 20-20zm-60 0c11.027344 0 20 8.972656 20 20s-8.972656 20-20 20-20-8.972656-20-20 8.972656-20 20-20zm0 0"/><path d="m472.5 156h-26v-20c0-5.523438-4.480469-10-10-10h-360c-5.523438 0-10 4.476562-10 10v20h-26c-22.054688 0-40 17.941406-40 40 0 22.054688 17.945312 40 40 40h39.335938c20.386718 51.367188 63.363281 93.675781 119.992187 111.382812l-72.339844 150.277344c-2.394531 4.976563-.304687 10.953125 4.675781 13.347656 4.964844 2.390626 10.945313.3125 13.347657-4.671874l26.15625-54.347657h105.0625c-.152344 1.664063-.230469 3.332031-.230469 5.011719 0 30.324219 24.671875 54.996094 55 54.996094 30.324219 0 55-24.671875 55-54.996094 0-30.328125-24.675781-55-55-55-1.269531 0-2.539062.054688-3.800781.140625l-20.765625-52.929687c57.078125-15.726563 104.3125-57.980469 126.230468-113.210938h39.335938c22.054688 0 39.996094-17.945312 39.996094-40 0-22.058594-17.941406-40-39.996094-40zm-452 40c0-11.027344 8.972656-20 20-20h26.269531c.703125 13.585938 2.84375 26.964844 6.394531 40h-32.664062c-11.027344 0-20-8.972656-20-20zm199.113281 156.390625c12.101563 2.382813 24.46875 3.609375 36.886719 3.609375 10.277344 0 20.550781-.839844 30.640625-2.476562l21.0625 53.6875c-10.984375 5.1875-20.117187 13.949218-25.679687 24.789062h-101.230469zm146.886719 104.609375c0 19.296875-15.703125 35-35 35-19.300781 0-35-15.703125-35-35 0-18.960938 15.363281-35 35-35 19.296875 0 35 15.699219 35 35zm-110-121c-94.042969 0-170-75.855469-170-170v-20h340v20c0 94.867188-77.324219 170-170 170zm216-120h-32.664062c3.550781-13.035156 5.6875-26.417969 6.394531-40h26.269531c11.027344 0 20 8.972656 20 20s-8.972656 20-20 20zm0 0"/><path d="m266.5 306c0 5.523438-4.476562 10-10 10s-10-4.476562-10-10 4.476562-10 10-10 10 4.476562 10 10zm0 0"/><path d="m396.855469 166.023438c-5.5-.394532-10.289063 3.757812-10.683594 9.269531-3.726563 52.480469-38.4375 97.230469-88.433594 114-5.238281 1.757812-8.058593 7.425781-6.300781 12.664062 1.769531 5.269531 7.460938 8.046875 12.660156 6.296875 56.804688-19.054687 97.707032-70.714844 102.023438-131.546875.394531-5.507812-3.753906-10.292969-9.265625-10.683593zm0 0"/></svg>