<svg height="512pt" viewBox="-96 0 512 512" width="512pt" xmlns="http://www.w3.org/2000/svg"><path d="m310 226c-13.265625 0-274 0-300 0 39.121094-58.679688 60-133.640625 60-204.171875v-11.828125h180v11.828125c0 70.53125 20.878906 145.492187 60 204.171875zm0 0" fill="#ffc473"/><path d="m250 496.851562v5.148438h-180v-5.148438c0-54.332031 21.578125-106.429687 60-144.851562h60c38.421875 38.421875 60 90.519531 60 144.851562zm0 0" fill="#fff2fb"/><path d="m130 226h60v126h-60zm0 0" fill="#866d67"/><path d="m60 10v11.828125c0 70.636719-21.257812 143.03125-58.320312 198.625-2.046876 3.066406-2.238282 7.015625-.496094 10.265625 1.738281 3.25 5.128906 5.28125 8.816406 5.28125h110v106h-20c-5.523438 0-10 4.476562-10 10s4.476562 10 10 10h7.589844c-28.578125 35.390625-46.4375 80.800781-47.53125 130h-20.058594c-5.523438 0-10 4.476562-10 10s4.476562 10 10 10h75c5.523438 0 10-4.476562 10-10s-4.476562-10-10-10h-34.941406c1.1875-48.867188 20.285156-94.714844 54.15625-130h51.570312c33.871094 35.285156 52.96875 81.132812 54.15625 130h-34.941406c-5.523438 0-10 4.476562-10 10s4.476562 10 10 10h75c5.523438 0 10-4.476562 10-10s-4.476562-10-10-10h-20.058594c-1.09375-49.191406-18.953125-94.609375-47.53125-130h7.589844c5.523438 0 10-4.476562 10-10s-4.476562-10-10-10h-20v-106h70v86c0 5.523438 4.476562 10 10 10s10-4.476562 10-10v-86h20c3.6875 0 7.078125-2.03125 8.816406-5.28125 1.742188-3.25 1.550782-7.195312-.496094-10.265625-37.0625-55.59375-58.320312-127.988281-58.320312-198.625v-11.828125c0-5.523438-4.476562-10-10-10h-180c-5.523438 0-10 4.476562-10 10zm120 332h-40v-106h40zm-100-320.171875v-1.828125h160v1.828125c0 68.078125 18.78125 137.789063 51.941406 194.171875h-263.882812c33.160156-56.382812 51.941406-126.09375 51.941406-194.171875zm0 0"/><path d="m103.203125 175.433594c5.203125 1.832031 10.917969-.898438 12.75-6.117188 9.375-26.671875 17.105469-62.457031 21.210937-98.171875.632813-5.488281-3.304687-10.449219-8.792968-11.078125-5.480469-.632812-10.445313 3.304688-11.074219 8.792969-3.945313 34.300781-11.3125 68.5-20.210937 93.828125-1.832032 5.207031.910156 10.917969 6.117187 12.746094zm0 0"/><path d="m204.046875 169.3125c1.820313 5.183594 7.507813 7.960938 12.75 6.121094 5.207031-1.832032 7.949219-7.539063 6.117187-12.75-8.898437-25.328125-16.265624-59.527344-20.210937-93.828125-.628906-5.484375-5.589844-9.429688-11.074219-8.789063-5.488281.628906-9.425781 5.589844-8.792968 11.074219 4.105468 35.71875 11.839843 71.503906 21.210937 98.171875zm0 0"/><path d="m170 502c0 5.523438-4.476562 10-10 10s-10-4.476562-10-10 4.476562-10 10-10 10 4.476562 10 10zm0 0"/></svg>