<svg height="512pt" viewBox="0 0 512 512" width="512pt" xmlns="http://www.w3.org/2000/svg"><path d="m409 256v226c0 11.050781-8.949219 20-20 20h-266c-11.050781 0-20-8.949219-20-20v-226c49.710938 0 93-40.289062 93-90v-30h120v30c0 49.710938 43.289062 90 93 90zm0 0" fill="#ffc473"/><path d="m336 346v66c0 16.570312-13.429688 30-30 30h-100c-16.570312 0-30-13.429688-30-30v-66zm0 0" fill="#fff2fb"/><path d="m502 462c-11.027344 0-20-8.972656-20-20v-126c0-37.945312-33.429688-70-73-70-44.992188 0-83-36.636719-83-80 0-11.558594 0-84.394531 0-96 0-38.597656-31.402344-70-70-70s-70 31.402344-70 70v96c0 43.363281-38.007812 80-83 80-39.570312 0-73 32.054688-73 70v126c0 11.027344-8.972656 20-20 20-5.523438 0-10 4.476562-10 10s4.476562 10 10 10c22.054688 0 40-17.945312 40-40v-126c0-23.429688 19.167969-44.324219 43-49.011719v215.011719c0 16.542969 13.457031 30 30 30h88c5.523438 0 10-4.476562 10-10s-4.476562-10-10-10h-88c-5.515625 0-10-4.484375-10-10v-216.503906c50.296875-5.054688 93-46.914063 93-99.496094v-20h100v20c0 52.59375 42.710938 94.441406 93 99.496094v216.503906c0 5.515625-4.484375 10-10 10h-88c-5.523438 0-10 4.476562-10 10s4.476562 10 10 10h88c16.542969 0 30-13.457031 30-30v-215.011719c23.832031 4.6875 43 25.578125 43 49.011719v126c0 22.054688 17.945312 40 40 40 5.523438 0 10-4.476562 10-10s-4.476562-10-10-10zm-296-336v-56c0-27.570312 22.429688-50 50-50s50 22.429688 50 50v56zm0 0"/><path d="m346 412v-66c0-5.523438-4.476562-10-10-10h-160c-5.523438 0-10 4.476562-10 10v66c0 22.054688 17.945312 40 40 40h100c22.054688 0 40-17.945312 40-40zm-160 0v-56h140v56c0 11.027344-8.972656 20-20 20h-100c-11.027344 0-20-8.972656-20-20zm0 0"/><path d="m266 502c0 5.523438-4.476562 10-10 10s-10-4.476562-10-10 4.476562-10 10-10 10 4.476562 10 10zm0 0"/></svg>