<svg height="512pt" viewBox="-66 0 512 512" width="512pt" xmlns="http://www.w3.org/2000/svg"><path d="m370 250c-16.679688 0-316.097656 0-330 0-16.570312 0-30-13.429688-30-30v-90c0-33.140625 26.859375-60 60-60h120c99.410156 0 180 80.589844 180 180zm-180-60h103.898438c-20.777344-35.839844-59.570313-60-103.898438-60zm0 0" fill="#ff712f"/><path d="m130 30v40h-60v-40c0-11.050781 8.949219-20 20-20h20c11.050781 0 20 8.949219 20 20zm0 0" fill="#866d67"/><path d="m302.566406 194.992188c1.785156-3.097657 1.777344-6.914063-.015625-10.007813-23.238281-40.085937-66.367187-64.984375-112.550781-64.984375-5.523438 0-10 4.476562-10 10v60c0 5.523438 4.476562 10 10 10h103.898438c3.578124 0 6.882812-1.910156 8.667968-5.007812zm-102.566406-14.992188v-39.539062c29.164062 2.695312 56.152344 17.0625 74.78125 39.539062zm0 0"/><path d="m200 250c0 5.523438-4.476562 10-10 10s-10-4.476562-10-10 4.476562-10 10-10 10 4.476562 10 10zm0 0"/><path d="m235 260h135c5.523438 0 10-4.476562 10-10 0-101.410156-79.863281-184.519531-180-189.738281v-50.261719c0-5.523438-4.476562-10-10-10s-10 4.476562-10 10v50h-40v-30c0-16.542969-13.457031-30-30-30h-20c-16.542969 0-30 13.457031-30 30v30.726562c-33.878906 4.867188-60 34.070313-60 69.273438v90c0 22.054688 17.945312 40 40 40h20v76h-20c-22.054688 0-40 17.945312-40 40v66c0 22.054688 17.945312 40 40 40h20v20c0 5.523438 4.476562 10 10 10s10-4.476562 10-10v-20h20c22.054688 0 40-17.945312 40-40v-66c0-22.054688-17.945312-40-40-40h-20v-76h65c5.523438 0 10-4.476562 10-10s-4.476562-10-10-10h-105c-11.027344 0-20-8.972656-20-20v-90c0-27.570312 22.429688-50 50-50h120c90.378906 0 164.515625 70.898438 169.710938 160h-124.710938c-5.523438 0-10 4.476562-10 10s4.476562 10 10 10zm-195 202c-11.027344 0-20-8.972656-20-20v-66c0-11.027344 8.972656-20 20-20h20v106zm60-106c11.027344 0 20 8.972656 20 20v66c0 11.027344-8.972656 20-20 20h-20v-106zm-10-336h20c5.515625 0 10 4.484375 10 10v30h-40v-30c0-5.515625 4.484375-10 10-10zm0 0"/></svg>