<svg height="511pt" viewBox="1 1 511.99913 511" width="511pt" xmlns="http://www.w3.org/2000/svg"><path d="m493.203125 451.28125c11.71875 11.710938 11.71875 30.710938 0 42.417969-11.710937 11.722656-30.710937 11.722656-42.421875 0l-74.707031-74.707031 42.417969-42.417969zm0 0" fill="#866d67"/><path d="m467.992188 44.246094c-35.148438-35.148438-101.625-25.648438-148.484376 21.210937-46.796874 46.789063-56.328124 113.125-21.390624 148.3125.03125.03125.0625.050781.089843.082031.019531.027344.050781.058594.082031.089844.058594.058594.109376.109375.167969.160156 35.191407 34.957032 101.527344 25.417969 148.324219-21.371093 46.859375-46.855469 56.359375-113.34375 21.210938-148.484375zm0 0" fill="#fff2fb"/><path d="m418.492188 334.148438c-.308594-.3125-239.742188-239.757813-240.398438-240.414063-11.722656-11.707031-30.710938-11.707031-42.429688 0l-42.429687 42.429687c-11.707031 11.71875-11.707031 30.707032 0 42.429688l98.96875 98.964844-156.1875 135.164062c-17.515625 14.851563-23.738281 45.46875-2.738281 66.46875 20.980468 20.988282 51.519531 14.890625 66.476562-2.761718l134.925782-156.394532 98.96875 98.957032c11.71875 11.722656 30.707031 11.722656 42.425781 0l42.417969-42.417969c11.722656-11.71875 11.722656-30.707031 0-42.425781zm0 0" fill="#ffc473"/><path d="m135.664062 93.734375-42.429687 42.429687-74.4375-74.449218c-11.71875-11.707032-11.71875-30.707032 0-42.417969 11.710937-11.71875 30.710937-11.71875 42.417969 0zm0 0" fill="#866d67"/><path d="m431.742188 375.679688c9.035156-15.332032 6.976562-35.449219-6.175782-48.601563l-82.382812-82.390625c40.765625 3.945312 81.816406-16.035156 110.671875-44.886719 47.25-47.253906 63.109375-120.734375 21.207031-162.625 0 0 0-.003906-.003906-.003906 0 0 0 0 0-.003906-43.359375-43.34375-117.410156-23.996094-162.621094 21.214843-29.515625 29.511719-48.761719 70.753907-44.902344 110.660157l-82.375-82.378907c-13.15625-13.144531-33.265625-15.203124-48.597656-6.171874l-68.273438-68.261719c-15.617187-15.632813-40.929687-15.648438-56.558593-.007813-15.632813 15.625-15.644531 40.9375-.003907 56.5625l68.265626 68.273438c-9.03125 15.335937-6.972657 35.449218 6.171874 48.605468l91.410157 91.40625-148.023438 128.027344c-23.097656 19.578125-27.546875 56.960938-3.347656 81.164063 24.050781 24.058593 61.375 20 81.125-3.300781l127.851563-148.289063 91.394531 91.390625c13.207031 13.203125 33.328125 15.183594 48.605469 6.175781l68.527343 68.53125c15.621094 15.628907 40.933594 15.644531 56.5625.003907 15.636719-15.621094 15.644531-40.933594.003907-56.5625zm28.863281-324.046876c.652343 21.738282-45.058594 73.335938-63.320313 91.597657-22.144531 22.148437-71.535156 63.957031-91.601562 63.320312-.65625-21.738281 44.933594-73.214843 63.3125-91.59375 18.515625-18.515625 70.414062-64.082031 91.609375-63.324219zm-20.890625 134.027344c-34.117188 34.109375-79.300782 47.109375-112.035156 35.261719 28.273437-12.628906 61.824218-41.625 83.746093-63.546875 21.917969-21.917969 50.886719-55.433594 63.542969-83.71875 13.113281 36.363281-4.972656 81.722656-35.253906 112.003906zm-113.136719-113.132812c34.140625-34.140625 79.296875-47.132813 112.03125-35.273438-28.292969 12.644532-61.820313 41.621094-83.753906 63.558594-21.921875 21.921875-50.90625 55.457031-63.546875 83.746094-11.847656-32.742188 1.15625-77.925782 35.269531-112.03125zm-300.707031-46.160156c7.792968-7.800782 20.441406-7.835938 28.273437 0l67.375 67.367187-28.28125 28.289063-67.371093-67.382813c-7.796876-7.789063-7.839844-20.4375.003906-28.273437zm66.257812 443.601562c-12.316406 14.527344-36.070312 17.871094-51.78125 2.152344-15.628906-15.628906-12.402344-39.449219 2.210938-51.832032l149.195312-129.039062 29.25 29.242188zm248.589844-58.046875-240.410156-240.398437c-7.792969-7.800782-7.792969-20.492188 0-28.289063l42.425781-42.425781c7.792969-7.789063 20.484375-7.796875 28.289063-.003906.351562.355468 239.824218 239.839843 240.398437 240.414062 7.800781 7.796875 7.800781 20.484375 0 28.285156l-42.417969 42.417969c-7.796875 7.796875-20.488281 7.796875-28.285156 0zm145.410156 74.710937c-7.8125 7.816407-20.457031 7.820313-28.273437-.003906l-67.636719-67.636718 28.273438-28.273438 67.640624 67.636719c7.796876 7.792969 7.839844 20.4375-.003906 28.277343zm0 0"/><path d="m251.726562 270.507812c0 5.523438-4.476562 10-10 10-5.523437 0-10-4.476562-10-10 0-5.523437 4.476563-10 10-10 5.523438 0 10 4.476563 10 10zm0 0"/><path d="m142.734375 157.371094c-3.90625-3.902344-10.234375-3.902344-14.140625 0-3.90625 3.90625-3.90625 10.238281 0 14.144531l74.242188 74.242187c3.910156 3.90625 10.238281 3.90625 14.144531 0 3.90625-3.902343 3.90625-10.234374 0-14.140624zm0 0"/></svg>