<svg height="512pt" viewBox="0 -26 512.001 512" width="512pt" xmlns="http://www.w3.org/2000/svg"><path d="m442 350v100h-45l-15-100zm0 0" fill="#866d67"/><path d="m482 10c-16.09375 0-431.285156 0-452 0-11.050781 0-20 8.949219-20 20v300c0 11.050781 8.949219 20 20 20h452c11.050781 0 20-8.949219 20-20v-300c0-11.050781-8.949219-20-20-20zm0 0" fill="#ffc473"/><path d="m133 350-15 100h-45v-100zm0 0" fill="#866d67"/><path d="m123 100c0 5.523438 4.476562 10 10 10h60c5.523438 0 10-4.476562 10-10s-4.476562-10-10-10h-60c-5.523438 0-10 4.476562-10 10zm0 0"/><path d="m133 270h60c5.523438 0 10-4.476562 10-10s-4.476562-10-10-10h-60c-5.523438 0-10 4.476562-10 10s4.476562 10 10 10zm0 0"/><path d="m173 10c0 5.523438-4.476562 10-10 10s-10-4.476562-10-10 4.476562-10 10-10 10 4.476562 10 10zm0 0"/><path d="m482 0h-274c-5.523438 0-10 4.476562-10 10s4.476562 10 10 10h98v150h-286v-140c0-5.511719 4.484375-10 10-10h88c5.523438 0 10-4.476562 10-10s-4.476562-10-10-10h-88c-16.542969 0-30 13.457031-30 30v300c0 16.542969 13.457031 30 30 30h33v90c0 5.523438 4.476562 10 10 10h45c4.949219 0 9.15625-3.621094 9.890625-8.515625l13.722656-91.484375h231.773438l13.722656 91.484375c.734375 4.894531 4.941406 8.515625 9.890625 8.515625h45c5.523438 0 10-4.476562 10-10v-90h30c16.542969 0 30-13.457031 30-30v-300c0-16.542969-13.457031-30-30-30zm-462 330v-140h286v150h-276c-5.515625 0-10-4.484375-10-10zm89.386719 110h-26.386719v-80h38.386719zm322.613281 0h-26.386719l-12-80h38.386719zm60-110c0 5.515625-4.484375 10-10 10h-156v-320h156c5.515625 0 10 4.488281 10 10zm0 0"/></svg>