<svg height="512pt" viewBox="-36 0 512 512" width="512pt" xmlns="http://www.w3.org/2000/svg"><path d="m430 346v96h-420v-96zm0 0" fill="#866d67"/><path d="m250 100c0 16.570312-13.429688 30-30 30s-30-13.429688-30-30 13.429688-30 30-30 30 13.429688 30 30zm0 0" fill="#ffc473"/><path d="m220 0c-121.074219 0-220 98.101562-220 220v282c0 5.523438 4.476562 10 10 10s10-4.476562 10-10v-50h155c5.523438 0 10-4.476562 10-10s-4.476562-10-10-10h-155v-76h400v76h-155c-5.523438 0-10 4.476562-10 10s4.476562 10 10 10h155v50c0 5.523438 4.476562 10 10 10s10-4.476562 10-10v-282c0-122.234375-99.261719-220-220-220zm0 80c11.027344 0 20 8.972656 20 20s-8.972656 20-20 20-20-8.972656-20-20 8.972656-20 20-20zm-10-59.742188v41.007813c-17.234375 4.453125-30 20.128906-30 38.734375 0 22.054688 17.945312 40 40 40s40-17.945312 40-40c0-18.605469-12.765625-34.28125-30-38.734375v-41.007813c90.722656 4.578126 167.929688 71 185.980469 159.742188h-391.960938c18.050781-88.742188 95.257813-155.164062 185.980469-159.742188zm-90 179.742188v136h-40v-136zm20 0h40v136h-40zm60 0h40v136h-40zm60 0h40v136h-40zm60 0h40v136h-40zm-300 20c0-6.660156.339844-13.355469 1-20h39v136h-40zm360 116v-136h39c.660156 6.644531 1 13.339844 1 20v116zm0 0"/><path d="m230 442c0 5.523438-4.476562 10-10 10s-10-4.476562-10-10 4.476562-10 10-10 10 4.476562 10 10zm0 0"/></svg>