<svg height="512pt" viewBox="0 -76 512 512" width="512pt" xmlns="http://www.w3.org/2000/svg"><path d="m420 30v20h-110v-20c0-11.050781 8.949219-20 20-20h70c11.050781 0 20 8.949219 20 20zm0 0" fill="#866d67"/><path d="m406 290v60h-396c0-20.550781 2.070312-40.609375 6.011719-60zm0 0" fill="#866d67"/><path d="m502 70v140c0 11.050781-8.949219 20-20 20h-16c-33.140625 0-60 26.859375-60 60h-389.988281c27.789062-136.929688 148.859375-240 293.988281-240h172c11.050781 0 20 8.949219 20 20zm-66 70c0-16.570312-13.429688-30-30-30h-120c-16.570312 0-30 13.429688-30 30s13.429688 30 30 30h120c16.570312 0 30-13.429688 30-30zm0 0" fill="#76e2f8"/><path d="m406 100h-120c-22.054688 0-40 17.945312-40 40s17.945312 40 40 40h120c22.054688 0 40-17.945312 40-40s-17.945312-40-40-40zm0 60h-120c-11.027344 0-20-8.972656-20-20s8.972656-20 20-20h120c11.027344 0 20 8.972656 20 20s-8.972656 20-20 20zm0 0"/><path d="m136 190c-5.523438 0-10 4.476562-10 10v30c0 5.523438 4.476562 10 10 10s10-4.476562 10-10v-30c0-5.523438-4.476562-10-10-10zm0 0"/><path d="m196 190c-5.523438 0-10 4.476562-10 10v30c0 5.523438 4.476562 10 10 10s10-4.476562 10-10v-30c0-5.523438-4.476562-10-10-10zm0 0"/><path d="m220 350c0 5.523438-4.476562 10-10 10s-10-4.476562-10-10 4.476562-10 10-10 10 4.476562 10 10zm0 0"/><path d="m482 40h-52v-10c0-16.542969-13.457031-30-30-30h-70c-16.542969 0-30 13.457031-30 30v10.175781c-166.898438 5.277344-300 142.347657-300 309.824219 0 5.523438 4.476562 10 10 10h155c5.523438 0 10-4.476562 10-10s-4.476562-10-10-10h-144.828125c.457031-13.4375 1.855469-26.828125 4.144531-40h371.683594v40h-141c-5.523438 0-10 4.476562-10 10s4.476562 10 10 10h151c5.523438 0 10-4.476562 10-10v-60c0-27.570312 22.429688-50 50-50h16c16.542969 0 30-13.457031 30-30v-140c0-16.542969-13.457031-30-30-30zm-152-20h70c5.515625 0 10 4.484375 10 10v10h-90v-10c0-5.515625 4.484375-10 10-10zm162 190c0 5.515625-4.484375 10-10 10h-16c-35.203125 0-64.40625 26.125-69.273438 60h-368.210937c31.765625-128.195312 148.214844-220 281.484375-220h172c5.515625 0 10 4.484375 10 10zm0 0"/></svg>