<svg height="512pt" viewBox="-36 0 512 512" width="512pt" xmlns="http://www.w3.org/2000/svg"><path d="m410 100c-38.851562 0-171.699219 0-233.429688 0-10.609374 0-20.78125-4.210938-28.289062-11.71875l-6.5625-6.5625c-7.507812-7.507812-17.679688-11.71875-28.289062-11.71875h-83.429688c-11.050781 0-20 8.949219-20 20v110c0 11.050781 8.949219 20 20 20h83.429688c10.609374 0 20.78125-4.210938 28.289062-11.71875l6.5625-6.5625c7.507812-7.507812 17.679688-11.71875 28.289062-11.71875h53.429688c11.050781 0 20 8.949219 20 20v202c-20.496094 0-234.472656 0-240 0v70c0 11.050781 8.949219 20 20 20h380c11.050781 0 20-8.949219 20-20v-362c0-11.050781-8.949219-20-20-20zm0 0" fill="#76e2f8"/><path d="m190 412-90 90-90-90zm0 0" fill="#ff712f"/><path d="m280 40v60h-60v-60zm0 0" fill="#ffc473"/><path d="m400 40v60h-60v-60zm0 0" fill="#ff712f"/><path d="m370 196c0 16.570312-13.429688 30-30 30s-30-13.429688-30-30 13.429688-30 30-30 30 13.429688 30 30zm0 0" fill="#fff2fb"/><path d="m40 220h60v60h-60zm0 0" fill="#866d67"/><path d="m340 236c22.054688 0 40-17.945312 40-40s-17.945312-40-40-40-40 17.945312-40 40 17.945312 40 40 40zm0-60c11.027344 0 20 8.972656 20 20s-8.972656 20-20 20-20-8.972656-20-20 8.972656-20 20-20zm0 0"/><path d="m310 296h60c5.523438 0 10-4.476562 10-10s-4.476562-10-10-10h-60c-5.523438 0-10 4.476562-10 10s4.476562 10 10 10zm0 0"/><path d="m310 356h60c5.523438 0 10-4.476562 10-10s-4.476562-10-10-10h-60c-5.523438 0-10 4.476562-10 10s4.476562 10 10 10zm0 0"/><path d="m310 416h60c5.523438 0 10-4.476562 10-10s-4.476562-10-10-10h-60c-5.523438 0-10 4.476562-10 10s4.476562 10 10 10zm0 0"/><path d="m260 502c0 5.523438-4.476562 10-10 10s-10-4.476562-10-10 4.476562-10 10-10 10 4.476562 10 10zm0 0"/><path d="m410 90v-50c0-5.523438-4.476562-10-10-10h-20v-20c0-5.523438-4.476562-10-10-10s-10 4.476562-10 10v20h-20c-5.523438 0-10 4.476562-10 10v50h-40v-50c0-5.523438-4.476562-10-10-10h-20v-20c0-5.523438-4.476562-10-10-10s-10 4.476562-10 10v20h-20c-5.523438 0-10 4.476562-10 10v50h-33.429688c-8.015624 0-15.550781-3.121094-21.21875-8.789062l-6.5625-6.5625c-9.445312-9.445313-22.003906-14.648438-35.359374-14.648438h-83.429688c-16.542969 0-30 13.457031-30 30v110c0 16.542969 13.457031 30 30 30v80c0 5.523438 4.476562 10 10 10s10-4.476562 10-10v-20h50c5.523438 0 10-4.476562 10-10v-50h3.429688c13.355468 0 25.914062-5.203125 35.363281-14.648438l6.558593-6.5625c5.667969-5.667968 13.203126-8.789062 21.21875-8.789062h53.429688c5.515625 0 10 4.484375 10 10v192h-230c-5.414062 0-9.9726562 4.402344-9.99609375 9.957031 0 .015625-.00390625.027344-.00390625.042969v70c0 16.542969 13.457031 30 30 30h175c5.523438 0 10-4.476562 10-10s-4.476562-10-10-10h-80.855469l70-70h55.855469c5.523438 0 10-4.476562 10-10v-202c0-16.542969-13.457031-30-30-30h-53.429688c-13.355468 0-25.914062 5.203125-35.363281 14.648438l-6.558593 6.5625c-5.667969 5.667968-13.203126 8.789062-21.21875 8.789062h-83.429688c-5.515625 0-10-4.484375-10-10v-110c0-5.515625 4.484375-10 10-10h83.429688c8.015624 0 15.550781 3.121094 21.21875 8.789062l6.5625 6.5625c9.445312 9.445313 22.003906 14.648438 35.359374 14.648438h233.429688c5.515625 0 10 4.484375 10 10v362c0 5.515625-4.484375 10-10 10h-115c-5.523438 0-10 4.476562-10 10s4.476562 10 10 10h115c16.542969 0 30-13.457031 30-30v-362c0-16.542969-13.457031-30-30-30zm-380 402c-5.515625 0-10-4.484375-10-10v-45.855469l55.855469 55.855469zm70-4.144531-65.855469-65.855469h131.714844zm-10-217.855469h-40v-40h40zm260-220h40v40h-40zm-120 0h40v40h-40zm0 0"/></svg>