<svg height="512pt" viewBox="0 0 512 512" width="512pt" xmlns="http://www.w3.org/2000/svg"><path d="m130 166h-90c-16.570312 0-30 13.429688-30 30v150c0 16.570312 13.429688 30 30 30h240c16.570312 0 30-13.429688 30-30 0-99.417969-80.601562-180-180-180zm0 0" fill="#ff712f"/><path d="m130 316c33.140625 0 60 26.859375 60 60s-26.859375 60-60 60-60-26.859375-60-60 26.859375-60 60-60zm0 0" fill="#866d67"/><path d="m442 402v40h-60v-40c0-11.050781 8.949219-20 20-20h20c11.050781 0 20 8.949219 20 20zm0 0" fill="#866d67"/><path d="m502 472v30h-180v-30c0-16.570312 13.429688-30 30-30h120c16.570312 0 30 13.429688 30 30zm0 0" fill="#ff712f"/><path d="m150 376c0 11.046875-8.953125 20-20 20s-20-8.953125-20-20 8.953125-20 20-20 20 8.953125 20 20zm0 0" fill="#fff2fb"/><path d="m130 146v20h-90v-20c0-11.050781 8.949219-20 20-20h50c11.050781 0 20 8.949219 20 20zm0 0" fill="#866d67"/><path d="m292 502c0 5.523438-4.476562 10-10 10s-10-4.476562-10-10 4.476562-10 10-10 10 4.476562 10 10zm0 0"/><path d="m252 502c0 5.523438-4.476562 10-10 10s-10-4.476562-10-10 4.476562-10 10-10 10 4.476562 10 10zm0 0"/><path d="m212 502c0 5.523438-4.476562 10-10 10s-10-4.476562-10-10 4.476562-10 10-10 10 4.476562 10 10zm0 0"/><path d="m130 346c-16.542969 0-30 13.457031-30 30s13.457031 30 30 30 30-13.457031 30-30-13.457031-30-30-30zm0 40c-5.515625 0-10-4.484375-10-10s4.484375-10 10-10 10 4.484375 10 10-4.484375 10-10 10zm0 0"/><path d="m100 216c-5.523438 0-10 4.476562-10 10v30c0 5.523438 4.476562 10 10 10s10-4.476562 10-10v-30c0-5.523438-4.476562-10-10-10zm0 0"/><path d="m160 216c-5.523438 0-10 4.476562-10 10v30c0 5.523438 4.476562 10 10 10s10-4.476562 10-10v-30c0-5.523438-4.476562-10-10-10zm0 0"/><path d="m422 502c0 5.523438-4.476562 10-10 10s-10-4.476562-10-10 4.476562-10 10-10 10 4.476562 10 10zm0 0"/><path d="m472 432h-20v-30c0-16.542969-13.457031-30-30-30v-317c0-30.328125-24.671875-55-55-55s-55 24.671875-55 55v96c0 19.300781-15.699219 35-35 35h-44.5c-27.792969-17.835938-59.527344-28.019531-92.5-29.734375v-10.265625c0-16.542969-13.457031-30-30-30h-50c-16.542969 0-30 13.457031-30 30v11.265625c-17.234375 4.453125-30 20.128906-30 38.734375v150c0 22.054688 17.945312 40 40 40h20.726562c4.867188 33.875 34.074219 60 69.273438 60s64.40625-26.125 69.273438-60h80.726562c22.054688 0 40-17.945312 40-40 0-53.777344-22.570312-104.285156-61.527344-140h18.527344c30.328125 0 55-24.671875 55-55v-96c0-19.300781 15.699219-35 35-35s35 15.699219 35 35v317c-16.542969 0-30 13.457031-30 30v30h-20c-22.054688 0-40 17.945312-40 40v30c0 5.523438 4.476562 10 10 10h45c5.523438 0 10-4.476562 10-10s-4.476562-10-10-10h-35v-20c0-11.027344 8.972656-20 20-20h120c11.027344 0 20 8.972656 20 20v20h-35c-5.523438 0-10 4.476562-10 10s4.476562 10 10 10h45c5.523438 0 10-4.476562 10-10v-30c0-22.054688-17.945312-40-40-40zm-412-296h50c5.515625 0 10 4.484375 10 10v10h-70v-10c0-5.515625 4.484375-10 10-10zm70 290c-27.570312 0-50-22.429688-50-50s22.429688-50 50-50 50 22.429688 50 50-22.429688 50-50 50zm170-80c0 11.027344-8.972656 20-20 20h-80.726562c-4.867188-33.875-34.074219-60-69.273438-60s-64.40625 26.125-69.273438 60h-20.726562c-11.027344 0-20-8.972656-20-20v-150c0-11.027344 8.972656-20 20-20h90c93.339844 0 170 75.496094 170 170zm92 56c0-5.515625 4.484375-10 10-10h20c5.515625 0 10 4.484375 10 10v30h-40zm0 0"/></svg>