<?xml version="1.0" encoding="iso-8859-1"?>
<!-- Generator: Adobe Illustrator 19.0.0, SVG Export Plug-In . SVG Version: 6.00 Build 0)  -->
<svg version="1.1" id="Capa_1" xmlns="http://www.w3.org/2000/svg" xmlns:xlink="http://www.w3.org/1999/xlink" x="0px" y="0px"
	 viewBox="0 0 512 512" style="enable-background:new 0 0 512 512;" xml:space="preserve">
<g>
	<g transform="translate(1 1)">
		<path style="fill:#00695C;" d="M434.2,67.267l0,273.067H75.8l0-273.067c-0.012-15.846,6.278-31.046,17.483-42.251
			s26.405-17.494,42.251-17.483h238.933c15.846-0.012,31.046,6.278,42.251,17.483C427.922,36.221,434.212,51.421,434.2,67.267z"/>
		<path style="fill:#009688;" d="M408.6,67.267v273.067H50.2v-36.096c4.671-4.241,10.758-6.585,17.067-6.571H75.8v-230.4
			c-0.012-15.846,6.278-31.046,17.483-42.251s26.405-17.494,42.251-17.483h213.333c15.846-0.012,31.046,6.278,42.251,17.483
			S408.612,51.421,408.6,67.267z"/>
		<polygon style="fill:#FFEB3A;" points="255,41.667 268.184,69.758 297.667,74.264 276.333,96.126 281.368,127 255,112.425 
			228.632,127 233.667,96.126 212.333,74.264 241.816,69.758 		"/>
		<path style="fill:#4E342E;" d="M460.824,392.557c-4.793,4.808-11.302,7.51-18.091,7.509c14.138,0,25.6,11.462,25.6,25.6
			s-11.462,25.6-25.6,25.6c14.138,0,25.6,11.462,25.6,25.6c0,14.138-11.462,25.6-25.6,25.6H408.6
			c-6.792,0.009-13.309-2.685-18.112-7.488c-4.803-4.803-7.497-11.319-7.488-18.112c0.009,6.792-2.685,13.309-7.488,18.112
			c-4.803,4.803-11.319,7.497-18.112,7.488h-34.133c-6.792,0.009-13.309-2.685-18.112-7.488c-4.803-4.803-7.497-11.319-7.488-18.112
			c0.009,6.792-2.685,13.309-7.488,18.112c-4.803,4.803-11.319,7.497-18.112,7.488h-34.133c-6.792,0.009-13.309-2.685-18.112-7.488
			c-4.803-4.803-7.497-11.319-7.488-18.112c0.009,6.792-2.685,13.309-7.488,18.112c-4.803,4.803-11.319,7.497-18.112,7.488H152.6
			c-6.792,0.009-13.309-2.685-18.112-7.488c-4.803-4.803-7.497-11.319-7.488-18.112c0.009,6.792-2.685,13.309-7.488,18.112
			c-4.803,4.803-11.319,7.497-18.112,7.488H67.267c-14.138,0-25.6-11.462-25.6-25.6c0-14.138,11.462-25.6,25.6-25.6
			c-14.138,0-25.6-11.462-25.6-25.6s11.462-25.6,25.6-25.6c-14.138,0-25.6-11.462-25.6-25.6c0-14.138,11.462-25.6,25.6-25.6
			c-10.355,0.006-19.692-6.229-23.654-15.797s-1.765-20.579,5.563-27.894c0.319-0.336,0.662-0.65,1.024-0.939
			c4.671-4.241,10.758-6.585,17.067-6.571H101.4c6.792-0.009,13.309,2.685,18.112,7.488c4.803,4.803,7.497,11.32,7.488,18.112
			c-0.009-6.792,2.685-13.309,7.488-18.112c4.803-4.803,11.32-7.497,18.112-7.488h34.133c6.792-0.009,13.309,2.685,18.112,7.488
			c4.803,4.803,7.497,11.32,7.488,18.112c-0.009-6.792,2.685-13.309,7.488-18.112c4.803-4.803,11.32-7.497,18.112-7.488h34.133
			c6.792-0.009,13.309,2.685,18.112,7.488c4.803,4.803,7.497,11.32,7.488,18.112c-0.009-6.792,2.685-13.309,7.488-18.112
			c4.803-4.803,11.32-7.497,18.112-7.488H357.4c6.792-0.009,13.309,2.685,18.112,7.488c4.803,4.803,7.497,11.32,7.488,18.112
			c-0.009-6.792,2.685-13.309,7.488-18.112c4.803-4.803,11.32-7.497,18.112-7.488h34.133c14.138,0,25.6,11.462,25.6,25.6
			c0,14.138-11.462,25.6-25.6,25.6c10.355-0.007,19.692,6.229,23.654,15.796C470.349,374.23,468.153,385.242,460.824,392.557z"/>
		<g>
			<path style="fill:#7F6E5D;" d="M212.333,323.267l0,25.6H127l0-25.6c-0.009-6.792,2.685-13.309,7.488-18.112
				c4.803-4.803,11.32-7.497,18.112-7.488h34.133c6.792-0.009,13.309,2.685,18.112,7.488
				C209.648,309.958,212.343,316.474,212.333,323.267z"/>
			<path style="fill:#7F6E5D;" d="M383,323.267v25.6h-85.333l0-25.6c-0.009-6.792,2.685-13.309,7.488-18.112
				c4.803-4.803,11.32-7.497,18.112-7.488H357.4c6.792-0.009,13.309,2.685,18.112,7.488
				C380.315,309.958,383.009,316.474,383,323.267z"/>
			<rect x="127" y="400.067" style="fill:#7F6E5D;" width="85.333" height="51.2"/>
			<rect x="297.667" y="400.067" style="fill:#7F6E5D;" width="85.333" height="51.2"/>
			<path style="fill:#7F6E5D;" d="M127,348.867v51.2H67.267c-14.138,0-25.6-11.462-25.6-25.6c0-14.138,11.462-25.6,25.6-25.6H127z"
				/>
			<rect x="212.333" y="348.867" style="fill:#7F6E5D;" width="85.333" height="51.2"/>
			<path style="fill:#7F6E5D;" d="M468.333,374.467c-0.021,14.13-11.47,25.579-25.6,25.6H383v-51.2l59.733,0
				c6.792-0.009,13.309,2.685,18.112,7.488S468.343,367.674,468.333,374.467z"/>
			<path style="fill:#7F6E5D;" d="M127,451.267l0,25.6c0.009,6.792-2.685,13.309-7.488,18.112
				c-4.803,4.803-11.319,7.497-18.112,7.488H67.267c-14.138,0-25.6-11.462-25.6-25.6c0-14.139,11.462-25.6,25.6-25.6H127z"/>
			<path style="fill:#7F6E5D;" d="M297.667,451.267l0,25.6c0.009,6.792-2.685,13.309-7.488,18.112
				c-4.803,4.803-11.319,7.497-18.112,7.488h-34.133c-6.792,0.009-13.309-2.685-18.112-7.488
				c-4.803-4.803-7.497-11.319-7.488-18.112l0-25.6H297.667z"/>
			<path style="fill:#7F6E5D;" d="M468.333,476.867c-0.021,14.13-11.47,25.579-25.6,25.6H408.6
				c-6.792,0.009-13.309-2.685-18.112-7.488c-4.803-4.803-7.497-11.319-7.488-18.112l0-25.6l59.733,0
				c6.792-0.009,13.309,2.685,18.112,7.488C465.648,463.558,468.343,470.074,468.333,476.867z"/>
		</g>
		<g>
			<path style="fill:#607D8B;" d="M289.134,169.667H383c4.713,0,8.533,3.821,8.533,8.533v42.667c0,4.713-3.82,8.533-8.533,8.533
				h-93.867c-4.713,0-8.533-3.821-8.533-8.533V178.2C280.6,173.487,284.421,169.667,289.134,169.667z"/>
			<path style="fill:#607D8B;" d="M127,169.667h93.867c4.713,0,8.533,3.821,8.533,8.533v42.667c0,4.713-3.821,8.533-8.533,8.533H127
				c-4.713,0-8.533-3.821-8.533-8.533V178.2C118.467,173.487,122.287,169.667,127,169.667z"/>
		</g>
	</g>
	<g>
		<path d="M225.55,100l-4.342,26.625c-0.526,3.225,0.836,6.467,3.507,8.349c2.671,1.882,6.183,2.073,9.043,0.493L256,123.175
			l22.242,12.292c2.859,1.583,6.371,1.392,9.042-0.492c2.669-1.884,4.031-5.125,3.508-8.35L286.45,100l18.325-18.783
			c2.233-2.289,2.998-5.634,1.984-8.666c-1.015-3.032-3.64-5.242-6.8-5.726l-24.983-3.817l-11.25-23.967
			c-1.406-2.995-4.416-4.908-7.725-4.908c-3.309,0-6.319,1.913-7.725,4.908l-11.25,23.967l-24.983,3.817
			c-3.161,0.484-5.786,2.694-6.8,5.726c-1.015,3.032-0.249,6.377,1.984,8.666L225.55,100z M244.109,79.192
			c2.812-0.429,5.225-2.233,6.433-4.808L256,62.75l5.458,11.633c1.208,2.576,3.621,4.379,6.433,4.808l13.067,2l-9.733,9.975
			c-1.891,1.939-2.75,4.66-2.317,7.333l2.208,13.533l-10.992-6.075c-2.566-1.422-5.684-1.422-8.25,0l-10.992,6.075l2.208-13.533
			c0.434-2.673-0.426-5.394-2.317-7.333l-9.733-9.975L244.109,79.192z"/>
		<path d="M477.867,324.267c-0.019-18.844-15.29-34.115-34.133-34.133V68.267C443.69,30.582,413.152,0.043,375.467,0H136.533
			C98.849,0.043,68.31,30.582,68.267,68.267v221.867c-14.232-0.06-26.995,8.753-31.98,22.084c-4.985,13.33-1.138,28.355,9.64,37.649
			c-7.484,6.399-11.794,15.753-11.794,25.6c0,9.847,4.309,19.201,11.794,25.6c-7.484,6.399-11.794,15.753-11.794,25.6
			s4.309,19.201,11.794,25.6c-10.779,9.294-14.626,24.319-9.64,37.649c4.985,13.33,17.748,22.144,31.98,22.084H102.4
			c9.84-0.031,19.182-4.335,25.6-11.794c6.418,7.459,15.76,11.762,25.6,11.794h34.133c9.84-0.031,19.182-4.335,25.6-11.794
			c6.418,7.459,15.76,11.762,25.6,11.794h34.133c9.84-0.031,19.182-4.335,25.6-11.794c6.418,7.459,15.76,11.762,25.6,11.794H358.4
			c9.84-0.031,19.182-4.335,25.6-11.794c6.418,7.459,15.76,11.762,25.6,11.794h34.133c14.232,0.06,26.995-8.753,31.98-22.084
			c4.985-13.33,1.138-28.355-9.64-37.649c7.484-6.399,11.794-15.753,11.794-25.6s-4.309-19.201-11.794-25.6
			c7.484-6.399,11.794-15.753,11.794-25.6c0-9.847-4.309-19.201-11.794-25.6C473.532,343.448,477.836,334.107,477.867,324.267z
			 M85.333,68.267c0.031-28.264,22.936-51.169,51.2-51.2h238.933c28.264,0.031,51.169,22.936,51.2,51.2v221.867H409.6
			c-9.84,0.031-19.182,4.335-25.6,11.794c-6.418-7.459-15.76-11.762-25.6-11.794h-34.133c-9.84,0.031-19.182,4.335-25.6,11.794
			c-6.418-7.459-15.76-11.762-25.6-11.794h-34.133c-9.84,0.031-19.182,4.335-25.6,11.794c-6.418-7.459-15.76-11.762-25.6-11.794
			H153.6c-9.84,0.031-19.182,4.335-25.6,11.794c-6.418-7.459-15.76-11.762-25.6-11.794H85.333V68.267z M136.533,324.267
			c0.012-9.421,7.646-17.054,17.067-17.067h34.133c9.421,0.012,17.054,7.646,17.067,17.067v17.067h-68.267V324.267z
			 M221.867,324.267c0.012-9.421,7.646-17.054,17.067-17.067h34.133c9.421,0.012,17.054,7.646,17.067,17.067v17.067h-68.267V324.267
			z M375.467,392.533H307.2V358.4h68.267V392.533z M136.533,358.4H204.8v34.133h-68.267V358.4z M221.867,358.4h68.267v34.133
			h-68.267V358.4z M136.533,409.6H204.8v34.133h-68.267V409.6z M221.867,409.6h68.267v34.133h-68.267V409.6z M307.2,409.6h68.267
			v34.133H307.2V409.6z M375.467,341.333H307.2v-17.067c0.012-9.421,7.646-17.054,17.067-17.067H358.4
			c9.421,0.012,17.054,7.646,17.067,17.067V341.333z M51.2,324.267c0.012-9.421,7.646-17.054,17.067-17.067H102.4
			c9.421,0.012,17.054,7.646,17.067,17.067v17.067h-51.2C58.846,341.321,51.212,333.687,51.2,324.267z M51.2,375.467
			c0.012-9.421,7.646-17.054,17.067-17.067h51.2v34.133h-51.2C58.846,392.521,51.212,384.887,51.2,375.467z M51.2,426.667
			c0.012-9.421,7.646-17.054,17.067-17.067h51.2v34.133h-51.2C58.846,443.721,51.212,436.087,51.2,426.667z M102.4,494.933H68.267
			c-9.426,0-17.067-7.641-17.067-17.067c0-9.426,7.641-17.067,17.067-17.067h51.2v17.067
			C119.455,487.287,111.821,494.921,102.4,494.933z M187.733,494.933H153.6c-9.421-0.012-17.054-7.646-17.067-17.067V460.8H204.8
			v17.067C204.788,487.287,197.154,494.921,187.733,494.933z M273.067,494.933h-34.133c-9.421-0.012-17.054-7.646-17.067-17.067
			V460.8h68.267v17.067C290.121,487.287,282.487,494.921,273.067,494.933z M358.4,494.933h-34.133
			c-9.421-0.012-17.054-7.646-17.067-17.067V460.8h68.267v17.067C375.455,487.287,367.821,494.921,358.4,494.933z M460.8,477.867
			c-0.012,9.421-7.646,17.054-17.067,17.067H409.6c-9.421-0.012-17.054-7.646-17.067-17.067V460.8h51.2
			C453.154,460.812,460.788,468.446,460.8,477.867z M460.8,426.667c-0.012,9.421-7.646,17.054-17.067,17.067h-51.2V409.6h51.2
			C453.154,409.612,460.788,417.246,460.8,426.667z M460.8,375.467c-0.012,9.421-7.646,17.054-17.067,17.067h-51.2V358.4h51.2
			C453.154,358.412,460.788,366.046,460.8,375.467z M392.534,341.333v-17.067c0.012-9.421,7.646-17.054,17.067-17.067h34.133
			c9.426,0,17.067,7.641,17.067,17.067c0,9.426-7.641,17.067-17.067,17.067H392.534z"/>
		<path d="M273.067,179.2v42.667c0.012,9.421,7.646,17.054,17.067,17.067H384c9.421-0.012,17.054-7.646,17.067-17.067V179.2
			c-0.012-9.421-7.646-17.054-17.067-17.067h-93.867C280.713,162.146,273.079,169.779,273.067,179.2z M384,221.867h-93.867V179.2
			L384,179.183V221.867z"/>
		<path d="M128,238.933h93.867c9.421-0.012,17.054-7.646,17.067-17.067V179.2c-0.012-9.421-7.646-17.054-17.067-17.067H128
			c-9.421,0.012-17.054,7.646-17.067,17.067v42.667C110.946,231.287,118.58,238.921,128,238.933z M128,179.2l93.867-0.017v42.684
			H128V179.2z"/>
	</g>
</g>
<g>
</g>
<g>
</g>
<g>
</g>
<g>
</g>
<g>
</g>
<g>
</g>
<g>
</g>
<g>
</g>
<g>
</g>
<g>
</g>
<g>
</g>
<g>
</g>
<g>
</g>
<g>
</g>
<g>
</g>
</svg>
