<?xml version="1.0" encoding="iso-8859-1"?>
<!-- Generator: Adobe Illustrator 19.0.0, SVG Export Plug-In . SVG Version: 6.00 Build 0)  -->
<svg version="1.1" id="Capa_1" xmlns="http://www.w3.org/2000/svg" xmlns:xlink="http://www.w3.org/1999/xlink" x="0px" y="0px"
	 viewBox="0 0 511.991 511.991" style="enable-background:new 0 0 511.991 511.991;" xml:space="preserve">
<g>
	<g transform="translate(1 1)">
		<g>
			<path style="fill:#9E9E9E;" d="M92.626,195.262v-8.704c0.15-16.542-4.852-32.72-14.314-46.289l-2.522-3.616
				c18.229-3.277,37.011,0.894,52.139,11.58c5.751,5.357,11.139,11.091,16.128,17.163L92.626,195.262z"/>
			<path style="fill:#9E9E9E;" d="M502.457,144.062v-51.2h-17.067c-9.426,0-17.067,7.641-17.067,17.067v34.133H502.457z"/>
		</g>
		<g>
			<path style="fill:#424242;" d="M254.991,126.995v76.8h211.774c6.556,0,12.533-3.756,15.377-9.662l11.782-24.471
				c4.713,0,8.533-3.82,8.533-8.533v-34.133H254.991z"/>
			<path style="fill:#424242;" d="M466.765,203.795H272.057v-34.133h221.867l-11.782,24.47
				C479.298,200.04,473.321,203.795,466.765,203.795z"/>
		</g>
		<path style="fill:#9E9E9E;" d="M67.257,195.262c0,0,59.733,0,68.267-68.267h136.533v128c-0.014,4.707-3.826,8.52-8.533,8.533
			h-25.6c-6.792-0.009-13.309,2.685-18.112,7.488c-4.803,4.803-7.497,11.32-7.488,18.112c0.009-6.792-2.685-13.309-7.488-18.112
			c-4.803-4.803-11.32-7.497-18.112-7.488h-25.6c-6.792-0.009-13.309,2.685-18.112,7.488c-4.803,4.803-7.497,11.32-7.488,18.112
			L67.257,195.262z"/>
		<path style="fill:#795548;" d="M135.524,289.129l-24.149,121.259c-0.862,3.93-4.339,6.733-8.363,6.741H24.591
			c-5.337-0.001-10.365-2.504-13.584-6.762c-3.218-4.258-4.255-9.778-2.8-14.913l59.051-200.192
			C102.504,215.22,127.397,249.447,135.524,289.129z"/>
		<path style="fill:#424242;" d="M169.657,161.129h59.733c4.713,0,8.533,3.82,8.533,8.533v51.2c0,4.713-3.82,8.533-8.533,8.533
			h-59.733c-4.713,0-8.533-3.82-8.533-8.533v-51.2C161.124,164.949,164.944,161.129,169.657,161.129z"/>
		<path style="fill:#9E9E9E;" d="M229.391,126.995v76.8h211.774c6.556,0,12.533-3.756,15.377-9.662l11.782-24.471
			c4.713,0,8.533-3.82,8.533-8.533v-34.133H229.391z"/>
	</g>
	<g>
		<path d="M503.457,85.329h-17.067c-14.132,0.015-25.585,11.468-25.6,25.6v8.533H136.524c-4.303,0.002-7.931,3.206-8.467,7.475
			c-0.443,3.58-1.082,7.134-1.916,10.644c-15.668-8.611-33.839-11.513-51.409-8.21c-2.727,0.677-4.946,2.653-5.934,5.284
			c-0.987,2.631-0.616,5.579,0.992,7.883l2.525,3.617c7.853,11.316,12.226,24.682,12.58,38.451
			c-5.372,1.816-10.973,2.867-16.638,3.123c-0.465,0.036-0.927,0.111-1.38,0.225c-0.372,0.036-0.74,0.096-1.104,0.181
			c-0.952,0.28-1.848,0.724-2.647,1.314c-0.108,0.081-0.179,0.205-0.283,0.291c-0.696,0.578-1.294,1.265-1.772,2.033
			c-0.062,0.1-0.165,0.154-0.223,0.256c-0.121,0.212-0.119,0.45-0.221,0.668c-0.214,0.368-0.399,0.752-0.554,1.149L0.949,394.162
			c-2.16,7.712-0.586,15.991,4.254,22.372s12.387,10.129,20.396,10.128h78.425c8.077-0.042,15.032-5.707,16.708-13.608
			l17.882-89.756c6.316,6.083,14.74,9.486,23.509,9.498h25.6c18.844-0.019,34.115-15.29,34.133-34.133v-8.533
			c0.012-9.421,7.646-17.054,17.067-17.067h25.6c9.421-0.012,17.054-7.646,17.067-17.067v-42.667h186.175
			c9.826-0.034,18.776-5.66,23.067-14.5l9.993-20.748c6.691-2.46,11.145-8.823,11.166-15.952V93.862
			c0.001-2.264-0.897-4.435-2.498-6.035C507.892,86.226,505.721,85.327,503.457,85.329z M281.591,136.529h213.333l0.017,25.6
			h-213.35V136.529z M477.857,110.929c0.003-4.712,3.822-8.53,8.533-8.533h8.533v17.067h-17.067V110.929z M91.682,145.112
			c10.112,0.552,19.938,3.558,28.629,8.756c-4.298,8.918-10.757,16.621-18.79,22.407C100.232,165.361,96.893,154.788,91.682,145.112
			z M104.024,409.595H25.599c-2.649,0.001-5.148-1.228-6.763-3.327c-1.616-2.099-2.165-4.829-1.487-7.39l55.913-189.423
			c27.703,19.027,47.196,47.815,54.577,80.602L104.024,409.595z M187.724,315.729h-25.6c-9.421-0.012-17.054-7.646-17.067-17.067
			v-8.533c0.013-2.067,0.406-4.114,1.158-6.04l19.709,13.139c3.919,2.558,9.168,1.482,11.764-2.412
			c2.596-3.894,1.571-9.153-2.298-11.787l-14.729-9.819c0.49-0.042,0.961-0.148,1.462-0.148h25.6
			c9.421,0.012,17.054,7.646,17.067,17.067v8.533C204.778,308.083,197.144,315.716,187.724,315.729z M264.524,255.995h-25.6
			c-9.84,0.031-19.182,4.335-25.6,11.794c-6.418-7.459-15.76-11.763-25.6-11.794h-25.6c-8.856,0.006-17.359,3.47-23.698,9.654
			c-9.851-25.7-26.597-48.187-48.396-64.99c28.83-9.167,49.783-34.146,53.795-64.131h120.7V255.995z M475.449,191.429
			c-1.427,2.947-4.409,4.822-7.683,4.833H281.591v-17.067h199.75L475.449,191.429z"/>
		<path d="M230.391,153.595h-59.733c-9.421,0.012-17.054,7.646-17.067,17.067v51.2c0.012,9.421,7.646,17.054,17.067,17.067h59.733
			c9.421-0.012,17.054-7.646,17.067-17.067v-51.2C247.445,161.241,239.811,153.607,230.391,153.595z M170.657,221.862v-51.2h59.733
			l0.006,17.067h-34.139c-4.713,0-8.533,3.821-8.533,8.533s3.821,8.533,8.533,8.533h34.144l0.006,17.067H170.657z"/>
	</g>
</g>
<g>
</g>
<g>
</g>
<g>
</g>
<g>
</g>
<g>
</g>
<g>
</g>
<g>
</g>
<g>
</g>
<g>
</g>
<g>
</g>
<g>
</g>
<g>
</g>
<g>
</g>
<g>
</g>
<g>
</g>
</svg>
