<?xml version="1.0" encoding="iso-8859-1"?>
<!-- Generator: Adobe Illustrator 19.0.0, SVG Export Plug-In . SVG Version: 6.00 Build 0)  -->
<svg version="1.1" id="Capa_1" xmlns="http://www.w3.org/2000/svg" xmlns:xlink="http://www.w3.org/1999/xlink" x="0px" y="0px"
	 viewBox="0 0 512 512" style="enable-background:new 0 0 512 512;" xml:space="preserve">
<g>
	<g transform="translate(1 1)">
		<path style="fill:#37474F;" d="M502.467,127.003V92.869c0-9.426-7.641-17.067-17.067-17.067h-17.067v51.2H502.467z"/>
		<path style="fill:#607D8B;" d="M246.467,118.469h256v25.6c0,4.713-3.821,8.533-8.533,8.533H246.467V118.469z"/>
		<path style="fill:#37474F;" d="M263.533,109.936v102.4c-0.014,4.707-3.826,8.52-8.533,8.533h-69.717L62.488,252.443
			c0.755-2.272,1.27-4.618,1.536-6.997c1.191-11.299-3.243-22.463-11.861-29.867L10.52,180.763
			c-1.885-1.629-2.974-3.994-2.987-6.486v-72.875c0.014-4.707,3.826-8.52,8.533-8.533h44.203l49.664,8.533H255
			C259.707,101.416,263.52,105.229,263.533,109.936z"/>
		<path style="fill:#607D8B;" d="M237.933,109.936v102.4c-0.014,4.707-3.826,8.52-8.533,8.533h-69.717l-94.379,24.235l-1.28,0.341
			c1.191-11.299-3.243-22.463-11.861-29.867L10.52,180.763c-1.885-1.629-2.974-3.994-2.987-6.486v-72.875
			c0.014-4.707,3.826-8.52,8.533-8.533h18.603l24.491,4.181l25.173,4.352H229.4C234.107,101.416,237.92,105.229,237.933,109.936z"/>
		<path style="fill:#795548;" d="M196.376,195.269l-11.093,25.6l-83.712,203.094c-3.352,7.803-11.959,11.924-20.139,9.642
			L20.077,416.88c-4.655-1.274-8.549-4.464-10.714-8.777c-2.165-4.313-2.396-9.342-0.636-13.835l53.76-141.825l15.531-40.789
			c3.813-9.875,13.308-16.386,23.893-16.384H196.376z"/>
		<g>
			<path style="fill:#37474F;" d="M263.533,178.203v34.133c-0.014,4.707-3.826,8.52-8.533,8.533h-69.717l11.093-25.6l2.987-6.827
				c2.713-6.209,8.84-10.226,15.616-10.24H263.533z"/>
			<circle style="fill:#37474F;" cx="84.333" cy="101.403" r="25.6"/>
		</g>
	</g>
	<g>
		<path d="M486.4,68.269h-17.067c-2.263-0.001-4.434,0.898-6.035,2.499s-2.499,3.771-2.499,6.035v34.133H273.067
			c-0.011-9.421-7.645-17.056-17.067-17.067H118.255c-3.388-13.405-14.576-23.41-28.275-25.286s-27.165,4.753-34.033,16.753H17.067
			C7.645,85.347,0.011,92.982,0,102.403v72.875c0.01,5.021,2.221,9.785,6.05,13.033l41.571,34.708
			c7.909,6.841,10.982,17.736,7.814,27.702L1.775,392.153c-2.634,6.746-2.281,14.292,0.972,20.762s9.1,11.254,16.086,13.163
			l61.288,16.708c12.347,3.453,25.338-2.803,30.338-14.608l56.909-138.042H204.8c23.553-0.028,42.639-19.114,42.667-42.667v-17.067
			H256c9.421-0.011,17.056-7.645,17.067-17.067v-51.2h221.867c9.421-0.011,17.056-7.645,17.067-17.067v-51.2
			C511.985,79.737,500.532,68.285,486.4,68.269z M477.867,85.336h8.533c4.711,0.005,8.529,3.822,8.533,8.533v17.067h-17.067V85.336z
			 M85.333,85.336c9.426,0,17.067,7.641,17.067,17.067s-7.641,17.067-17.067,17.067s-17.067-7.641-17.067-17.067
			C68.277,92.982,75.912,85.347,85.333,85.336z M58.662,210.003l-41.596-34.725v-72.875H51.2
			c-0.036,17.176,12.723,31.692,29.761,33.86c17.039,2.168,33.026-8.689,37.293-25.327H256v59.733h-40.008
			c-10.185-0.003-19.402,6.036-23.467,15.375l-0.737,1.692h-88.9c-14.104,0.067-26.735,8.743-31.858,21.883l-3.91,10.304
			C64.821,216.207,61.969,212.861,58.662,210.003z M94.729,421.57c-1.682,3.883-5.979,5.921-10.05,4.767l-61.363-16.725
			c-2.308-0.611-4.241-2.187-5.304-4.325c-1.109-2.188-1.22-4.749-0.304-7.025l69.258-182.542
			c2.565-6.56,8.877-10.888,15.921-10.917h81.492l-5.248,12.691c-0.443,0.728-0.771,1.52-0.971,2.349l-23.799,57.546
			c-0.361,0.624-0.638,1.293-0.823,1.99L94.729,421.57z M230.4,247.469c-0.015,14.132-11.468,25.585-25.6,25.6h-30.397
			l14.217-34.485l9.079,13.619c1.685,2.551,4.606,4.005,7.657,3.812c3.051-0.193,5.766-2.003,7.117-4.745
			c1.351-2.742,1.132-5.998-0.574-8.535l-8.222-12.333H230.4V247.469z M199.28,213.336l5.849-13.5l0.146-0.333l2.892-6.642
			c1.356-3.114,4.429-5.127,7.825-5.125H256v25.6H199.28z M273.067,145.069v-17.067h221.871l0.009,17.067H273.067z"/>
		<path d="M128,162.136h59.733c4.713,0,8.533-3.821,8.533-8.533s-3.821-8.533-8.533-8.533H128c-4.713,0-8.533,3.821-8.533,8.533
			S123.287,162.136,128,162.136z"/>
	</g>
</g>
<g>
</g>
<g>
</g>
<g>
</g>
<g>
</g>
<g>
</g>
<g>
</g>
<g>
</g>
<g>
</g>
<g>
</g>
<g>
</g>
<g>
</g>
<g>
</g>
<g>
</g>
<g>
</g>
<g>
</g>
</svg>
