<?xml version="1.0" encoding="iso-8859-1"?>
<!-- Generator: Adobe Illustrator 19.0.0, SVG Export Plug-In . SVG Version: 6.00 Build 0)  -->
<svg version="1.1" id="Capa_1" xmlns="http://www.w3.org/2000/svg" xmlns:xlink="http://www.w3.org/1999/xlink" x="0px" y="0px"
	 viewBox="0 0 512.003 512.003" style="enable-background:new 0 0 512.003 512.003;" xml:space="preserve">
<g>
	<g transform="translate(1 1)">
		<path style="fill:#F4F4F4;" d="M144.069,331.803v102.4H81.263c7.38-6.46,11.611-15.792,11.605-25.6v-76.8H144.069z"/>
		<rect x="178.202" y="280.603" style="fill:#00695C;" width="307.2" height="204.8"/>
		<path style="fill:#009688;" d="M442.735,280.603v204.8h-281.6v-25.6h-24.491c-0.372,0.014-0.744-0.015-1.109-0.085V306.288
			c0.365-0.071,0.738-0.099,1.109-0.085h24.491v-25.6H442.735z"/>
		<path style="fill:#CFD8DC;" d="M178.202,306.203v153.6h-41.557c-0.372,0.014-0.744-0.015-1.109-0.085
			c-4.862-0.551-8.535-4.664-8.533-9.557V315.846c-0.002-4.893,3.671-9.007,8.533-9.557c0.365-0.071,0.738-0.099,1.109-0.085
			H178.202z"/>
		<g>
			<path style="fill:#607D8B;" d="M169.413,263.536h17.579c4.571,0,8.277,3.706,8.277,8.277v222.379
				c0,4.571-3.706,8.277-8.277,8.277h-17.579c-4.571,0-8.277-3.706-8.277-8.277V271.814
				C161.135,267.242,164.841,263.536,169.413,263.536z"/>
			<path style="fill:#607D8B;" d="M476.579,263.536h17.647c4.553,0,8.243,3.691,8.243,8.243v222.447
				c0,4.553-3.691,8.243-8.243,8.243h-17.647c-4.553,0-8.243-3.691-8.243-8.243V271.779
				C468.335,267.227,472.026,263.536,476.579,263.536z"/>
		</g>
		<path style="fill:#FFE0B2;" d="M344.602,144.923c11.315-9.025,15.677-24.224,10.87-37.877
			c-4.807-13.652-17.73-22.765-32.204-22.71c0.012-15.846-6.278-31.046-17.483-42.251c-11.205-11.205-26.405-17.494-42.251-17.483
			c-4.253-0.038-8.495,0.449-12.629,1.45c27.343,6.031,46.802,30.283,46.763,58.283c14.474-0.055,27.396,9.058,32.204,22.71
			c4.807,13.652,0.445,28.851-10.87,37.877c21.438,3.944,37.329,22.143,38.348,43.917c1.018,21.774-13.105,41.377-34.081,47.305
			c4.16,1.203,8.47,1.807,12.8,1.792c24.254,0.019,44.52-18.458,46.736-42.61C385.021,171.174,368.454,149.317,344.602,144.923z"/>
		<g>
			<path style="fill:#FFECB3;" d="M237.935,24.603c-8.486-0.024-16.875,1.811-24.576,5.376c3.656,3.072,7.052,6.44,10.155,10.07
				c7.726-7.014,17.181-11.845,27.392-13.996C246.649,25.094,242.299,24.608,237.935,24.603z"/>
			<path style="fill:#FFECB3;" d="M357.402,191.003c0.017,20.994-13.929,39.437-34.133,45.141
				c-14.187-4.03-25.657-14.49-30.976-28.245c-11.337,13.6-28.119,21.476-45.824,21.504c-4.302-0.014-8.592-0.472-12.8-1.365
				c-9.544-2.113-18.423-6.537-25.856-12.885c-2.429,3.965-5.762,7.299-9.727,9.728c-4.664,2.975-10.085,4.545-15.617,4.523
				c-4.431,0.012-8.807-0.98-12.8-2.902c-3.989,1.931-8.368,2.924-12.8,2.902c-2.151-0.007-4.296-0.236-6.4-0.683
				c-8.006,5.988-17.736,9.222-27.733,9.217c-1.97-0.008-3.937-0.151-5.887-0.427c1.058,4.33,1.602,8.769,1.621,13.227
				c0,20.565-8.96,45.909-25.6,55.467v102.4c-0.043,18.833-15.3,34.09-34.133,34.133c-4.397,0.034-8.754-0.838-12.8-2.56
				c-12.905-5.164-21.358-17.674-21.333-31.573c0.058-1.514,0.2-3.024,0.427-4.523c-10.788-5.948-17.49-17.291-17.494-29.611
				c0.038-11.842,6.205-22.82,16.298-29.013c-10.301-5.217-16.65-15.926-16.284-27.466c0.366-11.541,7.38-21.826,17.991-26.379
				c-12.773-11.678-19.35-28.659-17.776-45.894s11.119-32.743,25.797-41.914c-20.294-12.677-30.145-36.959-24.419-60.192
				s25.732-40.157,49.592-41.952v-0.256C58.685,54.501,93.327,14.79,139.802,8.475c4.234-0.658,8.515-0.972,12.8-0.939
				c22.288-0.044,43.85,7.921,60.757,22.443c3.656,3.072,7.052,6.44,10.155,10.07c7.726-7.014,17.181-11.845,27.392-13.996
				c27.343,6.031,46.801,30.283,46.762,58.283c14.474-0.055,27.396,9.058,32.204,22.71c4.807,13.652,0.445,28.851-10.87,37.877
				C341.234,149.022,357.379,168.396,357.402,191.003z"/>
		</g>
	</g>
	<g>
		<path d="M495.227,256.003h-17.65c-9.26,0.01-16.765,7.515-16.775,16.775v0.292h-256v-0.292c-0.01-9.26-7.515-16.765-16.775-16.775
			h-17.65c-9.26,0.01-16.765,7.515-16.775,16.775v25.892h-15.925c-10.052,0.01-18.198,8.156-18.208,18.208v7.392h-17.067v-12.483
			c17.55-13.133,25.6-39.617,25.6-60.05c0-1.458-0.058-2.933-0.167-4.417c12.777-0.902,24.835-6.254,34.075-15.125
			c15.066,10.408,35.409,8.604,48.408-4.292c25.074,16.322,57.863,14.379,80.833-4.792c13.131,19.389,37.025,28.442,59.708,22.621
			c22.682-5.821,39.264-25.261,41.436-48.577c2.172-23.316-10.535-45.484-31.752-55.394c4.178-6.684,6.393-14.409,6.391-22.292
			c-0.028-20.436-14.516-37.993-34.575-41.9c-2.714-23.919-17.839-44.634-39.795-54.504s-47.489-7.433-67.18,6.413
			c-28.444-28.06-70.62-36.993-107.998-22.876S54.27,55.304,51.477,95.161C21.631,101.232,0.14,127.413,0.002,157.87
			c-0.039,17.833,7.415,34.863,20.542,46.933c-24.367,22.475-27.46,59.868-7.117,86.042c-8.096,6.905-12.949,16.872-13.392,27.503
			c-0.443,10.632,3.565,20.967,11.059,28.522c-7.157,7.802-11.117,18.012-11.092,28.6c0.044,13.368,6.364,25.94,17.067,33.95v0.183
			c-0.079,16.815,9.771,32.094,25.119,38.963c15.349,6.869,33.305,4.034,45.791-7.229c1.577,1.534,3.689,2.395,5.89,2.4h25.6v7.392
			c0.01,10.052,8.156,18.198,18.208,18.208h15.925v25.892c0.01,9.26,7.515,16.765,16.775,16.775h17.65
			c9.26-0.01,16.765-7.515,16.775-16.775v-0.292h256v0.292c0.01,9.26,7.515,16.765,16.775,16.775h17.65
			c9.26-0.01,16.765-7.515,16.775-16.775v-222.45C511.992,263.518,504.487,256.013,495.227,256.003z M59.735,435.203
			c-14.132-0.015-25.585-11.468-25.6-25.6c0.024-0.811,0.107-1.618,0.25-2.417l0.133-0.983c0.443-3.453-1.255-6.83-4.292-8.533
			c-7.951-4.36-12.967-12.636-13.153-21.702c-0.186-9.066,4.487-17.541,12.253-22.223c2.623-1.616,4.171-4.521,4.05-7.6
			c-0.121-3.079-1.892-5.853-4.634-7.259c-7.375-3.714-11.925-11.369-11.664-19.622c0.261-8.253,5.286-15.605,12.881-18.845
			c2.657-1.146,4.551-3.561,5.033-6.414c0.481-2.853-0.516-5.756-2.65-7.711c-10.824-9.862-16.406-24.223-15.084-38.806
			c1.322-14.583,9.396-27.706,21.817-35.461c2.484-1.562,3.992-4.291,3.992-7.225c0-2.934-1.508-5.663-3.992-7.225
			c-15.745-9.843-24.189-28.058-21.523-46.435c2.665-18.376,15.936-33.443,33.828-38.407c0.273,2.769,0.62,5.53,1.111,8.258
			c0.74,4.055,4.27,7.003,8.392,7.008c0.514,0,1.027-0.044,1.533-0.133c4.636-0.847,7.712-5.287,6.875-9.925
			c-0.819-4.616-1.261-9.291-1.321-13.979c0.148-0.51,0.247-1.034,0.296-1.563c-0.028-35.644,22.118-67.544,55.522-79.977
			s71.019-2.777,94.303,24.211c0.251,0.22,0.516,0.424,0.792,0.613c0.135,0.294,0.289,0.579,0.458,0.854
			c3.958,4.786,7.384,9.989,10.217,15.517c1.382,2.725,4.115,4.503,7.166,4.663c3.051,0.16,5.955-1.324,7.613-3.89
			s1.819-5.823,0.42-8.539c-2.407-4.591-5.159-8.991-8.233-13.165c15.673-10.445,35.829-11.392,52.412-2.463
			c16.583,8.929,26.888,26.277,26.797,45.111c-0.001,2.264,0.897,4.435,2.498,6.035c1.601,1.601,3.772,2.499,6.035,2.498
			c10.851-0.06,20.547,6.764,24.153,16.998c3.606,10.234,0.33,21.629-8.162,28.385c-2.584,2.099-3.712,5.509-2.891,8.735
			c0.821,3.226,3.443,5.681,6.716,6.29c17.638,3.228,30.689,18.239,31.434,36.154s-11.015,33.958-28.324,38.64
			s-35.552-3.247-43.939-19.095c2.252-3.174,4.227-6.536,5.903-10.049c1.31-2.754,1.05-5.999-0.681-8.509
			c-1.732-2.511-4.672-3.906-7.712-3.66c-3.04,0.246-5.718,2.096-7.023,4.853c-7.993,16.31-23.973,27.216-42.074,28.716
			c-18.101,1.5-35.658-6.628-46.226-21.399c-2.692-3.866-8.009-4.817-11.875-2.125c-3.866,2.692-4.817,8.009-2.125,11.875
			c1.776,2.436,3.712,4.752,5.796,6.931c-4.183,3.716-9.684,5.594-15.266,5.212c-5.582-0.382-10.776-2.992-14.413-7.243
			c-1.67-1.95-4.153-3.013-6.717-2.875c-2.559,0.099-4.938,1.341-6.483,3.383c-7.109,9.514-18.25,15.168-30.127,15.287
			c-1.415-4.589-3.271-9.03-5.54-13.263c-2.283-4.124-7.476-5.616-11.6-3.333c-4.124,2.283-5.616,7.476-3.333,11.6
			c2.604,4.738,4.539,9.814,5.75,15.083l0.009,0.019l0.009,0.073c0.923,3.656,1.396,7.412,1.408,11.183
			c0,17.375-7.467,40.125-21.308,48.067c-2.656,1.517-4.294,4.342-4.292,7.4v102.4C85.32,423.735,73.867,435.187,59.735,435.203z
			 M102.402,426.67v-85.333h17.067v85.333H102.402z M137.677,452.27c-0.303,0.001-0.594-0.119-0.808-0.333s-0.334-0.505-0.333-0.808
			v-134.25c-0.001-0.303,0.119-0.594,0.333-0.808s0.505-0.334,0.808-0.333h15.925V452.27H137.677z M187.735,494.945l-17.067,0.283
			l-0.045-34.202c0.002-0.079,0.045-0.144,0.045-0.223v-153.6c-0.051-0.417-0.134-0.829-0.248-1.233l-0.044-32.9l17.358-0.292
			V494.945z M204.802,477.87V290.136h256V477.87H204.802z M494.935,494.945l-17.067,0.283l-0.011-8.768l0.011-0.057v-204.8
			c-0.053-0.474-0.147-0.943-0.282-1.4l-0.009-7.133l17.358-0.292V494.945z"/>
		<path d="M247.469,307.203c-2.264-0.001-4.435,0.897-6.035,2.498c-1.601,1.601-2.499,3.772-2.498,6.035V452.27
			c0,4.713,3.821,8.533,8.533,8.533c4.713,0,8.533-3.82,8.533-8.533V315.736c0.001-2.264-0.897-4.435-2.498-6.035
			C251.903,308.1,249.732,307.202,247.469,307.203z"/>
		<path d="M290.135,307.203c-2.264-0.001-4.435,0.897-6.035,2.498c-1.601,1.601-2.499,3.772-2.498,6.035V452.27
			c0,4.713,3.821,8.533,8.533,8.533s8.533-3.82,8.533-8.533V315.736c0.001-2.264-0.897-4.435-2.498-6.035
			C294.57,308.1,292.399,307.202,290.135,307.203z"/>
		<path d="M332.802,307.203c-2.264-0.001-4.435,0.897-6.035,2.498c-1.601,1.601-2.499,3.772-2.498,6.035V452.27
			c0,4.713,3.82,8.533,8.533,8.533s8.533-3.82,8.533-8.533V315.736c0.001-2.264-0.897-4.435-2.498-6.035
			C337.237,308.1,335.066,307.202,332.802,307.203z"/>
		<path d="M375.469,307.203c-2.264-0.001-4.435,0.897-6.035,2.498c-1.601,1.601-2.499,3.772-2.498,6.035V452.27
			c0,4.713,3.821,8.533,8.533,8.533c4.713,0,8.533-3.82,8.533-8.533V315.736c0.001-2.264-0.897-4.435-2.498-6.035
			C379.903,308.1,377.732,307.202,375.469,307.203z"/>
		<path d="M418.135,307.203c-2.264-0.001-4.435,0.897-6.035,2.498c-1.601,1.601-2.499,3.772-2.498,6.035V452.27
			c0,4.713,3.82,8.533,8.533,8.533s8.533-3.82,8.533-8.533V315.736c0.001-2.264-0.897-4.435-2.498-6.035
			C422.57,308.1,420.399,307.202,418.135,307.203z"/>
	</g>
</g>
<g>
</g>
<g>
</g>
<g>
</g>
<g>
</g>
<g>
</g>
<g>
</g>
<g>
</g>
<g>
</g>
<g>
</g>
<g>
</g>
<g>
</g>
<g>
</g>
<g>
</g>
<g>
</g>
<g>
</g>
</svg>
