<?xml version="1.0" encoding="iso-8859-1"?>
<!-- Generator: Adobe Illustrator 19.0.0, SVG Export Plug-In . SVG Version: 6.00 Build 0)  -->
<svg version="1.1" id="Capa_1" xmlns="http://www.w3.org/2000/svg" xmlns:xlink="http://www.w3.org/1999/xlink" x="0px" y="0px"
	 viewBox="0 0 512 512" style="enable-background:new 0 0 512 512;" xml:space="preserve">
<g>
	<g transform="translate(1 1)">
		<path style="fill:#424242;" d="M417.133,161.133v233.983c0.009,3.083-1.658,5.927-4.352,7.425L280.6,476.867h-51.2L97.219,402.541
			c-2.694-1.498-4.361-4.342-4.352-7.425V161.133C92.867,33.133,229.4,24.6,229.4,24.6h51.2
			C280.6,24.6,417.133,33.133,417.133,161.133z"/>
		<path style="fill:#9E9E9E;" d="M391.533,161.133v233.983c0.009,3.083-1.658,5.927-4.352,7.425L280.6,462.446L255,476.867h-25.6
			L97.219,402.541c-2.694-1.498-4.361-4.342-4.352-7.425V212.333h-8.533c-4.707-0.014-8.52-3.826-8.533-8.533v-34.133
			c0.014-4.707,3.826-8.52,8.533-8.533h8.533C92.867,33.133,229.4,24.6,229.4,24.6H255c8.634,0.779,17.194,2.234,25.6,4.352
			C320.109,38.509,391.533,68.546,391.533,161.133z"/>
		<path style="fill:#607D8B;" d="M374.467,212.333V255c0,4.713-3.82,8.533-8.533,8.533H144.067c-4.713,0-8.533-3.821-8.533-8.533
			v-42.667H374.467z"/>
		<g>
			<path style="fill:#F44335;" d="M434.2,169.667V203.8c-0.014,4.707-3.826,8.52-8.533,8.533H84.333
				c-4.707-0.014-8.52-3.826-8.533-8.533v-34.133c0.014-4.707,3.826-8.52,8.533-8.533H229.4V16.067
				c0.014-4.707,3.826-8.52,8.533-8.533h34.133c4.707,0.014,8.52,3.826,8.533,8.533v145.067h145.067
				C430.374,161.147,434.186,164.96,434.2,169.667z"/>
			<polygon style="fill:#F44335;" points="280.6,476.867 255,502.467 229.4,476.867 229.4,212.333 280.6,212.333 			"/>
		</g>
	</g>
	<g>
		<path d="M426.667,153.6h-0.286C421.256,45.099,319.619,22.333,290.133,18.031v-0.964C290.121,7.646,282.487,0.012,273.067,0
			h-34.133c-9.421,0.012-17.054,7.646-17.067,17.067v0.964C192.381,22.333,90.743,45.099,85.619,153.6h-0.286
			c-9.421,0.012-17.054,7.646-17.067,17.067V204.8c0.012,9.421,7.646,17.054,17.067,17.067v174.208
			c0.008,6.164,3.332,11.846,8.7,14.875l131.155,73.771l24.779,24.779c1.6,1.601,3.77,2.5,6.033,2.5s4.433-0.899,6.033-2.5
			l24.779-24.779l131.171-73.779c5.36-3.031,8.676-8.709,8.683-14.867V221.867c9.421-0.012,17.054-7.646,17.067-17.067v-34.133
			C443.721,161.246,436.087,153.612,426.667,153.6z M409.321,153.6H290.133V35.135C318.719,39.277,404.391,59.57,409.321,153.6z
			 M221.867,35.157V153.6H102.68C107.622,59.815,193.273,39.364,221.867,35.157z M102.4,221.867H128V256
			c0.012,9.421,7.646,17.054,17.067,17.067h76.8v190.213L102.4,396.075V221.867z M221.867,221.867V256h-76.8v-34.133H221.867z
			 M273.067,474.333L256,491.4l-17.067-17.067V221.867h34.133V474.333z M366.933,221.867V256h-76.8v-34.133H366.933z M409.6,396.083
			l-119.467,67.198V273.067h76.8c9.421-0.012,17.054-7.646,17.067-17.067v-34.133h25.6V396.083z M426.667,204.8H85.333v-34.133
			H230.4c2.264,0.001,4.435-0.897,6.035-2.498s2.499-3.772,2.498-6.035V17.067h34.133v145.067c-0.001,2.264,0.897,4.435,2.498,6.035
			s3.772,2.499,6.035,2.498h145.067V204.8z"/>
		<path d="M131.242,290.817c-3.177-1.342-6.849-0.634-9.3,1.792c-1.561,1.634-2.445,3.798-2.475,6.058
			c-0.023,2.27,0.869,4.454,2.475,6.059c0.816,0.772,1.772,1.38,2.817,1.792c1.013,0.476,2.123,0.71,3.242,0.683
			c2.27,0.022,4.453-0.87,6.058-2.475s2.497-3.788,2.475-6.058c-0.033-2.259-0.917-4.422-2.475-6.059
			C133.241,291.838,132.285,291.23,131.242,290.817z"/>
		<path d="M165.375,290.817c-3.177-1.342-6.849-0.634-9.3,1.792c-1.561,1.634-2.445,3.798-2.475,6.058
			c-0.023,2.27,0.869,4.454,2.475,6.059c0.816,0.772,1.772,1.38,2.817,1.792c1.013,0.476,2.123,0.71,3.242,0.683
			c2.27,0.022,4.453-0.87,6.058-2.475c1.605-1.605,2.497-3.788,2.475-6.058c-0.033-2.259-0.917-4.422-2.475-6.059
			C167.375,291.838,166.419,291.23,165.375,290.817z"/>
		<path d="M193.025,306.517c1.013,0.476,2.123,0.71,3.242,0.683c2.27,0.022,4.453-0.87,6.058-2.475
			c1.605-1.605,2.497-3.788,2.475-6.058c-0.033-2.259-0.917-4.422-2.475-6.059c-0.817-0.77-1.773-1.378-2.817-1.792
			c-3.177-1.342-6.849-0.634-9.3,1.792c-1.561,1.634-2.446,3.799-2.475,6.059c-0.023,2.27,0.869,4.454,2.475,6.059
			C191.024,305.497,191.98,306.105,193.025,306.517z"/>
		<path d="M131.242,324.942c-3.177-1.342-6.849-0.634-9.3,1.792c-1.561,1.634-2.445,3.799-2.475,6.059
			c-0.023,2.27,0.869,4.454,2.475,6.059c0.816,0.772,1.772,1.38,2.817,1.792c1.013,0.476,2.123,0.709,3.242,0.682
			c2.27,0.022,4.453-0.87,6.058-2.475c1.605-1.605,2.497-3.788,2.475-6.058c-0.033-2.259-0.917-4.422-2.475-6.059
			C133.241,325.963,132.285,325.355,131.242,324.942z"/>
		<path d="M165.375,324.942c-3.177-1.342-6.849-0.634-9.3,1.792c-1.561,1.634-2.445,3.799-2.475,6.059
			c-0.023,2.27,0.869,4.454,2.475,6.059c0.816,0.772,1.772,1.38,2.817,1.792c1.013,0.476,2.123,0.709,3.242,0.682
			c2.27,0.022,4.453-0.87,6.058-2.475c1.605-1.605,2.497-3.788,2.475-6.058c-0.033-2.259-0.917-4.422-2.475-6.059
			C167.375,325.963,166.419,325.355,165.375,324.942z"/>
		<path d="M199.508,324.942c-3.177-1.342-6.849-0.634-9.3,1.792c-1.561,1.634-2.445,3.799-2.475,6.059
			c-0.023,2.27,0.869,4.454,2.475,6.059c0.816,0.772,1.772,1.38,2.817,1.792c1.013,0.476,2.123,0.709,3.242,0.682
			c2.27,0.022,4.453-0.87,6.058-2.475c1.605-1.605,2.497-3.788,2.475-6.058c-0.033-2.259-0.917-4.422-2.475-6.059
			C201.508,325.963,200.552,325.355,199.508,324.942z"/>
		<path d="M131.242,359.065c-3.177-1.342-6.849-0.634-9.3,1.792c-1.561,1.634-2.445,3.799-2.475,6.059
			c-0.023,2.27,0.869,4.454,2.475,6.059c0.816,0.772,1.772,1.38,2.817,1.792c1.013,0.476,2.123,0.709,3.242,0.682
			c2.27,0.022,4.453-0.87,6.058-2.475s2.497-3.788,2.475-6.058c-0.033-2.259-0.917-4.422-2.475-6.059
			C133.241,360.086,132.285,359.478,131.242,359.065z"/>
		<path d="M165.375,359.065c-3.177-1.342-6.849-0.634-9.3,1.792c-1.561,1.634-2.445,3.799-2.475,6.059
			c-0.023,2.27,0.869,4.454,2.475,6.059c0.816,0.772,1.772,1.38,2.817,1.792c1.013,0.476,2.123,0.709,3.242,0.682
			c2.27,0.022,4.453-0.87,6.058-2.475c1.605-1.605,2.497-3.788,2.475-6.058c-0.033-2.259-0.917-4.422-2.475-6.059
			C167.375,360.086,166.419,359.478,165.375,359.065z"/>
		<path d="M199.508,359.065c-3.177-1.342-6.849-0.634-9.3,1.792c-1.561,1.634-2.445,3.799-2.475,6.059
			c-0.023,2.27,0.869,4.454,2.475,6.059c0.816,0.772,1.772,1.38,2.817,1.792c1.013,0.476,2.123,0.709,3.242,0.682
			c2.27,0.022,4.453-0.87,6.058-2.475c1.605-1.605,2.497-3.788,2.475-6.058c-0.033-2.259-0.917-4.422-2.475-6.059
			C201.508,360.086,200.552,359.478,199.508,359.065z"/>
		<path d="M165.375,393.19c-3.177-1.342-6.849-0.634-9.3,1.792c-1.561,1.634-2.445,3.799-2.475,6.059
			c-0.023,2.27,0.869,4.454,2.475,6.059c0.816,0.772,1.772,1.38,2.817,1.792c1.013,0.476,2.123,0.71,3.242,0.682
			c2.27,0.022,4.453-0.87,6.058-2.475c1.605-1.605,2.497-3.788,2.475-6.058c-0.033-2.259-0.917-4.422-2.475-6.059
			C167.375,394.211,166.419,393.603,165.375,393.19z"/>
		<path d="M199.508,393.19c-3.177-1.342-6.849-0.634-9.3,1.792c-1.561,1.634-2.445,3.799-2.475,6.059
			c-0.023,2.27,0.869,4.454,2.475,6.059c0.816,0.772,1.772,1.38,2.817,1.792c1.013,0.476,2.123,0.71,3.242,0.682
			c2.27,0.022,4.453-0.87,6.058-2.475c1.605-1.605,2.497-3.788,2.475-6.058c-0.033-2.259-0.917-4.422-2.475-6.059
			C201.508,394.211,200.552,393.603,199.508,393.19z"/>
		<path d="M380.758,290.817c-1.044,0.414-2,1.022-2.817,1.792c-1.558,1.636-2.441,3.799-2.475,6.058
			c-0.022,2.27,0.87,4.453,2.475,6.058c1.605,1.605,3.788,2.497,6.058,2.475c1.119,0.027,2.229-0.207,3.242-0.683
			c1.045-0.412,2.001-1.02,2.817-1.792c1.606-1.604,2.498-3.788,2.475-6.058c-0.03-2.26-0.914-4.424-2.475-6.059
			C387.608,290.182,383.935,289.475,380.758,290.817z"/>
		<path d="M346.625,290.817c-1.044,0.414-2,1.022-2.817,1.792c-1.558,1.636-2.441,3.799-2.475,6.058
			c-0.022,2.27,0.87,4.453,2.475,6.058c1.605,1.605,3.788,2.497,6.058,2.475c1.119,0.027,2.229-0.207,3.242-0.683
			c1.045-0.412,2.001-1.02,2.817-1.792c1.606-1.604,2.498-3.788,2.475-6.058c-0.03-2.26-0.914-4.424-2.475-6.059
			C353.474,290.182,349.802,289.475,346.625,290.817z"/>
		<path d="M312.492,290.817c-1.044,0.414-2,1.022-2.817,1.792c-1.558,1.636-2.441,3.799-2.475,6.058
			c-0.022,2.27,0.87,4.453,2.475,6.058c1.605,1.605,3.788,2.497,6.058,2.475c1.119,0.027,2.229-0.207,3.242-0.683
			c1.045-0.412,2.001-1.02,2.817-1.792c1.606-1.604,2.498-3.788,2.475-6.058c-0.03-2.26-0.914-4.424-2.475-6.059
			C319.341,290.182,315.668,289.475,312.492,290.817z"/>
		<path d="M380.758,324.942c-1.044,0.414-2,1.022-2.817,1.792c-1.558,1.636-2.441,3.8-2.475,6.059
			c-0.022,2.27,0.87,4.453,2.475,6.058c1.605,1.605,3.788,2.497,6.058,2.475c1.119,0.027,2.229-0.207,3.242-0.683
			c1.045-0.412,2.001-1.02,2.817-1.792c1.606-1.605,2.498-3.789,2.475-6.059c-0.03-2.26-0.914-4.424-2.475-6.059
			C387.608,324.307,383.935,323.6,380.758,324.942z"/>
		<path d="M346.625,324.942c-1.044,0.414-2,1.022-2.817,1.792c-1.558,1.636-2.441,3.8-2.475,6.059
			c-0.022,2.27,0.87,4.453,2.475,6.058c1.605,1.605,3.788,2.497,6.058,2.475c1.119,0.027,2.229-0.207,3.242-0.683
			c1.045-0.412,2.001-1.02,2.817-1.792c1.606-1.605,2.498-3.789,2.475-6.059c-0.03-2.26-0.914-4.424-2.475-6.059
			C353.474,324.307,349.802,323.6,346.625,324.942z"/>
		<path d="M312.492,324.942c-1.044,0.414-2,1.022-2.817,1.792c-1.558,1.636-2.441,3.8-2.475,6.059
			c-0.022,2.27,0.87,4.453,2.475,6.058c1.605,1.605,3.788,2.497,6.058,2.475c1.119,0.027,2.229-0.207,3.242-0.683
			c1.045-0.412,2.001-1.02,2.817-1.792c1.606-1.605,2.498-3.789,2.475-6.059c-0.03-2.26-0.914-4.424-2.475-6.059
			C319.341,324.307,315.668,323.6,312.492,324.942z"/>
		<path d="M380.758,359.065c-1.044,0.414-2,1.022-2.817,1.792c-1.558,1.636-2.441,3.8-2.475,6.059
			c-0.022,2.27,0.87,4.453,2.475,6.058c1.605,1.605,3.788,2.497,6.058,2.475c1.119,0.027,2.229-0.207,3.242-0.683
			c1.045-0.412,2.001-1.02,2.817-1.792c1.606-1.605,2.498-3.789,2.475-6.059c-0.03-2.26-0.914-4.424-2.475-6.059
			C387.608,358.43,383.935,357.723,380.758,359.065z"/>
		<path d="M346.625,359.065c-1.044,0.414-2,1.022-2.817,1.792c-1.558,1.636-2.441,3.8-2.475,6.059
			c-0.022,2.27,0.87,4.453,2.475,6.058c1.605,1.605,3.788,2.497,6.058,2.475c1.119,0.027,2.229-0.207,3.242-0.683
			c1.045-0.412,2.001-1.02,2.817-1.792c1.606-1.605,2.498-3.789,2.475-6.059c-0.03-2.26-0.914-4.424-2.475-6.059
			C353.474,358.43,349.802,357.723,346.625,359.065z"/>
		<path d="M312.492,359.065c-1.044,0.414-2,1.022-2.817,1.792c-1.558,1.636-2.441,3.8-2.475,6.059
			c-0.022,2.27,0.87,4.453,2.475,6.058c1.605,1.605,3.788,2.497,6.058,2.475c1.119,0.027,2.229-0.207,3.242-0.683
			c1.045-0.412,2.001-1.02,2.817-1.792c1.606-1.605,2.498-3.789,2.475-6.059c-0.03-2.26-0.914-4.424-2.475-6.059
			C319.341,358.43,315.668,357.723,312.492,359.065z"/>
		<path d="M346.625,393.19c-1.044,0.414-2,1.022-2.817,1.792c-1.558,1.636-2.441,3.8-2.475,6.059
			c-0.022,2.27,0.87,4.453,2.475,6.058c1.605,1.605,3.788,2.497,6.058,2.475c1.119,0.027,2.229-0.207,3.242-0.683
			c1.045-0.412,2.001-1.02,2.817-1.792c1.606-1.605,2.498-3.789,2.475-6.059c-0.03-2.26-0.914-4.424-2.475-6.059
			C353.474,392.555,349.802,391.847,346.625,393.19z"/>
		<path d="M312.492,393.19c-1.044,0.414-2,1.022-2.817,1.792c-1.558,1.636-2.441,3.8-2.475,6.059
			c-0.022,2.27,0.87,4.453,2.475,6.058c1.605,1.605,3.788,2.497,6.058,2.475c1.119,0.027,2.229-0.207,3.242-0.683
			c1.045-0.412,2.001-1.02,2.817-1.792c1.606-1.605,2.498-3.789,2.475-6.059c-0.03-2.26-0.914-4.424-2.475-6.059
			C319.341,392.555,315.668,391.847,312.492,393.19z"/>
	</g>
</g>
<g>
</g>
<g>
</g>
<g>
</g>
<g>
</g>
<g>
</g>
<g>
</g>
<g>
</g>
<g>
</g>
<g>
</g>
<g>
</g>
<g>
</g>
<g>
</g>
<g>
</g>
<g>
</g>
<g>
</g>
</svg>
