<?xml version="1.0" encoding="iso-8859-1"?>
<!-- Generator: Adobe Illustrator 19.0.0, SVG Export Plug-In . SVG Version: 6.00 Build 0)  -->
<svg version="1.1" id="Capa_1" xmlns="http://www.w3.org/2000/svg" xmlns:xlink="http://www.w3.org/1999/xlink" x="0px" y="0px"
	 viewBox="0 0 504.104 504.104" style="enable-background:new 0 0 504.104 504.104;" xml:space="preserve">
<g transform="translate(-1)">
	<g transform="translate(1 1)">
		<path style="fill:#4CAF50;" d="M461.659,181.474c-22.156-53.824-64.129-97.089-117.256-120.866V40.968H159.747v19.641
			C56.586,106.623,3.06,221.579,34.244,330.148s137.555,177.598,249.411,161.854c111.855-15.744,195.04-111.453,195.044-224.411
			C478.742,238.044,472.951,208.779,461.659,181.474z"/>
		<g>
			<path style="fill:#F4F4F4;" d="M310.279,331.717l41.296,17.088c4.621-11.284,17.365-16.861,28.79-12.6
				c5.463,1.889,9.928,5.909,12.379,11.145c2.451,5.235,2.678,11.239,0.631,16.645c-2.579,6.458-8.055,11.321-14.772,13.118
				c3.894,5.616,4.713,12.811,2.182,19.159c-4.564,11.339-17.363,16.941-28.789,12.6c-5.462-1.89-9.927-5.91-12.378-11.145
				c-2.451-5.235-2.679-11.239-0.632-16.644l-51.536-21.317l-98.119-40.303l-62.447-25.18c-5.578,10.7-18.492,15.249-29.545,10.408
				c-5.273-2.048-9.464-6.186-11.579-11.432c-2.115-5.247-1.964-11.134,0.415-16.266c3.121-6.159,8.916-10.528,15.696-11.835
				c-3.489-5.701-3.837-12.786-0.923-18.801c5.543-10.738,18.471-15.329,29.545-10.492c5.27,2.076,9.453,6.231,11.565,11.487
				c2.112,5.256,1.967,11.15-0.401,16.295l27.866,11.247h0.084L310.279,331.717z"/>
			<path style="fill:#F4F4F4;" d="M193.909,331.717l-41.296,17.088c-4.621-11.284-17.365-16.861-28.79-12.6
				c-5.463,1.889-9.928,5.909-12.379,11.145c-2.451,5.235-2.678,11.239-0.631,16.645c2.579,6.458,8.055,11.321,14.772,13.118
				c-3.894,5.616-4.713,12.811-2.182,19.159c4.564,11.339,17.363,16.941,28.79,12.6c5.462-1.89,9.927-5.91,12.378-11.145
				c2.451-5.235,2.679-11.239,0.632-16.644l51.536-21.317l98.119-40.303l62.447-25.18c5.578,10.7,18.492,15.249,29.545,10.408
				c5.273-2.048,9.464-6.186,11.579-11.432c2.115-5.247,1.964-11.134-0.415-16.266c-3.121-6.159-8.916-10.528-15.696-11.835
				c3.489-5.701,3.837-12.786,0.923-18.801c-5.543-10.738-18.471-15.329-29.545-10.492c-5.27,2.076-9.453,6.231-11.565,11.487
				c-2.112,5.256-1.967,11.15,0.401,16.295l-27.866,11.247h-0.084L193.909,331.717z"/>
		</g>
		<path style="fill:#02A9F4;" d="M461.659,181.474c-27.449-9.826-57.741-7.851-83.683,5.456c-6.796,3.382-13.839,6.244-21.068,8.56
			l-207.738,4.869c-17.123,0.672-33.658-4.785-62.028-18.549c-13.212-6.302-28.085-8.242-42.471-5.54
			c22.708-51.476,63.714-92.692,115.074-115.662V32.575h184.656v28.034C397.531,84.385,439.504,127.65,461.659,181.474z"/>
		<g>
			<path style="fill:#F4F4F4;" d="M319.223,242.411c20.164-15.954,42.005-46.649,42.005-71.33
				c0-48.657-48.883-88.146-109.115-88.146s-109.115,39.489-109.115,88.146c0,24.681,21.765,55.375,41.93,71.33H319.223z"/>
			<path style="fill:#F4F4F4;" d="M184.965,292.771c0,0,0,75.541,67.148,75.541s67.148-75.541,67.148-75.541H184.965z"/>
			<path style="fill:#F4F4F4;" d="M323.645,225.624c0.65,9.614,3.343,18.979,7.901,27.469
				c16.723,27.469-16.723,45.782-41.807,45.782c0,0-4.053,27.469-25.084,27.469h-25.084c-21.032,0-25.084-27.469-25.084-27.469
				c-25.084,0-58.53-18.313-41.807-45.782c4.558-8.49,7.252-17.855,7.901-27.469"/>
		</g>
		<g>
			<path style="fill:#607D8B;" d="M235.326,200.443c0,0-9.395,16.787-20.984,16.787c-11.589,0-20.984-16.787-20.984-16.787
				s9.395-16.787,20.984-16.787C225.931,183.656,235.326,200.443,235.326,200.443z"/>
			<path style="fill:#607D8B;" d="M310.867,200.443c0,0-9.395,16.787-20.984,16.787c-11.589,0-20.984-16.787-20.984-16.787
				s9.395-16.787,20.984-16.787C301.472,183.656,310.867,200.443,310.867,200.443z"/>
		</g>
		<path style="fill:#02A9F4;" d="M377.977,24.181c0.024,4.453-1.764,8.725-4.952,11.834c-3.109,3.189-7.381,4.977-11.835,4.953
			H142.96c-9.26-0.027-16.76-7.527-16.787-16.787c-0.024-4.453,1.764-8.725,4.952-11.835c3.11-3.188,7.381-4.976,11.835-4.952
			H361.19C370.45,7.421,377.95,14.921,377.977,24.181z"/>
		<path style="fill:#2E7D32;" d="M478.698,267.591c-0.01,125.156-101.467,226.613-226.623,226.623c-4.197,0-8.393-0.084-12.59-0.42
			c73.235-4.03,139.983-43.277,179.112-105.313s45.793-139.18,17.882-207.007c-0.839-2.014-1.679-3.945-2.602-5.875
			c9.498,0.588,18.859,2.567,27.782,5.875C472.951,208.779,478.742,238.044,478.698,267.591z"/>
		<g>
			<path style="fill:#0377BC;" d="M461.659,181.474c-8.923-3.308-18.284-5.288-27.782-5.875
				c-22.7-51.178-63.543-92.141-114.654-114.99V40.968h25.18v19.641C397.531,84.385,439.504,127.65,461.659,181.474z"/>
			<path style="fill:#0377BC;" d="M377.977,24.181c0.024,4.453-1.764,8.725-4.952,11.834c-3.109,3.189-7.381,4.977-11.835,4.953
				h-16.787v-2.266c1.271-0.725,2.43-1.63,3.441-2.686c3.189-3.109,4.976-7.381,4.952-11.834c-0.027-9.26-7.527-16.76-16.787-16.787
				h25.18C370.45,7.421,377.95,14.921,377.977,24.181z"/>
		</g>
	</g>
	<g>
		<path d="M273.653,269.476c-6.912-3.302-11.541-10.036-12.148-17.672c0-4.636-3.758-8.393-8.393-8.393
			c-4.636,0-8.393,3.758-8.393,8.393c-0.545,7.658-5.193,14.42-12.147,17.672c-2.682,1.341-4.446,4.012-4.625,7.005
			c-0.18,2.994,1.251,5.856,3.754,7.508c2.503,1.652,5.697,1.844,8.379,0.503c5.042-2.467,9.489-5.999,13.033-10.353
			c3.544,4.353,7.991,7.885,13.033,10.353c2.682,1.341,5.877,1.149,8.379-0.503c2.503-1.652,3.934-4.515,3.754-7.508
			C278.099,273.488,276.335,270.817,273.653,269.476z"/>
		<path d="M243.649,205.542c1.426-2.546,1.426-5.651,0-8.197c-1.205-2.156-12.259-21.082-28.308-21.082
			s-27.102,18.926-28.307,21.082c-1.426,2.546-1.426,5.651,0,8.197c1.205,2.156,12.258,21.082,28.307,21.082
			S242.444,207.697,243.649,205.542z M215.341,209.837c-3.234,0-7.668-4.123-10.922-8.393c3.258-4.27,7.688-8.393,10.922-8.393
			c3.234,0,7.66,4.123,10.922,8.393C223.001,205.714,218.575,209.837,215.341,209.837z"/>
		<path d="M290.882,176.263c-16.049,0-27.102,18.926-28.307,21.082c-1.426,2.546-1.426,5.651,0,8.197
			c1.205,2.156,12.258,21.082,28.307,21.082c16.049,0,27.102-18.926,28.307-21.082c1.426-2.546,1.426-5.651,0-8.197
			C317.985,195.189,306.932,176.263,290.882,176.263z M290.882,209.837c-3.234,0-7.668-4.123-10.922-8.393
			c3.258-4.27,7.688-8.393,10.922-8.393c3.234,0,7.66,4.123,10.922,8.393C298.542,205.714,294.116,209.837,290.882,209.837z"/>
		<path d="M469.949,178.507C447.678,124.791,406.298,81.23,353.796,56.23v-5.869h8.393c6.646,0.052,13.03-2.591,17.693-7.327
			c4.821-4.685,7.524-11.131,7.488-17.853c-0.015-13.9-11.28-25.165-25.18-25.18H143.96c-6.646-0.052-13.03,2.592-17.693,7.328
			c-4.821,4.684-7.524,11.131-7.488,17.852c0.015,13.9,11.28,25.165,25.18,25.18h8.393v5.869
			c-51.44,24.483-92.247,66.802-114.844,119.098l-0.01,0.025c-42.578,97.937-13.779,212.268,70.112,278.349
			s201.788,67.3,287.028,2.969s116.398-178.043,75.855-276.839C470.352,179.375,470.17,178.932,469.949,178.507z M164.169,69.271
			c3.024-1.35,4.971-4.352,4.971-7.664V50.361h8.393c4.636,0,8.393-3.758,8.393-8.393s-3.758-8.393-8.393-8.393H143.96
			c-4.634-0.005-8.389-3.76-8.393-8.393c-0.006-2.264,0.924-4.429,2.57-5.984c1.534-1.56,3.636-2.429,5.824-2.41H362.19
			c4.634,0.005,8.389,3.76,8.393,8.393c0.006,2.264-0.924,4.429-2.57,5.984c-1.534,1.56-3.636,2.429-5.824,2.41h-33.574
			c-4.636,0-8.393,3.758-8.393,8.393s3.758,8.393,8.393,8.393h8.393v11.246c0,3.312,1.948,6.314,4.971,7.664
			c45.636,20.436,82.871,55.923,105.477,100.524c-24.58-4.342-49.906-0.621-72.199,10.608c-1.806,0.891-3.599,1.627-5.399,2.432
			c0.49-3.563,0.744-7.155,0.759-10.752c0-53.229-52.713-96.541-117.508-96.541s-117.508,43.312-117.508,96.541
			c0.012,6.842,0.887,13.654,2.607,20.277c-16.231-3.355-31.87-9.118-46.398-17.096c-10.037-4.823-21.028-7.336-32.164-7.355
			C82.354,124.173,119.193,89.408,164.169,69.271z M366.673,272.435c2.138-0.863,3.828-2.567,4.672-4.712
			c0.844-2.146,0.769-4.544-0.209-6.632c-1.382-2.899-1.514-6.239-0.365-9.238c1.307-3.308,3.913-5.935,7.209-7.27
			c6.946-3.078,15.091-0.289,18.693,6.402c1.694,3.461,1.493,7.55-0.533,10.828c-1.415,2.337-1.603,5.217-0.505,7.719
			s3.344,4.313,6.022,4.855c4.198,0.787,7.805,3.454,9.787,7.238c1.366,2.814,1.511,6.067,0.402,8.992
			c-1.313,3.347-3.945,6.006-7.279,7.353c-6.929,3.037-15.031,0.299-18.697-6.32c-1.919-3.986-6.599-5.802-10.705-4.155
			l-47.454,19.135c0.443-3.235,0.722-6.491,0.838-9.754c5.305-3.475,9.738-8.128,12.952-13.595c0.156-0.278,0.257-0.57,0.404-0.849
			L366.673,272.435z M372.71,382.902c2.306,3.341,2.769,7.621,1.229,11.377c-2.961,7.038-10.98,10.448-18.102,7.697
			c-3.405-1.191-6.181-3.71-7.697-6.983c-1.442-3.128-1.555-6.706-0.311-9.918c1.617-4.246-0.437-9.008-4.635-10.746l-39.263-16.242
			c4.353-4.399,8.136-9.328,11.258-14.672l34.177,14.143c2.082,0.861,4.422,0.849,6.495-0.033c2.073-0.882,3.705-2.559,4.529-4.656
			c2.944-7.042,10.938-10.485,18.078-7.787c3.481,1.238,6.312,3.835,7.844,7.197c1.388,3.052,1.477,6.537,0.246,9.656
			c-1.613,4.003-5.028,7.005-9.205,8.09c-2.619,0.73-4.722,2.683-5.644,5.24C370.787,377.824,371.16,380.669,372.71,382.902
			L372.71,382.902z M158.362,385.074c1.243,3.212,1.131,6.791-0.311,9.918c-1.518,3.279-4.304,5.799-7.717,6.983
			c-7.159,2.763-15.213-0.704-18.127-7.803c-1.498-3.729-1.02-7.961,1.271-11.262c1.554-2.234,1.93-5.082,1.007-7.642
			c-0.923-2.56-3.029-4.514-5.651-5.243c-4.179-1.086-7.595-4.091-9.205-8.098c-1.231-3.116-1.142-6.598,0.246-9.648
			c1.529-3.358,4.355-5.952,7.832-7.189c7.141-2.723,15.154,0.723,18.09,7.779c0.824,2.097,2.456,3.774,4.529,4.656
			c2.073,0.882,4.414,0.893,6.495,0.033l34.206-14.156c3.122,5.344,6.903,10.273,11.256,14.673l-39.29,16.253
			C158.792,376.064,156.739,380.829,158.362,385.074L158.362,385.074z M110.051,261.804c-2.026-3.265-2.234-7.342-0.549-10.795
			c3.592-6.707,11.749-9.51,18.705-6.426c3.294,1.334,5.899,3.958,7.209,7.262c1.148,3.002,1.018,6.343-0.361,9.246
			c-0.977,2.088-1.053,4.487-0.209,6.632c0.844,2.146,2.533,3.85,4.672,4.712l24.81,10.012c0.144,0.275,0.242,0.559,0.395,0.832
			c3.215,5.467,7.647,10.119,12.952,13.594c0.116,3.269,0.396,6.529,0.84,9.769l-47.493-19.15
			c-4.106-1.644-8.784,0.172-10.705,4.156c-3.665,6.616-11.765,9.354-18.693,6.319c-3.337-1.346-5.97-4.01-7.279-7.361
			c-1.107-2.891-0.978-6.109,0.357-8.902c1.981-3.821,5.607-6.519,9.836-7.32c2.678-0.544,4.924-2.358,6.02-4.861
			C111.655,267.022,111.466,264.142,110.051,261.804L110.051,261.804z M202.678,329.585l-0.017-0.084
			c-0.027-0.066-0.085-0.105-0.113-0.168c-1.767-3.771-3.235-7.674-4.392-11.674c-0.074-0.207-0.104-0.418-0.194-0.618
			c-1.11-3.905-1.974-7.877-2.586-11.891c4.359,1.331,8.832,2.253,13.362,2.752c3.697,12.164,13.23,27.836,31.832,27.836h25.082
			c8.08,0.069,15.817-3.266,21.315-9.187l0.128-0.114c4.834-5.303,8.388-11.644,10.389-18.535c4.53-0.499,9.004-1.421,13.362-2.752
			c-0.606,3.979-1.459,7.916-2.554,11.789c-0.139,0.354-0.252,0.718-0.341,1.088c-1.108,3.787-2.497,7.487-4.155,11.068
			c-0.073,0.152-0.207,0.249-0.272,0.406c-0.027,0.066-0.014,0.133-0.039,0.199c-8.661,19.873-28.723,32.307-50.374,31.219
			C231.413,362.007,211.315,349.52,202.678,329.585L202.678,329.585z M331.53,222.021c-2.099-3.231-6.143-4.596-9.772-3.299
			c-3.628,1.297-5.89,4.917-5.466,8.746c0.713,10.87,3.816,21.45,9.086,30.984c3.673,4.776,4.255,11.244,1.492,16.598
			c-5.094,9.066-21.303,16.434-36.131,16.434c-4.146,0.014-7.666,3.042-8.299,7.139c-0.033,0.205-3.315,20.328-16.787,20.328
			h-25.082c-13.471,0-16.754-20.123-16.783-20.295c-0.604-4.12-4.139-7.173-8.303-7.172c-14.828,0-31.037-7.369-36.131-16.434
			c-2.763-5.351-2.182-11.818,1.492-16.59c5.273-9.536,8.375-20.118,9.086-30.992c0.423-3.829-1.839-7.448-5.467-8.745
			c-3.628-1.297-7.672,0.068-9.772,3.298c-13.935-12.907-21.991-30.946-22.302-49.938c0-43.975,45.184-79.754,100.721-79.754
			s100.721,35.779,100.721,79.754C353.522,191.075,345.465,209.114,331.53,222.021z M253.075,486.82
			c-72.923,0.124-141.072-36.246-181.561-96.895S23.563,252.391,51.637,185.089c11.227-1.397,22.619,0.432,32.844,5.273
			c24.021,11.658,42.122,18.66,60.292,19.314c6.296,11.969,15.013,22.498,25.597,30.917c-0.906,3.193-2.203,6.262-3.861,9.137
			c-2.554,4.102-4.314,8.648-5.189,13.4l-8.565-3.457c0.604-4.673,0.032-9.423-1.664-13.82c-2.921-7.57-8.819-13.61-16.316-16.713
			c-15.204-6.513-32.855-0.141-40.393,14.582c-2.632,5.46-3.426,11.625-2.262,17.574c-5.396,2.99-9.758,7.546-12.512,13.066
			c-3.367,6.941-3.719,14.964-0.971,22.172c2.912,7.647,8.851,13.753,16.414,16.877c12.429,5.286,26.84,2.151,35.951-7.82
			l52.269,21.076c0.177,0.512,0.4,1.025,0.586,1.537l-26.708,11.051c-8.38-10.546-22.568-14.544-35.221-9.926
			c-7.725,2.782-13.992,8.579-17.365,16.066c-3.252,7.163-3.456,15.339-0.566,22.656c2.271,5.821,6.307,10.785,11.541,14.197
			c-1.613,5.959-1.253,12.279,1.025,18.016c4.65,11.788,16.078,19.497,28.75,19.393c3.658,0.001,7.288-0.64,10.725-1.893
			c7.653-2.7,13.885-8.387,17.271-15.762c2.141-4.641,3.037-9.76,2.598-14.852l42.261-17.482
			c10.817,5.493,22.814,8.253,34.944,8.039c12.123,0.213,24.114-2.544,34.927-8.03l42.245,17.481
			c-0.44,5.09,0.456,10.206,2.598,14.844c3.383,7.37,9.606,13.056,17.25,15.762c3.448,1.249,7.087,1.89,10.754,1.893
			c12.633,0.118,24.037-7.546,28.701-19.287c2.296-5.769,2.667-12.126,1.058-18.123c5.237-3.406,9.275-8.368,11.545-14.189
			c2.889-7.32,2.684-15.498-0.566-22.664c-3.376-7.492-9.649-13.293-17.381-16.073c-12.651-4.596-26.823-0.597-35.205,9.934
			l-26.676-11.037c0.191-0.525,0.417-1.045,0.597-1.57l52.226-21.057c9.106,9.982,23.526,13.118,35.955,7.82
			c7.563-3.123,13.501-9.229,16.41-16.877c2.75-7.236,2.385-15.288-1.008-22.246c-2.747-5.496-7.097-10.029-12.475-13
			c1.16-5.955,0.363-12.125-2.27-17.59c-7.545-14.711-25.19-21.072-40.385-14.557c-7.497,3.103-13.394,9.143-16.316,16.713
			c-1.694,4.397-2.266,9.146-1.664,13.82l-8.529,3.445c-0.876-4.75-2.636-9.294-5.188-13.396c-1.658-2.873-2.955-5.94-3.859-9.131
			c12.514-9.914,22.33-22.821,28.542-37.529c6.262-2.163,12.385-4.71,18.334-7.627c22.76-11.609,49.167-13.823,73.543-6.165
			c26.312,67.137,17.723,142.942-22.943,202.49S325.184,486.895,253.075,486.82z"/>
	</g>
</g>
<g>
</g>
<g>
</g>
<g>
</g>
<g>
</g>
<g>
</g>
<g>
</g>
<g>
</g>
<g>
</g>
<g>
</g>
<g>
</g>
<g>
</g>
<g>
</g>
<g>
</g>
<g>
</g>
<g>
</g>
</svg>
