<?xml version="1.0" encoding="iso-8859-1"?>
<!-- Generator: Adobe Illustrator 19.0.0, SVG Export Plug-In . SVG Version: 6.00 Build 0)  -->
<svg version="1.1" id="Capa_1" xmlns="http://www.w3.org/2000/svg" xmlns:xlink="http://www.w3.org/1999/xlink" x="0px" y="0px"
	 viewBox="0 0 512 512" style="enable-background:new 0 0 512 512;" xml:space="preserve">
<g>
	<g transform="translate(1 1)">
		<path style="fill:#F44335;" d="M50.2,272.067L32.355,301.81c-1.582,2.636-1.623,5.919-0.108,8.595
			c1.515,2.675,4.351,4.329,7.426,4.329h48.364c2.997,0,5.775-1.573,7.317-4.143l23.114-38.524v-34.133l-23.125-38.485
			c-0.385-0.647-0.844-1.249-1.365-1.792c-1.594-1.559-3.744-2.419-5.973-2.389H39.704c-3.071-0.01-5.909,1.633-7.429,4.302
			c-1.52,2.668-1.485,5.948,0.09,8.584L50.2,237.934V272.067z"/>
		<path style="fill:#795548;" d="M378.051,237.934l64.683,0v34.134H24.6C15.186,272.039,7.561,264.414,7.534,255
			c-0.024-4.528,1.793-8.871,5.035-12.032c3.161-3.241,7.504-5.058,12.032-5.035H378.051z"/>
		<path style="fill:#FEC108;" d="M396.483,303.896c12.513,20.016,15.508,44.549,8.177,66.987
			c-7.331,22.438-24.233,40.471-46.15,49.237l-30.379,12.117c-28.734,11.463-47.57,39.293-47.531,70.229
			c-9.414-0.028-17.039-7.653-17.067-17.067v-25.6c0-26.624,13.824-42.069,34.816-51.969l22.357-10.496
			c11.265-5.475,20.564-14.297,26.624-25.259c6.7-11.712,10.174-24.992,10.069-38.485c0.051-12.687-2.996-25.195-8.875-36.437
			l-9.49-15.838c-9.708-16.201-9.708-36.431,0-52.633l9.49-15.838c5.879-11.243,8.925-23.751,8.875-36.438
			c0.105-13.493-3.369-26.773-10.069-38.485c-6.06-10.962-15.359-19.784-26.624-25.259l-22.357-10.496
			c-20.992-9.899-34.816-25.344-34.816-51.968V24.6c0.027-9.414,7.652-17.039,17.067-17.067c0,15.114,4.517,29.882,12.971,42.411
			c8.507,12.495,20.536,22.178,34.56,27.819L358.51,89.88c21.917,8.767,38.819,26.799,46.15,49.237s4.336,46.972-8.177,66.987
			l-13.6,21.767c-10.371,16.599-10.371,37.659,0,54.259L396.483,303.896z"/>
		<polygon style="fill:#CFD8DC;" points="502.467,255 434.2,297.667 434.2,212.334 		"/>
	</g>
	<path d="M507.988,248.767L439.721,206.1c-2.629-1.647-5.946-1.736-8.66-0.232c-2.714,1.504-4.397,4.363-4.394,7.466V230.4H392.99
		l11.719-18.758c13.861-22.159,17.181-49.324,9.064-74.169c-8.116-24.845-26.833-44.811-51.102-54.514l-30.379-12.117
		c-12.441-4.992-23.111-13.58-30.646-24.667c-7.512-11.115-11.522-24.226-11.513-37.642c0.001-2.263-0.898-4.434-2.499-6.035
		C286.035,0.898,283.864,0,281.6,0c-14.132,0.015-25.585,11.468-25.6,25.6v13.317L93.523,188.394c-1.471-0.418-2.99-0.64-4.519-0.66
		h-48.3c-6.143-0.009-11.815,3.286-14.85,8.627c-3.034,5.341-2.961,11.901,0.191,17.173l10.1,16.867H25.6
		c-6.76-0.053-13.252,2.638-17.992,7.458C2.712,242.62-0.035,249.17,0,256c0.015,14.132,11.468,25.585,25.6,25.6h10.528
		l-10.091,16.817c-3.164,5.273-3.247,11.839-0.218,17.19s8.702,8.659,14.851,8.66h48.362c1.527-0.007,3.046-0.222,4.516-0.638
		L256,473.083V486.4c0.015,14.132,11.468,25.585,25.6,25.6c2.263,0.001,4.434-0.898,6.035-2.499c1.6-1.6,2.499-3.771,2.499-6.035
		c-0.032-27.443,16.672-52.131,42.158-62.308l30.387-12.117c24.267-9.706,42.981-29.673,51.095-54.517
		c8.114-24.844,4.794-52.008-9.066-74.166L392.99,281.6h33.677v17.067c-0.002,3.102,1.681,5.961,4.395,7.465
		c2.714,1.504,6.03,1.415,8.659-0.231l68.267-42.667c2.496-1.557,4.012-4.291,4.012-7.233
		C512,253.058,510.484,250.324,507.988,248.767z M256.677,450.506L106.084,311.962l18.215-30.362h205.815
		c0.818,1.719,1.611,3.446,2.603,5.1l9.271,15.45c5.23,10.01,7.935,21.148,7.879,32.442c0.106,12.014-2.984,23.84-8.954,34.267
		c-5.172,9.442-13.151,17.042-22.833,21.75l-22.371,10.508C272.449,412.085,259.618,428.313,256.677,450.506z M342.205,209.467
		l-9.488,15.833c-0.992,1.654-1.784,3.381-2.603,5.1H124.291l-18.229-30.341L256.677,61.494
		c2.94,22.194,15.773,38.423,39.044,49.398l22.367,10.5c9.707,4.731,17.701,12.364,22.875,21.842
		c5.942,10.402,9.015,22.196,8.904,34.175C349.937,188.556,347.308,199.555,342.205,209.467z M40.704,204.8l48.325,0.042
		l15.358,25.558H56.036L40.704,204.8z M17.067,256c-0.005-2.301,0.941-4.502,2.612-6.083c1.56-1.586,3.697-2.47,5.921-2.45h299.256
		c-0.82,5.659-0.82,11.407,0,17.067H25.6C20.889,264.529,17.072,260.711,17.067,256z M56.032,281.6h48.362l-15.361,25.6H40.671
		L56.032,281.6z M356.346,413.192l-30.379,12.117c-27.588,11.012-47.315,35.767-51.892,65.117c-0.662-1.238-1.009-2.621-1.008-4.025
		v-25.6c0-20.842,9.229-34.492,29.913-44.242l22.35-10.5c12.851-6.178,23.463-16.199,30.367-28.675
		c7.47-13.017,11.348-27.784,11.237-42.792c0.04-14.23-3.425-28.251-10.087-40.825l-9.488-15.833
		c-8.108-13.498-8.108-30.368,0-43.867l9.704-16.217c6.537-12.475,9.925-26.359,9.871-40.442c0.115-14.973-3.746-29.707-11.187-42.7
		c-6.905-12.512-17.533-22.566-30.409-28.767L302.992,95.45c-20.696-9.758-29.925-23.408-29.925-44.25V25.6
		c0-1.404,0.346-2.787,1.008-4.025c1.918,12.247,6.512,23.921,13.454,34.192c9.45,13.903,22.833,24.671,38.438,30.925l30.371,12.117
		c19.571,7.824,34.664,23.923,41.211,43.957c6.547,20.034,3.872,41.939-7.302,59.81l-13.6,21.766
		c-2.077,3.415-3.8,7.033-5.141,10.798c-0.212,0.456-0.382,0.931-0.508,1.418c-4.301,12.605-4.301,26.281,0,38.886
		c0.126,0.487,0.296,0.961,0.508,1.417c1.341,3.765,3.064,7.384,5.141,10.799l13.6,21.767l0.013,0.017
		c11.165,17.87,13.834,39.771,7.288,59.799C391,389.271,375.911,405.367,356.346,413.192L356.346,413.192z M385.637,264.534
		c-1.138-5.632-1.138-11.435,0-17.067h41.03v17.067H385.637z M443.734,283.267v-54.533L487.367,256L443.734,283.267z"/>
</g>
<g>
</g>
<g>
</g>
<g>
</g>
<g>
</g>
<g>
</g>
<g>
</g>
<g>
</g>
<g>
</g>
<g>
</g>
<g>
</g>
<g>
</g>
<g>
</g>
<g>
</g>
<g>
</g>
<g>
</g>
</svg>
