<?xml version="1.0" encoding="iso-8859-1"?>
<!-- Generator: Adobe Illustrator 19.0.0, SVG Export Plug-In . SVG Version: 6.00 Build 0)  -->
<svg version="1.1" id="Capa_1" xmlns="http://www.w3.org/2000/svg" xmlns:xlink="http://www.w3.org/1999/xlink" x="0px" y="0px"
	 viewBox="0 0 512.002 512.002" style="enable-background:new 0 0 512.002 512.002;" xml:space="preserve">
<g>
	<g transform="translate(1 1)">
		<g>
			<path style="fill:#D84315;" d="M135.534,459.802v42.667h-17.067v-42.667c0-4.713,3.821-8.533,8.533-8.533
				S135.534,455.089,135.534,459.802z"/>
			<path style="fill:#D84315;" d="M502.468,422.17v71.765c-0.014,4.707-3.826,8.519-8.533,8.533H220.868
				c-28.268-0.022-51.178-22.932-51.2-51.2v-94.72c-0.01-13.663-11.083-24.737-24.747-24.747
				c-12.719,0.05-25.015-4.564-34.56-12.971h289.28c24.203,7.743,47.017,19.294,67.584,34.219
				C489.436,369.054,502.56,394.793,502.468,422.17z"/>
		</g>
		<g>
			<path style="fill:#FF5722;" d="M220.868,502.469h-85.333v-42.667c0-4.713-3.821-8.533-8.533-8.533s-8.533,3.821-8.533,8.533
				v42.667h-102.4c-4.707-0.014-8.519-3.826-8.533-8.533V422.17c-0.092-27.377,13.031-53.116,35.243-69.12
				c15.702-11.32,32.688-20.743,50.603-28.075c6.4-2.645,12.117-4.608,16.896-6.144h0.085c9.545,8.406,21.841,13.021,34.56,12.971
				c13.663,0.01,24.737,11.083,24.747,24.747v94.72C169.69,479.536,192.6,502.446,220.868,502.469z"/>
			<path style="fill:#FF5722;" d="M84.761,318.831h25.515c-4.779,1.536-10.496,3.499-16.896,6.144
				C90.283,323.261,87.391,321.2,84.761,318.831z"/>
			<path style="fill:#FF5722;" d="M476.868,422.17v71.765c-0.014,4.707-3.826,8.519-8.533,8.533H220.868
				c-28.268-0.022-51.178-22.932-51.2-51.2v-94.72c-0.01-13.663-11.083-24.737-24.747-24.747
				c-12.719,0.05-25.015-4.564-34.56-12.971h263.68c5.731,1.764,11.37,3.815,16.896,6.144h0.085
				c17.915,7.332,34.9,16.755,50.603,28.075C463.836,369.054,476.96,394.793,476.868,422.17z"/>
		</g>
		<path style="fill:#F57C00;" d="M417.049,277.871c0.909,15.622-5.53,30.773-17.408,40.96c-2.63,2.369-5.522,4.43-8.619,6.144
			h-0.085c-7.871,4.503-16.788,6.857-25.856,6.827c-13.663,0.01-24.737,11.083-24.747,24.747v94.72
			c-0.022,28.268-22.932,51.178-51.2,51.2h-68.267c-28.268-0.022-51.178-22.932-51.2-51.2v-94.72
			c-0.01-13.663-11.083-24.737-24.747-24.747c-12.719,0.05-25.015-4.564-34.56-12.971h-0.085
			c-11.027-9.613-17.371-23.515-17.408-38.144c0-0.939,0-1.877,0.085-2.816l11.008-205.653
			c2.274-36.565,32.741-64.971,69.376-64.683h163.328c36.635-0.288,67.102,28.117,69.376,64.683L417.049,277.871z"/>
		<g>
			<path style="fill:#FF9801;" d="M84.761,318.831h25.515c-4.779,1.536-10.496,3.499-16.896,6.144
				C90.283,323.261,87.391,321.2,84.761,318.831z"/>
			<path style="fill:#FF9801;" d="M391.449,277.871c0.909,15.622-5.53,30.773-17.408,40.96c-9.545,8.406-21.841,13.021-34.56,12.971
				c-13.663,0.01-24.737,11.083-24.747,24.747v94.72c-0.022,28.268-22.932,51.178-51.2,51.2h-42.667
				c-28.268-0.022-51.178-22.932-51.2-51.2v-94.72c-0.01-13.663-11.083-24.737-24.747-24.747
				c-12.719,0.05-25.015-4.564-34.56-12.971h-0.085c-11.027-9.613-17.371-23.515-17.408-38.144c0-0.939,0-1.877,0.085-2.816
				l11.008-205.653c2.274-36.565,32.741-64.971,69.376-64.683h137.728c36.635-0.288,67.102,28.117,69.376,64.683L391.449,277.871z"
				/>
		</g>
		<path style="fill:#02A9F4;" d="M151.822,280.602c-4.516-0.01-8.814-1.948-11.812-5.325c-3.113-3.45-4.716-8.002-4.451-12.642
			l10.334-163.033c0.491-17.719,14.79-31.94,32.512-32.333h153.195c17.062,1.855,30.563,15.282,32.512,32.333l10.334,163.033
			c0.265,4.639-1.338,9.192-4.451,12.642c-2.999,3.377-7.296,5.315-11.813,5.325H151.822z"/>
		<polygon style="fill:#00BCD4;" points="237.934,280.602 314.734,67.269 263.534,67.269 186.734,280.602 		"/>
	</g>
	<g>
		<path d="M152.818,290.135h206.367c6.923-0.002,13.517-2.958,18.125-8.125c4.663-5.159,7.059-11.975,6.65-18.917l-10.325-162.925
			c-2.217-21.571-19.431-38.534-41.033-40.433h-153.2c-22.228,0.38-40.262,18.107-41.025,40.325l-10.342,163.15
			c-0.382,6.899,2.009,13.665,6.642,18.792C139.29,287.172,145.888,290.13,152.818,290.135z M303.596,76.802L232.94,273.069h-33.068
			l70.656-196.267H303.596z M356.593,101.144l10.325,162.917c0.155,2.38-0.66,4.722-2.258,6.492
			c-1.374,1.592-3.372,2.51-5.475,2.517H251.072l70.656-196.267h10.873C345.115,78.69,354.886,88.604,356.593,101.144z
			 M155.418,101.035c0.265-13.176,10.811-23.831,23.983-24.233h72.995L181.74,273.069h-28.923c-2.109-0.01-4.111-0.93-5.492-2.525
			c-1.568-1.738-2.378-4.03-2.25-6.367L155.418,101.035z"/>
		<path d="M473.201,347.119c-17.785-12.829-37.158-23.297-57.635-31.144c7.881-10.883,11.77-24.149,11.01-37.565L415.56,72.76
			c-2.52-41.091-36.725-73.042-77.892-72.758H174.334c-41.167-0.281-75.373,31.668-77.9,72.758l-11,205.642
			c-0.766,13.417,3.119,26.688,11.002,37.572c-20.477,7.846-39.851,18.315-57.635,31.144c-24.421,17.627-38.862,45.932-38.8,76.05
			v71.767c0.012,9.421,7.646,17.054,17.067,17.067h477.867c9.421-0.012,17.054-7.646,17.067-17.067v-71.767
			C512.063,393.051,497.622,364.745,473.201,347.119z M113.484,73.677c2.032-32.035,28.752-56.893,60.85-56.608h163.333
			c32.098-0.284,58.818,24.574,60.85,56.608l11.017,205.658c0.659,11.575-3.522,22.903-11.542,31.275
			c-8.279,8.785-19.837,13.732-31.908,13.659c-18.373,0.023-33.261,14.911-33.283,33.283v43.517h-17.748
			c-4.206-29.38-29.372-51.2-59.052-51.2s-54.846,21.819-59.052,51.2h-17.748v-43.517c-0.023-18.373-14.911-33.261-33.283-33.283
			c-12.071,0.074-23.629-4.874-31.908-13.658c-8.022-8.373-12.201-19.706-11.533-31.283L113.484,73.677z M298.668,409.602
			c-0.057,4.569-0.857,9.098-2.369,13.41l-15.168-8.758c2.427-12.366-4.665-24.622-16.596-28.68v-17.777
			C284.384,371.878,298.64,389.337,298.668,409.602z M247.468,409.602c0-4.713,3.82-8.533,8.533-8.533s8.533,3.821,8.533,8.533
			s-3.82,8.533-8.533,8.533C251.289,418.132,247.471,414.313,247.468,409.602z M247.468,385.574
			c-11.931,4.058-19.023,16.313-16.596,28.68l-15.168,8.758c-1.512-4.312-2.312-8.841-2.369-13.41
			c0.028-20.265,14.283-37.724,34.133-41.804V385.574z M239.48,428.994c9.459,8.278,23.584,8.278,33.043,0l15.25,8.806
			c-7.999,9.192-19.586,14.469-31.771,14.469c-12.185,0-23.773-5.277-31.771-14.469L239.48,428.994z M136.534,494.935v-34.133
			c0-4.713-3.821-8.533-8.533-8.533c-4.713,0-8.533,3.821-8.533,8.533v34.133h-102.4l0-71.767
			c-0.073-24.613,11.715-47.754,31.667-62.167c18.628-13.508,39.163-24.17,60.929-31.635c10.503,7.746,23.204,11.939,36.255,11.969
			c8.952,0.01,16.206,7.265,16.217,16.217v94.717c-0.002,16.07,6.494,31.459,18.011,42.667H136.534z M221.868,494.935
			c-23.553-0.028-42.639-19.114-42.667-42.667v-34.133h17.748c1.057,7.4,3.504,14.534,7.214,21.024
			c0.053,0.099,0.047,0.211,0.104,0.309c0.111,0.192,0.272,0.331,0.395,0.511c10.705,18.189,30.234,29.356,51.339,29.355
			c21.105,0,40.634-11.168,51.338-29.357c0.123-0.18,0.283-0.318,0.394-0.51c0.057-0.098,0.051-0.21,0.104-0.309
			c3.71-6.49,6.157-13.624,7.214-21.024h17.748v34.133c-0.028,23.553-19.114,42.639-42.667,42.667H221.868z M494.935,494.935h-102.4
			v-34.133c0-4.713-3.821-8.533-8.533-8.533s-8.533,3.821-8.533,8.533v34.133h-43.611c11.517-11.208,18.013-26.596,18.011-42.667
			v-94.717c0.01-8.952,7.265-16.206,16.217-16.217c13.051-0.03,25.752-4.223,36.255-11.969c21.766,7.466,42.3,18.128,60.928,31.635
			c19.952,14.413,31.74,37.554,31.667,62.167L494.935,494.935z"/>
	</g>
</g>
<g>
</g>
<g>
</g>
<g>
</g>
<g>
</g>
<g>
</g>
<g>
</g>
<g>
</g>
<g>
</g>
<g>
</g>
<g>
</g>
<g>
</g>
<g>
</g>
<g>
</g>
<g>
</g>
<g>
</g>
</svg>
