<?xml version="1.0" encoding="iso-8859-1"?>
<!-- Generator: Adobe Illustrator 19.0.0, SVG Export Plug-In . SVG Version: 6.00 Build 0)  -->
<svg version="1.1" id="Capa_1" xmlns="http://www.w3.org/2000/svg" xmlns:xlink="http://www.w3.org/1999/xlink" x="0px" y="0px"
	 viewBox="0 0 511.999 511.999" style="enable-background:new 0 0 511.999 511.999;" xml:space="preserve">
<g>
	<g transform="translate(1 1)">
		<g>
			<rect x="255" y="400.062" style="fill:#00695C;" width="25.6" height="68.267"/>
			<path style="fill:#00695C;" d="M331.8,351.081v40.448c-0.014,4.707-3.826,8.519-8.533,8.533h-25.6
				c4.707-0.014,8.519-3.826,8.533-8.533v-40.448c0.006-1.457-0.346-2.892-1.024-4.182l-33.877-61.611l-12.8-23.211l-25.685-46.677
				l-18.091-32.768c-1.473-2.73-4.322-4.433-7.424-4.437h25.6c3.102,0.004,5.952,1.707,7.425,4.437l19.883,30.976l-1.792,1.792
				l16.64,30.123l9.045,16.555l7.253,13.141l39.424,71.68C331.454,348.189,331.806,349.625,331.8,351.081z"/>
			<path style="fill:#00695C;" d="M498.797,47.38L474.307,71.87c5.461-5.461,4.693-15.36-1.28-24.32l0.171-0.171
				c6.656-6.656,4.011-20.139-5.973-30.208c-1.777-1.784-3.753-3.358-5.888-4.693l1.28-1.28c6.656-6.656,20.139-4.011,30.208,5.973
				C502.808,27.241,505.453,40.724,498.797,47.38z"/>
		</g>
		<g>
			<path style="fill:#009688;" d="M305.176,346.9l-33.877-61.611l-12.8-23.211l-25.685-46.677l-18.091-32.768
				c-1.473-2.73-4.322-4.433-7.424-4.437H16.067c-4.707,0.014-8.519,3.826-8.533,8.533v204.8c0.014,4.707,3.826,8.519,8.533,8.533
				h281.6c4.707-0.014,8.519-3.826,8.533-8.533v-40.448C306.206,349.625,305.854,348.189,305.176,346.9z M181.016,348.862
				l-36.949-20.395l-36.949,20.395l7.083-43.264l-29.867-30.549l41.301-6.315l18.432-39.339l18.432,39.339l41.301,6.315
				l-29.867,30.549L181.016,348.862z"/>
			<polygon style="fill:#009688;" points="114.2,305.598 84.333,275.049 125.635,268.734 144.067,229.396 162.499,268.734 
				203.8,275.049 173.933,305.598 181.016,348.862 144.067,328.468 107.117,348.862 			"/>
			<rect x="24.6" y="400.062" style="fill:#009688;" width="230.4" height="68.267"/>
		</g>
		<path style="fill:#37474F;" d="M498.797,47.38L474.307,71.87c5.461-5.461,4.693-15.36-1.28-24.32
			c-1.335-2.135-2.91-4.111-4.693-5.888c-10.069-9.984-23.552-12.629-30.208-5.973l23.211-23.211l1.28-1.28
			c6.656-6.656,20.139-4.011,30.208,5.973C502.808,27.241,505.453,40.724,498.797,47.38z"/>
		<g>
			<path style="fill:#00695C;" d="M474.307,71.87L288.451,257.726l-4.352,4.352l-9.045-16.554L473.027,47.55
				C479,56.51,479.768,66.409,474.307,71.87z"/>
			<path style="fill:#00695C;" d="M473.027,47.55L275.053,245.524l-16.64-30.123l1.792-1.792l177.92-177.92
				c6.656-6.656,20.139-4.011,30.208,5.973C470.117,43.44,471.692,45.415,473.027,47.55z"/>
		</g>
		<rect x="24.6" y="400.062" style="fill:#37474F;" width="256" height="68.267"/>
		<rect x="24.6" y="400.062" style="fill:#607D8B;" width="221.867" height="68.267"/>
		<polygon style="fill:#FFEB3A;" points="173.933,305.598 181.016,348.862 144.067,328.468 107.117,348.862 114.2,305.598 
			84.333,275.049 125.635,268.734 144.067,229.396 162.499,268.734 203.8,275.049 		"/>
		<path style="fill:#00695C;" d="M502.467,468.329l-14.677,29.44c-1.464,2.893-4.438,4.71-7.68,4.693l-25.6,0
			c3.242,0.016,6.216-1.801,7.68-4.693l14.677-29.44H502.467z"/>
		<path style="fill:#009688;" d="M476.867,468.329l-14.677,29.44c-1.464,2.893-4.438,4.71-7.68,4.693H16.067
			c-4.707-0.014-8.519-3.826-8.533-8.533v-17.067c0.014-4.707,3.826-8.519,8.533-8.533H476.867z"/>
	</g>
	<g>
		<path d="M106.083,309.512l-6.354,38.975c-0.528,3.225,0.834,6.469,3.506,8.351c2.672,1.882,6.184,2.073,9.044,0.49l32.788-18.125
			l32.788,18.125c2.86,1.582,6.372,1.392,9.044-0.49c2.672-1.882,4.033-5.126,3.506-8.351l-6.354-38.975l26.858-27.525
			c2.233-2.289,2.999-5.635,1.983-8.667c-1.016-3.033-3.642-5.242-6.804-5.724l-36.771-5.625l-16.525-35.2
			c-1.406-2.995-4.416-4.908-7.725-4.908c-3.309,0-6.319,1.913-7.725,4.908l-16.525,35.2l-36.771,5.625
			c-3.162,0.482-5.788,2.692-6.804,5.724c-1.016,3.032-0.25,6.378,1.983,8.667L106.083,309.512z M127.896,278.154
			c2.814-0.426,5.23-2.231,6.438-4.808l10.733-22.867l10.733,22.867c1.208,2.578,3.623,4.382,6.438,4.808l24.858,3.8l-18.271,18.725
			c-1.893,1.938-2.751,4.66-2.313,7.333l4.221,25.883l-21.537-11.908c-2.569-1.422-5.689-1.422-8.258,0L119.4,333.896l4.221-25.883
			c0.439-2.673-0.42-5.395-2.313-7.333l-18.271-18.725L127.896,278.154z"/>
		<path d="M17.067,511.996h464.058c6.471,0.022,12.392-3.636,15.267-9.433l14.708-29.417c1.321-2.646,1.179-5.786-0.376-8.302
			c-1.555-2.515-4.3-4.047-7.257-4.048H290.133v-51.2h34.133c9.421-0.011,17.056-7.645,17.067-17.067v-40.475
			c0-2.873-0.727-5.7-2.112-8.217l-43.578-79.235L481.323,78.92l0.023-0.016l0.026-0.034l24.457-24.457
			c10.125-10.125,7.513-28.683-5.996-42.3C486.263-1.346,467.7-3.963,457.583,6.162l-24.49,24.49l-0.002,0.002l-0.001,0.002
			l-171.687,171.69l-12.558-22.833c-2.997-5.459-8.731-8.851-14.958-8.85H17.067C7.645,170.673,0.011,178.308,0,187.729v204.8
			c0.011,9.421,7.645,17.056,17.067,17.067v51.2C7.645,460.807,0.011,468.441,0,477.862v17.067
			C0.011,504.35,7.645,511.985,17.067,511.996z M487.767,24.179c7.342,7.408,8.454,15.708,5.996,18.167l-8.823,8.823
			c-4.387-11.008-13.105-19.728-24.111-24.118l8.822-8.822C472.117,15.787,480.417,16.896,487.767,24.179z M445.16,42.72
			c2.471-2.44,10.766-1.34,18.115,5.951c7.342,7.408,8.458,15.708,5.996,18.167l-0.001,0.002L287.08,249.033l-17.113-31.116
			L445.16,42.72z M17.067,187.729h216.821l90.379,164.333v40.467h-307.2V187.729z M34.133,409.596h238.933v51.2H34.133V409.596z
			 M17.067,477.862h472.592l-8.533,17.067H17.067l-0.012-17.067H17.067z"/>
	</g>
</g>
<g>
</g>
<g>
</g>
<g>
</g>
<g>
</g>
<g>
</g>
<g>
</g>
<g>
</g>
<g>
</g>
<g>
</g>
<g>
</g>
<g>
</g>
<g>
</g>
<g>
</g>
<g>
</g>
<g>
</g>
</svg>
