<?xml version="1.0" encoding="iso-8859-1"?>
<!-- Generator: Adobe Illustrator 19.0.0, SVG Export Plug-In . SVG Version: 6.00 Build 0)  -->
<svg version="1.1" id="Capa_1" xmlns="http://www.w3.org/2000/svg" xmlns:xlink="http://www.w3.org/1999/xlink" x="0px" y="0px"
	 viewBox="0 0 512 512" style="enable-background:new 0 0 512 512;" xml:space="preserve">
<g>
	<g transform="translate(1 1)">
		<path style="fill:#CFD8DC;" d="M502.467,235.63v62.037c-0.014,4.707-3.826,8.52-8.533,8.533H357.4v34.133h-25.6
			c-4.707-0.014-8.52-3.826-8.533-8.533v-17.067H33.133c-4.707-0.014-8.52-3.826-8.533-8.533v-8.533L7.533,263.534v-17.067h315.733
			v-102.4h77.909c4.249,0.006,7.848,3.133,8.448,7.339l7.509,52.395l70.656,14.933C496.189,219.956,502.431,227.141,502.467,235.63z
			"/>
		<path style="fill:#F5F5F5;" d="M476.867,235.63v62.037c0.005,3.878-2.636,7.259-6.4,8.192c-0.684,0.244-1.407,0.36-2.133,0.341
			H357.4v34.133h-25.6c-4.707-0.014-8.52-3.826-8.533-8.533v-17.067H33.133c-4.707-0.014-8.52-3.826-8.533-8.533v-8.533
			L7.533,263.534v-17.067h315.733v-102.4h52.309c4.249,0.006,7.848,3.133,8.448,7.339l6.997,48.64l0.513,3.755l70.656,14.933
			C470.589,219.956,476.831,227.141,476.867,235.63z"/>
		<path style="fill:#37474F;" d="M493.933,348.867c0,28.277-22.923,51.2-51.2,51.2c-28.277,0-51.2-22.923-51.2-51.2
			c-0.006-2.862,0.251-5.719,0.769-8.533c2.844-16.973,14.038-31.375,29.784-38.32c15.746-6.945,33.929-5.5,48.381,3.845
			c0.171,0.085,0.341,0.256,0.512,0.341C485.321,315.655,493.947,331.689,493.933,348.867z"/>
		<circle style="fill:#E6E7E8;" cx="442.733" cy="348.867" r="17.067"/>
		<path style="fill:#FFFFFF;" d="M357.4,306.2v34.133h-25.6c-4.707-0.014-8.52-3.826-8.533-8.533v-25.6H357.4z"/>
		<path style="fill:#F5F5F5;" d="M414.488,306.2c-11.832,7.786-19.874,20.159-22.185,34.133H357.4V306.2H414.488z"/>
		<rect x="289.133" y="280.6" style="fill:#FFFFFF;" width="34.133" height="34.133"/>
		<path style="fill:#558B30;" d="M289.133,127v136.533H7.533V127c0.028-9.414,7.652-17.039,17.067-17.067h247.467
			C281.481,109.961,289.106,117.586,289.133,127z"/>
		<path style="fill:#8BC34A;" d="M263.533,127v136.533h-256V127c0.028-9.414,7.652-17.039,17.067-17.067h221.867
			C255.881,109.961,263.506,117.586,263.533,127z"/>
		<path style="fill:#2296F3;" d="M417.133,203.8l-52.395-7.509c-4.206-0.6-7.332-4.199-7.339-8.448v-43.776h43.776
			c4.249,0.006,7.848,3.133,8.448,7.339L417.133,203.8z"/>
		<rect x="289.133" y="246.467" style="fill:#FFFFFF;" width="34.133" height="34.133"/>
		<path style="fill:#2E7D32;" d="M289.133,127v85.333H7.533V127c0.028-9.414,7.652-17.039,17.067-17.067h247.467
			C281.481,109.961,289.106,117.586,289.133,127z"/>
		<path style="fill:#4CAF50;" d="M263.533,127v85.333h-256V127c0.028-9.414,7.652-17.039,17.067-17.067h221.867
			C255.881,109.961,263.506,117.586,263.533,127z"/>
		<circle style="fill:#37474F;" cx="220.867" cy="348.867" r="51.2"/>
		<circle style="fill:#E6E7E8;" cx="220.867" cy="348.867" r="17.067"/>
		<circle style="fill:#37474F;" cx="84.333" cy="348.867" r="51.2"/>
		<circle style="fill:#E6E7E8;" cx="84.333" cy="348.867" r="17.067"/>
	</g>
	<g>
		<path d="M490.558,211.384l-64.825-13.7l-6.633-46.5c-1.237-8.39-8.42-14.616-16.9-14.65h-69.4v-17.067
			c0-4.713-3.82-8.533-8.533-8.533s-8.533,3.821-8.533,8.533v119.467h-17.067V128c-0.015-14.132-11.468-25.585-25.6-25.6H25.6
			C11.468,102.416,0.015,113.868,0,128v136.533c0,0.11,0.058,0.201,0.062,0.31c0.036,0.898,0.215,1.785,0.53,2.627
			c0.07,0.189,0.113,0.38,0.197,0.562c0.046,0.104,0.06,0.216,0.11,0.318l16.167,32.333v6.517
			c0.025,8.414,6.185,15.552,14.505,16.808c-11.203,23.045-6.348,50.679,12.04,68.526H8.533c-4.713,0-8.533,3.82-8.533,8.533
			s3.821,8.533,8.533,8.533h307.2c4.713,0,8.533-3.82,8.533-8.533s-3.821-8.533-8.533-8.533h-52.145
			c18.312-17.773,23.21-45.263,12.165-68.267h39.98v8.533c0.012,9.421,7.646,17.054,17.067,17.067H384
			c-0.002,16.07,6.494,31.459,18.011,42.667h-52.145c-4.713,0-8.533,3.82-8.533,8.533s3.821,8.533,8.533,8.533h153.6
			c4.713,0,8.533-3.82,8.533-8.533s-3.82-8.533-8.533-8.533h-18.012c20.931-20.357,23.993-52.896,7.226-76.8h2.252
			c9.421-0.012,17.054-7.646,17.067-17.067v-62.033C512.076,224.074,502.964,213.344,490.558,211.384z M408.075,194.741
			l-41.142-5.875V153.6H402.2L408.075,194.741z M315.733,256v17.067h-17.067V256H315.733z M17.067,221.867H51.2v8.533
			c0,4.713,3.821,8.533,8.533,8.533s8.533-3.821,8.533-8.533v-8.533h25.6v8.533c0,4.713,3.821,8.533,8.533,8.533
			c4.713,0,8.533-3.821,8.533-8.533v-8.533h25.6v8.533c0,4.713,3.821,8.533,8.533,8.533c4.713,0,8.533-3.821,8.533-8.533v-8.533
			h25.6v8.533c0,4.713,3.821,8.533,8.533,8.533c4.713,0,8.533-3.821,8.533-8.533v-8.533h25.6v8.533c0,4.713,3.82,8.533,8.533,8.533
			s8.533-3.821,8.533-8.533v-8.533H281.6V256H17.067V221.867z M17.067,128c0.003-4.712,3.822-8.53,8.533-8.533h247.467
			c4.712,0.003,8.53,3.822,8.533,8.533v76.8H17.067V128z M42.667,349.867c0-23.564,19.103-42.667,42.667-42.667
			S128,326.303,128,349.867s-19.103,42.667-42.667,42.667C61.781,392.506,42.694,373.42,42.667,349.867z M127.055,392.534
			c18.312-17.773,23.21-45.263,12.165-68.267h28.76c-11.046,23.004-6.147,50.494,12.165,68.267H127.055z M221.867,392.534
			c-23.564,0-42.667-19.103-42.667-42.667s19.103-42.667,42.667-42.667s42.667,19.103,42.667,42.667
			C264.506,373.42,245.419,392.506,221.867,392.534z M221.867,290.134c-15.607-0.003-30.591,6.127-41.722,17.067h-53.09
			c-23.16-22.756-60.283-22.756-83.444,0h-9.478v-8.533c0-1.325-0.308-2.632-0.9-3.817l-10.892-21.783H281.6V307.2h-13.141
			c-1.348,0.026-2.67,0.378-3.852,1.026C253.395,296.661,237.975,290.133,221.867,290.134z M298.667,307.2v-17.067h17.067V307.2
			H298.667z M332.8,315.734h17.067V332.8H332.8V315.734z M366.933,332.8v-17.067h27.852c-3.651,5.21-6.443,10.972-8.269,17.067
			H366.933z M443.733,392.534c-23.564,0-42.667-19.103-42.667-42.667s19.103-42.667,42.667-42.667
			c23.564,0,42.667,19.103,42.667,42.667C486.372,373.42,467.286,392.506,443.733,392.534z M494.933,298.667H474.34
			c-18.818-11.378-42.394-11.378-61.211,0H332.8V153.6h17.067v35.267c0.034,8.48,6.26,15.663,14.65,16.9l52.147,7.446l70.845,14.954
			c4.236,0.583,7.4,4.191,7.425,8.467V298.667z"/>
		<path d="M443.733,324.267c-14.138,0-25.6,11.462-25.6,25.6s11.462,25.6,25.6,25.6c14.138,0,25.6-11.462,25.6-25.6
			C469.318,335.735,457.865,324.282,443.733,324.267z M443.733,358.4c-4.713,0-8.533-3.82-8.533-8.533s3.821-8.533,8.533-8.533
			c4.713,0,8.533,3.82,8.533,8.533C452.264,354.578,448.445,358.397,443.733,358.4z"/>
		<path d="M221.867,324.267c-14.139,0-25.6,11.462-25.6,25.6s11.462,25.6,25.6,25.6c14.138,0,25.6-11.462,25.6-25.6
			C247.451,335.735,235.999,324.282,221.867,324.267z M221.867,358.4c-4.713,0-8.533-3.82-8.533-8.533s3.821-8.533,8.533-8.533
			c4.713,0,8.533,3.82,8.533,8.533C230.397,354.578,226.578,358.397,221.867,358.4z"/>
		<path d="M85.333,324.267c-14.138,0-25.6,11.462-25.6,25.6s11.462,25.6,25.6,25.6s25.6-11.462,25.6-25.6
			C110.918,335.735,99.465,324.282,85.333,324.267z M85.333,358.4c-4.713,0-8.533-3.82-8.533-8.533s3.821-8.533,8.533-8.533
			s8.533,3.82,8.533,8.533C93.864,354.578,90.045,358.397,85.333,358.4z"/>
	</g>
</g>
<g>
</g>
<g>
</g>
<g>
</g>
<g>
</g>
<g>
</g>
<g>
</g>
<g>
</g>
<g>
</g>
<g>
</g>
<g>
</g>
<g>
</g>
<g>
</g>
<g>
</g>
<g>
</g>
<g>
</g>
</svg>
