<?xml version="1.0" encoding="iso-8859-1"?>
<!-- Generator: Adobe Illustrator 19.0.0, SVG Export Plug-In . SVG Version: 6.00 Build 0)  -->
<svg version="1.1" id="Capa_1" xmlns="http://www.w3.org/2000/svg" xmlns:xlink="http://www.w3.org/1999/xlink" x="0px" y="0px"
	 viewBox="0 0 504.219 504.219" style="enable-background:new 0 0 504.219 504.219;" xml:space="preserve">
<g>
	<g transform="translate(1 1)">
		<rect x="82.937" y="74.847" style="fill:#2E7D32;" width="335.738" height="117.508"/>
		<path style="fill:#4CAF50;" d="M393.495,74.847v117.508H57.757c-0.009-6.681,2.641-13.091,7.365-17.815s11.134-7.374,17.815-7.365
			V74.847H393.495z"/>
		<g>
			<path style="fill:#02A9F4;" d="M250.806,7.7v92.328H82.937V16.093c-0.184-4.418,3.222-8.161,7.637-8.393H250.806z"/>
			<path style="fill:#02A9F4;" d="M418.675,16.093v83.934H250.806V7.7h160.232C415.453,7.932,418.859,11.676,418.675,16.093z"/>
		</g>
		<path style="fill:#558B30;" d="M469.036,225.929v50.361l-41.967,67.148H74.544L32.577,276.29v-50.361h25.18v-33.574
			c-0.009-6.681,2.641-13.091,7.365-17.815c4.724-4.724,11.134-7.374,17.815-7.365h335.738c6.681-0.009,13.091,2.641,17.815,7.365
			c4.724,4.724,7.374,11.134,7.365,17.815v33.574H469.036z"/>
		<path style="fill:#8BC34A;" d="M427.068,225.929v50.361l-26.188,41.967l-15.78,25.18H32.577l-25.18-40.289v-10.072
			c0.027-9.26,7.527-16.76,16.787-16.787h8.393v-50.361h25.18v-33.574c-0.009-6.681,2.641-13.091,7.365-17.815
			c4.724-4.724,11.134-7.374,17.815-7.365h293.77c13.886,0.051,25.13,11.295,25.18,25.18v33.574H427.068z"/>
		<rect x="74.544" y="318.257" style="fill:#2E7D32;" width="352.525" height="41.967"/>
		<rect x="49.363" y="318.257" style="fill:#8BC34A;" width="352.525" height="41.967"/>
		<polygon style="fill:#607D8B;" points="166.872,360.224 166.872,402.192 74.544,435.765 74.544,360.224 		"/>
		<path style="fill:#37474F;" d="M24.183,276.29h33.574c9.271,0,16.787,7.516,16.787,16.787v184.656
			c0,9.271-7.516,16.787-16.787,16.787H24.183c-9.271,0-16.787-7.516-16.787-16.787V293.077
			C7.396,283.806,14.912,276.29,24.183,276.29z"/>
		<polygon style="fill:#607D8B;" points="427.068,360.224 427.068,435.765 334.74,402.192 334.74,360.224 		"/>
		<path style="fill:#37474F;" d="M443.855,276.29h33.574c9.271,0,16.787,7.516,16.787,16.787v184.656
			c0,9.271-7.516,16.787-16.787,16.787h-33.574c-9.271,0-16.787-7.516-16.787-16.787V293.077
			C427.068,283.806,434.584,276.29,443.855,276.29z"/>
		<path style="fill:#2E7D32;" d="M133.298,276.29v41.967H74.544v-25.18c-0.027-9.26-7.527-16.76-16.787-16.787h-25.18v-50.361h25.18
			L133.298,276.29z"/>
		<path style="fill:#558B30;" d="M469.036,225.929v50.361h-25.18c-9.26,0.027-16.76,7.527-16.787,16.787v25.18h-58.754V276.29
			l75.541-50.361H469.036z"/>
		<g>
			<polygon style="fill:#00BCD4;" points="158.478,100.028 208.839,7.7 166.872,7.7 116.511,100.028 			"/>
			<polygon style="fill:#00BCD4;" points="334.74,100.028 385.101,7.7 343.134,7.7 292.773,100.028 			"/>
		</g>
		<g>
			<circle style="fill:#2E7D32;" cx="28.38" cy="129.405" r="20.984"/>
			<circle style="fill:#2E7D32;" cx="473.232" cy="129.405" r="20.984"/>
		</g>
		
			<rect x="166.872" y="360.224" style="fill:#607D8B;stroke:#000000;stroke-width:2;stroke-linecap:round;stroke-linejoin:round;" width="167.869" height="41.967"/>
	</g>
	<g>
		<path d="M167.872,193.356c-2.226-0.001-4.362,0.883-5.936,2.457c-1.574,1.574-2.458,3.71-2.457,5.936v83.934
			c0,4.636,3.758,8.393,8.393,8.393s8.393-3.758,8.393-8.393v-83.934c0.001-2.226-0.883-4.362-2.457-5.936
			C172.234,194.238,170.098,193.354,167.872,193.356z"/>
		<path d="M201.445,193.356c-2.226-0.001-4.362,0.883-5.936,2.457c-1.574,1.574-2.458,3.71-2.457,5.936v83.934
			c0,4.636,3.758,8.393,8.393,8.393c4.636,0,8.393-3.758,8.393-8.393v-83.934c0.001-2.226-0.883-4.362-2.457-5.936
			C205.807,194.238,203.672,193.354,201.445,193.356z"/>
		<path d="M235.019,193.356c-2.226-0.001-4.362,0.883-5.936,2.457c-1.574,1.574-2.458,3.71-2.457,5.936v83.934
			c0,4.636,3.758,8.393,8.393,8.393s8.393-3.758,8.393-8.393v-83.934c0.001-2.226-0.883-4.362-2.457-5.936
			C239.381,194.238,237.246,193.354,235.019,193.356z"/>
		<path d="M268.593,193.356c-2.226-0.001-4.362,0.883-5.936,2.457c-1.574,1.574-2.458,3.71-2.457,5.936v83.934
			c0,4.636,3.758,8.393,8.393,8.393s8.393-3.758,8.393-8.393v-83.934c0.001-2.226-0.883-4.362-2.457-5.936
			C272.955,194.238,270.819,193.354,268.593,193.356z"/>
		<path d="M302.167,193.356c-2.226-0.001-4.362,0.883-5.936,2.457c-1.574,1.574-2.458,3.71-2.457,5.936v83.934
			c0,4.636,3.758,8.393,8.393,8.393s8.393-3.758,8.393-8.393v-83.934c0.001-2.226-0.883-4.362-2.457-5.936
			C306.529,194.238,304.393,193.354,302.167,193.356z"/>
		<path d="M335.74,193.356c-2.226-0.001-4.362,0.883-5.936,2.457c-1.574,1.574-2.458,3.71-2.457,5.936v83.934
			c0,4.636,3.758,8.393,8.393,8.393s8.393-3.758,8.393-8.393v-83.934c0.001-2.226-0.883-4.362-2.457-5.936
			C340.103,194.238,337.967,193.354,335.74,193.356z"/>
		<path d="M372.503,194.028c-2.025-0.926-4.352-0.926-6.377,0c-2.108,0.764-3.768,2.424-4.532,4.532
			c-0.43,1.009-0.659,2.092-0.672,3.189c-0.038,2.212,0.844,4.34,2.434,5.877c1.579,1.582,3.723,2.471,5.959,2.471
			c2.236,0,4.379-0.889,5.959-2.471c1.587-1.539,2.469-3.666,2.435-5.877c-0.033-2.222-0.902-4.35-2.434-5.959
			C374.456,195.05,373.519,194.454,372.503,194.028z"/>
		<path d="M137.486,194.028c-2.025-0.926-4.352-0.926-6.377,0c-2.108,0.764-3.768,2.424-4.532,4.532
			c-0.43,1.009-0.659,2.092-0.672,3.189c-0.038,2.212,0.844,4.34,2.434,5.877c1.579,1.582,3.723,2.471,5.959,2.471
			c2.236,0,4.38-0.889,5.959-2.471c1.587-1.539,2.468-3.666,2.435-5.877c-0.033-2.222-0.902-4.35-2.434-5.959
			C139.44,195.05,138.503,194.454,137.486,194.028z"/>
		<path d="M474.232,159.782c14.04,0.143,26.26-9.572,29.287-23.283c3.026-13.711-3.969-27.667-16.765-33.447
			c-12.796-5.78-27.892-1.803-36.179,9.532c-8.287,11.335-7.498,26.926,1.891,37.366l-16.352,14.311
			c-2.526-1.444-5.231-2.549-8.045-3.287V17.093c0.185-9.063-6.995-16.57-16.057-16.787H91.601
			C82.538,0.524,75.359,8.03,75.544,17.093v143.88c-2.814,0.738-5.519,1.843-8.045,3.287L51.146,149.95
			c9.169-10.325,9.873-25.654,1.688-36.776s-23.03-15.008-35.614-9.324c-12.584,5.684-19.483,19.392-16.549,32.885
			c2.934,13.493,14.9,23.1,28.709,23.046c2.219-0.018,4.429-0.289,6.586-0.808l19.401,16.978
			c-3.246,5.226-4.978,11.251-5.003,17.403v25.18H8.396c-4.636,0-8.393,3.758-8.393,8.393c0,4.636,3.758,8.393,8.393,8.393h16.787
			v33.574c-13.9,0.015-25.165,11.28-25.18,25.18v184.656c0.015,13.9,11.28,25.165,25.18,25.18h33.574
			c13.9-0.015,25.165-11.28,25.18-25.18v-36.091l86.803-31.565c2.825-1.019,4.889-3.471,5.413-6.427
			c0.524-2.957-0.571-5.968-2.873-7.897c-2.302-1.929-5.459-2.48-8.278-1.446l-81.066,29.478v-55.167h335.738v55.167l-81.066-29.478
			c-4.351-1.57-9.152,0.677-10.734,5.024s0.653,9.154,4.996,10.747l86.803,31.565v36.091c0.015,13.9,11.28,25.165,25.18,25.18
			h33.574c13.9-0.015,25.165-11.28,25.18-25.18V294.077c-0.015-13.9-11.28-25.165-25.18-25.18v-33.574h16.787
			c4.636,0,8.393-3.758,8.393-8.393c0-4.636-3.758-8.393-8.393-8.393h-41.967v-25.18c-0.025-6.152-1.757-12.177-5.003-17.403
			l19.401-16.978C469.804,159.493,472.013,159.764,474.232,159.782z M474.232,117.815c5.1-0.003,9.699,3.071,11.645,7.785
			c1.947,4.714,0.857,10.137-2.76,13.733c-3.617,3.596-9.046,4.655-13.749,2.682l-0.088-0.04c-5.498-2.35-8.583-8.243-7.383-14.1
			C463.098,122.017,468.253,117.813,474.232,117.815z M360.921,277.29v33.574H142.691V277.29c-0.001-2.806-1.403-5.426-3.738-6.983
			L67.15,222.438v-29.082c0.012-9.266,7.521-16.775,16.787-16.787h335.738c9.266,0.012,16.775,7.521,16.787,16.787v29.082
			l-71.803,47.869C362.324,271.864,360.921,274.484,360.921,277.29z M92.353,109.421h318.928v50.361H92.334L92.353,109.421z
			 M195.702,17.093l-41.205,75.541h-22.848l41.205-75.541H195.702z M243.413,17.093v75.541h-69.797l41.205-75.541H243.413z
			 M371.964,17.093l-41.205,75.541h-22.848l41.205-75.541H371.964z M288.792,92.634h-28.592V17.093h69.797L288.792,92.634z
			 M411.281,92.634h-61.404l41.205-75.541h20.199V92.634z M153.734,17.093l-41.205,75.541h-20.17l0.029-75.541H153.734z
			 M16.79,130.405c-0.003-6.3,4.65-11.632,10.892-12.482c6.242-0.85,12.151,3.045,13.832,9.116
			c1.681,6.071-1.384,12.45-7.175,14.932l-0.11,0.048c-3.885,1.627-8.327,1.202-11.832-1.133S16.786,134.617,16.79,130.405z
			 M41.97,235.323h14.246l69.688,46.459v29.082H83.937v-16.787c-0.015-13.9-11.28-25.165-25.18-25.18H41.97V235.323z
			 M58.757,487.126H25.183c-4.634-0.003-8.39-3.759-8.393-8.393v-16.787h8.393c4.636,0,8.393-3.758,8.393-8.393
			c0-4.636-3.758-8.393-8.393-8.393H16.79v-16.787h8.393c4.636,0,8.393-3.758,8.393-8.393c0-4.636-3.758-8.393-8.393-8.393H16.79
			v-16.787h8.393c4.636,0,8.393-3.758,8.393-8.393s-3.758-8.393-8.393-8.393H16.79v-16.787h8.393c4.636,0,8.393-3.758,8.393-8.393
			s-3.758-8.393-8.393-8.393H16.79v-16.787h8.393c4.636,0,8.393-3.758,8.393-8.393c0-4.636-3.758-8.393-8.393-8.393H16.79v-16.787
			c0.003-4.634,3.759-8.39,8.393-8.393h33.574c4.634,0.003,8.39,3.759,8.393,8.393v16.787h-8.393c-4.636,0-8.393,3.758-8.393,8.393
			c0,4.636,3.758,8.393,8.393,8.393h8.393v16.787h-8.393c-4.636,0-8.393,3.758-8.393,8.393s3.758,8.393,8.393,8.393h8.393v16.787
			h-8.393c-4.636,0-8.393,3.758-8.393,8.393s3.758,8.393,8.393,8.393h8.393v16.787h-8.393c-4.636,0-8.393,3.758-8.393,8.393
			c0,4.636,3.758,8.393,8.393,8.393h8.393v16.787h-8.393c-4.636,0-8.393,3.758-8.393,8.393c0,4.636,3.758,8.393,8.393,8.393h8.393
			v16.787C67.147,483.367,63.391,487.123,58.757,487.126z M83.937,352.831v-25.18h335.738v25.18H83.937z M486.822,294.077v16.787
			h-8.393c-4.636,0-8.393,3.758-8.393,8.393c0,4.636,3.758,8.393,8.393,8.393h8.393v16.787h-8.393c-4.636,0-8.393,3.758-8.393,8.393
			s3.758,8.393,8.393,8.393h8.393v16.787h-8.393c-4.636,0-8.393,3.758-8.393,8.393s3.758,8.393,8.393,8.393h8.393v16.787h-8.393
			c-4.636,0-8.393,3.758-8.393,8.393c0,4.636,3.758,8.393,8.393,8.393h8.393v16.787h-8.393c-4.636,0-8.393,3.758-8.393,8.393
			c0,4.636,3.758,8.393,8.393,8.393h8.393v16.787c-0.003,4.634-3.759,8.39-8.393,8.393h-33.574c-4.634-0.003-8.39-3.759-8.393-8.393
			v-16.787h8.393c4.636,0,8.393-3.758,8.393-8.393c0-4.636-3.758-8.393-8.393-8.393h-8.393v-16.787h8.393
			c4.636,0,8.393-3.758,8.393-8.393c0-4.636-3.758-8.393-8.393-8.393h-8.393v-16.787h8.393c4.636,0,8.393-3.758,8.393-8.393
			s-3.758-8.393-8.393-8.393h-8.393v-16.787h8.393c4.636,0,8.393-3.758,8.393-8.393s-3.758-8.393-8.393-8.393h-8.393v-16.787h8.393
			c4.636,0,8.393-3.758,8.393-8.393c0-4.636-3.758-8.393-8.393-8.393h-8.393v-16.787c0.003-4.634,3.759-8.39,8.393-8.393h33.574
			C483.063,285.687,486.819,289.443,486.822,294.077z M461.642,235.323v33.574h-16.787c-13.9,0.015-25.165,11.28-25.18,25.18v16.787
			h-41.967v-29.082l69.688-46.459H461.642z"/>
	</g>
</g>
<g>
</g>
<g>
</g>
<g>
</g>
<g>
</g>
<g>
</g>
<g>
</g>
<g>
</g>
<g>
</g>
<g>
</g>
<g>
</g>
<g>
</g>
<g>
</g>
<g>
</g>
<g>
</g>
<g>
</g>
</svg>
