<?xml version="1.0" encoding="iso-8859-1"?>
<!-- Generator: Adobe Illustrator 19.0.0, SVG Export Plug-In . SVG Version: 6.00 Build 0)  -->
<svg version="1.1" id="Capa_1" xmlns="http://www.w3.org/2000/svg" xmlns:xlink="http://www.w3.org/1999/xlink" x="0px" y="0px"
	 viewBox="0 0 512 512" style="enable-background:new 0 0 512 512;" xml:space="preserve">
<g>
	<g transform="translate(1 1)">
		<g>
			<path style="fill:#4E342E;" d="M404.419,203.8c-15.872,24.491-76.8,42.667-149.419,42.667c-4.352,0-8.619-0.085-12.8-0.171
				c66.901-2.048,121.685-19.456,136.619-42.496H404.419z"/>
			<path style="fill:#4E342E;" d="M502.467,203.8v136.533c0,51.883-110.763,93.867-247.467,93.867c-4.267,0-8.533,0-12.715-0.085
				c130.731-2.56,234.581-43.52,234.581-93.781v-94.891C436.419,276.419,352.28,297.667,255,297.667c-4.267,0-8.533,0-12.715-0.085
				c130.731-2.56,234.581-43.52,234.581-93.781H502.467z"/>
		</g>
		<g>
			<path style="fill:#795548;" d="M476.867,245.443v94.891c0,50.261-103.851,91.221-234.581,93.781h-0.171
				c-130.731-2.56-234.581-43.52-234.581-93.781V203.8c0,50.261,103.851,91.221,234.581,93.781h0.171
				c4.181,0.085,8.448,0.085,12.715,0.085C352.28,297.667,436.419,276.419,476.867,245.443z"/>
			<path style="fill:#795548;" d="M476.867,203.8v41.643C436.419,276.419,352.28,297.667,255,297.667c-4.267,0-8.533,0-12.715-0.085
				C373.016,295.021,476.867,254.061,476.867,203.8z"/>
			<path style="fill:#795548;" d="M404.419,203.8c-15.872,24.491-76.8,42.667-149.419,42.667c-4.352,0-8.619-0.085-12.8-0.171
				c66.901-2.048,121.685-19.456,136.619-42.496H404.419z"/>
		</g>
		<path style="fill:#37474F;" d="M502.467,203.8c0,14.933-9.216,29.099-25.6,41.643C436.419,276.419,352.28,297.667,255,297.667
			c-4.267,0-8.533,0-12.715-0.085c130.731-2.56,234.581-43.52,234.581-93.781c0-38.059-59.477-70.741-145.067-85.504v24.661
			c45.909,9.643,76.8,27.477,76.8,48.043c-0.077,4.59-1.534,9.05-4.181,12.8c-15.872,24.491-76.8,42.667-149.419,42.667
			c-4.352,0-8.619-0.085-12.8-0.171c66.901-2.048,121.685-19.456,136.619-42.496c2.647-3.75,4.104-8.21,4.181-12.8
			c0-16.469-19.797-31.147-51.2-41.301V178.2c0,14.165-34.389,25.6-76.8,25.6s-76.8-11.435-76.8-25.6v-63.659h153.6
			C430.872,126.744,502.467,162.072,502.467,203.8z"/>
		<path style="fill:#607D8B;" d="M476.867,203.8c0,50.261-103.851,91.221-234.581,93.781h-0.171
			C111.384,295.021,7.533,254.061,7.533,203.8c0-41.728,71.595-77.056,170.667-89.259v28.416c-45.909,9.643-76.8,27.477-76.8,48.043
			c0.077,4.59,1.534,9.05,4.181,12.8c14.933,23.04,69.717,40.448,136.619,42.496c4.181,0.085,8.448,0.171,12.8,0.171
			c72.619,0,133.547-18.176,149.419-42.667c2.647-3.75,4.104-8.21,4.181-12.8c0-20.565-30.891-38.4-76.8-48.043v-24.661
			C417.389,133.059,476.867,165.741,476.867,203.8z"/>
		<path style="fill:#FFECB3;" d="M408.6,191c-0.077,4.59-1.534,9.05-4.181,12.8c-15.872,24.491-76.8,42.667-149.419,42.667
			c-4.352,0-8.619-0.085-12.8-0.171c66.901-2.048,121.685-19.456,136.619-42.496c2.647-3.75,4.104-8.21,4.181-12.8
			c0-16.469-19.797-31.147-51.2-41.301V178.2c0,14.165-34.389,25.6-76.8,25.6s-76.8-11.435-76.8-25.6v-63.659h128
			c3.925,0.512,7.851,1.024,11.691,1.536h0.085c4.693,0.768,9.301,1.451,13.824,2.219v24.661C377.709,152.6,408.6,170.435,408.6,191
			z"/>
		<path style="fill:#37474F;" d="M408.6,191c-0.077,4.59-1.534,9.05-4.181,12.8c-15.872,24.491-76.8,42.667-149.419,42.667
			c-4.352,0-8.619-0.085-12.8-0.171c66.901-2.048,121.685-19.456,136.619-42.496c2.647-3.75,4.104-8.21,4.181-12.8
			c0-16.469-19.797-31.147-51.2-41.301V178.2c0,14.165-34.389,25.6-76.8,25.6s-76.8-11.435-76.8-25.6v-35.243h153.6
			C377.709,152.6,408.6,170.435,408.6,191z"/>
		<path style="fill:#607D8B;" d="M383,191c-0.077,4.59-1.534,9.05-4.181,12.8c-14.933,23.04-69.717,40.448-136.619,42.496
			c-66.901-2.048-121.685-19.456-136.619-42.496c-2.647-3.75-4.104-8.21-4.181-12.8c0-20.565,30.891-38.4,76.8-48.043V178.2
			c0,14.165,34.389,25.6,76.8,25.6s76.8-11.435,76.8-25.6v-28.501C363.203,159.853,383,174.531,383,191z"/>
		<path style="fill:#795548;" d="M331.8,149.699V178.2c0,14.165-34.389,25.6-76.8,25.6s-76.8-11.435-76.8-25.6v-35.243h128
			C314.845,144.755,323.391,147.005,331.8,149.699z"/>
		<path style="fill:#C52828;" d="M331.8,101.4v76.8c0,14.165-34.389,25.6-76.8,25.6s-76.8-11.435-76.8-25.6v-76.8H331.8z"/>
		<path style="fill:#F44335;" d="M331.8,101.4c-0.034,1.543-0.413,3.06-1.109,4.437C324.376,117.869,292.888,127,255,127
			s-69.376-9.131-75.691-21.163c-0.697-1.378-1.076-2.894-1.109-4.437c0-14.165,34.389-25.6,76.8-25.6S331.8,87.235,331.8,101.4z"/>
	</g>
	<path d="M341.333,108.128V102.4c0-23.45-44.233-34.133-85.333-34.133S170.667,78.95,170.667,102.4v5.728
		C66.775,122.283,0,159.845,0,204.8v136.533c0,57.417,112.45,102.4,256,102.4s256-44.983,256-102.4V204.8
		C512,159.845,445.225,122.283,341.333,108.128z M256,136.533c2.263,0,4.541-0.035,6.836-0.106
		c21.118,0.037,42.022-4.238,61.431-12.562V179.2c0,4.383-23.471,17.067-68.267,17.067s-68.267-12.683-68.267-17.067v-55.334
		C209.318,132.932,232.6,137.252,256,136.533z M256,213.333c41.1,0,85.333-10.684,85.333-34.133v-24.508
		c41.132,10.299,59.733,25.798,59.733,37.308c0,22.158-62.037,46.933-145.067,46.933S110.933,214.158,110.933,192
		c0-11.51,18.602-27.009,59.733-37.308V179.2C170.667,202.65,214.9,213.333,256,213.333z M256,85.333
		c44.763,0,68.233,12.667,68.267,17.058c-0.021,0.164-0.065,0.323-0.129,0.475c-3.654,6.959-29.367,16.6-68.137,16.6
		c-2.423,0-4.794-0.037-7.114-0.11c-34.587-1.079-57.32-9.864-60.944-16.377c-0.083-0.188-0.153-0.382-0.209-0.58
		C187.733,98.017,211.204,85.333,256,85.333z M494.933,341.333c0,41.208-96.009,85.333-238.933,85.333
		S17.067,382.542,17.067,341.333v-99.146C53.681,280.586,145.613,307.2,256,307.2s202.319-26.615,238.933-65.013V341.333z
		 M256,290.133c-142.925,0-238.933-44.125-238.933-85.333c0-33.975,64.025-66.825,153.6-79.525v11.873
		c-48.886,11.446-76.8,31.248-76.8,54.852c0,41.567,83.533,64,162.133,64s162.133-22.433,162.133-64
		c0-23.604-27.914-43.406-76.8-54.852v-11.873c89.575,12.7,153.6,45.55,153.6,79.525C494.933,246.008,398.925,290.133,256,290.133z"
		/>
</g>
<g>
</g>
<g>
</g>
<g>
</g>
<g>
</g>
<g>
</g>
<g>
</g>
<g>
</g>
<g>
</g>
<g>
</g>
<g>
</g>
<g>
</g>
<g>
</g>
<g>
</g>
<g>
</g>
<g>
</g>
</svg>
