<?xml version="1.0" encoding="iso-8859-1"?>
<!-- Generator: Adobe Illustrator 19.0.0, SVG Export Plug-In . SVG Version: 6.00 Build 0)  -->
<svg version="1.1" id="Capa_1" xmlns="http://www.w3.org/2000/svg" xmlns:xlink="http://www.w3.org/1999/xlink" x="0px" y="0px"
	 viewBox="0 0 512 512" style="enable-background:new 0 0 512 512;" xml:space="preserve">
<g>
	<g transform="translate(1 1)">
		<g>
			<path style="fill:#FEC108;" d="M246.467,7.533h17.067c4.713,0,8.533,3.821,8.533,8.533V75.8h-34.133V16.067
				C237.933,11.354,241.754,7.533,246.467,7.533z"/>
			<path style="fill:#FEC108;" d="M152.6,7.533h34.133c4.713,0,8.533,3.821,8.533,8.533v17.067c0,4.713-3.82,8.533-8.533,8.533
				H152.6c-4.713,0-8.533-3.821-8.533-8.533V16.067C144.067,11.354,147.887,7.533,152.6,7.533z"/>
		</g>
		<path style="fill:#FF9801;" d="M289.133,67.267V178.2h-68.267V67.267c0.014-4.707,3.826-8.519,8.533-8.533h51.2
			C285.307,58.747,289.119,62.56,289.133,67.267z"/>
		<rect x="220.867" y="101.4" style="fill:#B19046;" width="68.267" height="17.067"/>
		<g>
			<path style="fill:#FEC108;" d="M165.4,161.133c11.782,0,21.333,9.551,21.333,21.333v29.867h-42.667v-29.867
				C144.067,170.685,153.618,161.133,165.4,161.133z"/>
			<path style="fill:#FEC108;" d="M344.6,161.133c11.782,0,21.333,9.551,21.333,21.333v29.867h-42.667v-29.867
				C323.267,170.685,332.818,161.133,344.6,161.133z"/>
		</g>
		<path style="fill:#FFB301;" d="M220.867,161.133h68.267c4.713,0,8.533,3.821,8.533,8.533v42.667h-85.333v-42.667
			C212.333,164.954,216.154,161.133,220.867,161.133z"/>
		<path style="fill:#2E7D32;" d="M135.533,195.267h238.933c14.138,0,25.6,11.462,25.6,25.6v256c0,14.138-11.462,25.6-25.6,25.6
			H135.533c-14.138,0-25.6-11.462-25.6-25.6v-256C109.933,206.728,121.395,195.267,135.533,195.267z"/>
		<path style="fill:#4CAF50;" d="M374.467,220.867v256c0.009,6.792-2.685,13.309-7.488,18.112
			c-4.803,4.803-11.32,7.497-18.112,7.488H135.533c-6.792,0.009-13.309-2.685-18.112-7.488c-4.803-4.803-7.497-11.32-7.488-18.112
			v-256c-0.009-6.792,2.685-13.309,7.488-18.112c4.803-4.803,11.32-7.497,18.112-7.488h213.333
			C362.984,195.318,374.415,206.75,374.467,220.867z"/>
		<rect x="109.933" y="306.2" style="fill:#9E9E9E;" width="290.133" height="102.4"/>
		<rect x="109.933" y="306.2" style="fill:#CFD8DC;" width="264.533" height="102.4"/>
	</g>
	<g>
		<path d="M136.533,512h238.933c18.843-0.02,34.113-15.29,34.133-34.133v-256c-0.046-15.521-10.568-29.054-25.6-32.922v-5.478
			c0-16.495-13.372-29.867-29.867-29.867s-29.867,13.372-29.867,29.867v4.267H307.2v-17.067c-0.02-6.069-3.272-11.668-8.533-14.693
			V68.267c-0.011-9.421-7.645-17.056-17.067-17.067V34.133h25.6v8.533c0,4.713,3.821,8.533,8.533,8.533
			c4.713,0,8.533-3.821,8.533-8.533V8.533c0-4.713-3.821-8.533-8.533-8.533c-4.713,0-8.533,3.821-8.533,8.533v8.533h-25.6V8.533
			c0.001-2.263-0.898-4.434-2.499-6.035S275.33-0.001,273.067,0h-34.133c-2.263-0.001-4.434,0.898-6.035,2.499
			c-1.6,1.6-2.499,3.771-2.499,6.035v8.533h-25.6C204.789,7.645,197.155,0.011,187.733,0H153.6
			c-9.421,0.011-17.056,7.645-17.067,17.067v10.81c-14.846,5.099-25.133,18.67-26.03,34.342s7.772,30.329,21.938,37.09
			c14.166,6.761,31.014,4.282,42.633-6.272c11.619-10.554,15.7-27.088,10.327-41.836h2.332c9.421-0.011,17.056-7.645,17.067-17.067
			h25.6V51.2c-9.421,0.011-17.056,7.645-17.067,17.067v87.707c-5.262,3.025-8.513,8.624-8.533,14.693v17.067h-17.067v-4.267
			c0-16.495-13.372-29.867-29.867-29.867S128,166.972,128,183.467v5.478c-15.032,3.868-25.555,17.4-25.6,32.922v256
			C102.42,496.71,117.69,511.98,136.533,512z M170.667,64c0.06,10.608-7.685,19.649-18.177,21.219
			c-10.492,1.57-20.543-4.809-23.59-14.97s1.835-21.018,11.459-25.482c3.205,4.047,8.079,6.415,13.242,6.433h12.677
			C169.128,54.857,170.673,59.363,170.667,64z M153.6,34.133V17.067h34.133l0.006,8.503l-0.006,0.031l0.006,0.031l0.006,8.502H153.6
			z M375.467,494.933H136.533c-9.421-0.011-17.056-7.645-17.067-17.067v-59.733h273.067v59.733
			C392.523,487.288,384.888,494.923,375.467,494.933z M119.467,315.733h273.067v85.333H119.467V315.733z M341.333,183.467
			c0-7.069,5.731-12.8,12.8-12.8c7.069,0,12.8,5.731,12.8,12.8v4.267h-25.6V183.467z M230.4,119.467h51.2V153.6h-51.2V119.467z
			 M247.467,17.067h17.067V51.2h-17.067V17.067z M238.933,68.267H281.6V102.4h-51.2V68.267H238.933z M221.867,170.667h68.267v17.067
			h-68.267V170.667z M145.067,183.467c0-7.069,5.731-12.8,12.8-12.8c7.069,0,12.8,5.731,12.8,12.8v4.267h-25.6V183.467z
			 M136.533,204.8h238.933c9.421,0.011,17.056,7.645,17.067,17.067v76.8H119.467v-76.8
			C119.477,212.445,127.112,204.811,136.533,204.8z"/>
		<path d="M162.133,264.533h85.333c4.713,0,8.533-3.821,8.533-8.533c0-4.713-3.82-8.533-8.533-8.533h-85.333
			c-4.713,0-8.533,3.821-8.533,8.533C153.6,260.713,157.421,264.533,162.133,264.533z"/>
		<path d="M281.6,264.533h8.533c4.713,0,8.533-3.821,8.533-8.533c0-4.713-3.821-8.533-8.533-8.533H281.6
			c-4.713,0-8.533,3.821-8.533,8.533C273.067,260.713,276.887,264.533,281.6,264.533z"/>
		<path d="M324.267,264.533h25.6c4.713,0,8.533-3.821,8.533-8.533c0-4.713-3.821-8.533-8.533-8.533h-25.6
			c-4.713,0-8.533,3.821-8.533,8.533C315.733,260.713,319.554,264.533,324.267,264.533z"/>
	</g>
</g>
<g>
</g>
<g>
</g>
<g>
</g>
<g>
</g>
<g>
</g>
<g>
</g>
<g>
</g>
<g>
</g>
<g>
</g>
<g>
</g>
<g>
</g>
<g>
</g>
<g>
</g>
<g>
</g>
<g>
</g>
</svg>
