<?xml version="1.0" encoding="iso-8859-1"?>
<!-- Generator: Adobe Illustrator 19.0.0, SVG Export Plug-In . SVG Version: 6.00 Build 0)  -->
<svg version="1.1" id="Capa_1" xmlns="http://www.w3.org/2000/svg" xmlns:xlink="http://www.w3.org/1999/xlink" x="0px" y="0px"
	 viewBox="0 0 512.006 512.006" style="enable-background:new 0 0 512.006 512.006;" xml:space="preserve">
<g>
	<g transform="translate(1 1)">
		<g>
			<path style="fill:#607D8B;" d="M118.467,24.603h25.6c28.245,0,51.2,7.68,51.2,17.067c0,9.216-22.016,16.725-49.408,17.067H58.733
				c-28.245,0-51.2-7.68-51.2-17.067s22.955-17.067,51.2-17.067H118.467z"/>
			<path style="fill:#607D8B;" d="M391.533,50.203h25.6c28.245,0,51.2,7.68,51.2,17.067c0,9.216-22.016,16.725-49.408,17.067H331.8
				c-28.245,0-51.2-7.68-51.2-17.067c0-9.387,22.955-17.067,51.2-17.067H391.533z"/>
		</g>
		<g>
			<path style="fill:#CFD8DC;" d="M118.467,24.603l0,68.267H84.333V24.603c0.028-9.414,7.652-17.039,17.067-17.067
				c4.528-0.024,8.871,1.793,12.032,5.035C116.673,15.732,118.491,20.075,118.467,24.603z"/>
			<path style="fill:#CFD8DC;" d="M391.533,50.203v68.267H357.4V50.203c0.027-9.414,7.652-17.039,17.067-17.067
				C383.864,33.204,391.466,40.805,391.533,50.203z"/>
		</g>
		<path style="fill:#00695C;" d="M468.333,257.99v-28.587c-0.009-23.561-19.106-42.658-42.667-42.667v-48.213
			c-0.52-11.558-10.285-20.522-21.845-20.053h-25.6c11.56-0.468,21.325,8.495,21.845,20.053v48.213
			c23.561,0.009,42.658,19.106,42.667,42.667v28.587c23.508,8.299,37.613,32.334,33.395,56.905
			c-4.218,24.571-25.531,42.525-50.462,42.509h25.6c24.93,0.016,46.244-17.938,50.462-42.509
			C505.947,290.323,491.842,266.289,468.333,257.99z M229.4,351.686l-5.803,5.717h11.605L229.4,351.686z M135.533,92.87l-25.6,0
			c6.792-0.009,13.309,2.685,18.112,7.488c4.803,4.803,7.497,11.32,7.488,18.112v68.267h25.6l0-68.267
			c0.009-6.792-2.685-13.309-7.488-18.112S142.326,92.861,135.533,92.87z"/>
		<polygon style="fill:#009688;" points="255,351.686 249.197,357.403 260.803,357.403 		"/>
		<path style="fill:#02A9F4;" d="M357.4,220.87h34.133c4.713,0,8.533,3.821,8.533,8.533v51.2c0,4.713-3.82,8.533-8.533,8.533H357.4
			c-4.713,0-8.533-3.821-8.533-8.533v-51.2C348.867,224.69,352.687,220.87,357.4,220.87z"/>
		<path style="fill:#009688;" d="M442.733,257.99v-28.587c-0.009-23.561-19.106-42.658-42.667-42.667v-48.213
			c-0.52-11.558-10.285-20.522-21.845-20.053h-33.109c-11.56-0.468-21.325,8.495-21.845,20.053v48.213H135.533V118.47
			c0.009-6.792-2.685-13.309-7.488-18.112c-4.803-4.803-11.32-7.497-18.112-7.488H67.267c-6.792-0.009-13.309,2.685-18.112,7.488
			c-4.803,4.803-7.497,11.32-7.488,18.112v68.267H24.6c-2.606,0.026-5.172,0.639-7.509,1.792c-0.717,0.303-1.403,0.675-2.048,1.109
			c-4.697,3.185-7.51,8.491-7.509,14.165v59.733c-0.014,24.899,9.871,48.783,27.477,66.389s41.49,27.491,66.389,27.477h122.197
			l5.803-5.717l5.803,5.717h13.995l5.803-5.717l5.803,5.717h164.864c24.93,0.016,46.244-17.938,50.462-42.509
			C480.347,290.323,466.242,266.289,442.733,257.99z M101.4,280.603c-0.853,0-1.792-0.085-2.645-0.171
			c-0.578-0.008-1.152-0.094-1.707-0.256c-0.758-0.08-1.503-0.252-2.219-0.512c-1.261-0.269-2.491-0.669-3.669-1.195
			c-0.597-0.256-1.195-0.597-1.792-0.853c-0.256-0.171-0.512-0.256-0.768-0.427c-1.958-1.094-3.741-2.475-5.291-4.096
			c-0.556-0.528-1.07-1.098-1.536-1.707c-0.167-0.149-0.311-0.321-0.427-0.512c-0.171-0.171-0.341-0.427-0.512-0.597
			c-0.085-0.085-0.171-0.256-0.256-0.341c-0.448-0.623-0.847-1.279-1.195-1.963l-0.512-0.768c-0.966-1.84-1.711-3.788-2.219-5.803
			c-0.252-0.806-0.423-1.635-0.512-2.475c-0.455-2.597-0.455-5.254,0-7.851c0.089-0.84,0.26-1.669,0.512-2.475
			c0.188-0.779,0.416-1.548,0.683-2.304c0.071-0.233,0.157-0.461,0.256-0.683c0.339-0.976,0.767-1.919,1.28-2.816l0.512-0.768
			c0.547-0.962,1.175-1.876,1.877-2.731c0.611-0.855,1.296-1.655,2.048-2.389c0.772-0.828,1.63-1.572,2.56-2.219
			c0.763-0.694,1.626-1.269,2.56-1.707l0.171-0.171c0.256-0.171,0.512-0.256,0.768-0.427c0.58-0.319,1.179-0.604,1.792-0.853
			c1.434-0.611,2.919-1.096,4.437-1.451c0.306-0.091,0.621-0.148,0.939-0.171c1.599-0.339,3.229-0.511,4.864-0.512
			c14.138,0,25.6,11.462,25.6,25.6C127,269.141,115.538,280.603,101.4,280.603z M195.267,280.603c-0.853,0-1.792-0.085-2.645-0.171
			c-0.578-0.008-1.152-0.094-1.707-0.256c-0.758-0.08-1.503-0.252-2.219-0.512c-1.261-0.269-2.491-0.669-3.669-1.195
			c-0.597-0.256-1.195-0.597-1.792-0.853c-0.256-0.171-0.512-0.256-0.768-0.427c-1.958-1.094-3.741-2.475-5.291-4.096
			c-0.556-0.528-1.07-1.098-1.536-1.707c-0.167-0.149-0.311-0.321-0.427-0.512c-0.171-0.171-0.341-0.427-0.512-0.597
			c-0.085-0.085-0.171-0.256-0.256-0.341c-0.448-0.623-0.847-1.279-1.195-1.963l-0.512-0.768c-0.966-1.84-1.711-3.788-2.219-5.803
			c-0.252-0.806-0.423-1.635-0.512-2.475c-0.455-2.597-0.455-5.254,0-7.851c0.089-0.84,0.26-1.669,0.512-2.475
			c0.188-0.779,0.416-1.548,0.683-2.304c0.071-0.233,0.157-0.461,0.256-0.683c0.339-0.976,0.767-1.919,1.28-2.816l0.512-0.768
			c0.547-0.962,1.175-1.876,1.877-2.731c0.611-0.855,1.296-1.655,2.048-2.389c0.772-0.828,1.63-1.572,2.56-2.219
			c0.763-0.694,1.626-1.269,2.56-1.707l0.171-0.171c0.256-0.171,0.512-0.256,0.768-0.427c0.58-0.319,1.179-0.604,1.792-0.853
			c1.434-0.611,2.919-1.096,4.437-1.451c0.306-0.091,0.621-0.148,0.939-0.171c1.599-0.339,3.229-0.511,4.864-0.512
			c14.138,0,25.6,11.462,25.6,25.6C220.867,269.141,209.405,280.603,195.267,280.603z M289.133,280.603
			c-0.853,0-1.792-0.085-2.645-0.171c-0.35,0.027-0.702-0.031-1.024-0.171c-1.017-0.067-2.022-0.268-2.987-0.597
			c-0.331,0.007-0.657-0.082-0.939-0.256c-0.427-0.171-0.768-0.256-1.195-0.427c-0.511-0.08-1.003-0.254-1.451-0.512
			c-0.597-0.256-1.195-0.597-1.792-0.853c-0.256-0.171-0.512-0.256-0.768-0.427c-1.958-1.094-3.741-2.475-5.291-4.096
			c-0.556-0.528-1.07-1.098-1.536-1.707c-0.167-0.149-0.311-0.321-0.427-0.512c-0.171-0.171-0.341-0.427-0.512-0.597
			c-0.085-0.085-0.171-0.256-0.256-0.341c-0.448-0.623-0.847-1.279-1.195-1.963l-0.512-0.768c-0.966-1.84-1.711-3.788-2.219-5.803
			c-0.252-0.806-0.423-1.635-0.512-2.475c-0.455-2.597-0.455-5.254,0-7.851c0.089-0.84,0.26-1.669,0.512-2.475
			c0.188-0.779,0.416-1.548,0.683-2.304c0.071-0.233,0.157-0.461,0.256-0.683c0.339-0.976,0.767-1.919,1.28-2.816l0.512-0.768
			c0.547-0.962,1.175-1.876,1.877-2.731c0.611-0.855,1.296-1.655,2.048-2.389c0.772-0.828,1.63-1.572,2.56-2.219
			c0.763-0.694,1.626-1.269,2.56-1.707l0.171-0.171c0.256-0.171,0.512-0.256,0.768-0.427c0.58-0.319,1.179-0.604,1.792-0.853
			c0.448-0.259,0.94-0.432,1.451-0.512l1.536-0.512c0.467-0.193,0.953-0.336,1.451-0.427c0.306-0.091,0.621-0.148,0.939-0.171
			c1.599-0.339,3.229-0.511,4.864-0.512c14.138,0,25.6,11.462,25.6,25.6C314.733,269.141,303.272,280.603,289.133,280.603z
			 M400.067,280.603c-0.014,4.707-3.826,8.519-8.533,8.533H357.4c-4.707-0.014-8.519-3.826-8.533-8.533v-51.2
			c0.014-4.707,3.826-8.519,8.533-8.533h34.133c4.707,0.014,8.519,3.826,8.533,8.533V280.603z"/>
		<polygon style="fill:#00695C;" points="260.803,357.403 249.197,357.403 255,351.686 		"/>
		<g>
			<path style="fill:#02A9F4;" d="M314.733,255.003c0.009,6.792-2.685,13.309-7.488,18.112c-4.803,4.803-11.32,7.497-18.112,7.488
				c-0.853,0-1.792-0.085-2.645-0.171c-0.35,0.027-0.702-0.031-1.024-0.171c-1.01-0.117-2.009-0.316-2.987-0.597
				c-0.331,0.007-0.657-0.082-0.939-0.256c-0.427-0.171-0.768-0.256-1.195-0.427c-0.511-0.08-1.003-0.254-1.451-0.512
				c-0.597-0.256-1.195-0.597-1.792-0.853c-0.256-0.171-0.512-0.256-0.768-0.427c-1.958-1.094-3.741-2.475-5.291-4.096
				c-0.556-0.528-1.07-1.098-1.536-1.707c-0.167-0.149-0.311-0.321-0.427-0.512c-0.171-0.171-0.341-0.427-0.512-0.597
				c-0.085-0.085-0.171-0.256-0.256-0.341c-0.448-0.623-0.847-1.279-1.195-1.963l-0.512-0.768c-0.966-1.84-1.711-3.788-2.219-5.803
				c-0.252-0.806-0.423-1.635-0.512-2.475c-0.455-2.597-0.455-5.254,0-7.851c0.089-0.84,0.26-1.669,0.512-2.475
				c0.188-0.779,0.416-1.548,0.683-2.304c0.071-0.233,0.157-0.461,0.256-0.683c0.339-0.976,0.767-1.919,1.28-2.816l0.512-0.768
				c0.547-0.962,1.175-1.876,1.877-2.731c0.611-0.855,1.296-1.655,2.048-2.389c0.772-0.828,1.63-1.572,2.56-2.219
				c0.763-0.694,1.626-1.269,2.56-1.707l0.171-0.171c0.256-0.171,0.512-0.256,0.768-0.427c0.58-0.319,1.179-0.604,1.792-0.853
				c0.448-0.259,0.94-0.432,1.451-0.512l1.536-0.512c0.467-0.193,0.953-0.336,1.451-0.427c0.306-0.091,0.621-0.148,0.939-0.171
				c1.599-0.339,3.229-0.511,4.864-0.512c6.792-0.009,13.309,2.685,18.112,7.488C312.048,241.694,314.742,248.211,314.733,255.003z"
				/>
			<path style="fill:#02A9F4;" d="M220.867,255.003c0.009,6.792-2.685,13.309-7.488,18.112c-4.803,4.803-11.32,7.497-18.112,7.488
				c-0.853,0-1.792-0.085-2.645-0.171c-0.578-0.008-1.152-0.094-1.707-0.256c-0.758-0.08-1.503-0.252-2.219-0.512
				c-1.261-0.269-2.491-0.669-3.669-1.195c-0.597-0.256-1.195-0.597-1.792-0.853c-0.256-0.171-0.512-0.256-0.768-0.427
				c-1.958-1.094-3.741-2.475-5.291-4.096c-0.556-0.528-1.07-1.098-1.536-1.707c-0.167-0.149-0.311-0.321-0.427-0.512
				c-0.171-0.171-0.341-0.427-0.512-0.597c-0.085-0.085-0.171-0.256-0.256-0.341c-0.448-0.623-0.847-1.279-1.195-1.963l-0.512-0.768
				c-0.966-1.84-1.711-3.788-2.219-5.803c-0.252-0.806-0.423-1.635-0.512-2.475c-0.455-2.597-0.455-5.254,0-7.851
				c0.089-0.84,0.26-1.669,0.512-2.475c0.188-0.779,0.416-1.548,0.683-2.304c0.071-0.233,0.157-0.461,0.256-0.683
				c0.339-0.976,0.767-1.919,1.28-2.816l0.512-0.768c0.547-0.962,1.175-1.876,1.877-2.731c0.611-0.855,1.296-1.655,2.048-2.389
				c0.772-0.828,1.63-1.572,2.56-2.219c0.763-0.694,1.626-1.269,2.56-1.707l0.171-0.171c0.256-0.171,0.512-0.256,0.768-0.427
				c0.58-0.319,1.179-0.604,1.792-0.853c1.434-0.611,2.919-1.096,4.437-1.451c0.306-0.091,0.621-0.148,0.939-0.171
				c1.599-0.339,3.229-0.511,4.864-0.512c6.792-0.009,13.309,2.685,18.112,7.488C218.182,241.694,220.876,248.211,220.867,255.003z"
				/>
			<path style="fill:#02A9F4;" d="M127,255.003c0.009,6.792-2.685,13.309-7.488,18.112c-4.803,4.803-11.32,7.497-18.112,7.488
				c-0.853,0-1.792-0.085-2.645-0.171c-0.578-0.008-1.152-0.094-1.707-0.256c-0.758-0.08-1.503-0.252-2.219-0.512
				c-1.261-0.269-2.491-0.669-3.669-1.195c-0.597-0.256-1.195-0.597-1.792-0.853c-0.256-0.171-0.512-0.256-0.768-0.427
				c-1.958-1.094-3.741-2.475-5.291-4.096c-0.556-0.528-1.07-1.098-1.536-1.707c-0.167-0.149-0.311-0.321-0.427-0.512
				c-0.171-0.171-0.341-0.427-0.512-0.597c-0.085-0.085-0.171-0.256-0.256-0.341c-0.448-0.623-0.847-1.279-1.195-1.963l-0.512-0.768
				c-0.966-1.84-1.711-3.788-2.219-5.803c-0.252-0.806-0.423-1.635-0.512-2.475c-0.455-2.597-0.455-5.254,0-7.851
				c0.089-0.84,0.26-1.669,0.512-2.475c0.188-0.779,0.416-1.548,0.683-2.304c0.071-0.233,0.157-0.461,0.256-0.683
				c0.339-0.976,0.767-1.919,1.28-2.816l0.512-0.768c0.547-0.962,1.175-1.876,1.877-2.731c0.611-0.855,1.296-1.655,2.048-2.389
				c0.772-0.828,1.63-1.572,2.56-2.219c0.763-0.694,1.626-1.269,2.56-1.707l0.171-0.171c0.256-0.171,0.512-0.256,0.768-0.427
				c0.58-0.319,1.179-0.604,1.792-0.853c1.434-0.611,2.919-1.096,4.437-1.451c0.306-0.091,0.621-0.148,0.939-0.171
				c1.599-0.339,3.229-0.511,4.864-0.512c6.792-0.009,13.309,2.685,18.112,7.488C124.315,241.694,127.009,248.211,127,255.003z"/>
		</g>
		<path style="fill:#795548;" d="M92.867,468.336h324.267c9.426,0,17.067,7.641,17.067,17.067l0,0
			c0,9.426-7.641,17.067-17.067,17.067H92.867c-9.426,0-17.067-7.641-17.067-17.067l0,0C75.8,475.977,83.441,468.336,92.867,468.336
			z"/>
	</g>
	<g>
		<path d="M102.4,366.936h128.393l-122.749,93.867H93.867c-14.138,0-25.6,11.462-25.6,25.6c0,14.138,11.462,25.6,25.6,25.6h324.267
			c14.138,0,25.6-11.461,25.6-25.6c0-14.138-11.462-25.6-25.6-25.6h-14.177l-122.749-93.867h171.059
			c27.929,0.015,52.137-19.335,58.274-46.582c6.137-27.247-7.435-55.107-32.674-67.068v-22.883
			c-0.042-24.958-18.061-46.254-42.667-50.429v-40.446c-0.536-16.28-14.134-29.063-30.417-28.592h-3.717V93.87h18.967
			c26.675-0.333,57.833-7.237,57.833-25.6c0-17.683-30-25.6-59.733-25.6h-18.639c-3.565-10.22-13.204-17.067-24.028-17.067
			s-20.463,6.847-24.028,17.067H332.8c-29.733,0-59.733,7.917-59.733,25.6s30,25.6,59.733,25.6h17.067v17.067h-3.717
			c-16.282-0.471-29.881,12.311-30.417,28.592v39.675H170.667V119.47c-0.02-18.843-15.29-34.113-34.133-34.133H128V68.27h18.967
			c26.675-0.333,57.833-7.237,57.833-25.6c0-17.683-30-25.6-59.733-25.6h-18.639C122.863,6.85,113.224,0.003,102.4,0.003
			S81.937,6.85,78.372,17.07H59.733C30,17.07,0,24.986,0,42.67s30,25.6,59.733,25.6H76.8v17.067h-8.533
			c-18.843,0.02-34.113,15.29-34.133,34.133v59.733H25.6c-14.132,0.015-25.585,11.468-25.6,25.6v59.733
			C0.063,321.064,45.872,366.873,102.4,366.936z M426.667,486.403c-0.005,4.711-3.822,8.529-8.533,8.533H93.867
			c-4.713,0-8.533-3.82-8.533-8.533s3.821-8.533,8.533-8.533h324.267C422.844,477.874,426.662,481.692,426.667,486.403z
			 M136.141,460.803L256,369.145l119.859,91.658H136.141z M460.025,68.29c-4.017,3.25-17.917,8.233-40.1,8.513h-18.859V59.736
			h17.067C441.692,59.736,456,65.128,460.025,68.29z M332.8,76.803c-23.508,0-37.808-5.371-41.867-8.533
			c4.058-3.163,18.358-8.533,41.867-8.533h17.067v17.067H332.8z M366.933,51.203c0-4.713,3.821-8.533,8.533-8.533
			c4.713,0,8.533,3.821,8.533,8.533v59.733h-17.067V51.203z M186.958,42.69c-4.017,3.25-17.917,8.233-40.1,8.513H128V34.136h17.067
			C168.625,34.136,182.933,39.528,186.958,42.69z M59.733,51.203c-23.508,0-37.808-5.371-41.867-8.533
			c4.058-3.163,18.358-8.533,41.867-8.533H76.8v17.067H59.733z M93.867,25.603c0-4.713,3.821-8.533,8.533-8.533
			c4.713,0,8.533,3.821,8.533,8.533v59.733H93.867V25.603z M17.067,204.803c0.005-4.711,3.822-8.529,8.533-8.533h8.533v8.533
			c0,4.713,3.821,8.533,8.533,8.533s8.533-3.821,8.533-8.533V119.47c0.011-9.421,7.645-17.056,17.067-17.067h68.267
			c9.421,0.011,17.056,7.645,17.067,17.067v85.333c0,4.713,3.821,8.533,8.533,8.533c4.713,0,8.533-3.821,8.533-8.533v-8.533h145.067
			v8.533c0,4.713,3.821,8.533,8.533,8.533s8.533-3.821,8.533-8.533v-65.275c0.548-6.847,6.497-11.982,13.35-11.525h58.633
			c6.853-0.457,12.802,4.678,13.35,11.525v65.275c0,4.713,3.82,8.533,8.533,8.533s8.533-3.821,8.533-8.533v-7.322
			c15.032,3.868,25.554,17.4,25.6,32.922v28.588c0,3.621,2.285,6.848,5.7,8.05c19.586,6.918,31.336,26.946,27.818,47.418
			s-21.279,35.429-42.051,35.411H102.4c-47.106-0.054-85.279-38.227-85.333-85.333V204.803z"/>
		<path d="M102.4,324.27c-0.001,2.263,0.898,4.434,2.499,6.035c1.6,1.6,3.771,2.499,6.035,2.499H426.85
			c4.713-0.005,8.53-3.829,8.525-8.542c-0.005-4.713-3.829-8.53-8.542-8.525h-315.9c-2.263-0.001-4.434,0.898-6.035,2.499
			C103.298,319.835,102.399,322.006,102.4,324.27z"/>
		<path d="M358.4,298.67h34.133c9.421-0.011,17.056-7.645,17.067-17.067v-51.2c-0.011-9.421-7.645-17.056-17.067-17.067H358.4
			c-9.421,0.011-17.056,7.645-17.067,17.067v51.2C341.344,291.024,348.979,298.659,358.4,298.67z M358.4,230.403h34.133l0.009,51.2
			H358.4V230.403z"/>
		<path d="M290.133,290.136c18.851,0,34.133-15.282,34.133-34.133s-15.282-34.133-34.133-34.133S256,237.152,256,256.003
			C256.02,274.846,271.29,290.116,290.133,290.136z M290.133,238.936c9.426,0,17.067,7.641,17.067,17.067
			c0,9.426-7.641,17.067-17.067,17.067c-9.426,0-17.067-7.641-17.067-17.067C273.077,246.582,280.712,238.947,290.133,238.936z"/>
		<path d="M196.267,290.136c18.851,0,34.133-15.282,34.133-34.133s-15.282-34.133-34.133-34.133s-34.133,15.282-34.133,34.133
			C162.153,274.846,177.424,290.116,196.267,290.136z M196.267,238.936c9.426,0,17.067,7.641,17.067,17.067
			c0,9.426-7.641,17.067-17.067,17.067s-17.067-7.641-17.067-17.067C179.211,246.582,186.845,238.947,196.267,238.936z"/>
		<path d="M102.4,290.136c18.851,0,34.133-15.282,34.133-34.133S121.251,221.87,102.4,221.87s-34.133,15.282-34.133,34.133
			C68.287,274.846,83.557,290.116,102.4,290.136z M102.4,238.936c9.426,0,17.067,7.641,17.067,17.067
			c0,9.426-7.641,17.067-17.067,17.067s-17.067-7.641-17.067-17.067C85.344,246.582,92.979,238.947,102.4,238.936z"/>
	</g>
</g>
<g>
</g>
<g>
</g>
<g>
</g>
<g>
</g>
<g>
</g>
<g>
</g>
<g>
</g>
<g>
</g>
<g>
</g>
<g>
</g>
<g>
</g>
<g>
</g>
<g>
</g>
<g>
</g>
<g>
</g>
</svg>
