<?xml version="1.0" encoding="iso-8859-1"?>
<!-- Generator: Adobe Illustrator 19.0.0, SVG Export Plug-In . SVG Version: 6.00 Build 0)  -->
<svg version="1.1" id="Capa_1" xmlns="http://www.w3.org/2000/svg" xmlns:xlink="http://www.w3.org/1999/xlink" x="0px" y="0px"
	 viewBox="0 0 512 512" style="enable-background:new 0 0 512 512;" xml:space="preserve">
<g>
	<g transform="translate(1 1)">
		<g>
			<path style="fill:#607D8B;" d="M195.282,260.259c-0.01-0.329-0.015-0.66-0.015-0.992c-0.003-9.053,3.593-17.737,9.995-24.139
				c6.402-6.402,15.085-9.997,24.139-9.995v-17.067H33.133v17.067c9.056-0.012,17.746,3.58,24.15,9.984
				c6.404,6.404,9.996,15.093,9.984,24.149L44.824,401.688c-0.798,4.924,0.608,9.95,3.844,13.746s7.978,5.977,12.966,5.966H152.6
				c9.414-0.028,17.039-7.652,17.067-17.067v-76.8c0-18.851,15.282-34.133,34.133-34.133"/>
			<path style="fill:#607D8B;" d="M493.933,131.267h-25.6c-0.014-4.707-3.826-8.519-8.533-8.533h-17.067v-17.067
				c0-9.426-7.641-17.067-17.067-17.067H408.6v34.133H58.733c-28.268,0.022-51.178,22.932-51.2,51.2v51.2H357.4
				c4.707-0.014,8.519-3.826,8.533-8.533h85.333c4.707-0.014,8.519-3.826,8.533-8.533v-25.6h8.533v-8.533h25.6
				c4.713,0,8.533-3.821,8.533-8.533v-25.6C502.467,135.087,498.646,131.267,493.933,131.267z"/>
		</g>
		<path style="fill:#CFD8DC;" d="M459.8,182.467v25.6c-0.014,4.707-3.826,8.519-8.533,8.533h-85.333v-17.067
			c0.027-9.414,7.652-17.039,17.067-17.067H459.8z"/>
		<path style="fill:#9E9E9E;" d="M468.333,131.267h25.6c4.713,0,8.533,3.82,8.533,8.533v25.6c0,4.713-3.821,8.533-8.533,8.533h-25.6
			V131.267z"/>
		<path style="fill:#CFD8DC;" d="M135.533,267.8v110.933c0,4.713-3.821,8.533-8.533,8.533H91.557c-2.491,0-4.858-1.088-6.479-2.98
			c-1.621-1.891-2.335-4.396-1.954-6.858l17.158-110.933c0.643-4.16,4.224-7.229,8.433-7.229H127
			C131.713,259.267,135.533,263.087,135.533,267.8z"/>
		<path style="fill:#9E9E9E;" d="M408.6,88.6h17.067c9.426,0,17.067,7.641,17.067,17.067v17.067H408.6V88.6z"/>
		<path style="fill:#CFD8DC;" d="M314.733,122.733v25.6c-0.028,9.414-7.652,17.039-17.067,17.067h-102.4
			c-9.414-0.028-17.039-7.653-17.067-17.067v-25.6H314.733z"/>
	</g>
	<g>
		<path d="M494.933,123.733h-19.441c-3.025-5.262-8.624-8.513-14.693-8.533h-8.533v-8.533c-0.015-14.132-11.468-25.585-25.6-25.6
			H409.6c-2.263-0.001-4.434,0.898-6.035,2.499s-2.499,3.771-2.499,6.035v25.6H59.733C26.759,115.237,0.037,141.959,0,174.933v51.2
			c0,4.713,3.821,8.533,8.533,8.533h25.6c13.891,0.014,25.241,11.093,25.591,24.979L37.354,401.338
			c-1.169,7.394,0.956,14.929,5.818,20.621c4.861,5.692,11.971,8.971,19.457,8.973l0.005,0.001H153.6
			c14.132-0.015,25.585-11.468,25.6-25.6v-76.8c0.015-14.132,11.468-25.585,25.6-25.6H256c23.553-0.028,42.639-19.114,42.667-42.667
			v-25.6H358.4c6.069-0.019,11.669-3.271,14.693-8.533h79.173c9.421-0.011,17.056-7.645,17.067-17.067V192
			c2.263,0.001,4.434-0.898,6.035-2.499c1.6-1.6,2.499-3.771,2.499-6.035h17.067c9.421-0.011,17.056-7.645,17.067-17.067v-25.6
			C511.989,131.379,504.355,123.744,494.933,123.733z M418.133,98.133h8.533c4.711,0.005,8.529,3.822,8.533,8.533v8.533h-17.067
			V98.133z M187.733,132.267H307.2v17.067c-0.006,4.71-3.823,8.527-8.533,8.533h-102.4c-4.71-0.006-8.527-3.823-8.533-8.533V132.267
			z M162.133,328.533v76.8c-0.006,4.71-3.823,8.527-8.533,8.533H62.637c-2.495-0.002-4.864-1.096-6.485-2.993
			s-2.329-4.409-1.94-6.873l22.483-142.404c0.07-0.44,0.105-0.884,0.104-1.329c-0.032-9.262-3.107-18.257-8.752-25.6h128.436
			c-11.904,15.365-11.639,36.909,0.64,51.976C176.889,290.347,162.176,307.961,162.133,328.533z M281.6,260.267
			c-0.015,14.132-11.468,25.585-25.6,25.6h-25.6c-11.702,0.04-21.931-7.886-24.814-19.227c-2.883-11.341,2.32-23.19,12.621-28.742
			l13.093,26.186c2.114,4.204,7.232,5.903,11.441,3.799s5.92-7.218,3.826-11.432l-10.892-21.783H281.6V260.267z M17.067,217.6
			v-42.667c0.028-23.553,19.114-42.639,42.667-42.667h110.933v17.067c0.015,14.132,11.468,25.585,25.6,25.6h102.4
			c14.132-0.015,25.585-11.468,25.6-25.6v-17.067H460.8v42.667H384c-14.132,0.015-25.585,11.468-25.6,25.6V217.6H17.067z
			 M452.267,209.067h-76.8v-8.533c0.006-4.71,3.823-8.527,8.533-8.533h68.267V209.067z M477.867,166.4v-25.6h17.067l0.009,25.6
			H477.867z"/>
		<path d="M128,251.733h-18.283c-8.433-0.039-15.616,6.118-16.867,14.458L75.692,377.125c-0.762,4.923,0.666,9.934,3.908,13.717
			c3.243,3.783,7.976,5.959,12.958,5.958H128c9.422-0.009,17.057-7.645,17.067-17.067V268.8
			C145.057,259.378,137.422,251.743,128,251.733z M128,379.733H92.558L109.717,268.8L128,268.788V379.733z"/>
		<path d="M51.2,157.867c-4.713,0-8.533,3.821-8.533,8.533V192c0,4.713,3.821,8.533,8.533,8.533s8.533-3.821,8.533-8.533v-25.6
			C59.733,161.687,55.913,157.867,51.2,157.867z"/>
		<path d="M85.333,157.867c-4.713,0-8.533,3.821-8.533,8.533V192c0,4.713,3.821,8.533,8.533,8.533s8.533-3.821,8.533-8.533v-25.6
			C93.867,161.687,90.046,157.867,85.333,157.867z"/>
		<path d="M119.467,157.867c-4.713,0-8.533,3.821-8.533,8.533V192c0,4.713,3.821,8.533,8.533,8.533c4.713,0,8.533-3.821,8.533-8.533
			v-25.6C128,161.687,124.179,157.867,119.467,157.867z"/>
	</g>
</g>
<g>
</g>
<g>
</g>
<g>
</g>
<g>
</g>
<g>
</g>
<g>
</g>
<g>
</g>
<g>
</g>
<g>
</g>
<g>
</g>
<g>
</g>
<g>
</g>
<g>
</g>
<g>
</g>
<g>
</g>
</svg>
