<?xml version="1.0" encoding="iso-8859-1"?>
<!-- Generator: Adobe Illustrator 19.0.0, SVG Export Plug-In . SVG Version: 6.00 Build 0)  -->
<svg version="1.1" id="Capa_1" xmlns="http://www.w3.org/2000/svg" xmlns:xlink="http://www.w3.org/1999/xlink" x="0px" y="0px"
	 viewBox="0 0 512 512" style="enable-background:new 0 0 512 512;" xml:space="preserve">
<g>
	<g transform="translate(1 1)">
		<path style="fill:#F44335;" d="M255,7.533L255,7.533c9.426,0,17.067,7.641,17.067,17.067v110.933
			c0,9.426-7.641,17.067-17.067,17.067l0,0c-9.426,0-17.067-7.641-17.067-17.067V24.6C237.933,15.174,245.574,7.533,255,7.533z"/>
		<path style="fill:#F44335;" d="M255,357.4L255,357.4c9.426,0,17.067,7.641,17.067,17.067V485.4
			c0,9.426-7.641,17.067-17.067,17.067l0,0c-9.426,0-17.067-7.641-17.067-17.067V374.467C237.933,365.041,245.574,357.4,255,357.4z"
			/>
		<path style="fill:#F44335;" d="M7.533,255L7.533,255c0-9.426,7.641-17.067,17.067-17.067h110.933
			c9.426,0,17.067,7.641,17.067,17.067l0,0c0,9.426-7.641,17.067-17.067,17.067H24.6C15.174,272.067,7.533,264.426,7.533,255z"/>
		<path style="fill:#F44335;" d="M357.4,255L357.4,255c0-9.426,7.641-17.067,17.067-17.067H485.4
			c9.426,0,17.067,7.641,17.067,17.067l0,0c0,9.426-7.641,17.067-17.067,17.067H374.467C365.041,272.067,357.4,264.426,357.4,255z"
			/>
	</g>
	<g>
		<path d="M256,196.267c-32.99,0-59.733,26.744-59.733,59.733S223.01,315.733,256,315.733S315.733,288.99,315.733,256
			C315.695,223.026,288.974,196.305,256,196.267z M256,298.667c-23.564,0-42.667-19.103-42.667-42.667
			c0-23.564,19.103-42.667,42.667-42.667c23.564,0,42.667,19.103,42.667,42.667C298.639,279.553,279.553,298.639,256,298.667z"/>
		<path d="M486.4,230.4h-1.676C472.298,123.787,388.213,39.702,281.6,27.276V25.6C281.6,11.462,270.139,0,256,0
			c-14.138,0-25.6,11.462-25.6,25.6v1.676C123.787,39.702,39.702,123.787,27.276,230.4H25.6C11.462,230.4,0,241.862,0,256
			c0,14.139,11.462,25.6,25.6,25.6h1.676C39.702,388.213,123.787,472.298,230.4,484.725v1.676c0,14.138,11.462,25.6,25.6,25.6
			c14.139,0,25.6-11.461,25.6-25.6v-1.676c106.613-12.426,190.698-96.512,203.124-203.125h1.676c14.138,0,25.6-11.461,25.6-25.6
			C512,241.862,500.539,230.4,486.4,230.4z M467.548,230.4h-68.825c-10.536-59.768-57.349-106.552-117.123-117.052V44.452
			C378.79,56.664,455.336,133.21,467.548,230.4z M375.467,281.6h5.971c-10.145,50.344-49.494,89.693-99.838,99.838v-5.971
			c0-14.138-11.461-25.6-25.6-25.6c-14.138,0-25.6,11.462-25.6,25.6v5.971c-50.343-10.122-89.681-49.488-99.768-99.838h5.902
			c14.138,0,25.6-11.461,25.6-25.6c0-14.138-11.462-25.6-25.6-25.6h-5.902c10.061-50.349,49.419-89.706,99.769-99.765v5.898
			c0,14.138,11.462,25.6,25.6,25.6c14.139,0,25.6-11.462,25.6-25.6v-5.898c50.352,10.08,89.722,49.42,99.839,99.765h-5.972
			c-14.138,0-25.6,11.462-25.6,25.6C349.867,270.139,361.328,281.6,375.467,281.6z M247.467,25.6c0-4.713,3.821-8.533,8.533-8.533
			c4.713,0,8.533,3.821,8.533,8.533v110.933c0,4.713-3.821,8.533-8.533,8.533c-4.713,0-8.533-3.821-8.533-8.533V25.6z M230.4,44.452
			v68.896c-59.775,10.471-106.579,57.277-117.048,117.052h-68.9C56.664,133.21,133.21,56.664,230.4,44.452z M17.067,256
			c0.005-4.711,3.822-8.529,8.533-8.533h110.933c4.713,0,8.533,3.821,8.533,8.533c0,4.713-3.821,8.533-8.533,8.533H25.6
			C20.889,264.529,17.071,260.711,17.067,256z M44.452,281.6h68.901c10.497,59.774,57.28,106.588,117.048,117.123v68.825
			C133.21,455.336,56.664,378.79,44.452,281.6z M264.533,486.4c0,4.713-3.821,8.533-8.533,8.533c-4.713,0-8.533-3.82-8.533-8.533
			V375.467c0-4.713,3.821-8.533,8.533-8.533c4.713,0,8.533,3.821,8.533,8.533V486.4z M281.6,467.548v-68.825
			c59.768-10.562,106.561-57.355,117.123-117.123h68.825C455.336,378.79,378.79,455.336,281.6,467.548z M486.4,264.533H375.467
			c-4.713,0-8.533-3.821-8.533-8.533c0-4.713,3.821-8.533,8.533-8.533H486.4c4.713,0,8.533,3.821,8.533,8.533
			C494.933,260.713,491.113,264.533,486.4,264.533z"/>
	</g>
</g>
<g>
</g>
<g>
</g>
<g>
</g>
<g>
</g>
<g>
</g>
<g>
</g>
<g>
</g>
<g>
</g>
<g>
</g>
<g>
</g>
<g>
</g>
<g>
</g>
<g>
</g>
<g>
</g>
<g>
</g>
</svg>
