<?xml version="1.0" encoding="iso-8859-1"?>
<!-- Generator: Adobe Illustrator 19.0.0, SVG Export Plug-In . SVG Version: 6.00 Build 0)  -->
<svg version="1.1" id="Capa_1" xmlns="http://www.w3.org/2000/svg" xmlns:xlink="http://www.w3.org/1999/xlink" x="0px" y="0px"
	 viewBox="0 0 511.982 511.982" style="enable-background:new 0 0 511.982 511.982;" xml:space="preserve">
<g>
	<g transform="translate(1 1)">
		<path style="fill:#2E7D32;" d="M485.4,408.591H272.067c-9.414-0.028-17.039-7.652-17.067-17.067v-25.6
			c-0.027-9.414-7.652-17.039-17.067-17.067H7.533l11.093-7.936c12.976-9.214,23.877-21.045,32-34.731
			c10.895-18.019,16.65-38.677,16.64-59.733c0.013-80.113,64.954-145.054,145.067-145.067h110.933
			c38.475-0.003,75.375,15.279,102.581,42.485s42.489,64.106,42.485,102.581v59.733h-42.667l17.749,42.667h42.667l15.019,36.096
			c2.216,5.259,1.65,11.278-1.508,16.032C496.436,405.739,491.107,408.595,485.4,408.591z"/>
		<path style="fill:#4CAF50;" d="M442.733,408.591H272.067c-9.414-0.028-17.039-7.652-17.067-17.067v-25.6
			c-0.027-9.414-7.652-17.039-17.067-17.067H7.533l11.093-7.936c12.976-9.214,23.877-21.045,32-34.731
			c10.895-18.019,16.65-38.677,16.64-59.733c0.013-80.113,64.954-145.054,145.067-145.067H280.6
			c66.529,0.093,124.512,45.32,140.8,109.824c2.075,8.546,3.417,17.253,4.011,26.027v0.085c-0.085,0.085-0.085,0.085,0,0.171
			c0.085,1.707,0.171,3.328,0.171,4.949c0.085,1.28,0.085,2.645,0.085,4.011v59.733l17.749,42.667l15.019,36.096
			c2.216,5.259,1.65,11.278-1.508,16.032C453.769,405.739,448.44,408.595,442.733,408.591z"/>
		<g>
			<polygon style="fill:#558B30;" points="486.083,348.858 443.416,348.858 425.667,306.191 468.333,306.191 			"/>
			<path style="fill:#558B30;" d="M443.416,348.858H7.533l11.093-7.936c12.976-9.214,23.877-21.045,32-34.731h375.04
				L443.416,348.858z"/>
		</g>
		<path style="fill:#8BC34A;" d="M443.416,348.858H7.533l11.093-7.936c12.976-9.214,23.877-21.045,32-34.731h375.04L443.416,348.858
			z"/>
		<polygon style="fill:#FFEB3A;" points="195.267,144.058 213.724,183.388 255,189.694 225.133,220.303 232.182,263.524 
			195.267,243.121 158.352,263.524 165.4,220.303 135.533,189.694 176.809,183.388 		"/>
	</g>
	<g>
		<path d="M324.25,93.858H213.333c-84.794,0.098-153.507,68.815-153.6,153.609c-0.035,34.717-16.798,67.29-45.029,87.496
			l-11.133,7.954c-3.017,2.157-4.295,6.016-3.163,9.547c1.133,3.532,4.417,5.927,8.125,5.928h230.4
			c4.71,0.006,8.527,3.823,8.533,8.533v25.6c0.015,14.132,11.468,25.585,25.6,25.6h213.317c8.559,0,16.552-4.278,21.3-11.4
			c4.748-7.122,5.622-16.145,2.329-24.046l-32.162-77.196v-58.025C477.755,162.666,409.042,93.953,324.25,93.858z M213.333,110.924
			H324.25c75.37,0.086,136.447,61.164,136.533,136.533v51.2H65.737c7.278-16.089,11.049-33.542,11.064-51.2
			C76.886,172.088,137.964,111.011,213.333,110.924z M59.733,341.324H34.138c8.485-7.489,15.907-16.102,22.061-25.6h407.43
			l10.666,25.6H59.733z M493.484,397.258c-1.565,2.393-4.241,3.825-7.1,3.8H273.067c-4.71-0.006-8.527-3.823-8.533-8.533v-25.6
			c-0.029-2.914-0.561-5.801-1.572-8.533h218.443l12.854,30.854C495.38,391.874,495.088,394.892,493.484,397.258z"/>
		<path d="M426.35,239.579c0.2,2.6,0.3,5.226,0.3,7.879c0,4.713,3.82,8.533,8.533,8.533s8.533-3.821,8.533-8.533
			c0-3.092-0.117-6.154-0.35-9.188c-0.361-4.699-4.463-8.215-9.163-7.854C429.505,230.777,425.989,234.88,426.35,239.579
			L426.35,239.579z"/>
		<path d="M324.25,145.058c41.355-0.039,78.662,24.835,94.529,63.025c1.826,4.334,6.815,6.372,11.154,4.558
			c4.339-1.814,6.391-6.797,4.588-11.141c-18.511-44.547-62.031-73.558-110.271-73.508c-4.713,0-8.533,3.821-8.533,8.533
			S319.537,145.058,324.25,145.058z"/>
		<path d="M157.283,224.174l-6.354,38.975c-0.528,3.225,0.834,6.469,3.506,8.351c2.672,1.882,6.184,2.073,9.044,0.49l32.788-18.125
			l32.788,18.125c2.86,1.582,6.372,1.392,9.044-0.49c2.672-1.882,4.033-5.126,3.506-8.351l-6.354-38.975l26.858-27.525
			c2.233-2.289,2.999-5.635,1.983-8.668c-1.016-3.032-3.642-5.242-6.804-5.724l-36.771-5.621l-16.525-35.204
			c-1.406-2.995-4.416-4.908-7.725-4.908c-3.309,0-6.319,1.913-7.725,4.908l-16.525,35.204l-36.771,5.621
			c-3.162,0.482-5.788,2.692-6.804,5.724c-1.016,3.032-0.25,6.378,1.983,8.668L157.283,224.174z M179.096,192.816
			c2.814-0.428,5.229-2.232,6.438-4.808l10.733-22.867L207,188.008c1.209,2.577,3.624,4.38,6.438,4.808l24.858,3.8l-18.271,18.725
			c-1.892,1.938-2.75,4.66-2.313,7.333l4.221,25.879l-21.537-11.904c-2.569-1.422-5.689-1.422-8.258,0L170.6,248.554l4.221-25.879
			c0.438-2.673-0.42-5.395-2.313-7.333l-18.271-18.725L179.096,192.816z"/>
	</g>
</g>
<g>
</g>
<g>
</g>
<g>
</g>
<g>
</g>
<g>
</g>
<g>
</g>
<g>
</g>
<g>
</g>
<g>
</g>
<g>
</g>
<g>
</g>
<g>
</g>
<g>
</g>
<g>
</g>
<g>
</g>
</svg>
