<?xml version="1.0" encoding="iso-8859-1"?>
<!-- Generator: Adobe Illustrator 19.0.0, SVG Export Plug-In . SVG Version: 6.00 Build 0)  -->
<svg version="1.1" id="Capa_1" xmlns="http://www.w3.org/2000/svg" xmlns:xlink="http://www.w3.org/1999/xlink" x="0px" y="0px"
	 viewBox="0 0 512 512" style="enable-background:new 0 0 512 512;" xml:space="preserve">
<g>
	<g transform="translate(1 1)">
		<path style="fill:#4E342E;" d="M434.2,41.667v179.2c0.002,9.053-3.593,17.737-9.995,24.139
			c-6.402,6.402-15.085,9.997-24.139,9.995c9.054-0.003,17.737,3.593,24.139,9.995c6.402,6.402,9.997,15.085,9.995,24.139v179.2
			c0.002,9.053-3.593,17.737-9.995,24.139c-6.402,6.402-15.085,9.997-24.139,9.995h-25.6c9.053,0.002,17.737-3.593,24.139-9.995
			c6.402-6.402,9.997-15.085,9.995-24.139V357.4h-68.267v17.067c-0.028,9.414-7.652,17.039-17.067,17.067H186.733
			c-9.414-0.028-17.039-7.652-17.067-17.067V135.533c0.028-9.414,7.652-17.039,17.067-17.067h136.533
			c9.414,0.028,17.039,7.652,17.067,17.067V152.6H408.6V41.667c0.003-9.054-3.593-17.737-9.995-24.139
			c-6.402-6.402-15.085-9.997-24.139-9.995h25.6c9.054-0.003,17.737,3.593,24.139,9.995C430.607,23.93,434.203,32.613,434.2,41.667z
			"/>
		<g>
			<path style="fill:#795548;" d="M408.6,357.4v110.933c0.002,9.053-3.593,17.737-9.995,24.139
				c-6.402,6.402-15.085,9.997-24.139,9.995h-85.333c-9.053,0.002-17.737-3.593-24.139-9.995
				c-6.402-6.402-9.997-15.085-9.995-24.139c-0.023,18.842-15.291,34.111-34.133,34.133H109.933
				c-9.053,0.002-17.737-3.593-24.139-9.995s-9.997-15.085-9.995-24.139V357.4h93.867v17.067
				c0.028,9.414,7.652,17.039,17.067,17.067h136.533c9.414-0.028,17.039-7.652,17.067-17.067V357.4H408.6z"/>
			<path style="fill:#795548;" d="M408.6,41.667V152.6h-68.267v-17.067c-0.027-9.414-7.652-17.039-17.067-17.067H186.733
				c-9.414,0.028-17.039,7.652-17.067,17.067V152.6H75.8V41.667c-0.003-9.054,3.593-17.737,9.995-24.139s15.085-9.997,24.139-9.995
				h110.933C239.709,7.556,254.977,22.825,255,41.667c-0.003-9.054,3.593-17.737,9.995-24.139
				c6.402-6.402,15.085-9.997,24.139-9.995h85.333c9.054-0.003,17.737,3.593,24.139,9.995
				C405.007,23.93,408.603,32.613,408.6,41.667z"/>
			<path style="fill:#795548;" d="M75.8,152.6v42.667h-8.533c-4.707-0.014-8.519-3.826-8.533-8.533v-25.6
				c0.014-4.707,3.826-8.519,8.533-8.533H75.8z"/>
			<path style="fill:#795548;" d="M169.667,195.267v119.467H75.8v-25.6c-0.003-9.054,3.593-17.737,9.995-24.139
				c6.402-6.402,15.085-9.997,24.139-9.995c-9.053,0.002-17.737-3.593-24.139-9.995c-6.402-6.402-9.997-15.085-9.995-24.139v-25.6
				H169.667z"/>
			<path style="fill:#795548;" d="M67.267,314.733H75.8V357.4h-8.533c-4.707-0.014-8.519-3.826-8.533-8.533v-25.6
				C58.747,318.56,62.56,314.747,67.267,314.733z"/>
			<path style="fill:#795548;" d="M408.6,152.6v68.267c0.002,9.053-3.593,17.737-9.995,24.139
				c-6.402,6.402-15.085,9.997-24.139,9.995c9.054-0.003,17.737,3.593,24.139,9.995c6.402,6.402,9.997,15.085,9.995,24.139V357.4
				h-68.267v17.067c-0.028,9.414-7.652,17.039-17.067,17.067H186.733c-9.414-0.028-17.039-7.652-17.067-17.067V135.533
				c0.028-9.414,7.652-17.039,17.067-17.067h136.533c9.414,0.028,17.039,7.652,17.067,17.067V152.6H408.6z"/>
		</g>
		<g>
			<rect x="75.8" y="152.6" style="fill:#9E9E9E;" width="93.867" height="42.667"/>
			<path style="fill:#9E9E9E;" d="M67.267,152.6H75.8v42.667h-8.533c-4.707-0.014-8.519-3.826-8.533-8.533v-25.6
				C58.747,156.426,62.56,152.614,67.267,152.6z"/>
			<path style="fill:#9E9E9E;" d="M451.267,161.133v25.6c-0.014,4.707-3.826,8.519-8.533,8.533H169.667V152.6h273.067
				C447.44,152.614,451.253,156.426,451.267,161.133z"/>
			<rect x="75.8" y="314.733" style="fill:#9E9E9E;" width="93.867" height="42.667"/>
			<path style="fill:#9E9E9E;" d="M67.267,314.733H75.8V357.4h-8.533c-4.707-0.014-8.519-3.826-8.533-8.533v-25.6
				C58.747,318.56,62.56,314.747,67.267,314.733z"/>
			<path style="fill:#9E9E9E;" d="M451.267,323.267v25.6c-0.014,4.707-3.826,8.519-8.533,8.533H169.667v-42.667h273.067
				C447.44,314.747,451.253,318.56,451.267,323.267z"/>
		</g>
		<path style="fill:#37474F;" d="M186.733,118.467h136.533c9.426,0,17.067,7.641,17.067,17.067v238.933
			c0,9.426-7.641,17.067-17.067,17.067H186.733c-9.426,0-17.067-7.641-17.067-17.067V135.533
			C169.667,126.108,177.308,118.467,186.733,118.467z"/>
		<path style="fill:#607D8B;" d="M186.733,118.467h110.933c9.426,0,17.067,7.641,17.067,17.067v238.933
			c0,9.426-7.641,17.067-17.067,17.067H186.733c-9.426,0-17.067-7.641-17.067-17.067V135.533
			C169.667,126.108,177.308,118.467,186.733,118.467z"/>
		<path style="fill:#2296F3;" d="M212.333,152.6h85.333c4.713,0,8.533,3.821,8.533,8.533v51.2c0,4.713-3.82,8.533-8.533,8.533
			h-85.333c-4.713,0-8.533-3.821-8.533-8.533v-51.2C203.8,156.421,207.621,152.6,212.333,152.6z"/>
		<g>
			<circle style="fill:#C52828;" cx="220.867" cy="348.867" r="17.067"/>
			<circle style="fill:#C52828;" cx="289.133" cy="348.867" r="17.067"/>
		</g>
	</g>
	<g>
		<path d="M443.733,221.867V204.8c9.421-0.011,17.056-7.645,17.067-17.067v-25.6c-0.011-9.421-7.645-17.056-17.067-17.067v-102.4
			C443.706,19.114,424.619,0.028,401.067,0H290.133C276.651,0.037,263.986,6.468,256,17.331C248.015,6.468,235.349,0.037,221.867,0
			H110.933C87.381,0.028,68.294,19.114,68.267,42.667v102.4c-9.422,0.009-17.057,7.645-17.067,17.067v25.6
			c0.009,9.422,7.645,17.057,17.067,17.067v17.067c0.037,13.482,6.468,26.148,17.331,34.133
			c-10.863,7.986-17.294,20.651-17.331,34.133V307.2c-9.422,0.009-17.057,7.645-17.067,17.067v25.6
			c0.009,9.422,7.645,17.057,17.067,17.067v102.4c0.028,23.553,19.114,42.639,42.667,42.667h110.933
			c13.482-0.037,26.148-6.468,34.133-17.331c7.986,10.863,20.651,17.294,34.133,17.331h110.933
			c23.553-0.028,42.639-19.114,42.667-42.667v-102.4c9.421-0.011,17.056-7.645,17.067-17.067v-25.6
			c-0.011-9.421-7.645-17.056-17.067-17.067v-17.067c-0.037-13.482-6.468-26.148-17.331-34.133
			C437.266,248.015,443.697,235.349,443.733,221.867z M443.733,187.733h-93.867v-25.6h93.867V187.733z M179.2,358.4V136.533
			c0.006-4.71,3.823-8.527,8.533-8.533h136.533c4.71,0.006,8.527,3.823,8.533,8.533v238.933c-0.006,4.71-3.823,8.527-8.533,8.533
			H187.733c-4.71-0.006-8.527-3.823-8.533-8.533V358.4z M85.333,42.667c0.015-14.132,11.468-25.585,25.6-25.6h110.933
			c14.132,0.015,25.585,11.468,25.6,25.6v25.6c0,4.713,3.821,8.533,8.533,8.533c4.713,0,8.533-3.82,8.533-8.533v-25.6
			c0.015-14.132,11.468-25.585,25.6-25.6h110.933c14.132,0.015,25.585,11.468,25.6,25.6v102.4h-76.8v-8.533
			c-0.015-14.132-11.468-25.585-25.6-25.6H187.733c-14.132,0.015-25.585,11.468-25.6,25.6v8.533h-76.8V42.667z M68.267,162.133
			h93.867v25.6H68.267V162.133z M85.333,290.133c0.015-14.132,11.468-25.585,25.6-25.6h25.6c4.713,0,8.533-3.821,8.533-8.533
			c0-4.713-3.821-8.533-8.533-8.533h-25.6c-14.132-0.015-25.585-11.468-25.6-25.6V204.8h76.8v102.4h-76.8V290.133z M68.267,324.267
			h93.867v25.6H68.267V324.267z M426.667,469.333c-0.015,14.132-11.468,25.585-25.6,25.6H290.133
			c-14.132-0.015-25.585-11.468-25.6-25.6v-25.6c0-4.713-3.821-8.533-8.533-8.533c-4.713,0-8.533,3.821-8.533,8.533v25.6
			c-0.015,14.132-11.468,25.585-25.6,25.6H110.933c-14.132-0.015-25.585-11.468-25.6-25.6v-102.4h76.8v8.533
			c0.015,14.132,11.468,25.585,25.6,25.6h136.533c14.132-0.015,25.585-11.468,25.6-25.6v-8.533h76.8V469.333z M443.733,349.867
			h-93.867v-25.6h93.867V349.867z M401.067,247.467h-25.6c-4.713,0-8.533,3.821-8.533,8.533c0,4.713,3.821,8.533,8.533,8.533h25.6
			c14.132,0.015,25.585,11.468,25.6,25.6V307.2h-76.8V204.8h76.8v17.067C426.651,235.999,415.199,247.451,401.067,247.467z"/>
		<path d="M213.333,230.4h85.333c9.422-0.009,17.057-7.645,17.067-17.067v-51.2c-0.009-9.422-7.645-17.057-17.067-17.067h-85.333
			c-9.422,0.009-17.057,7.645-17.067,17.067v51.2C196.276,222.755,203.912,230.391,213.333,230.4z M213.333,162.133h85.333
			l0.012,51.2h-85.346V162.133z"/>
		<path d="M247.467,179.2h-8.533c-4.713,0-8.533,3.821-8.533,8.533c0,4.713,3.821,8.533,8.533,8.533h8.533
			c4.713,0,8.533-3.821,8.533-8.533C256,183.021,252.18,179.2,247.467,179.2z"/>
		<path d="M279.125,181.675c-0.83-0.754-1.782-1.362-2.817-1.796c-2.079-0.85-4.409-0.85-6.487,0
			c-1.044,0.413-1.999,1.023-2.813,1.796c-0.754,0.828-1.362,1.78-1.796,2.813c-0.436,1.027-0.667,2.13-0.679,3.246
			c0.032,2.259,0.916,4.423,2.475,6.059c0.83,0.752,1.781,1.358,2.813,1.792c1.014,0.479,2.126,0.712,3.246,0.683
			c2.27,0.022,4.453-0.87,6.058-2.475c1.605-1.605,2.497-3.788,2.475-6.058c0.03-1.121-0.204-2.232-0.683-3.246
			C280.483,183.456,279.877,182.504,279.125,181.675z"/>
		<path d="M204.8,256h17.067c4.713,0,8.533-3.82,8.533-8.533c0-4.713-3.821-8.533-8.533-8.533H204.8
			c-4.713,0-8.533,3.821-8.533,8.533C196.267,252.18,200.087,256,204.8,256z"/>
		<path d="M247.467,256h17.067c4.713,0,8.533-3.82,8.533-8.533c0-4.713-3.82-8.533-8.533-8.533h-17.067
			c-4.713,0-8.533,3.821-8.533,8.533C238.933,252.18,242.754,256,247.467,256z"/>
		<path d="M307.2,238.933h-17.067c-4.713,0-8.533,3.821-8.533,8.533c0,4.713,3.821,8.533,8.533,8.533H307.2
			c4.713,0,8.533-3.82,8.533-8.533C315.733,242.754,311.913,238.933,307.2,238.933z"/>
		<path d="M204.8,281.6h17.067c4.713,0,8.533-3.82,8.533-8.533s-3.821-8.533-8.533-8.533H204.8c-4.713,0-8.533,3.82-8.533,8.533
			S200.087,281.6,204.8,281.6z"/>
		<path d="M247.467,281.6h17.067c4.713,0,8.533-3.82,8.533-8.533s-3.82-8.533-8.533-8.533h-17.067c-4.713,0-8.533,3.82-8.533,8.533
			S242.754,281.6,247.467,281.6z"/>
		<path d="M307.2,264.533h-17.067c-4.713,0-8.533,3.82-8.533,8.533s3.821,8.533,8.533,8.533H307.2c4.713,0,8.533-3.82,8.533-8.533
			S311.913,264.533,307.2,264.533z"/>
		<path d="M204.8,307.2h17.067c4.713,0,8.533-3.82,8.533-8.533s-3.821-8.533-8.533-8.533H204.8c-4.713,0-8.533,3.82-8.533,8.533
			S200.087,307.2,204.8,307.2z"/>
		<path d="M247.467,307.2h17.067c4.713,0,8.533-3.82,8.533-8.533s-3.82-8.533-8.533-8.533h-17.067c-4.713,0-8.533,3.82-8.533,8.533
			S242.754,307.2,247.467,307.2z"/>
		<path d="M307.2,290.133h-17.067c-4.713,0-8.533,3.82-8.533,8.533s3.821,8.533,8.533,8.533H307.2c4.713,0,8.533-3.82,8.533-8.533
			S311.913,290.133,307.2,290.133z"/>
		<path d="M221.867,375.467c14.138,0,25.6-11.462,25.6-25.6c0-14.138-11.462-25.6-25.6-25.6c-14.139,0-25.6,11.462-25.6,25.6
			C196.282,363.999,207.735,375.451,221.867,375.467z M221.867,341.333c4.713,0,8.533,3.821,8.533,8.533
			c0,4.713-3.821,8.533-8.533,8.533c-4.713,0-8.533-3.821-8.533-8.533C213.339,345.156,217.156,341.339,221.867,341.333z"/>
		<path d="M290.133,324.267c-14.139,0-25.6,11.462-25.6,25.6c0,14.138,11.461,25.6,25.6,25.6c14.138,0,25.6-11.462,25.6-25.6
			C315.718,335.735,304.265,324.282,290.133,324.267z M290.133,358.4c-4.713,0-8.533-3.821-8.533-8.533
			c0-4.713,3.821-8.533,8.533-8.533c4.713,0,8.533,3.821,8.533,8.533C298.661,354.577,294.844,358.394,290.133,358.4z"/>
	</g>
</g>
<g>
</g>
<g>
</g>
<g>
</g>
<g>
</g>
<g>
</g>
<g>
</g>
<g>
</g>
<g>
</g>
<g>
</g>
<g>
</g>
<g>
</g>
<g>
</g>
<g>
</g>
<g>
</g>
<g>
</g>
</svg>
