<?xml version="1.0" encoding="iso-8859-1"?>
<!-- Generator: Adobe Illustrator 19.0.0, SVG Export Plug-In . SVG Version: 6.00 Build 0)  -->
<svg version="1.1" id="Capa_1" xmlns="http://www.w3.org/2000/svg" xmlns:xlink="http://www.w3.org/1999/xlink" x="0px" y="0px"
	 viewBox="0 0 511.991 511.991" style="enable-background:new 0 0 511.991 511.991;" xml:space="preserve">
<g>
	<g>
		<g>
			<path style="fill:#4FBA6F;" d="M111.612,221.858c1.023,26.112-1.11,48.896-9.217,59.733
				c-12.629,16.811-33.535,39.936-51.541,58.965c-5.888-3.413-11.605-6.4-16.555-8.789c-1.535-0.768-2.986-1.451-4.352-2.048
				c-2.475-1.109-4.608-2.133-6.485-2.901l-6.4,6.912v-9.472l50.944-55.637l42.923-46.763H111.612z"/>
			<path style="fill:#4FBA6F;" d="M494.929,324.258v153.6h-59.733l-42.667,25.6h-40.192l42.667-25.6h-8.533
				c0,0-17.067-59.733-8.533-93.867c4.181-16.64,22.442-31.232,40.192-41.813c-16.128-19.371-35.754-43.264-48.725-60.587
				c-0.942-1.261-1.771-2.603-2.475-4.011v157.611c-1.393,15.384-14.892,26.792-30.293,25.6h-161.28
				c-15.401,1.192-28.9-10.216-30.294-25.6v-230.4c1.393-15.384,14.892-26.792,30.293-25.6h161.28
				c9.976-0.244,19.487,4.211,25.685,12.032c3.299-31.178,8.198-62.167,14.677-92.843c-2.321,1.295-4.936,1.971-7.594,1.963
				c-12.242-0.586-24.366-2.678-36.096-6.229c2.245-3.692,4.158-7.575,5.716-11.605c7.823-23.555,8.887-48.831,3.073-72.96
				c2.003-1.133,4.396-1.35,6.57-0.597l80.726,26.88c8.459,2.811,13.328,11.659,11.178,20.309
				c-3.755,14.848-11.007,35.925-23.381,42.24c-8.76,40.667-14.381,81.948-16.811,123.477h0.683L494.929,324.258z"/>
		</g>
		<path style="fill:#8BC34A;" d="M85.329,477.858H17.062V333.73l6.4-6.912c1.877,0.768,4.011,1.792,6.485,2.901
			c1.365,0.597,2.815,1.28,4.352,2.048c4.949,2.389,10.667,5.376,16.554,8.789c18.603,10.667,38.657,25.941,43.009,43.435
			C102.396,418.125,85.329,477.858,85.329,477.858z"/>
		<path style="fill:#558B30;" d="M23.462,326.818l-6.4,6.912v-9.472c0,0,1.877,0.683,5.035,1.963
			C22.529,326.471,22.986,326.671,23.462,326.818z"/>
		<path style="fill:#2E7D32;" d="M339.025,82.509c-1.559,4.03-3.472,7.914-5.717,11.605c-0.513,0.939-1.11,1.877-1.707,2.816
			c-0.748,1.192-1.574,2.332-2.474,3.413c-1.676,2.306-3.501,4.501-5.463,6.571c-1.023,1.024-2.048,2.133-3.156,3.157
			c-0.756,0.755-1.553,1.468-2.389,2.133c-1.053,0.977-2.164,1.889-3.328,2.731c-0.853,0.683-1.792,1.365-2.816,2.048
			c-1.658,1.227-3.397,2.339-5.206,3.328c-1.621,0.939-3.242,1.877-4.949,2.731c-0.853,0.427-1.707,0.853-2.645,1.28
			c-0.341,0.171-0.598,0.256-0.94,0.427c-0.683,0.341-1.45,0.597-2.219,0.939c-1.621,0.683-3.327,1.365-5.119,1.963
			c-1.793,0.683-3.585,1.28-5.462,1.792c-9.592,2.797-19.534,4.205-29.525,4.181c-1.792,0-3.583-0.085-5.376-0.171
			c-1.707-0.085-3.413-0.171-5.12-0.427c-3.184-0.245-6.348-0.702-9.472-1.365h-0.171c-0.977-0.15-1.945-0.349-2.901-0.597
			c-0.171,0-0.341-0.085-0.513-0.085c-1.963-0.427-3.925-0.939-5.802-1.536c-24.405-6.052-44.373-23.539-53.589-46.933
			c-7.823-23.555-8.887-48.831-3.073-72.96c1.642,0.788,2.967,2.112,3.755,3.755c8.364,17.323,34.304,61.44,82.347,61.44
			s73.983-44.117,82.347-61.44c0.788-1.642,2.113-2.967,3.755-3.755C347.912,33.678,346.847,58.954,339.025,82.509z"/>
		<g>
			<path style="fill:#8BC34A;" d="M440.572,56.141c-3.755,14.848-11.007,35.925-23.381,42.24c-2.321,1.295-4.937,1.971-7.595,1.963
				c-25.6,0-68.267-17.067-68.267-17.067l-2.304-0.768c7.823-23.555,8.887-48.831,3.073-72.96c2.003-1.133,4.396-1.35,6.57-0.597
				l80.726,26.88C437.852,38.643,442.722,47.491,440.572,56.141z"/>
			<path style="fill:#8BC34A;" d="M172.966,82.509l-2.304,0.768c0,0-14.763,5.888-32.171,10.837
				c-11.73,3.552-23.854,5.644-36.096,6.229c-2.658,0.008-5.274-0.668-7.595-1.963c-1.292-0.686-2.52-1.485-3.67-2.389
				C80.977,87.799,74.748,69.453,71.42,56.141c-2.15-8.65,2.72-17.498,11.178-20.309l80.726-26.88
				c2.174-0.753,4.567-0.535,6.57,0.597C164.079,33.678,165.144,58.954,172.966,82.509z"/>
			<path style="fill:#8BC34A;" d="M102.396,281.591c-12.629,16.811-33.535,39.936-51.541,58.965
				c-5.888-3.413-11.605-6.4-16.555-8.789c-1.535-0.768-2.986-1.451-4.352-2.048c-2.475-1.109-4.608-2.133-6.485-2.901
				c-0.513-0.171-0.939-0.427-1.365-0.597c-3.158-1.28-5.035-1.963-5.035-1.963l50.944-55.637l42.923-46.763h0.683
				C112.636,247.97,110.502,270.754,102.396,281.591z"/>
		</g>
		<g>
			<path style="fill:#2E7D32;" d="M494.929,324.258c-12.668,4.971-24.912,10.964-36.608,17.92
				c-16.127-19.371-35.755-43.264-48.725-60.587c-8.107-10.837-10.24-33.621-9.217-59.733h0.683L494.929,324.258z"/>
			<path style="fill:#2E7D32;" d="M426.662,477.858h8.533l-42.667,25.6h-40.192l42.667-25.6h-8.533c0,0-17.067-59.733-8.533-93.867
				c4.181-16.64,22.442-31.232,40.192-41.813c-16.128-19.371-35.754-43.264-48.725-60.587c-0.942-1.261-1.771-2.603-2.475-4.011
				v157.611c-1.393,15.384-14.892,26.792-30.293,25.6h-161.28c-15.401,1.192-28.9-10.216-30.294-25.6v-230.4
				c1.393-15.384,14.892-26.792,30.293-25.6h161.28c9.976-0.244,19.487,4.211,25.685,12.032
				c3.299-31.178,8.198-62.167,14.677-92.843c-2.321,1.295-4.936,1.971-7.594,1.963c-12.242-0.586-24.366-2.678-36.096-6.229
				c2.245-3.692,4.158-7.575,5.716-11.605l2.304,0.768c0,0,42.667,17.067,68.267,17.067c2.658,0.008,5.273-0.668,7.595-1.963
				c-8.76,40.667-14.381,81.948-16.811,123.477c-1.023,26.112,1.11,48.896,9.217,59.733c12.971,17.323,32.598,41.216,48.725,60.587
				c-17.749,10.581-36.011,25.173-40.192,41.813C409.596,418.125,426.662,477.858,426.662,477.858z"/>
		</g>
		<g>
			<path style="fill:#4CAF50;" d="M10.662,340.557c2.133-2.219,4.267-4.523,6.4-6.827v10.752
				C14.929,343.031,12.796,341.751,10.662,340.557z"/>
			<path style="fill:#4CAF50;" d="M386.47,477.858h8.533l-42.667,25.6H119.462l-42.667-25.6h8.533c0,0,17.067-59.733,8.533-93.867
				c-4.352-17.493-24.405-32.768-43.008-43.435c18.006-19.029,38.912-42.155,51.541-58.965c8.107-10.837,10.24-33.621,9.217-59.733
				c-2.431-41.529-8.051-82.81-16.811-123.477c2.321,1.295,4.937,1.971,7.595,1.963c12.242-0.586,24.366-2.678,36.096-6.229
				c17.408-4.949,32.171-10.837,32.171-10.837l2.304-0.768c9.217,23.394,29.184,40.882,53.589,46.933
				c1.877,0.597,3.84,1.109,5.802,1.536c0.171,0,0.341,0.085,0.512,0.085c0.956,0.248,1.925,0.448,2.901,0.597h0.171
				c3.124,0.664,6.288,1.12,9.472,1.365c1.706,0.256,3.412,0.341,5.12,0.427c1.793,0.085,3.584,0.171,5.376,0.171
				c9.991,0.023,19.934-1.385,29.525-4.181c1.877-0.512,3.67-1.109,5.463-1.792c1.792-0.597,3.498-1.28,5.119-1.963
				c0.769-0.341,1.537-0.597,2.219-0.939c0.341-0.171,0.598-0.256,0.94-0.427c0.937-0.427,1.792-0.853,2.645-1.28
				c1.707-0.853,3.328-1.792,4.949-2.731c1.809-0.989,3.549-2.101,5.206-3.328c1.023-0.682,1.961-1.365,2.816-2.048
				c1.164-0.842,2.275-1.754,3.328-2.731c0.836-0.666,1.634-1.378,2.389-2.133c1.108-1.024,2.133-2.133,3.156-3.157
				c1.986-2.047,3.812-4.244,5.463-6.571c0.9-1.081,1.726-2.222,2.474-3.413c0.597-0.939,1.195-1.877,1.707-2.816
				c11.73,3.552,23.854,5.644,36.096,6.229c2.658,0.008,5.273-0.668,7.594-1.963c-6.479,30.676-11.378,61.664-14.677,92.843
				c-6.198-7.821-15.709-12.276-25.685-12.032h-161.28c-15.401-1.192-28.901,10.216-30.294,25.6v230.4
				c1.393,15.384,14.892,26.792,30.293,25.6h161.28c15.401,1.192,28.9-10.216,30.293-25.6V277.581
				c0.704,1.408,1.532,2.75,2.475,4.011c12.971,17.323,32.597,41.216,48.725,60.587c-17.75,10.581-36.011,25.173-40.192,41.813
				C369.404,418.125,386.47,477.858,386.47,477.858z"/>
		</g>
		<path style="fill:#8BC34A;" d="M111.612,221.858c1.023,26.112-1.11,48.896-9.217,59.733
			c-12.629,16.811-33.535,39.936-51.541,58.965c-5.888-3.413-11.605-6.4-16.555-8.789c-1.535-0.768-2.986-1.451-4.352-2.048
			c-2.475-1.109-4.608-2.133-6.485-2.901c14.421-15.701,29.013-32.341,38.741-45.227c2.749-3.911,4.719-8.315,5.803-12.971
			l42.923-46.763H111.612z"/>
		<path style="fill:#4CAF50;" d="M366.929,277.581v157.611c-1.393,15.384-14.892,26.792-30.293,25.6h-161.28
			c-15.401,1.192-28.9-10.216-30.294-25.6v-230.4c1.393-15.384,14.892-26.792,30.293-25.6h161.28
			c9.976-0.244,19.487,4.211,25.685,12.032v0.085c-1.023,10.325-1.792,20.651-2.133,30.549c-0.853,22.784,0.598,43.008,6.4,54.955
			C366.673,277.069,366.844,277.325,366.929,277.581z"/>
		<path style="fill:#2E7D32;" d="M494.929,324.258v153.6h-68.267c0,0-17.067-59.733-8.533-93.867
			c4.181-16.64,22.443-31.232,40.192-41.813C470.017,335.222,482.261,329.229,494.929,324.258z"/>
		<path style="fill:#4E342E;" d="M366.931,273.058l-0.001,162.133c-1.393,15.384-14.892,26.792-30.293,25.6h-161.28
			c-15.401,1.192-28.9-10.216-30.294-25.6V273.058c1.393,15.384,14.892,26.792,30.293,25.6h161.281
			c13.681,0.034,25.804-8.808,29.952-21.845C366.829,275.576,366.944,274.318,366.931,273.058z"/>
		<path style="fill:#795548;" d="M341.331,273.058l-0.001,162.133c-1.393,15.384-14.892,26.792-30.293,25.6h-135.68
			c-15.401,1.192-28.9-10.216-30.294-25.6V298.317c1.552,0.244,3.122,0.358,4.693,0.341h161.281
			c13.928,0.832,26.489-8.329,29.952-21.845C341.229,275.576,341.344,274.318,341.331,273.058z"/>
		<path style="fill:#4E342E;" d="M366.929,204.791v68.267c0.014,1.26-0.101,2.518-0.341,3.755
			c-3.463,13.516-16.024,22.678-29.952,21.845h-161.28c-15.401,1.192-28.9-10.216-30.294-25.6v-68.267
			c1.393-15.384,14.892-26.792,30.293-25.6h161.28c9.976-0.244,19.487,4.211,25.685,12.032v0.085
			C365.273,195.187,366.889,199.917,366.929,204.791z"/>
		<path style="fill:#795548;" d="M341.329,204.791v68.267c0.012,1.258-0.089,2.515-0.302,3.755
			c-2.253,12.81-13.492,22.076-26.496,21.845h-142.67c-6.948,0.159-13.675-2.449-18.701-7.25c-5.026-4.801-7.938-11.402-8.097-18.35
			v-68.267c0.159-6.948,3.072-13.549,8.097-18.35c5.026-4.801,11.753-7.409,18.701-7.25h142.67
			c9.119-0.08,17.663,4.444,22.722,12.032v0.085C339.9,195.308,341.318,199.995,341.329,204.791z"/>
	</g>
	<g>
		<path d="M17.062,486.391h57.369l40.64,24.383c1.326,0.797,2.845,1.217,4.392,1.217h273.067c1.547,0,3.065-0.42,4.392-1.217
			l40.64-24.383h57.369c2.263,0.001,4.434-0.898,6.035-2.499c1.6-1.6,2.499-3.771,2.499-6.035v-153.6
			c0.003-2.148-0.807-4.217-2.267-5.792l-92.204-100.588c2.451-38.461,7.752-76.688,15.859-114.365
			c10.141-7.459,18.336-22.644,24.011-45.347c3.138-12.952-4.15-26.152-16.783-30.396L351.387,0.879
			c-8.129-2.71-17.008,1.028-20.75,8.738c-8.192,17.029-31.858,56.633-74.642,56.633s-66.45-39.604-74.65-56.642
			c-3.749-7.697-12.616-11.431-20.742-8.733L79.912,27.771c-12.636,4.244-19.923,17.452-16.775,30.404
			C68.806,80.872,77,96.056,87.14,103.514c8.107,37.677,13.408,75.903,15.859,114.365L10.796,318.466
			c-1.378,1.486-2.18,3.416-2.258,5.442c-0.009,0.133-0.009,0.266-0.009,0.4v153.55c-0.001,2.263,0.898,4.434,2.499,6.035
			C12.628,485.493,14.799,486.392,17.062,486.391z M390.162,494.925H121.829l-27.76-16.655c2.871-10.61,16.305-63.431,8.069-96.349
			c-4.265-17.07-20.197-31.632-36.956-42.71c0.182-0.154,0.41-0.215,0.581-0.386c15.594-16.418,30.11-33.826,43.458-52.117
			c22.067-29.431,6.642-126.453-3.585-177.91c21.556-2.38,42.702-7.601,62.888-15.528c11.309,22.09,31.571,38.25,55.623,44.363
			c20.793,6.117,42.907,6.117,63.7,0c24.051-6.114,44.311-22.274,55.619-44.364c20.187,7.928,41.335,13.149,62.892,15.529
			c-10.227,51.457-25.652,148.479-3.585,177.914c13.349,18.289,27.865,35.695,43.459,52.112c0.171,0.171,0.399,0.232,0.581,0.386
			c-16.759,11.078-32.692,25.64-36.956,42.71c-8.236,32.918,5.198,85.739,8.069,96.349L390.162,494.925z M486.396,469.325h-53.15
			c-3.933-15.746-13.192-57.858-6.842-83.262c5.05-20.175,38.492-39.213,59.992-48.983V469.325z M460.439,330.966
			c-0.293-1.579-1.037-3.039-2.144-4.204c-14.992-15.874-28.978-32.669-41.875-50.288c-5.448-10.304-8.067-21.867-7.592-33.513
			l71.567,78.075C474.844,323.504,467.852,326.859,460.439,330.966z M432.304,54.033c-5.089,20.347-12.358,33.959-19.558,37.107
			c-0.046,0.027-0.102,0.031-0.146,0.059c-0.948,0.415-1.969,0.636-3.004,0.651c-20.544-1.946-40.705-6.821-59.869-14.475
			c4.988-18.958,5.966-38.748,2.871-58.105l74.081,24.693C430.879,45.356,433.32,49.726,432.304,54.033z M255.996,83.316
			c41.021,0,67.002-28.304,80.981-50.171c1.418,15.664-0.588,31.448-5.881,46.258c-8.319,20.898-26.223,36.488-48.066,41.854
			c-17.648,5.192-36.418,5.192-54.067,0c-21.828-5.359-39.724-20.931-48.05-41.808c-5.301-14.824-7.313-30.623-5.896-46.302
			C189.014,55.036,214.992,83.316,255.996,83.316z M79.696,54.042c-1.026-4.308,1.413-8.685,5.616-10.079l74.092-24.752
			c-3.103,19.376-2.128,39.187,2.863,58.165c-19.163,7.659-39.325,12.533-59.871,14.474c-1.04-0.015-2.066-0.237-3.019-0.654
			l-0.119-0.048C92.054,88.011,84.78,74.393,79.696,54.042z M103.162,242.962c0.476,11.644-2.144,23.206-7.592,33.508
			c-12.897,17.62-26.882,34.417-41.875,50.292c-1.106,1.164-1.851,2.624-2.144,4.204c-7.412-4.107-14.405-7.462-19.956-9.929
			L103.162,242.962z M25.596,337.071c21.492,9.75,54.933,28.775,59.992,48.992c6.333,25.362-2.917,67.508-6.842,83.262h-53.15
			V337.071z"/>
		<path d="M336.671,170.658h-161.35c-20.101-1.18-37.404,14.046-38.792,34.133v230.4c1.388,20.088,18.691,35.313,38.792,34.133
			h161.35c20.101,1.18,37.404-14.046,38.792-34.133v-230.4C374.075,184.704,356.772,169.478,336.671,170.658z M153.596,204.791
			c1.444-10.622,11.063-18.178,21.725-17.067h161.35c10.662-1.112,20.281,6.444,21.725,17.067v68.267
			c-1.444,10.622-11.063,18.178-21.725,17.067h-161.35c-10.662,1.112-20.281-6.444-21.725-17.067V204.791z M336.671,452.258h-161.35
			c-10.662,1.112-20.281-6.444-21.725-17.067V301.317c6.579,3.881,14.086,5.911,21.725,5.874h161.35
			c7.639,0.037,15.146-1.993,21.725-5.874v133.874C356.952,445.814,347.333,453.37,336.671,452.258z"/>
	</g>
</g>
<g>
</g>
<g>
</g>
<g>
</g>
<g>
</g>
<g>
</g>
<g>
</g>
<g>
</g>
<g>
</g>
<g>
</g>
<g>
</g>
<g>
</g>
<g>
</g>
<g>
</g>
<g>
</g>
<g>
</g>
</svg>
