<?xml version="1.0" encoding="iso-8859-1"?>
<!-- Generator: Adobe Illustrator 19.0.0, SVG Export Plug-In . SVG Version: 6.00 Build 0)  -->
<svg version="1.1" id="Capa_1" xmlns="http://www.w3.org/2000/svg" xmlns:xlink="http://www.w3.org/1999/xlink" x="0px" y="0px"
	 viewBox="0 0 512.001 512.001" style="enable-background:new 0 0 512.001 512.001;" xml:space="preserve">
<g>
	<g transform="translate(1 3)">
		<g>
			<path style="fill:#8BC34A;" d="M75.8,195.827l0,27.307l-34.134-15.36v-11.861c-0.013-3.434,0.684-6.833,2.048-9.984l7.935-18.688
				c1.56-2.395,4.225-3.84,7.083-3.84s5.523,1.445,7.083,3.84l7.935,18.688C75.116,189.05,75.813,192.421,75.8,195.827z"/>
			<path style="fill:#8BC34A;" d="M152.6,206.067l0-28.075c0.005-3.433-0.692-6.83-2.048-9.984l-7.936-18.688
				c-1.56-2.395-4.224-3.84-7.083-3.84s-5.523,1.445-7.083,3.84l-7.936,18.688c-1.356,3.154-2.053,6.551-2.048,9.984v14.421
				L152.6,206.067z"/>
			<path style="fill:#8BC34A;" d="M468.334,207.774v-11.861c0.013-3.434-0.684-6.833-2.048-9.984l-7.936-18.688
				c-1.56-2.395-4.224-3.84-7.083-3.84s-5.523,1.445-7.083,3.84l-7.936,18.688c-1.364,3.151-2.061,6.55-2.048,9.984l0,27.221
				L468.334,207.774z"/>
			<path style="fill:#8BC34A;" d="M391.534,177.992l0,36.608l-34.133-6.827v-29.781c-0.004-3.433,0.693-6.83,2.048-9.984
				l7.935-18.688c1.56-2.395,4.225-3.84,7.083-3.84c2.858,0,5.523,1.445,7.083,3.84l7.935,18.688
				C390.841,171.162,391.538,174.56,391.534,177.992z"/>
			<path style="fill:#8BC34A;" d="M229.4,479.134l-24.661,1.877l-71.083,5.461c-0.427,0-0.769,0.085-1.195,0.085
				c-6.947-0.053-12.821-5.157-13.842-12.028c-1.021-6.872,3.114-13.463,9.745-15.534l73.985-22.784l25.344-7.765L229.4,479.134z"/>
			<path style="fill:#8BC34A;" d="M391.534,472.478c0.002,7.744-6.251,14.035-13.995,14.08c-0.426,0-0.768-0.085-1.195-0.085
				l-95.744-7.339h-51.2l-1.707-50.688h54.613l99.329,30.549C387.546,460.817,391.566,466.293,391.534,472.478z"/>
		</g>
		<path style="fill:#2E7D32;" d="M502.467,235.166c0.016,12.63-9.396,23.287-21.931,24.832l-38.4,4.779
			c-4.542,0.594-7.938,4.465-7.935,9.045c0.013,2.403-0.936,4.712-2.635,6.411c-1.699,1.699-4.008,2.648-6.411,2.635H331.8
			l-45.313,19.456l-4.181,126.123l-1.707,50.688l-8.533,17.067h-34.133l-8.533-17.067l-1.707-50.688l-4.181-126.123L178.2,282.867
			H84.846c-2.403,0.013-4.712-0.935-6.411-2.635c-1.699-1.699-2.648-4.008-2.635-6.411c0.002-4.58-3.394-8.451-7.935-9.045
			l-38.4-4.779c-9.054-1.115-16.781-7.077-20.158-15.552s-1.865-18.117,3.943-25.152c3.632-4.509,8.74-7.591,14.422-8.704
			l13.995-2.816l34.133-6.827l42.667-8.533l34.133-6.827l25.6-5.12h42.667V61c-0.024-13.9,8.429-26.409,21.333-31.573
			c4.046-1.723,8.403-2.594,12.8-2.56c9.057-0.013,17.746,3.58,24.15,9.984c6.404,6.404,9.996,15.093,9.984,24.15v119.467H331.8
			l25.6,5.12l34.133,6.827l42.667,8.533l34.133,6.827l13.995,2.816c5.682,1.113,10.789,4.195,14.422,8.704
			C500.443,223.759,502.464,229.371,502.467,235.166z"/>
		<path style="fill:#4CAF50;" d="M476.867,235.166c0.016,12.63-9.396,23.287-21.931,24.832l-38.4,4.779
			c-4.542,0.594-7.938,4.465-7.935,9.045c0.013,2.403-0.936,4.712-2.635,6.411c-1.699,1.699-4.008,2.648-6.411,2.635H306.2
			l-45.313,19.456l-4.181,126.123L255,479.134l-8.533,17.067h-8.533l-8.533-17.067l-1.707-50.688l-4.181-126.123L178.2,282.867
			H84.846c-2.403,0.013-4.712-0.935-6.411-2.635c-1.699-1.699-2.648-4.008-2.635-6.411c0.002-4.58-3.394-8.451-7.935-9.045
			l-38.4-4.779c-9.054-1.115-16.781-7.077-20.158-15.552s-1.865-18.117,3.943-25.152c3.632-4.509,8.74-7.591,14.422-8.704
			l13.995-2.816v-5.12l8.533-1.707l25.6-5.12l17.067-3.413l25.6-5.12l8.533-1.707l25.6-5.12h68.267V61
			c-0.024-13.9,8.429-26.409,21.333-31.573c4.232,1.709,8.089,4.231,11.35,7.424c6.38,6.42,9.967,15.099,9.983,24.149v119.467H306.2
			l25.6,5.12l25.6,5.12l8.533,1.707l25.6,5.12l17.067,3.413l34.133,6.827l13.995,2.816c1.133,0.222,2.246,0.536,3.328,0.939
			c4.352,1.498,8.196,4.189,11.094,7.765C474.843,223.759,476.864,229.371,476.867,235.166z"/>
	</g>
	<g>
		<path d="M485.009,205.221l-7.142-1.429v-4.879c0.014-4.579-0.913-9.112-2.725-13.317l-7.933-18.687
			c-0.198-0.455-0.432-0.894-0.7-1.313c-3.133-4.821-8.492-7.729-14.242-7.729s-11.109,2.908-14.242,7.729
			c-0.267,0.418-0.501,0.857-0.7,1.313l-7.908,18.629c-1.081,2.6-1.827,5.327-2.22,8.115l-26.131-5.228v-7.433
			c0.013-4.579-0.914-9.111-2.725-13.317l-7.933-18.688c-0.197-0.46-0.434-0.902-0.708-1.321c-3.133-4.816-8.488-7.721-14.233-7.721
			s-11.101,2.905-14.233,7.721c-0.274,0.419-0.511,0.861-0.708,1.321l-7.908,18.633c-1.402,3.378-2.237,6.965-2.472,10.615
			l-15.67-3.135c-0.551-0.112-1.113-0.167-1.675-0.167h-34.133v-51.2c4.713,0,8.533-3.821,8.533-8.533
			c0-4.713-3.821-8.533-8.533-8.533V89.6c4.713,0,8.533-3.821,8.533-8.533c0-4.713-3.821-8.533-8.533-8.533V64
			c0.038-20.285-14.249-37.776-34.133-41.789V12.8c0-4.713-3.82-8.533-8.533-8.533s-8.533,3.821-8.533,8.533v9.396
			c-19.85,4.08-34.105,21.539-34.133,41.804v8.533c-4.713,0-8.533,3.821-8.533,8.533c0,4.713,3.821,8.533,8.533,8.533v17.067
			c-4.713,0-8.533,3.821-8.533,8.533c0,4.713,3.821,8.533,8.533,8.533v51.2H179.2c-0.563-0.001-1.124,0.055-1.675,0.167
			l-15.669,3.135c-0.232-3.631-1.059-7.198-2.448-10.56l-7.933-18.687c-0.198-0.455-0.432-0.894-0.7-1.313
			c-3.133-4.821-8.492-7.729-14.242-7.729s-11.109,2.908-14.242,7.729c-0.267,0.418-0.501,0.857-0.7,1.313l-7.908,18.633
			c-1.826,4.221-2.762,8.772-2.751,13.371v7.434l-26.128,5.229c-0.388-2.768-1.126-5.476-2.197-8.058l-7.933-18.688
			c-0.198-0.455-0.432-0.894-0.7-1.313c-3.133-4.821-8.492-7.729-14.242-7.729c-5.749,0-11.109,2.908-14.242,7.729
			c-0.267,0.418-0.501,0.857-0.7,1.313l-7.908,18.629c-1.826,4.222-2.763,8.775-2.751,13.375v4.882l-7.067,1.414
			c-7.644,1.472-14.52,5.604-19.408,11.663c-7.784,9.439-9.806,22.37-5.276,33.735c4.53,11.365,14.892,19.359,27.035,20.857
			l38.85,5.358c0.01,9.703,7.872,17.567,17.575,17.579h91.6l38.721,16.592l3.806,114.208l-93.085,28.634
			c-10.676,3.3-17.346,13.897-15.704,24.951c1.642,11.053,11.105,19.254,22.279,19.308c0.567,0,1.067-0.042,1.85-0.113l90.023-6.899
			l5.969,11.937c1.446,2.891,4.401,4.716,7.633,4.717h34.133c3.232,0,6.187-1.826,7.633-4.717l5.969-11.938l90.306,6.913
			c0.317,0.037,1.242,0.1,1.567,0.1c11.169-0.055,20.629-8.25,22.276-19.297c1.648-11.047-5.009-21.645-15.676-24.957l-93.11-28.639
			l3.806-114.207l38.721-16.592h91.6c9.922-0.201,17.897-8.235,18.025-18.158l38.383-4.775c12.13-1.49,22.488-9.464,27.031-20.81
			c4.543-11.346,2.551-24.265-5.198-33.715C499.524,210.867,492.654,206.714,485.009,205.221z M366.934,180.992
			c0-2.287,0.468-4.55,1.375-6.65l7.158-16.871l7.183,16.925c0.892,2.085,1.352,4.329,1.35,6.596v4.013l-17.067-3.413V180.992z
			 M445.109,192.263l7.158-16.871l7.183,16.929c0.905,2.079,1.365,4.324,1.35,6.592v1.465L443.923,197
			C444.077,195.37,444.477,193.773,445.109,192.263L445.109,192.263z M128,180.992c0-2.287,0.468-4.55,1.375-6.65l7.158-16.871
			l7.183,16.925c0.892,2.085,1.351,4.329,1.35,6.596v0.604L128,185.011V180.992z M51.2,198.913c-0.013-2.289,0.455-4.554,1.375-6.65
			l7.158-16.871l7.183,16.929c0.62,1.493,1.012,3.071,1.161,4.681L51.2,200.38V198.913z M134.659,480.938
			c-0.402-0.011-0.804,0.018-1.2,0.088c-3.022-0.065-5.442-2.524-5.458-5.546c-0.034-2.439,1.544-4.61,3.875-5.329l88.682-27.273
			l1.045,31.374L134.659,480.938z M380.15,470.159c2.523,0.825,4.117,3.311,3.814,5.948c-0.303,2.637-2.42,4.696-5.064,4.927
			l-0.908-0.071l-87.594-6.713l1.045-31.372L380.15,470.159z M480.484,254.53l-38.475,4.787c-8.938,1.394-15.606,8.973-15.85,18.016
			H332.8c-1.157,0.001-2.302,0.236-3.367,0.691l-59.708,25.591c-2.805,1.194-4.759,3.793-5.127,6.819
			c-0.368,3.026,0.905,6.018,3.342,7.85c2.436,1.832,5.665,2.225,8.469,1.031l2.113-0.905l-5.388,161.572l-5.342,10.684h-23.583
			l-5.342-10.684l-5.388-161.572l2.113,0.905c4.335,1.846,9.346-0.173,11.192-4.508c1.846-4.335-0.173-9.346-4.508-11.192
			l-59.708-25.591c-1.064-0.455-2.209-0.69-3.366-0.691l-93.867-0.513c-0.036-8.872-6.621-16.352-15.417-17.512L31.5,254.525
			c-5.979-0.739-11.077-4.688-13.287-10.293c-2.21-5.605-1.179-11.97,2.687-16.591c2.388-2.947,5.736-4.96,9.458-5.688L180.042,192
			h33.292v34.133c0,4.713,3.821,8.533,8.533,8.533c4.713,0,8.533-3.821,8.533-8.533V64c0-14.138,11.462-25.6,25.6-25.6
			c14.138,0,25.6,11.462,25.6,25.6v162.133c0,4.713,3.82,8.533,8.533,8.533s8.533-3.821,8.533-8.533V192h33.292l149.758,29.967
			c3.723,0.749,7.065,2.783,9.442,5.746c3.832,4.632,4.832,10.986,2.609,16.572C491.544,249.87,486.451,253.798,480.484,254.53
			L480.484,254.53z"/>
		<path d="M179.2,243.2h-76.8c-4.713,0-8.533,3.821-8.533,8.533c0,4.713,3.821,8.533,8.533,8.533h76.8
			c4.713,0,8.533-3.821,8.533-8.533C187.734,247.021,183.913,243.2,179.2,243.2z"/>
		<path d="M409.6,243.2h-76.8c-4.713,0-8.533,3.821-8.533,8.533c0,4.713,3.82,8.533,8.533,8.533h76.8
			c4.713,0,8.533-3.821,8.533-8.533C418.134,247.021,414.313,243.2,409.6,243.2z"/>
	</g>
</g>
<g>
</g>
<g>
</g>
<g>
</g>
<g>
</g>
<g>
</g>
<g>
</g>
<g>
</g>
<g>
</g>
<g>
</g>
<g>
</g>
<g>
</g>
<g>
</g>
<g>
</g>
<g>
</g>
<g>
</g>
</svg>
