<?xml version="1.0" encoding="iso-8859-1"?>
<!-- Generator: Adobe Illustrator 19.0.0, SVG Export Plug-In . SVG Version: 6.00 Build 0)  -->
<svg version="1.1" id="Capa_1" xmlns="http://www.w3.org/2000/svg" xmlns:xlink="http://www.w3.org/1999/xlink" x="0px" y="0px"
	 viewBox="0 0 512.033 512.033" style="enable-background:new 0 0 512.033 512.033;" xml:space="preserve">
<g transform="translate(0 -1)">
	<g transform="translate(1 1)">
		<path style="fill:#F44335;" d="M485.409,332.821v-68.267c0-9.426-7.641-17.067-17.067-17.067c-9.426,0-17.067,7.641-17.067,17.067
			v51.2L485.409,332.821z"/>
		<path style="fill:#607D8B;" d="M237.942,479.85l-77.397,23.296c-4.446,1.311-9.13-1.144-10.581-5.547l-4.181-12.8
			c-1.036-3.054-0.241-6.432,2.048-8.704l52.139-52.309v-0.085l20.907-20.992L237.942,479.85z"/>
		<path style="fill:#424242;" d="M364.235,484.799l-4.181,12.8c-1.451,4.402-6.135,6.858-10.581,5.547l-77.397-23.296h-34.133
			l-17.067-77.141h68.267l73.045,73.387C364.476,478.367,365.271,481.745,364.235,484.799z"/>
		<path style="fill:#37474F;" d="M501.622,343.914l-7.936,23.381c-1.47,4.444-4.676,8.104-8.887,10.145
			c-4.212,2.042-9.071,2.291-13.47,0.692l-14.848-5.291l-60.843-21.931c-1.887-0.685-3.88-1.031-5.888-1.024H203.809V169.919h102.4
			l145.067,118.613l34.133,27.904l10.837,8.875C501.716,329.801,503.854,337.198,501.622,343.914z"/>
		<path style="fill:#607D8B;" d="M203.809,169.919v179.968h-83.541c-2.008-0.007-4.001,0.339-5.888,1.024l-75.776,27.307
			c-6.917,2.494-14.656,0.337-19.285-5.376c-1.324-1.589-2.337-3.412-2.987-5.376l-7.851-23.552
			c-2.305-6.74-0.158-14.203,5.376-18.688l19.285-15.787l34.133-27.904l110.933-90.709L203.809,169.919z"/>
		<path style="fill:#F44335;" d="M67.275,264.554v16.981l-34.133,27.904v-44.885c0.028-9.414,7.652-17.039,17.067-17.067
			c4.529-0.009,8.875,1.786,12.078,4.989C65.489,255.679,67.284,260.025,67.275,264.554z"/>
		<path style="fill:#607D8B;" d="M467.403,343.914l-7.851,23.381c-0.659,2.029-1.702,3.912-3.072,5.547
			c-4.659,5.671-12.385,7.791-19.285,5.291l-75.691-27.221c-1.889-0.677-3.881-1.024-5.888-1.024H203.809V169.919h68.267
			l8.533,6.997l25.6,20.907l144.725,118.357l11.179,9.131C467.597,329.793,469.709,337.217,467.403,343.914z"/>
		<path style="fill:#424242;" d="M306.209,159.423v200.448l-17.067,42.837l-17.067,77.141h-34.133l-17.067-77.141l-17.067-42.837
			V159.423c0.003-3.402,1.013-6.727,2.901-9.557l11.263-17.067c1.888-2.799,2.898-6.096,2.902-9.472V79.637
			c0-20.053,11.605-42.923,21.333-58.539c2.048-3.328,4.011-6.315,5.803-8.875c1.572-2.321,4.194-3.712,6.997-3.712
			c2.804,0,5.425,1.391,6.997,3.712c9.984,14.507,27.136,43.093,27.136,67.413v43.691c0.004,3.376,1.014,6.673,2.901,9.472
			l11.263,17.067C305.196,152.696,306.205,156.021,306.209,159.423z"/>
		<path style="fill:#9E9E9E;" d="M280.609,159.423v200.448l-17.067,42.837l-17.067,77.141h-8.533l-17.067-77.141l-17.067-42.837
			V159.423c0.003-3.402,1.013-6.727,2.901-9.557l11.263-17.067c1.888-2.799,2.898-6.096,2.902-9.472V79.637
			c0-20.053,11.605-42.923,21.333-58.539c9.728,15.616,21.333,38.485,21.333,58.539v43.691c0.004,3.376,1.014,6.673,2.901,9.472
			l11.264,17.067C279.596,152.696,280.605,156.021,280.609,159.423z"/>
		<g>
			<path style="fill:#02A9F4;" d="M272.075,222.741v25.771c-0.014,4.707-3.826,8.519-8.533,8.533h-17.067
				c-4.707-0.014-8.519-3.826-8.533-8.533v-25.771H272.075z"/>
			<path style="fill:#02A9F4;" d="M272.075,179.818l0,42.923h-34.134l0-42.923c-0.021-6.905,4.133-13.137,10.514-15.775
				c6.381-2.638,13.723-1.159,18.585,3.743C270.282,170.947,272.099,175.29,272.075,179.818z"/>
		</g>
	</g>
	<g>
		<path d="M247.475,266.566h17.067c9.421-0.011,17.056-7.645,17.067-17.067v-68.65c0-14.138-11.462-25.6-25.6-25.6
			s-25.6,11.462-25.6,25.6v68.65C230.419,258.921,238.054,266.556,247.475,266.566z M247.475,249.5v-17.204h17.073l0.002,17.204
			H247.475z M256.009,172.316c4.711,0.005,8.529,3.822,8.533,8.533l0.004,34.379h-17.071V180.85
			C247.48,176.139,251.298,172.321,256.009,172.316z"/>
		<path d="M264.542,283.775h-17.067c-4.713,0-8.533,3.82-8.533,8.533s3.821,8.533,8.533,8.533h17.067
			c4.713,0,8.533-3.82,8.533-8.533S269.255,283.775,264.542,283.775z"/>
		<path d="M264.542,318.046h-17.067c-4.713,0-8.533,3.821-8.533,8.533s3.821,8.533,8.533,8.533h17.067
			c4.713,0,8.533-3.82,8.533-8.533S269.255,318.046,264.542,318.046z"/>
		<path d="M9.275,371.179c2.197,6.585,6.961,12.003,13.211,15.024c6.25,3.021,13.456,3.388,19.98,1.018l75.783-27.271
			c0.97-0.35,1.994-0.529,3.025-0.529h75v1.434c0.001,1.082,0.207,2.154,0.608,3.158l14.989,37.628l-69.105,69.393
			c-4.592,4.57-6.191,11.351-4.125,17.492l4.25,12.788c2.276,6.986,8.786,11.715,16.133,11.721c1.685-0.001,3.362-0.25,4.975-0.737
			l76.197-22.954h31.623l76.197,22.954c1.613,0.487,3.289,0.736,4.975,0.737c7.346-0.005,13.855-4.733,16.133-11.716l4.25-12.788
			c2.067-6.138,0.471-12.916-4.117-17.487l-69.114-69.402l14.989-37.628c0.401-1.005,0.608-2.076,0.609-3.158v-1.434h75
			c1.031,0,2.055,0.179,3.025,0.529l75.65,27.225c6.561,2.362,13.797,1.982,20.074-1.053c6.278-3.035,11.069-8.471,13.293-15.08
			l7.883-23.421c3.359-10.074,0.166-21.176-8.033-27.925l-7.692-6.288v-47.854c0-14.138-11.462-25.6-25.6-25.6
			c-14.138,0-25.6,11.462-25.6,25.6v5.996l-128-104.643v-6.503c0.003-5.062-1.49-10.013-4.292-14.229l-11.333-17.071
			c-0.942-1.417-1.443-3.082-1.442-4.783v-43.65c0-26.525-17.958-56.675-28.658-72.279C266.854,3.767,261.613,1.001,256.01,1
			C250.407,0.999,245.165,3.763,242,8.387c-10.7,15.608-28.658,45.758-28.658,72.283v43.65c0.001,1.702-0.5,3.366-1.442,4.783
			l-11.341,17.079c-2.797,4.215-4.287,9.162-4.284,14.221v6.503L76.718,264.653c-0.47-13.95-12.042-24.943-25.998-24.698
			c-13.955,0.246-25.133,11.641-25.111,25.598v40.884L9.434,319.662c-8.226,6.771-11.433,17.908-8.067,28.016L9.275,371.179z
			 M159.092,495.933l-4.233-12.85l62.056-62.314l11.983,54.152L159.092,495.933z M352.934,495.954l-69.814-21.031l11.982-54.148
			l62.073,62.367L352.934,495.954z M460.809,265.554c0-4.713,3.82-8.533,8.533-8.533s8.533,3.821,8.533,8.533v33.901l-17.067-13.952
			V265.554z M491.834,332.912c2.717,2.242,3.777,5.923,2.667,9.267l-7.883,23.417c-0.764,2.259-2.404,4.116-4.55,5.155
			c-2.147,1.038-4.621,1.17-6.866,0.366l-75.65-27.225c-2.825-1.018-5.805-1.538-8.808-1.538h-75V188.953L491.834,332.912z
			 M213.342,160.404c-0.001-1.703,0.5-3.368,1.442-4.787l11.333-17.071c2.803-4.214,4.296-9.164,4.292-14.225v-43.65
			c0-22.741,17.95-51.375,25.525-62.633c7.725,11.258,25.675,39.892,25.675,62.633v43.65c-0.005,5.061,1.488,10.011,4.292,14.225
			l11.325,17.062c0.947,1.42,1.451,3.089,1.45,4.796v198.812l-16.423,41.229l-0.017,0.044l-0.018,0.044
			c-0.173,0.425-0.31,0.864-0.408,1.313l-15.583,70.429h-20.433l-15.583-70.429c-0.099-0.448-0.235-0.887-0.408-1.313l-0.018-0.044
			l-0.017-0.044l-16.424-41.229V160.404z M42.675,265.554c0-4.713,3.821-8.533,8.533-8.533s8.533,3.821,8.533,8.533v12.978
			l-17.067,13.953V265.554z M20.234,332.875l176.042-143.921v153.4h-75c-3.003-0.001-5.983,0.519-8.808,1.538l-75.783,27.271
			c-2.208,0.8-4.646,0.675-6.761-0.347c-2.115-1.022-3.727-2.855-4.472-5.082l-7.908-23.5
			C16.415,338.857,17.485,335.136,20.234,332.875z"/>
	</g>
</g>
<g>
</g>
<g>
</g>
<g>
</g>
<g>
</g>
<g>
</g>
<g>
</g>
<g>
</g>
<g>
</g>
<g>
</g>
<g>
</g>
<g>
</g>
<g>
</g>
<g>
</g>
<g>
</g>
<g>
</g>
</svg>
