<svg height="512" viewBox="0 0 60 60" width="512" xmlns="http://www.w3.org/2000/svg"><g id="Page-1" fill="none" fill-rule="evenodd"><g id="010---Pungi" fill-rule="nonzero"><g id="Color" transform="translate(1 1)"><path id="Shape" d="m57.57 18.72c-.4186158.3591844-.9788084.5066035-1.52.4-2.36-.2-6.5-2.79-10.44-6.73s-6.53-8.08-6.73-10.44c-.1066035-.54119159.0408156-1.10138419.4-1.52 1.55-1.56 6.91 1.28 11.96 6.33s7.89 10.41 6.33 11.96z" fill="#624421"/><path id="Shape" d="m56.05 19.12c-8.73 1.68-18.87 8.99-24.24 13.3-.29.23-.57.46-.83.67-1.7154693 1.4005667-4.2127917 1.2746991-5.7787454-.2912546s-1.6918213-4.0632761-.2912546-5.7787454c.21-.26.44-.54.67-.83 4.31-5.37 11.62-15.51 13.3-24.24.2 2.36 2.79 6.5 6.73 10.44s8.08 6.53 10.44 6.73z" fill="#a0522d"/><path id="Shape" d="m45.61 12.39c-3.94-3.94-6.53-8.08-6.73-10.44-.2962648 1.4654169-.7065119 2.90546098-1.227 4.307 1.4142066 2.2258449 3.0772508 4.2834301 4.957 6.133 3.94 3.94 8.08 6.53 10.44 6.73-8.73 1.68-18.87 8.99-24.24 13.3-.29.23-.57.46-.83.67-.3650524.2934334-.7758644.524853-1.216.685 1.4270481.5386959 3.0329064.277782 4.216-.685.26-.21.54-.44.83-.67 5.37-4.31 15.51-11.62 24.24-13.3-2.36-.2-6.5-2.79-10.44-6.73z" fill="#783e22"/><path id="Shape" d="m29.43 42.64c-3.4687448 3.4764249-8.9552124 3.9017732-12.9183209 1.001516s-5.217141-8.258396-2.9527184-12.6161604c2.2644226-4.3577645 7.3698108-6.4113612 12.0210393-4.8353556-.23.29-.46.57-.67.83-1.394635 1.7161335-1.2661669 4.208829.2975021 5.7724979 1.5636689 1.563669 4.0563644 1.6921371 5.7724979.2975021.26-.21.54-.44.83-.67 1.2189118 3.5818643.2959527 7.545159-2.38 10.22z" fill="#ffeb3a"/><path id="Shape" d="m22.58 26.19c-.23.29-.46.57-.67.83-1.2282717 1.5091835-1.2926996 3.6542847-.1572166 5.2344634 1.1354829 1.5801787 3.1890968 2.2032998 5.0112166 1.5205366-.5836081-.2111298-1.1139941-.547314-1.554-.985-1.5697545-1.5596355-1.6995472-4.0559814-.3-5.77.21-.26.44-.54.67-.83-1.506496-.5017487-3.1112352-.635477-4.68-.39.5702939.0808007 1.1324333.2112974 1.68.39z" fill="#fdd834"/><path id="Shape" d="m31.81 32.42c-.29.23-.57.46-.83.67-.5241571.4223867-1.1410517.7143835-1.8.852.4551064 2.6276969-.1676129 5.327938-1.7275316 7.4909374s-3.9254767 3.6063347-6.5624684 4.0040626c3.4326912.5286291 6.8922608-.7735271 9.1244558-3.4343771 2.232195-2.6608501 2.9129819-6.2941353 1.7955442-9.5826229z" fill="#fdd834"/><path id="Shape" d="m22.356 42.575c-1.114824.0030474-2.2134522-.2668032-3.2-.786-.3160014-.166843-.5189891-.4895971-.5324995-.8466839-.0135104-.3570867.164509-.6942562.467-.8845.302491-.1902437.6834981-.2046591.9994995-.0378161.8739099.4561158 1.8650745.6380384 2.844.522.2639906-.0334297.5302954.0411514.7385237.2068304.2082284.165679.3407369.4084176.3674763.6731696.0626626.5486887-.331316 1.0442959-.88 1.107-.2669113.0305622-.5353447.0459203-.804.046z" fill="#f5f5f5"/><path id="Shape" d="m7.98 52.86c-.52277202.4774531-.74162554 1.2031254-.57 1.89.06074763.1801896.08786465.3700087.08.56.00695846.5294133-.20254173 1.0387155-.58 1.41l-.7.7c-.78230311.7700262-2.03769689.7700262-2.82 0l-2.81-2.81c-.77002618-.7823031-.77002618-2.0376969 0-2.82l.7-.7c.51260757-.5126781 1.26252089-.7078086 1.96-.51.68820103.1817501 1.42038392-.0340512 1.9-.56 3.15-3.34 7.13-8.19 8.45-9.76.9468863 1.7600327 2.3899673 3.2031137 4.15 4.15-1.57 1.32-6.42 5.3-9.76 8.45z" fill="#a0522d"/><path id="Shape" d="m17.74 44.41c-1.7600327-.9468863-3.2031137-2.3899673-4.15-4.15-.361.43-.927 1.111-1.615 1.934.131.147.242.3.385.446.7011339.7048007 1.5032529 1.3013346 2.38 1.77-1.57 1.32-6.42 5.3-9.76 8.45-.52277202.4774531-.74162554 1.2031254-.57 1.89.06074763.1801896.08786465.3700087.08.56.00695846.5294133-.20254173 1.0387155-.58 1.41l-.61.61.09.09c.78230311.7700262 2.03769689.7700262 2.82 0l.7-.7c.37745827-.3712845.58695846-.8805867.58-1.41.00786465-.1899913-.01925237-.3798104-.08-.56-.17162554-.6868746.04722798-1.4125469.57-1.89 3.34-3.15 8.19-7.13 9.76-8.45z" fill="#783e22"/><g fill="#37474f"><circle id="Oval" cx="33.651" cy="24.349" r="1.99"/><circle id="Oval" cx="39.28" cy="18.72" r="1.99"/></g></g><g id="Outline" fill="#000"><path id="Shape" d="m3.688 59.127c1.16999558 1.1625082 3.05900442 1.1625082 4.229 0l.7-.7c.55781411-.5472899.87114382-1.296541.869-2.078.01086666-.2913053-.02733268-.582364-.113-.861-.07371307-.3309818.03856073-.6758501.293-.9 2.838-2.682 6.753-5.941 8.856-7.692l.378-.316c3.8475832 1.7494296 8.3594702 1.1188996 11.5800536-1.6182966s4.5702261-7.0884209 3.4639464-11.1677034c5.615-4.45 14.991-11.026 23.131-12.657.086 0 .176.017.26.017.7208156.0341392 1.4241303-.22861 1.946-.727.771-.77 1.307-2.409-.512-5.844-1.5714337-2.7752692-3.5316012-5.31160002-5.821-7.532-2.2201337-2.28899971-4.7561248-4.2488282-7.531-5.82-3.437-1.819-5.074-1.282-5.844-.512-.5326401.58007393-.7879459 1.36240383-.7 2.145-1.608 8.155-8.209 17.564-12.67 23.191-4.0806153-1.1004673-8.4298644.2523381-11.1663522 3.4732206s-3.3688921 7.7315494-1.6236478 11.5807794l-.311.372c-1.75 2.1-5.009 6.014-7.689 8.85-.22322045.2556888-.56996729.3662625-.9.287-1.04457757-.296554-2.16786829-.0055005-2.937.761l-.7.7c-1.16250823 1.1699956-1.16250823 3.0590044 0 4.229zm37.3-56.994c.1563988-.10585577.3452041-.15296855.533-.133 1.0503444.10171333 2.06317.44388416 2.96 1 2.5989736 1.47732265 4.9738991 3.31786461 7.053 5.466 2.1485535 2.0787263 3.9891444 4.453715 5.466 7.053 1.238 2.338 1.045 3.315.866 3.494-.743.742-5.312-1.1-10.548-6.333-2.1488805-2.0784333-3.9895098-4.45347137-5.466-7.053-1.238-2.338-1.043-3.315-.865-3.494zm-.9 4.43c1.5708284 2.77510343 3.5306928 5.3111411 5.82 7.531 2.2559123 2.3281801 4.8370187 4.3174812 7.663 5.906-8.414 2.717-17.325 9.314-22.222 13.314-1.3179992 1.0716665-3.2329024.9732308-4.4340666-.2279334s-1.2995999-3.1160674-.2279334-4.4340666c4-4.9 10.611-13.824 13.322-22.247.029.055.046.101.076.158zm-23.025 23.715c2.0395905-2.0502338 4.9499592-2.9785668 7.8-2.488-1.4411196 2.0981745-1.1811782 4.9256642.6183378 6.7259153s4.6268993 2.0613472 6.7256622.6210847c.4912625 2.850089-.4371711 5.760773-2.488 7.8-2.7855092 2.7542224-7.0295698 3.3973354-10.506 1.592-1.5919481-.8449403-2.8947828-2.1467303-3.741-3.738-1.8090397-3.4779859-1.1661535-7.7260456 1.591-10.513zm-14.776 23.222.7-.7c.2559031-.2527381.62781958-.3485811.974-.251 1.04713131.285686 2.16613856-.0372826 2.9-.837 2.65-2.8 5.82-6.6 7.616-8.756.6928342 1.005837 1.5634327 1.8767744 2.569 2.57-2.158 1.8-5.952 4.964-8.756 7.614-.80132217.7375255-1.12487476 1.8601257-.839 2.911.02759216.0899465.03910184.184055.034.278.00304584.2581596-.09955322.5063482-.284.687l-.7.7c-.38683903.3860202-1.01316097.3860202-1.4 0l-2.814-2.816c-.3860202-.386839-.3860202-1.013161 0-1.4z"/><path id="Shape" d="m34.651 28.339c1.2076146-.0014088 2.2958277-.7291171 2.7584308-1.844614s.2087668-2.399761-.6434308-3.255386c-1.1832997-1.1297822-3.0457003-1.1297822-4.229 0-.8521976.855625-1.1060339 2.1398891-.6434308 3.255386s1.5508162 1.8432052 2.7584308 1.844614zm-.7-3.69c.3877183-.3799635 1.0091042-.3768251 1.3929646.0070354.3838605.3838604.3869989 1.0052463.0070354 1.3929646-.392.3733333-1.008.3733333-1.4 0-.3860202-.386839-.3860202-1.013161 0-1.4z"/><path id="Shape" d="m40.28 22.708c1.353541.0009422 2.5387785-.9078076 2.8891837-2.2152059.3504053-1.3073983-.2214905-2.68709-1.3940766-3.3631935-1.1725862-.6761034-2.6531597-.4798483-3.6091071.4783994-.8541149.8547901-1.1093017 2.1398769-.6465931 3.256156.4627087 1.1162792 1.5522147 1.8439775 2.7605931 1.843844zm-.7-3.687c.3339875-.3339534.857368-.3854735 1.2500609-.1230525s.5453269.7656946.3645565 1.2020369c-.1807704.4363422-.6445976.6842247-1.1078217.5920515-.4632242-.0921732-.7968298-.4987304-.7967957-.9710359-.0005782-.2629692.1038083-.5152965.29-.701z"/></g></g></g></svg>