<svg height="512" viewBox="0 0 60 60" width="512" xmlns="http://www.w3.org/2000/svg"><g id="Page-1" fill="none" fill-rule="evenodd"><g id="011---Internet-Radio" fill-rule="nonzero" transform="translate(0 -1)"><g id="Color" transform="translate(1 2)"><path id="Shape" d="m8 46h46c2.209139 0 4-1.790861 4-4v-31c0-2.209139-1.790861-4-4-4h-42c-2.209139 0-4 1.790861-4 4z" fill="#607d8b"/><path id="Shape" d="m54 7h-3c2.209139 0 4 1.790861 4 4v31c0 2.209139-1.790861 4-4 4h3c2.209139 0 4-1.790861 4-4v-31c0-2.209139-1.790861-4-4-4z" fill="#37474f"/><path id="Shape" d="m53 13v5h-40v-5c.0032948-1.1032019.8967981-1.9967052 2-2h36c1.1032019.0032948 1.9967052.8967981 2 2z" fill="#60a917"/><path id="Shape" d="m51 11h-3c1.1032019.0032948 1.9967052.8967981 2 2v5h3v-5c-.0032948-1.1032019-.8967981-1.9967052-2-2z" fill="#549414"/><path id="Shape" d="m53 18v2c-.0032948 1.1032019-.8967981 1.9967052-2 2h-36c-1.1032019-.0032948-1.9967052-.8967981-2-2v-2z" fill="#008a00"/><path id="Shape" d="m50 18v2c-.0032948 1.1032019-.8967981 1.9967052-2 2h3c1.1032019-.0032948 1.9967052-.8967981 2-2v-2z" fill="#007900"/><circle id="Oval" cx="45" cy="34" fill="#37474f" r="7"/><path id="Shape" d="m50 4v3" fill="#000" stroke="#000" stroke-linecap="round" stroke-linejoin="round" stroke-width="2"/><circle id="Oval" cx="50" cy="2" fill="#00bcd4" r="2"/><circle id="Oval" cx="16" cy="42" fill="#00bcd4" r="16"/><path id="Shape" d="m16 26c-.506 0-1.006.03-1.5.076 8.2180365.7714055 14.4992559 7.669838 14.4992559 15.924s-6.2812194 15.1525945-14.4992559 15.924c.494.046.994.076 1.5.076 8.836556 0 16-7.163444 16-16s-7.163444-16-16-16z" fill="#00838f"/></g><g id="Outline" fill="#000"><path id="Shape" d="m55 8h-3v-1.184c1.3775467-.4870363 2.2038721-1.89566623 1.9567957-3.33573306s-1.4956868-2.49269406-2.9567957-2.49269406-2.7097193 1.05262723-2.9567957 2.49269406.579249 2.84869676 1.9567957 3.33573306v1.184h-37c-2.7600532.00330612-4.99669388 2.2399468-5 5v16.6c-6.39220924 3.9969638-9.38603313 11.7282303-7.35277257 18.9878384 2.03326056 7.2596082 8.60726931 12.3111299 16.14563617 12.4064381 7.5383669.0953082 14.2379875-4.788394 16.4541364-11.9942765h21.753c2.7600532-.0033061 4.9966939-2.2399468 5-5v-31c-.0033061-2.7600532-2.2399468-4.99669388-5-5zm-4-5c.5522847 0 1 .44771525 1 1s-.4477153 1-1 1-1-.44771525-1-1 .4477153-1 1-1zm-39.9 27.216c-1.13308495 1.4371963-2.01702033 3.0543079-2.615 4.784h-3.456c1.57287975-2.0957988 3.6655063-3.7448064 6.071-4.784zm-9.049 14.784h4.978c.05675524 2.0246281.33678369 4.0368086.835 6h-4.12c-.98172952-1.8579945-1.55872834-3.9028811-1.693-6zm15.949-10v-5.863c2.149.53 4.058 2.73 5.339 5.863zm6.039 2c.5531554 1.9547662.8664567 3.9695656.933 6h-6.972v-6zm-8.039-7.863v5.863h-5.339c1.281-3.133 3.19-5.333 5.339-5.863zm0 7.863v6h-6.972c.06654328-2.0304344.3798446-4.0452338.933-6zm-8.971 6h-4.978c.13427166-2.0971189.71127048-4.1420055 1.693-6h4.12c-.49821631 1.9631914-.77824476 3.9753719-.835 6zm2 2h6.971v6h-6.039c-.5531554-1.9547662-.86645672-3.9695656-.933-6zm6.971 8v5.863c-2.149-.53-4.058-2.73-5.339-5.863zm2 5.863v-5.863h5.339c-1.281 3.133-3.19 5.333-5.339 5.863zm0-7.863v-6h6.972c-.0665433 2.0304344-.3798446 4.0452338-.933 6zm8.971-6h4.978c-.1342717 2.0971189-.7112705 4.1420055-1.693 6h-4.12c.4982163-1.9631914.7782448-3.9753719.835-6zm0-2c-.0567552-2.0246281-.3367837-4.0368086-.835-6h4.12c.9817295 1.8579945 1.5587283 3.9028811 1.693 6zm-1.456-8c-.5964495-1.7293574-1.4786838-3.346449-2.61-4.784 2.4036728 1.0399347 4.4945035 2.6888852 6.066 4.784zm-20.486 18h3.456c.59644946 1.7293574 1.4786838 3.346449 2.61 4.784-2.40367283-1.0399347-4.49450351-2.6888852-6.066-4.784zm17.876 4.784c1.1313162-1.437551 2.0135505-3.0546426 2.61-4.784h3.456c-1.5714965 2.0951148-3.6623272 3.7440653-6.066 4.784zm35.095-13.784c0 1.6568542-1.3431458 3-3 3h-21.281c.9146743-4.9562903-.4266857-10.0623962-3.6591726-13.9292387-3.232487-3.8668424-8.0198888-6.0922297-13.0598274-6.0707613-2.4156512.0018705-4.8027565.5222594-7 1.526v-15.526c0-1.6568542 1.3431458-3 3-3h42c1.6568542 0 3 1.3431458 3 3z"/><path id="Shape" d="m52 12h-36c-1.6568542 0-3 1.3431458-3 3v7c0 1.6568542 1.3431458 3 3 3h36c1.6568542 0 3-1.3431458 3-3v-7c0-1.6568542-1.3431458-3-3-3zm-36 2h1v2c0 .5522847.4477153 1 1 1s1-.4477153 1-1v-2h2v1c0 .5522847.4477153 1 1 1s1-.4477153 1-1v-1h2v2c0 .5522847.4477153 1 1 1s1-.4477153 1-1v-2h2v1c0 .5522847.4477153 1 1 1s1-.4477153 1-1v-1h2v2c0 .5522847.4477153 1 1 1s1-.4477153 1-1v-2h2v1c0 .5522847.4477153 1 1 1s1-.4477153 1-1v-1h2v2c0 .5522847.4477153 1 1 1s1-.4477153 1-1v-2h2v1c0 .5522847.4477153 1 1 1s1-.4477153 1-1v-1h2v2c0 .5522847.4477153 1 1 1s1-.4477153 1-1v-2h1c.5522847 0 1 .4477153 1 1v4h-38v-4c0-.5522847.4477153-1 1-1zm36 9h-36c-.5522847 0-1-.4477153-1-1v-1h38v1c0 .5522847-.4477153 1-1 1z"/><circle id="Oval" cx="44" cy="33" r="1"/><path id="Shape" d="m54 35h-.069c-.0891244-.7221075-.2765253-1.4286459-.557-2.1l.054-.032c.4742136-.2780058.6351286-.886647.3602745-1.3626943-.274854-.4760473-.8824145-.640996-1.3602745-.3693057l-.065.037c-.4400064-.5780049-.9559951-1.0939936-1.534-1.534l.037-.065c.2716903-.47786.1067416-1.0854205-.3693057-1.3602745-.4760473-.2748541-1.0846885-.1139391-1.3626943.3602745l-.032.054c-.6713541-.2804747-1.3778925-.4678756-2.1-.557v-.071c0-.5522847-.4477153-1-1-1s-1 .4477153-1 1v.069c-.7221075.0891244-1.4286459.2765253-2.1.557l-.032-.054c-.1773616-.3119508-.5082732-.5049532-.8671183-.5057421s-.6906021.1907567-.8693336.5019247c-.1787314.3111679-.1770325.694247.0044519 1.0038174l.037.065c-.5780049.4400064-1.0939936.9559951-1.534 1.534l-.065-.037c-.47786-.2716903-1.0854205-.1067416-1.3602745.3693057-.2748541.4760473-.1139391 1.0846885.3602745 1.3626943l.054.032c-.2804747.6713541-.4678756 1.3778925-.557 2.1h-.073c-.5522847 0-1 .4477153-1 1s.4477153 1 1 1h.069c.0891244.7221075.2765253 1.4286459.557 2.1l-.054.032c-.3119508.1773616-.5049532.5082732-.5057421.8671183s.1907567.6906021.5019247.8693336c.3111679.1787314.694247.1770325 1.0038174-.0044519l.065-.037c.4400064.5780049.9559951 1.0939936 1.534 1.534l-.037.065c-.1814844.3095704-.1831833.6926495-.0044519 1.0038174.1787315.311168.5104885.5027136.8693336.5019247s.6897567-.1937913.8671183-.5057421l.032-.054c.6713541.2804747 1.3778925.4678756 2.1.557v.073c0 .5522847.4477153 1 1 1s1-.4477153 1-1v-.069c.7221075-.0891244 1.4286459-.2765253 2.1-.557l.032.054c.2780058.4742136.886647.6351286 1.3626943.3602745.4760473-.274854.640996-.8824145.3693057-1.3602745l-.037-.065c.5780049-.4400064 1.0939936-.9559951 1.534-1.534l.065.037c.47786.2716903 1.0854205.1067416 1.3602745-.3693057.2748541-.4760473.1139391-1.0846885-.3602745-1.3626943l-.054-.032c.2804747-.6713541.4678756-1.3778925.557-2.1h.073c.5522847 0 1-.4477153 1-1s-.4477153-1-1-1zm-8 7c-3.3137085 0-6-2.6862915-6-6s2.6862915-6 6-6 6 2.6862915 6 6c-.0033074 3.3123376-2.6876624 5.9966926-6 6z"/><path id="Shape" d="m34 28h-4c-.5522847 0-1 .4477153-1 1s.4477153 1 1 1h4c.5522847 0 1-.4477153 1-1s-.4477153-1-1-1z"/><path id="Shape" d="m34 32h-1c-.5522847 0-1 .4477153-1 1s.4477153 1 1 1h1c.5522847 0 1-.4477153 1-1s-.4477153-1-1-1z"/></g></g></g></svg>