<svg height="512" viewBox="0 0 60 60" width="512" xmlns="http://www.w3.org/2000/svg"><g id="Page-1" fill="none" fill-rule="evenodd"><g id="013---Keyboard" fill-rule="nonzero"><g id="Color" transform="translate(1 1)"><rect id="Rectangle-path" fill="#9d27b0" height="58" rx="8" width="58"/><path id="Shape" d="m50 0h-3c4.418278 0 8 3.581722 8 8v42c0 4.418278-3.581722 8-8 8h3c4.418278 0 8-3.581722 8-8v-42c0-4.418278-3.581722-8-8-8z" fill="#6a1b9a"/><path id="Shape" d="m21 41v5c0 2.209139-1.790861 4-4 4h-8c-2.209139 0-4-1.790861-4-4v-23c.0032948-1.1032019.89679813-1.9967052 2-2h10v18c.0032948 1.1032019.8967981 1.9967052 2 2z" fill="#f5f5f5"/><path id="Shape" d="m19 41c-1.1032019-.0032948-1.9967052-.8967981-2-2v-18h-3v18c.0032948 1.1032019.8967981 1.9967052 2 2h2v5c0 2.209139-1.790861 4-4 4h3c2.209139 0 4-1.790861 4-4v-5z" fill="#cfd8dc"/><path id="Shape" d="m21 46v4c0 2.209139-1.790861 4-4 4h-8c-2.209139 0-4-1.790861-4-4v-4c0 2.209139 1.790861 4 4 4h8c2.209139 0 4-1.790861 4-4z" fill="#7f8e94"/><path id="Shape" d="m37 46v4c0 2.209139-1.790861 4-4 4h-8c-2.209139 0-4-1.790861-4-4v-4c0 2.209139 1.790861 4 4 4h8c2.209139 0 4-1.790861 4-4z" fill="#7f8e94"/><path id="Shape" d="m37 41v5c0 2.209139-1.790861 4-4 4h-8c-2.209139 0-4-1.790861-4-4v-5h2c1.1032019-.0032948 1.9967052-.8967981 2-2v-18h8v18c.0032948 1.1032019.8967981 1.9967052 2 2z" fill="#f5f5f5"/><path id="Shape" d="m35 41c-1.1032019-.0032948-1.9967052-.8967981-2-2v-18h-3v18c.0032948 1.1032019.8967981 1.9967052 2 2h2v5c0 2.209139-1.790861 4-4 4h3c2.209139 0 4-1.790861 4-4v-5z" fill="#cfd8dc"/><path id="Shape" d="m53 23v23c0 2.209139-1.790861 4-4 4h-8c-2.209139 0-4-1.790861-4-4v-5h2c1.1032019-.0032948 1.9967052-.8967981 2-2v-18h10c1.1032019.0032948 1.9967052.8967981 2 2z" fill="#f5f5f5"/><path id="Shape" d="m51 21h-3c1.1032019.0032948 1.9967052.8967981 2 2v23c0 2.209139-1.790861 4-4 4h3c2.209139 0 4-1.790861 4-4v-23c-.0032948-1.1032019-.8967981-1.9967052-2-2z" fill="#cfd8dc"/><path id="Shape" d="m53 46v4c0 2.209139-1.790861 4-4 4h-8c-2.209139 0-4-1.790861-4-4v-4c0 2.209139 1.790861 4 4 4h8c2.209139 0 4-1.790861 4-4z" fill="#7f8e94"/><path id="Shape" d="m25 21v18c-.0032948 1.1032019-.8967981 1.9967052-2 2h-4c-1.1032019-.0032948-1.9967052-.8967981-2-2v-18c0-.5522847.4477153-1 1-1h6c.2652165 0 .5195704.1053568.7071068.2928932s.2928932.4418903.2928932.7071068z" fill="#607d8b"/><path id="Shape" d="m24 20h-3c.5522847 0 1 .4477153 1 1v18c-.0032948 1.1032019-.8967981 1.9967052-2 2h3c1.1032019-.0032948 1.9967052-.8967981 2-2v-18c0-.5522847-.4477153-1-1-1z" fill="#37474f"/><path id="Shape" d="m41 21v18c-.0032948 1.1032019-.8967981 1.9967052-2 2h-4c-1.1032019-.0032948-1.9967052-.8967981-2-2v-18c0-.5522847.4477153-1 1-1h6c.5522847 0 1 .4477153 1 1z" fill="#607d8b"/><path id="Shape" d="m40 20h-3c.5522847 0 1 .4477153 1 1v18c-.0032948 1.1032019-.8967981 1.9967052-2 2h3c1.1032019-.0032948 1.9967052-.8967981 2-2v-18c0-.5522847-.4477153-1-1-1z" fill="#37474f"/><circle id="Oval" cx="11" cy="11" fill="#607d8b" r="5"/><path id="Shape" d="m11 6c-.5100781.00712105-1.01601378.09279281-1.5.254 2.0807519.6438254 3.4994946 2.56791836 3.4994946 4.746 0 2.1780816-1.4187427 4.1021746-3.4994946 4.746 1.8757024.5955702 3.9262648.0330725 5.2355561-1.4361857 1.3092914-1.4692582 1.6327423-3.5708265.8258444-5.36578592-.8068979-1.79495939-2.5934199-2.94802008-4.5614005-2.94402838z" fill="#37474f"/><rect id="Rectangle-path" fill="#607d8b" height="6" rx="1" width="4" x="44" y="4"/></g><g id="Outline" fill="#000"><path id="Shape" d="m51 0h-42c-4.96805005.00606096-8.99393904 4.03194995-9 9v42c.00606096 4.9680501 4.03194995 8.993939 9 9h42c4.9680501-.006061 8.993939-4.0319499 9-9v-42c-.006061-4.96805005-4.0319499-8.99393904-9-9zm7 51c-.0044086 3.8641657-3.1358343 6.9955914-7 7h-42c-3.86416566-.0044086-6.99559136-3.1358343-7-7v-42c.00440864-3.86416566 3.13583434-6.99559136 7-7h42c3.8641657.00440864 6.9955914 3.13583434 7 7z"/><path id="Shape" d="m52 21h-9.278c-.3544126-.6167513-1.0106732-.997855-1.722-1h-6c-.7113268.002145-1.3675874.3832487-1.722 1h-6.556c-.3544126-.6167513-1.0106732-.997855-1.722-1h-6c-.7113268.002145-1.3675874.3832487-1.722 1h-9.278c-1.65685425 0-3 1.3431458-3 3v27c.00330612 2.7600532 2.23994685 4.9966939 5 5h8c1.5799521-.0044337 3.0641457-.758033 4-2.031.9358543 1.272967 2.4200479 2.0265663 4 2.031h8c1.5799521-.0044337 3.0641457-.758033 4-2.031.9358543 1.272967 2.4200479 2.0265663 4 2.031h8c2.7600532-.0033061 4.9966939-2.2399468 5-5v-27c0-1.6568542-1.3431458-3-3-3zm1 3v23c0 1.6568542-1.3431458 3-3 3h-8c-1.6568542 0-3-1.3431458-3-3v-4h1c1.6568542 0 3-1.3431458 3-3v-17h9c.5522847 0 1 .4477153 1 1zm-30 19h1c1.6568542 0 3-1.3431458 3-3v-17h6v17c0 1.6568542 1.3431458 3 3 3h1v4c0 1.6568542-1.3431458 3-3 3h-8c-1.6568542 0-3-1.3431458-3-3zm18-21v18c0 .5522847-.4477153 1-1 1h-4c-.5522847 0-1-.4477153-1-1v-18zm-16 0v18c0 .5522847-.4477153 1-1 1h-4c-.5522847 0-1-.4477153-1-1v-18zm-18 2c0-.5522847.44771525-1 1-1h9v17c0 1.6568542 1.3431458 3 3 3h1v4c0 1.6568542-1.3431458 3-3 3h-8c-1.65685425 0-3-1.3431458-3-3zm11 30h-8c-1.65685425 0-3-1.3431458-3-3v-.026c.86038886.6618067 1.91453073 1.0223232 3 1.026h8c1.0854693-.0036768 2.1396111-.3641933 3-1.026v.026c0 1.6568542-1.3431458 3-3 3zm16 0h-8c-1.6568542 0-3-1.3431458-3-3v-.026c.8603889.6618067 1.9145307 1.0223232 3 1.026h8c1.0854693-.0036768 2.1396111-.3641933 3-1.026v.026c0 1.6568542-1.3431458 3-3 3zm16 0h-8c-1.6568542 0-3-1.3431458-3-3v-.026c.8603889.6618067 1.9145307 1.0223232 3 1.026h8c1.0854693-.0036768 2.1396111-.3641933 3-1.026v.026c0 1.6568542-1.3431458 3-3 3z"/><path id="Shape" d="m6 13h.09c.06295086.3710317.16071613.7353077.292 1.088l-.078.046c-.31195078.1773616-.50495322.5082732-.5057421.8671183-.00078889.3588451.19075673.6906021.50192468.8693336.31116795.1787314.694247.1770325 1.00381742-.0044519l.075-.043c.24147349.2907229.50927711.5585265.8.8l-.043.075c-.18148438.3095704-.18318331.6926495-.00445186 1.0038174.17873145.311168.51048847.5027136.86933356.5019247s.68975672-.1937913.8671183-.5057421l.046-.078c.3521133.1304823.7157127.2275761 1.086.29v.09c0 .5522847.4477153 1 1 1s1-.4477153 1-1v-.09c.3710317-.0629509.7353077-.1607161 1.088-.292l.046.078c.1773616.3119508.5082732.5049532.8671183.5057421s.6906021-.1907567.8693336-.5019247c.1787314-.3111679.1770325-.694247-.0044519-1.0038174l-.043-.075c.2907229-.2414735.5585265-.5092771.8-.8l.075.043c.3095704.1814844.6926495.1831833 1.0038174.0044519.311168-.1787315.5027136-.5104885.5019247-.8693336s-.1937913-.6897567-.5057421-.8671183l-.078-.046c.1304823-.3521133.2275761-.7157127.29-1.086h.09c.5522847 0 1-.4477153 1-1s-.4477153-1-1-1h-.09c-.0629509-.3710317-.1607161-.7353077-.292-1.088l.078-.046c.3119508-.17736158.5049532-.50827321.5057421-.8671183s-.1907567-.69060211-.5019247-.86933356c-.3111679-.17873145-.694247-.17703252-1.0038174.00445186l-.075.043c-.2414735-.29072289-.5092771-.55852651-.8-.8l.043-.075c.2716903-.47785996.1067416-1.08542045-.3693057-1.36027453s-1.0846885-.11393908-1.3626943.36027453l-.046.078c-.3521133-.13048234-.7157127-.22757611-1.086-.29v-.09c0-.55228475-.4477153-1-1-1s-1 .44771525-1 1v.09c-.3710317.06295086-.7353077.16071613-1.088.292l-.046-.082c-.17736158-.31195078-.50827321-.50495322-.8671183-.5057421-.35884509-.00078889-.69060211.19075673-.86933356.50192468s-.17703252.694247.00445186 1.00381742l.043.075c-.29072289.24147349-.55852651.50927711-.8.8l-.077-.041c-.47785996-.27169029-1.08542045-.10674157-1.36027453.3693057-.27485408.47604726-.11393908 1.08468853.36027453 1.3626943l.078.046c-.12992251.3528277-.22634774.7171008-.288 1.088h-.09c-.55228475 0-1 .4477153-1 1s.44771525 1 1 1zm6-5c2.209139 0 4 1.790861 4 4s-1.790861 4-4 4-4-1.790861-4-4 1.790861-4 4-4z"/><circle id="Oval" cx="11" cy="11" r="1"/><path id="Shape" d="m24 9h20v1c0 1.1045695.8954305 2 2 2h2c1.1045695 0 2-.8954305 2-2v-1h3c.5522847 0 1-.44771525 1-1s-.4477153-1-1-1h-3v-1c0-1.1045695-.8954305-2-2-2h-2c-1.1045695 0-2 .8954305-2 2v1h-1c0-.55228475-.4477153-1-1-1s-1 .44771525-1 1h-2c0-.55228475-.4477153-1-1-1s-1 .44771525-1 1h-2c0-.55228475-.4477153-1-1-1s-1 .44771525-1 1h-2c0-.55228475-.4477153-1-1-1s-1 .44771525-1 1h-2c0-.55228475-.4477153-1-1-1s-1 .44771525-1 1h-1c-.5522847 0-1 .44771525-1 1s.4477153 1 1 1zm22-3h2v4h-2z"/><path id="Shape" d="m26.293 14.293-2 2c-.2599566.2510745-.3642126.6228779-.2726972.9725073.0915155.3496295.3645604.6226744.7141899.7141899.3496294.0915154.7214328-.0127406.9725073-.2726972l2-2c.3789722-.3923789.3735524-1.0160848-.0121814-1.4018186s-1.0094397-.3911536-1.4018186-.0121814z"/><path id="Shape" d="m31.293 14.293-2 2c-.2599566.2510745-.3642126.6228779-.2726972.9725073.0915155.3496295.3645604.6226744.7141899.7141899.3496294.0915154.7214328-.0127406.9725073-.2726972l2-2c.3789722-.3923789.3735524-1.0160848-.0121814-1.4018186s-1.0094397-.3911536-1.4018186-.0121814z"/><path id="Shape" d="m36.293 14.293-2 2c-.2599566.2510745-.3642126.6228779-.2726972.9725073.0915155.3496295.3645604.6226744.7141899.7141899.3496294.0915154.7214328-.0127406.9725073-.2726972l2-2c.3789722-.3923789.3735524-1.0160848-.0121814-1.4018186s-1.0094397-.3911536-1.4018186-.0121814z"/><path id="Shape" d="m41.293 14.293-2 2c-.2599566.2510745-.3642126.6228779-.2726972.9725073.0915155.3496295.3645604.6226744.7141899.7141899.3496294.0915154.7214328-.0127406.9725073-.2726972l2-2c.3789722-.3923789.3735524-1.0160848-.0121814-1.4018186s-1.0094397-.3911536-1.4018186-.0121814z"/><path id="Shape" d="m46.293 14.293-2 2c-.2599566.2510745-.3642126.6228779-.2726972.9725073.0915155.3496295.3645604.6226744.7141899.7141899.3496294.0915154.7214328-.0127406.9725073-.2726972l2-2c.3789722-.3923789.3735524-1.0160848-.0121814-1.4018186s-1.0094397-.3911536-1.4018186-.0121814z"/><path id="Shape" d="m51.293 14.293-2 2c-.2599566.2510745-.3642126.6228779-.2726972.9725073.0915155.3496295.3645604.6226744.7141899.7141899.3496294.0915154.7214328-.0127406.9725073-.2726972l2-2c.3789722-.3923789.3735524-1.0160848-.0121814-1.4018186s-1.0094397-.3911536-1.4018186-.0121814z"/></g></g></g></svg>