<svg height="512" viewBox="0 0 60 60" width="512" xmlns="http://www.w3.org/2000/svg"><g id="Page-1" fill="none" fill-rule="evenodd"><g id="015---Sheet-Music" fill-rule="nonzero"><g id="Color" transform="translate(1 1)"><path id="Shape" d="m58 6h-12c.0000001-3.31370843 2.6862916-5.99999982 6-5.99999982s5.9999999 2.68629139 6 5.99999982z" fill="#825a2c"/><path id="Shape" d="m52 0c-.5064496.00291083-1.0104803.07011491-1.5.2 2.6456983.68311274 4.4956841 3.06753882 4.5 5.8h3c0-3.3137085-2.6862915-6-6-6z" fill="#624421"/><path id="Shape" d="m40 58h-34c-3.31370843-.0000001-5.99999982-2.6862916-5.99999982-6s2.68629139-5.9999999 5.99999982-6h34c-3.3137085 0-6 2.6862915-6 6s2.6862915 6 6 6z" fill="#f5f5f5"/><path id="Shape" d="m34 52c0-3.3137085 2.6862915-6 6-6h-3c-3.3137085 0-6 2.6862915-6 6s2.6862915 6 6 6h3c-3.3137085 0-6-2.6862915-6-6z" fill="#cfd8dc"/><path id="Shape" d="m52 0c-3.3137085 0-6 2.6862915-6 6v46c0 3.3137085-2.6862915 6-6 6s-6-2.6862915-6-6 2.6862915-6 6-6h-34v-40c0-3.3137085 2.6862915-6 6-6z" fill="#ffe0b2"/><path id="Shape" d="m49 0c-3.3137085 0-6 2.6862915-6 6v46c-.0043159 2.7324612-1.8543017 5.1168873-4.5 5.8 1.7960526.4728677 3.7098678.0840928 5.1790576-1.0520807 1.4691898-1.1361734 2.3268468-2.8906703 2.3209424-4.7479193v-46c0-3.3137085 2.6862915-6 6-6z" fill="#dfc49c"/><g fill="#607d8b"><circle id="Oval" cx="17" cy="14" r="2"/><circle id="Oval" cx="26" cy="18" r="2"/><circle id="Oval" cx="37" cy="14" r="2"/><circle id="Oval" cx="17" cy="32" r="2"/><circle id="Oval" cx="26" cy="36" r="2"/><circle id="Oval" cx="37" cy="32" r="2"/></g></g><g id="Outline" fill="#000"><path id="Shape" d="m53 0h-40c-3.86416566.00440864-6.99559136 3.13583434-7 7v39.08c-3.60902175.5496345-6.18968051 3.7805374-5.92809638 7.4217885.26158413 3.6412512 3.27756962 6.4700963 6.92809638 6.4982115h34c3.8641657-.0044086 6.9955914-3.1358343 7-7v-45h11c.5522847 0 1-.44771525 1-1-.0044086-3.86416566-3.1358343-6.99559136-7-7zm-46 58c-2.76142375 0-5-2.2385763-5-5s2.23857625-5 5-5h29.1c-1.3469213 1.3152424-2.1059192 3.1184867-2.104978 5.0010537.0009413 1.8825671.7617421 3.6850514 2.109978 4.9989463zm39-51v46c0 2.7614237-2.2385763 5-5 5s-5-2.2385763-5-5 2.2385763-5 5-5c.5522847 0 1-.4477153 1-1s-.4477153-1-1-1h-33v-39c.00330612-2.76005315 2.2399468-4.99669388 5-5h35.111c-1.3500248 1.31319253-2.1114407 3.11664096-2.111 5zm2.1-1c.4731925-2.33032398 2.5221184-4.00501256 4.9-4.00501256s4.4268075 1.67468858 4.9 4.00501256z"/><path id="Shape" d="m41 32c.5522847 0 1-.4477153 1-1s-.4477153-1-1-1v-3c0-.5522847-.4477153-1-1-1s-1 .4477153-1 1v3h-18v-3c0-.5522847-.4477153-1-1-1s-1 .4477153-1 1v3h-6c-.5522847 0-1 .4477153-1 1s.4477153 1 1 1h2.184c-.2453699.6440893-.2453699 1.3559107 0 2h-2.184c-.5522847 0-1 .4477153-1 1s.4477153 1 1 1h11.184c-.2453699.6440893-.2453699 1.3559107 0 2h-11.184c-.5522847 0-1 .4477153-1 1s.4477153 1 1 1h28c.5522847 0 1-.4477153 1-1s-.4477153-1-1-1h-11.184c.1184378-.320257.1806856-.6585603.184-1v-1h11c.5522847 0 1-.4477153 1-1s-.4477153-1-1-1h-.184c.1184378-.320257.1806856-.6585603.184-1zm-4 1c0-.5522847.4477153-1 1-1s1 .4477153 1 1-.4477153 1-1 1-1-.4477153-1-1zm-9-1v2h-7.184c.1184378-.320257.1806856-.6585603.184-1v-1zm-11 1c0-.5522847.4477153-1 1-1s1 .4477153 1 1-.4477153 1-1 1-1-.4477153-1-1zm9 4c0-.5522847.4477153-1 1-1s1 .4477153 1 1-.4477153 1-1 1-1-.4477153-1-1zm4-5h5.184c-.2453699.6440893-.2453699 1.3559107 0 2h-5.184z"/><path id="Shape" d="m41 14c.5522847 0 1-.4477153 1-1s-.4477153-1-1-1v-3c0-.55228475-.4477153-1-1-1s-1 .44771525-1 1v3h-18v-3c0-.55228475-.4477153-1-1-1s-1 .44771525-1 1v3h-6c-.5522847 0-1 .4477153-1 1s.4477153 1 1 1h2.184c-.2453699.6440893-.2453699 1.3559107 0 2h-2.184c-.5522847 0-1 .4477153-1 1s.4477153 1 1 1h11.184c-.2453699.6440893-.2453699 1.3559107 0 2h-11.184c-.5522847 0-1 .4477153-1 1s.4477153 1 1 1h28c.5522847 0 1-.4477153 1-1s-.4477153-1-1-1h-11.184c.1184378-.320257.1806856-.6585603.184-1v-1h11c.5522847 0 1-.4477153 1-1s-.4477153-1-1-1h-.184c.1184378-.320257.1806856-.6585603.184-1zm-4 1c0-.5522847.4477153-1 1-1s1 .4477153 1 1-.4477153 1-1 1-1-.4477153-1-1zm-9-1v2h-7.184c.1184378-.320257.1806856-.6585603.184-1v-1zm-11 1c0-.5522847.4477153-1 1-1s1 .4477153 1 1-.4477153 1-1 1-1-.4477153-1-1zm9 4c0-.5522847.4477153-1 1-1s1 .4477153 1 1-.4477153 1-1 1-1-.4477153-1-1zm4-5h5.184c-.2453699.6440893-.2453699 1.3559107 0 2h-5.184z"/></g></g></g></svg>