<svg height="512" viewBox="0 0 57 60" width="512" xmlns="http://www.w3.org/2000/svg"><g id="Page-1" fill="none" fill-rule="evenodd"><g id="022---Saxophone" fill-rule="nonzero" transform="translate(0 -1)"><g id="Color" transform="translate(1 1)"><path id="Shape" d="m34.111 22.655c-.0019021-.3475069.1767435-.6710847.4718336-.8546237.29509-.1835391.6643076-.2007194.9751664-.0453763l18.886 9.461c.3147516.157938.5232288.4697889.5488578.8210098.0256291.3512209-.1353683.6900328-.4238578.8919902-4.1796121 2.8010018-7.7542614 6.412717-10.512 10.621-3.93 6.65-3.1 5.25-4.75 8.03-3.2122379 5.4564094-9.4938509 8.3214963-15.72 7.17-3.9592583-.7438387-7.436177-3.0883167-9.61-6.48-1.5608799-2.4608671-2.3062058-5.3511919-2.13-8.26.13-1.64-.27.59 5.43-25.98.9-4.23 1.7-6.12.33-8.31-.851453-1.29332249-2.1975895-2.17928452-3.722216-2.44978277s-3.0933827.0983054-4.337784 1.01978277c-1.47820143 1.13803363-2.40395183 2.8499631-2.547 4.71v6h-5c0-5-.01-6.22 0-7 .09535671-3.09679349 1.50539294-6.00633433 3.877-8 2.4448263-2.16463932 5.669135-3.23422958 8.923-2.96 6.0727874.51861839 10.8343812 5.43381199 11.16 11.52.06 1.59.17.07-2.54 23.62-.29 2.46-.6 4.92-.85 7.38-.1267838.8707481.1150044 1.7549451.6672341 2.4400135.5522297.6850685 1.3649493 1.1090409 2.2427659 1.1699865 1.691.053 2.715-1.776 3.412-3.053 3.4736707-6.6176432 5.2660033-13.9882204 5.219-21.462z" fill="#ff9801"/><g fill="#f57c00"><path id="Shape" d="m22.957 12.56c.06 1.59.17.07-2.54 23.62-.29 2.46-.6 4.92-.85 7.38-.1267838.8707481.1150044 1.7549451.6672341 2.4400135.5522297.6850685 1.3649493 1.1090409 2.2427659 1.1699865.5366503.0077624 1.0597372-.1687176 1.482-.5-.9931772-.7079151-1.5257122-1.8977023-1.392-3.11.25-2.46.56-4.92.85-7.38 2.71-23.55 2.6-22.03 2.54-23.62-.325434-6.08514508-5.0853886-10.99996779-11.157-11.52-.8371783-.06792341-1.6791919-.04714122-2.512.062 5.8584444.73828945 10.3498535 5.56184977 10.669 11.458z"/><path id="Shape" d="m9.547 8.29c.5646847-.40509214 1.1993282-.70241174 1.872-.877-1.67327293-.45469492-3.46232145-.13265149-4.872.877-1.47820143 1.13803363-2.40395183 2.8499631-2.547 4.71v6h3v-6c.14304817-1.8600369 1.06879857-3.57196637 2.547-4.71z"/><path id="Shape" d="m54.444 31.218-18.886-9.461c-.2916249-.1467076-.6367289-.1407092-.9230791.0160446-.2863503.1567538-.4773641.4442368-.5109209.7689554l17.32 8.676c.3147516.157938.5232288.4697889.5488578.8210098.0256291.3512209-.1353683.6900328-.4238578.8919902-4.1794161 2.8004171-7.7540516 6.4114383-10.512 10.619-3.93 6.65-3.1 5.25-4.75 8.03-2.4429211 4.1618258-6.7389949 6.8941347-11.544 7.342 5.8674353.611807 11.5519723-2.2578211 14.544-7.342 1.65-2.78.82-1.38 4.75-8.03 2.7579484-4.2075617 6.3325839-7.8185829 10.512-10.619.2884895-.2019574.4494869-.5407693.4238578-.8919902-.025629-.3512209-.2341062-.6630718-.5488578-.8210098z"/></g><path id="Shape" d="m24.324 55.818c-.0600276.000088-.1199396-.0052673-.179-.016-3.1342279-.5976342-5.8886904-2.4487515-7.626-5.125-1.233725-1.9301451-1.8213993-4.2027423-1.678-6.489l.018-.235c.0170164-.2656382.1404982-.5131724.3424795-.6865412.2019813-.1733689.4653724-.2579036.7305205-.2344588.5501781.0420406.9623322.5217682.921 1.072l-.017.22c-.1130061 1.8649982.3691666 3.7177039 1.377 5.291 1.4337563 2.2037398 3.7042754 3.7274109 6.287 4.219.5091234.0921827.863856.5575068.8178793 1.0728615-.0459767.5153546-.4774782.9105359-.9948793.9111385z" fill="#f5f5f5"/><path id="Shape" d="m40.638 42.472c-.3613927-.0000601-.6946349-.1951049-.8716543-.5101745-.1770193-.3150696-.1702699-.7011361.0176543-1.0098255 1.0002515-1.6305061 2.1377044-3.1727585 3.4-4.61.2344926-.2711789.5962086-.3960829.9480668-.3273765.3518582.0687063.6400157.3205093.7552681.6599819.1152523.3394726.0399631.7146672-.1973349.9833946-1.1879491 1.3507024-2.2584977 2.8002921-3.2 4.333-.1808187.2978048-.5036006.4800326-.852.481z" fill="#f5f5f5"/><path id="Shape" d="m46.854 35c-.4106603-.000155-.7794799-.2513581-.9300143-.6334331-.1505345-.382075-.0521784-.8173416.2480143-1.0975669.524-.489 1.043-.95 1.55-1.381.4202887-.3589851 1.0520149-.3092887 1.411.111.358985.4202887.3092887 1.0520149-.111 1.411-.484.413-.981.853-1.483 1.321-.1858388.1734794-.4307743.2696658-.685.269z" fill="#f5f5f5"/><path id="Shape" d="m2 19h5c1.1045695 0 2 .8954305 2 2v2c0 .5522847-.44771525 1-1 1h-7c-.55228475 0-1-.4477153-1-1v-2c0-1.1045695.8954305-2 2-2z" fill="#ff9801"/><path id="Shape" d="m7 19h-3c1.1045695 0 2 .8954305 2 2v2c0 .5522847-.44771525 1-1 1h3c.55228475 0 1-.4477153 1-1v-2c0-1.1045695-.8954305-2-2-2z" fill="#f57c00"/></g><g id="Outline" fill="#000"><path id="Shape" d="m0 22v2c0 1.1045695.8954305 2 2 2h7c1.1045695 0 2-.8954305 2-2v-2c-.0052514-1.2667854-.8056491-2.3937454-2-2.816v-5.184c.14348917-1.5392395.91689278-2.950692 2.137-3.9 1.0731696-.77529058 2.4198221-1.07076474 3.719-.816 1.2004137.21964027 2.2529842.9342994 2.9 1.969.927 1.482.626 2.791-.033 5.659-.134.582-.279 1.216-.427 1.911-1.514 7.059-2.6 12.085-3.376 15.69-1.989 9.227-1.989 9.227-2.055 10.171l-.019.269c-.1847847 3.1162164.6126543 6.2118887 2.28 8.851 2.8699077 4.488176 7.8317058 7.2015357 13.159 7.196 5.702193.0099847 10.9835874-2.9993677 13.882-7.91l4.744-8.021c2.6796875-4.0899836 6.1566608-7.597567 10.223-10.313.5805806-.4020459.9060972-1.0804727.8564246-1.784921s-.4671705-1.330483-1.0984246-1.647079l-18.886-9.461c-.6222187-.3135594-1.3627785-.2806936-1.9547745.0867522s-.9500915 1.016504-.9452255 1.7132478c.0477217 7.3052852-1.7038219 14.5099676-5.1 20.978-.71 1.3-1.507 2.543-2.5 2.532-.5313006-.0108527-1.0326791-.2480797-1.378-.652-.4349283-.5154897-.6401432-1.1864125-.568-1.857.173-1.707.378-3.414.582-5.122l1.467.247-.147 1.079c-.0746758.5469963.3080448 1.0510237.855 1.126.0454247.0059518.091187.0089581.137.009.4994122-.0009218.9215801-.3701586.989-.865l.546-4c.0745584-.5473142-.3086858-1.0514416-.856-1.126s-1.0514416.3086858-1.126.856l-.128.938-1.507-.253.7-6.02 1.538.257-.147 1.078c-.0746758.5469963.3080448 1.0510237.855 1.126.0454247.0059518.091187.0089581.137.009.4994122-.0009218.9215801-.3701586.989-.865l.546-4c.0745584-.5473142-.3086858-1.0514416-.856-1.126s-1.0514416.3086858-1.126.856l-.128.939-1.58-.266.484-4.166c.076-.6586667.1476667-1.2776667.215-1.857l1.609.269-.147 1.078c-.0746758.5469963.3080448 1.0510237.855 1.126.0454247.0059518.091187.0089581.137.009.4994122-.0009218.9215801-.3701586.989-.865l.546-4c.0745584-.5473142-.3086858-1.0514416-.856-1.126s-1.0514416.3086858-1.126.856l-.128.939-1.649-.276c.777-6.734.772-6.873.732-7.813l-.007-.171c-.3129114-6.60877861-5.4810364-11.95923243-12.075-12.501-3.5241931-.29621963-7.01610613.86257227-9.664 3.207-2.58060342 2.18268656-4.11279111 5.35865899-4.215 8.737v2.37 3.827c-1.19435086.4222546-1.99474861 1.5492146-2 2.816zm2 2v-2c0-.5522847.44771525-1 1-1h5c.55228475 0 1 .4477153 1 1v2zm2-10.994c.09916648-2.8166807 1.38999974-5.45869025 3.551-7.268 2.23949596-1.97872929 5.1914177-2.95439199 8.169-2.7 5.464.415 10.151 5.242 10.237 10.562l.009.2c.039.926.029 1.032-1.166 11.344l-1.6 13.762c-.223 1.851-.444 3.7-.632 5.551-.1249727 1.2220716.255093 2.4421115 1.052 3.377.7109531.8216478 1.7348465 1.3061915 2.821 1.335 2.32.072 3.577-2.21 4.322-3.573 3.555619-6.7640265 5.3909801-14.2995162 5.344-21.941l18.893 9.451c-4.300109 2.8799611-7.9736766 6.5994482-10.8 10.935l-4.758 8.043c-3.0066661 5.082989-8.8648559 7.750775-14.673 6.682-3.6855855-.6860547-6.9224197-2.8679582-8.941-6.027-1.4433123-2.2803901-2.1357542-4.9557339-1.98-7.65l.019-.269c.055-.794.075-.886 2.015-9.888.778-3.606 1.862-8.633 3.376-15.694.146-.685.289-1.308.421-1.881.69-3 1.145-4.984-.219-7.165-.9398161-1.5086499-2.4711307-2.55215063-4.219-2.875-.428412-.08252461-.863712-.12404554-1.3-.124-1.4281062-.00338774-2.8203789.44692982-3.976 1.286-1.74377258 1.32193993-2.82605124 3.3372049-2.965 5.521v5h-3v-3.646c0-1.323 0-1.902 0-2.348z"/></g></g></g></svg>