<svg height="512" viewBox="0 0 60 54" width="512" xmlns="http://www.w3.org/2000/svg"><g id="Page-1" fill="none" fill-rule="evenodd"><g id="023---Maracas" fill-rule="nonzero" transform="translate(-1)"><g id="Color" transform="translate(1 1)"><path id="Shape" d="m56.17 19.9-.03.01c-.497147.0239224-.9809168-.1652207-1.33-.52-.3517321-.3463049-.5375194-.8271661-.51-1.32.0081989-.4904659-.1830237-.9632559-.5298839-1.3101161s-.8196502-.5380828-1.3101161-.5298839c-.4928339.0275194-.9736951-.1582679-1.32-.51-.3547793-.3490832-.5439224-.832853-.52-1.33.0143888-.4913679-.1751827-.9667882-.5237271-1.3134384-.3485443-.3466501-.8249907-.5336279-1.3162729-.5165616-.4930753.0172179-.9711572-.171104-1.3200266-.5199734s-.5371913-.8269513-.5199734-1.3200266c.0238718-.4941932-.1654851-.97486831-.52-1.32-.3448939-.34865976-.8198781-.53720307-1.31-.52-.497147.02392239-.9809168-.16522072-1.33-.52-.3517321-.34630486-.5375194-.82716614-.51-1.32.0127807-.49180511-.1769688-.9672789-.524845-1.31515504-.3478761-.34787613-.8233499-.53762564-1.315155-.52484496-.4943596.02180007-.9751443-.16504628-1.325049-.514951s-.5367511-.83068943-.514951-1.325049l.01-.03c5.44-3.78 12.28-3.84 16.35.22s4 10.91.22 16.35z" fill="#f44335"/><path id="Shape" d="m55.95 3.55c-2.4689723-2.35605939-5.8852186-3.4441534-9.262-2.95 2.3604101.24856266 4.5673417 1.2882382 6.262 2.95 3.6 3.612 3.954 9.4 1.346 14.466 0 .018.005.036 0 .054-.0275194.4928339.1582679.9736951.51 1.32.3490832.3547793.832853.5439224 1.33.52l.03-.01c3.784-5.44 3.844-12.28-.216-16.35z" fill="#c81e1e"/><path id="Shape" d="m56.17 19.9c-.5865634.8575761-1.2528589 1.6578004-1.99 2.39-.41.41-.83.79-1.26 1.15l-.01-.01-.31.01c-.4926346.0219124-.97193-.1634989-1.3215685-.5112371-.3496385-.3477383-.5376589-.8260162-.5184315-1.3187629.0172179-.4930753-.171104-.9711572-.5199734-1.3200266s-.8269513-.5371913-1.3200266-.5199734c-.4927467.0192274-.9710246-.168793-1.3187629-.5184315-.3477382-.3496385-.5331495-.8289339-.5112371-1.3215685.0136071-.4943839-.1782831-.9722992-.53-1.32-.3448939-.3486598-.8198781-.5372031-1.31-.52-.4943596.0218001-.9751443-.1650463-1.325049-.514951s-.5367511-.8306894-.514951-1.325049c.0127807-.4918051-.1769688-.9672789-.524845-1.315155-.3478761-.3478762-.8233499-.5376257-1.315155-.524845-.4928339.0275194-.9736951-.1582679-1.32-.51-.3528797-.3462173-.5419356-.8261282-.52-1.32.0172179-.4930753-.171104-.97115721-.5199734-1.32002659-.3488694-.34886939-.8269513-.53719126-1.3200266-.51997341-.4929051.01661802-.9706339-.17189691-1.3193685-.52063149-.3487346-.34873457-.5372495-.8264634-.5206315-1.31936851l.02-.31-.01-.01c.36-.43.74-.85 1.15-1.26.7321996-.73714114 1.5324239-1.40343664 2.39-1.99l-.01.03c-.0218001.49435957.1650463.97514428.514951 1.325049s.8306894.53675107 1.325049.514951c.4918051-.01278068.9672789.17696883 1.315155.52484496.3478762.34787614.5376257.82334993.524845 1.31515504-.0275194.49283386.1582679.97369514.51 1.32.3490832.35477928.832853.54392239 1.33.52.4901219-.01720307.9651061.17134024 1.31.52.3545149.34513169.5438718.8258068.52 1.32-.0172179.4930753.171104.9711572.5199734 1.3200266s.8269513.5371913 1.3200266.5199734c.4912822-.0170663.9677286.1699115 1.3162729.5165616.3485444.3466502.5381159.8220705.5237271 1.3134384-.0239224.497147.1652207.9809168.52 1.33.3463049.3517321.8271661.5375194 1.32.51.4904659-.0081989.9632559.1830237 1.3101161.5298839s.5380828.8196502.5298839 1.3101161c-.0275194.4928339.1582679.9736951.51 1.32.3490832.3547793.832853.5439224 1.33.52z" fill="#ff9801"/><path id="Shape" d="m52.92 23.44c-1.5596741 1.2897154-3.3424367 2.2827751-5.26 2.93-.3005244-.3369013-.4551633-.7792404-.43-1.23.0081989-.4904659-.1830237-.9632559-.5298839-1.3101161s-.8196502-.5380828-1.3101161-.5298839c-.4928339.0275194-.9736951-.1582679-1.32-.51-.3547793-.3490832-.5439224-.832853-.52-1.33.0172031-.4901219-.1713402-.9651061-.52-1.31-.3487909-.3489753-.826909-.5373249-1.32-.52-.4934055.0191664-.9722351-.1694634-1.32-.52-.3545149-.3451317-.5438718-.8258068-.52-1.32.0172179-.4930753-.171104-.9711572-.5199734-1.3200266s-.8269513-.5371913-1.3200266-.5199734c-.4938718.0219356-.9737827-.1671203-1.32-.52-.3517321-.3463049-.5375194-.8271661-.51-1.32.0081989-.4904659-.1830237-.9632559-.5298839-1.3101161s-.8196502-.5380828-1.3101161-.5298839c-.4507596.0251633-.8930987-.1294756-1.23-.43.6472249-1.91756332 1.6402846-3.70032589 2.93-5.26l.01.01-.02.31c-.016618.49290511.1718969.97063394.5206315 1.31936851.3487346.34873458.8264634.53724951 1.3193685.52063149.4930753-.01721785.9711572.17110402 1.3200266.51997341.3488694.34886938.5371913.82695129.5199734 1.32002659-.0219356.4938718.1671203.9737827.52 1.32.3463049.3517321.8271661.5375194 1.32.51.4918051-.0127807.9672789.1769688 1.315155.524845.3478762.3478761.5376257.8233499.524845 1.315155-.0218001.4943596.1650463.9751443.514951 1.325049s.8306894.5367511 1.325049.514951c.4901219-.0172031.9651061.1713402 1.31.52.3517169.3477008.5436071.8256161.53 1.32-.0219124.4926346.1634989.97193.5112371 1.3215685.3477383.3496385.8260162.5376589 1.3187629.5184315.4930753-.0172179.9711572.171104 1.3200266.5199734s.5371913.8269513.5199734 1.3200266c-.0192274.4927467.168793.9710246.5184315 1.3187629.3496385.3477382.8289339.5331495 1.3215685.5112371l.31-.01z" fill="#ffdc00"/><path id="Shape" d="m47.66 26.37c-2.0866331.7219815-4.3185044.921133-6.5.58-.03 0-.05-.01-.08-.01-4.3709391-.6982636-7.8014538-4.120716-8.51-8.49h-.01v-.03c-.3593771-2.2066352-.1634807-4.4680349.57-6.58.3369013.3005244.7792404.4551633 1.23.43.4904659-.0081989.9632559.1830237 1.3101161.5298839s.5380828.8196502.5298839 1.3101161c-.0275194.4928339.1582679.9736951.51 1.32.3462173.3528797.8261282.5419356 1.32.52.4930753-.0172179.9711572.171104 1.3200266.5199734s.5371913.8269513.5199734 1.3200266c-.0238718.4941932.1654851.9748683.52 1.32.3477649.3505366.8265945.5391664 1.32.52.493091-.0173249.9712091.1710247 1.32.52.3486598.3448939.5372031.8198781.52 1.31-.0239224.497147.1652207.9809168.52 1.33.3463049.3517321.8271661.5375194 1.32.51.4904659-.0081989.9632559.1830237 1.3101161.5298839s.5380828.8196502.5298839 1.3101161c-.0251633.4507596.1294756.8930987.43 1.23z" fill="#f44335"/><path id="Shape" d="m41.08 26.94c-1.8266034-.2834422-3.6833189.2754108-5.05 1.52l-1.52 1.33-3.23 2.84-4.41-4.41 3.13-3.56 1.04-1.19c1.2354012-1.3598363 1.7935706-3.2032639 1.52-5.02h.01c.7085462 4.369284 4.1390609 7.7917364 8.51 8.49z" fill="#ff9801"/><path id="Shape" d="m31.28 32.63-1.28 1.12-3.99 3.5-3.76-3.75 3.24-3.7v-.01l1.38-1.57z" fill="#f44335"/><path id="Shape" d="m26.01 37.25-5.3 4.65c-.9967628.8890497-1.600815 2.1367051-1.68 3.47-.1453644 1.5748102-.8473844 3.0462157-1.98 4.15-2.34 2.34-5.82 2.65-7.77.7s-1.64-5.43.7-7.78c1.1072422-1.1262052 2.5774115-1.8240928 4.15-1.97 1.3332949-.079185 2.5809503-.6832372 3.47-1.68l4.65-5.29z" fill="#ff9801"/><path id="Shape" d="m22.25 33.5-.01-.01" fill="#f44335"/><path id="Shape" d="m50.72 50.22c-1.95 1.96-5.44 1.64-7.78-.7-1.1317046-1.1033195-1.8306088-2.5756305-1.97-4.15-.0785099-1.3356348-.6868431-2.5846976-1.69-3.47l-5.29-4.65 3.77-3.76 4.64 5.3c.8906073.9961621 2.1366015 1.6030008 3.47 1.69 1.5726253.1351436 3.0431957.8349078 4.14 1.97 2.34 2.34 2.66 5.82.71 7.77z" fill="#ff9801"/><path id="Shape" d="m50.01 42.45c-1.0968043-1.1350922-2.5673747-1.8348564-4.14-1.97-1.3333985-.0869992-2.5793927-.6938379-3.47-1.69l-4.64-5.3-1.6 1.6 3.242 3.7c.8906073.9961621 2.1366015 1.6030008 3.47 1.69 1.5726253.1351436 3.0431957.8349078 4.14 1.97 2.34 2.34 2.66 5.82.71 7.77-.5025284.4990505-1.1209936.865663-1.8 1.067 1.6748782.545887 3.5141159.1370397 4.8-1.067 1.948-1.95 1.628-5.43-.712-7.77z" fill="#f57c00"/><path id="Shape" d="m37.76 33.49-3.77 3.76-3.99-3.5 1.28-1.12 3.23-2.84z" fill="#f44335"/><path id="Shape" d="m30 24.66-3.13 3.56-1.38 1.57-1.52-1.33c-1.3666811-1.2445892-3.2233966-1.8034422-5.05-1.52 4.3709391-.6982636 7.8014538-4.120716 8.51-8.49h.01c-.2753266 1.8168628.2830674 3.6610324 1.52 5.02z" fill="#ff9801"/><path id="Shape" d="m27.44 18.42v.03h-.01c-.7085462 4.369284-4.1390609 7.7917364-8.51 8.49-.03 0-.05.01-.08.01-2.1814956.341133-4.4133669.1419815-6.5-.58.3005244-.3369013.4551633-.7792404.43-1.23-.0081989-.4904659.1830237-.9632559.5298839-1.3101161s.8196502-.5380828 1.3101161-.5298839c.4928339.0275194.9736951-.1582679 1.32-.51.3547793-.3490832.5439224-.832853.52-1.33-.0172031-.4901219.1713402-.9651061.52-1.31.3487909-.3489753.826909-.5373249 1.32-.52.4934055.0191664.9722351-.1694634 1.32-.52.3545149-.3451317.5438718-.8258068.52-1.32-.0172179-.4930753.171104-.9711572.5199734-1.3200266s.8269513-.5371913 1.3200266-.5199734c.4927467.0192274.9710246-.168793 1.3187629-.5184315.3477382-.3496385.5331495-.8289339.5112371-1.3215685-.0081989-.4904659.1830237-.9632559.5298839-1.3101161s.8196502-.5380828 1.3101161-.5298839c.4507596.0251633.8930987-.1294756 1.23-.43.7334807 2.1119651.9293771 4.3733648.57 6.58z" fill="#f44335"/><path id="Shape" d="m26.87 11.84c-.3369013.3005244-.7792404.4551633-1.23.43-.4904659-.0081989-.9632559.1830237-1.3101161.5298839s-.5380828.8196502-.5298839 1.3101161c.0219124.4926346-.1634989.97193-.5112371 1.3215685-.3477383.3496385-.8260162.5376589-1.3187629.5184315-.4930753-.0172179-.9711572.171104-1.3200266.5199734s-.5371913.8269513-.5199734 1.3200266c.0238718.4941932-.1654851.9748683-.52 1.32-.3477649.3505366-.8265945.5391664-1.32.52-.493091-.0173249-.9712091.1710247-1.32.52-.3486598.3448939-.5372031.8198781-.52 1.31.0239224.497147-.1652207.9809168-.52 1.33-.3463049.3517321-.8271661.5375194-1.32.51-.4904659-.0081989-.9632559.1830237-1.3101161.5298839s-.5380828.8196502-.5298839 1.3101161c.0251633.4507596-.1294756.8930987-.43 1.23-1.9175633-.6472249-3.70032589-1.6402846-5.26-2.93l.01-.01.31.01c.4926346.0219124.97192999-.1634989 1.32156849-.5112371.3496385-.3477383.5376589-.8260162.51843151-1.3187629-.01721785-.4930753.17110402-.9711572.51997341-1.3200266s.82695129-.5371913 1.32002659-.5199734c.4941932.0238718.9748683-.1654851 1.32-.52.3505366-.3477649.5391664-.8265945.52-1.32-.0170663-.4912822.1699115-.9677286.5165616-1.3162729.3466502-.3485444.8220705-.5381159 1.3134384-.5237271.497147.0239224.9809168-.1652207 1.33-.52.3537542-.3449739.5399111-.8267918.51-1.32-.0081989-.4904659.1830237-.9632559.5298839-1.3101161s.8196502-.5380828 1.3101161-.5298839c.4928339.0275194.9736951-.1582679 1.32-.51.3528797-.3462173.5419356-.8261282.52-1.32-.0172179-.4930753.171104-.97115721.5199734-1.32002659.3488694-.34886939.8269513-.53719126 1.3200266-.51997341.4934164.01842526.9722096-.16950794 1.3213508-.51864919.3491413-.34914125.5370745-.82793442.5186492-1.32135081l-.02-.31.01-.01c1.2897154 1.55967411 2.2827751 3.34243668 2.93 5.26z" fill="#ffdc00"/><path id="Shape" d="m23.95 6.9c.0184253.49341639-.1695079.97220956-.5186492 1.32135081-.3491412.34914125-.8279344.53707445-1.3213508.51864919-.4930753-.01721785-.9711572.17110402-1.3200266.51997341-.3488694.34886938-.5371913.82695129-.5199734 1.32002659.0219356.4938718-.1671203.9737827-.52 1.32-.3463049.3517321-.8271661.5375194-1.32.51-.4904659-.0081989-.9632559.1830237-1.3101161.5298839s-.5380828.8196502-.5298839 1.3101161c.0299111.4932082-.1562458.9750261-.51 1.32-.3490832.3547793-.832853.5439224-1.33.52-.4913679-.0143888-.9667882.1751827-1.3134384.5237271-.3466501.3485443-.5336279.8249907-.5165616 1.3162729.0191664.4934055-.1694634.9722351-.52 1.32-.3451317.3545149-.8258068.5438718-1.32.52-.4930753-.0172179-.9711572.171104-1.32002659.5199734s-.53719126.8269513-.51997341 1.3200266c.01922739.4927467-.16879301.9710246-.51843151 1.3187629-.3496385.3477382-.82893389.5331495-1.32156849.5112371l-.31-.01-.01.01c-.43-.36-.85-.74-1.26-1.15-.73744467-.7346611-1.40684494-1.5345944-2-2.39h.01l.03.01c.49714697.0239224.98091685-.1652207 1.33-.52.3517321-.3463049.53751941-.8271661.51-1.32-.00819893-.4904659.18302368-.9632559.52988388-1.3101161s.81965025-.5380828 1.31011612-.5298839c.49283386.0275194.97369514-.1582679 1.32-.51.35477928-.3490832.54392239-.832853.52-1.33-.01438881-.4913679.1751827-.9667882.52372707-1.3134384.34854433-.3466501.82499073-.5336279 1.31627293-.5165616.4930753.0172179.9711572-.171104 1.3200266-.5199734s.5371913-.8269513.5199734-1.3200266c-.0170663-.4912822.1699115-.96772856.5165616-1.31627293.3466502-.34854437.8220705-.53811588 1.3134384-.52372707.497147.02392239.9809168-.16522072 1.33-.52.3517321-.34630486.5375194-.82716614.51-1.32-.0127807-.49180511.1769688-.9672789.524845-1.31515504.3478761-.34787613.8233499-.53762564 1.315155-.52484496.4943596.02180007.9751443-.16504628 1.325049-.514951s.5367511-.83068943.514951-1.325049l-.01-.03c.8575761.58656336 1.6578004 1.25285886 2.39 1.99.41.41.79.83 1.15 1.26l-.01.01z" fill="#ff9801"/><path id="Shape" d="m20.4 3.33c-5.43-3.78-12.28-3.84-16.35.23-4.07 4.07-4.01 10.9-.23 16.34" fill="#f44335"/></g><g id="Outline" fill="#000"><path id="Shape" d="m37.5 5.615c-3.868 3.867-5.754 9.222-4.923 13.976.2239288 1.5272805-.247928 3.0745744-1.286 4.217l-.289.33-.29-.332c-1.0418895-1.1397911-1.5136904-2.688944-1.284-4.216.829-4.754-1.059-10.11-4.928-13.979-2.7586604-2.83262051-6.4166271-4.61758948-10.347-5.049-3.5982706-.44412199-7.20409812.76517411-9.807 3.289-2.19855379 2.25670467-3.40333766 5.29890998-3.346 8.449.10115485 4.420855 1.9390743 8.6240718 5.116 11.7 3.869 3.868 9.227 5.753 13.981 4.927 1.5284582-.2351835 3.0807873.238945 4.217 1.288l.768.672-7.234 8.243c-.7140228.8007146-1.7160709 1.2860986-2.787 1.35-3.6791232.3631407-6.60803697 3.2408526-7.036 6.913-.19493832 1.6676915.3722659 3.3344049 1.544 4.537 1.0486007 1.0323596 2.4687413 1.5989741 3.94 1.572.2 0 .4-.009.6-.027 1.7658073-.1853074 3.4113352-.9818956 4.652-2.252 1.3044575-1.2708734 2.1071721-2.9693195 2.261-4.784.0640524-1.0711055.5498256-2.0732149 1.351-2.787l8.627-7.573 8.624 7.573c.8041875.710552 1.2903712 1.7135309 1.35 2.785.3728782 3.9035559 3.5811685 6.9261931 7.5 7.066h.008c1.4733217.0222642 2.8942861-.5459775 3.946-1.578 2.336-2.336 2.018-6.456-.707-9.181-1.2649175-1.3079464-2.9617235-2.1121081-4.775-2.263-1.0725058-.066079-2.0758703-.551775-2.793-1.352l-7.231-8.247.767-.674c1.1429076-1.0378772 2.690555-1.5093629 4.218-1.285.023 0 .046.006.069.009h.013c4.735.8 10.048-1.089 13.894-4.935 6.043-6.043 6.837-15.083 1.768-20.152s-14.108-4.274-20.151 1.77zm-.636 4.314c.5470652.5468388 1.298177.8395221 2.071.807.2118074-.0009638.4153526.0821085.566.231.1503175.1448434.234249.3452659.232.554-.0388384.777595.2549591 1.5349962.808 2.083.5423457.5548506 1.297176.8495696 2.072.809.2102122-.0026671.4128176.0785629.5629659.2257083.1501483.1471453.2354543.3480686.2370341.5582917-.0357023.7752073.2556532 1.5297995.8030559 2.0798642.5474028.5500646 1.3005728.8450772 2.0759441.8131358.2102122-.0026671.4128176.0785629.5629659.2257083.1501483.1471453.2354543.3480686.2370341.5582917-.0357023.7752073.2556532 1.5297995.8030559 2.0798642.5474028.5500646 1.3005728.8450772 2.0759441.8131358.2123928-.0040435.4170892.0794987.566.231.1501634.1445356.2340918.3445888.232.553-.0391593.7782373.2546438 1.5363802.808 2.085.053.053.116.093.172.142-.8003688.5064479-1.6455903.938264-2.525 1.29-.0023738-.7536225-.3112679-1.4738437-.8556363-1.9950113-.5443683-.5211676-1.2773521-.79842-2.0303637-.7679887-.2103372.0090206-.414375-.0729589-.56-.225-.1527382-.1504652-.2341969-.3588394-.224-.573.0261328-.7737297-.2707432-1.5234661-.8194909-2.0695582-.5487476-.546092-1.2999153-.8393276-2.0735091-.8094418-.2103372.0090206-.414375-.0729589-.56-.225-.1533472-.1496501-.2349436-.3580122-.224-.572.025814-.7737284-.2711299-1.5233759-.8197742-2.0695548s-1.2996215-.8397436-2.0732258-.8104452c-.2105863.0104904-.4152121-.0717254-.56-.225-.1527382-.1504652-.2341969-.3588394-.224-.573.0268387-.7509654-.2523535-1.4806505-.7736196-2.0219s-1.2399369-.8476819-1.9913804-.8491c.3522037-.8805169.7846941-1.7267521 1.292-2.528.044.057.084.121.137.175zm-24.08 16.139c-.8798711-.3522222-1.7254407-.7847146-2.526-1.292.056-.048.118-.087.17-.14.5517826-.5443706.8459412-1.2977657.809-2.072-.0040857-.2118139.0795059-.4159076.231-.564.1445356-.1501634.3445888-.2340918.553-.232.7775399.0348671 1.5340032-.2582851 2.085-.808.5507181-.5445918.8444037-1.2973428.808-2.071-.0021325-.2100546.0792718-.412352.2263026-.5623834.1470308-.1500315.3476425-.2355056.5576974-.2376166.7753779.0363235 1.5303365-.254831 2.0805424-.8023744.550206-.5475433.8450194-1.3010806.8124576-2.0766256-.0046418-.2125039.0789935-.4174285.231-.566.1474389-.1457448.3456987-.2285622.553-.231.7785565.035183 1.5357639-.2600734 2.085-.813.5508755-.5448998.8445639-1.2980215.808-2.072-.0050552-.2119939.0786887-.4164594.231-.564.1439873-.1551756.348459-.2398853.56-.232.7752051.0332527 1.5288828-.2598039 2.078-.808.054-.054.093-.118.142-.176.5080167.8013514.9408587 1.6479542 1.293 2.529-.754144.0015599-1.4751488.3100975-1.9969708.8545582s-.7994794 1.2779112-.7690292 2.0314418c.0075699.2097927-.0742022.412951-.225.559-.1522421.1500205-.3593768.2309946-.573.224-.7736521-.0252458-1.5230202.2720543-2.068942.8208205-.5459219.5487661-.8393238 1.299669-.810058 2.0731795.0075699.2097927-.0742022.412951-.225.559-.1507213.1517235-.3583285.2330242-.572.224-.7739088-.0258306-1.5237212.2712476-2.0699329.8201145-.5462116.5488669-.8396503 1.3001111-.8100671 2.0738855.0049206.2121209-.0783629.4167804-.2299979.5651931-.1516349.1484127-.3580358.2272818-.5700021.2178069-.7506222-.0265557-1.4798901.2526247-2.0208888.7736422-.5409987.5210176-.8474131 1.2392679-.8491112 1.9903578zm-7.024-20.802c2.18412092-2.09907111 5.2011048-3.09652143 8.206-2.713 2.2651196.23590625 4.4413186 1.00861458 6.348 2.254-.0349958.06209968-.077664.11955064-.127.171-.1479584.15649905-.358131.23866075-.573.224-.7743742-.02531229-1.524402.27252528-2.0704549.82218184-.5460528.54965656-.8389505 1.30162723-.8085451 2.07581816.0075699.20979273-.0742022.41295097-.225.559-.1514718.15057669-.3585564.23167278-.572.224-.7725979-.03132758-1.5225108.26500606-2.065.816-.5508135.5474734-.8465036 1.3010296-.815 2.077.0076108.2098967-.0737324.4132546-.224.56-.1515444.1517203-.3597471.2329701-.574.224-.7734718-.0252294-1.5226751.2719362-2.0685643.8204799-.54588914.5485437-.83941694 1.2991798-.8104357 2.0725201.00460648.2121165-.07874178.4166886-.23027381.56519s-.35774605.2277003-.56972619.21881c-.7710814-.0236358-1.51790382.271115-2.065.815-.54997517.5468617-.84589545 1.2989924-.816 2.074.00772944.2101141-.07404547.4136428-.225.56-.05080357.0448694-.10728796.0828618-.168.113-1.4656453-2.2298107-2.26586309-4.8309521-2.307-7.499-.05555314-2.61903805.93817592-5.15160698 2.76-7.034zm.727 16.169c.14587114-.0986573.28213809-.2108181.407-.335.54981949-.5454583.84270534-1.2983858.806-2.072-.00559736-.2121884.07779717-.4170489.23-.565.14296709-.152436.34406636-.2368032.553-.232.77537791.0363235 1.5303365-.254831 2.0805424-.8023744.550206-.5475433.8450194-1.3010806.8124576-2.0766256-.0021325-.2100546.0792718-.412352.2263026-.5623834.1470308-.1500315.3476425-.2355056.5576974-.2376166.7755577.0360117 1.5305867-.2553491 2.0809092-.8030093.5503225-.5476603.8453412-1.3012675.8130908-2.0769907-.0053721-.2126383.0783778-.4178435.231-.566.1464696-.1465846.3447843-.229575.552-.231.7748227.0362017 1.5292848-.2543639 2.0796628-.8009396.5503779-.54657564.8461667-1.29900534.8153372-2.0740604-.0048661-.21274322.0792167-.41787633.232-.566.144445-.15391332.3480197-.23840227.559-.232.7748116.03035435 1.5273063-.26310771 2.077-.81.1237337-.12518572.2349294-.26217088.332-.409.395.329.783.672 1.153 1.042.306.306.58.633.858.958-.001261.19911668-.0806166.38978551-.221.531-.1501195.15388577-.3593286.23552834-.574.224-.7708833-.02419318-1.5176092.27066226-2.064.815-.5509202.547745-.8462988 1.3017948-.814 2.078.0075969.2102885-.0745708.4138899-.226.56-.1507908.1516178-.3583493.2328995-.572.224-.7707092-.0215096-1.5167236.2729223-2.065.815-.5503393.5481952-.845919 1.301833-.815 2.078.0074853.2098749-.0738383.4131839-.224.56-.1537517.1483095-.3604335.2289658-.574.224-.7704479-.0217037-1.5162264.2727776-2.064.815-.5504984.5480218-.8458012 1.3018782-.814 2.078.0076971.209815-.0740951.413023-.225.559-.1513397.1515119-.3590031.2330551-.573.225-.773559-.0258486-1.5230286.2711529-2.0688983.8198677-.54586977.5487148-.8389712 1.2997181-.8091017 2.0731323.00593795.2036759-.0707018.4011046-.21250606.5474285-.14180427.1463239-.33673198.2291183-.54049394.2295715-.325-.277-.652-.552-.957-.857-.369-.369-.716-.753-1.043-1.147zm8.24 5.28c.0398816-.202417.0549925-.4089337.045-.615-.0059118-.212145.0766857-.4171898.228-.566.1434071-.1518016.3442107-.2360447.553-.232.7776215.0353656 1.5342788-.2578618 2.085-.808.5505522-.5451122.8441822-1.2980841.808-2.072-.0055974-.2121884.0777972-.4170489.23-.565.142135-.153629.3437982-.2382328.553-.232.7779491.0373767 1.5353919-.2561551 2.085-.808.5513669-.5441651.84517-1.2972174.808-2.071-.0048661-.2127432.0792167-.4178763.232-.566.1461833-.1471347.344597-.230526.552-.232.7755577.0360117 1.5305867-.2553491 2.0809092-.8030093.5503225-.5476603.8453412-1.3012675.8130908-2.0769907-.0055836-.2123839.0782217-.4173623.231-.565.1441302-.1477415.3416008-.2313422.548-.232.2131978.0092276.4267317-.0072239.636-.049.428607 1.639418.5100124 3.3502933.239 5.023v.027h-.008c-.6347253 3.9785163-3.7720487 7.0883335-7.756 7.688-1.6535601.2608482-3.3431707.17744-4.963-.245zm10.906 1.992c-.5255448-.4588164-1.1112909-.8437064-1.741-1.144 1.7535084-.9788289 3.19985-2.4265555 4.177-4.181.2970412.6317548.6811055 1.2187908 1.141 1.744l.461.528-3.271 3.726zm1.419 8.178-2.438-2.437 3.305-3.766 2.9 2.9zm-6 5.264c-1.1974429 1.061271-1.9252858 2.5539962-2.024 4.151-.2920063 2.7020281-2.4032322 4.848855-5.1 5.186-1.0802844.1644403-2.1743425-.1950721-2.9465243-.9682411s-1.13029607-1.8676854-.9644757-2.9477589c.1425932-1.2996111.7346999-2.5085841 1.674-3.418.934012-.9577501 2.1773199-1.5533615 3.509-1.681 1.5962971-.0997927 3.0879285-.8283475 4.148-2.026l3.941-4.491 2.254 2.253zm25.75.327c1.3316399.1168296 2.5754727.713514 3.5 1.679 1.948 1.949 2.266 4.8.708 6.358-.6752243.6597194-1.589375 1.0170069-2.533.99h-.005c-1.4477893-.0399055-2.8218957-.6472275-3.826-1.691-.9573295-.9348593-1.5510302-2.1796812-1.675-3.512-.0929602-1.6002393-.8234203-3.0964579-2.028-4.154l-4.487-3.94 2.254-2.255 3.942 4.5c1.0628529 1.1938435 2.5529566 1.9212929 4.148 2.025zm-9.415-8.031-2.437 2.439-2.432-2.135 2.9-2.548zm-1.017-5.739-1.514 1.328-2.527 2.218-3.083-3.083 3.553-4.048c.4582537-.5244601.8424932-1.1092309 1.142-1.738.9766431 1.7526076 2.4223924 3.1983569 4.175 4.175-.6312607.3008211-1.218103.6871142-1.744 1.148zm5.935-1.748c-3.9830178-.6000438-7.119414-3.7093394-7.754-7.687v-.025c-.2711897-1.6712602-.1904675-3.3807308.237-5.019.2027794.0396671.4096413.054443.616.044.2130205-.0047806.4184296.0792669.567.232.1499096.1442962.2338158.3439352.232.552-.0363235.7753779.254831 1.5303365.8023744 2.0805424.5475433.550206 1.3010806.8450194 2.0766256.8124576.2100546-.0021325.412352.0792718.5623834.2263026.1500315.1470308.2355056.3476425.2376166.5576974-.0363235.7753779.254831 1.5303365.8023744 2.0805424.5475433.550206 1.3010806.8450194 2.0766256.8124576.2116326-.0015826.4150953.081603.565.231.1502326.1445697.2344751.3445101.233.553-.0356059.7737729.254871 1.5270222.8007812 2.076544.5459103.5495218 1.297228.8449591 2.0712188.814456.2126081-.0041395.4174626.0798292.566.232.1483561.1432971.2320975.3407391.232.547-.0099758.2121241.005806.4246752.047.633-1.6217839.4228914-3.3133767.506637-4.969.246zm11.208-3.517c-.1991166.0037461-.3907972-.0756074-.529-.219-.1535528-.1503398-.2351342-.3593921-.224-.574.0252458-.7736521-.2720543-1.5230202-.8208205-2.068942-.5487661-.5459219-1.299669-.8393238-2.0731795-.810058-.2104276.0112927-.4150722-.0710777-.559-.225-.1533836-.1496936-.2352922-.3579235-.225-.572.026417-.7739003-.2703334-1.5239036-.8191139-2.0702181-.5487804-.5463144-1.3001127-.8396841-2.0738861-.8097819-.2097515.0084692-.413138-.0730309-.559-.224-.1535528-.1503398-.2351342-.3593921-.224-.574.0252464-.773387-.2719481-1.5225011-.8205269-2.0682356-.5485789-.5457345-1.2992278-.8390308-2.0724731-.8097644-.2103333.007853-.4140354-.0743554-.56-.226-.1532741-.1497663-.2351625-.3579449-.225-.572.0262851-.7724582-.2693908-1.5211434-.8163912-2.06719578-.5470004-.54605237-1.2961973-.84042917-2.0686088-.81280422-.2128011.01270195-.4203378-.06928785-.567-.224-.1394537-.14101948-.2186905-.33068589-.221-.529.277-.324.552-.651.858-.956.371-.372.756-.721 1.151-1.048.5291833.80099198 1.44105 1.26414425 2.4 1.219.2123194-.00261011.4165948.08112117.566.232.1498101.1443644.2336975.34395851.232.552-.0363235.77537791.254831 1.53033646.8023744 2.0805424.5475433.550206 1.3010806.8450194 2.0766256.8124576.2124076-.0030743.4168578.0807286.566.232.1499096.1442962.2338158.3439352.232.552-.0363235.7753779.254831 1.5303365.8023744 2.0805424.5475433.550206 1.3010806.8450194 2.0766256.8124576.2122099-.0020377.4162711.0816058.566.232.1494149.144635.2332276.3440515.232.552-.0364265.7762844.2553946 1.5320822.8040578 2.0824576s1.3035481.84455 2.0799422.8105424c.2121732-.0028738.4164277.080488.566.231.1500499.144946.2336293.3453917.231.554-.0386151.7778542.2551266 1.5354753.808 2.084.1244581.1232341.2600341.2347077.405.333-.327.394-.67.781-1.041 1.152-.304.305-.63.579-.954.856zm3.179-3.64c-.0622764-.0309002-.1204027-.0695391-.173-.115-.1533472-.1496501-.2349436-.3580122-.224-.572.0290068-.7723032-.2665372-1.5214982-.815-2.066-.5499298-.5475824-1.3024585-.842365-2.078-.814-.2100876.0104506-.414263-.0713657-.559-.224-.1540303-.1500905-.2360054-.3592179-.225-.574.0255301-.7735577-.2715391-1.5229385-.8201507-2.0688951-.5486115-.5459567-1.2994245-.8393872-2.0728493-.8101049-.210518.0100842-.4149804-.0720659-.56-.225-.1527382-.1504652-.2341969-.3588394-.224-.573.0281955-.7715747-.2672673-1.5198388-.815-2.064-.5497604-.54794848-1.3023104-.84310165-2.078-.815-.2104274.00954888-.4146755-.07251509-.56-.225-.1533472-.1496501-.2349436-.35801223-.224-.572.0268201-.77270458-.2684418-1.52184826-.8152503-2.06846712-.5468084-.54661887-1.2960545-.84162097-2.0687497-.81453288-.2128011.01270195-.4203378-.06928785-.567-.224-.046892-.04974797-.0878342-.10478496-.122-.164 2.2305292-1.46474528 4.8309172-2.26646511 7.499-2.312 2.624783-.06074049 5.1641753.9342661 7.049 2.762 3.581 3.581 3.606 9.588.455 14.538z"/></g></g></g></svg>