<?xml version="1.0" encoding="iso-8859-1"?>
<!-- Generator: Adobe Illustrator 19.0.0, SVG Export Plug-In . SVG Version: 6.00 Build 0)  -->
<svg version="1.1" id="Capa_1" xmlns="http://www.w3.org/2000/svg" xmlns:xlink="http://www.w3.org/1999/xlink" x="0px" y="0px"
	 viewBox="0 0 504.484 504.484" style="enable-background:new 0 0 504.484 504.484;" xml:space="preserve">
<g>
	<g transform="translate(1 1)">
		<g>
			<polygon style="fill:#009688;" points="249.964,444.291 186.929,390.909 210.767,367.155 301.164,444.291 			"/>
			<polygon style="fill:#009688;" points="140.975,302.316 91.328,252.753 67.658,276.422 117.222,326.069 			"/>
		</g>
		<g>
			<path style="fill:#4CAF50;" d="M32.399,264.976l35.611-35.611c3.278-3.278,8.592-3.278,11.87,0l23.74,23.74
				c3.278,3.278,3.278,8.592,0,11.87l-35.611,35.611c-3.278,3.278-8.592,3.278-11.87,0l-23.74-23.74
				C29.121,273.568,29.121,268.254,32.399,264.976z"/>
			
				<rect x="311.475" y="91.95" transform="matrix(-0.7071 0.7071 -0.7071 -0.7071 749.825 -93.1129)" style="fill:#4CAF50;" width="165.444" height="33.574"/>
		</g>
		<g>
			<path style="fill:#009688;" d="M417.945,49.413L459.49,7.868l35.611,35.611l-41.546,41.546c-3.278,3.278-8.592,3.278-11.87,0
				l-23.74-23.74C414.667,58.006,414.667,52.691,417.945,49.413z"/>
			<path style="fill:#009688;" d="M246.558,291.075L365.853,171.78c3.278-3.278,3.278-8.592,0-11.87l-23.718-23.718
				c-3.278-3.278-8.592-3.278-11.87,0L210.97,255.487L246.558,291.075z"/>
		</g>
		<path style="fill:#4CAF50;" d="M57.754,444.291l-25.096-25.096c-3.337-2.988-5.346-7.184-5.583-11.657
			c-0.236-4.474,1.32-8.857,4.324-12.18L184.411,243.1c6.962-6.188,17.615-5.588,23.837,1.343l50.193,50.193
			c3.337,2.988,5.346,7.184,5.583,11.657c0.236,4.474-1.32,8.857-4.324,12.18L133.295,444.291v16.787H57.754V444.291z"/>
		<path style="fill:#607D8B;" d="M392.82,452.684c0.48-2.771,0.705-5.581,0.671-8.393c0-32.449-26.305-58.754-58.754-58.754
			s-58.754,26.305-58.754,58.754c-0.034,2.812,0.191,5.622,0.671,8.393H392.82z"/>
		<path style="fill:#424242;" d="M7.394,494.652H485.82c3.087,0.001,5.924-1.697,7.381-4.418c1.457-2.721,1.298-6.024-0.414-8.592
			l-17.374-26.104c-4.675-7.021-12.549-11.241-20.984-11.247H24.18L7.394,494.652z"/>
	</g>
	<path d="M448.607,96.832c4.452,0.006,8.723-1.761,11.869-4.91l41.549-41.549c1.574-1.574,2.459-3.708,2.459-5.934
		s-0.885-4.361-2.459-5.934L466.41,2.898c-1.574-1.574-3.708-2.459-5.934-2.459c-2.226,0-4.361,0.885-5.934,2.459l-41.533,41.541
		c-4.295,4.191-5.947,10.399-4.301,16.17l-62.63,62.629c-5.766-1.563-11.928,0.066-16.168,4.275L216.545,240.877l-1.365-1.365
		c-9.497-10.192-25.443-10.8-35.689-1.361l-45.526,45.301L116.463,266l0.029-0.029c1.574-1.574,2.459-3.708,2.459-5.934
		s-0.885-4.361-2.459-5.934l-35.615-35.607c-1.574-1.574-3.708-2.459-5.934-2.459c-2.226,0-4.361,0.885-5.934,2.459l-47.475,47.475
		c-1.574,1.574-2.459,3.708-2.459,5.934c0,2.226,0.885,4.361,2.459,5.934l35.607,35.615c1.574,1.574,3.708,2.459,5.934,2.459
		c2.226,0,4.361-0.885,5.934-2.459l11.898-11.898l17.366,17.414l-71.764,71.409c-4.431,4.399-6.906,10.396-6.869,16.639
		c0.059,7.188,2.965,14.058,8.082,19.107l10.771,10.771H25.18c-3.612-0.001-6.819,2.31-7.959,5.738L0.435,492.996
		c-0.858,2.559-0.431,5.375,1.147,7.565c1.578,2.19,4.113,3.487,6.812,3.484H486.82c6.179-0.001,11.856-3.402,14.773-8.849
		s2.601-12.057-0.822-17.201l-17.377-26.115c-6.221-9.367-16.722-14.993-27.967-14.984h-52.541
		c0.012-31.779-22.263-59.211-53.368-65.723s-62.513,9.682-75.249,38.797l-50.082-42.317l42.404-42.208
		c4.431-4.399,6.906-10.396,6.869-16.639c-0.059-7.188-2.965-14.058-8.082-19.107l-1.369-1.369l113.361-113.36
		c4.199-4.222,5.837-10.358,4.299-16.111l62.655-62.655C445.718,96.598,447.158,96.808,448.607,96.832z M460.475,20.701
		l23.746,23.738l-35.615,35.615l-23.738-23.738L460.475,20.701z M63.074,295.652l-23.738-23.746l35.607-35.606l23.746,23.738
		l-0.016,0.017l-0.025,0.017l-23.672,23.671l-0.017,0.025L63.074,295.652z M92.775,289.688l11.82-11.82l17.473,17.424
		l-11.898,11.839L92.775,289.688z M455.426,453.684c5.628-0.003,10.884,2.813,14,7.5l17.393,26.074H20.041l11.188-33.574H455.426z
		 M188.385,403.291l39.685,33.607h-73.446L188.385,403.291z M335.738,386.537c27.801,0.03,50.33,22.56,50.361,50.361H285.377
		C285.408,409.097,307.937,386.567,335.738,386.537z M269.29,427.74c-0.442,3.033-0.676,6.093-0.7,9.158h-14.549l-53.718-45.49
		l11.922-11.867L269.29,427.74z M254.779,313.52L130.831,436.897H62.23L39.59,414.258c-1.959-1.887-3.096-4.469-3.164-7.188
		c-0.041-1.779,0.642-3.497,1.893-4.762l77.461-77.08c0.108-0.096,0.247-0.129,0.35-0.232s0.134-0.24,0.231-0.346l74.982-74.613
		c1.406-1.322,3.306-1.986,5.229-1.828c2.559,0.195,4.957,1.324,6.738,3.172l50.197,50.189c1.959,1.887,3.096,4.469,3.164,7.189
		C256.713,310.537,256.03,312.256,254.779,313.52z M228.415,252.745l113.354-113.353l0.01,0.014l23.709,23.709L252.138,276.464
		L228.415,252.745z M371.463,145.328l-11.869-11.869l59.34-59.34l11.869,11.869L371.463,145.328z"/>
</g>
<g>
</g>
<g>
</g>
<g>
</g>
<g>
</g>
<g>
</g>
<g>
</g>
<g>
</g>
<g>
</g>
<g>
</g>
<g>
</g>
<g>
</g>
<g>
</g>
<g>
</g>
<g>
</g>
<g>
</g>
</svg>
