<?xml version="1.0" encoding="iso-8859-1"?>
<!-- Generator: Adobe Illustrator 19.0.0, SVG Export Plug-In . SVG Version: 6.00 Build 0)  -->
<svg version="1.1" id="Capa_1" xmlns="http://www.w3.org/2000/svg" xmlns:xlink="http://www.w3.org/1999/xlink" x="0px" y="0px"
	 viewBox="0 0 512 512" style="enable-background:new 0 0 512 512;" xml:space="preserve">
<g>
	<g transform="translate(1 1)">
		<path style="fill:#CFD8DC;" d="M101.4,127h307.2c4.713,0,8.533,3.821,8.533,8.533V408.6c0,4.713-3.821,8.533-8.533,8.533H101.4
			c-4.713,0-8.533-3.821-8.533-8.533V135.533C92.867,130.821,96.687,127,101.4,127z"/>
		<path style="fill:#FFFFFF;" d="M101.4,127H383c4.713,0,8.533,3.821,8.533,8.533V408.6c0,4.713-3.82,8.533-8.533,8.533H101.4
			c-4.713,0-8.533-3.821-8.533-8.533V135.533C92.867,130.821,96.687,127,101.4,127z"/>
		<circle style="fill:#F44335;" cx="255" cy="272.067" r="85.333"/>
		<circle style="fill:#FFFFFF;" cx="255" cy="272.067" r="51.2"/>
		<circle style="fill:#F44335;" cx="255" cy="272.067" r="17.067"/>
		<g>
			<path style="fill:#795548;" d="M7.533,41.667v451.939c-0.089,4.803,3.731,8.769,8.533,8.862H50.2
				c4.803-0.092,8.622-4.059,8.533-8.862V41.667"/>
			<path style="fill:#795548;" d="M502.467,41.667v451.939c0.089,4.803-3.731,8.769-8.533,8.862H459.8
				c-4.803-0.092-8.622-4.059-8.533-8.862V41.667"/>
			<path style="fill:#795548;" d="M7.533,58.733V16.067c0-4.713,3.821-8.533,8.533-8.533h477.867c4.713,0,8.533,3.821,8.533,8.533
				v42.667H7.533z"/>
		</g>
	</g>
	<g>
		<path d="M494.933,0H17.067C7.646,0.012,0.012,7.646,0,17.067v477.867c0.012,9.421,7.646,17.054,17.067,17.067H51.2
			c9.421-0.012,17.054-7.646,17.067-17.067V68.267h68.267v51.2H102.4c-9.421,0.012-17.054,7.646-17.067,17.067V409.6
			c0.012,9.421,7.646,17.054,17.067,17.067h307.2c9.421-0.012,17.054-7.646,17.067-17.067V136.533
			c-0.012-9.421-7.646-17.054-17.067-17.067h-34.133v-51.2h68.267v426.667c0.012,9.421,7.646,17.054,17.067,17.067h34.133
			c9.421-0.012,17.054-7.646,17.067-17.067V17.067C511.988,7.646,504.354,0.012,494.933,0z M17.067,17.067l477.867-0.017V51.2
			H17.067V17.067z M51.2,494.933H17.067V68.267H51.2V494.933z M409.6,136.533l0.017,273.067H102.4V136.533h34.133V153.6
			c0,4.713,3.821,8.533,8.533,8.533c4.713,0,8.533-3.821,8.533-8.533v-17.067h204.8V153.6c0,4.713,3.82,8.533,8.533,8.533
			s8.533-3.821,8.533-8.533v-17.067H409.6z M358.4,119.467H153.6v-51.2h204.8V119.467z M460.8,494.933V68.267h34.133v426.667H460.8z
			"/>
		<path d="M256,179.2c-51.841,0-93.867,42.026-93.867,93.867s42.026,93.867,93.867,93.867s93.867-42.026,93.867-93.867
			C349.808,221.25,307.817,179.259,256,179.2z M256,349.867c-42.415,0-76.8-34.385-76.8-76.8s34.385-76.8,76.8-76.8
			s76.8,34.385,76.8,76.8C332.754,315.463,298.396,349.82,256,349.867z"/>
		<path d="M256,213.333c-32.99,0-59.733,26.744-59.733,59.733S223.01,332.8,256,332.8s59.733-26.744,59.733-59.733
			C315.693,240.093,288.973,213.373,256,213.333z M256,315.733c-23.564,0-42.667-19.103-42.667-42.667S232.436,230.4,256,230.4
			c23.564,0,42.667,19.103,42.667,42.667C298.639,296.619,279.553,315.706,256,315.733z"/>
		<path d="M256,247.467c-14.138,0-25.6,11.462-25.6,25.6s11.462,25.6,25.6,25.6c14.139,0,25.6-11.462,25.6-25.6
			C281.585,258.935,270.132,247.482,256,247.467z M256,281.6c-4.713,0-8.533-3.82-8.533-8.533s3.821-8.533,8.533-8.533
			c4.713,0,8.533,3.82,8.533,8.533C264.53,277.778,260.712,281.597,256,281.6z"/>
		<path d="M372.992,202.325c0.752-0.831,1.358-1.783,1.792-2.817c0.911-2.065,0.911-4.418,0-6.483
			c-0.412-1.045-1.02-2.001-1.792-2.817c-0.407-0.367-0.836-0.709-1.283-1.025c-0.474-0.324-0.99-0.582-1.533-0.767
			c-0.484-0.245-1-0.419-1.533-0.517c-1.097-0.25-2.236-0.25-3.333,0c-0.563,0.083-1.109,0.258-1.617,0.517
			c-0.546,0.184-1.065,0.442-1.542,0.767c-0.445,0.316-0.871,0.658-1.276,1.024c-0.772,0.816-1.38,1.772-1.792,2.817
			c-0.911,2.065-0.911,4.418,0,6.483c0.434,1.034,1.04,1.986,1.792,2.817C364.24,205.625,369.627,205.625,372.992,202.325
			L372.992,202.325z"/>
		<path d="M142.592,360.896c-0.407-0.367-0.836-0.709-1.283-1.025c-0.474-0.324-0.99-0.582-1.533-0.767
			c-0.484-0.245-1-0.419-1.533-0.517c-1.097-0.25-2.236-0.25-3.333,0c-0.563,0.083-1.109,0.258-1.617,0.517
			c-0.546,0.184-1.065,0.442-1.542,0.767c-0.445,0.316-0.871,0.658-1.275,1.025c-0.772,0.816-1.38,1.772-1.792,2.817
			c-0.911,2.065-0.911,4.418,0,6.483c0.434,1.034,1.04,1.986,1.792,2.817c3.365,3.3,8.752,3.3,12.117,0
			c0.752-0.831,1.358-1.783,1.792-2.817c0.911-2.065,0.911-4.418,0-6.483C143.972,362.668,143.364,361.712,142.592,360.896z"/>
		<path d="M161.45,201.579c-0.412-1.045-1.02-2.001-1.792-2.817c-0.407-0.367-0.836-0.709-1.283-1.025
			c-0.474-0.324-0.99-0.582-1.533-0.767c-0.484-0.245-1-0.419-1.533-0.517c-1.097-0.25-2.236-0.25-3.333,0
			c-0.563,0.083-1.109,0.258-1.617,0.517c-0.546,0.184-1.065,0.442-1.542,0.767c-0.445,0.316-0.871,0.658-1.275,1.025
			c-0.772,0.816-1.38,1.772-1.792,2.817c-0.911,2.065-0.911,4.418,0,6.483c0.434,1.034,1.04,1.986,1.792,2.817
			c3.365,3.3,8.752,3.3,12.117,0c0.752-0.831,1.358-1.783,1.792-2.817C162.361,205.997,162.361,203.644,161.45,201.579z"/>
		<path d="M372.225,256.704c-0.546,0.184-1.065,0.442-1.542,0.767c-0.445,0.316-0.871,0.658-1.275,1.025
			c-0.772,0.816-1.38,1.772-1.792,2.817c-0.911,2.065-0.911,4.418,0,6.483c0.434,1.034,1.04,1.986,1.792,2.817
			c3.365,3.3,8.752,3.3,12.117,0c0.752-0.831,1.358-1.783,1.792-2.817c0.911-2.065,0.911-4.418,0-6.483
			c-0.412-1.045-1.02-2.001-1.792-2.817c-0.407-0.367-0.836-0.709-1.283-1.025c-0.474-0.324-0.99-0.582-1.533-0.767
			c-0.484-0.245-1-0.419-1.533-0.517c-1.097-0.25-2.236-0.25-3.333,0C373.278,256.271,372.732,256.445,372.225,256.704z"/>
	</g>
</g>
<g>
</g>
<g>
</g>
<g>
</g>
<g>
</g>
<g>
</g>
<g>
</g>
<g>
</g>
<g>
</g>
<g>
</g>
<g>
</g>
<g>
</g>
<g>
</g>
<g>
</g>
<g>
</g>
<g>
</g>
</svg>
