<?xml version="1.0" encoding="iso-8859-1"?>
<!-- Generator: Adobe Illustrator 19.0.0, SVG Export Plug-In . SVG Version: 6.00 Build 0)  -->
<svg version="1.1" id="Capa_1" xmlns="http://www.w3.org/2000/svg" xmlns:xlink="http://www.w3.org/1999/xlink" x="0px" y="0px"
	 viewBox="0 0 512 512" style="enable-background:new 0 0 512 512;" xml:space="preserve">
<g>
	<g transform="translate(1 1)">
		<g>
			<path style="fill:#FFE0B2;" d="M118.211,202.179c-11.173,13.766-21.353,28.309-30.464,43.519
				c-2.73,4.352-5.291,8.789-7.851,13.227c-2.646,4.694-5.291,9.473-7.765,14.336c-2.561,4.779-4.95,9.643-7.339,14.422
				c-0.853,1.622-1.621,3.328-2.389,4.949c-0.341,0.769-0.767,1.451-1.108,2.219h-0.086c-8.066-7.366-15.384-15.512-21.845-24.319
				c-20.221-26.999-31.365-59.712-31.829-93.441C7.533,100.802,68.547,24.6,68.547,24.6S44.483,129.816,98.243,186.05
				C104.188,192.251,110.898,197.671,118.211,202.179z"/>
			<path style="fill:#FFE0B2;" d="M62.402,292.631c-0.341,0.769-0.682,1.451-1.023,2.219h-0.085
				C61.635,294.083,62.061,293.4,62.402,292.631z"/>
			<rect x="287.597" y="202.179" style="fill:#FFE0B2;" width="8.533" height="92.672"/>
		</g>
		<path style="fill:#424242;" d="M469.869,344.6c-10.129,3.52-20.513,6.259-31.06,8.192c-6.827-18.431-14.848-38.144-24.235-57.941
			c-15.252-33.026-34.357-64.133-56.917-92.671h-1.621c-9.909-12.205-20.874-23.513-32.769-33.793v-23.041l0.598-1.023
			c0.068,0.065,0.162,0.097,0.255,0.085c6.169,3.262,12.126,6.91,17.835,10.923c2.56,1.706,4.95,3.412,7.34,5.29
			c2.048,1.537,4.096,3.158,6.059,4.779c1.963,1.621,3.925,3.243,5.888,4.949c1.962,1.707,3.841,3.499,5.803,5.291
			c2.133,1.877,4.181,3.925,6.229,5.973l4.863,5.121c1.793,1.877,3.584,3.84,5.377,5.802c1.793,1.962,3.498,4.011,5.204,6.059
			c1.025,1.195,2.048,2.389,2.987,3.584c0.683,0.852,1.45,1.707,2.133,2.645c10.149,12.749,19.496,26.115,27.989,40.022
			c2.816,4.607,5.631,9.3,8.277,14.079c2.646,4.779,5.291,9.557,7.765,14.336c2.56,4.778,5.035,9.643,7.34,14.421
			c1.194,2.389,2.304,4.779,3.412,7.168c1.196,2.475,2.304,4.865,3.499,7.34c4.352,9.642,8.449,19.2,12.289,28.501
			c1.45,3.67,2.901,7.253,4.267,10.752C469.102,342.552,469.443,343.576,469.869,344.6z"/>
		<path style="fill:#FFE0B2;" d="M502.467,177.091c-0.891,44.975-20.313,87.585-53.675,117.759h-0.171
			c-1.108-2.389-2.219-4.778-3.412-7.168c-2.304-4.778-4.779-9.643-7.34-14.421c-2.474-4.779-5.119-9.557-7.765-14.336
			c-2.646-4.779-5.461-9.472-8.277-14.079c-8.493-13.907-17.841-27.273-27.99-40.021c-0.683-0.939-1.451-1.793-2.133-2.645h0.085
			C470.894,153.453,441.453,24.6,441.453,24.6S502.467,100.802,502.467,177.091z"/>
		<path style="fill:#424242;" d="M324.12,144.408c6.169,3.262,12.126,6.91,17.835,10.923
			C336.253,151.306,330.296,147.658,324.12,144.408z M391.789,202.179c-0.94-1.196-1.964-2.391-3.073-3.584
			c1.025,1.195,2.048,2.389,2.987,3.584c0.683,0.852,1.45,1.707,2.133,2.645C393.209,203.902,392.525,203.019,391.789,202.179
			L391.789,202.179z M448.792,294.85h-0.085c-1.194-2.389-2.304-4.778-3.498-7.168c1.194,2.389,2.304,4.779,3.413,7.168
			c1.196,2.475,2.304,4.865,3.499,7.34C451.011,299.715,449.902,297.325,448.792,294.85z M452.12,302.189
			c4.352,9.642,8.449,19.2,12.289,28.502C460.653,321.304,456.557,311.831,452.12,302.189z M481.304,376.686
			c-10.192,3.637-20.628,6.546-31.232,8.704c12.545,38.656,18.261,65.877,18.261,65.877c0,27.05-101.631,49.237-230.4,51.029
			c5.631,0.171,11.35,0.171,17.067,0.171c136.704,0,247.467-22.954,247.467-51.2C496.761,426.043,489.696,401.147,481.304,376.686
			L481.304,376.686z M288.195,144.323l-0.597,1.023v210.945c0.012,1.739,0.547,3.433,1.535,4.863v-216.32
			C288.792,144.665,288.535,144.494,288.195,144.323z M45.592,330.691c3.84-9.301,7.936-18.859,12.289-28.501
			C53.443,311.831,49.347,321.304,45.592,330.691z M61.294,294.85h-0.086c-1.11,2.475-2.219,4.865-3.328,7.34
			c1.195-2.475,2.303-4.865,3.499-7.34c0.341-0.768,0.683-1.45,1.023-2.219C62.061,293.4,61.635,294.083,61.294,294.85
			L61.294,294.85z M118.211,202.179h0.085c0.341-0.513,0.769-1.025,1.109-1.451C118.979,201.24,118.637,201.667,118.211,202.179z"/>
		<path style="fill:#F5F5F5;" d="M118.211,202.179h0.085c0.341-0.513,0.769-1.025,1.109-1.451
			C118.979,201.24,118.637,201.667,118.211,202.179z M118.211,202.179h0.085c0.341-0.513,0.769-1.025,1.109-1.451
			C118.979,201.24,118.637,201.667,118.211,202.179z M288.195,144.323l-0.597,1.023v210.945c0.012,1.739,0.547,3.433,1.535,4.863
			v-216.32C288.792,144.665,288.535,144.494,288.195,144.323L288.195,144.323z M61.293,294.85h-0.085
			c-1.11,2.475-2.219,4.865-3.328,7.34c1.195-2.475,2.303-4.865,3.499-7.34c0.341-0.768,0.683-1.45,1.023-2.219
			C62.061,293.4,61.635,294.083,61.293,294.85L61.293,294.85z M45.592,330.691c3.84-9.301,7.936-18.859,12.289-28.501
			C53.443,311.831,49.347,321.304,45.592,330.691z"/>
		<path style="fill:#9E9E9E;" d="M468.333,451.267c0,27.05-101.631,49.237-230.4,51.029c-128.769-1.792-230.4-23.979-230.4-51.029
			c5.706-25.223,12.771-50.12,21.163-74.581c39.169,14.507,117.845,22.698,183.637,23.296c2.27,0.023,4.454-0.869,6.059-2.474
			c1.605-1.605,2.497-3.789,2.474-6.059V131.437l-0.085-0.256c5.64-1.438,11.37-2.492,17.152-3.157
			c17.145-2.068,34.523-0.998,51.285,3.157l-0.085,0.256v13.397c-0.341-0.17-0.598-0.341-0.939-0.511l-0.597,1.023v210.945
			c0.012,1.739,0.547,3.433,1.535,4.863v30.293c-0.023,2.27,0.869,4.454,2.474,6.059c1.605,1.605,3.789,2.497,6.059,2.474
			c51.144-0.139,102.164-5.024,152.405-14.592C462.617,424.046,468.333,451.267,468.333,451.267z"/>
		<g>
			<path style="fill:#607D8B;" d="M323.267,109.933c-0.069,9.397-7.67,16.998-17.067,17.067H203.8
				c-9.414-0.028-17.039-7.653-17.067-17.067c0.068-9.397,7.669-16.998,17.067-17.067h102.4
				C315.614,92.894,323.239,100.519,323.267,109.933z"/>
			<path style="fill:#607D8B;" d="M289.133,92.867c0,0-8.533-85.333-34.133-85.333s-34.133,85.333-34.133,85.333H289.133z"/>
		</g>
		<g>
			<path style="fill:#FFEB3A;" d="M220.867,131.437v260.011c0.023,2.27-0.869,4.454-2.474,6.059
				c-1.605,1.605-3.789,2.497-6.059,2.474c-65.792-0.598-144.469-8.789-183.637-23.296c3.328-10.154,7.169-20.907,11.435-32.085
				c26.197,9.728,80.811,17.493,137.642,20.224c2.335,0.112,4.614-0.737,6.306-2.349c1.693-1.612,2.652-3.847,2.654-6.184V145.346
				l-0.512-1.108c2.731-1.451,5.463-2.817,8.277-4.011c5.625-2.566,11.411-4.761,17.323-6.571c2.902-0.94,5.889-1.707,8.875-2.475
				h0.085L220.867,131.437z"/>
			<path style="fill:#FFEB3A;" d="M481.304,376.685c-10.192,3.637-20.628,6.546-31.232,8.704
				c-50.241,9.568-101.262,14.453-152.405,14.592c-2.27,0.023-4.454-0.869-6.059-2.474c-1.605-1.605-2.497-3.789-2.474-6.059
				V131.437l0.085-0.256c2.987,0.768,6.059,1.535,8.96,2.475c2.133,0.683,4.267,1.365,6.4,2.133
				c1.023,0.341,1.963,0.683,2.985,1.108c2.646,1.025,5.292,2.135,7.938,3.329c2.815,1.194,5.546,2.559,8.277,4.011
				c0.023,0,0.045,0.008,0.061,0.024s0.025,0.038,0.024,0.061l-0.598,1.023v210.945c-0.018,2.56,1.147,4.985,3.157,6.571
				c1.605,1.384,3.687,2.088,5.803,1.963c35.771-1.435,71.391-5.457,106.581-12.032c10.548-1.933,20.931-4.672,31.06-8.192
				C474.135,355.779,477.976,366.531,481.304,376.685z"/>
		</g>
		<path style="fill:#9E9E9E;" d="M438.808,352.792c-35.191,6.575-70.811,10.597-106.581,12.032
			c-2.116,0.126-4.198-0.578-5.803-1.963c-2.01-1.586-3.175-4.011-3.157-6.571l0-187.904c11.895,10.28,22.86,21.588,32.769,33.793
			h1.621c22.56,28.538,41.665,59.645,56.917,92.671C423.96,314.648,431.981,334.36,438.808,352.792z"/>
		<path style="fill:#F5F5F5;" d="M289.133,144.835v216.32c-0.988-1.43-1.523-3.125-1.535-4.863V145.346l0.597-1.023
			C288.535,144.494,288.792,144.665,289.133,144.835z"/>
		<path style="fill:#9E9E9E;" d="M186.733,145.346v210.945c-0.002,2.337-0.961,4.572-2.654,6.184
			c-1.693,1.612-3.971,2.461-6.306,2.349c-56.832-2.73-111.445-10.496-137.642-20.224c1.706-4.608,3.583-9.217,5.461-13.909
			c3.84-9.301,7.936-18.859,12.289-28.501c1.195-2.475,2.303-4.865,3.499-7.34c0.341-0.768,0.683-1.45,1.023-2.219
			c0.769-1.62,1.537-3.327,2.39-4.948c2.389-4.778,4.779-9.643,7.34-14.421c2.474-4.863,5.119-9.643,7.765-14.336
			c2.56-4.437,5.121-8.875,7.851-13.227c9.111-15.21,19.291-29.753,30.464-43.519h0.085c0.341-0.513,0.769-1.025,1.109-1.451
			c0.256-0.256,0.426-0.512,0.683-0.768c0.207-0.326,0.466-0.614,0.768-0.855c1.706-2.133,3.498-4.181,5.291-6.229
			c1.877-2.133,3.755-4.181,5.717-6.229c1.535-1.621,2.985-3.157,4.607-4.693c0.646-0.773,1.36-1.487,2.133-2.133
			c1.451-1.535,2.901-2.901,4.437-4.267c2.559-2.475,5.291-4.949,8.022-7.253c2.219-1.877,4.437-3.67,6.741-5.461
			c0.085-0.085,0.085-0.171,0.171-0.171c2.389-1.877,4.864-3.754,7.424-5.546c0.085-0.085,0.171-0.171,0.256-0.171
			c1.279-0.94,2.56-1.877,3.925-2.731c1.877-1.279,3.669-2.475,5.547-3.583c1.451-0.94,2.987-1.877,4.522-2.731
			c2.133-1.279,4.352-2.475,6.571-3.669L186.733,145.346z"/>
	</g>
	<path d="M512,178.092c0-78.383-60.325-154.616-62.892-157.825c-2.486-3.104-6.788-4.079-10.369-2.349
		c-3.581,1.73-5.492,5.705-4.606,9.582c0.267,1.188,25.5,116.246-39.521,164.148c-20.376-24.763-45.951-44.739-74.91-58.512
		c10.166-5.663,15.212-17.486,12.268-28.744c-2.944-11.258-13.133-19.097-24.77-19.058h-9.448C294.383,58.032,283.938,0,256,0
		c-27.938,0-38.383,58.032-41.752,85.333H204.8c-11.637-0.04-21.826,7.8-24.77,19.058c-2.944,11.258,2.102,23.082,12.268,28.744
		c-28.96,13.773-54.534,33.75-74.91,58.512C52.367,143.746,77.6,28.688,77.867,27.5c0.886-3.877-1.025-7.852-4.606-9.582
		c-3.581-1.73-7.883-0.756-10.369,2.349C60.325,23.475,0,99.708,0,178.092c0.848,45.075,19.424,88.001,51.702,119.475
		C29.372,346.663,12.11,397.909,0.183,450.509c-0.124,0.578-0.185,1.167-0.183,1.758C0,499.517,167.458,512,256,512
		s256-12.483,256-59.733c0.002-0.591-0.06-1.18-0.183-1.758c-11.926-52.6-29.189-103.846-51.519-152.942
		C492.576,266.093,511.152,223.167,512,178.092z M459.431,340.35c-41.51,10.015-83.948,15.693-126.631,16.942V160.04
		C392.033,197.835,433.335,274.625,459.431,340.35z M471.35,372.345c-37.044,11.37-105.873,19.494-172.683,20.105V143.502
		c5.83,1.952,11.53,4.272,17.067,6.947v206.843c0.008,9.412,7.621,17.048,17.033,17.084c0.283,0,0.575-0.009,0.867-0.025
		c44.499-1.316,88.731-7.364,131.95-18.043C467.621,361.786,469.543,367.131,471.35,372.345z M256,17.067
		c8.617,0,19.683,31.483,24.55,68.267h-49.1C236.3,48.558,247.367,17.067,256,17.067z M204.8,119.467
		c-4.713,0-8.533-3.821-8.533-8.533c0-4.713,3.821-8.533,8.533-8.533h102.4c4.713,0,8.533,3.821,8.533,8.533
		c0,4.713-3.821,8.533-8.533,8.533H204.8z M213.408,392.45c-66.891-0.611-135.738-8.737-172.777-20.11
		c1.815-5.219,3.736-10.565,5.763-16.04c43.212,10.682,87.438,16.732,131.931,18.05c0.292,0.009,0.592,0.017,0.883,0.017
		c9.422-0.014,17.054-7.653,17.058-17.075V150.435c5.537-2.672,11.239-4.99,17.07-6.94L213.408,392.45z M179.199,160.019
		L179.183,357.3c-42.686-1.255-85.127-6.938-126.64-16.958C78.631,274.608,119.933,197.806,179.199,160.019z M17.067,178.092
		c0-44.3,21.967-89.267,39.133-117.633c-2.913,41.531,1.434,107.846,50.419,144.355c-18.127,23.822-33.876,49.363-47.021,76.257
		C33.016,253.288,17.837,216.535,17.067,178.092z M256,494.933c-152.275,0-236.383-27.342-238.875-42
		c1.22-5.471,7.075-30.6,18.06-64.385c44.098,13.737,119.636,20.437,177.998,20.969h0.308c4.416,0.01,8.657-1.731,11.792-4.842
		c3.291-3.213,5.138-7.625,5.117-12.225V139.14c16.89-3.476,34.311-3.475,51.2,0.002V392.45c-0.021,4.6,1.825,9.012,5.117,12.225
		c3.119,3.099,7.336,4.84,11.733,4.842h0.292c58.425-0.531,133.954-7.229,178.057-20.964c10.992,33.782,16.855,58.909,18.077,64.38
		C492.375,467.592,408.267,494.933,256,494.933z M405.381,204.814c48.985-36.509,53.331-102.824,50.419-144.355
		c17.167,28.366,39.133,73.333,39.133,117.633c-0.771,38.443-15.95,75.196-42.531,102.979
		C439.257,254.177,423.509,228.636,405.381,204.814z"/>
</g>
<g>
</g>
<g>
</g>
<g>
</g>
<g>
</g>
<g>
</g>
<g>
</g>
<g>
</g>
<g>
</g>
<g>
</g>
<g>
</g>
<g>
</g>
<g>
</g>
<g>
</g>
<g>
</g>
<g>
</g>
</svg>
