<?xml version="1.0" encoding="iso-8859-1"?>
<!-- Generator: Adobe Illustrator 19.0.0, SVG Export Plug-In . SVG Version: 6.00 Build 0)  -->
<svg version="1.1" id="Capa_1" xmlns="http://www.w3.org/2000/svg" xmlns:xlink="http://www.w3.org/1999/xlink" x="0px" y="0px"
	 viewBox="0 0 512 512" style="enable-background:new 0 0 512 512;" xml:space="preserve">
<g>
	<g transform="translate(2 1)">
		<rect x="279.6" y="41.667" style="fill:#9E9E9E;" width="34.133" height="85.333"/>
		<g>
			<path style="fill:#8BC34A;" d="M143.067,365.933V434.2h-34.133c-4.707-0.014-8.52-3.826-8.533-8.533v-51.2
				c0.014-4.707,3.826-8.52,8.533-8.533H143.067z"/>
			<rect x="143.067" y="365.933" style="fill:#8BC34A;" width="8.533" height="68.267"/>
			<path style="fill:#8BC34A;" d="M143.067,178.2v68.267h-34.133c-4.707-0.014-8.52-3.826-8.533-8.533v-51.2
				c0.014-4.707,3.826-8.52,8.533-8.533H143.067z"/>
			<rect x="143.067" y="178.2" style="fill:#8BC34A;" width="8.533" height="68.267"/>
		</g>
		<rect x="143.067" y="127" style="fill:#2E7D32;" width="187.733" height="358.4"/>
		<path style="fill:#4CAF50;" d="M305.2,127v358.4H134.533v-8.533c0.014-4.707,3.826-8.52,8.533-8.533V144.067
			c-4.707-0.014-8.52-3.826-8.533-8.533V127H305.2z"/>
		<g>
			<path style="fill:#8BC34A;" d="M143.067,468.333H330.8c4.713,0,8.533,3.821,8.533,8.533v17.067c0,4.713-3.82,8.533-8.533,8.533
				H143.067c-4.713,0-8.533-3.821-8.533-8.533v-17.067C134.533,472.154,138.354,468.333,143.067,468.333z"/>
			<path style="fill:#8BC34A;" d="M143.067,109.933H330.8c4.713,0,8.533,3.82,8.533,8.533v17.067c0,4.713-3.82,8.533-8.533,8.533
				H143.067c-4.713,0-8.533-3.821-8.533-8.533v-17.067C134.533,113.754,138.354,109.933,143.067,109.933z"/>
		</g>
		<path style="fill:#9E9E9E;" d="M288.133,289.133V408.6c0,18.851-15.282,34.133-34.133,34.133h-34.133
			c-18.851,0-34.133-15.282-34.133-34.133V289.133c0-18.851,15.282-34.133,34.133-34.133H254
			C272.851,255,288.133,270.282,288.133,289.133z"/>
		<g>
			<path style="fill:#424242;" d="M228.4,289.133h17.067c4.713,0,8.533,3.82,8.533,8.533v102.4c0,4.713-3.821,8.533-8.533,8.533
				H228.4c-4.713,0-8.533-3.821-8.533-8.533v-102.4C219.867,292.954,223.687,289.133,228.4,289.133z"/>
			<path style="fill:#424242;" d="M313.733,24.6l0,34.133H279.6V24.6c0.028-9.414,7.652-17.039,17.067-17.067
				c4.527-0.024,8.87,1.793,12.031,5.035C311.94,15.729,313.757,20.072,313.733,24.6z"/>
		</g>
	</g>
	<g>
		<path d="M102.4,358.4c-9.421,0.012-17.054,7.646-17.067,17.067v51.2c0.012,9.421,7.646,17.054,17.067,17.067h34.133v19.442
			c-5.261,3.025-8.512,8.623-8.533,14.692v17.067c0.012,9.421,7.646,17.054,17.067,17.067H332.8
			c9.421-0.012,17.054-7.646,17.067-17.067v-0.389c43.058-3.866,76.8-36.654,76.8-76.411V196.267
			c0-39.757-33.742-72.545-76.8-76.411v-0.389c-0.012-9.421-7.646-17.054-17.067-17.067h-8.533V25.6c0-14.138-11.462-25.6-25.6-25.6
			s-25.6,11.462-25.6,25.6v76.8h-128c-9.421,0.012-17.054,7.646-17.067,17.067v17.067c0.021,6.069,3.272,11.667,8.533,14.692v19.442
			H102.4c-9.421,0.012-17.054,7.646-17.067,17.067v51.2c0.012,9.421,7.646,17.054,17.067,17.067h34.133v102.4H102.4z M102.4,426.667
			v-51.2h34.133v51.2H102.4z M324.267,460.8H153.6V153.6h170.667V460.8z M145.067,494.933v-17.067H332.8l0.009,8.492L332.8,486.4
			l0.009,0.042l0.009,8.492H145.067z M409.6,196.267v221.867c0,30.416-26.14,55.549-59.785,59.222
			c-0.184-5.875-3.392-11.238-8.481-14.18v-311.95c5.089-2.942,8.297-8.305,8.481-14.18C383.46,140.718,409.6,165.851,409.6,196.267
			z M298.667,17.067c4.712,0.003,8.53,3.822,8.533,8.533v25.6h-17.067V25.6C290.137,20.888,293.955,17.07,298.667,17.067z
			 M290.133,68.267H307.2V102.4h-17.067V68.267z M145.067,119.467H332.8l0.009,8.492L332.8,128l0.009,0.042l0.009,8.492h-187.75
			V119.467z M102.4,238.933v-51.2h34.133v51.2H102.4z"/>
		<path d="M221.867,452.267H256c23.553-0.028,42.639-19.114,42.667-42.667V290.133c-0.028-23.553-19.114-42.639-42.667-42.667
			h-34.133c-23.553,0.028-42.639,19.114-42.667,42.667V409.6C179.228,433.153,198.314,452.239,221.867,452.267z M196.267,290.133
			c0.015-14.132,11.468-25.585,25.6-25.6H256c14.132,0.015,25.585,11.468,25.6,25.6V409.6c-0.015,14.132-11.468,25.585-25.6,25.6
			h-34.133c-14.132-0.015-25.585-11.468-25.6-25.6V290.133z"/>
		<path d="M230.4,418.133h17.067c9.421-0.012,17.054-7.646,17.067-17.067v-102.4c-0.012-9.421-7.646-17.054-17.067-17.067H230.4
			c-9.421,0.012-17.054,7.646-17.067,17.067v102.4C213.346,410.487,220.979,418.121,230.4,418.133z M230.4,298.667h17.067
			l0.017,102.4H230.4V298.667z"/>
		<path d="M187.733,179.2h51.2c4.713,0,8.533-3.821,8.533-8.533c0-4.713-3.821-8.533-8.533-8.533h-51.2
			c-4.713,0-8.533,3.821-8.533,8.533C179.2,175.38,183.021,179.2,187.733,179.2z"/>
		<path d="M273.067,179.2h17.067c4.713,0,8.533-3.821,8.533-8.533c0-4.713-3.821-8.533-8.533-8.533h-17.067
			c-4.713,0-8.533,3.821-8.533,8.533C264.533,175.38,268.354,179.2,273.067,179.2z"/>
		<path d="M187.733,213.333H204.8c4.713,0,8.533-3.821,8.533-8.533c0-4.713-3.821-8.533-8.533-8.533h-17.067
			c-4.713,0-8.533,3.821-8.533,8.533C179.2,209.513,183.021,213.333,187.733,213.333z"/>
		<path d="M290.133,196.267h-51.2c-4.713,0-8.533,3.821-8.533,8.533c0,4.713,3.821,8.533,8.533,8.533h51.2
			c4.713,0,8.533-3.821,8.533-8.533C298.667,200.087,294.846,196.267,290.133,196.267z"/>
	</g>
</g>
<g>
</g>
<g>
</g>
<g>
</g>
<g>
</g>
<g>
</g>
<g>
</g>
<g>
</g>
<g>
</g>
<g>
</g>
<g>
</g>
<g>
</g>
<g>
</g>
<g>
</g>
<g>
</g>
<g>
</g>
</svg>
