<?xml version="1.0" encoding="iso-8859-1"?>
<!-- Generator: Adobe Illustrator 19.0.0, SVG Export Plug-In . SVG Version: 6.00 Build 0)  -->
<svg version="1.1" id="Capa_1" xmlns="http://www.w3.org/2000/svg" xmlns:xlink="http://www.w3.org/1999/xlink" x="0px" y="0px"
	 viewBox="0 0 512 512" style="enable-background:new 0 0 512 512;" xml:space="preserve">
<g>
	<g transform="translate(1 1)">
		<path style="fill:#02A9F4;" d="M493.933,67.267H323.267c-4.707,0.014-8.52,3.826-8.533,8.533v59.733H195.267V75.8
			c-0.014-4.707-3.826-8.52-8.533-8.533H16.067c-4.707,0.014-8.52,3.826-8.533,8.533v290.133c0.014,4.707,3.826,8.52,8.533,8.533
			h128V434.2c0.011,4.708,3.825,8.522,8.533,8.533h204.8c4.708-0.011,8.522-3.825,8.533-8.533v-59.733h128
			c4.707-0.014,8.52-3.826,8.533-8.533V75.8C502.453,71.093,498.641,67.28,493.933,67.267z M314.733,374.467v-0.597l0.427,0.597
			H314.733z"/>
		<g>
			<path style="fill:#009688;" d="M442.733,67.267c0,16.043-17.067,24.064-34.133,32c-17.067,8.021-25.6,16.043-42.667,40.107
				c-17.067,23.979-51.2,8.021-51.2,8.021V75.8c0.014-4.707,3.826-8.52,8.533-8.533H442.733z"/>
			<path style="fill:#009688;" d="M476.867,289.389v76.544c-0.014,4.707-3.826,8.52-8.533,8.533h-102.4
				c0,0,59.733-8.533,68.267-51.2C438.894,299.544,459.544,291.693,476.867,289.389z"/>
		</g>
		<path style="fill:#00695C;" d="M314.733,135.533V203.8c-7.509,11.349-22.357,22.784-59.733,11.349
			c-37.376-11.349-59.733,22.784-59.733,22.784v-102.4H314.733z"/>
		<path style="fill:#009688;" d="M161.133,374.467H16.067c-4.707-0.014-8.52-3.826-8.533-8.533v-85.76c0,0,51.2-42.667,85.333,8.533
			S144.067,365.933,161.133,374.467z"/>
		<path style="fill:#0377BC;" d="M363.8,439.832c-1.606,1.857-3.945,2.917-6.4,2.901h-25.6c-51.2,0-68.267-34.133-85.333-68.267
			c-9.595-19.837-29.198-32.906-51.2-34.133v-102.4c0,0,22.357-34.133,59.733-22.784c37.376,11.435,52.224,0,59.733-11.349v170.667
			h0.427L363.8,439.832z"/>
		<path style="fill:#41767F;" d="M195.267,374.467L146.2,439.832c-1.382-1.549-2.142-3.556-2.133-5.632l0-59.733H195.267z"/>
		<path style="fill:#00695C;" d="M331.8,442.734l-179.2,0c-2.455,0.016-4.794-1.044-6.4-2.901l49.067-65.365v-34.133
			c22.002,1.228,41.605,14.296,51.2,34.133C263.533,408.6,280.6,442.733,331.8,442.734z"/>
		<path style="fill:#41767F;" d="M365.933,374.467l0,59.733c0.009,2.076-0.751,4.083-2.133,5.632l-48.64-65.365H365.933z"/>
		<path style="fill:#009688;" d="M195.267,75.8v145.067c0-17.067,0-42.667-59.733-68.267S101.4,67.267,101.4,67.267h85.333
			C191.441,67.28,195.253,71.093,195.267,75.8z"/>
		<path style="fill:#00695C;" d="M502.467,289.133v76.8c-0.014,4.707-3.826,8.52-8.533,8.533h-25.6
			c4.707-0.014,8.52-3.826,8.533-8.533v-76.544C485.354,288.213,493.957,288.127,502.467,289.133z"/>
		<path style="fill:#0377BC;" d="M502.467,75.8v213.333c-8.509-1.006-17.112-0.92-25.6,0.256V75.8
			c-0.014-4.707-3.826-8.52-8.533-8.533h25.6C498.641,67.28,502.453,71.093,502.467,75.8z"/>
	</g>
	<g>
		<path d="M494.933,59.733H324.267c-9.421,0.012-17.054,7.646-17.067,17.067V128H204.8V76.8
			c-0.012-9.421-7.646-17.054-17.067-17.067H17.067C7.646,59.746,0.012,67.379,0,76.8v290.133
			c0.012,9.421,7.646,17.054,17.067,17.067h119.467v51.2c0.012,9.421,7.646,17.054,17.067,17.067h204.8
			c9.421-0.012,17.054-7.646,17.067-17.067V384h119.467c9.421-0.012,17.054-7.646,17.067-17.067V76.8
			C511.988,67.379,504.354,59.746,494.933,59.733z M494.946,280.847c-24.708-0.877-61.11,6.732-68.112,41.744
			c-6.903,34.523-55.694,43.525-60.608,44.342h-41.958V160.252c4.906,1.19,9.935,1.804,14.983,1.832
			c13.637,0.596,26.657-5.713,34.642-16.783c16.283-22.933,23.642-29.9,39.333-37.267c15.669-7.349,33.084-15.566,37.781-31.233
			h43.927L494.946,280.847z M332.8,435.2c-45.925,0-60.65-29.45-77.7-63.55c-9.634-20.044-28.379-34.181-50.3-37.932v-91.992
			c11.014-15.396,30.433-22.33,48.708-17.392c22.481,6.867,40.371,6.549,53.692-0.557v151.691c0.049,0.381,0.125,0.757,0.227,1.127
			c0.033,0.16,0.052,0.313,0.096,0.471c0.347,1.912,1.353,3.641,2.844,4.887l39.606,53.247H332.8z M333.165,384H358.4v33.929
			L333.165,384z M324.267,76.8h107.421c-7.498,6.837-16.222,12.193-25.712,15.783c-18.567,8.708-28.025,17.517-46,42.833
			c-9.554,13.452-27.138,9.886-35.708,7.091V76.8z M307.2,145.067v57.073c-4.452,6.04-15.377,16.023-48.717,5.869
			c-18.462-5.65-38.52-1.891-53.683,10.061v-73.003H307.2z M187.733,176.092c-13.77-13.193-30.035-23.506-47.842-30.334
			c-42.075-18.032-35.52-55.26-31.429-68.958h79.271V176.092z M90.869,76.8c-1.971,8.19-2.752,16.621-2.319,25.033
			c1.117,18.95,9.758,44.667,44.625,59.608c54.558,23.383,54.558,44.792,54.558,60.425v145.067h-23.358
			c-14.31-8.318-31.24-33.671-61.117-78.492L100.967,285c-8.883-15.065-23.94-25.462-41.175-28.433
			c-14.829-1.593-29.782,1.539-42.725,8.949V76.8H90.869z M17.067,285.504c11.602-8.666,25.904-12.931,40.358-12.037
			c12.367,2.404,23.077,10.069,29.342,21l2.292,3.442c14.981,24.049,31.5,47.106,49.454,69.025H17.067V285.504z M179.19,384
			l-25.59,34.09V384H179.19z M162.1,435.2l40.992-54.608c0.391-0.822,0.782-1.643,1.173-2.465c0.171-0.547,0.284-1.11,0.337-1.68
			c0.087-0.322,0.153-0.649,0.198-0.98V351.13c15.339,3.594,28.223,13.947,35.033,28.153c9.992,19.978,20.819,41.457,39.296,55.917
			H162.1z M413.588,366.933c15.262-8.896,26.126-23.751,29.979-40.992c5.349-26.745,36.844-28.554,51.379-27.941l0.005,68.932
			H413.588z"/>
		<path d="M460.029,213.333c-3.659-21.441-20.455-38.237-41.896-41.896v-9.304c0-4.713-3.821-8.533-8.533-8.533
			c-4.713,0-8.533,3.821-8.533,8.533v9.304c-21.441,3.659-38.237,20.455-41.896,41.896h-9.304c-4.713,0-8.533,3.821-8.533,8.533
			c0,4.713,3.821,8.533,8.533,8.533h9.304c3.659,21.441,20.455,38.237,41.896,41.896v9.304c0,4.713,3.821,8.533,8.533,8.533
			c4.713,0,8.533-3.821,8.533-8.533v-9.304c21.441-3.659,38.237-20.455,41.896-41.896h9.304c4.713,0,8.533-3.821,8.533-8.533
			c0-4.713-3.821-8.533-8.533-8.533H460.029z M418.133,254.788v-7.322c0-4.713-3.821-8.533-8.533-8.533
			c-4.713,0-8.533,3.821-8.533,8.533v7.322c-11.947-3.111-21.277-12.441-24.388-24.388H384c4.713,0,8.533-3.821,8.533-8.533
			c0-4.713-3.82-8.533-8.533-8.533h-7.322c3.111-11.947,12.441-21.277,24.388-24.388v7.322c0,4.713,3.821,8.533,8.533,8.533
			c4.713,0,8.533-3.821,8.533-8.533v-7.322c11.947,3.111,21.277,12.441,24.388,24.388H435.2c-4.713,0-8.533,3.821-8.533,8.533
			c0,4.713,3.82,8.533,8.533,8.533h7.322C439.41,242.347,430.08,251.677,418.133,254.788z"/>
	</g>
</g>
<g>
</g>
<g>
</g>
<g>
</g>
<g>
</g>
<g>
</g>
<g>
</g>
<g>
</g>
<g>
</g>
<g>
</g>
<g>
</g>
<g>
</g>
<g>
</g>
<g>
</g>
<g>
</g>
<g>
</g>
</svg>
