<?xml version="1.0" encoding="iso-8859-1"?>
<!-- Generator: Adobe Illustrator 19.0.0, SVG Export Plug-In . SVG Version: 6.00 Build 0)  -->
<svg version="1.1" id="Capa_1" xmlns="http://www.w3.org/2000/svg" xmlns:xlink="http://www.w3.org/1999/xlink" x="0px" y="0px"
	 viewBox="0 0 512 512" style="enable-background:new 0 0 512 512;" xml:space="preserve">
<g>
	<g transform="translate(1 1)">
		<g>
			<path style="fill:#4CAF50;" d="M103.107,448.451l-14.165,14.08c-1.512,1.474-3.239,2.711-5.121,3.669
				c-7.353,3.521-16.124,2.053-21.93-3.669L47.469,448.11c-5.722-5.807-7.19-14.578-3.669-21.931
				c0.958-1.882,2.195-3.608,3.669-5.12l14.167-14.08L103.107,448.451z"/>
			<polygon style="fill:#4CAF50;" points="109.336,442.137 103.107,448.451 61.635,406.979 67.864,400.665 			"/>
			<polygon style="fill:#4CAF50;" points="261.912,220.526 242.029,240.409 220.525,261.913 192.877,234.265 234.264,192.878 			"/>
			<polygon style="fill:#4CAF50;" points="317.208,275.822 275.821,317.209 248.173,289.561 269.677,268.057 289.56,248.174 			"/>
		</g>
		<g>
			<path style="fill:#558B30;" d="M303.383,372.419L179.053,496.75c-7.651,7.595-19.997,7.595-27.648,0l-4.693-4.693L266.35,372.419
				c7.594-7.652,7.594-19.997,0-27.648l-36.693-36.693l-27.648-27.648l-69.121-69.12l4.693-4.693c7.651-7.594,19.997-7.594,27.648,0
				l27.648,27.648l27.648,27.648l82.859,82.859C310.979,352.422,310.979,364.768,303.383,372.419z"/>
			<path style="fill:#558B30;" d="M266.35,372.419L146.713,492.057l-85.077-85.077L13.25,358.595
				c-7.593-7.652-7.593-19.996,0-27.648L132.887,211.31l69.121,69.12l27.648,27.648l36.693,36.693
				C273.943,352.423,273.943,364.767,266.35,372.419z"/>
		</g>
		<path style="fill:#8BC34A;" d="M266.35,372.419L146.713,492.057l-85.077-85.077L13.25,358.595c-7.593-7.652-7.593-19.996,0-27.648
			L132.887,211.31l69.121,69.12l27.648,27.648l36.693,36.693C273.943,352.423,273.943,364.767,266.35,372.419z"/>
		<path style="fill:#4CAF50;" d="M463.93,87.491l-22.447,22.447l-41.442-41.442l22.447-22.447c6.665-6.665,17.471-6.665,24.136,0
			l17.306,17.306C470.595,70.02,470.595,80.826,463.93,87.491z"/>
		<g>
			<path style="fill:#558B30;" d="M496.75,179.054L372.419,303.385c-7.651,7.595-19.997,7.595-27.648,0l-6.059-6.059
				l118.271-118.272c7.596-7.651,7.596-19.997,0-27.648L324.887,19.31l6.059-6.059c7.651-7.595,19.997-7.595,27.648,0l48.384,48.384
				l41.471,41.472l48.3,48.299C504.344,159.058,504.344,171.402,496.75,179.054z"/>
			<g>
				<path id="SVGCleanerId_0" style="fill:#558B30;" d="M403.992,210.627c-28.889,28.889-75.728,28.888-104.617-0.001
					c-28.889-28.889-28.889-75.727,0-104.617c28.889-28.889,75.727-28.89,104.617-0.001c13.949,13.833,21.796,32.664,21.796,52.309
					S417.941,196.794,403.992,210.627z"/>
			</g>
		</g>
		<g>
			<path style="fill:#8BC34A;" d="M456.983,151.406L324.887,19.31L206.617,137.582c-7.596,7.651-7.596,19.997,0,27.648
				l55.296,55.296l27.648,27.648l27.648,27.648l21.504,21.504l118.271-118.272C464.579,171.403,464.579,159.057,456.983,151.406z
				 M403.992,210.627c-28.889,28.889-75.728,28.888-104.617-0.001c-28.889-28.889-28.889-75.727,0-104.617
				c28.889-28.889,75.727-28.89,104.617-0.001c13.949,13.833,21.796,32.664,21.796,52.309S417.941,196.794,403.992,210.627z"/>
			<g>
				<path id="SVGCleanerId_0_1_" style="fill:#8BC34A;" d="M403.992,210.627c-28.889,28.889-75.728,28.888-104.617-0.001
					c-28.889-28.889-28.889-75.727,0-104.617c28.889-28.889,75.727-28.89,104.617-0.001c13.949,13.833,21.796,32.664,21.796,52.309
					S417.941,196.794,403.992,210.627z"/>
			</g>
		</g>
		<path style="fill:#FFFFFF;" d="M228.802,360.217c-1.476,12.906-6.53,25.142-14.592,35.328c-3.482,4.506-7.525,8.55-12.031,12.032
			c-10.166,8.096-22.413,13.155-35.329,14.592c-5.663,0.768-11.404,0.768-17.067,0c-12.895-1.416-25.12-6.477-35.242-14.592
			c-2.301-1.711-4.469-3.593-6.485-5.632c-2.014-2.009-3.895-4.147-5.632-6.4c-8.096-10.166-13.154-22.412-14.593-35.328
			c-0.767-5.663-0.767-11.404,0-17.067c1.438-12.916,6.497-25.162,14.593-35.328c1.737-2.253,3.618-4.391,5.632-6.4
			c2.016-2.039,4.184-3.921,6.485-5.632c10.162-8.046,22.366-13.099,35.242-14.592c5.663-0.768,11.404-0.768,17.067,0
			c12.906,1.476,25.143,6.53,35.329,14.592c2.253,1.737,4.391,3.618,6.4,5.632c2.038,2.016,3.921,4.184,5.631,6.485
			c8.046,10.162,13.099,22.367,14.592,35.243C229.571,348.813,229.571,354.554,228.802,360.217z"/>
		<polygon style="fill:#F44335;" points="138.767,351.7 158.3,381.004 177.842,351.7 158.3,322.397 		"/>
		<g>
			<path id="SVGCleanerId_0_2_" style="fill:#CFD8DC;" d="M403.992,210.627c-28.889,28.889-75.728,28.888-104.617-0.001
				c-28.889-28.889-28.889-75.727,0-104.617c28.889-28.889,75.727-28.89,104.617-0.001c13.949,13.833,21.796,32.664,21.796,52.309
				S417.941,196.794,403.992,210.627z"/>
		</g>
		<path style="fill:#FFFFFF;" d="M378.392,210.627c-10.717,10.772-24.529,17.931-39.508,20.48
			c-14.98-2.549-28.792-9.708-39.51-20.48c-28.842-28.91-28.842-75.709,0-104.619c10.733-10.814,24.577-18.004,39.596-20.565
			c27.153,4.821,49.373,24.339,57.657,50.642C404.909,162.389,397.882,191.117,378.392,210.627z"/>
	</g>
	<g>
		<path d="M461.465,104.048L471,94.517c9.968-10.009,9.965-26.195-0.009-36.2l-17.308-17.304c-10.13-9.668-26.068-9.67-36.2-0.004
			l-9.529,9.524L365.642,8.217c-10.974-10.936-28.728-10.934-39.7,0.004L201.617,132.546c-10.942,10.97-10.942,28.726,0,39.696
			l21.594,21.594l-29.375,29.375l-21.594-21.593c-11.106-10.604-28.586-10.604-39.692,0L8.225,325.938
			C2.959,331.202,0,338.342,0,345.788c0,7.446,2.959,14.586,8.225,19.85l42.31,42.316L41,417.484
			c-9.968,10.009-9.965,26.195,0.009,36.2l17.308,17.304c4.8,4.801,11.31,7.499,18.099,7.5c6.789,0.001,13.3-2.696,18.101-7.496
			l9.529-9.524l42.313,42.316c10.975,10.935,28.727,10.933,39.7-0.004l124.325-124.325c10.942-10.97,10.942-28.726,0-39.696
			l-21.594-21.594l29.375-29.375l21.594,21.594c5.263,5.264,12.402,8.221,19.846,8.221c7.444,0,14.583-2.957,19.846-8.221
			l124.325-124.321c5.266-5.264,8.225-12.404,8.225-19.85c0-7.446-2.959-14.586-8.225-19.85L461.465,104.048z M429.558,53.076
			c3.375-3.22,8.685-3.218,12.058,0.004l17.3,17.3c3.332,3.333,3.335,8.734,0.009,12.071l-9.531,9.527l-29.373-29.376
			L429.558,53.076z M233.533,262.909l29.375-29.375l15.558,15.558l-29.375,29.375L233.533,262.909z M235.275,205.905l15.567,15.563
			l-29.375,29.375l-15.565-15.565L235.275,205.905z M82.442,458.926c-3.375,3.22-8.686,3.218-12.059-0.004l-17.3-17.3
			c-3.332-3.333-3.335-8.734-0.009-12.071l9.531-9.527L91.979,449.4L82.442,458.926z M298.317,367.388L173.992,491.709
			c-4.302,4.289-11.262,4.29-15.567,0.004l-48.333-48.338l-0.009-0.012l-41.441-41.442v-0.001l-48.35-48.354
			c-2.065-2.062-3.225-4.861-3.225-7.779c0-2.918,1.16-5.717,3.225-7.779l124.324-124.325c4.297-4.295,11.261-4.295,15.558,0
			l27.617,27.617l0.009,0.013l27.633,27.629l82.883,82.883C302.6,356.129,302.6,363.085,298.317,367.388z M276.725,306.096
			l-15.567-15.563l29.375-29.375l15.565,15.565L276.725,306.096z M491.709,173.992L367.383,298.317
			c-4.354,4.154-11.204,4.154-15.558,0l-27.617-27.617l-0.009-0.013l-27.633-27.629l-82.884-82.883
			c-4.283-4.303-4.283-11.259,0-15.563L338.008,20.292c4.3-4.293,11.264-4.295,15.567-0.004l48.333,48.338l0.009,0.012
			l41.442,41.442v0.001l48.35,48.354c2.065,2.062,3.225,4.861,3.225,7.779C494.933,169.132,493.773,171.93,491.709,173.992
			L491.709,173.992z"/>
		<path d="M159.544,273.116c-0.085-0.003-0.157-0.049-0.243-0.049c-0.086,0-0.158,0.046-0.244,0.049
			c-43.793,0.069-79.275,35.558-79.335,79.351c-0.002,0.081-0.046,0.148-0.046,0.23s0.044,0.149,0.046,0.23
			c0.058,43.795,35.541,79.286,79.335,79.355c0.085,0.003,0.157,0.049,0.244,0.049s0.158-0.046,0.244-0.049
			c43.888-0.091,79.418-35.694,79.418-79.582S203.432,273.207,159.544,273.116L159.544,273.116z M217.908,361.23h3.314
			c-1.433,10.624-5.604,20.693-12.103,29.219l-0.694-0.694c-3.34-3.3-8.718-3.283-12.036,0.038
			c-3.319,3.321-3.332,8.699-0.03,12.036l0.69,0.689c-8.525,6.497-18.592,10.667-29.214,12.1v-0.98c0-4.713-3.82-8.533-8.533-8.533
			c-4.713,0-8.533,3.82-8.533,8.533v0.98c-10.622-1.433-20.69-5.602-29.215-12.099l0.69-0.689c3.306-3.337,3.294-8.718-0.026-12.04
			c-3.32-3.323-8.701-3.338-12.04-0.034l-0.687,0.687c-6.47-8.536-10.627-18.598-12.067-29.212h0.938
			c4.713,0,8.533-3.82,8.533-8.533s-3.82-8.533-8.533-8.533h-0.938c1.439-10.613,5.596-20.674,12.067-29.208l0.687,0.688
			c3.339,3.304,8.72,3.288,12.04-0.034c3.32-3.322,3.332-8.703,0.026-12.04l-0.69-0.689c8.525-6.497,18.592-10.667,29.215-12.1v0.98
			c0,4.713,3.82,8.533,8.533,8.533c4.713,0,8.533-3.821,8.533-8.533v-0.98c10.622,1.433,20.69,5.602,29.215,12.099l-0.69,0.689
			c-3.302,3.338-3.289,8.715,0.03,12.036s8.697,3.338,12.036,0.038l0.694-0.694c6.499,8.524,10.669,18.592,12.102,29.215h-3.313
			c-4.713,0-8.533,3.82-8.533,8.533S213.196,361.229,217.908,361.23L217.908,361.23z"/>
		<path d="M166.4,318.663c-1.672-2.242-4.304-3.563-7.1-3.563s-5.428,1.321-7.1,3.563l-19.533,29.3c-1.908,2.867-1.908,6.6,0,9.467
			l19.533,29.304c1.583,2.374,4.247,3.8,7.1,3.8s5.517-1.426,7.1-3.8l19.541-29.304c1.908-2.867,1.908-6.6,0-9.467L166.4,318.663z
			 M159.3,366.617l-9.275-13.921l9.275-13.917l9.283,13.917L159.3,366.617z"/>
		<path d="M352.7,76.801c-39.364-0.004-73.25,27.799-80.933,66.406c-7.683,38.607,12.977,77.265,49.344,92.331
			c36.367,15.066,78.312,2.344,100.183-30.386s17.575-76.351-10.26-104.186C395.597,85.444,374.591,76.743,352.7,76.801z
			 M398.966,205.571c-22.073,22.071-56.663,25.476-82.617,8.133c-25.953-17.343-36.042-50.604-24.096-79.442
			s42.599-45.222,73.214-39.133s52.665,32.957,52.666,64.172C418.181,176.665,411.279,193.327,398.966,205.571L398.966,205.571z"/>
	</g>
</g>
<g>
</g>
<g>
</g>
<g>
</g>
<g>
</g>
<g>
</g>
<g>
</g>
<g>
</g>
<g>
</g>
<g>
</g>
<g>
</g>
<g>
</g>
<g>
</g>
<g>
</g>
<g>
</g>
<g>
</g>
</svg>
