<?xml version="1.0" encoding="iso-8859-1"?>
<!-- Generator: Adobe Illustrator 19.0.0, SVG Export Plug-In . SVG Version: 6.00 Build 0)  -->
<svg version="1.1" id="Capa_1" xmlns="http://www.w3.org/2000/svg" xmlns:xlink="http://www.w3.org/1999/xlink" x="0px" y="0px"
	 viewBox="0 0 512 512" style="enable-background:new 0 0 512 512;" xml:space="preserve">
<g>
	<g transform="translate(1 1)">
		<path style="fill:#2E7D32;" d="M374.467,24.941v340.992c-0.019,4.182-1.498,8.227-4.181,11.435l-102.4,119.125
			c-3.197,3.767-7.882,5.946-12.823,5.962c-4.941,0.016-9.641-2.131-12.862-5.877l-0.085-0.085l-4.181-4.864l-98.219-114.261
			c-2.683-3.208-4.162-7.252-4.181-11.435V24.941c-0.09-9.518,7.549-17.309,17.067-17.408h204.8
			C366.918,7.632,374.556,15.423,374.467,24.941z"/>
		<path style="fill:#4CAF50;" d="M340.333,24.941v340.992c-0.019,4.182-1.498,8.227-4.181,11.435l-98.219,114.261l-98.219-114.261
			c-2.683-3.208-4.162-7.252-4.181-11.435V24.941c-0.09-9.518,7.549-17.309,17.067-17.408h170.667
			C332.785,7.632,340.423,15.423,340.333,24.941z"/>
		<g>
			<rect x="135.533" y="41.667" style="fill:#FF9801;" width="230.4" height="34.133"/>
			<rect x="135.533" y="109.933" style="fill:#FF9801;" width="230.4" height="34.133"/>
			<rect x="135.533" y="178.2" style="fill:#FF9801;" width="230.4" height="34.133"/>
		</g>
		<g>
			<rect x="135.533" y="41.667" style="fill:#FEC108;" width="204.8" height="34.133"/>
			<rect x="135.533" y="109.933" style="fill:#FEC108;" width="204.8" height="34.133"/>
			<rect x="135.533" y="178.2" style="fill:#FEC108;" width="204.8" height="34.133"/>
			<polygon style="fill:#FEC108;" points="255,246.467 270.821,280.173 306.2,285.583 280.6,311.815 286.642,348.867 255,331.373 
				223.358,348.867 229.4,311.815 203.8,285.583 239.179,280.173 			"/>
			<circle style="fill:#FEC108;" cx="255" cy="417.133" r="25.6"/>
		</g>
	</g>
	<g>
		<path d="M236.683,503.096C241.51,508.746,248.569,512,256,512c7.431,0,14.49-3.254,19.317-8.904l102.4-119.158
			c4.058-4.737,6.287-10.771,6.283-17.008V25.912C384.07,11.694,372.618,0.103,358.4,0H153.6
			c-14.218,0.103-25.67,11.694-25.6,25.912v341.017c-0.004,6.238,2.225,12.271,6.283,17.008L236.683,503.096z M145.067,51.2h221.867
			v17.067H145.067V51.2z M366.933,204.8H145.067v-17.067h221.867V204.8z M145.067,170.667V153.6h221.867v17.067H145.067z
			 M145.067,119.467h221.867v17.067H145.067V119.467z M366.933,85.333V102.4H145.067V85.333H366.933z M364.767,372.813
			l-102.4,119.158c-1.613,1.824-3.931,2.869-6.367,2.869c-2.435,0-4.753-1.045-6.367-2.869l-102.4-119.158
			c-1.405-1.638-2.174-3.726-2.167-5.884l0-145.063h221.867l0,145.063C366.94,369.087,366.171,371.175,364.767,372.813z
			 M153.6,17.067h204.8c4.797,0.092,8.614,4.049,8.533,8.846l0.001,8.221H145.065l0.001-8.221
			C144.986,21.115,148.803,17.158,153.6,17.067z"/>
		<path d="M308.492,278.142l-30.875-4.717l-13.892-29.583c-1.406-2.995-4.416-4.908-7.725-4.908c-3.309,0-6.319,1.913-7.725,4.908
			l-13.892,29.583l-30.875,4.717c-3.161,0.485-5.785,2.696-6.8,5.729c-1.015,3.032-0.249,6.378,1.983,8.667l22.592,23.154
			l-5.35,32.8c-0.526,3.225,0.836,6.467,3.507,8.349c2.671,1.882,6.183,2.073,9.042,0.493L256,342.125l27.517,15.208
			c2.86,1.581,6.371,1.389,9.043-0.493c2.671-1.882,4.033-5.124,3.507-8.349l-5.35-32.8l22.592-23.154
			c2.232-2.29,2.998-5.635,1.983-8.667C314.276,280.838,311.652,278.627,308.492,278.142L308.492,278.142z M275.492,306.859
			c-1.891,1.939-2.751,4.66-2.317,7.333l3.217,19.704l-16.267-8.988c-2.566-1.422-5.684-1.422-8.25,0l-16.267,8.987l3.217-19.704
			c0.434-2.673-0.425-5.395-2.317-7.333l-14-14.35l18.958-2.896c2.812-0.432,5.225-2.237,6.433-4.813l8.1-17.254l8.1,17.254
			c1.209,2.576,3.621,4.38,6.433,4.813l18.958,2.896L275.492,306.859z"/>
		<path d="M256,384c-18.851,0-34.133,15.282-34.133,34.133c0,18.851,15.282,34.133,34.133,34.133s34.133-15.282,34.133-34.133
			C290.113,399.29,274.843,384.02,256,384z M256,435.2c-9.426,0-17.067-7.641-17.067-17.067s7.641-17.067,17.067-17.067
			c9.426,0,17.067,7.641,17.067,17.067C273.056,427.555,265.421,435.189,256,435.2z"/>
	</g>
</g>
<g>
</g>
<g>
</g>
<g>
</g>
<g>
</g>
<g>
</g>
<g>
</g>
<g>
</g>
<g>
</g>
<g>
</g>
<g>
</g>
<g>
</g>
<g>
</g>
<g>
</g>
<g>
</g>
<g>
</g>
</svg>
