<?xml version="1.0" encoding="iso-8859-1"?>
<!-- Generator: Adobe Illustrator 19.0.0, SVG Export Plug-In . SVG Version: 6.00 Build 0)  -->
<svg version="1.1" id="Capa_1" xmlns="http://www.w3.org/2000/svg" xmlns:xlink="http://www.w3.org/1999/xlink" x="0px" y="0px"
	 viewBox="0 0 512 512" style="enable-background:new 0 0 512 512;" xml:space="preserve">
<g>
	<g transform="translate(1 5)">
		<path style="fill:#CFD8DC;" d="M391.533,447.267h85.333v42.667c0,4.713-3.821,8.533-8.533,8.533h-68.267
			c-4.713,0-8.533-3.821-8.533-8.533V447.267z"/>
		<path style="fill:#37474F;" d="M203.8,251h281.6c9.426,0,17.067,7.641,17.067,17.067v179.2c0,9.426-7.641,17.067-17.067,17.067
			H203.8V251z"/>
		<path style="fill:#607D8B;" d="M178.2,251h281.6c9.426,0,17.067,7.641,17.067,17.067v179.2c0,9.426-7.641,17.067-17.067,17.067
			H178.2V251z"/>
		<g>
			<circle style="fill:#CFD8DC;" cx="447" cy="306.467" r="21.333"/>
			<circle style="fill:#CFD8DC;" cx="447" cy="408.867" r="21.333"/>
		</g>
		<path style="fill:#02A9F4;" d="M229.4,293.667h42.667c4.713,0,8.533,3.82,8.533,8.533v51.2c0,4.713-3.82,8.533-8.533,8.533H229.4
			V293.667z"/>
		<g>
			<path style="fill:#8BC34A;" d="M92.867,131.533c9.426,0,17.067,7.641,17.067,17.067v42.667H75.8V148.6
				C75.8,139.174,83.441,131.533,92.867,131.533z"/>
			<path style="fill:#8BC34A;" d="M178.2,37.667c9.426,0,17.067,7.641,17.067,17.067v136.533h-34.133V54.733
				C161.133,45.308,168.774,37.667,178.2,37.667z"/>
		</g>
		<path style="fill:#558B30;" d="M67.267,302.2V379H33.133c-4.707-0.014-8.519-3.826-8.533-8.533v-59.733
			c0.014-4.707,3.826-8.519,8.533-8.533H67.267z"/>
		<path style="fill:#2E7D32;" d="M229.4,191.267V481.4c-0.028,9.414-7.653,17.039-17.067,17.067H75.8
			c-9.414-0.028-17.039-7.653-17.067-17.067V287.949c-0.017-1.844-0.614-3.635-1.707-5.12L9.24,219.171
			c-1.093-1.485-1.69-3.276-1.707-5.12v-31.317c0.014-4.707,3.826-8.519,8.533-8.533h196.267
			C221.748,174.228,229.373,181.852,229.4,191.267z"/>
		<path style="fill:#4CAF50;" d="M203.8,191.267V481.4c-0.028,9.414-7.653,17.039-17.067,17.067H75.8
			c-9.414-0.028-17.039-7.653-17.067-17.067V379h-25.6v-76.8h25.6v-14.251c-0.017-1.844-0.614-3.635-1.707-5.12L9.24,219.171
			c-1.093-1.485-1.69-3.276-1.707-5.12v-31.317c0.014-4.707,3.826-8.519,8.533-8.533h170.667
			C196.15,174.222,203.778,181.85,203.8,191.267z"/>
		<path style="fill:#02A9F4;" d="M101.4,285.133h85.333c4.713,0,8.533,3.82,8.533,8.533V327.8c0,4.713-3.821,8.533-8.533,8.533
			H101.4c-4.713,0-8.533-3.82-8.533-8.533v-34.133C92.867,288.954,96.687,285.133,101.4,285.133z"/>
		<path style="fill:#8BC34A;" d="M229.4,421.667V481.4c-0.028,9.414-7.653,17.039-17.067,17.067H75.8
			c-9.414-0.028-17.039-7.653-17.067-17.067v-59.733H229.4z"/>
	</g>
	<g>
		<path d="M102.4,349.867h85.333c9.422-0.009,17.057-7.645,17.067-17.067v-34.133c-0.009-9.422-7.645-17.057-17.067-17.067H102.4
			c-9.422,0.009-17.057,7.645-17.067,17.067V332.8C85.343,342.222,92.978,349.857,102.4,349.867z M102.4,298.667h85.333
			l0.012,34.133H102.4V298.667z"/>
		<path d="M93.867,375.467h17.067c4.713,0,8.533-3.82,8.533-8.533s-3.821-8.533-8.533-8.533H93.867c-4.713,0-8.533,3.82-8.533,8.533
			S89.154,375.467,93.867,375.467z"/>
		<path d="M93.867,401.067h17.067c4.713,0,8.533-3.82,8.533-8.533S115.646,384,110.933,384H93.867c-4.713,0-8.533,3.82-8.533,8.533
			S89.154,401.067,93.867,401.067z"/>
		<path d="M153.6,358.4h-17.067c-4.713,0-8.533,3.82-8.533,8.533s3.821,8.533,8.533,8.533H153.6c4.713,0,8.533-3.82,8.533-8.533
			S158.313,358.4,153.6,358.4z"/>
		<path d="M153.6,384h-17.067c-4.713,0-8.533,3.82-8.533,8.533s3.821,8.533,8.533,8.533H153.6c4.713,0,8.533-3.82,8.533-8.533
			S158.313,384,153.6,384z"/>
		<path d="M196.267,358.4H179.2c-4.713,0-8.533,3.82-8.533,8.533s3.821,8.533,8.533,8.533h17.067c4.713,0,8.533-3.82,8.533-8.533
			S200.98,358.4,196.267,358.4z"/>
		<path d="M196.267,384H179.2c-4.713,0-8.533,3.82-8.533,8.533s3.821,8.533,8.533,8.533h17.067c4.713,0,8.533-3.82,8.533-8.533
			S200.98,384,196.267,384z"/>
		<path d="M76.809,256c3.231-0.004,6.182-1.831,7.625-4.722c1.443-2.891,1.13-6.348-0.809-8.932l-25.6-34.133
			c-2.828-3.769-8.176-4.532-11.946-1.704c-3.769,2.828-4.532,8.176-1.704,11.946l25.6,34.133
			C71.587,254.739,74.12,256.004,76.809,256z"/>
		<path d="M112.642,252.588c2.828,3.769,8.176,4.532,11.946,1.704c3.769-2.828,4.532-8.176,1.704-11.946l-25.6-34.133
			c-2.828-3.769-8.176-4.532-11.946-1.704c-3.769,2.828-4.532,8.176-1.704,11.946L112.642,252.588z"/>
		<path d="M155.308,252.588c2.828,3.769,8.176,4.532,11.946,1.704s4.532-8.176,1.704-11.946l-25.6-34.133
			c-1.83-2.438-4.821-3.715-7.847-3.35s-5.628,2.317-6.825,5.121c-1.197,2.804-0.807,6.033,1.022,8.471L155.308,252.588z"/>
		<path d="M197.975,252.588c2.828,3.769,8.176,4.532,11.946,1.704c3.769-2.828,4.532-8.176,1.704-11.946l-25.6-34.133
			c-2.828-3.769-8.176-4.532-11.946-1.704c-3.769,2.828-4.532,8.176-1.704,11.946L197.975,252.588z"/>
		<path d="M486.4,247.467H238.933v-51.2c-0.015-14.132-11.468-25.585-25.6-25.6H204.8V59.733
			c-0.033-10.813-6.868-20.435-17.067-24.028V8.533c0-4.713-3.82-8.533-8.533-8.533s-8.533,3.821-8.533,8.533v27.172
			c-10.199,3.592-17.033,13.214-17.067,24.028v110.933h-34.133V153.6c-0.033-10.813-6.868-20.435-17.067-24.028v-10.106
			c0-4.713-3.821-8.533-8.533-8.533c-4.713,0-8.533,3.821-8.533,8.533v10.106C75.134,133.165,68.3,142.787,68.267,153.6v17.067
			h-51.2C7.645,170.676,0.009,178.312,0,187.733v31.287c0.005,3.693,1.204,7.285,3.417,10.242L51.2,292.979v5.687H34.133
			c-9.422,0.009-17.057,7.645-17.067,17.067v59.733c0.009,9.422,7.645,17.057,17.067,17.067H51.2V486.4
			c0.015,14.132,11.468,25.585,25.6,25.6h136.533c14.132-0.015,25.585-11.468,25.6-25.6v-8.533H384v17.067
			c0.009,9.422,7.645,17.057,17.067,17.067h68.267c9.422-0.009,17.057-7.645,17.067-17.067v-17.067
			c14.132-0.015,25.585-11.468,25.6-25.6v-179.2C511.985,258.935,500.532,247.482,486.4,247.467z M238.933,307.2h34.133l0.012,51.2
			h-34.146V307.2z M170.667,59.733c0-4.713,3.821-8.533,8.533-8.533s8.533,3.821,8.533,8.533v110.933h-17.067V59.733z M85.333,153.6
			c0-4.713,3.821-8.533,8.533-8.533c4.713,0,8.533,3.82,8.533,8.533v17.067H85.333V153.6z M17.067,219.021v-31.287h196.267
			c4.71,0.006,8.527,3.823,8.533,8.533v221.867h-153.6V292.979c-0.005-3.693-1.204-7.285-3.417-10.242L17.067,219.021z
			 M34.133,375.467v-59.733H51.2v59.733H34.133z M221.867,486.4c-0.006,4.71-3.823,8.527-8.533,8.533H76.8
			c-4.71-0.006-8.527-3.823-8.533-8.533v-51.2h153.6V486.4z M469.346,494.933h-68.279v-17.067h68.271L469.346,494.933z
			 M494.933,452.267c-0.006,4.71-3.823,8.527-8.533,8.533H238.933v-17.067c4.713,0,8.533-3.821,8.533-8.533
			s-3.821-8.533-8.533-8.533V409.6c4.713,0,8.533-3.821,8.533-8.533s-3.821-8.533-8.533-8.533v-17.067h34.133
			c9.422-0.009,17.057-7.645,17.067-17.067v-51.2c-0.009-9.422-7.645-17.057-17.067-17.067h-34.133v-25.6H486.4
			c4.71,0.006,8.527,3.823,8.533,8.533V452.267z"/>
		<path d="M448,281.6c-16.495,0-29.867,13.372-29.867,29.867c0,16.495,13.372,29.867,29.867,29.867
			c16.495,0,29.867-13.372,29.867-29.867C477.847,294.98,464.487,281.62,448,281.6z M448,324.267c-7.069,0-12.8-5.731-12.8-12.8
			s5.731-12.8,12.8-12.8s12.8,5.731,12.8,12.8C460.792,318.533,455.066,324.259,448,324.267z"/>
		<path d="M448,384c-16.495,0-29.867,13.372-29.867,29.867c0,16.495,13.372,29.867,29.867,29.867
			c16.495,0,29.867-13.372,29.867-29.867C477.847,397.38,464.487,384.02,448,384z M448,426.667c-7.069,0-12.8-5.731-12.8-12.8
			c0-7.069,5.731-12.8,12.8-12.8s12.8,5.731,12.8,12.8C460.792,420.933,455.066,426.659,448,426.667z"/>
		<path d="M392.533,290.133H384c-4.713,0-8.533,3.82-8.533,8.533s3.821,8.533,8.533,8.533h8.533c4.713,0,8.533-3.82,8.533-8.533
			S397.246,290.133,392.533,290.133z"/>
		<path d="M392.533,324.267H384c-4.713,0-8.533,3.82-8.533,8.533s3.821,8.533,8.533,8.533h8.533c4.713,0,8.533-3.82,8.533-8.533
			S397.246,324.267,392.533,324.267z"/>
		<path d="M392.533,358.4H384c-4.713,0-8.533,3.82-8.533,8.533s3.821,8.533,8.533,8.533h8.533c4.713,0,8.533-3.82,8.533-8.533
			S397.246,358.4,392.533,358.4z"/>
		<path d="M392.533,392.533H384c-4.713,0-8.533,3.82-8.533,8.533s3.821,8.533,8.533,8.533h8.533c4.713,0,8.533-3.821,8.533-8.533
			S397.246,392.533,392.533,392.533z"/>
		<path d="M392.533,426.667H384c-4.713,0-8.533,3.82-8.533,8.533s3.821,8.533,8.533,8.533h8.533c4.713,0,8.533-3.821,8.533-8.533
			S397.246,426.667,392.533,426.667z"/>
		<path d="M358.4,290.133h-8.533c-4.713,0-8.533,3.82-8.533,8.533s3.821,8.533,8.533,8.533h8.533c4.713,0,8.533-3.82,8.533-8.533
			S363.113,290.133,358.4,290.133z"/>
		<path d="M358.4,324.267h-8.533c-4.713,0-8.533,3.82-8.533,8.533s3.821,8.533,8.533,8.533h8.533c4.713,0,8.533-3.82,8.533-8.533
			S363.113,324.267,358.4,324.267z"/>
		<path d="M358.4,358.4h-8.533c-4.713,0-8.533,3.82-8.533,8.533s3.821,8.533,8.533,8.533h8.533c4.713,0,8.533-3.82,8.533-8.533
			S363.113,358.4,358.4,358.4z"/>
		<path d="M358.4,392.533h-8.533c-4.713,0-8.533,3.82-8.533,8.533s3.821,8.533,8.533,8.533h8.533c4.713,0,8.533-3.821,8.533-8.533
			S363.113,392.533,358.4,392.533z"/>
		<path d="M358.4,426.667h-8.533c-4.713,0-8.533,3.82-8.533,8.533s3.821,8.533,8.533,8.533h8.533c4.713,0,8.533-3.821,8.533-8.533
			S363.113,426.667,358.4,426.667z"/>
		<path d="M324.267,290.133h-8.533c-4.713,0-8.533,3.82-8.533,8.533s3.821,8.533,8.533,8.533h8.533c4.713,0,8.533-3.82,8.533-8.533
			S328.98,290.133,324.267,290.133z"/>
		<path d="M324.267,324.267h-8.533c-4.713,0-8.533,3.82-8.533,8.533s3.821,8.533,8.533,8.533h8.533c4.713,0,8.533-3.82,8.533-8.533
			S328.98,324.267,324.267,324.267z"/>
		<path d="M324.267,358.4h-8.533c-4.713,0-8.533,3.82-8.533,8.533s3.821,8.533,8.533,8.533h8.533c4.713,0,8.533-3.82,8.533-8.533
			S328.98,358.4,324.267,358.4z"/>
		<path d="M324.267,392.533h-8.533c-4.713,0-8.533,3.82-8.533,8.533s3.821,8.533,8.533,8.533h8.533c4.713,0,8.533-3.821,8.533-8.533
			S328.98,392.533,324.267,392.533z"/>
		<path d="M324.267,426.667h-8.533c-4.713,0-8.533,3.82-8.533,8.533s3.821,8.533,8.533,8.533h8.533c4.713,0,8.533-3.821,8.533-8.533
			S328.98,426.667,324.267,426.667z"/>
		<path d="M281.6,392.533h-8.533c-4.713,0-8.533,3.82-8.533,8.533s3.82,8.533,8.533,8.533h8.533c4.713,0,8.533-3.821,8.533-8.533
			S286.313,392.533,281.6,392.533z"/>
		<path d="M281.6,426.667h-8.533c-4.713,0-8.533,3.82-8.533,8.533s3.82,8.533,8.533,8.533h8.533c4.713,0,8.533-3.821,8.533-8.533
			S286.313,426.667,281.6,426.667z"/>
	</g>
</g>
<g>
</g>
<g>
</g>
<g>
</g>
<g>
</g>
<g>
</g>
<g>
</g>
<g>
</g>
<g>
</g>
<g>
</g>
<g>
</g>
<g>
</g>
<g>
</g>
<g>
</g>
<g>
</g>
<g>
</g>
</svg>
