<?xml version="1.0" encoding="iso-8859-1"?>
<!-- Generator: Adobe Illustrator 19.0.0, SVG Export Plug-In . SVG Version: 6.00 Build 0)  -->
<svg version="1.1" id="Capa_1" xmlns="http://www.w3.org/2000/svg" xmlns:xlink="http://www.w3.org/1999/xlink" x="0px" y="0px"
	 viewBox="0 0 512 512" style="enable-background:new 0 0 512 512;" xml:space="preserve">
<g>
	<g transform="translate(1 1)">
		<path style="fill:#2E7D32;" d="M459.8,212.333c0-21.504-24.235-39.339-55.637-41.984C386.232,84.789,315.968,20.043,229.229,9.155
			c8.546-1.1,17.154-1.642,25.771-1.621C368.096,7.562,459.771,99.238,459.8,212.333z"/>
		<path style="fill:#4CAF50;" d="M404.163,170.349c-2.776-0.314-5.569-0.457-8.363-0.427c-8.66-0.024-17.28,1.183-25.6,3.584
			c-21.675,6.229-37.035,20.224-38.315,36.608c-0.069,0.737-0.098,1.478-0.085,2.219c-0.263-14.353-6.475-27.951-17.152-37.547
			c-16.314-14.751-37.66-22.69-59.648-22.187c-8.627-0.04-17.217,1.138-25.515,3.499c-28.672,7.765-49.579,28.501-51.2,53.163
			c-0.085,1.024-0.085,2.048-0.085,3.072c0-16.299-13.909-30.464-34.304-37.547c-9.56-3.258-19.596-4.901-29.696-4.864
			c-8.682-0.015-17.324,1.162-25.685,3.499c-11.757,3.085-22.349,9.553-30.464,18.603c-4.331,5.024-7.039,11.242-7.765,17.835
			c0.092-8.454,0.748-16.892,1.963-25.259c0.683-4.864,1.451-9.643,2.475-14.336C72.583,84.842,142.656,20.149,229.229,9.155
			C315.968,20.043,386.232,84.789,404.163,170.349z"/>
		<path style="fill:#4E342E;" d="M306.2,383H203.8c-4.707,0.014-8.519,3.826-8.533,8.533v102.4c0.014,4.707,3.826,8.519,8.533,8.533
			h102.4c4.707-0.014,8.519-3.826,8.533-8.533v-102.4C314.719,386.826,310.907,383.014,306.2,383z"/>
		<rect x="195.267" y="417.133" style="fill:#795548;" width="119.467" height="51.2"/>
		<polygon style="fill:#59474E;" points="314.733,417.133 314.733,426.435 216.941,468.333 195.267,468.333 195.267,459.032 
			293.059,417.133 		"/>
	</g>
	<path d="M468.109,217.476c0.22-0.321,0.418-0.656,0.591-1.005c0.408-0.996,0.623-2.061,0.634-3.138C469.333,95.513,373.821,0,256,0
		S42.667,95.513,42.667,213.333c0.01,1.077,0.226,2.141,0.634,3.138c0.173,0.348,0.37,0.684,0.591,1.005
		c0.23,0.497,0.508,0.969,0.83,1.412l144.038,168.031c-0.658,1.8-1.005,3.699-1.025,5.615v102.4
		c0.009,9.422,7.645,17.057,17.067,17.067h102.4c9.422-0.009,17.057-7.645,17.067-17.067v-102.4
		c-0.02-1.916-0.367-3.815-1.025-5.615l144.038-168.031C467.601,218.445,467.879,217.972,468.109,217.476z M256,17.067
		c94.573,0.133,175.643,67.599,192.955,160.574c-15.389-10.357-33.611-15.686-52.155-15.253
		c-23.235-0.919-45.783,7.983-62.125,24.525C321.74,162.354,291.35,145.067,256,145.067c-35.309,0-65.702,17.18-78.636,41.762
		c-16.292-16.633-38.907-25.524-62.164-24.441c-18.598-0.344-36.843,5.099-52.212,15.577C80.164,84.838,161.303,17.2,256,17.067z
		 M307.196,392.533l0.004,0.003l0.002,17.064H204.8v-17.066v-0.001H307.196z M204.8,426.667h69.358L204.8,456.393V426.667z
		 M307.205,431.071l0.004,29.729h-69.367L307.205,431.071z M301.009,375.467h-90.018l-23.257-162.742c0-0.6,0.009-1.217,0.067-1.908
		c1.771-27.3,31.729-48.683,68.2-48.683c37.459,0,67.945,22.75,68.24,50.795L301.009,375.467z M115.2,179.454
		c30.067,0,55.467,15.517,55.467,33.879c0,0.404,0.029,0.808,0.087,1.208l21.466,150.19L59.942,210.417
		C62.417,193.225,86.75,179.454,115.2,179.454z M204.8,494.933v-17.067h102.41l0.002,17.067H204.8z M319.783,364.729l21.463-150.188
		c0.058-0.4,0.087-0.804,0.087-1.208c-0.013-0.523,0.007-1.046,0.058-1.567c1.362-17.817,26.217-32.312,55.408-32.312
		c28.462,0,52.746,13.908,55.254,30.971L319.783,364.729z"/>
</g>
<g>
</g>
<g>
</g>
<g>
</g>
<g>
</g>
<g>
</g>
<g>
</g>
<g>
</g>
<g>
</g>
<g>
</g>
<g>
</g>
<g>
</g>
<g>
</g>
<g>
</g>
<g>
</g>
<g>
</g>
</svg>
