<?xml version="1.0" encoding="iso-8859-1"?>
<!-- Generator: Adobe Illustrator 19.0.0, SVG Export Plug-In . SVG Version: 6.00 Build 0)  -->
<svg version="1.1" id="Capa_1" xmlns="http://www.w3.org/2000/svg" xmlns:xlink="http://www.w3.org/1999/xlink" x="0px" y="0px"
	 viewBox="0 0 511.984 511.984" style="enable-background:new 0 0 511.984 511.984;" xml:space="preserve">
<g>
	<g transform="translate(1 1)">
		<path style="fill:#37474F;" d="M340.325,178.184v238.933c-0.017,47.121-38.212,85.316-85.333,85.333
			c-4.231,0.005-8.455-0.337-12.629-1.024h-0.085c-0.085,0.085-0.085,0.085-0.256,0c-41.616-6.405-72.342-42.204-72.363-84.309
			V178.184l32-42.667l-1.28-3.413l-5.12-13.653h119.467l-5.12,13.653l-1.28,3.413L340.325,178.184z"/>
		<path style="fill:#607D8B;" d="M314.725,178.184v238.933c-0.021,42.106-30.747,77.904-72.363,84.309h-0.085
			c-0.085,0.085-0.085,0.085-0.256,0c-41.616-6.405-72.342-42.204-72.363-84.309V178.184l32-42.667l-1.28-3.413l-13.653-13.653
			h102.4l-5.12,13.653l-1.28,3.413L314.725,178.184z"/>
		<rect x="169.659" y="220.85" style="fill:#CFD8DC;" width="170.667" height="170.667"/>
		<rect x="169.659" y="220.85" style="fill:#FFFFFF;" width="145.067" height="170.667"/>
		<polygon style="fill:#FFB301;" points="254.992,254.984 270.813,285.883 306.192,290.841 280.592,314.888 286.633,348.85 
			254.992,332.816 223.35,348.85 229.392,314.888 203.792,290.841 239.171,285.883 		"/>
		<polygon style="fill:#37474F;" points="348.859,7.517 348.859,92.85 306.192,135.517 280.592,135.517 323.259,92.85 
			323.259,33.117 		"/>
		<g>
			<polygon style="fill:#607D8B;" points="323.259,33.117 323.259,92.85 280.592,135.517 203.792,135.517 161.125,92.85 
				161.125,7.517 203.792,50.184 306.192,50.184 			"/>
			<polygon style="fill:#607D8B;" points="203.792,135.517 201.659,135.517 200.379,132.104 			"/>
		</g>
	</g>
	<g>
		<path d="M192.307,136.099l-28.473,37.964c-0.159,0.287-0.3,0.583-0.423,0.887c-0.626,0.982-1,2.103-1.09,3.265
			c-0.085,0.319-0.151,0.642-0.196,0.969v238.933c0,51.841,42.026,93.867,93.867,93.867s93.867-42.026,93.867-93.867V179.184
			c-0.045-0.326-0.11-0.649-0.195-0.967c-0.089-1.162-0.464-2.284-1.09-3.266c-0.123-0.304-0.264-0.601-0.423-0.888l-28.473-37.964
			l36.215-36.215c1.6-1.6,2.499-3.77,2.5-6.033V8.517c-0.011-3.447-2.092-6.549-5.276-7.867c-3.185-1.318-6.849-0.594-9.293,1.836
			L303.659,42.65h-95.333L168.161,2.486c-2.444-2.43-6.108-3.153-9.292-1.835s-5.265,4.42-5.277,7.866V93.85
			c0.001,2.263,0.9,4.433,2.5,6.033L192.307,136.099z M255.992,145.05h49.067l19.201,25.6H187.725l19.201-25.6H255.992z
			 M255.992,494.917c-42.395-0.049-76.751-34.405-76.8-76.8V401.05h68.267c4.713,0,8.533-3.821,8.533-8.533
			c0-4.713-3.821-8.533-8.533-8.533h-68.267v-153.6h51.2c4.713,0,8.533-3.82,8.533-8.533s-3.82-8.533-8.533-8.533h-51.2v-25.6h153.6
			v25.6h-68.267c-4.713,0-8.533,3.821-8.533,8.533s3.82,8.533,8.533,8.533h68.267v153.6h-51.2c-4.713,0-8.533,3.821-8.533,8.533
			c0,4.713,3.821,8.533,8.533,8.533h51.2v17.067C332.743,460.512,298.387,494.868,255.992,494.917z M204.792,59.717h102.4
			c2.263-0.001,4.433-0.9,6.033-2.5l28.1-28.1v61.2l-37.667,37.667h-39.133V85.317c0-4.713-3.82-8.533-8.533-8.533
			s-8.533,3.82-8.533,8.533v42.667h-39.133l-37.667-37.667v-61.2l28.1,28.1C200.359,58.817,202.529,59.717,204.792,59.717z"/>
		<path d="M287.633,358.384c2.525,0,4.92-1.119,6.541-3.054c1.621-1.935,2.302-4.489,1.859-6.975l-5.229-29.413l22.229-20.883
			c2.395-2.248,3.286-5.672,2.292-8.803c-0.994-3.131-3.697-5.413-6.951-5.868l-30.988-4.342l-13.8-26.95
			c-1.609-2.658-4.489-4.281-7.596-4.281s-5.987,1.624-7.596,4.281l-13.8,26.95l-30.988,4.342c-3.253,0.455-5.956,2.737-6.95,5.868
			c-0.994,3.131-0.103,6.554,2.292,8.803l22.229,20.883l-5.229,29.413c-0.567,3.185,0.716,6.416,3.312,8.345
			c2.596,1.929,6.061,2.225,8.946,0.763l27.783-14.079l27.783,14.079C284.971,358.068,286.293,358.384,287.633,358.384z
			 M259.85,326.204c-2.426-1.228-5.291-1.228-7.717,0l-16.387,8.304l3.046-17.125c0.509-2.839-0.454-5.743-2.558-7.717
			l-12.612-11.85l17.733-2.483c2.754-0.384,5.147-2.087,6.412-4.563l8.225-16.063l8.225,16.062c1.266,2.476,3.659,4.178,6.412,4.563
			l17.733,2.483l-12.612,11.85c-2.104,1.973-3.067,4.877-2.558,7.717l3.046,17.125L259.85,326.204z"/>
	</g>
</g>
<g>
</g>
<g>
</g>
<g>
</g>
<g>
</g>
<g>
</g>
<g>
</g>
<g>
</g>
<g>
</g>
<g>
</g>
<g>
</g>
<g>
</g>
<g>
</g>
<g>
</g>
<g>
</g>
<g>
</g>
</svg>
