<?xml version="1.0" encoding="iso-8859-1"?>
<!-- Generator: Adobe Illustrator 19.0.0, SVG Export Plug-In . SVG Version: 6.00 Build 0)  -->
<svg version="1.1" id="Capa_1" xmlns="http://www.w3.org/2000/svg" xmlns:xlink="http://www.w3.org/1999/xlink" x="0px" y="0px"
	 viewBox="0 0 512.001 512.001" style="enable-background:new 0 0 512.001 512.001;" xml:space="preserve">
<g>
	<path style="fill:#F74F5C;" d="M55,116h80V96c0-11-9-20-20-20H75c-11,0-20,9-20,20V116z"/>
	<path style="fill:#4AD194;" d="M135,116H55H30c-11.001,0-20,8.999-20,20v101.259h143.001c11,0,19.999,8.999,19.999,19.999v178.741
		h309.001c11,0,20-8.999,20-20v-280c0-11.001-9-20-20-20H135V116z M75,156h40c11,0,20,8.999,20,20c0,11-9,20-20,20H75
		c-11,0-20-9-20-20C55,164.999,64,156,75,156L75,156z M222.001,275.999c0-66.273,53.726-120,120-120s120.001,53.727,120.001,120
		c0,66.274-53.727,120-120.001,120S222.001,342.274,222.001,275.999z"/>
	<path style="fill:#FFC36C;" d="M115,156H75c-11,0-20,8.999-20,20c0,11,9,20,20,20h40c11,0,20-9,20-20C135,164.999,126,156,115,156z
		"/>
	<path style="fill:#636A75;" d="M342.001,156c-66.274,0-120,53.727-120,120c0,66.274,53.726,120,120,120s120.001-53.726,120.001-120
		S408.275,156,342.001,156L342.001,156z M257.001,275.999c0-46.944,38.056-85,85-85s85,38.056,85,85s-38.056,85-85,85
		S257.001,322.944,257.001,275.999z"/>
	<circle style="fill:#BCCBD3;" cx="342" cy="275.999" r="85"/>
	<path style="fill:#636A75;" d="M173,435.999V257.258c0-11-8.999-19.999-19.999-19.999H10v178.74c0,11.001,8.999,20,20,20H173z"/>
</g>
<path d="M482.001,106H145V96c0-16.542-13.458-30-30-30H75c-16.542,0-30,13.458-30,30v10H30c-16.542,0-30,13.458-30,30v280
	c0,16.542,13.458,30,30,30h452.001c16.542,0,30-13.458,30-30V136C512.001,119.458,498.543,106,482.001,106z M65,96
	c0-5.514,4.486-10,10-10h40c5.514,0,10,4.486,10,10v10H65V96z M20,415.999V247.258h133.001c5.514,0,9.999,4.486,9.999,9.999v168.742
	H30C24.486,425.999,20,421.514,20,415.999z M492.001,415.999c0,5.514-4.486,10-10,10H183V257.258
	c0-16.542-13.458-29.999-29.999-29.999H20V136c0-5.514,4.486-10,10-10l0,0h452.001l0,0c5.514,0,10,4.486,10,10V415.999z"/>
<path d="M342.002,146c-71.683,0-130.001,58.318-130.001,130s58.318,130,130.001,130c71.682,0,130-58.318,130-130
	S413.684,146,342.002,146z M342.002,385.999c-60.655,0-110.001-49.346-110.001-110s49.346-110,110.001-110
	c60.654,0,110,49.346,110,110S402.656,385.999,342.002,385.999z"/>
<path d="M342.002,181c-52.383,0-95,42.617-95,95s42.617,95,95,95s95-42.617,95-95S394.385,181,342.002,181z M342.002,350.999
	c-41.355,0-75-33.645-75-75s33.645-75,75-75s75,33.645,75,75S383.357,350.999,342.002,350.999z"/>
<path d="M387.709,253.399c-5.335,1.429-8.501,6.913-7.072,12.248c0.905,3.377,1.364,6.86,1.364,10.353
	c0,9.347-3.297,18.447-9.285,25.624c-3.538,4.241-2.968,10.547,1.273,14.085c1.871,1.56,4.142,2.322,6.401,2.322
	c2.863,0,5.707-1.224,7.684-3.594c8.981-10.766,13.928-24.416,13.928-38.436c0-5.24-0.688-10.464-2.045-15.529
	C398.527,255.136,393.044,251.972,387.709,253.399z"/>
<path d="M352.636,314.56l-0.297,0.081c-5.333,1.437-8.49,6.925-7.053,12.258c1.202,4.461,5.239,7.4,9.649,7.4
	c0.861,0,1.737-0.112,2.609-0.347l0.445-0.122c5.322-1.478,8.437-6.99,6.959-12.311C363.47,316.197,357.957,313.081,352.636,314.56z
	"/>
<path d="M115,146H75c-16.542,0-30,13.458-30,30s13.458,30,30,30h40c16.542,0,30-13.458,30-30S131.542,146,115,146z M115,186H75
	c-5.514,0-10-4.486-10-10s4.486-10,10-10h40c5.514,0,10,4.486,10,10C125,181.514,120.514,186,115,186z"/>
<path d="M105.033,390.999h-0.269c-5.523,0-10,4.477-10,10s4.477,10,10,10h0.269c5.523,0,10-4.477,10-10
	S110.556,390.999,105.033,390.999z"/>
<path d="M76.033,390.999H45c-5.523,0-10,4.477-10,10s4.477,10,10,10h31.033c5.523,0,10-4.477,10-10
	C86.033,395.476,81.556,390.999,76.033,390.999z"/>
<g>
</g>
<g>
</g>
<g>
</g>
<g>
</g>
<g>
</g>
<g>
</g>
<g>
</g>
<g>
</g>
<g>
</g>
<g>
</g>
<g>
</g>
<g>
</g>
<g>
</g>
<g>
</g>
<g>
</g>
</svg>
