<?xml version="1.0" encoding="iso-8859-1"?>
<!-- Generator: Adobe Illustrator 19.0.0, SVG Export Plug-In . SVG Version: 6.00 Build 0)  -->
<svg version="1.1" id="Capa_1" xmlns="http://www.w3.org/2000/svg" xmlns:xlink="http://www.w3.org/1999/xlink" x="0px" y="0px"
	 viewBox="0 0 512.003 512.003" style="enable-background:new 0 0 512.003 512.003;" xml:space="preserve">
<g>
	<path style="fill:#FFC36C;" d="M116.001,175h280c2.751,0,5-2.25,5-5v-38.333V88.333V50c0-2.75-2.249-5-5-5h-280c-2.75,0-5,2.25-5,5
		v81.667V170C111.001,172.75,113.251,175,116.001,175z"/>
	<path style="fill:#636A75;" d="M116.001,45h280c2.751,0,5,2.25,5,5v38.333v43.334V170c0,2.75-2.249,5-5,5h-280c-2.75,0-5-2.25-5-5
		v-38.333V88.333V50C111.001,47.25,113.251,45,116.001,45L116.001,45z M396.001,10H116.002c-22.001,0-40.001,17.999-40.001,40v120
		c0,22,18,40,40.001,40h2.644h57.356h160h57.355h2.644c22.001,0,40.001-18,40.001-40V50C436.002,27.999,418.002,10,396.001,10z"/>
	<path style="fill:#4AD194;" d="M336.002,210h-160v80c0,44,35.999,80,80,80c44,0,80-36,80-80V210L336.002,210z M256.002,265
		c13.807,0,25,11.193,25,25s-11.193,25-25,25c-13.808,0-25-11.193-25-25S242.194,265,256.002,265z"/>
	<circle style="fill:#F74F5C;" cx="256.001" cy="290" r="25"/>
	<path style="fill:#636A75;" d="M256.002,370c-44.001,0-80-36-80-80v-80h-57.356v142.645c0,53.545,43.81,97.355,97.355,97.355
		h80.001c53.545,0,97.355-43.81,97.355-97.355V210h-57.355v80C336.002,334,300.002,370,256.002,370z"/>
	<path style="fill:#4AD194;" d="M296.002,450h-80.001v37.002c0,8.25,6.75,15,15,15h50.001c8.249,0,14.999-6.75,14.999-15
		L296.002,450z"/>
</g>
<path d="M396.001,0H116.002c-27.57,0-50.001,22.43-50.001,50v120c0,25.071,18.551,45.886,42.646,49.455v133.19
	c0,55.824,42.831,101.825,97.354,106.886v27.472c0,13.785,11.215,25,25,25h50.001c13.784,0,24.999-11.215,24.999-25V459.53
	c54.524-5.06,97.355-51.061,97.355-106.886v-133.19c24.095-3.568,42.646-24.383,42.646-49.455V50C446.002,22.43,423.572,0,396.001,0
	z M286.001,487.002c0,2.71-2.289,5-4.999,5h-50.001c-2.71,0-5-2.29-5-5V460h60V487.002z M383.357,352.645
	c0,48.168-39.188,87.355-87.354,87.355h-0.002h-80c-48.167,0-87.354-39.188-87.354-87.355V220h37.355v70c0,49.626,40.374,90,90,90
	s90-40.374,90-90v-70h37.354v132.645H383.357z M186.002,220h140v70c0,38.598-31.402,70-70,70h-0.001
	c-38.598,0-69.999-31.402-69.999-70V220z M426.002,170c0,16.542-13.458,30-30.001,30l0,0l0,0H116.002l0,0l0,0
	c-16.543,0-30.001-13.458-30.001-30V50c0-16.542,13.458-30,30.001-30h279.999c16.543,0,30.001,13.458,30.001,30V170z"/>
<path d="M396.001,35h-280c-8.271,0-15,6.729-15,15v120c0,8.271,6.729,15,15,15h280c8.271,0,15-6.729,15-15V50
	C411.001,41.729,404.272,35,396.001,35z M121.001,165v-23.333h61.507c5.522,0,10-4.477,10-10c0-5.523-4.478-10-10-10h-61.507V98.333
	h139.983c5.522,0,10-4.477,10-10s-4.478-10-10-10H121.001V55h270v23.333h-61.507c-5.522,0-10,4.477-10,10s4.478,10,10,10h61.507
	v23.334H251.018c-5.522,0-10,4.477-10,10s4.478,10,10,10h139.983V165H121.001z"/>
<path d="M300.494,98.333h0.27c5.522,0,10-4.477,10-10s-4.478-10-10-10h-0.27c-5.522,0-10,4.477-10,10
	C290.494,93.855,294.972,98.333,300.494,98.333z"/>
<path d="M211.508,121.667h-0.27c-5.522,0-10,4.477-10,10s4.478,10,10,10h0.27c5.522,0,10-4.477,10-10
	S217.03,121.667,211.508,121.667z"/>
<path d="M256.002,325c19.299,0,35-15.701,35-35s-15.701-35-35-35s-35,15.701-35,35S236.703,325,256.002,325z M256.002,275
	c8.272,0,15,6.729,15,15s-6.728,15-15,15c-8.271,0-15-6.729-15-15S247.73,275,256.002,275z"/>
<path d="M262.254,404.999h-41.506c-5.522,0-10,4.477-10,10s4.478,10,10,10h41.506c5.522,0,10-4.477,10-10
	C272.254,409.476,267.776,404.999,262.254,404.999z"/>
<path d="M291.254,404.999h-0.269c-5.522,0-10,4.477-10,10s4.478,10,10,10h0.269c5.522,0,10-4.477,10-10
	C301.254,409.476,296.776,404.999,291.254,404.999z"/>
<g>
</g>
<g>
</g>
<g>
</g>
<g>
</g>
<g>
</g>
<g>
</g>
<g>
</g>
<g>
</g>
<g>
</g>
<g>
</g>
<g>
</g>
<g>
</g>
<g>
</g>
<g>
</g>
<g>
</g>
</svg>
