<?xml version="1.0" encoding="iso-8859-1"?>
<!-- Generator: Adobe Illustrator 19.0.0, SVG Export Plug-In . SVG Version: 6.00 Build 0)  -->
<svg version="1.1" id="Capa_1" xmlns="http://www.w3.org/2000/svg" xmlns:xlink="http://www.w3.org/1999/xlink" x="0px" y="0px"
	 viewBox="0 0 512.002 512.002" style="enable-background:new 0 0 512.002 512.002;" xml:space="preserve">
<g>
	<path style="fill:#FFC36C;" d="M220.982,402.002c0-55.229,44.771-100,99.999-100c3.728,0,7.408,0.203,11.03,0.602l85.995-110.945
		c4.814-6.232,3.663-15.189-2.57-20.002c-2.599-2.008-5.669-2.977-8.716-2.975v-0.043H298.856l75.575-137.463
		c3.795-6.912,1.268-15.592-5.643-19.389c-2.185-1.199-4.545-1.766-6.872-1.764V10h-160.89c-6.373,0-11.771,4.168-13.62,9.928
		L92.01,262.518c-2.87,7.344,0.758,15.625,8.102,18.494c1.708,0.668,3.467,0.984,5.195,0.982v0.023h104.869l-53.499,202.078
		c-2.005,7.623,2.548,15.428,10.169,17.434c5.914,1.555,11.937-0.838,15.276-5.547l45.339-58.494
		C223.274,426.459,220.982,414.498,220.982,402.002z"/>
	<path style="fill:#4AD194;" d="M332.012,302.604c-3.622-0.398-7.303-0.602-11.03-0.602c-55.228,0-99.999,44.771-99.999,100
		c0,12.496,2.292,24.457,6.479,35.486c14.317,37.711,50.789,64.514,93.52,64.514c55.229,0,100-44.772,100-100
		C420.981,350.502,382.051,308.094,332.012,302.604z"/>
</g>
<path d="M274.92,55h0.27c5.523,0,10-4.478,10-10s-4.477-10-10-10h-0.27c-5.523,0-10,4.478-10,10S269.397,55,274.92,55z"/>
<path d="M256.189,45c0-5.522-4.477-10-10-10h-31.034c-5.523,0-10,4.478-10,10s4.477,10,10,10h31.034
	C251.712,55,256.189,50.522,256.189,45z"/>
<path d="M349.888,295.863l76.033-98.093c3.961-5.128,5.688-11.492,4.862-17.92c-0.826-6.429-4.106-12.149-9.232-16.107
	c-3.97-3.067-8.659-4.795-13.629-5.033c-0.394-0.047-0.794-0.071-1.201-0.071h-90.955l67.432-122.65
	c6.441-11.732,2.137-26.521-9.597-32.967c-3.313-1.819-7.023-2.842-10.786-2.981C362.519,0.014,362.219,0,361.916,0h-160.89
	c-10.482,0-19.69,6.627-23.028,16.527L82.696,258.878c-2.36,6.039-2.227,12.637,0.375,18.577s7.362,10.511,13.398,12.87
	c2.559,1,5.228,1.556,7.947,1.653c0.293,0.025,0.591,0.039,0.891,0.039h91.878l-50.178,189.534
	c-3.404,12.942,4.354,26.242,17.297,29.648c2.023,0.532,4.074,0.789,6.11,0.789c7.675-0.001,15.108-3.653,19.725-10.025
	l35.286-45.525c18.966,33.164,54.694,55.564,95.558,55.564c60.654,0,109.999-49.346,109.999-110
	C430.981,351.348,396.564,308.589,349.888,295.863z M174.218,489.857c-0.087,0.111-0.171,0.226-0.253,0.341
	c-0.852,1.202-2.602,2.185-4.574,1.661c-2.277-0.599-3.643-2.94-3.047-5.203l53.499-202.078c0.794-3.001,0.15-6.199-1.743-8.659
	c-1.893-2.459-4.821-3.9-7.924-3.9H105.991c-0.227-0.016-0.455-0.023-0.684-0.023c-0.006,0-0.012,0.001-0.016,0
	c-0.519,0-1.036-0.1-1.54-0.297c-1.436-0.56-2.095-1.661-2.36-2.268c-0.266-0.605-0.627-1.837-0.074-3.253l95.396-242.59
	c0.078-0.198,0.15-0.399,0.215-0.604c0.477-1.485,1.929-2.983,4.099-2.983h160.206c0.227,0.016,0.455,0.024,0.684,0.024
	c0.003-0.001,0.008-0.001,0.012,0c0.718,0,1.407,0.178,2.045,0.528c2.069,1.137,2.828,3.743,1.696,5.807l-75.575,137.463
	c-1.704,3.098-1.644,6.864,0.155,9.907c1.8,3.043,5.072,4.91,8.607,4.91h106.938c0.307,0.028,0.616,0.043,0.926,0.043
	c0.002,0,0.007,0,0.009,0c0.66,0,1.643,0.154,2.596,0.89c1.214,0.938,1.536,2.174,1.62,2.828c0.084,0.653,0.085,1.932-0.843,3.133
	l-82.677,106.663c-2.133-0.123-4.28-0.193-6.444-0.193c-60.654,0-110,49.346-110,110c0,11.726,1.852,23.025,5.265,33.631
	L174.218,489.857z M320.982,492.002c-49.626,0-90-40.374-90-90s40.374-90,90-90s89.999,40.374,89.999,90
	S370.608,492.002,320.982,492.002z"/>
<path d="M330.033,344.293c-0.001-0.002-0.002-0.004-0.003-0.006l-0.009-0.02c-0.024-0.052-0.055-0.099-0.08-0.149
	c-0.12-0.243-0.246-0.484-0.385-0.718c-0.065-0.108-0.139-0.209-0.208-0.314c-0.11-0.169-0.218-0.339-0.338-0.502
	c-0.09-0.121-0.188-0.232-0.282-0.349c-0.111-0.137-0.219-0.276-0.338-0.407c-0.108-0.119-0.224-0.228-0.337-0.342
	c-0.117-0.118-0.232-0.238-0.355-0.351c-0.126-0.114-0.26-0.218-0.392-0.325c-0.121-0.099-0.238-0.201-0.365-0.295
	c-0.154-0.114-0.315-0.216-0.475-0.32c-0.114-0.075-0.224-0.155-0.342-0.226c-0.211-0.126-0.43-0.238-0.649-0.349
	c-0.073-0.036-0.141-0.08-0.215-0.115c-0.004-0.002-0.009-0.004-0.014-0.006c-0.293-0.138-0.592-0.262-0.897-0.371
	c-0.246-0.088-0.494-0.158-0.743-0.226c-0.061-0.017-0.121-0.039-0.183-0.055c-0.25-0.064-0.502-0.11-0.754-0.153
	c-0.066-0.012-0.131-0.028-0.198-0.038c-0.236-0.036-0.472-0.056-0.708-0.074c-0.089-0.007-0.177-0.02-0.266-0.025
	c-0.211-0.011-0.421-0.007-0.632-0.004c-0.118,0.001-0.235-0.004-0.354,0.002c-0.186,0.009-0.371,0.031-0.557,0.051
	c-0.141,0.015-0.281,0.023-0.422,0.044c-0.176,0.026-0.349,0.065-0.523,0.101c-0.146,0.03-0.292,0.053-0.437,0.089
	c-0.215,0.054-0.425,0.122-0.636,0.19c-0.1,0.031-0.2,0.056-0.299,0.091c-0.315,0.112-0.624,0.239-0.926,0.382
	c-0.001,0.001-0.003,0.001-0.004,0.002c-0.023,0.011-0.044,0.024-0.067,0.036c-0.274,0.132-0.543,0.275-0.805,0.432
	c-0.096,0.058-0.185,0.123-0.279,0.184c-0.181,0.117-0.363,0.233-0.537,0.362c-0.115,0.085-0.221,0.178-0.331,0.268
	c-0.143,0.115-0.287,0.228-0.423,0.352c-0.117,0.107-0.225,0.221-0.336,0.331c-0.12,0.119-0.241,0.235-0.355,0.36
	c-0.114,0.127-0.218,0.26-0.326,0.392c-0.099,0.121-0.201,0.238-0.294,0.364c-0.118,0.159-0.223,0.325-0.331,0.49
	c-0.071,0.108-0.147,0.213-0.214,0.325c-0.139,0.232-0.264,0.473-0.383,0.715c-0.026,0.052-0.057,0.099-0.082,0.151l-0.009,0.02
	c-0.001,0.002-0.002,0.004-0.003,0.006l-43.281,91.475c-2.362,4.993-0.23,10.954,4.762,13.316c1.381,0.654,2.837,0.963,4.27,0.963
	c3.746,0,7.338-2.114,9.046-5.725l9.986-21.105h48.536l9.986,21.105c1.708,3.61,5.3,5.725,9.046,5.725
	c1.433,0,2.889-0.31,4.27-0.963c4.992-2.362,7.124-8.323,4.762-13.316L330.033,344.293z M306.176,403.217l14.805-31.29l14.805,31.29
	H306.176z"/>
<g>
</g>
<g>
</g>
<g>
</g>
<g>
</g>
<g>
</g>
<g>
</g>
<g>
</g>
<g>
</g>
<g>
</g>
<g>
</g>
<g>
</g>
<g>
</g>
<g>
</g>
<g>
</g>
<g>
</g>
</svg>
