<?xml version="1.0" encoding="iso-8859-1"?>
<!-- Generator: Adobe Illustrator 19.0.0, SVG Export Plug-In . SVG Version: 6.00 Build 0)  -->
<svg version="1.1" id="Capa_1" xmlns="http://www.w3.org/2000/svg" xmlns:xlink="http://www.w3.org/1999/xlink" x="0px" y="0px"
	 viewBox="0 0 512 512" style="enable-background:new 0 0 512 512;" xml:space="preserve">
<g>
	<path style="fill:#FFC36C;" d="M220.983,402.002c0-55.229,44.771-100,100-100c3.728,0,7.407,0.203,11.03,0.602l85.994-110.945
		c4.814-6.232,3.663-15.189-2.569-20.004c-2.599-2.006-5.67-2.975-8.717-2.973v-0.043H298.858l75.574-137.463
		c3.795-6.912,1.268-15.594-5.644-19.389c-2.184-1.199-4.545-1.766-6.872-1.764V10h-160.89c-6.372,0-11.77,4.168-13.619,9.926
		L92.01,262.518c-2.87,7.344,0.758,15.625,8.102,18.494c1.708,0.668,3.467,0.982,5.196,0.982v0.023h104.868l-53.498,202.078
		c-2.005,7.621,2.548,15.426,10.169,17.432c5.913,1.557,11.936-0.836,15.275-5.547l45.34-58.492
		C223.275,426.459,220.983,414.498,220.983,402.002z"/>
	<path style="fill:#F74F5C;" d="M320.983,302.002c-55.229,0-100,44.771-100,100c0,12.496,2.292,24.457,6.479,35.486
		C241.779,475.199,278.251,502,320.983,502c55.229,0,99.999-44.77,99.999-99.998c0-51.502-38.931-93.908-88.969-99.398
		C328.39,302.205,324.711,302.002,320.983,302.002z"/>
</g>
<path d="M256.191,45c0-5.522-4.478-10-10-10h-31.034c-5.523,0-10,4.478-10,10s4.477,10,10,10h31.034
	C251.713,55,256.191,50.522,256.191,45z"/>
<path d="M274.921,55h0.27c5.522,0,10-4.478,10-10s-4.478-10-10-10h-0.27c-5.522,0-10,4.478-10,10S269.399,55,274.921,55z"/>
<path d="M349.888,295.863l76.033-98.092c8.178-10.586,6.217-25.852-4.373-34.033c-3.97-3.064-8.658-4.79-13.626-5.028
	c-0.395-0.047-0.795-0.071-1.201-0.071h-90.954l67.431-122.65c6.443-11.735,2.138-26.524-9.596-32.966
	c-3.313-1.819-7.023-2.844-10.787-2.982C362.519,0.014,362.219,0,361.917,0h-160.89C190.545,0,181.337,6.625,178,16.525
	L82.697,258.878c-2.361,6.039-2.228,12.637,0.375,18.577c2.602,5.94,7.361,10.511,13.397,12.87c2.552,0.997,5.219,1.552,7.938,1.652
	c0.297,0.026,0.597,0.04,0.9,0.04h91.876l-50.177,189.534c-3.404,12.94,4.354,26.24,17.294,29.647
	c2.024,0.532,4.079,0.79,6.117,0.79c7.675,0,15.107-3.654,19.722-10.029l35.285-45.522C244.392,489.601,280.12,512,320.983,512
	c60.653,0,109.999-49.346,109.999-110C430.982,351.348,396.564,308.589,349.888,295.863z M174.219,489.854
	c-0.088,0.112-0.173,0.228-0.255,0.344c-0.852,1.201-2.594,2.181-4.572,1.658c-2.277-0.599-3.642-2.94-3.047-5.201l53.498-202.078
	c0.794-3.001,0.15-6.199-1.742-8.659c-1.894-2.459-4.821-3.9-7.925-3.9H105.998c-0.747-0.051-1.521-0.036-2.247-0.32
	c-1.435-0.56-2.095-1.661-2.36-2.268c-0.266-0.605-0.627-1.837-0.073-3.253l95.397-242.592c0.078-0.198,0.149-0.399,0.215-0.602
	c0.477-1.484,1.929-2.983,4.098-2.983h160.205c0.228,0.016,0.455,0.024,0.685,0.024c0.004,0,0.007,0,0.012,0
	c0.719,0,1.407,0.178,2.048,0.529c1.351,0.742,1.863,1.919,2.048,2.555s0.385,1.904-0.355,3.251l-75.574,137.463
	c-1.703,3.098-1.645,6.864,0.155,9.907s5.072,4.91,8.607,4.91h106.938c0.307,0.028,0.615,0.043,0.926,0.043c0.002,0,0.004,0,0.007,0
	c0,0,0.001,0,0.002,0c0.66,0,1.646,0.154,2.595,0.887c1.216,0.938,1.538,2.176,1.622,2.83s0.085,1.933-0.843,3.134L327.43,292.196
	c-2.134-0.123-4.281-0.193-6.445-0.193c-60.654,0-110,49.345-110,109.998c0,11.727,1.852,23.026,5.266,33.633L174.219,489.854z
	 M320.983,492c-49.626,0-90-40.374-90-90c0-49.625,40.374-89.998,90-89.998s89.999,40.373,89.999,89.998
	C410.982,451.626,370.609,492,320.983,492z"/>
<path d="M365.257,392.002h-88.549c-5.522,0-10,4.477-10,10c0,5.522,4.478,10,10,10h88.549c5.522,0,10-4.478,10-10
	C375.257,396.479,370.78,392.002,365.257,392.002z"/>
<g>
</g>
<g>
</g>
<g>
</g>
<g>
</g>
<g>
</g>
<g>
</g>
<g>
</g>
<g>
</g>
<g>
</g>
<g>
</g>
<g>
</g>
<g>
</g>
<g>
</g>
<g>
</g>
<g>
</g>
</svg>
