<svg id="Capa_1" enable-background="new 0 0 512 512" height="512" viewBox="0 0 512 512" width="512" xmlns="http://www.w3.org/2000/svg"><g><g><path d="m219.53 74.733c-24.288-24.289-56.582-37.666-90.933-37.666-34.35 0-66.644 13.376-90.932 37.666-24.288 24.288-37.665 56.582-37.665 90.932s13.377 66.644 37.666 90.933l218.334 218.335 58.23-204.886-58.23-158.845z" fill="#fd445f"/><path d="m474.334 74.733c-24.288-24.289-56.582-37.666-90.932-37.666-34.351 0-66.645 13.376-90.933 37.666l-36.469 36.469v363.73l218.334-218.335c24.289-24.288 37.666-56.582 37.666-90.932s-13.377-66.644-37.666-90.932z" fill="#e1105a"/></g><g><path d="m231.776 268.97c0-13.357 10.866-24.224 24.224-24.224l7.88-16.987-7.88-13.013c-29.899 0-54.224 24.325-54.224 54.224s24.324 54.224 54.224 54.224l7.88-14.752-7.88-15.249c-13.357 0-24.224-10.866-24.224-24.223z" fill="#fff594"/></g><path d="m256 214.746v30c13.357 0 24.224 10.867 24.224 24.224s-10.867 24.223-24.224 24.223v30c29.899 0 54.224-24.325 54.224-54.224s-24.325-54.223-54.224-54.223z" fill="#fedd61"/></g></svg>