<svg id="Capa_1" enable-background="new 0 0 512 512" height="512" viewBox="0 0 512 512" width="512" xmlns="http://www.w3.org/2000/svg"><g><g><path d="m188.923 366.631h67.077l17.476-83.586-17.476-71.951c-.373.005-.741.028-1.115.028-44.707 0-80.948-36.242-80.948-80.948s36.242-80.948 80.948-80.948c.374 0 .743.023 1.115.028l17.476-19.938-17.476-29.302c-.372-.003-.742-.014-1.115-.014-71.893 0-130.174 58.281-130.174 130.174 0 61.982 43.322 113.841 101.337 126.962v51.821h-94.799l-17.441-17.441-40.782 40.782 182.974 179.702 17.476-39.408-17.476-39.999z" fill="#fff594"/></g><path d="m398.192 289.285-19.671 19.671h-94.799v-51.821c58.015-13.122 101.337-64.98 101.337-126.962 0-71.52-57.68-129.559-129.058-130.16v49.239c44.19.599 79.833 36.588 79.833 80.92s-35.644 80.323-79.834 80.922v155.537h64.846l-64.846 65.962v79.407l182.974-181.933z" fill="#fedd61"/></g></svg>