<svg id="Capa_1" enable-background="new 0 0 512 512" height="512" viewBox="0 0 512 512" width="512" xmlns="http://www.w3.org/2000/svg"><g><g><path d="m64.448 316.316c0-72.48 58.757-131.237 131.237-131.237 36.24 0 69.049 14.689 92.798 38.438l115.23-102.986 108.287-120.531h-235.044v57.674h136.589l-101.389 101.389c-32.544-24.144-72.837-38.431-116.471-38.431-108.074 0-195.685 87.61-195.685 195.684 0 54.037 21.903 102.958 57.315 138.369l36.41-12.444 9.162-33.127c-23.75-23.749-38.439-56.558-38.439-92.798z" fill="#badb47"/></g><path d="m288.483 223.517c23.749 23.749 38.438 56.558 38.438 92.798 0 72.48-58.757 131.237-131.237 131.237-36.24 0-69.049-14.689-92.798-38.438l-45.571 45.571c35.411 35.412 84.333 57.315 138.369 57.315 108.073 0 195.684-87.611 195.684-195.684 0-43.634-14.287-83.928-38.431-116.472l101.389-101.388v136.589h57.674v-235.045z" fill="#1fc979"/></g></svg>