<svg id="Capa_1" enable-background="new 0 0 512 512" height="512" viewBox="0 0 512 512" width="512" xmlns="http://www.w3.org/2000/svg"><g><g><g><g><path d="m191.412 0-147.452 61.828-43.96 206.401h91.056l14.807-10 14.807 10v243.771h135.33l29.018-284.657-29.018-201.629z" fill="#f1f8fc"/><path d="m459.459 62.31-137.51-62.31-64.234 26.396-1.715-.682v486.286h138.696v-243.771l14.942-10 14.942 10h87.42z" fill="#cfe6f3"/></g><path d="m91.056 134.196h29.614v133.982h-29.614z" fill="#cfe6f3"/><path d="m394.696 134.196h29.884v133.982h-29.884z" fill="#badbee"/><g><path d="m191.412 0v49.935c0 35.761 28.913 64.883 64.588 65.251l12.483-52.6-12.483-62.586z" fill="#cfe6f3"/><path d="m321.949 49.935v-49.935h-65.949v115.186c.228.002.452.017.68.017 35.989 0 65.269-29.279 65.269-65.268z" fill="#badbee"/></g></g></g><g><path d="m258.38 438.9v-90.321c-.775.115-1.562-13.243-2.368-13.243-8.865 0-16.078-7.213-16.078-16.078s7.213-16.077 16.078-16.077c.807 0 1.593-14.162 2.368-14.047v-104.426l-2.368-11.735-46.51 46.51 21.213 21.213 10.297-10.297v45.301c-9.17 3.167-17.032 9.148-22.556 16.911l-45.371 55.073 23.154 19.076 20.001-24.278c5.524 9.424 14.296 16.715 24.772 20.333v27.858h-21.661v30h21.661v22.563h14.988z" fill="#1fc979"/></g><g><path d="m271.012 420.673h21.66v-30h-21.66v-27.858c7.548-2.607 14.213-7.118 19.416-12.965l.175.144 45.54-55.276-23.154-19.076-17.038 20.681c-5.513-9.563-14.356-16.968-24.938-20.623v-45.302l10.297 10.297 21.213-21.213-46.51-46.51-.013.012v130.196c.004 0 .008-.001.012-.001 8.865 0 16.077 7.212 16.077 16.077s-7.212 16.078-16.077 16.078c-.004 0-.008-.001-.012-.001v107.901h15.012z" fill="#19a995"/></g></g></svg>