<svg id="Capa_1" enable-background="new 0 0 512 512" height="512" viewBox="0 0 512 512" width="512" xmlns="http://www.w3.org/2000/svg"><g><g><g><path d="m74.216 202.463c0-33.898 27.463-61.381 61.353-61.417l21.416-29.854s-39.089-6.3-43.472-16.791c-50.305 10.244-88.16 54.731-88.16 108.061 0 50.929 34.525 93.787 81.445 106.465v83.225h-61.891v57.674h61.891v62.174h28.771l17.915-120.01-17.915-128.109c-33.89-.036-61.353-27.519-61.353-61.418z" fill="#b782d7"/><path d="m164.472 308.929c37.463-10.123 67.021-39.486 77.414-76.838l-47.476-47.476c1.713 5.649 2.643 11.639 2.643 17.848 0 33.921-27.498 61.419-61.419 61.419-.022 0-.044-.002-.066-.002v248.12h28.903v-62.172h61.891v-57.674h-61.891v-83.225z" fill="#9244c2"/></g><g><path d="m347.528 308.929c-37.463-10.123-67.021-39.486-77.414-76.838l47.476-47.476c-1.713 5.649-2.643 11.639-2.643 17.848 0 33.921 27.498 61.419 61.419 61.419.022 0 .044-.002.066-.002l17.185 117.762-17.186 130.358h-28.903v-62.172h-61.891v-57.674h61.891z" fill="#b782d7"/><path d="m437.784 202.463c0-33.898-27.463-61.381-61.353-61.417v-15.273l2.973-2.973c8.274-8.274 14.7-17.908 19.083-28.398 50.305 10.244 88.16 54.731 88.16 108.061 0 50.929-34.525 93.787-81.445 106.465v83.225h61.891v57.674h-61.891v62.173h-28.771v-248.119c33.89-.036 61.353-27.519 61.353-61.418z" fill="#9244c2"/></g></g><g><path d="m240.716 23.142c-30.856-30.856-81.063-30.856-111.92.001-14.948 14.947-23.18 34.82-23.18 55.96 0 21.138 8.232 41.012 23.18 55.96l127.204 127.204 31.452-131.133-31.452-92.708z" fill="#fd445f"/><path d="m383.205 23.142c-30.857-30.858-81.064-30.854-111.92 0l-15.285 15.284v223.841l127.204-127.205c14.948-14.948 23.18-34.821 23.18-55.961 0-21.138-8.232-41.012-23.179-55.959z" fill="#e1105a"/></g></g></svg>