<svg id="Capa_1" enable-background="new 0 0 512 512" height="512" viewBox="0 0 512 512" width="512" xmlns="http://www.w3.org/2000/svg"><g><path d="m185.456 457.281 70.544-122.188 17.601-42.806-17.601-33.669c-54.764 0-99.159-44.395-99.159-99.159s44.395-99.16 99.159-99.16l21.059-29.283-21.059-31.016c-88.067 0-159.459 71.392-159.459 159.459 0 69.328 44.249 128.313 106.041 150.279l-116.775 202.262h170.193l17.601-26.956-17.601-27.763z" fill="#79e1f5"/><path d="m309.418 309.738c61.792-21.966 106.041-80.951 106.041-150.279 0-88.067-71.392-159.459-159.459-159.459v60.299c54.764 0 99.159 44.395 99.159 99.159s-44.395 99.16-99.159 99.16v76.475l70.544 122.188h-70.544v54.719h170.193z" fill="#31c3e7"/></g></svg>