<?xml version="1.0" encoding="iso-8859-1"?>
<!-- Generator: Adobe Illustrator 19.0.0, SVG Export Plug-In . SVG Version: 6.00 Build 0)  -->
<svg version="1.1" id="Capa_1" xmlns="http://www.w3.org/2000/svg" xmlns:xlink="http://www.w3.org/1999/xlink" x="0px" y="0px"
	 viewBox="0 0 512.043 512.043" style="enable-background:new 0 0 512.043 512.043;" xml:space="preserve">
<g transform="translate(-1 -1)">
	<g transform="translate(2 2)">
		<g>
			<path style="fill:#FDD834;" d="M483.887,108.952L459.822,348.91v17.067h-409.6V348.91L26.158,108.952l3.67-1.109l22.613-6.741
				l38.059,56.747l8.96,13.311c1.876,2.774,5.198,4.2,8.501,3.65s5.983-2.976,6.859-6.209l24.576-92.33l0.94-3.499v-0.086
				l25.002-0.256l18.176,58.88l4.693,15.36c1.063,3.456,4.196,5.862,7.81,5.996c3.613,0.135,6.917-2.031,8.234-5.399l37.034-92.501
				h27.477l30.635,76.544l6.4,15.957c1.317,3.367,4.621,5.533,8.234,5.399c3.613-0.135,6.747-2.54,7.81-5.996l21.674-70.4
				l1.194-3.84l24.917,0.341c0-0.085,0.085,0,0.085,0l22.699,85.077l2.816,10.752c0.875,3.233,3.555,5.659,6.859,6.209
				c3.304,0.55,6.625-0.875,8.501-3.65l42.497-63.317l4.523-6.741L483.887,108.952z"/>
			<rect x="50.222" y="365.976" style="fill:#FDD834;" width="409.6" height="119.467"/>
		</g>
		<g>
			<path style="fill:#FFEB3A;" d="M456.75,108.952L432.687,348.91v17.067H33.155v-8.533c0.014-4.707,3.826-8.52,8.533-8.533h8.533
				L26.158,108.952c-3.59-0.987-6.914-2.766-9.727-5.205l8.875-2.646l4.522,6.741l1.365,2.048l41.131,61.269
				c1.876,2.775,5.197,4.202,8.502,3.651c3.304-0.55,5.984-2.977,6.859-6.21l2.816-10.752l8.96,13.311
				c1.876,2.774,5.198,4.2,8.501,3.65s5.983-2.976,6.859-6.209l24.576-92.33l21.675,70.4c1.063,3.456,4.196,5.861,7.809,5.996
				s6.916-2.031,8.233-5.399l6.4-15.957l4.693,15.36c1.063,3.456,4.196,5.862,7.81,5.996c3.613,0.135,6.917-2.031,8.234-5.399
				l37.034-92.502h0.341l0.085,0.256l36.95,92.245c1.317,3.367,4.62,5.533,8.233,5.399s6.746-2.54,7.809-5.996l4.693-15.36
				l6.4,15.957c1.317,3.367,4.621,5.533,8.234,5.399c3.613-0.135,6.747-2.54,7.81-5.996l21.674-70.4l24.576,92.331
				c0.875,3.233,3.555,5.659,6.859,6.209c3.304,0.55,6.625-0.875,8.501-3.65l8.96-13.311l2.816,10.752
				c0.875,3.233,3.555,5.659,6.859,6.209c3.304,0.55,6.625-0.875,8.501-3.65l42.496-63.317L456.75,108.952z"/>
			<path style="fill:#FFEB3A;" d="M432.687,365.976v119.467H33.155v-8.533c0.014-4.707,3.826-8.52,8.533-8.533h8.533v-85.333h-8.533
				c-4.707-0.014-8.52-3.826-8.533-8.533v-8.533H432.687z"/>
		</g>
		<g>
			<path style="fill:#FF9801;" d="M58.755,84.376c-0.097,14.098-11.502,25.503-25.6,25.6c-0.655,0.014-1.311-0.014-1.963-0.085
				c-1.711-0.098-3.404-0.414-5.035-0.939c-3.59-0.987-6.914-2.766-9.727-5.205C7.485,96.023,4.991,83.18,10.394,72.669
				s17.3-15.955,28.787-13.175C50.667,62.275,58.757,72.558,58.755,84.376z"/>
			<circle style="fill:#FF9801;" cx="152.622" cy="50.243" r="25.6"/>
			<circle style="fill:#FF9801;" cx="255.022" cy="33.176" r="25.6"/>
			<circle style="fill:#FF9801;" cx="476.889" cy="84.376" r="25.6"/>
			<circle style="fill:#FF9801;" cx="357.422" cy="50.243" r="25.6"/>
		</g>
		<path style="fill:#F57C00;" d="M41.689,468.376h435.2c4.713,0,8.533,3.82,8.533,8.533v17.067c0,4.713-3.82,8.533-8.533,8.533
			h-435.2c-4.713,0-8.533-3.821-8.533-8.533V476.91C33.155,472.197,36.976,468.376,41.689,468.376z"/>
		<path style="fill:#FF9801;" d="M41.689,468.376h401.067c4.713,0,8.533,3.82,8.533,8.533v17.067c0,4.713-3.82,8.533-8.533,8.533
			H41.689c-4.713,0-8.533-3.821-8.533-8.533V476.91C33.155,472.197,36.976,468.376,41.689,468.376z"/>
		<path style="fill:#F57C00;" d="M41.689,348.91h435.2c4.713,0,8.533,3.82,8.533,8.533v17.067c0,4.713-3.82,8.533-8.533,8.533
			h-435.2c-4.713,0-8.533-3.82-8.533-8.533v-17.067C33.155,352.73,36.976,348.91,41.689,348.91z"/>
		<path style="fill:#FF9801;" d="M41.689,348.91h401.067c4.713,0,8.533,3.82,8.533,8.533v17.067c0,4.713-3.82,8.533-8.533,8.533
			H41.689c-4.713,0-8.533-3.82-8.533-8.533v-17.067C33.155,352.73,36.976,348.91,41.689,348.91z"/>
		<path style="fill:#4CAF50;" d="M151.114,259.89l-18.717,26.374c-1.184,1.817-3.206,2.912-5.375,2.912
			c-2.169,0-4.19-1.095-5.375-2.912L102.93,259.89c-2.011-2.918-2.011-6.775,0-9.694l18.717-26.374
			c1.184-1.817,3.206-2.912,5.375-2.912c2.169,0,4.19,1.095,5.375,2.912l18.717,26.374
			C153.125,253.115,153.125,256.972,151.114,259.89z"/>
		<path style="fill:#00BCD4;" d="M407.114,259.89l-18.717,26.374c-1.184,1.817-3.206,2.912-5.375,2.912s-4.19-1.095-5.375-2.912
			L358.93,259.89c-2.011-2.918-2.011-6.775,0-9.694l18.717-26.374c1.184-1.817,3.206-2.912,5.375-2.912s4.19,1.095,5.375,2.912
			l18.717,26.374C409.125,253.115,409.125,256.972,407.114,259.89z"/>
		<path style="fill:#E91E63;" d="M279.114,251.357l-18.717,26.374c-1.184,1.817-3.206,2.912-5.375,2.912s-4.19-1.095-5.375-2.912
			l-18.717-26.374c-2.011-2.918-2.011-6.775,0-9.694l18.717-26.374c1.184-1.817,3.206-2.912,5.375-2.912s4.19,1.095,5.375,2.912
			l18.717,26.374C281.125,244.581,281.125,248.438,279.114,251.357z"/>
	</g>
	<g>
		<path d="M478.889,52.243c-18.844,0.019-34.115,15.29-34.133,34.133c0.037,5.881,1.611,11.65,4.565,16.734l-43.832,65.282
			l-24.055-90.279c10.883-9.199,14.902-24.193,10.08-37.603s-17.47-22.41-31.719-22.571c-14.249-0.162-27.098,8.549-32.223,21.846
			c-5.125,13.297-1.447,28.378,9.225,37.822l-21.089,68.511l-34.692-86.705c9.847-9.73,12.842-24.443,7.582-37.248
			S270.865,1,257.022,1c-13.843,0-26.315,8.36-31.574,21.165s-2.264,27.518,7.582,37.248l-34.692,86.705l-21.091-68.511
			c10.69-9.447,14.381-24.544,9.255-37.858c-5.126-13.314-17.988-22.038-32.254-21.876c-14.265,0.161-26.927,9.174-31.75,22.601
			c-4.823,13.426-0.792,28.436,10.11,37.639l-24.053,90.288l-43.832-65.291c2.955-5.085,4.528-10.854,4.565-16.734
			C69.362,69.495,57.085,55.096,40.404,52.5C23.723,49.904,7.651,59.892,2.591,75.998s2.414,33.49,17.583,40.9l22.624,225.569
			c-9.046,0.463-16.151,7.919-16.176,16.977v17.067c0.012,9.421,7.646,17.054,17.067,17.067v68.267
			c-9.421,0.012-17.054,7.646-17.067,17.067v17.067c0.012,9.421,7.646,17.054,17.067,17.067h435.2
			c9.421-0.012,17.054-7.646,17.067-17.067V478.91c-0.012-9.421-7.646-17.054-17.067-17.067h-8.533v-68.267h8.533
			c9.421-0.012,17.054-7.646,17.067-17.067v-17.067c-0.012-9.421-7.646-17.054-17.067-17.067h-7.633l22.615-225.479
			c14.276-6.943,21.857-22.832,18.274-38.297S494.763,52.2,478.889,52.243z M359.422,35.176c9.426,0,17.067,7.641,17.067,17.067
			s-7.641,17.067-17.067,17.067s-17.067-7.641-17.067-17.067C342.368,42.822,350.002,35.189,359.422,35.176z M257.022,18.11
			c9.426,0,17.067,7.641,17.067,17.067s-7.641,17.067-17.067,17.067c-9.426,0-17.067-7.641-17.067-17.067
			C239.968,25.756,247.602,18.122,257.022,18.11z M154.622,35.176c9.426,0,17.067,7.641,17.067,17.067s-7.641,17.067-17.067,17.067
			c-9.426,0-17.067-7.641-17.067-17.067C137.568,42.822,145.202,35.189,154.622,35.176z M35.155,69.31
			c9.426,0,17.067,7.641,17.067,17.067s-7.641,17.067-17.067,17.067s-17.067-7.641-17.067-17.067
			C18.101,76.956,25.735,69.322,35.155,69.31z M478.906,495.976H43.689V478.91h435.2L478.906,495.976z M453.289,461.843H60.755
			v-68.267h392.533V461.843z M478.906,376.51H43.689v-17.067h435.2L478.906,376.51z M59.943,342.376L37.666,120.256
			c5.256-0.373,10.351-1.971,14.878-4.667l41.845,62.329c3.123,4.726,8.411,7.565,14.075,7.558c0.974-0.002,1.947-0.083,2.908-0.242
			c6.624-1.061,11.99-5.946,13.667-12.442l23.198-87.063c4.494,0.911,9.131,0.858,13.603-0.156l20.182,65.56
			c2.079,6.95,8.366,11.794,15.617,12.033c0.242,0.009,0.492,0.017,0.733,0.017c6.986,0.041,13.275-4.226,15.817-10.733L248,67.946
			c5.877,1.818,12.167,1.818,18.044,0l33.811,84.506c2.542,6.507,8.831,10.774,15.817,10.733c0.242,0,0.492-0.009,0.733-0.017
			c7.25-0.239,13.538-5.083,15.617-12.033l20.182-65.56c4.472,1.014,9.108,1.067,13.602,0.156l23.191,87.054
			c1.679,6.499,7.048,11.386,13.675,12.45c0.961,0.158,1.934,0.239,2.908,0.242c5.664,0.007,10.952-2.833,14.075-7.558
			l41.845-62.329c4.527,2.696,9.622,4.294,14.878,4.667l-22.277,222.121H59.943z M478.889,103.443
			c-9.426,0-17.067-7.641-17.067-17.067s7.641-17.067,17.067-17.067s17.067,7.641,17.067,17.067
			C495.943,95.797,488.309,103.431,478.889,103.443z"/>
		<path d="M141.347,220.868c-2.901-3.896-7.474-6.191-12.331-6.189c-4.858,0.002-9.428,2.3-12.327,6.198L97.972,247.26
			c-4.083,5.886-4.083,13.689,0,19.575l18.725,26.383c2.789,4.065,7.402,6.493,12.331,6.492c4.929-0.002,9.541-2.433,12.327-6.5
			l18.717-26.375v-0.009c4.083-5.886,4.083-13.689,0-19.575L141.347,220.868z M129.014,281.101l-17.125-23.967l17.133-24.142
			l17.05,24.075L129.014,281.101z"/>
		<path d="M397.347,220.868c-2.901-3.896-7.474-6.191-12.331-6.189c-4.858,0.002-9.429,2.3-12.327,6.198l-18.717,26.383
			c-4.083,5.886-4.083,13.689,0,19.575l18.725,26.383c2.789,4.065,7.402,6.493,12.331,6.492c4.929-0.002,9.541-2.433,12.327-6.5
			l18.717-26.375v-0.009c4.083-5.886,4.083-13.689,0-19.575L397.347,220.868z M385.014,281.101l-17.125-23.967l17.134-24.142
			l17.05,24.075L385.014,281.101z"/>
		<path d="M269.347,212.335c-2.901-3.896-7.474-6.191-12.331-6.189s-9.429,2.3-12.327,6.198l-18.717,26.383
			c-4.083,5.886-4.083,13.689,0,19.575l18.725,26.383c2.789,4.065,7.402,6.493,12.331,6.492c4.929-0.002,9.541-2.433,12.327-6.5
			l18.717-26.375v-0.009c4.083-5.886,4.083-13.689,0-19.575L269.347,212.335z M257.014,272.568l-17.125-23.967l17.133-24.142
			l17.05,24.075L257.014,272.568z"/>
	</g>
</g>
<g>
</g>
<g>
</g>
<g>
</g>
<g>
</g>
<g>
</g>
<g>
</g>
<g>
</g>
<g>
</g>
<g>
</g>
<g>
</g>
<g>
</g>
<g>
</g>
<g>
</g>
<g>
</g>
<g>
</g>
</svg>
