<?xml version="1.0" encoding="iso-8859-1"?>
<!-- Generator: Adobe Illustrator 19.0.0, SVG Export Plug-In . SVG Version: 6.00 Build 0)  -->
<svg version="1.1" id="Capa_1" xmlns="http://www.w3.org/2000/svg" xmlns:xlink="http://www.w3.org/1999/xlink" x="0px" y="0px"
	 viewBox="0 0 512 512" style="enable-background:new 0 0 512 512;" xml:space="preserve">
<g>
	<g transform="translate(1 1)">
		<path style="fill:#CFD8DC;" d="M400.067,310.211v192.256H109.933V309.016c0.003-18.169,9.961-34.875,25.941-43.52l44.715-25.941
			l19.2-11.093c7.262-3.936,11.783-11.536,11.776-19.797v-9.473c-10.652-13.666-18.299-29.426-22.443-46.251
			c-5.915-3.175-9.969-8.971-10.923-15.616v-24.661c0.919-5.527,3.986-10.466,8.533-13.739V63.171c0,0-6.485-49.152,55.467-55.04
			c4.253-0.424,8.526-0.624,12.8-0.598c75.605,0,68.267,55.637,68.267,55.637v35.755c4.547,3.274,7.615,8.213,8.533,13.74v24.66
			c-1.037,8.528-7.205,15.544-15.531,17.664c-4.212,13.216-10.428,25.706-18.432,37.035c-1.753,2.485-3.633,4.877-5.632,7.168
			v10.069c0.023,8.549,4.881,16.349,12.544,20.139l47.957,25.771l19.883,10.667C389.399,274.247,400.03,291.415,400.067,310.211z"/>
		<path style="fill:#F5F5F5;" d="M374.467,310.211v192.256H109.933V309.016c0.003-18.169,9.961-34.875,25.941-43.52l44.715-25.941
			l19.2-11.093c7.262-3.936,11.783-11.536,11.776-19.797v-9.473c-10.652-13.666-18.299-29.426-22.443-46.251
			c-5.915-3.175-9.969-8.971-10.923-15.616v-24.661c0.919-5.527,3.986-10.466,8.533-13.739V63.171c0,0-6.485-49.152,55.467-55.04
			c61.952,5.888,55.467,55.04,55.467,55.04v35.755c4.547,3.274,7.615,8.213,8.533,13.74v24.66
			c-1.037,8.528-7.205,15.544-15.531,17.664c-4.212,13.216-10.428,25.706-18.432,37.035c-1.753,2.485-3.633,4.877-5.632,7.168
			v10.069c0.023,8.549,4.881,16.349,12.544,20.139l67.84,36.437C363.799,274.247,374.43,291.415,374.467,310.211z"/>
		<circle style="fill:#F44335;" cx="255" cy="374.467" r="85.333"/>
		<circle style="fill:#FFFFFF;" cx="255" cy="374.467" r="51.2"/>
		<circle style="fill:#F44335;" cx="255" cy="374.467" r="17.067"/>
	</g>
	<g>
		<path d="M377.475,259.275l-67.933-36.508c-4.765-2.349-7.779-7.204-7.771-12.517v-6.958c1.267-1.575,2.625-3.367,4.033-5.35
			c7.716-10.911,13.872-22.845,18.287-35.458c9.856-4.123,16.532-13.465,17.242-24.125v-24.725
			c-0.413-6.696-3.486-12.948-8.533-17.367V64.625c1.208-15.209-3.645-30.278-13.5-41.925C306.1,7.633,284.804,0,256,0
			c-28.809,0-50.104,7.642-63.304,22.7c-9.853,11.648-14.703,26.717-13.496,41.925v31.642c-5.048,4.418-8.12,10.671-8.533,17.367
			v24.725c0.6,8.354,4.99,15.974,11.917,20.683c4.349,15.898,11.62,30.847,21.442,44.083v6.55
			c-0.029,5.204-2.924,9.968-7.529,12.392l-63.692,36.892c-18.73,10.145-30.4,29.732-30.404,51.033v193.475
			c-0.001,2.263,0.898,4.434,2.499,6.035c1.6,1.6,3.771,2.499,6.035,2.499h290.133c2.264,0.001,4.435-0.897,6.035-2.498
			c1.601-1.601,2.499-3.772,2.498-6.035V311.2C409.661,289.184,397.203,269.048,377.475,259.275z M392.533,494.933H119.467V309.992
			c0.026-15.122,8.355-29.007,21.683-36.15l63.696-36.892c10.007-5.425,16.241-15.892,16.246-27.275v-9.492
			c0-2.006-0.706-3.947-1.996-5.483c-9.811-12.621-16.854-27.168-20.671-42.692c-0.501-2.166-1.825-4.052-3.692-5.258
			c-4.054-2.617-7-6.142-7-8.392v-24.725c0-0.525,0.413-2.6,5.708-7.367c1.797-1.618,2.824-3.923,2.825-6.341v-35.75
			c0-0.373-0.025-0.747-0.075-1.117c-0.757-10.544,2.59-20.973,9.342-29.108c9.812-11.2,26.796-16.883,50.467-16.883
			c23.55,0,40.479,5.625,50.317,16.717c6.844,8.157,10.247,18.655,9.492,29.275c-0.05,0.37-0.075,0.743-0.075,1.117v35.75
			c0.001,2.418,1.028,4.723,2.825,6.342c5.296,4.767,5.709,6.842,5.709,7.367v24.725c0,3.875-5.008,8.108-9.5,9.492
			c-2.664,0.817-4.76,2.882-5.617,5.533c-3.951,12.374-9.773,24.071-17.263,34.683c-1.571,2.24-3.255,4.398-5.046,6.467
			c-1.379,1.559-2.139,3.569-2.138,5.65v10.067c-0.056,11.701,6.527,22.423,16.987,27.667l67.817,36.45l0.237,0.125
			c13.981,6.882,22.823,21.125,22.788,36.708L392.533,494.933z"/>
		<path d="M256,281.6c-51.841,0-93.867,42.026-93.867,93.867s42.026,93.867,93.867,93.867s93.867-42.026,93.867-93.867
			C349.808,323.65,307.817,281.659,256,281.6z M256,452.267c-42.415,0-76.8-34.385-76.8-76.8s34.385-76.8,76.8-76.8
			s76.8,34.385,76.8,76.8C332.752,417.862,298.396,452.219,256,452.267z"/>
		<path d="M256,315.733c-32.99,0-59.733,26.744-59.733,59.733S223.01,435.2,256,435.2s59.733-26.743,59.733-59.733
			C315.695,342.493,288.974,315.772,256,315.733z M256,418.133c-23.564,0-42.667-19.103-42.667-42.667
			c0-23.564,19.103-42.667,42.667-42.667s42.667,19.103,42.667,42.667C298.639,399.019,279.553,418.106,256,418.133z"/>
		<path d="M256,349.867c-14.139,0-25.6,11.462-25.6,25.6c0,14.138,11.462,25.6,25.6,25.6c14.138,0,25.6-11.462,25.6-25.6
			C281.584,361.335,270.132,349.882,256,349.867z M256,384c-4.713,0-8.533-3.821-8.533-8.533c0-4.713,3.821-8.533,8.533-8.533
			s8.533,3.821,8.533,8.533C264.529,380.178,260.711,383.995,256,384z"/>
		<path d="M151.125,301.141c-0.816-0.771-1.772-1.379-2.817-1.792c-2.077-0.858-4.41-0.858-6.487,0
			c-1.044,0.412-1.998,1.02-2.813,1.792c-0.755,0.829-1.363,1.782-1.796,2.817c-0.906,2.066-0.906,4.417,0,6.483
			c0.78,2.141,2.467,3.828,4.608,4.608c2.067,0.911,4.421,0.911,6.487,0c1.034-0.433,1.987-1.039,2.817-1.792
			c0.751-0.832,1.357-1.784,1.792-2.817c0.911-2.065,0.911-4.418,0-6.483C152.484,302.924,151.878,301.972,151.125,301.141z"/>
		<path d="M364.459,454.702c-0.816-0.771-1.772-1.379-2.817-1.792c-2.077-0.858-4.41-0.858-6.487,0
			c-1.044,0.412-1.998,1.02-2.813,1.792c-0.755,0.829-1.363,1.782-1.796,2.817c-0.906,2.066-0.906,4.417,0,6.483
			c0.78,2.141,2.467,3.828,4.608,4.608c2.066,0.911,4.421,0.911,6.487,0c1.034-0.433,1.987-1.039,2.817-1.792
			c0.751-0.832,1.357-1.784,1.792-2.817c0.911-2.065,0.911-4.418,0-6.483C365.817,456.485,365.211,455.532,364.459,454.702z"/>
		<path d="M372.992,309.675c-0.816-0.771-1.772-1.379-2.817-1.792c-2.077-0.858-4.41-0.858-6.487,0
			c-1.044,0.412-1.998,1.02-2.813,1.792c-0.755,0.829-1.363,1.782-1.796,2.817c-0.906,2.066-0.906,4.417,0,6.483
			c0.78,2.141,2.467,3.828,4.608,4.608c2.066,0.911,4.421,0.911,6.487,0c1.034-0.433,1.987-1.039,2.817-1.792
			c0.751-0.832,1.357-1.784,1.792-2.817c0.911-2.065,0.911-4.418,0-6.483C374.35,311.457,373.745,310.505,372.992,309.675z"/>
		<path d="M241.408,151.125c0.829,0.753,1.78,1.359,2.813,1.792c2.066,0.911,4.421,0.911,6.487,0
			c1.034-0.433,1.987-1.039,2.817-1.792c0.751-0.832,1.357-1.784,1.792-2.817c0.911-2.065,0.911-4.418,0-6.483
			c-0.433-1.034-1.039-1.986-1.792-2.817c-0.816-0.771-1.772-1.379-2.817-1.792c-2.077-0.858-4.41-0.858-6.487,0
			c-1.044,0.412-1.998,1.02-2.813,1.792c-0.755,0.829-1.363,1.782-1.796,2.817c-0.906,2.066-0.906,4.417,0,6.483
			C240.047,149.342,240.654,150.295,241.408,151.125z"/>
	</g>
</g>
<g>
</g>
<g>
</g>
<g>
</g>
<g>
</g>
<g>
</g>
<g>
</g>
<g>
</g>
<g>
</g>
<g>
</g>
<g>
</g>
<g>
</g>
<g>
</g>
<g>
</g>
<g>
</g>
<g>
</g>
</svg>
