<?xml version="1.0" encoding="iso-8859-1"?>
<!-- Generator: Adobe Illustrator 19.0.0, SVG Export Plug-In . SVG Version: 6.00 Build 0)  -->
<svg version="1.1" id="Capa_1" xmlns="http://www.w3.org/2000/svg" xmlns:xlink="http://www.w3.org/1999/xlink" x="0px" y="0px"
	 viewBox="0 0 511.979 511.979" style="enable-background:new 0 0 511.979 511.979;" xml:space="preserve">
<g>
	<g transform="translate(1 1)">
		<path style="fill:#424242;" d="M459.789,263.512l-23.296,85.333l-9.301,34.133l-16.213,59.477
			c-1.49,5.518-5.661,9.914-11.093,11.691l-136.363,45.482l-8.533,2.817l-8.533-2.817l-4.267-1.45l-132.096-44.032
			c-5.433-1.777-9.603-6.172-11.093-11.691l-16.213-59.477l-9.301-34.133l-23.296-85.333c1.536-0.256,3.072-0.513,4.608-0.854
			c54.784-11.007,70.741-50.175,74.24-82.175c0.341-3.158,0.512-6.4,0.597-9.558c0.368-17.832-2.614-35.575-8.789-52.308
			l-4.011-11.093L92.856,41.646l57.941-28.928l10.325-5.205v0.085c0,0,1.28,0.512,3.584,1.365c0.439,0.104,0.867,0.247,1.28,0.427
			c0.768,0.256,1.621,0.597,2.645,0.853c0.085,0.085,0.256,0.085,0.427,0.171c0.512,0.171,1.109,0.341,1.792,0.597
			c15.35,4.872,31.077,8.469,47.019,10.752c2.56,0.427,5.12,0.768,7.851,1.024c1.963,0.256,4.096,0.427,6.144,0.683
			c3.243,0.341,6.571,0.597,9.984,0.683c0.085,0.085,0.171,0.085,0.341,0c1.792,0.171,3.669,0.256,5.461,0.256
			c2.389,0.171,4.864,0.171,7.339,0.171c2.389,0,4.693,0,6.997-0.085c1.707-0.085,3.328-0.171,5.035-0.256
			c3.925-0.171,7.765-0.427,11.52-0.853c3.84-0.341,7.509-0.768,11.093-1.28l5.376-0.768c1.707-0.256,3.413-0.512,5.12-0.853
			c3.413-0.597,6.656-1.195,9.728-1.877c2.901-0.597,5.717-1.195,8.363-1.877c5.803-1.365,10.923-2.816,15.275-4.096
			c1.195-0.341,2.389-0.683,3.413-1.024c1.109-0.341,2.133-0.683,3.072-0.939c0.939-0.341,1.877-0.597,2.645-0.853
			c0.132-0.079,0.276-0.137,0.427-0.171c1.109-0.427,2.048-0.683,2.816-1.024c1.963-0.683,2.987-1.109,2.987-1.109l68.267,34.133
			l-23.979,65.877l-4.011,11.093c-6.176,16.733-9.157,34.476-8.789,52.308c0.085,3.158,0.256,6.4,0.597,9.558
			C384.525,213.336,401.251,253.784,459.789,263.512z"/>
		<path style="fill:#9E9E9E;" d="M434.189,263.512l-23.296,85.333l-9.301,34.133l-16.213,59.477
			c-1.49,5.518-5.661,9.914-11.093,11.691l-110.763,36.949l-17.067,5.718l-4.267,1.365l-132.096-44.032
			c-5.433-1.777-9.603-6.172-11.093-11.691l-16.213-59.477l-9.301-34.133l-23.296-85.333c1.536-0.256,3.072-0.513,4.608-0.854
			c54.784-11.007,70.741-50.175,74.24-82.175c0.341-3.158,0.512-6.4,0.597-9.558c0.368-17.832-2.614-35.575-8.789-52.308
			l-4.011-11.093L92.856,41.646l57.941-28.928c3.413,1.024,7.339,2.133,11.776,3.157c21.834,5.615,44.272,8.539,66.816,8.704
			c4.267,0,8.363-0.085,12.459-0.427c0.085,0.085,0.171,0.085,0.341,0c27.691-1.547,55.005-7.154,81.067-16.64l10.24,5.12
			l13.141,6.571l44.885,22.443l-23.979,65.877l-4.011,11.093c-2.894,7.994-5.12,16.213-6.656,24.575
			c-1.649,9.148-2.364,18.44-2.133,27.733c0.085,2.902,0.256,5.889,0.512,8.789c0,0.256,0.085,0.513,0.085,0.769
			C358.925,213.336,375.651,253.784,434.189,263.512z"/>
		<path style="fill:#607D8B;" d="M348.856,7.512c0,0-8.533,85.333-93.867,85.333c-83.541,0-93.44-81.749-93.867-85.248
			c30.102,10.933,61.842,16.675,93.867,16.981C287.021,24.269,318.765,18.497,348.856,7.512z"/>
		<g>
			<path style="fill:#02A9F4;" d="M436.493,348.846l-9.301,34.133h-61.269c-27.279-0.058-51.068-18.55-57.856-44.971
				c-0.991-3.701-4.36-6.264-8.192-6.229h-89.771c-3.832-0.034-7.201,2.528-8.192,6.229c-6.788,26.421-30.577,44.912-57.856,44.971
				H82.787l-9.301-34.133h70.571c14.13-0.021,25.579-11.47,25.6-25.6c-0.009-6.792,2.685-13.309,7.488-18.112
				s11.32-7.497,18.112-7.488h119.467c14.13,0.021,25.579,11.47,25.6,25.6c-0.009,6.792,2.685,13.309,7.488,18.112
				c4.803,4.803,11.32,7.497,18.112,7.488H436.493z"/>
			<path style="fill:#02A9F4;" d="M393.144,107.523l-4.011,11.093c-6.176,16.733-9.157,34.476-8.789,52.308
				c-4.998,2.756-10.295,4.932-15.787,6.485c-2.901,0.769-6.059,1.536-9.301,2.304c-6.229,1.537-13.141,3.073-20.224,4.608
				c-18.347,4.011-56.491,12.373-62.635,19.2c-4.061,5.684-10.64,9.028-17.625,8.96c-6.985-0.068-13.498-3.54-17.447-9.302
				c-5.888-6.485-44.032-14.848-62.379-18.859c-10.837-2.389-21.077-4.608-29.525-6.913c-5.492-1.553-10.789-3.729-15.787-6.485
				c0.368-17.832-2.614-35.575-8.789-52.308l-4.011-11.093c9.301,14.08,26.112,33.28,40.789,37.376
				c7.339,1.963,16.981,4.096,27.221,6.315c22.746,4.114,45.018,10.518,66.475,19.115c2.32,1.109,5.018,1.109,7.339,0
				c21.457-8.597,43.729-15.001,66.475-19.115c10.24-2.219,19.883-4.352,27.221-6.315c1.543-0.47,3.054-1.04,4.523-1.707
				C371.65,134.381,384.089,122.147,393.144,107.523z"/>
		</g>
	</g>
	<g>
		<path d="M462.189,256.095c-42.933-7.133-67.075-32.55-71.767-75.533c-0.317-2.925-0.467-5.942-0.542-8.883
			c-0.358-16.761,2.449-33.439,8.275-49.158l27.983-76.958c1.483-4.073-0.324-8.61-4.2-10.55L353.673,0.879
			c-0.096-0.048-0.203-0.063-0.301-0.106c-0.178-0.081-0.36-0.125-0.544-0.194c-0.783-0.295-1.606-0.473-2.441-0.526
			C350.205,0.041,350.036,0,349.855,0c-0.97,0.013-1.93,0.191-2.84,0.527c-0.107,0.039-0.219,0.017-0.325,0.06
			c-29.089,10.562-59.755,16.126-90.7,16.458c-30.943-0.353-61.606-5.917-90.7-16.458c-0.105-0.042-0.213-0.021-0.319-0.059
			c-0.917-0.339-1.886-0.517-2.864-0.527c-0.194,0-0.372,0.043-0.564,0.056c-0.816,0.056-1.619,0.231-2.385,0.519
			c-0.198,0.074-0.396,0.12-0.588,0.209c-0.085,0.039-0.179,0.051-0.264,0.094L90.039,35.012c-3.876,1.94-5.683,6.477-4.2,10.55
			l27.983,76.942c1.49,4.137,2.781,8.273,3.873,12.405c3.232,11.989,4.715,24.382,4.402,36.795c-0.075,2.917-0.225,5.933-0.542,8.85
			c-4.692,42.992-28.833,68.408-71.767,75.542c-2.381,0.395-4.482,1.779-5.785,3.811c-1.302,2.031-1.683,4.519-1.048,6.847
			l48.792,178.892c2.2,8.309,8.467,14.934,16.642,17.592l144.9,48.3c1.752,0.589,3.648,0.589,5.4,0l144.858-48.283
			c8.176-2.644,14.453-9.255,16.667-17.558l48.808-178.941c0.635-2.328,0.254-4.816-1.048-6.847S464.57,256.49,462.189,256.095
			L462.189,256.095z M363.314,170.179c-7.825,2.125-17.375,4.225-27.483,6.45l-1.625,0.358
			c-43.683,9.567-61.258,15.275-67.15,21.825c-0.34,0.373-0.644,0.778-0.908,1.208c-2.491,3.157-6.307,4.977-10.328,4.925
			c-4.021-0.052-7.789-1.971-10.197-5.192c-0.284-0.467-0.614-0.905-0.983-1.308c-5.7-6.283-23.192-11.9-66.859-21.458l-1.633-0.358
			c-10.108-2.225-19.658-4.325-27.45-6.442c-3.251-0.908-6.422-2.078-9.483-3.5c-0.02-1.698-0.191-3.41-0.273-5.115
			c-0.075-1.56-0.123-3.116-0.25-4.68c-0.252-3.107-0.655-6.224-1.113-9.345c-0.177-1.204-0.284-2.402-0.492-3.608
			c-0.045-0.259-0.06-0.517-0.106-0.777c5.661,4.946,12.275,8.681,19.433,10.975c7.792,2.092,17.925,4.317,27.592,6.409
			c22.115,4.018,43.78,10.204,64.683,18.467c4.617,2.192,9.975,2.192,14.592,0c20.895-8.258,42.552-14.441,64.658-18.458
			c9.7-2.1,19.833-4.325,27.708-6.442c7.159-2.295,13.77-6.038,19.421-10.996c-1.35,7.724-2.064,15.545-2.135,23.385
			C369.833,167.988,366.616,169.218,363.314,170.179z M338.616,21.345c-6.133,22.334-25.253,63.967-82.627,63.967
			c-57.111,0-76.353-41.612-82.57-63.95c26.765,8.205,54.576,12.499,82.57,12.75C284.003,33.861,311.833,29.561,338.616,21.345z
			 M155.906,21.162c6.234,25.042,28.233,81.217,100.083,81.217s93.85-56.175,100.083-81.217l51.433,25.717l-20.956,57.623
			c-9.335,13.925-24.226,30.036-35.402,33.152c-7.425,1.992-17.325,4.158-26.858,6.225c-23.378,4.257-46.269,10.857-68.325,19.7
			c-22.047-8.854-44.933-15.457-68.308-19.708c-9.5-2.058-19.4-4.225-26.742-6.192c-11.254-3.14-26.14-19.242-35.475-33.162
			l-20.966-57.638L155.906,21.162z M421.685,375.446h-54.762c-23.382,0.012-43.793-15.836-49.575-38.492
			c-1.911-7.524-8.712-12.77-16.475-12.708h-89.767c-7.744-0.068-14.536,5.156-16.458,12.658
			c-5.771,22.677-26.192,38.548-49.592,38.542H90.292l-4.655-17.067h59.419c18.844-0.019,34.115-15.29,34.133-34.133
			c0.012-9.421,7.646-17.054,17.067-17.067h119.467c9.421,0.012,17.054,7.646,17.067,17.067
			c0.019,18.844,15.29,34.115,34.133,34.133h59.418L421.685,375.446z M403.731,441.262c-0.758,2.738-2.84,4.913-5.542,5.792
			L264.523,491.61V375.446c0-4.713-3.821-8.533-8.533-8.533c-4.713,0-8.533,3.82-8.533,8.533v116.164l-133.708-44.572
			c-2.7-0.892-4.772-3.08-5.517-5.825l-13.283-48.7h50.108c31.132,0.038,58.326-21.042,66.05-51.2l89.692-0.192
			c7.692,30.239,34.923,51.403,66.125,51.392h50.106L403.731,441.262z M430.996,341.312h-64.073
			c-9.421-0.012-17.054-7.646-17.067-17.067c-0.019-18.844-15.29-34.115-34.133-34.133H196.256
			c-18.844,0.019-34.115,15.29-34.133,34.133c-0.012,9.421-7.646,17.054-17.067,17.067H80.982L61.823,271.07
			c43.764-10.406,70.663-40.793,76.389-86.47c1.986,0.728,3.967,1.492,5.97,2.045c8.233,2.242,17.983,4.383,28.308,6.65l1.633,0.358
			c33.8,7.4,53.225,12.858,57.609,16.05c5.608,7.668,14.512,12.232,24.012,12.308c9.5,0.076,18.475-4.346,24.205-11.924
			c4.65-3.508,24.125-9.033,57.917-16.433l1.625-0.358c10.325-2.267,20.075-4.408,28.342-6.658c1.986-0.549,3.959-1.31,5.935-2.035
			c5.724,45.673,32.624,76.062,76.39,86.469L430.996,341.312z"/>
		<path d="M255.989,238.912c-2.264-0.001-4.435,0.897-6.035,2.498s-2.499,3.772-2.498,6.035v17.067c0,4.713,3.821,8.533,8.533,8.533
			c4.713,0,8.533-3.821,8.533-8.533v-17.067c0.001-2.264-0.897-4.435-2.498-6.035S258.253,238.911,255.989,238.912z"/>
	</g>
</g>
<g>
</g>
<g>
</g>
<g>
</g>
<g>
</g>
<g>
</g>
<g>
</g>
<g>
</g>
<g>
</g>
<g>
</g>
<g>
</g>
<g>
</g>
<g>
</g>
<g>
</g>
<g>
</g>
<g>
</g>
</svg>
