<?xml version="1.0" encoding="iso-8859-1"?>
<!-- Generator: Adobe Illustrator 19.0.0, SVG Export Plug-In . SVG Version: 6.00 Build 0)  -->
<svg version="1.1" id="Capa_1" xmlns="http://www.w3.org/2000/svg" xmlns:xlink="http://www.w3.org/1999/xlink" x="0px" y="0px"
	 viewBox="0 0 512.252 512.252" style="enable-background:new 0 0 512.252 512.252;" xml:space="preserve">
<g transform="translate(0 -1)">
	<g transform="translate(1 2)">
		<rect x="425.792" y="348.879" style="fill:#795548;" width="34.133" height="126.037"/>
		<path style="fill:#F44335;" d="M348.991,75.813v290.133L178.325,502.479L7.658,365.946V75.813
			c136.533,25.6,170.667-68.267,170.667-68.267S212.458,101.413,348.991,75.813z"/>
		<path style="fill:#F4F4F4;" d="M41.791,349.538V114.129c3.617,0.158,7.189,0.239,10.717,0.242
			c62.392,0,101.917-23.925,125.825-47.792c23.9,23.867,63.425,47.783,125.808,47.792h0.025c3.517,0,7.081-0.081,10.692-0.242
			v235.408L178.325,458.771L41.791,349.538z"/>
		<path style="fill:#F44335;" d="M263.658,186.746h-42.667c-4.713,0-8.533-3.82-8.533-8.533v-34.133
			c0-4.713-3.821-8.533-8.533-8.533h-51.2c-4.713,0-8.533,3.821-8.533,8.533v34.133c0,4.713-3.82,8.533-8.533,8.533H92.991
			c-4.713,0-8.533,3.821-8.533,8.533v51.2c0,4.713,3.821,8.533,8.533,8.533h42.667c4.713,0,8.533,3.821,8.533,8.533v119.467
			c0,4.713,3.821,8.533,8.533,8.533h51.2c4.713,0,8.533-3.82,8.533-8.533V263.546c0-4.713,3.821-8.533,8.533-8.533h42.667
			c4.713,0,8.533-3.821,8.533-8.533v-51.2C272.191,190.566,268.371,186.746,263.658,186.746z"/>
		<circle style="fill:#FF9801;" cx="442.858" cy="476.879" r="25.6"/>
		<polygon style="fill:#CFD8DC;" points="485.525,58.746 485.525,340.346 400.191,340.346 400.191,58.746 430.57,22.906 
			443.541,7.546 		"/>
		<path style="fill:#F5F5F5;" d="M459.925,58.746v281.6h-74.496c0.737-1.292,1.657-2.47,2.731-3.499
			c3.161-3.241,7.504-5.059,12.032-5.035V58.746l30.379-35.84L459.925,58.746z"/>
		<path style="fill:#FF9801;" d="M502.592,348.879c-0.069,9.397-7.67,16.998-17.067,17.067h-85.333
			c-6.101,0.009-11.74-3.244-14.788-8.529c-3.048-5.285-3.038-11.795,0.025-17.071c0.737-1.292,1.657-2.47,2.731-3.499
			c3.161-3.241,7.504-5.059,12.032-5.035h85.333C494.939,331.84,502.564,339.465,502.592,348.879z"/>
	</g>
	<g>
		<path d="M173.991,511.146c3.12,2.489,7.547,2.489,10.667,0l170.667-136.533c2.023-1.622,3.2-4.074,3.2-6.667V77.813
			c0.001-2.539-1.13-4.946-3.084-6.567c-1.954-1.621-4.529-2.287-7.024-1.816c-127.208,23.842-159.758-59.267-161.075-62.8
			c-1.224-3.359-4.416-5.596-7.992-5.6h-0.034c-3.569,0.005-6.759,2.228-8,5.575c-1.325,3.558-33.733,86.675-161.083,62.825
			c-2.495-0.47-5.07,0.195-7.024,1.816c-1.954,1.621-3.085,4.028-3.084,6.567v290.133c0,2.593,1.177,5.045,3.2,6.667
			L173.991,511.146z M17.191,87.913c100.058,15.108,145.492-34.15,162.133-60.275c16.633,26.125,62.05,75.392,162.133,60.275
			v275.933L179.325,493.554L17.191,363.846V87.913z"/>
		<path d="M184.658,467.438l136.533-109.233c2.023-1.622,3.2-4.074,3.2-6.667V116.129c0-2.329-0.951-4.556-2.633-6.167
			c-1.666-1.635-3.945-2.491-6.275-2.358c-53.825,2.325-97.942-12.933-130.116-45.067c-3.335-3.317-8.723-3.317-12.058,0
			c-32.192,32.133-76.05,47.383-130.142,45.067c-2.326-0.103-4.594,0.749-6.276,2.359c-1.682,1.61-2.633,3.838-2.633,6.166v235.408
			c0,2.593,1.177,5.045,3.2,6.667l136.533,109.233C177.111,469.927,181.538,469.927,184.658,467.438z M51.325,347.438V124.896
			c63.158,0.367,103.792-22.783,128.009-44.567c23.925,21.525,63.983,44.567,125.833,44.575c0.717,0,1.434,0,2.158-0.009v222.542
			l-128,102.409L51.325,347.438z"/>
		<path d="M221.992,385.013V265.546h42.667c9.421-0.012,17.054-7.646,17.067-17.067v-51.2c-0.012-9.421-7.646-17.054-17.067-17.067
			h-42.667v-34.133c-0.012-9.421-7.646-17.054-17.067-17.067h-51.2c-9.421,0.012-17.054,7.646-17.067,17.067v34.133H93.991
			c-9.421,0.012-17.054,7.646-17.067,17.067v51.2c0.012,9.421,7.646,17.054,17.067,17.067h42.667v119.467
			c0.012,9.421,7.646,17.054,17.067,17.067h51.2C214.345,402.067,221.979,394.433,221.992,385.013z M136.658,248.479H93.991v-51.2
			h42.667c9.421-0.012,17.054-7.646,17.067-17.067v-34.133h51.2v34.133c0.012,9.421,7.646,17.054,17.067,17.067h42.667v51.2h-42.667
			c-9.421,0.012-17.054,7.646-17.067,17.067v119.467h-51.2V265.546C153.713,256.125,146.079,248.492,136.658,248.479z"/>
		<path d="M443.858,129.013c2.264,0.001,4.435-0.897,6.035-2.498c1.601-1.601,2.499-3.772,2.498-6.035v-25.6
			c0-4.713-3.821-8.533-8.533-8.533c-4.713,0-8.533,3.821-8.533,8.533v25.6c-0.001,2.264,0.897,4.435,2.498,6.035
			C439.423,128.115,441.595,129.014,443.858,129.013z"/>
		<path d="M486.525,376.479c12.458,0.031,23.12-8.931,25.231-21.209c2.111-12.278-4.945-24.287-16.698-28.418V60.746
			c-0.001-1.974-0.684-3.888-1.933-5.417l-42.008-51.2c-1.609-1.955-4.001-3.096-6.533-3.117c-2.56-0.146-5.027,0.987-6.583,3.025
			l-43.325,51.2c-1.302,1.54-2.017,3.492-2.017,5.508v266.106c-11.753,4.132-18.809,16.141-16.698,28.418
			c2.111,12.278,12.773,21.24,25.231,21.209h17.067v80.06c-12.103,13.723-11.233,34.548,1.973,47.214
			c13.206,12.665,34.049,12.665,47.255,0c13.206-12.665,14.076-33.491,1.973-47.214v-80.06H486.525z M409.725,63.871l34.692-40.992
			l33.575,40.917v261.483h-25.6V154.613c0-4.713-3.821-8.533-8.533-8.533c-4.713,0-8.533,3.82-8.533,8.533v170.667h-25.6V63.871z
			 M392.658,350.879c0.003-4.712,3.822-8.53,8.533-8.533h85.333c4.713,0,8.533,3.821,8.533,8.533c0,4.713-3.82,8.533-8.533,8.533
			h-85.333C396.48,359.409,392.661,355.591,392.658,350.879z M443.858,495.946c-9.426,0-17.067-7.641-17.067-17.067
			s7.641-17.067,17.067-17.067c9.426,0,17.067,7.641,17.067,17.067C460.913,488.3,453.279,495.934,443.858,495.946z
			 M452.392,445.958c-5.574-1.615-11.492-1.615-17.067,0v-69.478h17.067V445.958z"/>
	</g>
</g>
<g>
</g>
<g>
</g>
<g>
</g>
<g>
</g>
<g>
</g>
<g>
</g>
<g>
</g>
<g>
</g>
<g>
</g>
<g>
</g>
<g>
</g>
<g>
</g>
<g>
</g>
<g>
</g>
<g>
</g>
</svg>
