<?xml version="1.0" encoding="iso-8859-1"?>
<!-- Generator: Adobe Illustrator 19.0.0, SVG Export Plug-In . SVG Version: 6.00 Build 0)  -->
<svg version="1.1" id="Capa_1" xmlns="http://www.w3.org/2000/svg" xmlns:xlink="http://www.w3.org/1999/xlink" x="0px" y="0px"
	 viewBox="0 0 511.914 511.914" style="enable-background:new 0 0 511.914 511.914;" xml:space="preserve">
<g transform="translate(0 -1)">
	<g transform="translate(0 2)">
		<path style="fill:#D84315;" d="M502.727,18.524c-34.304,10.411-13.056,59.989-36.267,74.069
			c-11.587,6.845-25.819,7.485-37.973,1.707c-8.524-3.906-15.664-10.302-20.48-18.347c-13.008-19.85-7.513-46.482,12.289-59.563
			c5.853-3.465,12.263-5.89,18.944-7.168C460.853,5.58,483.066,8.834,502.727,18.524z"/>
		<path style="fill:#FF5722;" d="M467.825,18.524c-34.303,10.411-13.055,59.989-36.267,74.069c-1.023,0.597-2.048,1.195-3.071,1.707
			c-8.524-3.906-15.664-10.302-20.48-18.347c-13.008-19.85-7.513-46.482,12.289-59.563c5.853-3.465,12.263-5.89,18.944-7.168
			C449.155,10.976,458.776,14.107,467.825,18.524z"/>
		<g>
			<path style="fill:#607D8B;" d="M412.358,194.481c34.211,69.11,28.479,151.301-14.996,214.992s-117.928,98.975-194.752,92.293
				c70.251-6.13,132.939-46.567,167.491-108.04s36.507-136.046,5.223-199.245l19.967-19.968c3.234-3.168,5.056-7.505,5.056-12.032
				c0-4.527-1.822-8.864-5.056-12.032l-65.963-65.963l6.485-6.485c3.189-3.196,7.518-4.992,12.032-4.992
				c4.515,0,8.844,1.796,12.032,4.992l72.448,72.448c3.196,3.188,4.992,7.518,4.992,12.032c0,4.515-1.796,8.844-4.992,12.032
				L412.358,194.481z"/>
			<path style="fill:#CFD8DC;" d="M375.325,194.481c31.284,63.199,29.329,137.772-5.223,199.245s-97.24,101.91-167.491,108.04
				c-82.111-7.082-152.804-60.814-181.604-138.035S10.448,199.61,67.869,140.489s143.753-79.891,221.781-53.357
				c8.979,2.986,17.733,6.607,26.197,10.837l13.482-13.483l65.963,65.963c3.234,3.168,5.056,7.505,5.056,12.032
				c0,4.527-1.822,8.864-5.056,12.032L375.325,194.481z"/>
		</g>
	</g>
	<g>
		<path d="M345.152,408.864c-2.11,2.207-2.88,5.374-2.018,8.304c0.862,2.93,3.224,5.175,6.193,5.889
			c2.969,0.713,6.094-0.215,8.192-2.434c34.008-35.603,52.461-83.27,51.292-132.492c-0.064-3.049-1.75-5.832-4.422-7.3
			c-2.672-1.469-5.925-1.401-8.533,0.179c-2.608,1.58-4.175,4.431-4.111,7.48C392.808,333.208,376.046,376.515,345.152,408.864z"/>
		<path d="M317.768,432.147c-4.608,3.146-9.475,6.117-14.45,8.833c-2.69,1.452-4.397,4.232-4.477,7.287
			c-0.079,3.056,1.482,5.92,4.093,7.509s5.872,1.661,8.55,0.187c5.46-2.973,10.767-6.218,15.9-9.725
			c2.517-1.718,3.927-4.648,3.698-7.687c-0.229-3.039-2.062-5.725-4.809-7.046C323.527,430.185,320.285,430.429,317.768,432.147
			L317.768,432.147z"/>
		<path d="M414.954,97.834c9.04,6.853,20.054,10.597,31.398,10.672c8.686,0.023,17.211-2.336,24.65-6.821
			c13.967-8.446,15.825-25.083,17.458-39.767c2.017-18.067,3.9-29.333,16.8-33.217c3.345-1.007,5.738-3.952,6.041-7.432
			c0.303-3.48-1.546-6.794-4.666-8.364C481.977,0.535,443.118-5.34,416.01,11.039c-10.986,6.69-18.837,17.499-21.8,30.016
			c-3.305,14.044-0.936,28.825,6.592,41.133c0.719,1.184,1.555,2.246,2.346,3.357c-4.377,4.633-8.187,9.77-11.35,15.304
			l-25.879-25.823c-10.009-9.95-26.174-9.95-36.183,0L313.92,90.805c-97.338-44.66-212.689-13.147-273.801,74.799
			s-50.417,207.045,25.387,282.697s194.923,86.108,282.747,24.82s119.106-176.702,74.251-273.951l15.798-15.761
			c9.978-9.988,9.978-26.171,0-36.158l-33.882-33.808C407.156,107.757,410.704,102.499,414.954,97.834z M428.718,165.331
			c0.013,2.248-0.875,4.408-2.467,5.996l-11.956,11.928c-1.112-1.966-2.081-3.981-3.26-5.925c-2.446-4.027-7.694-5.309-11.721-2.863
			c-4.027,2.446-5.309,7.694-2.863,11.721c53.288,88.6,32.091,203.032-49.395,266.667s-197.644,56.467-270.688-16.704
			C3.343,362.991-3.583,246.834,60.231,165.515s178.287-102.211,266.712-48.676c4.033,2.422,9.265,1.125,11.699-2.901
			s1.153-9.261-2.865-11.707c-1.936-1.17-3.946-2.13-5.905-3.235l11.913-11.886c3.342-3.325,8.742-3.325,12.083,0l34.148,34.073
			l0.252,0.253l37.983,37.9C427.843,160.923,428.732,163.082,428.718,165.331L428.718,165.331z M410.785,45.126
			c1.894-8.111,6.957-15.126,14.058-19.479c9.483-5.23,20.201-7.808,31.025-7.462c9.497,0.057,18.939,1.447,28.05,4.129
			c-9.358,10.229-11.008,25.062-12.417,37.717c-1.375,12.317-2.558,22.954-9.325,27.046c-16.727,9.021-37.599,2.892-46.792-13.742
			C410.199,64.904,408.547,54.768,410.785,45.126z"/>
	</g>
</g>
<g>
</g>
<g>
</g>
<g>
</g>
<g>
</g>
<g>
</g>
<g>
</g>
<g>
</g>
<g>
</g>
<g>
</g>
<g>
</g>
<g>
</g>
<g>
</g>
<g>
</g>
<g>
</g>
<g>
</g>
</svg>
