<?xml version="1.0" encoding="iso-8859-1"?>
<!-- Generator: Adobe Illustrator 19.0.0, SVG Export Plug-In . SVG Version: 6.00 Build 0)  -->
<svg version="1.1" id="Capa_1" xmlns="http://www.w3.org/2000/svg" xmlns:xlink="http://www.w3.org/1999/xlink" x="0px" y="0px"
	 viewBox="0 0 512.003 512.003" style="enable-background:new 0 0 512.003 512.003;" xml:space="preserve">
<g>
	<g transform="translate(1 1)">
		<g>
			<path style="fill:#795548;" d="M135.535,255.002c0.007,5.71,0.406,11.412,1.195,17.067H60.442
				c-3.293,0.043-6.33-1.772-7.851-4.693l-8.875-17.067c-1.328-2.698-1.147-5.895,0.476-8.426c1.624-2.531,4.453-4.029,7.46-3.947
				h85.077C135.941,243.59,135.542,249.292,135.535,255.002z"/>
			<path style="fill:#795548;" d="M466.287,250.308l-8.875,17.067c-1.521,2.921-4.557,4.737-7.851,4.693H136.73
				c-1.593-11.322-1.593-22.811,0-34.133h321.621c3.006-0.082,5.836,1.416,7.46,3.947S467.615,247.61,466.287,250.308z"/>
			<path style="fill:#795548;" d="M147.055,203.802c-5.136,10.795-8.617,22.302-10.325,34.133H25.199
				c-3.31,0.023-6.362-1.782-7.936-4.693l-8.789-17.067c-1.327-2.684-1.159-5.866,0.446-8.394s4.411-4.037,7.405-3.979H147.055z"/>
			<path style="fill:#795548;" d="M501.53,216.175l-8.789,17.067c-1.574,2.911-4.626,4.717-7.936,4.693l-348.075,0
				c1.709-11.832,5.189-23.339,10.325-34.134h346.624c2.994-0.058,5.801,1.451,7.405,3.979S502.857,213.491,501.53,216.175z"/>
			<path style="fill:#795548;" d="M147.055,306.202H95.684c-3.293,0.043-6.33-1.772-7.851-4.693l-8.789-17.067
				c-1.364-2.681-1.212-5.883,0.4-8.424c1.612-2.54,4.444-4.042,7.451-3.95h49.835C138.438,283.9,141.919,295.407,147.055,306.202z"
				/>
			<path style="fill:#795548;" d="M430.959,284.442l-8.789,17.067c-1.521,2.921-4.558,4.736-7.851,4.693H147.055
				c-5.136-10.795-8.617-22.302-10.325-34.133h286.379c3.007-0.092,5.839,1.41,7.451,3.95
				C432.171,278.558,432.323,281.76,430.959,284.442z"/>
			<path style="fill:#795548;" d="M171.46,340.335h-40.448c-3.315,0.045-6.378-1.766-7.936-4.693l-8.789-17.067
				c-1.327-2.562-1.25-5.624,0.203-8.116c1.454-2.492,4.082-4.066,6.965-4.172c0.22-0.07,0.452-0.099,0.683-0.085h24.917
				C153.07,318.955,161.338,330.518,171.46,340.335z"/>
			<path style="fill:#795548;" d="M395.716,318.575l-8.789,17.067c-1.558,2.927-4.621,4.738-7.936,4.693H171.46
				c-10.122-9.817-18.39-21.38-24.405-34.133h240.811c3.007-0.092,5.84,1.409,7.451,3.949
				C396.929,312.691,397.081,315.894,395.716,318.575z"/>
		</g>
		<path style="fill:#FDD834;" d="M374.468,255.002c-0.007,5.71-0.406,11.412-1.195,17.067
			c-8.572,58.742-58.908,102.322-118.272,102.4c-4.275-0.01-8.548-0.238-12.8-0.683c-26.683-2.836-51.619-14.627-70.741-33.451
			c-10.122-9.817-18.39-21.38-24.405-34.133c-5.136-10.795-8.617-22.302-10.325-34.133c-1.593-11.322-1.593-22.811,0-34.133
			c7.834-53.998,51.226-95.845,105.472-101.717c4.252-0.445,8.525-0.673,12.8-0.683c59.383,0.027,109.747,43.632,118.272,102.4
			C374.063,243.59,374.462,249.292,374.468,255.002z"/>
		<path style="fill:#FEC108;" d="M121.455,306.202h0.683c-0.231-0.014-0.462,0.015-0.683,0.085V306.202z"/>
		<path style="fill:#FFEB3A;" d="M348.868,255.002c-0.007,5.71-0.406,11.412-1.195,17.067
			c-7.884,53.972-51.25,95.794-105.472,101.717c-26.683-2.836-51.619-14.627-70.741-33.451c-10.122-9.817-18.39-21.38-24.405-34.133
			c-5.136-10.795-8.617-22.302-10.325-34.133c-1.593-11.322-1.593-22.811,0-34.133c7.834-53.998,51.226-95.845,105.472-101.717
			c41.305,4.463,77.33,30.053,95.147,67.584c5.147,10.79,8.629,22.299,10.325,34.133
			C348.463,243.59,348.862,249.292,348.868,255.002z"/>
		<polygon style="fill:#FF9801;" points="255.002,186.735 276.096,231.68 323.268,238.882 289.135,273.869 297.191,323.268 
			255.002,299.947 212.813,323.268 220.868,273.869 186.735,238.882 233.907,231.68 		"/>
	</g>
	<g>
		<path d="M1.893,221.068l8.817,17.062c2.993,5.772,8.969,9.379,15.471,9.338h9.148c-0.018,2.687,0.61,5.34,1.832,7.733
			l8.816,17.062c2.991,5.772,8.966,9.379,15.467,9.338h9.151c-0.018,2.687,0.61,5.34,1.832,7.733l8.817,17.062
			c2.991,5.772,8.966,9.379,15.467,9.338h9.152c-0.018,2.687,0.609,5.339,1.828,7.733l8.821,17.071
			c2.996,5.766,8.969,9.369,15.467,9.329h37.297c48.863,45.511,124.593,45.511,173.455,0h37.297
			c6.5,0.039,12.474-3.565,15.471-9.333l8.817-17.071c1.219-2.393,1.846-5.044,1.828-7.729h9.152
			c6.499,0.041,12.474-3.564,15.467-9.333l8.813-17.067c1.223-2.393,1.852-5.046,1.835-7.733h9.153
			c6.499,0.041,12.474-3.564,15.467-9.333l8.813-17.067c1.223-2.393,1.852-5.046,1.835-7.733h9.148
			c6.501,0.041,12.476-3.564,15.471-9.333l8.817-17.071c2.72-5.221,2.497-11.486-0.588-16.5c-3.156-5.191-8.808-8.341-14.883-8.296
			H369.122c-22.117-41.985-65.667-68.267-113.121-68.267s-91.004,26.282-113.121,68.267H17.364
			c-6.075-0.046-11.727,3.105-14.883,8.296C-0.603,209.58-0.826,215.846,1.893,221.068z M61.143,264.435l-8.517-16.966h75.807
			c-0.188,2.833-0.432,5.653-0.432,8.533c0,2.88,0.244,5.7,0.432,8.533H73.627L61.143,264.435z M96.41,298.568l-8.517-16.966h42.689
			c1.226,5.788,2.856,11.483,4.879,17.043L96.41,298.568z M131.673,332.701l-8.513-16.966h19.721
			c3.19,5.953,6.845,11.644,10.931,17.021L131.673,332.701z M380.027,332.802h-21.869c4.1-5.39,7.767-11.097,10.965-17.067h19.972
			L380.027,332.802z M415.293,298.668h-38.76c2.027-5.567,3.661-11.27,4.888-17.067h42.935L415.293,298.668z M450.56,264.535
			h-66.991c0.188-2.833,0.432-5.653,0.432-8.533c0-2.88-0.244-5.7-0.432-8.533h76.054L450.56,264.535z M494.944,213.235
			l-9.121,17.167H381.422c-1.228-5.799-2.862-11.504-4.891-17.073L494.944,213.235z M256.002,145.068
			c61.267,0,110.933,49.667,110.933,110.933s-49.667,110.933-110.933,110.933s-110.933-49.667-110.933-110.933
			C145.136,194.763,194.763,145.136,256.002,145.068z M135.47,213.335c-2.027,5.567-3.661,11.27-4.888,17.067H38.364l-12.488-0.1
			l-8.513-16.967H135.47z"/>
		<path d="M212.752,277.743l-7.362,45.15c-0.528,3.225,0.834,6.469,3.506,8.351c2.672,1.882,6.184,2.073,9.044,0.49l38.063-21.037
			l38.063,21.037c2.86,1.582,6.372,1.392,9.044-0.49c2.672-1.882,4.033-5.126,3.506-8.351l-7.362-45.15l31.125-31.9
			c2.233-2.29,2.998-5.636,1.982-8.669c-1.016-3.033-3.642-5.243-6.803-5.727l-42.667-6.517l-19.163-40.821
			c-1.406-2.995-4.416-4.908-7.725-4.908c-3.309,0-6.319,1.913-7.725,4.908l-19.163,40.821l-42.667,6.517
			c-3.162,0.483-5.788,2.694-6.803,5.727s-0.25,6.379,1.982,8.669L212.752,277.743z M236.193,241.118
			c2.813-0.433,5.227-2.237,6.438-4.813l13.371-28.487l13.371,28.487c1.211,2.576,3.624,4.38,6.438,4.813l30.75,4.696
			l-22.533,23.096c-1.892,1.938-2.75,4.66-2.313,7.333l5.229,32.054l-26.813-14.817c-2.569-1.422-5.689-1.422-8.258,0
			l-26.813,14.817l5.229-32.054c0.438-2.673-0.42-5.395-2.313-7.333l-22.533-23.096L236.193,241.118z"/>
	</g>
</g>
<g>
</g>
<g>
</g>
<g>
</g>
<g>
</g>
<g>
</g>
<g>
</g>
<g>
</g>
<g>
</g>
<g>
</g>
<g>
</g>
<g>
</g>
<g>
</g>
<g>
</g>
<g>
</g>
<g>
</g>
</svg>
