<?xml version="1.0" encoding="iso-8859-1"?>
<!-- Generator: Adobe Illustrator 19.0.0, SVG Export Plug-In . SVG Version: 6.00 Build 0)  -->
<svg version="1.1" id="Capa_1" xmlns="http://www.w3.org/2000/svg" xmlns:xlink="http://www.w3.org/1999/xlink" x="0px" y="0px"
	 viewBox="0 0 512.005 512.005" style="enable-background:new 0 0 512.005 512.005;" xml:space="preserve">
<g transform="translate(-1)">
	<g transform="translate(2 1)">
		<path style="fill:#2E7D32;" d="M255.005,105.669l0,51.2H109.938l0-51.2c-0.009-6.792,2.685-13.309,7.488-18.112
			c4.803-4.803,11.32-7.497,18.112-7.488h93.867c10.849-0.053,20.526,6.811,24.064,17.067
			C254.503,99.861,255.023,102.754,255.005,105.669z"/>
		<path style="fill:#4CAF50;" d="M229.405,105.669l0,51.2H84.339v-17.067h25.6v-34.133c-0.009-6.792,2.685-13.309,7.488-18.112
			c4.803-4.803,11.32-7.497,18.112-7.488h68.267c10.919-0.044,20.643,6.897,24.149,17.237
			C228.919,99.989,229.41,102.819,229.405,105.669z"/>
		<path style="fill:#607D8B;" d="M451.272,88.603h51.2v34.133h-51.2c-9.426,0-17.067-7.641-17.067-17.067
			S441.846,88.603,451.272,88.603z"/>
		<path style="fill:#558B30;" d="M374.472,165.403l0,93.867H84.338l0-93.867c-0.018-2.915,0.503-5.808,1.536-8.533
			c3.538-10.256,13.215-17.12,24.064-17.067h238.933c6.792-0.009,13.309,2.685,18.112,7.488
			C371.787,152.094,374.481,158.61,374.472,165.403z"/>
		<path style="fill:#8BC34A;" d="M348.872,165.403l0,93.867H58.739v-17.067h25.6v-76.8c-0.018-2.915,0.503-5.808,1.536-8.533h-1.536
			v-17.067h238.933c6.792-0.009,13.309,2.685,18.112,7.488C346.187,152.094,348.881,158.61,348.872,165.403z"/>
		<g>
			<path style="fill:#CDDC39;" d="M306.205,173.936h68.267v34.133h-68.267c-9.426,0-17.067-7.641-17.067-17.067
				S296.78,173.936,306.205,173.936z"/>
			<path style="fill:#CDDC39;" d="M203.805,173.936h34.133c9.426,0,17.067,7.641,17.067,17.067l0,0
				c0,9.426-7.641,17.067-17.067,17.067h-34.133c-9.426,0-17.067-7.641-17.067-17.067l0,0
				C186.739,181.577,194.38,173.936,203.805,173.936z"/>
		</g>
		<path style="fill:#2E7D32;" d="M451.272,319.003c0.025,20.37-8.085,39.907-22.528,54.272c-5.588,5.688-12.075,10.416-19.2,13.995
			c-10.833,5.627-22.865,8.554-35.072,8.533H84.339c-12.207,0.021-24.239-2.907-35.072-8.533
			c-21.838-11.183-37.006-32.141-40.804-56.38c-3.798-24.239,4.233-48.832,21.604-66.159c14.404-14.384,33.916-22.484,54.272-22.528
			h290.133C416.886,242.206,451.268,276.589,451.272,319.003z"/>
		<path style="fill:#4CAF50;" d="M425.672,319.003c0.025,20.37-8.085,39.907-22.528,54.272c-5.588,5.688-12.075,10.416-19.2,13.995
			c-10.833,5.627-22.865,8.554-35.072,8.533H84.339c-12.207,0.021-24.239-2.907-35.072-8.533
			c-21.838-11.183-37.006-32.141-40.804-56.38c-3.798-24.239,4.233-48.832,21.604-66.159c8.065-8.122,17.869-14.307,28.672-18.091
			v-4.437h290.133c8.726-0.02,17.389,1.482,25.6,4.437C405.172,257.442,425.702,286.457,425.672,319.003z"/>
		<g>
			<circle style="fill:#CDDC39;" cx="84.339" cy="319.003" r="42.667"/>
			<circle style="fill:#CDDC39;" cx="374.472" cy="319.003" r="42.667"/>
			<circle style="fill:#CDDC39;" cx="169.672" cy="284.869" r="17.067"/>
			<circle style="fill:#CDDC39;" cx="229.405" cy="319.003" r="17.067"/>
			<circle style="fill:#CDDC39;" cx="169.672" cy="353.136" r="17.067"/>
			<circle style="fill:#CDDC39;" cx="289.139" cy="284.869" r="17.067"/>
			<circle style="fill:#CDDC39;" cx="289.139" cy="353.136" r="17.067"/>
		</g>
	</g>
	<g>
		<path d="M86.339,268.803c-28.277,0-51.2,22.923-51.2,51.2c0,28.277,22.923,51.2,51.2,51.2s51.2-22.923,51.2-51.2
			C137.508,291.738,114.603,268.833,86.339,268.803z M86.339,354.136c-18.851,0-34.133-15.282-34.133-34.133
			s15.282-34.133,34.133-34.133s34.133,15.282,34.133,34.133C120.452,338.846,105.182,354.116,86.339,354.136z"/>
		<path d="M325.272,320.003c0,28.277,22.923,51.2,51.2,51.2s51.2-22.923,51.2-51.2c0-28.277-22.923-51.2-51.2-51.2
			C348.208,268.833,325.303,291.738,325.272,320.003z M410.605,320.003c0,18.851-15.282,34.133-34.133,34.133
			c-18.851,0-34.133-15.282-34.133-34.133s15.282-34.133,34.133-34.133C395.315,285.889,410.585,301.16,410.605,320.003z"/>
		<path d="M171.672,260.269c-14.138,0-25.6,11.462-25.6,25.6s11.462,25.6,25.6,25.6c14.139,0,25.6-11.462,25.6-25.6
			C197.256,271.737,185.804,260.285,171.672,260.269z M171.672,294.403c-4.713,0-8.533-3.82-8.533-8.533s3.821-8.533,8.533-8.533
			c4.713,0,8.533,3.82,8.533,8.533C180.2,290.58,176.383,294.398,171.672,294.403z"/>
		<path d="M231.405,294.403c-14.138,0-25.6,11.462-25.6,25.6s11.462,25.6,25.6,25.6c14.139,0,25.6-11.462,25.6-25.6
			C256.99,305.871,245.537,294.418,231.405,294.403z M231.405,328.536c-4.713,0-8.533-3.821-8.533-8.533s3.82-8.533,8.533-8.533
			s8.533,3.82,8.533,8.533C239.934,324.713,236.116,328.531,231.405,328.536z"/>
		<path d="M171.672,328.536c-14.138,0-25.6,11.461-25.6,25.6s11.462,25.6,25.6,25.6c14.139,0,25.6-11.462,25.6-25.6
			C197.256,340.004,185.804,328.551,171.672,328.536z M171.672,362.669c-4.713,0-8.533-3.821-8.533-8.533
			c0-4.713,3.821-8.533,8.533-8.533c4.713,0,8.533,3.821,8.533,8.533C180.2,358.847,176.383,362.665,171.672,362.669z"/>
		<path d="M291.139,260.269c-14.138,0-25.6,11.462-25.6,25.6s11.462,25.6,25.6,25.6s25.6-11.462,25.6-25.6
			C316.723,271.737,305.271,260.285,291.139,260.269z M291.139,294.403c-4.713,0-8.533-3.82-8.533-8.533s3.82-8.533,8.533-8.533
			s8.533,3.82,8.533,8.533C299.667,290.58,295.849,294.398,291.139,294.403z"/>
		<path d="M291.139,328.536c-14.138,0-25.6,11.461-25.6,25.6s11.462,25.6,25.6,25.6s25.6-11.462,25.6-25.6
			C316.723,340.004,305.271,328.551,291.139,328.536z M291.139,362.669c-4.713,0-8.533-3.821-8.533-8.533
			c0-4.713,3.82-8.533,8.533-8.533s8.533,3.821,8.533,8.533C299.667,358.847,295.849,362.665,291.139,362.669z"/>
		<path d="M103.405,439.469c4.713,0,8.533-3.82,8.533-8.533s-3.821-8.533-8.533-8.533H43.672c-4.713,0-8.533,3.82-8.533,8.533
			s3.821,8.533,8.533,8.533H103.405z"/>
		<path d="M214.339,439.469c4.713,0,8.533-3.82,8.533-8.533s-3.821-8.533-8.533-8.533h-76.8c-4.713,0-8.533,3.82-8.533,8.533
			s3.821,8.533,8.533,8.533H214.339z"/>
		<path d="M325.272,439.469c4.713,0,8.533-3.82,8.533-8.533s-3.82-8.533-8.533-8.533h-76.8c-4.713,0-8.533,3.82-8.533,8.533
			s3.821,8.533,8.533,8.533H325.272z"/>
		<path d="M470.339,439.469c4.713,0,8.533-3.82,8.533-8.533s-3.82-8.533-8.533-8.533H359.405c-4.713,0-8.533,3.82-8.533,8.533
			s3.82,8.533,8.533,8.533H470.339z"/>
		<path d="M205.805,166.403c-14.139,0-25.6,11.462-25.6,25.6c0,14.139,11.462,25.6,25.6,25.6h34.133c14.138,0,25.6-11.462,25.6-25.6
			c0-14.138-11.462-25.6-25.6-25.6H205.805z M248.472,192.003c-0.005,4.711-3.822,8.529-8.533,8.533h-34.133
			c-4.713,0-8.533-3.821-8.533-8.533s3.821-8.533,8.533-8.533h34.133C244.649,183.474,248.467,187.292,248.472,192.003z"/>
		<path d="M504.472,81.069h-51.2c-10.813,0.033-20.435,6.868-24.028,17.067H264.327c-3.868-15.032-17.4-25.555-32.922-25.6h-93.867
			c-18.843,0.02-34.113,15.29-34.133,34.133v26.812c-15.032,3.868-25.554,17.4-25.6,32.922v68.699
			c-35.023,3.475-64.306,28.123-73.705,62.039s3.019,70.122,31.257,91.128H9.539c-4.713,0-8.533,3.82-8.533,8.533
			s3.821,8.533,8.533,8.533h494.933c4.713,0,8.533-3.82,8.533-8.533s-3.82-8.533-8.533-8.533h-77.018
			c28.238-21.007,40.656-57.212,31.257-91.128c-9.399-33.916-38.683-58.565-73.705-62.039v-68.699
			c-0.02-18.843-15.29-34.113-34.133-34.133h-85.333v-17.067h163.706c3.592,10.199,13.214,17.033,24.027,17.067h51.2
			c2.263,0.001,4.434-0.898,6.035-2.499c1.6-1.6,2.499-3.771,2.499-6.035V89.603c0.001-2.263-0.898-4.434-2.499-6.035
			C508.906,81.968,506.735,81.069,504.472,81.069z M444.739,320.003c-0.043,37.685-30.582,68.224-68.267,68.267H86.339
			c-37.703,0-68.267-30.564-68.267-68.267s30.564-68.267,68.267-68.267h290.133C414.157,251.779,444.695,282.318,444.739,320.003z
			 M367.939,200.536h-59.733c-4.713,0-8.533-3.821-8.533-8.533s3.821-8.533,8.533-8.533h59.733V200.536z M367.939,166.403h-59.733
			c-14.138,0-25.6,11.462-25.6,25.6c0,14.139,11.462,25.6,25.6,25.6h59.733v17.067H94.872v-68.267
			c0.011-9.421,7.645-17.056,17.067-17.067h238.933C360.293,149.347,367.928,156.981,367.939,166.403z M120.472,132.269v-25.6
			c0.011-9.421,7.645-17.056,17.067-17.067h93.867c9.421,0.011,17.056,7.645,17.067,17.067v25.6H120.472z M495.939,115.203h-42.667
			c-4.713,0-8.533-3.821-8.533-8.533s3.821-8.533,8.533-8.533h42.667V115.203z"/>
		<path d="M83.838,305.436c-3.341-3.281-8.701-3.256-12.012,0.054s-3.335,8.671-0.054,12.012l17.067,17.067
			c2.149,2.188,5.307,3.055,8.271,2.27c2.965-0.785,5.28-3.1,6.065-6.065c0.785-2.965-0.082-6.122-2.27-8.271L83.838,305.436z"/>
		<path d="M361.905,334.569c1.6,1.601,3.77,2.5,6.033,2.5s4.433-0.899,6.033-2.5l17.067-17.067
			c3.296-3.338,3.279-8.711-0.038-12.029c-3.317-3.317-8.691-3.334-12.029-0.038l-17.067,17.067c-1.601,1.6-2.5,3.77-2.5,6.033
			C359.406,330.799,360.305,332.969,361.905,334.569z"/>
	</g>
</g>
<g>
</g>
<g>
</g>
<g>
</g>
<g>
</g>
<g>
</g>
<g>
</g>
<g>
</g>
<g>
</g>
<g>
</g>
<g>
</g>
<g>
</g>
<g>
</g>
<g>
</g>
<g>
</g>
<g>
</g>
</svg>
