<?xml version="1.0" encoding="iso-8859-1"?>
<!-- Generator: Adobe Illustrator 19.0.0, SVG Export Plug-In . SVG Version: 6.00 Build 0)  -->
<svg version="1.1" id="Capa_1" xmlns="http://www.w3.org/2000/svg" xmlns:xlink="http://www.w3.org/1999/xlink" x="0px" y="0px"
	 viewBox="0 0 511.89 511.89" style="enable-background:new 0 0 511.89 511.89;" xml:space="preserve">
<g>
	<g transform="translate(2 2)">
		<path style="fill:#37474F;" d="M471.459,254.2L266.232,49.059c-19.195-19.218-45.243-30.016-72.405-30.016
			s-53.21,10.798-72.405,30.016l-72.363,72.363c-19.218,19.195-30.016,45.243-30.016,72.405s10.798,53.21,30.016,72.405
			L254.2,471.459c40.01,39.936,104.801,39.936,144.811,0l72.448-72.448C511.395,359.001,511.395,294.211,471.459,254.2z
			 M145.571,145.571c-9.991,9.991-26.19,9.991-36.181,0s-9.991-26.19,0-36.181s26.19-9.991,36.181,0
			C155.555,119.384,155.555,135.577,145.571,145.571z"/>
		<path style="fill:#CFD8DC;" d="M467.427,254.2L262.2,49.059c-19.195-19.218-45.243-30.016-72.405-30.016
			s-53.21,10.798-72.405,30.016l-72.363,72.363c-19.218,19.195-30.016,45.243-30.016,72.405s10.798,53.21,30.016,72.405
			l205.141,205.227c40.01,39.936,104.801,39.936,144.811,0l72.448-72.448C507.363,359.001,507.363,294.211,467.427,254.2z
			 M141.539,145.571c-9.991,9.991-26.19,9.991-36.181,0s-9.991-26.19,0-36.181s26.19-9.991,36.181,0
			C151.523,119.384,151.523,135.577,141.539,145.571z"/>
		<path style="fill:#00BCD4;" d="M435.192,362.83l-72.363,72.363c-20.022,19.968-52.426,19.968-72.448,0L85.24,230.051
			c-9.078-8.993-14.387-21.108-14.848-33.877c35.458,9.616,73.35-0.475,99.328-26.453s36.07-63.871,26.453-99.328
			c12.77,0.461,24.884,5.77,33.877,14.848l205.141,205.141C455.16,310.403,455.16,342.808,435.192,362.83z"/>
		<path style="fill:#607D8B;" d="M467.448,399.011l-1.451,1.451c23.885-40.245,17.458-91.561-15.616-124.672L245.155,70.648
			c-19.195-19.218-45.243-30.016-72.405-30.016s-53.21,10.798-72.405,30.016L29.432,141.56c4.373-7.319,9.616-14.081,15.616-20.139
			l72.363-72.363c19.195-19.218,45.243-30.016,72.405-30.016c27.162,0,53.21,10.798,72.405,30.016L467.448,254.2
			C507.384,294.211,507.384,359.001,467.448,399.011z"/>
	</g>
	<g>
		<path d="M63.948,199.292l0.001,0.008c0.715,14.632,6.872,28.468,17.263,38.794l205.158,205.154
			c23.336,23.306,61.139,23.306,84.475,0l72.4-72.408c23.311-23.334,23.311-61.141,0-84.475L238.094,81.211
			c-10.533-10.608-24.71-16.809-39.65-17.342c-0.431,0.038-0.858,0.109-1.278,0.214c-0.417-0.006-0.834,0.02-1.247,0.078
			c-0.147,0.04-0.25,0.15-0.393,0.197c-0.585,0.213-1.143,0.492-1.664,0.832c-0.422,0.217-0.824,0.469-1.203,0.754
			c-0.439,0.409-0.833,0.864-1.173,1.358c-0.315,0.366-0.598,0.76-0.845,1.175c-0.222,0.493-0.397,1.005-0.521,1.531
			c-0.19,0.545-0.322,1.108-0.394,1.68c-0.012,0.147-0.093,0.269-0.098,0.419c0.036,0.423,0.106,0.843,0.208,1.255
			c-0.006,0.425,0.022,0.849,0.083,1.27c8.828,32.5-0.417,67.239-24.231,91.052s-58.553,33.057-91.053,24.227
			c-0.359-0.048-0.721-0.071-1.084-0.07c-0.374-0.103-0.756-0.178-1.141-0.226l-0.292,0.004c-0.152,0.005-0.275,0.087-0.423,0.101
			c-0.594,0.074-1.179,0.212-1.743,0.412c-0.494,0.12-0.976,0.284-1.441,0.491c-1.474,0.69-2.663,1.868-3.367,3.335
			c-0.316,0.493-0.579,1.019-0.782,1.568c-0.046,0.142-0.155,0.243-0.194,0.389c-0.062,0.422-0.09,0.849-0.084,1.276
			c-0.102,0.409-0.171,0.825-0.208,1.245C63.888,198.724,63.933,199.005,63.948,199.292z M177.753,177.753
			c24.772-24.868,36.363-59.963,31.275-94.693c6.399,2.004,12.228,5.507,17,10.218l205.15,205.154
			c16.644,16.671,16.644,43.671,0,60.342l-72.4,72.408c-16.673,16.639-43.669,16.639-60.342,0L93.278,226.028
			c-4.716-4.77-8.222-10.6-10.223-17.003C117.793,214.205,152.93,202.602,177.753,177.753L177.753,177.753z"/>
		<path d="M129.478,163.599c16.275-0.011,30.275-11.517,33.44-27.481s-5.388-31.941-20.428-38.159
			c-15.04-6.219-32.378-0.948-41.412,12.589s-7.248,31.57,4.266,43.072C111.743,160.021,120.427,163.612,129.478,163.599z
			 M117.411,117.415c4.882-4.882,12.224-6.343,18.602-3.701c6.379,2.642,10.538,8.866,10.538,15.77s-4.159,13.128-10.538,15.77
			c-6.379,2.642-13.721,1.181-18.602-3.701c-3.215-3.193-5.023-7.537-5.023-12.069S114.196,120.609,117.411,117.415z"/>
		<path d="M244.128,180.253c2.264,0.003,4.435-0.897,6.033-2.5l6.033-6.033c2.156-2.156,2.997-5.297,2.208-8.242
			s-3.089-5.244-6.033-6.033c-2.944-0.789-6.086,0.053-8.242,2.208l-6.033,6.033c-2.44,2.44-3.169,6.11-1.849,9.298
			C237.566,178.172,240.676,180.251,244.128,180.253L244.128,180.253z"/>
		<path d="M219.994,204.39c2.264,0.003,4.435-0.897,6.033-2.5l6.033-6.033c2.156-2.156,2.997-5.297,2.208-8.242
			c-0.789-2.944-3.089-5.244-6.033-6.033s-6.086,0.053-8.242,2.208l-6.033,6.033c-2.44,2.44-3.169,6.11-1.849,9.298
			C213.432,202.31,216.543,204.389,219.994,204.39L219.994,204.39z"/>
		<path d="M253.636,189.811c0.026,2.278,0.948,4.455,2.567,6.059c1.627,1.572,3.796,2.459,6.059,2.475
			c2.235-0.018,4.375-0.906,5.967-2.475c0.397-0.402,0.767-0.829,1.108-1.279l0.775-1.538c0.207-0.499,0.377-1.013,0.508-1.537
			c0.099-0.563,0.158-1.133,0.175-1.704c-0.026-2.278-0.948-4.455-2.567-6.059c-3.386-3.158-8.639-3.158-12.025,0
			C254.584,185.356,253.662,187.533,253.636,189.811z"/>
		<path d="M244.078,220.019c0.419-0.415,0.793-0.873,1.117-1.367c0.302-0.458,0.558-0.943,0.767-1.45
			c0.244-0.485,0.415-1.003,0.508-1.537c0.1-0.564,0.158-1.135,0.175-1.708c-0.027-2.278-0.949-4.454-2.567-6.059
			c-3.388-3.154-8.637-3.154-12.025,0c-3.3,3.366-3.3,8.754,0,12.121c1.636,1.558,3.8,2.44,6.059,2.471
			C240.346,222.472,242.486,221.586,244.078,220.019z"/>
		<path d="M280.328,216.457c2.263,0.002,4.433-0.896,6.033-2.496l6.042-6.033c2.177-2.151,3.036-5.304,2.25-8.262
			c-0.786-2.958-3.095-5.27-6.053-6.057c-2.958-0.788-6.111,0.069-8.264,2.245l-6.042,6.033c-2.443,2.44-3.175,6.112-1.854,9.302
			C273.761,214.379,276.874,216.458,280.328,216.457L280.328,216.457z"/>
		<path d="M256.194,219.994l-6.033,6.033c-3.332,3.332-3.332,8.735,0,12.067c3.332,3.332,8.735,3.332,12.067,0l6.033-6.033
			c2.155-2.156,2.997-5.297,2.208-8.242c-0.789-2.944-3.089-5.244-6.033-6.033S258.35,217.839,256.194,219.994z"/>
		<path d="M289.903,225.99c-0.022,2.27,0.87,4.453,2.475,6.058c1.605,1.605,3.788,2.497,6.058,2.475
			c3.761,0.007,7.081-2.456,8.165-6.058c1.084-3.602-0.325-7.488-3.465-9.558c-0.433-0.254-0.942-0.513-1.458-0.767
			c-0.508-0.171-1.017-0.341-1.617-0.512c-2.797-0.486-5.657,0.404-7.683,2.392C290.809,221.613,289.921,223.754,289.903,225.99z"/>
		<path d="M268.228,244.082c-1.557,1.637-2.44,3.8-2.475,6.059c0.018,2.262,0.904,4.431,2.475,6.059c3.365,3.3,8.752,3.3,12.117,0
			c1.574-1.625,2.461-3.796,2.475-6.059c0.02-3.467-2.059-6.601-5.261-7.931C274.356,240.881,270.668,241.62,268.228,244.082
			L268.228,244.082z"/>
		<path d="M322.569,258.694c2.264,0.003,4.435-0.897,6.033-2.5l6.033-6.033c2.156-2.156,2.997-5.297,2.208-8.242
			c-0.789-2.944-3.089-5.244-6.033-6.033c-2.944-0.789-6.086,0.053-8.242,2.208l-6.033,6.033c-2.44,2.44-3.169,6.11-1.849,9.298
			S319.118,258.693,322.569,258.694L322.569,258.694z"/>
		<path d="M298.436,262.232l-6.033,6.033c-2.155,2.155-2.997,5.297-2.208,8.242c0.789,2.944,3.089,5.244,6.033,6.033
			s6.086-0.053,8.242-2.208l6.033-6.033c2.155-2.155,2.997-5.297,2.208-8.242c-0.789-2.944-3.089-5.244-6.033-6.033
			S300.592,260.076,298.436,262.232z"/>
		<path d="M332.144,268.232c-0.015,1.137,0.189,2.265,0.6,3.325c0.473,1.007,1.106,1.93,1.875,2.733
			c1.606,1.604,3.789,2.496,6.059,2.475c2.267,0.007,4.445-0.882,6.059-2.475c0.77-0.785,1.379-1.714,1.792-2.733
			c0.43-1.057,0.661-2.184,0.683-3.325c-0.018-2.237-0.906-4.38-2.475-5.975c-3.405-3.2-8.712-3.2-12.117,0
			C333.019,263.83,332.125,265.987,332.144,268.232z"/>
		<path d="M313.286,300.315c1.03,0.413,2.132,0.617,3.242,0.6c2.259-0.033,4.422-0.917,6.059-2.475
			c0.771-0.816,1.379-1.772,1.792-2.817c0.48-1.012,0.715-2.122,0.683-3.242c0.027-0.547-0.029-1.095-0.167-1.625
			c-0.083-0.565-0.258-1.112-0.517-1.621c-0.168-0.525-0.427-1.016-0.767-1.45c-0.293-0.489-0.637-0.945-1.025-1.363
			c-2.441-2.462-6.129-3.201-9.331-1.872c-3.202,1.329-5.281,4.464-5.261,7.931c0.014,1.115,0.246,2.216,0.683,3.242
			c0.392,1.055,1.003,2.014,1.792,2.817C311.29,299.228,312.244,299.862,313.286,300.315z"/>
		<path d="M358.769,294.899c2.263,0.002,4.433-0.896,6.033-2.496l6.042-6.033c2.177-2.151,3.036-5.304,2.25-8.262
			s-3.095-5.27-6.053-6.057c-2.958-0.788-6.111,0.069-8.264,2.245l-6.042,6.033c-2.443,2.44-3.175,6.112-1.854,9.302
			C352.203,292.82,355.316,294.9,358.769,294.899L358.769,294.899z"/>
		<path d="M346.703,298.436c-1.6-1.601-3.77-2.5-6.033-2.5c-2.263,0-4.433,0.899-6.033,2.5l-6.033,6.033
			c-2.155,2.155-2.997,5.297-2.208,8.242s3.089,5.244,6.033,6.033c2.944,0.789,6.086-0.053,8.242-2.208l6.033-6.033
			c1.601-1.6,2.5-3.77,2.5-6.033C349.203,302.206,348.303,300.036,346.703,298.436z"/>
		<path d="M368.328,304.499c0.014,1.115,0.246,2.216,0.683,3.242c0.413,1.018,1.022,1.946,1.792,2.729
			c1.59,1.638,3.776,2.562,6.058,2.562c2.283,0,4.468-0.924,6.058-2.562c0.769-0.802,1.402-1.724,1.875-2.729
			c0.411-1.031,0.615-2.132,0.6-3.242c-0.018-2.262-0.904-4.431-2.475-6.059c-0.797-0.817-1.757-1.457-2.817-1.879
			c-2.639-1.086-5.647-0.781-8.014,0.815C369.723,298.971,368.312,301.644,368.328,304.499L368.328,304.499z"/>
		<path d="M345.628,323.87c-0.309,0.453-0.566,0.94-0.767,1.45c-0.247,0.514-0.421,1.059-0.517,1.621
			c-0.097,0.535-0.153,1.077-0.167,1.621c0.013,1.143,0.245,2.273,0.683,3.329c0.412,1.039,1.053,1.972,1.875,2.729
			c0.781,0.797,1.71,1.435,2.733,1.879c1.026,0.438,2.127,0.67,3.242,0.683c3.45-0.067,6.546-2.133,7.933-5.292
			c0.412-1.061,0.615-2.191,0.6-3.329c0.029-0.546-0.03-1.094-0.175-1.621c-0.099-0.551-0.241-1.093-0.425-1.621
			c-0.229-0.513-0.514-0.999-0.85-1.45c-0.244-0.496-0.594-0.933-1.025-1.279c-2.461-2.401-6.1-3.136-9.3-1.88
			c-1.041,0.412-1.975,1.055-2.733,1.879C346.302,322.956,345.928,323.388,345.628,323.87z"/>
		<path d="M189.82,234.561c2.264,0.003,4.435-0.897,6.033-2.5l6.033-6.038c2.184-2.15,3.047-5.305,2.261-8.267
			c-0.785-2.962-3.099-5.275-6.06-6.061c-2.962-0.785-6.117,0.078-8.267,2.261l-6.033,6.038c-2.442,2.44-3.173,6.111-1.852,9.3
			C183.255,232.483,186.368,234.562,189.82,234.561L189.82,234.561z"/>
		<path d="M201.928,238.107c-2.506,2.406-3.254,6.116-1.875,9.304c0.41,1.04,1.051,1.973,1.875,2.729
			c0.366,0.432,0.796,0.806,1.275,1.108c0.433,0.258,0.942,0.512,1.458,0.771c0.508,0.171,1.017,0.338,1.617,0.508
			c0.538,0.073,1.082,0.102,1.625,0.087c1.136,0.009,2.263-0.193,3.325-0.596c1.04-0.414,1.974-1.056,2.733-1.879
			c0.795-0.781,1.431-1.707,1.875-2.729c0.404-1.034,0.607-2.136,0.6-3.246c0.037-2.273-0.857-4.462-2.475-6.059
			c-0.782-0.796-1.71-1.432-2.733-1.875c-1.578-0.597-3.283-0.773-4.95-0.512c-0.6,0.171-1.108,0.341-1.617,0.512
			c-0.517,0.254-1.025,0.513-1.458,0.767C202.724,237.301,202.294,237.674,201.928,238.107z"/>
		<path d="M238.094,250.161c-1.6-1.601-3.77-2.5-6.033-2.5s-4.433,0.899-6.033,2.5l-6.033,6.033c-3.332,3.332-3.332,8.735,0,12.067
			c3.332,3.332,8.735,3.332,12.067,0l6.033-6.033c1.601-1.6,2.5-3.77,2.5-6.033S239.695,251.761,238.094,250.161z"/>
		<path d="M244.169,288.882c2.25-0.026,4.397-0.946,5.967-2.558c0.438-0.365,0.815-0.799,1.117-1.283
			c0.25-0.425,0.508-0.938,0.767-1.45c0.167-0.513,0.341-1.025,0.508-1.621c0.099-0.535,0.158-1.077,0.175-1.621
			c-0.025-2.279-0.948-4.455-2.567-6.059c-3.386-3.158-8.639-3.158-12.025,0c-0.845,0.774-1.492,1.74-1.883,2.817
			c-0.438,1.025-0.67,2.127-0.683,3.242c0.011,2.257,0.937,4.413,2.567,5.975C239.706,287.953,241.889,288.875,244.169,288.882z"/>
		<path d="M268.261,292.399l-6.033,6.038c-2.155,2.155-2.997,5.297-2.208,8.242c0.789,2.944,3.089,5.244,6.033,6.033
			s6.086-0.053,8.242-2.208l6.033-6.037c2.167-2.153,3.017-5.301,2.23-8.252s-3.093-5.257-6.044-6.044
			S270.414,290.232,268.261,292.399z"/>
		<path d="M277.869,322.59c-0.015,1.109,0.189,2.211,0.6,3.242c0.463,1.037,1.097,1.989,1.875,2.817c3.332,3.3,8.701,3.3,12.033,0
			c0.778-0.829,1.414-1.781,1.883-2.817c0.9-2.069,0.9-4.419,0-6.487c-0.428-1.058-1.069-2.017-1.883-2.817
			c-0.387-0.385-0.815-0.727-1.275-1.021c-0.453-0.333-0.939-0.619-1.45-0.854c-0.531-0.181-1.074-0.324-1.625-0.429
			c-2.786-0.571-5.672,0.294-7.683,2.304c-0.815,0.798-1.453,1.757-1.875,2.817C278.058,320.376,277.854,321.479,277.869,322.59z"/>
		<path d="M316.536,328.603c-1.6-1.601-3.77-2.5-6.033-2.5s-4.434,0.899-6.033,2.5l-6.033,6.033
			c-2.156,2.156-2.997,5.297-2.208,8.242s3.089,5.244,6.033,6.033c2.944,0.789,6.086-0.053,8.242-2.208l6.033-6.033
			c1.601-1.6,2.5-3.77,2.5-6.033C319.036,332.373,318.137,330.203,316.536,328.603z"/>
		<path d="M327.278,351.686c-0.434-0.339-0.925-0.599-1.45-0.767c-0.506-0.261-1.053-0.434-1.617-0.513
			c-1.097-0.254-2.237-0.254-3.333,0c-0.534,0.092-1.051,0.265-1.533,0.513c-0.551,0.167-1.069,0.426-1.533,0.767
			c-0.448,0.316-0.876,0.658-1.283,1.025c-3.3,3.365-3.3,8.752,0,12.117c0.407,0.367,0.836,0.709,1.283,1.025
			c0.464,0.34,0.983,0.6,1.533,0.767c0.482,0.247,0.999,0.42,1.533,0.512c0.564,0.1,1.135,0.157,1.708,0.171
			c0.545-0.014,1.089-0.071,1.625-0.171c0.564-0.078,1.111-0.251,1.617-0.512c0.525-0.168,1.016-0.427,1.45-0.767
			c0.48-0.271,0.913-0.617,1.283-1.025c1.636-1.591,2.558-3.776,2.558-6.058c0-2.282-0.923-4.467-2.558-6.058
			C328.191,352.303,327.757,351.957,327.278,351.686z"/>
		<path d="M165.686,258.694c2.264,0.003,4.435-0.897,6.033-2.5l6.033-6.033c3.332-3.332,3.332-8.735,0-12.067
			c-3.332-3.332-8.735-3.332-12.067,0l-6.033,6.033c-2.44,2.44-3.169,6.11-1.849,9.298S162.235,258.693,165.686,258.694
			L165.686,258.694z"/>
		<path d="M177.778,262.257c-1.628,1.562-2.551,3.719-2.558,5.975c0.006,2.281,0.928,4.464,2.558,6.059
			c1.572,1.603,3.73,2.497,5.975,2.475c2.27,0.022,4.453-0.87,6.058-2.475c1.605-1.605,2.497-3.788,2.475-6.058
			c0.02-2.245-0.873-4.402-2.475-5.975C186.455,259.015,181.134,259.015,177.778,262.257z"/>
		<path d="M213.969,274.303c-3.332-3.336-8.738-3.339-12.075-0.009l-6.042,6.033c-3.302,3.338-3.289,8.715,0.03,12.036
			c3.319,3.321,8.697,3.338,12.036,0.038l6.042-6.033C217.292,283.038,217.296,277.638,213.969,274.303z"/>
		<path d="M223.261,296.561c-2.108-0.854-4.467-0.854-6.575,0c-0.508,0.258-1.017,0.512-1.45,0.767
			c-0.446,0.346-0.872,0.717-1.275,1.113c-1.664,1.565-2.567,3.776-2.475,6.059c-0.024,2.244,0.87,4.401,2.475,5.971
			c0.403,0.395,0.829,0.767,1.275,1.113c0.457,0.303,0.942,0.56,1.45,0.767c1.057,0.438,2.189,0.67,3.333,0.683
			c1.115-0.014,2.216-0.246,3.242-0.683c1.04-0.414,1.974-1.057,2.733-1.879c1.624-1.563,2.547-3.717,2.558-5.971
			c-0.01-2.28-0.931-4.461-2.558-6.059C225.212,297.645,224.284,297.007,223.261,296.561z"/>
		<path d="M256.194,316.536c-1.6-1.601-3.77-2.5-6.033-2.5c-2.263,0-4.434,0.899-6.033,2.5l-6.033,6.033
			c-2.156,2.155-2.997,5.297-2.208,8.242c0.789,2.944,3.089,5.244,6.033,6.033s6.086-0.053,8.242-2.208l6.033-6.033
			c1.601-1.6,2.5-3.77,2.5-6.033C258.694,320.306,257.795,318.136,256.194,316.536z"/>
		<path d="M270.111,343.411c-0.258-0.513-0.517-0.942-0.775-1.454c-0.342-0.45-0.712-0.877-1.108-1.279
			c-3.388-3.154-8.637-3.154-12.025,0c-1.633,1.594-2.557,3.777-2.567,6.059c0.01,2.257,0.937,4.414,2.567,5.975
			c1.595,1.63,3.778,2.552,6.059,2.558c4.663-0.118,8.415-3.87,8.533-8.533c-0.017-0.572-0.076-1.141-0.175-1.704
			C270.488,344.481,270.318,343.939,270.111,343.411z"/>
		<path d="M292.411,352.744c-3.332-3.335-8.737-3.339-12.075-0.009l-6.042,6.033c-3.302,3.338-3.289,8.715,0.03,12.036
			c3.319,3.321,8.697,3.338,12.036,0.038l6.042-6.033C295.734,361.48,295.738,356.08,292.411,352.744z"/>
		<path d="M292.378,376.861c-1.571,1.628-2.457,3.797-2.475,6.059c0.024,4.07,2.918,7.556,6.913,8.329
			c3.996,0.773,7.981-1.384,9.52-5.151s0.203-8.097-3.191-10.343S295.244,373.972,292.378,376.861z"/>
		<path d="M10.978,23.044c3.341,3.281,8.701,3.256,12.012-0.054s3.335-8.671,0.054-12.012l-8.533-8.533
			C11.17-0.836,5.81-0.812,2.499,2.499s-3.335,8.671-0.054,12.012L10.978,23.044z"/>
		<path d="M45.111,57.177c3.341,3.281,8.701,3.256,12.012-0.054s3.335-8.671,0.054-12.012l-8.533-8.533
			c-3.341-3.281-8.701-3.256-12.012,0.054s-3.335,8.671-0.054,12.012L45.111,57.177z"/>
		<path d="M75.178,87.245l-30.167,30.17c-43.322,43.322-43.322,113.561,0,156.883l205.15,205.154
			c43.352,43.25,113.531,43.25,156.883,0l72.409-72.409c43.25-43.352,43.25-113.531,0-156.883L274.294,45.007
			c-43.322-43.322-113.561-43.322-156.883,0l-30.167,30.17l-4.466-4.466c-3.341-3.281-8.701-3.256-12.012,0.054
			s-3.335,8.671-0.054,12.012L75.178,87.245z M129.478,57.074c36.659-36.656,96.091-36.656,132.75,0l205.158,205.154
			c36.6,36.682,36.6,96.068,0,132.75l-72.408,72.408c-36.684,36.596-96.066,36.596-132.75,0L57.078,262.232
			c-36.656-36.659-36.656-96.091,0-132.75L129.478,57.074z"/>
	</g>
</g>
<g>
</g>
<g>
</g>
<g>
</g>
<g>
</g>
<g>
</g>
<g>
</g>
<g>
</g>
<g>
</g>
<g>
</g>
<g>
</g>
<g>
</g>
<g>
</g>
<g>
</g>
<g>
</g>
<g>
</g>
</svg>
