<?xml version="1.0" encoding="iso-8859-1"?>
<!-- Generator: Adobe Illustrator 19.0.0, SVG Export Plug-In . SVG Version: 6.00 Build 0)  -->
<svg version="1.1" id="Capa_1" xmlns="http://www.w3.org/2000/svg" xmlns:xlink="http://www.w3.org/1999/xlink" x="0px" y="0px"
	 viewBox="0 0 512.005 512.005" style="enable-background:new 0 0 512.005 512.005;" xml:space="preserve">
<g>
	<g transform="translate(1 1)">
		<g>
			<circle style="fill:#4CAF50;" cx="255.002" cy="75.8" r="25.6"/>
			<circle style="fill:#4CAF50;" cx="144.068" cy="255" r="25.6"/>
			<circle style="fill:#4CAF50;" cx="408.602" cy="348.867" r="25.6"/>
			<path style="fill:#4CAF50;" d="M256.134,230.887l184.9-168.303c6.97-6.345,17.765-5.838,24.109,1.133l0,0
				c6.345,6.97,5.838,17.765-1.133,24.109l-184.9,168.303c-6.97,6.345-17.765,5.838-24.109-1.133l0,0
				C248.657,248.026,249.164,237.232,256.134,230.887z"/>
		</g>
		<circle style="fill:#2E7D32;" cx="255.002" cy="255" r="247.467"/>
		<ellipse style="fill:#4CAF50;" cx="242.202" cy="255" rx="234.667" ry="247.467"/>
		<g>
			<path style="fill:#FFEB3A;" d="M256.134,230.887l184.9-168.303c6.97-6.345,17.765-5.838,24.109,1.133l0,0
				c6.345,6.97,5.838,17.765-1.133,24.109l-184.9,168.303c-6.97,6.345-17.765,5.838-24.109-1.133l0,0
				C248.657,248.026,249.164,237.232,256.134,230.887z"/>
			<circle style="fill:#FFEB3A;" cx="67.268" cy="417.133" r="25.6"/>
			<circle style="fill:#FFEB3A;" cx="255.002" cy="75.8" r="25.6"/>
			<circle style="fill:#FFEB3A;" cx="144.068" cy="255" r="25.6"/>
			<circle style="fill:#FFEB3A;" cx="408.602" cy="348.867" r="25.6"/>
		</g>
	</g>
	<path d="M470.735,95.163v-0.004c10.427-9.524,11.173-25.693,1.667-36.137s-25.674-11.218-36.134-1.73L271.563,207.219
		c-21.108-6.735-44.154,0.872-57.105,18.849s-12.872,42.245,0.199,60.135c13.071,17.891,36.166,25.344,57.229,18.47
		c21.063-6.874,35.315-26.517,35.316-48.673c-0.045-3.643-0.472-7.27-1.275-10.823l40.56-36.919
		c18.088,34.224,15.316,75.726-7.164,107.239c-22.48,31.514-60.819,47.645-99.067,41.682s-69.857-32.999-81.677-69.86
		c12.516-5.382,20.625-17.699,20.623-31.323c-0.002-13.624-8.115-25.939-20.632-31.318c13.465-42.432,52.915-71.211,97.432-71.077
		c4.713,0,8.533-3.821,8.533-8.533c0-4.713-3.821-8.533-8.533-8.533c-52.989-0.143-99.673,34.807-114.461,85.69
		c-17.369,1.715-30.606,16.323-30.606,33.777c0,17.453,13.237,32.061,30.606,33.777c12.981,44.184,50.218,76.962,95.692,84.234
		s91.076-12.259,117.188-50.192c26.113-37.933,28.08-87.502,5.055-127.384l38.419-34.97
		c30.791,45.657,37.305,103.487,17.442,154.849c-13.795-2.458-27.681,3.819-34.949,15.799c-7.268,11.98-6.421,27.196,2.132,38.295
		c-49.813,55.16-129.607,71.72-197.255,40.936S77.686,309.518,86.554,235.725c8.869-73.792,64.495-133.349,137.511-147.228
		c5.897,16.13,22.865,25.361,39.61,21.552c16.746-3.81,28.049-19.474,26.388-36.567c-1.662-17.093-15.77-30.287-32.936-30.8
		s-32.038,11.814-34.718,28.777c-80.763,14.649-142.632,80.09-152.73,161.547s33.92,160.024,108.662,193.95
		s162.859,15.335,217.527-45.893c15.607,6.973,33.965,1.274,42.879-13.312c8.914-14.586,5.612-33.523-7.712-44.231
		c22.462-57.678,14.813-122.745-20.413-173.641l38.133-34.709c30.151,40.749,46.347,90.14,46.181,140.83
		c0.056,93.983-55.021,179.258-140.71,217.861s-186.053,23.352-256.407-38.962c2.967-5.092,4.548-10.872,4.584-16.766
		C102.38,399.291,87.111,384.022,68.268,384c-4.202,0.022-8.363,0.828-12.27,2.374C30.529,347.669,16.992,302.334,17.068,256
		C17.216,124.102,124.104,17.215,256.002,17.067c4.713,0,8.533-3.821,8.533-8.533S260.715,0,256.002,0
		c-141.318,0.16-255.84,114.682-256,256c-0.081,49.932,14.59,98.775,42.17,140.398c-5.156,6.072-8.002,13.769-8.036,21.735
		c0.022,18.842,15.291,34.112,34.133,34.133c6.254-0.026,12.378-1.787,17.69-5.087c75.285,67.076,182.946,83.677,274.94,42.396
		S512.062,356.832,512.002,256c0.181-54.942-17.572-108.442-50.562-152.377L470.735,95.163z M128.002,256
		c0-9.426,7.641-17.067,17.067-17.067c9.426,0,17.067,7.641,17.067,17.067c0,9.426-7.641,17.067-17.067,17.067
		C135.647,273.057,128.011,265.422,128.002,256z M256.002,59.733c9.426,0,17.067,7.641,17.067,17.067s-7.641,17.067-17.067,17.067
		c-9.426,0-17.067-7.641-17.067-17.067C238.944,67.378,246.58,59.743,256.002,59.733z M409.602,366.933
		c-9.426,0-17.067-7.641-17.067-17.067c0-9.426,7.641-17.067,17.067-17.067c9.426,0,17.067,7.641,17.067,17.067
		C426.659,359.288,419.023,366.924,409.602,366.933z M51.202,418.133c0-9.426,7.641-17.067,17.067-17.067
		s17.067,7.641,17.067,17.067S77.694,435.2,68.268,435.2C58.847,435.191,51.211,427.555,51.202,418.133z M447.756,69.917
		c1.567-1.433,3.614-2.227,5.737-2.225c0.138,0,0.275,0.004,0.413,0.012c3.448,0.162,6.458,2.385,7.626,5.633
		c1.169,3.247,0.265,6.879-2.289,9.201L274.364,250.825c-1.662,1.54-3.879,2.339-6.142,2.213c-3.448-0.16-6.46-2.383-7.63-5.631
		c-1.17-3.248-0.266-6.881,2.288-9.203L447.756,69.917z M256.002,290.133c-18.73,0.014-33.966-15.079-34.13-33.808
		s14.807-34.085,33.534-34.399l-4.017,3.656c-7.656,6.97-10.359,17.866-6.85,27.606c3.51,9.741,12.541,16.408,22.883,16.894
		c0.408,0.021,0.821,0.029,1.229,0.029c6.367,0.011,12.507-2.368,17.204-6.667l3.884-3.535
		C287.791,277.086,273.287,290.079,256.002,290.133z"/>
</g>
<g>
</g>
<g>
</g>
<g>
</g>
<g>
</g>
<g>
</g>
<g>
</g>
<g>
</g>
<g>
</g>
<g>
</g>
<g>
</g>
<g>
</g>
<g>
</g>
<g>
</g>
<g>
</g>
<g>
</g>
</svg>
