<?xml version="1.0" encoding="iso-8859-1"?>
<!-- Generator: Adobe Illustrator 19.0.0, SVG Export Plug-In . SVG Version: 6.00 Build 0)  -->
<svg version="1.1" id="Capa_1" xmlns="http://www.w3.org/2000/svg" xmlns:xlink="http://www.w3.org/1999/xlink" x="0px" y="0px"
	 viewBox="0 0 512 512" style="enable-background:new 0 0 512 512;" xml:space="preserve">
<g>
	<g transform="translate(1 1)">
		<path style="fill:#2E7D32;" d="M24.6,67.267h460.8c9.426,0,17.067,7.641,17.067,17.067v341.333
			c0,9.426-7.641,17.067-17.067,17.067H24.6c-9.426,0-17.067-7.641-17.067-17.067V84.333C7.533,74.908,15.174,67.267,24.6,67.267z"
			/>
		<path style="fill:#4CAF50;" d="M24.6,67.267h435.2c9.426,0,17.067,7.641,17.067,17.067v341.333
			c0,9.426-7.641,17.067-17.067,17.067H24.6c-9.426,0-17.067-7.641-17.067-17.067V84.333C7.533,74.908,15.174,67.267,24.6,67.267z"
			/>
		<g>
			<path style="fill:#CFD8DC;" d="M67.267,58.733H101.4c4.713,0,8.533,3.821,8.533,8.533v375.467c0,4.713-3.821,8.533-8.533,8.533
				H67.267c-4.713,0-8.533-3.821-8.533-8.533V67.267C58.733,62.554,62.554,58.733,67.267,58.733z"/>
			<path style="fill:#CFD8DC;" d="M408.6,58.733h34.133c4.713,0,8.533,3.821,8.533,8.533v375.467c0,4.713-3.821,8.533-8.533,8.533
				H408.6c-4.713,0-8.533-3.821-8.533-8.533V67.267C400.067,62.554,403.887,58.733,408.6,58.733z"/>
		</g>
		<path style="fill:#C52828;" d="M340.333,237.933v34.133c-0.014,4.707-3.826,8.519-8.533,8.533h-25.6
			c4.707-0.014,8.519-3.826,8.533-8.533v-34.133c-0.014-4.707-3.826-8.519-8.533-8.533h25.6
			C336.507,229.414,340.319,233.226,340.333,237.933z"/>
		<path style="fill:#F44335;" d="M314.733,237.933v34.133c-0.014,4.707-3.826,8.519-8.533,8.533h-25.6v51.2
			c-0.014,4.707-3.826,8.519-8.533,8.533h-34.133c-4.707-0.014-8.519-3.826-8.533-8.533v-51.2h-51.2
			c-4.707-0.014-8.519-3.826-8.533-8.533v-34.133c0.014-4.707,3.826-8.519,8.533-8.533h51.2v-51.2
			c0.014-4.707,3.826-8.519,8.533-8.533h34.133c4.707,0.014,8.519,3.826,8.533,8.533v51.2h25.6
			C310.907,229.414,314.719,233.226,314.733,237.933z"/>
	</g>
	<g>
		<path d="M486.4,59.733h-27.973c-3.024-5.262-8.624-8.514-14.693-8.533H409.6c-6.07,0.019-11.669,3.271-14.693,8.533H117.093
			c-3.024-5.262-8.624-8.514-14.693-8.533H68.267c-6.069,0.019-11.669,3.271-14.693,8.533H25.6C11.468,59.749,0.015,71.201,0,85.333
			v341.333c0.015,14.132,11.468,25.585,25.6,25.6h27.973c3.024,5.262,8.624,8.514,14.693,8.533H102.4
			c6.069-0.019,11.669-3.271,14.693-8.533h277.814c3.024,5.262,8.624,8.514,14.693,8.533h34.133
			c6.069-0.019,11.669-3.271,14.693-8.533H486.4c14.132-0.015,25.585-11.468,25.6-25.6V85.333
			C511.985,71.201,500.532,59.749,486.4,59.733z M119.467,76.8h273.067v358.4H119.467V76.8z M17.067,426.667V85.333
			c0.006-4.71,3.823-8.527,8.533-8.533h25.6v358.4H25.6C20.89,435.194,17.073,431.377,17.067,426.667z M68.267,443.733V68.267H102.4
			l0.012,375.405l-0.012,0.062H68.267z M409.6,443.733V68.267h34.133l0.012,375.405l-0.012,0.062H409.6z M494.933,426.667
			c-0.006,4.71-3.823,8.527-8.533,8.533h-25.6V76.8h25.6c4.71,0.006,8.527,3.823,8.533,8.533V426.667z"/>
		<path d="M332.8,221.867h-42.667V179.2c-0.009-9.422-7.645-17.057-17.067-17.067h-34.133c-9.422,0.009-17.057,7.645-17.067,17.067
			v42.667H179.2c-9.422,0.009-17.057,7.645-17.067,17.067v34.133c0.009,9.422,7.645,17.057,17.067,17.067h42.667V332.8
			c0.009,9.422,7.645,17.057,17.067,17.067h34.133c9.422-0.009,17.057-7.645,17.067-17.067v-42.667H332.8
			c9.422-0.009,17.057-7.645,17.067-17.067v-34.133C349.857,229.512,342.222,221.876,332.8,221.867z M332.8,273.067h-51.2
			c-4.713,0-8.533,3.82-8.533,8.533v51.2h-34.133v-51.2c0-4.713-3.821-8.533-8.533-8.533h-51.2v-34.133h51.2
			c4.713,0,8.533-3.821,8.533-8.533v-51.2h34.133v51.2c0,4.713,3.82,8.533,8.533,8.533l51.2,0.025V273.067z"/>
		<path d="M187.733,375.467H179.2v-8.533c0-4.713-3.821-8.533-8.533-8.533c-4.713,0-8.533,3.82-8.533,8.533v8.533H153.6
			c-4.713,0-8.533,3.821-8.533,8.533s3.82,8.533,8.533,8.533h8.533v8.533c0,4.713,3.821,8.533,8.533,8.533
			c4.713,0,8.533-3.821,8.533-8.533v-8.533h8.533c4.713,0,8.533-3.82,8.533-8.533S192.446,375.467,187.733,375.467z"/>
		<path d="M358.4,119.467h-8.533v-8.533c0-4.713-3.821-8.533-8.533-8.533s-8.533,3.821-8.533,8.533v8.533h-8.533
			c-4.713,0-8.533,3.82-8.533,8.533c0,4.713,3.821,8.533,8.533,8.533h8.533v8.533c0,4.713,3.82,8.533,8.533,8.533
			s8.533-3.821,8.533-8.533v-8.533h8.533c4.713,0,8.533-3.82,8.533-8.533C366.933,123.287,363.113,119.467,358.4,119.467z"/>
	</g>
</g>
<g>
</g>
<g>
</g>
<g>
</g>
<g>
</g>
<g>
</g>
<g>
</g>
<g>
</g>
<g>
</g>
<g>
</g>
<g>
</g>
<g>
</g>
<g>
</g>
<g>
</g>
<g>
</g>
<g>
</g>
</svg>
