<svg height="512" viewBox="0 0 60 60" width="512" xmlns="http://www.w3.org/2000/svg"><g id="Page-1" fill="none" fill-rule="evenodd"><g id="001---Guitar" fill-rule="nonzero"><g id="Color"><path id="Shape" d="m38.43 27.26c3.0736791 5.1078639 2.357486 11.6395446-1.75 15.96-.8178386.8138649-1.747117 1.5074568-2.76 2.06-1.2068274.6398712-2.0137326 1.8408463-2.15 3.2-.2171786 2.6970642-1.3703607 5.2333573-3.26 7.17-5.3 5.3-15 4.19-21.68-2.48-6.68-6.67-7.78-16.38-2.48-21.68 1.93664272-1.8896393 4.47293584-3.0428214 7.17-3.26 1.3591537-.1362674 2.5601288-.9431726 3.2-2.15.5525432-1.012883 1.2461351-1.9421614 2.06-2.76 4.3204554-4.107486 10.8521361-4.8236791 15.96-1.75" fill="#ff9801"/><path id="Shape" d="m38.43 27.26-5.69-5.69c-2.5831447-1.4788834-5.567573-2.1036289-8.527-1.785 1.9446911.2122936 3.8254941.8197178 5.527 1.785l5.69 5.69c3.0736791 5.1078639 2.357486 11.6395446-1.75 15.96-.8178386.8138649-1.747117 1.5074568-2.76 2.06-1.2068274.6398712-2.0137326 1.8408463-2.15 3.2-.2171786 2.6970642-1.3703607 5.2333573-3.26 7.17-1.9231979 1.8807574-4.4407114 3.0339843-7.121 3.262 3.6941516.5080106 7.4187534-.6924292 10.121-3.262 1.8896393-1.9366427 3.0428214-4.4729358 3.26-7.17.1362674-1.3591537.9431726-2.5601288 2.15-3.2 1.012883-.5525432 1.9421614-1.2461351 2.76-2.06 4.107486-4.3204554 4.8236791-10.8521361 1.75-15.96z" fill="#f57c00"/><rect id="Rectangle-path" fill="#91562d" height="16.078" rx="2" transform="matrix(.707 .707 -.707 .707 22.23 -31.184)" width="12.059" x="42.728" y="3.203"/><path id="Shape" d="m57.291 8.407-5.7-5.7c-.7809997-.78076388-2.0470003-.78076388-2.828 0l-.086.086 5.612 5.613c.7807639.7809997.7807639 2.0470003 0 2.828l-8.452 8.456.085.086c.375096.375248.8839266.5860729 1.4145.5860729s1.039404-.2108249 1.4145-.5860729l8.54-8.541c.7807639-.7809997.7807639-2.0470003 0-2.828z" fill="#6d4122"/><g fill="#cfd8dc"><path id="Shape" d="m45.7631594 1.06070924h2.015v4.02h-2.015c-.5522848 0-1-.44771525-1-1v-2.02c0-.55228475.4477152-1 1-1z" transform="matrix(.707 .707 -.707 .707 15.724 -31.819)"/><path id="Shape" d="m40.0787695 6.74470924h2.015v4.01999996h-2.015c-.5522847 0-1-.4477152-1-.99999996v-2.02c0-.55228475.4477153-1 1-1z" transform="matrix(.707 .707 -.707 .707 18.078 -26.135)"/><path id="Shape" d="m56.4211335 11.7188955h2.015v4.02h-2.015c-.5522848 0-1-.4477152-1-1v-2.02c0-.5522847.4477152-1 1-1z" transform="matrix(-.707 -.707 .707 -.707 87.475 63.691)"/><path id="Shape" d="m50.7351092 17.4067239h2.015v4.02h-2.015c-.5522848 0-1-.4477152-1-1v-2.02c0-.5522847.4477152-1 1-1z" transform="matrix(-.707 -.707 .707 -.707 73.747 69.38)"/></g><path id="Shape" d="m45.92 19.77-5.3 5.29-6.78 6.79-1 .99-1.49-1.49-4.19-4.19 7.78-7.78 3.79-3.8 1.5-1.5z" fill="#ffe0b2"/><path id="Shape" d="m45.92 19.77-12.08 12.08-1 .99-1.49-1.49 11.57-11.58-4.19-4.19 1.5-1.5z" fill="#dfc49c"/><rect id="Rectangle-path" fill="#607d8b" height="5.024" rx="2" transform="matrix(.707 .707 -.707 .707 37.093 4.699)" width="14.068" x="5.841" y="44.613"/><circle id="Oval" cx="26.73" cy="33.27" fill="#607d8b" r="8.039"/><path id="Shape" d="m32.415 27.585c-1.8816796-1.8802909-4.5719957-2.707418-7.185-2.209 3.7946432.7165535 6.5424475 4.0317949 6.5424475 7.8935s-2.7478043 7.1769465-6.5424475 7.8935c3.4658156.6605346 6.9571121-1.0168407 8.6073113-4.1353382s1.0732815-6.9486288-1.4223113-9.4426618z" fill="#37474f"/></g><g id="Outline" fill="#000"><path id="Shape" d="m58.571 11.114c.5515701-1.1441318.3228544-2.51161904-.571-3.414l-5.7-5.7c-.9021488-.89419409-2.2696628-1.12331478-3.414-.572l-.845-.844c-.7915033-.75594024-2.0374967-.75594024-2.829 0l-1.428 1.428c-.7807639.7809997-.7807639 2.0470003 0 2.828l.717.718-1.428 1.428-.717-.717c-.375096-.37524801-.8839266-.58607293-1.4145-.58607293s-1.039404.21082492-1.4145.58607293l-1.427 1.431c-.7807639.7809997-.7807639 2.0470003 0 2.828l.845.846c-.3905923.8177534-.3905923 1.7682466 0 2.586l-6.392 6.393c-5.4096624-2.8637866-12.0439494-1.9524326-16.481 2.264-.8802208.8844916-1.6312854 1.8887164-2.231 2.983-.48432.9131078-1.3918723 1.5247681-2.42 1.631-2.92745605.2380288-5.67924307 1.4932796-7.778 3.548-5.678 5.682-4.566 16.042 2.481 23.098 3.62666 3.7656635 8.5860066 5.9580883 13.812 6.106 3.4546816.0844908 6.7985733-1.2219365 9.281-3.626 2.0556488-2.100241 3.311257-4.8538051 3.549-7.783.1064628-1.0283813.7195491-1.9356289 1.634-2.418 1.0950732-.5986141 2.1000174-1.3490398 2.985-2.229 4.2171398-4.4363084 5.1285792-11.0708146 2.264-16.48l6.393-6.392c.8140279.4067038 1.7719721.4067038 2.586 0l.846.845c.7809997.7807639 2.0470003.7807639 2.828 0l1.427-1.427c.375248-.375096.5860729-.8839266.5860729-1.4145s-.2108249-1.039404-.5860729-1.4145l-.717-.717 1.43-1.427.718.717c.7809997.7807639 2.0470003.7807639 2.828 0l1.428-1.428c.7807639-.7809997.7807639-2.0470003 0-2.828zm-13.371-7.688 1.426-1.426.717.717-1.427 1.427zm-4.258 4.257.717.717-1.428 1.428-.717-.718zm-6.059 21.705c-.297299-.6278928-.6664328-1.2191781-1.1-1.762l9.285-9.285 1.432 1.428zm-10.508 10.512c-.6671087-.236419-1.294051-.5736661-1.859-1l9.843-9.843c.4258648.5659774.763063 1.1935031 1 1.861zm9.388-6.56c-.0310175 3.8321482-3.1308387 6.9306339-6.963 6.96zm-18.398 16.98c.3904999.3903819 1.0235001.3903819 1.414 0l.714-.715.01.011c.3903819.3904999.3903819 1.0235001 0 1.414l-.724.724c-.3904999.3903819-1.0235001.3903819-1.414 0l-7.119-7.119c-.39038194-.3904999-.39038194-1.0235001 0-1.414l.724-.721c.39548103-.3781625 1.01851897-.3781625 1.414 0l.011.01-.715.714c-.25995658.2510745-.3642126.6228779-.27269716.9725073.09151544.3496295.3645604.6226744.71418986.7141899.3496294.0915154.7214328-.0127406.9725073-.2726972l.715-.714 1.428 1.428-.715.714c-.3907414.3907415-.3907414 1.0242585 0 1.415.3907415.3907414 1.0242585.3907414 1.415 0l.714-.715 1.428 1.428-.714.715c-.3883868.3901539-.3883868 1.0208461 0 1.411zm13.719-23.675c.6674969.236937 1.2950226.5741352 1.861 1l-9.845 9.839c-.4263339-.564949-.763581-1.1918913-1-1.859zm-9.384 6.555c.0277779-3.8356507 3.1303493-6.9382221 6.966-6.966zm-.024 5.709-5.023 5.023-1.428-1.428 5.353-5.354c.2956771.6278976.6634891 1.2192158 1.096 1.762zm-3.609 6.437 5.023-5.023c.541642.4337096 1.1319517.8028629 1.759 1.1l-5.354 5.353zm16.307-19.134c-.5430745-.4318219-1.1343497-.7992716-1.762-1.095l9.619-9.617 1.428 1.428zm3.6 16.3c-.750082.7454908-1.6018545 1.3811218-2.53 1.888-1.4975737.7985411-2.4982712 2.2913358-2.668 3.98-.1951188 2.4680803-1.2479991 4.7900069-2.976 6.563-4.9 4.9-13.99 3.786-20.265-2.48s-7.377-15.363-2.478-20.263c1.77217272-1.7249016 4.09167873-2.775878 6.557-2.971 1.6904157-.1682941 3.1855129-1.1686514 3.986-2.667.5069484-.9301272 1.1432886-1.783631 1.89-2.535 3.6418332-3.4514388 9.0275356-4.3164381 13.567-2.179l-2.561 2.561c-2.6532523-.529861-5.4042742.1582004-7.4956736 1.8747519-2.0913993 1.7165515-3.3026674 4.2806068-3.3003264 6.9862481-.0002656.5924815.0570032 1.1835887.171 1.765l-6.057 6.058-.011-.01c-1.1868528-1.1334657-3.05514719-1.1334657-4.242 0l-.725.725c-1.17114581 1.1714996-1.17114581 3.0705004 0 4.242l7.12 7.12c.5626237.562719 1.3257625.8788593 2.1215.8788593s1.5588763-.3161403 2.1215-.8788593l.723-.724c.562719-.5626237.8788593-1.3257625.8788593-2.1215s-.3161403-1.5588763-.8788593-2.1215l-.01-.011 6.058-6.057c.5814113.1139968 1.1725185.1712656 1.765.171 2.706543.0025154 5.2714652-1.2092598 6.9883245-3.3015731 1.7168594-2.0923134 2.4045538-4.8444583 1.8736755-7.4984269l2.56-2.561c2.136597 4.5407308 1.2695692 9.9271014-2.184 13.568zm10.655-23.443-5.7-5.7c-.187777-.1875683-.2932867-.4420908-.2932867-.7075s.1055097-.5199317.2932867-.7075l.007-.007 2.844-2.84 2.843-2.842 2.842-2.843.007-.006c.3904999-.39038194 1.0235001-.39038194 1.414 0l5.7 5.7c.3903819.39049985.3903819 1.0235001 0 1.414l-.006.007-2.843 2.842-2.844 2.841-2.842 2.842-.007.007c-.1875683.187777-.4420908.2932867-.7075.2932867s-.5199317-.1055097-.7075-.2932867zm5.688-.01-1.426 1.428-.718-.717 1.427-1.429zm4.258-4.259-.719-.719 1.429-1.428.717.718z"/><circle id="Oval" cx="49.468" cy="7.689" r="1.005"/><path id="Shape" d="m53.021 11.242c.3877602-.3915088.3857354-1.0229231-.0045279-1.41193688-.3902633-.38901376-1.0216809-.38901376-1.4119442 0-.3902633.38901378-.3922881 1.02042808-.0045279 1.41193688.1878054.1896209.4436162.2963028.7105.2963028s.5226946-.1066819.7105-.2963028z"/><path id="Shape" d="m44.494 11.242c-.3921862.3925813-.3919727 1.0287281.000477 1.421046.3924496.3923179 1.0285964.3923179 1.421046 0 .3924497-.3923179.3926632-1.0284647.000477-1.421046-.3927874-.3924018-1.0292126-.3924018-1.422 0z"/><path id="Shape" d="m48.758 15.506c.2875114-.2873963.3735687-.7196963.2180374-1.0952885s-.5220162-.6204961-.9285374-.6204961-.7730061.2449039-.9285374.6204961-.069474.8078922.2180374 1.0952885c.3928992.3911871 1.0281008.3911871 1.421 0z"/></g></g></g></svg>