<svg height="512" viewBox="0 0 60 60" width="512" xmlns="http://www.w3.org/2000/svg"><g id="Page-1" fill="none" fill-rule="evenodd"><g id="003---Tambourine" fill-rule="nonzero"><g id="Color" transform="translate(1 1)"><path id="Shape" d="m7 29c-.00393603 1.9386745.25166725 3.869152.76 5.74-2.46038316.7488789-5.12440626-.1535711-6.6230952-2.2436037s-1.49868894-4.90276 0-6.9927926 4.16271204-2.9924826 6.6230952-2.2436037c-.50833275 1.870848-.76393603 3.8013255-.76 5.74z" fill="#ffeb3a"/><path id="Shape" d="m3.586 31.414c-.26484822-.0003216-.51875236-.1056954-.706-.293-1.17114581-1.1714996-1.17114581-3.0705004 0-4.242.25107447-.2599566.62287789-.3642126.97250732-.2726972.34962944.0915155.6226744.3645604.71418984.7141899.09151544.3496294-.01274058.7214328-.27269716.9725073-.38971594.3903851-.38971594 1.0226149 0 1.413.28662387.2859.3725934.7164072.21775857 1.0904636s-.51992289.6178554-.92475857.6175364z" fill="#fec108"/><path id="Shape" d="m51 29c.0013398 3.845756-1.005454 7.6246807-2.92 10.96-1.9444593 3.3744387-4.7455613 6.1755407-8.12 8.12-5.0612887 2.9021877-11.0668745 3.6789581-16.7 2.16-1.827057-.4883749-3.5820632-1.2145844-5.22-2.16-3.3744387-1.9444593-6.1755407-4.7455613-8.12-8.12-2.90218772-5.0612887-3.67895809-11.0668745-2.16-16.7.48837495-1.827057 1.21458441-3.5820632 2.16-5.22 1.9444593-3.3744387 4.7455613-6.1755407 8.12-8.12 5.0612887-2.90218772 11.0668745-3.67895809 16.7-2.16 1.827057.48837495 3.5820632 1.21458441 5.22 2.16 3.3744387 1.9444593 6.1755407 4.7455613 8.12 8.12 1.914546 3.3353193 2.9213398 7.114244 2.92 10.96z" fill="#ff9801"/><circle id="Oval" cx="29" cy="29" fill="#ffe0b2" r="18"/><path id="Shape" d="m29 11c-.506 0-1 .035-1.5.076 9.3272756.7701697 16.5049834 8.5649813 16.5049834 17.924s-7.1777078 17.1538303-16.5049834 17.924c.5.041.994.076 1.5.076 9.9411255 0 18-8.0588745 18-18s-8.0588745-18-18-18z" fill="#dfc49c"/><path id="Shape" d="m29 7c-.5 0-1 .023-1.5.057 11.5391351.78718633 20.4970742 10.3770456 20.4970742 21.943s-8.9579391 21.1558137-20.4970742 21.943c.5.034 1 .057 1.5.057 12.1502645 0 22-9.8497355 22-22s-9.8497355-22-22-22z" fill="#f57c00"/><path id="Shape" d="m58 29c-.0034558 1.9021889-.9070668 3.6904878-2.4363546 4.8216878s-3.503756 1.4717896-5.3236454.9183122c1.0133358-3.7595815 1.0133358-7.7204185 0-11.48 1.8198894-.5534774 3.7943576-.2128878 5.3236454.9183122s2.4328988 2.9194989 2.4363546 4.8216878z" fill="#ffeb3a"/><path id="Shape" d="m54.414 31.414c-.4048357.000319-.7699237-.24348-.9247586-.6175364-.1548348-.3740564-.0688653-.8045636.2177586-1.0904636.3897159-.3903851.3897159-1.0226149 0-1.413-.2599566-.2510745-.3642126-.6228779-.2726972-.9725073.0915155-.3496295.3645604-.6226744.7141899-.7141899.3496294-.0915154.7214328.0127406.9725073.2726972 1.1711458 1.1714996 1.1711458 3.0705004 0 4.242-.1874927.1875494-.4418052.2929434-.707.293z" fill="#fec108"/><path id="Shape" d="m18.04 9.92c-3.3744387 1.9444593-6.1755407 4.7455613-8.12 8.12-2.26683585-1.2117579-3.51000614-3.7328161-3.09126977-6.2688685.41873638-2.53605237 2.4063489-4.52366489 4.94240127-4.94240127 2.5360524-.41873637 5.0571106.82443392 6.2688685 3.09126977z" fill="#ffeb3a"/><path id="Shape" d="m10.03 13.029c-.55228475 0-1-.4477153-1-1 0-1.6568542 1.3431458-3 3-3 .5522847 0 1 .44771525 1 1 0 .5522847-.4477153 1-1 1s-1 .4477153-1 1-.4477153 1-1 1z" fill="#fec108"/><path id="Shape" d="m49.51 49.51c-1.3475398 1.3445669-3.2524011 1.9712335-5.1350206 1.6893334-1.8826195-.2819-3.5203779-1.4390322-4.4149794-3.1193334 3.3744387-1.9444593 6.1755407-4.7455613 8.12-8.12 1.6803012.8946015 2.8374334 2.5323599 3.1193334 4.4149794.2819001 1.8826195-.3447665 3.7874808-1.6893334 5.1350206z" fill="#ffeb3a"/><path id="Shape" d="m45.971 48.97c-.5522847 0-1-.4477153-1-1s.4477153-1 1-1 1-.4477153 1-1 .4477153-1 1-1 1 .4477153 1 1c0 1.6568542-1.3431458 3-3 3z" fill="#fec108"/><path id="Shape" d="m35 6c.0006109.59627902-.0870044 1.1893674-.26 1.76-3.7595815-1.01333584-7.7204185-1.01333584-11.48 0-.6856043-2.25256403.0097024-4.69793499 1.7778944-6.25279673 1.768192-1.55486173 4.2823965-1.93177826 6.4288037-.96377295 2.1464071.9680053 3.5282262 3.10198433 3.5333019 5.45656968z" fill="#ffeb3a"/><path id="Shape" d="m30.414 4.586c-.2653486.00071853-.5199469-.10479393-.707-.293-.3953495-.37752547-1.0176505-.37752547-1.413 0-.2508919.260128-.6226186.36464225-.9723089.27337329-.3496903-.09126897-.6229254-.36411786-.7146889-.71367872-.0917634-.34956086.0122249-.72143497.2719978-.97269457 1.1866481-1.13397635 3.0553519-1.13397635 4.242 0 .2859079.28599425.3714219.71603662.216678 1.08965456s-.5192821.61725909-.923678.61734544z" fill="#fec108"/><path id="Shape" d="m35 52c-.0050757 2.3545854-1.3868948 4.4885644-3.5333019 5.4565697-2.1464072.9680053-4.6606117.5910888-6.4288037-.963773-1.768192-1.5548617-2.4634987-4.0002327-1.7778944-6.2527967 3.7595815 1.0133358 7.7204185 1.0133358 11.48 0 .1729956.5706326.2606109 1.163721.26 1.76z" fill="#ffeb3a"/><path id="Shape" d="m29 56c-.7962788.0023386-1.5602601-.3146362-2.121-.88-.3787042-.3926454-.3728476-1.0163551.0131628-1.40182.3860105-.3854648 1.0097279-.3904391 1.4018372-.01118.394808.3779107 1.017192.3779107 1.412 0 .3921093-.3792591 1.0158267-.3742848 1.4018372.01118.3860104.3854649.391867 1.0091746.0131628 1.40182-.5607399.5653638-1.3247212.8823386-2.121.88z" fill="#fec108"/><path id="Shape" d="m49.51 16.98c-.4215746.4221637-.903496.7793921-1.43 1.06-1.9444593-3.3744387-4.7455613-6.1755407-8.12-8.12 1.1120959-2.07059261 3.3307568-3.30119345 5.6761222-3.14831392s4.3855009 1.66108436 5.2193908 3.85852352c.83389 2.1974391.307961 4.6794208-1.345513 6.3497904z" fill="#ffeb3a"/><path id="Shape" d="m47.97 13.029c-.5522847 0-1-.4477153-1-1s-.4477153-1-1-1-1-.4477153-1-1c0-.55228475.4477153-1 1-1 1.6568542 0 3 1.3431458 3 3 0 .5522847-.4477153 1-1 1z" fill="#fec108"/><path id="Shape" d="m18.04 48.08c-1.2117579 2.2668358-3.7328161 3.5100061-6.2688685 3.0912698-2.53605237-.4187364-4.52366489-2.4063489-4.94240127-4.9424013-.41873637-2.5360524.82443392-5.0571106 3.09126977-6.2688685 1.9444593 3.3744387 4.7455613 6.1755407 8.12 8.12z" fill="#ffeb3a"/><path id="Shape" d="m12.029 48.97c-1.6568542 0-3-1.3431458-3-3 0-.5522847.44771525-1 1-1 .5522847 0 1 .4477153 1 1s.4477153 1 1 1 1 .4477153 1 1-.4477153 1-1 1z" fill="#fec108"/><g fill="#dfc49c"><path id="Shape" d="m19 22c-.4043959-.0000863-.7689341-.2437275-.923678-.6173454-.1547439-.373618-.0692299-.8036603.216678-1.0896546l4-4c.3923789-.3789722 1.0160848-.3735524 1.4018186.0121814s.3911536 1.0094397.0121814 1.4018186l-4 4c-.1874927.1875494-.4418052.2929434-.707.293z"/><path id="Shape" d="m19 28c-.4043959-.0000863-.7689341-.2437275-.923678-.6173454-.1547439-.373618-.0692299-.8036603.216678-1.0896546l10-10c.3923789-.3789722 1.0160848-.3735524 1.4018186.0121814s.3911536 1.0094397.0121814 1.4018186l-10 10c-.1874927.1875494-.4418052.2929434-.707.293z"/></g></g><g id="Outline" fill="#000"><path id="Shape" d="m30 11c-1.061162 0-2.1204839.0883047-3.167.264-.5445528.0922316-.9112315.6084472-.819 1.153.0922316.5445527.6084472.9112315 1.153.819 8.3644103-1.424465 16.5014452 3.5256124 19.0821929 11.6084462 2.5807476 8.0828338-1.1821583 16.8324134-8.8244056 20.5186738-7.6422473 3.6862605-16.832245 1.1845521-21.5515002-5.8667663s-3.5279592-16.5009436 2.7937129-22.1603537c.2781059-.2350645.4064529-.6027208.3350591-.9597938-.0713937-.3570731-.3312416-.6471131-.6783518-.7571709-.3471102-.1100577-.7266082-.0227341-.9907073.2279647-6.8211074 6.1117095-8.30850787 16.2210581-3.536803 24.0384319 4.7717048 7.8173737 14.4429878 11.1154906 22.9967811 7.8424002 8.5537932-3.2730904 13.5529982-12.1848376 11.8873188-21.1907252-1.6656795-9.0058876-9.5216676-15.5400089-18.6802969-15.5371069z"/><path id="Shape" d="m53 23c-.3565502.0006848-.7125475.0280949-1.065.082-.4029414-1.2734268-.916568-2.5091421-1.535-3.693 2.1002109-1.5608878 3.1544765-4.1628368 2.7331287-6.7454174-.4213479-2.5825806-2.2479464-4.71451681-4.7353618-5.52693374-2.4874154-.81241692-5.2202636-.16964562-7.0847669 1.66635114-.2541073.25525056-.4881356.5297323-.7.821-1.1837221-.61980357-2.419441-1.13477011-3.693-1.539.0532356-.35250288.0799771-.70849992.08-1.065 0-3.86599325-3.1340068-7-7-7s-7 3.13400675-7 7c.0006848.35655019.0280949.71254752.082 1.065-1.2734268.40294144-2.5091421.91656802-3.693 1.535-1.5608878-2.10021089-4.1628368-3.15447648-6.7454174-2.73312867-2.5825806.42134782-4.71451681 2.24794642-5.52693374 4.73536177-.81241692 2.4874154-.16964562 5.2202636 1.66635114 7.0847669.25525056.2541073.5297323.4881356.821.7-.61980357 1.1837221-1.13477011 2.419441-1.539 3.693-.35250288-.0532356-.70849992-.0799771-1.065-.08-3.86599325 0-7 3.1340068-7 7s3.13400675 7 7 7c.35655019-.0006848.71254752-.0280949 1.065-.082.40294144 1.2734268.91656802 2.5091421 1.535 3.693-1.65243257 1.2062812-2.69443317 3.0750979-2.85193366 5.114912-.15750049 2.039814.58526506 4.0464382 2.03293366 5.492088 1.4459206 1.4448353 3.4511395 2.1854793 5.4890942 2.0274417 2.0379548-.1580377 3.9050178-1.1989661 5.1109058-2.8494417 1.1837221.6198036 2.419441 1.1347701 3.693 1.539-.0512276.3526539-.0759635.7086502-.074 1.065 0 3.8659932 3.1340068 7 7 7s7-3.1340068 7-7c-.0006848-.3565502-.0280949-.7125475-.082-1.065 1.2734268-.4029414 2.5091421-.916568 3.693-1.535.2121177.291068.4461299.5655309.7.821 1.8675671 1.8217706 4.5932973 2.4537692 7.0720104 1.6397442 2.4787131-.8140249 4.299043-2.9389782 4.722915-5.5132718.423872-2.5742937-.6190595-5.1706991-2.7059254-6.7364724.6198036-1.1837221 1.1347701-2.419441 1.539-3.693.3511324.0537062.7057852.0811157 1.061.082 3.8659932 0 7-3.1340068 7-7s-3.1340068-7-7-7zm-2 7c0 11.5979797-9.4020203 21-21 21s-21-9.4020203-21-21 9.4020203-21 21-21c11.5927251.01267598 20.987324 9.4072749 21 21zm-8.273-19.8c1.2634697-1.26346982 3.1050171-1.75691098 4.8309489-1.29444896s3.074038 1.81056826 3.5365001 3.53650006c.462462 1.7259318-.0309792 3.5674792-1.294449 4.8309489-.1341089.1290482-.2749738.2508863-.422.365-1.8048609-2.8188647-4.1991353-5.2131391-7.018-7.018.1148382-.1463764.2373429-.2865725.367-.42zm-17.727-3.2c0-2.76142375 2.2385763-5 5-5s5 2.23857625 5 5c-.003304.18226388-.0166576.36420683-.04.545-3.2667448-.72665934-6.6532552-.72665934-9.92 0-.0233424-.18079317-.036696-.36273612-.04-.545zm-14.8 10.273c-1.26346979-1.2634698-1.75691092-3.1050171-1.2944489-4.8309489.46246203-1.7259318 1.8105682-3.07403797 3.5365-3.5365 1.7259318-.46246202 3.5674791.03097911 4.8309489 1.2944489.1290482.1341089.2508863.2749738.365.422-2.8188647 1.8048609-5.2131391 4.1991353-7.018 7.018-.1463764-.1148382-.2865725-.2373429-.42-.367zm-3.2 17.727c-2.76142375 0-5-2.2385763-5-5s2.23857625-5 5-5c.18226388.003304.36420683.0166576.545.04-.72665934 3.2667448-.72665934 6.6532552 0 9.92-.18079317.0233424-.36273612.036696-.545.04zm10.273 14.8c-1.2634697 1.2634698-3.1050171 1.756911-4.8309489 1.294449-1.7259318-.4624621-3.07403804-1.8105683-3.53650006-3.5365001s.03097914-3.5674792 1.29444896-4.8309489c.1341089-.1290482.2749738-.2508863.422-.365 1.8048609 2.8188647 4.1991353 5.2131391 7.018 7.018-.1148382.1463764-.2373429.2865725-.367.42zm17.727 3.2c.030314 1.8707489-.9863591 3.6018874-2.6349422 4.4866438-1.6485832.8847564-3.6531861.7750668-5.1953898-.2842859-1.5422036-1.0593527-2.3639204-2.8910858-2.129668-4.7473579 3.2667448.7266593 6.6532552.7266593 9.92 0 .0233424.1807932.036696.3627361.04.545zm14.8-10.273c1.2634698 1.2634697 1.756911 3.1050171 1.294449 4.8309489-.462462 1.7259319-1.8105682 3.0740381-3.5365001 3.5365001-1.7259318.462462-3.5674792-.0309792-4.8309489-1.294449-.1290482-.1341089-.2508863-.2749738-.365-.422 2.8188647-1.8048609 5.2131391-4.1991353 7.018-7.018.1463764.1148382.2865725.2373429.42.367zm3.2-7.727c-.1822639-.003304-.3642068-.0166576-.545-.04.7266593-3.2667448.7266593-6.6532552 0-9.92 1.8562721-.2342524 3.6880052.5874644 4.7473579 2.129668 1.0593527 1.5422037 1.1690423 3.5468066.2842859 5.1953898-.8847564 1.6485831-2.6158949 2.6652562-4.4866438 2.6349422z"/></g></g></g></svg>