<svg height="512" viewBox="0 0 47 60" width="512" xmlns="http://www.w3.org/2000/svg"><g id="Page-1" fill="none" fill-rule="evenodd"><g id="005---Metronome" fill-rule="nonzero"><g id="Color" transform="translate(1 1)"><path id="Shape" d="m39.74 54h-35.48c-1.24914135-.0013212-2.42594943-.5861173-3.18138632-1.5809394s-1.00275988-2.2854402-.66861368-3.4890606l3.31-11.93h36.56l3.31 11.93c.3341462 1.2036204.0868232 2.4942385-.6686137 3.4890606s-1.9322449 1.5796182-3.1813863 1.5809394z" fill="#91562d"/><path id="Shape" d="m43.59 48.93-3.31-11.93h-3l3.31 11.93c.3341462 1.2036204.0868232 2.4942385-.6686137 3.4890606s-1.9322449 1.5796182-3.1813863 1.5809394h3c1.2491414-.0013212 2.4259494-.5861173 3.1813863-1.5809394s1.0027599-2.2854402.6686137-3.4890606z" fill="#6d4122"/><path id="Shape" d="m40.28 37h-36.56l9.16-33h18.24z" fill="#f5f5f5"/><path id="Shape" d="m31.12 4h-3l9.16 33h3z" fill="#cfd8dc"/><path id="Shape" d="m31.12 4h-18.24l.71-2.54c.2425091-.86483149 1.0318127-1.46192126 1.93-1.46h12.96c.8981873-.00192126 1.6874909.59516851 1.93 1.46z" fill="#91562d"/><path id="Shape" d="m30.41 1.46c-.2425091-.86483149-1.0318127-1.46192126-1.93-1.46l-3-.00000462c.8981873-.00191664 1.6874909.59517313 1.93 1.46000462l.71 2.54h3z" fill="#6d4122"/><path id="Shape" d="m12 54v2c0 1.1045695-.8954305 2-2 2h-4c-1.1045695 0-2-.8954305-2-2v-2" fill="#a0522d"/><path id="Shape" d="m9 54v2c0 1.1045695-.8954305 2-2 2h3c1.1045695 0 2-.8954305 2-2v-2z" fill="#783e22"/><path id="Shape" d="m40 54v2c0 1.1045695-.8954305 2-2 2h-4c-1.1045695 0-2-.8954305-2-2v-2" fill="#a0522d"/><path id="Shape" d="m9 54v2c0 1.1045695-.8954305 2-2 2h3c1.1045695 0 2-.8954305 2-2v-2z" fill="#783e22"/><path id="Shape" d="m40 54v2c0 1.1045695-.8954305 2-2 2h-4c-1.1045695 0-2-.8954305-2-2v-2" fill="#a0522d"/><path id="Shape" d="m37 54v2c0 1.1045695-.8954305 2-2 2h3c1.1045695 0 2-.8954305 2-2v-2z" fill="#783e22"/><rect id="Rectangle-path" fill="#ffdc00" height="9" rx="3" width="28" x="8" y="41"/><path id="Shape" d="m33 41h-3c1.6568542 0 3 1.3431458 3 3v3c0 1.6568542-1.3431458 3-3 3h3c1.6568542 0 3-1.3431458 3-3v-3c0-1.6568542-1.3431458-3-3-3z" fill="#fec108"/><circle id="Oval" cx="41" cy="7" fill="#ffdc00" r="3"/></g><g id="Outline" fill="#000"><path id="Shape" d="m4 55.835v1.165c0 1.6568542 1.34314575 3 3 3h4c1.6568542 0 3-1.3431458 3-3v-1h18v1c0 1.6568542 1.3431458 3 3 3h4c1.6568542 0 3-1.3431458 3-3v-1.164c1.2959365-.3381024 2.4020545-1.1819872 3.0705047-2.3425642.6684502-1.1605769.8433449-2.5408126.4854953-3.8314358l-8.766-31.556 4-6.313c.3900733.1316671.7983408.2015112 1.21.207 1.5933629.0052165 3.0368312-.9387387 3.6708375-2.40054183.6340063-1.46180317.3367914-3.16071918-.7558375-4.32045817l1.171-1.855c.2526502-.46264916.1027782-1.04197383-.3425357-1.32405877-.4453139-.28208495-1.0331292-.17004977-1.3434643.25605877l-1.177 1.855c-1.7315226-.56631047-3.6264813.11564494-4.6000534 1.65546155-.9735722 1.53981661-.7770534 3.54413998.4770534 4.86553845l-3.027 4.777-3.703-13.309c-.3619113-1.29781171-1.5426753-2.19666316-2.89-2.2h-12.96c-1.3473247.00333684-2.5280887.90218829-2.89 2.2l-13.185 47.462c-.35928504 1.2903999-.18513072 2.67104.48334403 3.831798.66847474 1.160758 1.77522712 2.0043195 3.07165597 2.341202zm38-49.835c1.1045695 0 2 .8954305 2 2s-.8954305 2-2 2-2-.8954305-2-2 .8954305-2 2-2zm-30 51c0 .5522847-.4477153 1-1 1h-4c-.55228475 0-1-.4477153-1-1v-1h6zm27 1h-4c-.5522847 0-1-.4477153-1-1v-1h6v1c0 .5522847-.4477153 1-1 1zm.962-21h-15.144l10.529-16.616zm-5.337-19.214-10.625 16.768v-28.554h7.351zm-18.105-15.786h12.96c.4489151.00018807.8426908.29950663.963.732l.357 1.268h-15.595l.352-1.268c.1203092-.43249337.5140849-.73181193.963-.732zm-1.871 4h7.351v2h-2c-.5522847 0-1 .44771525-1 1s.4477153 1 1 1h2v3h-4c-.5522847 0-1 .4477153-1 1s.4477153 1 1 1h4v3h-2c-.5522847 0-1 .4477153-1 1s.4477153 1 1 1h2v3h-4c-.5522847 0-1 .4477153-1 1s.4477153 1 1 1h4v3h-2c-.5522847 0-1 .4477153-1 1s.4477153 1 1 1h2v3h-4c-.5522847 0-1 .4477153-1 1s.4477153 1 1 1h4v2h-15.962zm-12.277 44.2 3.11-11.2h35.036l3.11 11.2c.2498383.9029676.0634835 1.8708088-.5037882 2.6164444s-1.4503182 1.1834412-2.3872118 1.1835556h-35.474c-.93689358-.0001144-1.81994008-.43792-2.38721178-1.1835556-.56727169-.7456356-.75362652-1.7134768-.50378822-2.6164444z"/><path id="Shape" d="m12 52h22c2.209139 0 4-1.790861 4-4v-3c0-2.209139-1.790861-4-4-4h-22c-2.209139 0-4 1.790861-4 4v3c0 2.209139 1.790861 4 4 4zm-2-7c0-1.1045695.8954305-2 2-2h22c1.1045695 0 2 .8954305 2 2v3c0 1.1045695-.8954305 2-2 2h-22c-1.1045695 0-2-.8954305-2-2z"/><circle id="Oval" cx="27" cy="9" r="1"/><circle id="Oval" cx="27" cy="14" r="1"/><circle id="Oval" cx="27" cy="19" r="1"/><circle id="Oval" cx="27" cy="24" r="1"/><circle id="Oval" cx="13" cy="47" r="1"/><circle id="Oval" cx="17" cy="47" r="1"/><circle id="Oval" cx="21" cy="47" r="1"/><circle id="Oval" cx="25" cy="47" r="1"/><circle id="Oval" cx="29" cy="47" r="1"/><circle id="Oval" cx="33" cy="47" r="1"/></g></g></g></svg>