<svg height="512" viewBox="0 0 60 52" width="512" xmlns="http://www.w3.org/2000/svg"><g id="Page-1" fill="none" fill-rule="evenodd"><g id="006---tape-reel" fill-rule="nonzero"><g id="Color" transform="translate(1 1)"><path id="Shape" d="m3 48c0 1.1045695.8954305 2 2 2h48c1.1045695 0 2-.8954305 2-2v-42h-52z" fill="#7f8e94"/><path id="Shape" d="m52 6v42c0 1.1045695-.8954305 2-2 2h3c1.1045695 0 2-.8954305 2-2v-42z" fill="#545c60"/><circle id="Oval" cx="13" cy="13" fill="#00bcd4" r="13"/><path id="Shape" d="m13 0c-.5013727.00211961-1.0022053.03317123-1.5.093 6.5547585.75793243 11.5005523 6.30856684 11.5005523 12.907 0 6.5984332-4.9457938 12.1490676-11.5005523 12.907 4.8017364.577143 9.5269407-1.5589761 12.2658122-5.5449953 2.7388716-3.9860191 3.0386134-9.1629598.7780779-13.43844173-2.2605356-4.27548191-6.7076311-6.94267171-11.5438901-6.92356297z" fill="#00838f"/><circle id="Oval" cx="45" cy="13" fill="#00bcd4" r="13"/><path id="Shape" d="m45 0c-.5013727.00211961-1.0022053.03317123-1.5.093 6.5547585.75793243 11.5005523 6.30856684 11.5005523 12.907 0 6.5984332-4.9457938 12.1490676-11.5005523 12.907 4.8017364.577143 9.5269407-1.5589761 12.2658122-5.5449953 2.7388716-3.9860191 3.0386134-9.1629598.7780779-13.43844173-2.2605356-4.27548191-6.7076311-6.94267171-11.5438901-6.92356297z" fill="#00838f"/><circle id="Oval" cx="13" cy="13" fill="#0377bc" r="6"/><circle id="Oval" cx="13" cy="13" fill="#f5f5f5" r="2"/><circle id="Oval" cx="45" cy="13" fill="#0377bc" r="6"/><circle id="Oval" cx="45" cy="13" fill="#f5f5f5" r="2"/><rect id="Rectangle-path" fill="#00bcd4" height="10" rx="2" width="16" x="21" y="28"/><path id="Shape" d="m35 28h-3c1.1045695 0 2 .8954305 2 2v6c0 1.1045695-.8954305 2-2 2h3c1.1045695 0 2-.8954305 2-2v-6c0-1.1045695-.8954305-2-2-2z" fill="#00838f"/><circle id="Oval" cx="12" cy="36" fill="#00bcd4" r="3"/><circle id="Oval" cx="46" cy="36" fill="#00bcd4" r="3"/><path id="Shape" d="m55 44v4c-.0032948 1.1032019-.8967981 1.9967052-2 2h-48c-1.10320187-.0032948-1.9967052-.8967981-2-2v-4z" fill="#a0522d"/><path id="Shape" d="m52 44v4c-.0032948 1.1032019-.8967981 1.9967052-2 2h3c1.1032019-.0032948 1.9967052-.8967981 2-2v-4z" fill="#783e22"/></g><g id="Outline" fill="#000"><path id="Shape" d="m14 17c1.6568542 0 3-1.3431458 3-3s-1.3431458-3-3-3-3 1.3431458-3 3 1.3431458 3 3 3zm0-4c.5522847 0 1 .4477153 1 1s-.4477153 1-1 1-1-.4477153-1-1 .4477153-1 1-1z"/><path id="Shape" d="m46 17c1.6568542 0 3-1.3431458 3-3s-1.3431458-3-3-3-3 1.3431458-3 3 1.3431458 3 3 3zm0-4c.5522847 0 1 .4477153 1 1s-.4477153 1-1 1-1-.4477153-1-1 .4477153-1 1-1z"/><path id="Shape" d="m3 49c0 1.6568542 1.34314575 3 3 3h48c1.6568542 0 3-1.3431458 3-3v-26.368c3.1477827-4.0042402 3.869673-9.4032094 1.8844634-14.09377638-1.9852096-4.69056697-6.3635657-7.93093617-11.4295097-8.45884413-5.065944-.52790797-10.018316 1.74013198-12.9279537 5.92062051h-9.054c-2.9096377-4.18048853-7.8620097-6.44852848-12.9279537-5.92062051-5.06594404.52790796-9.44430006 3.76827716-11.42950966 8.45884413-1.9852096 4.69056698-1.26331936 10.08953618 1.88446336 14.09377638zm11-40c2.7614237 0 5 2.2385763 5 5s-2.2385763 5-5 5-5-2.2385763-5-5c.00330612-2.7600532 2.2399468-4.99669388 5-5zm-4.184 10.6c2.4761201 1.8693916 5.8918799 1.8693916 8.368 0l3.557 3.557c-4.463628 3.7932489-11.018372 3.7932489-15.482 0zm3.184 15.4c1.1045695 0 2 .8954305 2 2s-.8954305 2-2 2-2-.8954305-2-2 .8954305-2 2-2zm0 6c2.209139 0 4-1.790861 4-4-.0034898-.319934-.0457992-.6382618-.126-.948l4.126-1.721v2.669c0 1.6568542 1.3431458 3 3 3h12c1.6568542 0 3-1.3431458 3-3v-2.669l4.126 1.721c-.0802008.3097382-.1225102.628066-.126.948-.0064677 1.800922 1.1913732 3.3841014 2.9262049 3.8675482s3.5788234-.252063 4.5046863-1.7967764c.925863-1.5447134.7052681-3.5176852-.5388912-4.8197718l2.384-7.751c.9746974-.4891973 1.8888959-1.0906084 2.724-1.792v19.292h-50v-19.292c.83510406.7013916 1.74930263 1.3028027 2.724 1.792l2.384 7.754c-1.10407239 1.155839-1.41179872 2.8590272-.78199338 4.3281374s2.07557778 2.4205761 3.67399338 2.4178626zm17.535-3-1.842-2.763c1.0504483-.3823904 2.2140046-.2995817 3.1997114.227719.9857069.5273006 1.7003725 1.4492407 1.9652886 2.535281zm-2.4 0h-1.99c.159733-.6138047.4638468-1.1805466.887-1.653zm7.778 0c-.3049138-1.8306566-1.4421003-3.4161692-3.0783409-4.2919505s-3.5862585-.9426637-5.2786591-.1810495l-.721-1.082c-.306518-.4595009-.9274991-.583518-1.387-.277s-.583518.9274991-.277 1.387l.723 1.084c-.9514634.8938588-1.584919 2.0740386-1.804 3.361h-.09c-.5522847 0-1-.4477153-1-1v-6c0-.5522847.4477153-1 1-1h12c.5522847 0 1 .4477153 1 1v6c0 .5522847-.4477153 1-1 1zm13.087-1c0 1.1045695-.8954305 2-2 2s-2-.8954305-2-2 .8954305-2 2-2 2 .8954305 2 2zm-3-28c2.7614237 0 5 2.2385763 5 5s-2.2385763 5-5 5-5-2.2385763-5-5c.0033061-2.7600532 2.2399468-4.99669388 5-5zm-4.184 10.6c2.4761201 1.8693916 5.8918799 1.8693916 8.368 0l3.557 3.557c-4.463628 3.7932489-11.018372 3.7932489-15.482 0zm12.184 30.4h-1v-1c0-.5522847-.4477153-1-1-1s-1 .4477153-1 1v1h-2v-1c0-.5522847-.4477153-1-1-1s-1 .4477153-1 1v1h-2v-1c0-.5522847-.4477153-1-1-1s-1 .4477153-1 1v1h-2v-1c0-.5522847-.4477153-1-1-1s-1 .4477153-1 1v1h-2v-1c0-.5522847-.4477153-1-1-1s-1 .4477153-1 1v1h-2v-1c0-.5522847-.4477153-1-1-1s-1 .4477153-1 1v1h-2v-1c0-.5522847-.4477153-1-1-1s-1 .4477153-1 1v1h-2v-1c0-.5522847-.4477153-1-1-1s-1 .4477153-1 1v1h-2v-1c0-.5522847-.4477153-1-1-1s-1 .4477153-1 1v1h-2v-1c0-.5522847-.4477153-1-1-1s-1 .4477153-1 1v1h-2v-1c0-.5522847-.4477153-1-1-1s-1 .4477153-1 1v1h-2v-1c0-.5522847-.44771525-1-1-1s-1 .4477153-1 1v1h-1c-.55228475 0-1-.4477153-1-1v-3h50v3c0 .5522847-.4477153 1-1 1zm4-36c.0010545 2.8360151-1.0074786 5.5797923-2.845 7.74l-3.555-3.556c1.4843148-1.973287 1.8152498-4.5840903.8702195-6.8653114-.9450304-2.28122107-3.0252954-3.89314829-5.4702195-4.2386886v-5.029c6.2124605.52381843 10.9908952 5.71450178 11 11.949zm-13-11.949v5.029c-2.4435043.34632004-4.5223369 1.95757973-5.4671615 4.2374826-.9448246 2.2799029-.6150953 4.8893054.8671615 6.8625174l-3.555 3.56c-2.9052141-3.424047-3.6514451-8.185341-1.9330957-12.33403265 1.7183493-4.14869163 5.6126466-6.98792217 10.0880957-7.35496735zm-11.63 5.949c-2.3799235 4.971947-1.6134891 10.8785402 1.956563 15.0784235 3.5700521 4.1998834 9.2760874 5.9076378 14.566437 4.3595765l-1.766 5.744c-.3648126-.1151688-.7444799-.1764815-1.127-.182-1.1094827.0022104-2.1676316.4676653-2.919 1.284l-5.081-2.12v-1.164c0-1.6568542-1.3431458-3-3-3h-12c-1.6568542 0-3 1.3431458-3 3v1.164l-5.081 2.12c-.7513684-.8163347-1.8095173-1.2817896-2.919-1.284-.3825201.0055185-.7621874.0668312-1.127.182l-1.766-5.744c5.290502 1.5490273 10.997222-.1584333 14.5675447-4.3586349 3.5703226-4.2002017 4.3363567-10.1074232 1.9554553-15.0793651zm-7.37 6c.0010545 2.8360151-1.0074786 5.5797923-2.845 7.74l-3.555-3.556c1.4843148-1.973287 1.8152498-4.5840903.8702195-6.8653114-.9450304-2.28122107-3.0252954-3.89314829-5.4702195-4.2386886v-5.029c6.2124605.52381843 10.9908952 5.71450178 11 11.949zm-13-11.949v5.029c-2.4435043.34632004-4.52233687 1.95757973-5.46716149 4.2374826-.94482463 2.2799029-.61509528 4.8893054.86716149 6.8625174l-3.555 3.56c-2.90521411-3.424047-3.65144509-8.185341-1.93309574-12.33403265 1.71834935-4.14869163 5.61264664-6.98792217 10.08809574-7.35496735z"/><path id="Shape" d="m29 22h2c.5522847 0 1-.4477153 1-1s-.4477153-1-1-1h-2c-.5522847 0-1 .4477153-1 1s.4477153 1 1 1z"/><path id="Shape" d="m26 25c0 .5522847.4477153 1 1 1h6c.5522847 0 1-.4477153 1-1s-.4477153-1-1-1h-6c-.5522847 0-1 .4477153-1 1z"/></g></g></g></svg>