<svg height="512" viewBox="0 0 58 60" width="512" xmlns="http://www.w3.org/2000/svg"><g id="Page-1" fill="none" fill-rule="evenodd"><g id="007---microphone" fill-rule="nonzero" transform="translate(-1 -1)"><g id="Color" transform="translate(2 2)"><circle id="Oval" cx="27" cy="27" fill="#607d8b" r="27"/><path id="Shape" d="m27 0c-.5 0-1 .016-1.5.044 14.2898147.81680307 25.4592002 12.6428602 25.4592002 26.956s-11.1693855 26.1391969-25.4592002 26.956c.5.028 1 .044 1.5.044 14.911688-.0000004 26.9999993-12.088312 26.9999993-27s-12.0883113-26.99999962-26.9999993-27z" fill="#37474f"/><circle id="Oval" cx="27" cy="27" fill="#ef314c" r="12"/><path id="Shape" d="m27 15c-.5016004.0019005-1.0025863.0352996-1.5.1 5.9981525.7514856 10.4985957 5.8509554 10.4985957 11.896s-4.5004432 11.1445144-10.4985957 11.896c4.4513412.6000263 8.8650932-1.3360521 11.4384127-5.0174236 2.5733196-3.6813716 2.8753186-8.4916109.7826423-12.4659255s-6.2296207-6.4472272-10.721055-6.4086509z" fill="#bb193b"/><path id="Shape" d="m5 28c-.55228475 0-1-.4477153-1-1 .01432841-12.6966095 10.3033905-22.98567159 23-23 .5522847 0 1 .44771525 1 1s-.4477153 1-1 1c-11.592497.01322591-20.98677409 9.407503-21 21 0 .2652165-.10535684.5195704-.29289322.7071068s-.44189029.2928932-.70710678.2928932z" fill="#f5f5f5"/><path id="Shape" d="m9 28c-.55228475 0-1-.4477153-1-1 .0115735-10.4886126 8.5113874-18.9884265 19-19 .5522847 0 1 .44771525 1 1s-.4477153 1-1 1c-9.3845001.010471-16.989529 7.6154999-17 17 0 .5522847-.44771525 1-1 1z" fill="#f5f5f5"/><circle id="Oval" cx="27" cy="27" fill="#37474f" r="4"/><path id="Shape" d="m53 33c2.0283867-1.7440784 3.135934-4.3283556 3-7 0-4.9705627-4.0294373-9-9-9s-9 4.0294373-9 9c-.135934 2.6716444.9716133 5.2559216 3 7z" fill="#673ab7"/><path id="Shape" d="m47 17c-.5028835.0032224-1.0046224.0483789-1.5.135 4.3269061.7313783 7.495553 4.4767189 7.5 8.865.135934 2.6716444-.9716133 5.2559216-3 7h3c2.0283867-1.7440784 3.135934-4.3283556 3-7 0-4.9705627-4.0294373-9-9-9z" fill="#4527a0"/><path id="Shape" d="m43 38h8v15c0 .5522847-.4477153 1-1 1h-6c-.5522847 0-1-.4477153-1-1z" fill="#ef314c"/><path id="Shape" d="m48 38v15c0 .5522847-.4477153 1-1 1h3c.5522847 0 1-.4477153 1-1v-15z" fill="#bb193b"/><path id="Shape" d="m44 54h6v2c0 1.1045695-.8954305 2-2 2h-2c-1.1045695 0-2-.8954305-2-2z" fill="#ffeb3a"/><path id="Shape" d="m51.18 38h-8.36c-.4756442.0005727-.8858714-.3339653-.981-.8l-.839-4.2h12l-.839 4.2c-.0951286.4660347-.5053558.8005727-.981.8z" fill="#ffeb3a"/><path id="Shape" d="m50 33-.839 4.2c-.0951286.4660347-.5053558.8005727-.981.8000007l3-.0000007c.4756442.0005727.8858714-.3339653.981-.8l.839-4.2z" fill="#fec108"/></g><g id="Outline" fill="#000"><path id="Shape" d="m29 24c-2.7614237 0-5 2.2385763-5 5s2.2385763 5 5 5 5-2.2385763 5-5c-.0033061-2.7600532-2.2399468-4.9966939-5-5zm0 8c-1.6568542 0-3-1.3431458-3-3s1.3431458-3 3-3 3 1.3431458 3 3-1.3431458 3-3 3z"/><path id="Shape" d="m55.713 20.61c-4.3047049-13.70601655-18.2838406-21.93040932-32.3553036-19.03570655-14.07146297 2.89470276-23.66911401 15.96918045-22.21417118 30.26143415 1.45494283 14.2922536 13.49035578 25.1644984 27.85647478 25.1642724 5.3147566.0129085 10.5213116-1.5015048 15-4.363v2.363c.002145.7113268.3832487 1.3675874 1 1.722v1.278c0 1.6568542 1.3431458 3 3 3h2c1.6568542 0 3-1.3431458 3-3v-1.278c.6167513-.3544126.997855-1.0106732 1-1.722v-14.185c.5874602-.2629471 1.0124776-.7925441 1.142-1.423l.775-3.876c2.0708124-1.9384423 3.1960898-4.6817394 3.083-7.516-.0017871-2.8172228-1.1959725-5.502051-3.287-7.39zm-26.713 34.39c-13.0134476.0059279-24.02692725-9.6101953-25.7759466-22.5055737-1.74901934-12.8953784 6.30519476-25.0976813 18.8500818-28.55826829 12.544887-3.460587 25.7160827 2.88655139 30.8258648 14.85484199-4.5790633-1.9405633-9.8880583-.2128369-12.448 4.051-2.8675492-5.3294221-9.033382-7.9751513-14.8716513-6.3813542-5.8382693 1.5937972-9.8044951 7.005491-9.5663196 13.0527094.2381756 6.0472184 4.6177445 11.1302051 10.5632806 12.2598857s11.8841826-1.9927953 14.3236903-7.5312409c.3493753.4646229.7465509.8912934 1.185 1.273l.775 3.877c.1288962.6298253.552695 1.1592946 1.139 1.423v9.406c-4.3784341 3.1199749-9.6236832 4.7911113-15 4.779zm10.628-23.194c-1.3924704 5.2576395-6.420669 8.7064141-11.8269982 8.1119808-5.4063293-.5944333-9.5650693-5.0533243-9.7819148-10.4879103-.2168455-5.4345861 3.5734103-10.2106501 8.9151906-11.233944 5.3417803-1.0232938 10.6287754 2.013894 12.4357224 7.1438735-.2425436.8659617-.3670021 1.760718-.37 2.66-.0069909 1.2950191.2053435 2.5818738.628 3.806zm13.553 7.23v-.036.037zm0-.036h-8.362l-.6-3h9.56zm-1.181 16h-6v-14h6zm-1 3c0 .5522847-.4477153 1-1 1h-2c-.5522847 0-1-.4477153-1-1v-1h4zm3.609-24h-11.218c-1.6209792-1.5642893-2.4918157-3.7495754-2.391-6 0-4.418278 3.581722-8 8-8s8 3.581722 8 8c.1008157 2.2504246-.7700208 4.4357107-2.391 6z"/><path id="Shape" d="m49 46c.5522847 0 1-.4477153 1-1v-1c0-.5522847-.4477153-1-1-1s-1 .4477153-1 1v1c0 .5522847.4477153 1 1 1z"/><path id="Shape" d="m49 53c.5522847 0 1-.4477153 1-1v-3c0-.5522847-.4477153-1-1-1s-1 .4477153-1 1v3c0 .5522847.4477153 1 1 1z"/><circle id="Oval" cx="46" cy="24" r="1"/><circle id="Oval" cx="44" cy="27" r="1"/><circle id="Oval" cx="48" cy="27" r="1"/></g></g></g></svg>