<svg height="512" viewBox="0 0 48 60" width="512" xmlns="http://www.w3.org/2000/svg"><g id="Page-1" fill="none" fill-rule="evenodd"><g id="008---Gramophone" fill-rule="nonzero"><g id="Color" transform="translate(1 1)"><path id="Shape" d="m18 13.03c0 7.18-4.03 13-9 13s-9-5.82-9-13 4.03-13 9-13c0 0 .16 0 .48.02.07.01.14.01.21.02 4.65.51 8.31 6.11 8.31 12.96z" fill="#ff9801"/><path id="Shape" d="m9.69.07c-.07-.01-.14-.01-.21-.02-.32-.02-.48-.02-.48-.02-.49775797.00509601-.99317869.06886968-1.476.19 4.246 1.045 7.476 6.38 7.476 12.81s-3.245 11.77-7.5 12.805c.49019813.1264362.99379929.1935831 1.5.2 4.97 0 9-5.82 9-13 0-6.855-3.66-12.455-8.31-12.965z" fill="#f57c00"/><path id="Shape" d="m35.41 24.03h-4.91c-1.1895597-.0041496-2.2159158.8336921-2.45 2h-19.05c4.97 0 9-5.82 9-13 0-6.85-3.66-12.45-8.31-12.96 2.32.18 9.95 1.36 13.31 8.96 4.12 9.29 10.76 11.28 12.2 14.12.1398349.2721456.2118771.5740367.21.88z" fill="#ffeb3a"/><path id="Shape" d="m35.2 23.15c-1.44-2.84-8.08-4.83-12.2-14.12-3.36-7.6-10.99-8.78-13.31-8.96 1.7600827.24009505 3.3781594 1.09607782 4.567 2.416 2.5514682 1.52720565 4.5599772 3.81584966 5.743 6.544 4.12 9.29 10.76 11.28 12.2 14.12.1398349.2721456.2118771.5740367.21.88h3.0000358c.0018413-.3059633-.0702009-.6078544-.2100358-.88z" fill="#fec108"/><path id="Shape" d="m38 26.53c.0021341.6636932-.2605727 1.3008186-.729877 1.770123-.4693044.4693043-1.1064298.7320111-1.770123.729877h-5c-1.3807119 0-2.5-1.1192881-2.5-2.5.0012827-.1678482.01802-.3352216.05-.5.2340842-1.1663079 1.2604403-2.0041496 2.45-2h5c.6630412 0 1.298926.2633921 1.767767.732233.4688409.468841.732233 1.1047258.732233 1.767767z" fill="#ff9801"/><path id="Shape" d="m35.5 24.03h-3c1.3807119 0 2.5 1.1192881 2.5 2.5s-1.1192881 2.5-2.5 2.5h3c1.3807119 0 2.5-1.1192881 2.5-2.5s-1.1192881-2.5-2.5-2.5z" fill="#f57c00"/><path id="Rectangle-path" d="m31 29.03h4v4h-4z" fill="#f57c00"/><path id="Shape" d="m43 35.03v2h-40v-2c0-1.1045695.8954305-2 2-2h36c1.1045695 0 2 .8954305 2 2z" fill="#607d8b"/><path id="Shape" d="m41 33.03h-3c1.1045695 0 2 .8954305 2 2v2h3v-2c0-1.1045695-.8954305-2-2-2z" fill="#37474f"/><rect id="Rectangle-path" fill="#a0522d" height="4" rx="2" width="46" y="37"/><path id="Shape" d="m44 37h-3c1.1045695 0 2 .8954305 2 2s-.8954305 2-2 2h3c1.1045695 0 2-.8954305 2-2s-.8954305-2-2-2z" fill="#783e22"/><rect id="Rectangle-path" fill="#a0522d" height="4" rx="2" width="46" y="54"/><path id="Shape" d="m44 54h-3c1.1045695 0 2 .8954305 2 2s-.8954305 2-2 2h3c1.1045695 0 2-.8954305 2-2s-.8954305-2-2-2z" fill="#783e22"/><path id="Rectangle-path" d="m3 41h40v13h-40z" fill="#607d8b"/><path id="Rectangle-path" d="m40 41h3v13h-3z" fill="#37474f"/><rect id="Rectangle-path" fill="#ffeb3a" height="5" rx="2" width="26" x="10" y="45"/><path id="Shape" d="m34 45h-3c1.1045695 0 2 .8954305 2 2v1c0 1.1045695-.8954305 2-2 2h3c1.1045695 0 2-.8954305 2-2v-1c0-1.1045695-.8954305-2-2-2z" fill="#fec108"/></g><g id="Outline" fill="#000"><path id="Shape" d="m0 57c0 1.6568542 1.34314575 3 3 3h42c1.6568542 0 3-1.3431458 3-3s-1.3431458-3-3-3v-11c1.6568542 0 3-1.3431458 3-3s-1.3431458-3-3-3v-.972c0-1.6568542-1.3431458-3-3-3h-5v-2.051c1.6736641-.2372775 2.9364845-1.6401968 2.9970194-3.3295126.0605348-1.6893157-1.0986314-3.1790244-2.7510194-3.5354874-.0401094-.1425672-.0916084-.2816815-.154-.416-.8672418-1.3259088-2.0005284-2.4571522-3.328-3.322-3.8603766-2.7255709-6.9170435-6.4388168-8.85-10.751-4.214-9.517-14.437-9.596-14.914-9.595-5.512 0-10 6.282-10 14s4.486 14 10 14h18.051c.2214392 1.5276118 1.4213882 2.7275608 2.949 2.949v2.051h-6v-1.028c0-.5522847-.4477153-1-1-1s-1 .4477153-1 1v1.028h-17c-1.65685425 0-3 1.3431458-3 3v.972c-1.65685425 0-3 1.3431458-3 3s1.34314575 3 3 3v11c-1.65685425 0-3 1.3431458-3 3zm46 0c0 .5522847-.4477153 1-1 1h-42c-.55228475 0-1-.4477153-1-1s.44771525-1 1-1h42c.5522847 0 1 .4477153 1 1zm-44-42.972c0-6.617 3.589-12 8-12s8 5.383 8 12-3.589 12-8 12-8-5.383-8-12zm18 0c.0687003-3.6416054-1.0360653-7.20869045-3.151-10.174 2.7823883 1.39885209 4.9885313 3.72596687 6.237 6.579 2.0552672 4.6174374 5.3174039 8.5953581 9.443 11.515.8570104.6188446 1.6553644 1.315103 2.385 2.08h-3.414c-1.3470861.005115-2.5716829.7828837-3.149 2h-13.227c2.915-2.449 4.876-6.904 4.876-12zm10 13.5c0-.8284271.6715729-1.5 1.5-1.5h5c.8284271 0 1.5.6715729 1.5 1.5s-.6715729 1.5-1.5 1.5h-5c-.8284271 0-1.5-.6715729-1.5-1.5zm3 3.5h2v2h-2zm-28 5c0-.5522847.44771525-1 1-1h36c.5522847 0 1 .4477153 1 1v.972h-38zm-3 3.972c0-.5522847.44771525-1 1-1h.862c.04520965.0128759.09134714.0222371.138.028h40c.0466529-.0057629.0927903-.0151241.138-.028h.862c.5522847 0 1 .4477153 1 1s-.4477153 1-1 1h-42c-.55228475 0-1-.4477153-1-1zm3 3h38v11h-38z"/><path id="Shape" d="m35 45h-22c-1.6568542 0-3 1.3431458-3 3v1c0 1.6568542 1.3431458 3 3 3h22c1.6568542 0 3-1.3431458 3-3v-1c0-1.6568542-1.3431458-3-3-3zm1 4c0 .5522847-.4477153 1-1 1h-22c-.5522847 0-1-.4477153-1-1v-1c0-.5522847.4477153-1 1-1h22c.5522847 0 1 .4477153 1 1z"/></g></g></g></svg>