<svg height="512" viewBox="0 0 60 60" width="512" xmlns="http://www.w3.org/2000/svg"><g id="Page-1" fill="none" fill-rule="evenodd"><g id="009---Shehnai" fill-rule="nonzero"><g id="Color"><g fill="#ffeb3a"><rect id="Rectangle-path" height="4.016" rx="2" transform="matrix(-.707 -.707 .707 -.707 77.997 52.531)" width="24.098" x="37.829" y="8.104"/><rect id="Rectangle-path" height="4.016" rx="2" transform="matrix(-.707 -.707 .707 -.707 40.287 68.153)" width="18.074" x="25.221" y="23.725"/><rect id="Rectangle-path" height="4.016" rx="2" transform="matrix(-.707 -.707 .707 -.707 -26.565 95.842)" width="10.041" x="1.547" y="51.415"/></g><path id="Shape" d="m41.358 4.432-10.65 14.91 9.94 9.94 14.91-10.65z" fill="#a0522d"/><path id="Shape" d="m41.358 4.432-1.25 1.75 12.45 12.45-13.16 9.4 1.25 1.25 14.91-10.65z" fill="#783e22"/><path id="Shape" d="m28.578 22.892-22.72 26.98 2.13 2.13 2.13 2.13 26.98-22.72z" fill="#a0522d"/><path id="Shape" d="m28.578 22.892-1.371 1.629 6.891 6.891-25.352 21.349 1.372 1.371 26.98-22.72z" fill="#783e22"/><path id="Shape" d="m3.37090056 54.1182292h.024c1.11009235 0 2.01.8999076 2.01 2.01v3.01h-4.044v-3.01c0-1.1100924.89990766-2.01 2.01-2.01z" fill="#ffeb3a" transform="matrix(-.707 -.707 .707 -.707 -34.267 99.063)"/></g><g id="Outline" fill="#000"><path id="Shape" d="m.909 59.119c1.17664249 1.1728688 3.08035751 1.1728688 4.257 0l1.423-1.419c.55827189.5545096 1.31314018.8658029 2.1.866 1.0203252.0037763 1.9726196-.5112988 2.5279137-1.367293.5552942-.8559943.6374498-1.9355393.2180863-2.865707l25.6-21.559.066.066c1.0179303 1.0159687 2.6124983 1.16957 3.8056441.3665894 1.1931457-.8029805 1.6512628-2.3380275 1.0933559-3.6635894l13.563-9.688c1.3111352.7082937 2.943432.3467894 3.832899-.8488711s.7664351-2.8629761-.288899-3.9151289l-14.207-14.212c-1.189852-1.14128059-3.0696072-1.13597679-4.253.012-.9305184.93633569-1.1377218 2.37172729-.51 3.533l-9.696 13.576c-1.126424-.4528249-2.4138325-.2005148-3.286.644-1.1711458 1.1714996-1.1711458 3.0705004 0 4.242l.067.067-21.566 25.607c-1.13795249-.4912233-2.45964599-.2502341-3.351.611-.56271905.5626237-.87885933 1.3257625-.87885933 2.1215s.31614028 1.5588763.87885933 2.1215l.008.008-1.421 1.422c-1.17286881 1.1766425-1.17286881 3.0803575 0 4.257zm53.108-40.614-13.261 9.471-8.742-8.742 9.472-13.26zm-11.945-16.212c.3903851-.38971594 1.0226149-.38971594 1.413 0l14.215 14.207c.254909.2545517.3546529.6257596.2616591.9737931-.0929937.3480335-.3645972.6200182-.7125.7135-.3479027.0934818-.7192501-.0057414-.9741591-.2602931l-14.215-14.208c-.189595-.18959861-.2951073-.447394-.2928511-.71551488.0022563-.26812087.1120922-.52410407.3048511-.71048512zm-13.49 17.75c.3903851-.3897159 1.0226149-.3897159 1.413 0l9.952 9.957c.2547304.2547304.3542139.626008.2609761.9739761-.0932378.3479682-.3650318.6197622-.713.713-.3479681.0932378-.7192457-.0062457-.9739761-.2609761l-9.952-9.952c-.1894647-.1897319-.294798-.4476031-.2923537-.7157245s.1124614-.5240294.3053537-.7102755zm.059 4.326 6.979 6.98-25.444 21.427-1.476-1.476-1.486-1.486zm-24.911 26.205c.39049985-.3903819 1.02350015-.3903819 1.414 0l.005.006.006.005 4.26 4.26c.38964103.3942069.38790345 1.0290454-.00388965 1.4211134-.39179311.3920681-1.02663024.394251-1.42111035.0048866l-.694-.7-1.435-1.43-2.142-2.141c-.18887284-.1866053-.2945066-.4414963-.293-.707-.00025951-.2709543.10944328-.5304158.304-.719zm-1.424 5.684 1.422-1.422 1.446 1.446-1.422 1.418c-.39473183.3943071-1.03426817.3943071-1.429 0l-.017-.017c-.39110557-.3944929-.39110557-1.0305071 0-1.425z"/><path id="Shape" d="m15.091 44.9c.3904999.3903819 1.0235001.3903819 1.414 0l1.42-1.42c.3789722-.3923789.3735524-1.0160848-.0121814-1.4018186s-1.0094397-.3911536-1.4018186-.0121814l-1.42 1.42c-.3903819.3904999-.3903819 1.0235001 0 1.414z"/><path id="Shape" d="m20.058 40.932c.2651948-.0000566.5195073-.1054506.707-.293l1.42-1.42c.2599566-.2510745.3642126-.6228779.2726972-.9725073-.0915155-.3496295-.3645604-.6226744-.7141899-.7141899-.3496294-.0915154-.7214328.0127406-.9725073.2726972l-1.42 1.42c-.2859079.2859943-.3714219.7160366-.216678 1.0896546.1547439.3736179.5192821.6172591.923678.6173454z"/><path id="Shape" d="m24.318 36.672c.2653486.0007185.5199469-.1047939.707-.293l1.42-1.42c.3789722-.3923789.3735524-1.0160848-.0121814-1.4018186s-1.0094397-.3911536-1.4018186-.0121814l-1.42 1.42c-.2859079.2859943-.3714219.7160366-.216678 1.0896546.1547439.3736179.5192821.6172591.923678.6173454z"/><path id="Shape" d="m28.578 32.412c.2651948-.0000566.5195073-.1054506.707-.293l1.42-1.42c.3789722-.3923789.3735524-1.0160848-.0121814-1.4018186s-1.0094397-.3911536-1.4018186-.0121814l-1.42 1.42c-.2859079.2859943-.3714219.7160366-.216678 1.0896546.1547439.3736179.5192821.6172591.923678.6173454z"/><path id="Shape" d="m41.361 11.529 7.1 7.1c.3923789.3789722 1.0160848.3735524 1.4018186-.0121814s.3911536-1.0094397.0121814-1.4018186l-7.1-7.1c-.2510745-.25995658-.6228779-.3642126-.9725073-.27269716-.3496295.09151544-.6226744.36456036-.7141899.71418986-.0915154.3496294.0127406.7214328.2726972.9725073z"/></g></g></g></svg>