<svg height="512" viewBox="0 0 60 60" width="512" xmlns="http://www.w3.org/2000/svg"><g id="Page-1" fill="none" fill-rule="evenodd"><g id="014---Record-Scratching" transform="translate(-1 -1)"><g id="Color" transform="translate(2 2)"><g fill-rule="nonzero"><circle id="Oval" cx="27" cy="27" fill="#607d8b" r="27"/><path id="Shape" d="m27 0c-.5 0-1 .016-1.5.044 14.2898147.81680307 25.4592002 12.6428602 25.4592002 26.956s-11.1693855 26.1391969-25.4592002 26.956c.5.028 1 .044 1.5.044 14.911688-.0000004 26.9999993-12.088312 26.9999993-27s-12.0883113-26.99999962-26.9999993-27z" fill="#37474f"/><circle id="Oval" cx="27" cy="27" fill="#f44335" r="13"/><path id="Shape" d="m27 14c-.501392.0024492-1.0022248.0338348-1.5.094 6.5542288.7579006 11.49961 6.3080967 11.49961 12.906s-4.9453812 12.1480994-11.49961 12.906c4.8032899.5803558 9.531498-1.55476 12.272292-5.5417958 2.740794-3.9870359 3.0406816-9.1662963.7783729-13.44302s-6.7124919-6.9432834-11.5506649-6.9211842z" fill="#c81e1e"/><path id="Shape" d="m5 28c-.55228475 0-1-.4477153-1-1 .01432841-12.6966095 10.3033905-22.98567159 23-23 .5522847 0 1 .44771525 1 1s-.4477153 1-1 1c-11.5927251.01267598-20.98732402 9.4072749-21 21 0 .5522847-.44771525 1-1 1z" fill="#cfd8dc"/><path id="Shape" d="m9 28c-.55228475 0-1-.4477153-1-1 .0115735-10.4886126 8.5113874-18.9884265 19-19 .5522847 0 1 .44771525 1 1s-.4477153 1-1 1c-9.3845001.010471-16.989529 7.6154999-17 17 0 .5522847-.44771525 1-1 1z" fill="#cfd8dc"/><circle id="Oval" cx="27" cy="27" fill="#f5f5f5" r="4"/><path id="Shape" d="m27 23c-.5146843.0021695-1.0240724.1040471-1.5.3 1.5110147.6085107 2.5007405 2.0740584 2.5007405 3.703s-.9897258 3.0944893-2.5007405 3.703c1.496414.6077595 3.211506.2559465 4.3478056-.8918556s1.4708211-2.8663504.8480212-4.3565675c-.6227999-1.490217-2.0807039-2.4596648-3.6958268-2.4575769z" fill="#cfd8dc"/></g><path id="Shape" d="m43 38v-10.5" stroke="#000" stroke-linecap="round" stroke-linejoin="round" stroke-width="2"/><path id="Shape" d="m48 38v-13.5" stroke="#000" stroke-linecap="round" stroke-linejoin="round" stroke-width="2"/><path id="Shape" d="m53 40v-11.5" stroke="#000" stroke-linecap="round" stroke-linejoin="round" stroke-width="2"/><path id="Shape" d="m58 45h-.02c.0168407.166104.0235198.3330816.02.5 0 3.3152061-1.3169605 6.49463-3.6611652 8.8388348-2.3442048 2.3442047-5.5236287 3.6611652-8.8388348 3.6611652-5.5 0-9.75-4.28-9.75-4.28l-9.59-9.59c-1.1731656-1.1737871-1.1731656-3.0762129 0-4.25 1.1751514-1.1698661 3.0748486-1.1698661 4.25 0l2.89 2.89 1.286 1.286c.5719885.5718158 1.4320732.7428438 2.1793091.433356.7472359-.3094879 1.2345182-1.0385642 1.2346909-1.847356v-14.982c-.0128548-.7074896.2623226-1.3898342.7623929-1.8904702.5000704-.500636 1.1821034-.7765847 1.8896071-.7645298 1.3211458.0759608 2.3523069 1.1716793 2.348 2.495v-5.84c-.0128548-.7074896.2623226-1.3898342.7623929-1.8904702.5000704-.500636 1.1821034-.7765847 1.8896071-.7645298 1.3211458.0759608 2.3523069 1.1716793 2.348 2.495v3c0-1.3807119 1.1192881-2.5 2.5-2.5s2.5 1.1192881 2.5 2.5v4c0-1.3807119 1.1192881-2.5 2.5-2.5s2.5 1.1192881 2.5 2.5z" fill="#ffe0b2" fill-rule="nonzero"/><path id="Shape" d="m58 28.5c.0046303-.9489255-.5307121-1.8179209-1.3803149-2.2405983-.8496027-.4226773-1.8656235-.3254851-2.6196851.2505983.0946134.0666541.1841891.1401864.268.22.469303.4694262.7326545 1.1062185.732 1.77v16.5h-.02c.0168407.166104.0235198.3330816.02.5-.0048627 6.2978425-4.6942025 11.6085424-10.943 12.393.4781331.0672723.960174.1030161 1.443.107 6.9035594 0 12.5-5.5964406 12.5-12.5.0035198-.1669184-.0031593-.333896-.02-.5h.02z" fill="#dfc49c" fill-rule="nonzero"/><path id="Shape" d="m27.41 39.88 2.89 2.89 1.286 1.286c.3890333.3888708.9219868.5988772 1.4717214.5799208.5497346-.0189563 1.0669562-.2651756 1.4282786-.6799208l-1.186-1.186-2.89-2.89c-.9654415-.9560922-2.4519648-1.1462623-3.627-.464.2281914.1268933.4389512.2828623.627.464z" fill="#dfc49c" fill-rule="nonzero"/></g><g id="Outline" fill="#000" fill-rule="nonzero"><path id="Shape" d="m29 34c2.7614237 0 5-2.2385763 5-5s-2.2385763-5-5-5-5 2.2385763-5 5c.0033061 2.7600532 2.2399468 4.9966939 5 5zm0-8c1.6568542 0 3 1.3431458 3 3s-1.3431458 3-3 3-3-1.3431458-3-3 1.3431458-3 3-3z"/><path id="Shape" d="m29 57c.689 0 1.387-.026 2.074-.077.5408991-.0525136.9408506-.5273878.9006255-1.0693393s-.5059007-.9525766-1.0486255-.9246607c-.637.047-1.285.071-1.926.071-13.2224976.0006463-24.33962377-9.9227174-25.83456232-23.0604341-1.49493855-13.1377168 7.10848772-25.30507871 19.99309432-28.27515539 12.8846066-2.97007669 25.9463078 4.20317933 30.353468 16.66958949.1844631.5208045.7561955.7934631 1.277.609s.7934631-.7561955.609-1.277c-4.746774-13.4248255-18.8131512-21.14913532-32.6885057-17.95033231-13.87535451 3.19880302-23.14022191 16.30186231-21.53039592 30.44987501s13.58159672 24.8346696 27.82090162 24.8344573z"/><path id="Shape" d="m61 30.5c-.0000952-1.2000673-.6150212-2.3164137-1.6292886-2.9578364-1.0142675-.6414228-2.2864411-.7184782-3.3707114-.2041636v-.838c-.0007806-1.1997119-.6159829-2.3154282-1.6301333-2.9563713-1.0141505-.6409431-2.2859174-.7177913-3.3698667-.2036287-.0784877-1.7894738-1.4978524-3.2295718-3.286-3.334-.940664-.0570501-1.8618918.2845083-2.538.941-.7476318.7046768-1.1728391 1.6856186-1.176 2.713v2.675c-.404724-.1909488-.8422703-.3026267-1.289-.329-.015 0-.03 0-.046 0-1.4979283-6.857648-7.8447557-11.5443386-14.839562-10.9579845-6.9948062.5863541-12.4727977 6.2642847-12.8081307 13.2756096-.3353329 7.011325 4.5757735 13.1861384 11.4826927 14.4373749-.4958266 1.4294242-.1231744 3.0166035.957 4.076l9.588 9.587c.181.187 4.606 4.576 10.455 4.576 7.4524173-.0082667 13.4917333-6.0475827 13.5-13.5 0-.127 0-.255-.007-.379.0048508-.0401482.0071886-.0805603.007-.121zm-44-1.5c-.0020118-6.1423628 4.6367548-11.2935526 10.7457637-11.9327986s11.713655 3.4400741 12.9832363 9.4497986c-.1987526.1250877-.3849514.2690904-.556.43-.7465253.7051926-1.1706189 1.6860672-1.173 2.713v5.948c-1.5893431 2.3970667-3.9846373 4.1456457-6.752 4.929-1.4302149-.8044507-3.2066736-.6538026-4.481.38-6.1078414-.6355394-10.7524242-5.7762001-10.767-11.917zm22 9.774v5.868c-.0000863.4043959-.2437275.7689341-.6173454.923678-.373618.1547439-.8036603.0692299-1.0896546-.216678l-3.293-3.291c1.8822093-.7247552 3.5871818-1.8445811 5-3.284zm20 8.026c-.0214888.1063036-.0255418.215395-.012.323.0116486.1253066.015656.2512063.012.377-.0071642 6.3483047-5.1516953 11.4928358-11.5 11.5-5 0-9-3.946-9.043-3.987l-9.59-9.591c-.5777036-.5713443-.7523373-1.4354088-.4418593-2.1862611.3104781-.7508522 1.0443549-1.2392469 1.8568593-1.2357389.5321248-.0012232 1.0430648.2084024 1.421.583l4.176 4.176c.8574676.8572116 2.1466266 1.1140091 3.2671185.6508024 1.1204918-.4632066 1.8520074-1.5553425 1.8538815-2.7678024v-14.982c.0015351-.476023.1985865-.9305066.545-1.257.2784966-.2720151.6570644-.4167829 1.046-.4.7931333.0446873 1.4123862.702616 1.409 1.497v10.5c0 .5522847.4477153 1 1 1s1-.4477153 1-1v-16.34c.0015351-.476023.1985865-.9305066.545-1.257.2778325-.2730506.6568681-.4179973 1.046-.4.7931333.0446873 1.4123862.702616 1.409 1.497v16.5c0 .5522847.4477153 1 1 1s1-.4477153 1-1v-13.5c-.0019024-.6081495.3635818-1.1572631.9253351-1.3902494.5617534-.2329863 1.2085899-.103731 1.6376649.3272494.2794502.2833022.4363931.6650651.437 1.063v15.5c0 .5522847.4477153 1 1 1s1-.4477153 1-1v-11.5c-.0019024-.6081495.3635818-1.1572631.9253351-1.3902494.5617534-.2329863 1.2085899-.103731 1.6376649.3272494.2794502.2833022.4363931.6650651.437 1.063z"/></g></g></g></svg>