<svg height="512" viewBox="0 0 60 46" width="512" xmlns="http://www.w3.org/2000/svg"><g id="Page-1" fill="none" fill-rule="evenodd"><g id="016---Cassette" fill-rule="nonzero"><g id="Color" transform="translate(1 1)"><rect id="Rectangle-path" fill="#00bcd4" height="44" rx="4" width="58"/><path id="Shape" d="m54 0h-3c2.209139 0 4 1.790861 4 4v36c0 2.209139-1.790861 4-4 4h3c2.209139 0 4-1.790861 4-4v-36c0-2.209139-1.790861-4-4-4z" fill="#00838f"/><path id="Shape" d="m50 44-3.447-6.894c-.3386882-.677781-1.0313083-1.1059743-1.789-1.106h-31.528c-.7576917.0000257-1.4503118.428219-1.789 1.106l-3.447 6.894" fill="#02a9f4"/><path id="Shape" d="m46.553 37.106c-.3386882-.677781-1.0313083-1.1059743-1.789-1.106h-3c.7576917.0000257 1.4503118.428219 1.789 1.106l3.447 6.894h3z" fill="#0377bc"/><rect id="Rectangle-path" fill="#009688" height="24" rx="2" width="50" x="4" y="8"/><path id="Shape" d="m52 8h-3c1.1045695 0 2 .8954305 2 2v20c0 1.1045695-.8954305 2-2 2h3c1.1045695 0 2-.8954305 2-2v-20c0-1.1045695-.8954305-2-2-2z" fill="#00695c"/><circle id="Oval" cx="15" cy="20" fill="#607d8b" r="7"/><path id="Shape" d="m15 13c-.5044849.0007873-1.0074065.0561087-1.5.165 3.2064126.7087816 5.4891145 3.5511831 5.4891145 6.835s-2.2827019 6.1262184-5.4891145 6.835c2.6211486.579393 5.3427728-.3912156 7.0057888-2.4984637 1.663016-2.107248 1.9744743-4.9799318.8017312-7.3946348-1.172743-2.4147029-3.6231022-3.9460614-6.30752-3.9419015z" fill="#37474f"/><circle id="Oval" cx="15" cy="20" fill="#9e9e9e" r="2"/><circle id="Oval" cx="43" cy="20" fill="#607d8b" r="7"/><path id="Shape" d="m43 13c-.5044849.0007873-1.0074065.0561087-1.5.165 3.2064126.7087816 5.4891145 3.5511831 5.4891145 6.835s-2.2827019 6.1262184-5.4891145 6.835c2.6211486.579393 5.3427728-.3912156 7.0057888-2.4984637 1.663016-2.107248 1.9744743-4.9799318.8017312-7.3946348-1.172743-2.4147029-3.6231022-3.9460614-6.30752-3.9419015z" fill="#37474f"/><circle id="Oval" cx="43" cy="20" fill="#9e9e9e" r="2"/></g><g id="Outline" fill="#000"><path id="Shape" d="m5 46h50c2.7600532-.0033061 4.9966939-2.2399468 5-5v-36c-.0033061-2.76005315-2.2399468-4.99669388-5-5h-50c-2.76005315.00330612-4.99669388 2.23994685-5 5v36c.00330612 2.7600532 2.23994685 4.9966939 5 5zm5.618-2 2.724-5.447c.1692635-.3387294.5153343-.5527978.894-.553h31.528c.3786657.0002022.7247365.2142706.894.553l2.724 5.447zm-8.618-39c0-1.65685425 1.34314575-3 3-3h50c1.6568542 0 3 1.34314575 3 3v36c0 1.6568542-1.3431458 3-3 3h-3.382l-3.171-6.342c-.5051529-1.0189304-1.5457301-1.6619706-2.683-1.658h-31.528c-1.1372699-.0039706-2.1778471.6390696-2.683 1.658l-3.171 6.342h-3.382c-1.65685425 0-3-1.3431458-3-3z"/><circle id="Oval" cx="5" cy="5" r="1"/><circle id="Oval" cx="5" cy="41" r="1"/><circle id="Oval" cx="55" cy="5" r="1"/><circle id="Oval" cx="55" cy="41" r="1"/><circle id="Oval" cx="16" cy="41" r="1"/><path id="Shape" d="m23 40h-3c-.5522847 0-1 .4477153-1 1s.4477153 1 1 1h3c.5522847 0 1-.4477153 1-1s-.4477153-1-1-1z"/><circle id="Oval" cx="44" cy="41" r="1"/><path id="Shape" d="m40 40h-3c-.5522847 0-1 .4477153-1 1s.4477153 1 1 1h3c.5522847 0 1-.4477153 1-1s-.4477153-1-1-1z"/><path id="Shape" d="m7 34h46c1.6568542 0 3-1.3431458 3-3v-20c0-1.65685425-1.3431458-3-3-3h-46c-1.65685425 0-3 1.34314575-3 3v20c0 1.6568542 1.34314575 3 3 3zm-1-23c0-.5522847.44771525-1 1-1h46c.5522847 0 1 .4477153 1 1v20c0 .5522847-.4477153 1-1 1h-46c-.55228475 0-1-.4477153-1-1z"/><path id="Shape" d="m28.707 6.707 1.293-1.293 1.293 1.293c.3923789.37897221 1.0160848.37355237 1.4018186-.01218142.3857338-.3857338.3911536-1.00943969.0121814-1.40181858l-2-2c-.3904999-.39038194-1.0235001-.39038194-1.414 0l-2 2c-.3789722.39237889-.3735524 1.01608478.0121814 1.40181858.3857338.38573379 1.0094397.39115363 1.4018186.01218142z"/><path id="Shape" d="m16 29h28c4.418278 0 8-3.581722 8-8s-3.581722-8-8-8h-28c-4.418278 0-8 3.581722-8 8s3.581722 8 8 8zm11.533-2c1.9565832-3.7607364 1.9565832-8.2392636 0-12h4.934c-1.9565832 3.7607364-1.9565832 8.2392636 0 12zm22.467-6c0 2.4267735-1.4618531 4.6145912-3.7038994 5.5432772s-4.8227533.4153515-6.5387413-1.3006365-2.2293225-4.296695-1.3006365-6.5387413 3.1165037-3.7038994 5.5432772-3.7038994c3.3123376.0033074 5.9966926 2.6876624 6 6zm-14 0c.001299 2.2994431.9949291 4.48645 2.726 6h-3.94c-2.3814338-3.6455483-2.3814338-8.3544517 0-12h3.94c-1.7310709 1.51355-2.724701 3.7005569-2.726 6zm-10.786-6c2.3814338 3.6455483 2.3814338 8.3544517 0 12h-3.94c1.7321618-1.5127424 2.7260424-3.7002665 2.7260424-6s-.9938806-4.4872576-2.7260424-6zm-9.214 0c3.3137085 0 6 2.6862915 6 6s-2.6862915 6-6 6-6-2.6862915-6-6c.0033074-3.3123376 2.6876624-5.9966926 6-6z"/><path id="Shape" d="m12.536 23c.2761504.4782682.8877197.6421293 1.366.366l.162-.094c.2761816.2369425.5934119.4213157.936.544v.184c0 .5522847.4477153 1 1 1s1-.4477153 1-1v-.184c.3425881-.1226843.6598184-.3070575.936-.544l.162.094c.3095704.1814844.6926495.1831833 1.0038174.0044519.311168-.1787315.5027136-.5104885.5019247-.8693336s-.1937913-.6897567-.5057421-.8671183l-.153-.088c.0733236-.3603074.0733236-.7316926 0-1.092l.153-.088c.3119508-.1773616.5049532-.5082732.5057421-.8671183s-.1907567-.6906021-.5019247-.8693336c-.3111679-.1787314-.694247-.1770325-1.0038174.0044519l-.162.094c-.2761816-.2369425-.5934119-.4213157-.936-.544v-.184c0-.5522847-.4477153-1-1-1s-1 .4477153-1 1v.184c-.3425881.1226843-.6598184.3070575-.936.544l-.162-.094c-.47786-.2716903-1.0854205-.1067416-1.3602745.3693057-.2748541.4760473-.1139391 1.0846885.3602745 1.3626943l.153.088c-.0733236.3603074-.0733236.7316926 0 1.092l-.153.088c-.4782682.2761504-.6421293.8877197-.366 1.366zm4.464-2c0 .5522847-.4477153 1-1 1s-1-.4477153-1-1 .4477153-1 1-1 1 .4477153 1 1z"/><path id="Shape" d="m43 18v.184c-.3425881.1226843-.6598184.3070575-.936.544l-.162-.094c-.47786-.2716903-1.0854205-.1067416-1.3602745.3693057-.2748541.4760473-.1139391 1.0846885.3602745 1.3626943l.153.088c-.0733236.3603074-.0733236.7316926 0 1.092l-.153.088c-.3119508.1773616-.5049532.5082732-.5057421.8671183s.1907567.6906021.5019247.8693336c.3111679.1787314.694247.1770325 1.0038174-.0044519l.162-.094c.2761816.2369425.5934119.4213157.936.544v.184c0 .5522847.4477153 1 1 1s1-.4477153 1-1v-.184c.3425881-.1226843.6598184-.3070575.936-.544l.162.094c.47786.2716903 1.0854205.1067416 1.3602745-.3693057.2748541-.4760473.1139391-1.0846885-.3602745-1.3626943l-.153-.088c.0733236-.3603074.0733236-.7316926 0-1.092l.153-.088c.4742136-.2780058.6351286-.886647.3602745-1.3626943-.274854-.4760473-.8824145-.640996-1.3602745-.3693057l-.162.094c-.2761816-.2369425-.5934119-.4213157-.936-.544v-.184c0-.5522847-.4477153-1-1-1s-1 .4477153-1 1zm2 3c0 .5522847-.4477153 1-1 1s-1-.4477153-1-1 .4477153-1 1-1 1 .4477153 1 1z"/></g></g></g></svg>