<svg height="512" viewBox="0 0 60 56" width="512" xmlns="http://www.w3.org/2000/svg"><g id="Page-1" fill="none" fill-rule="evenodd"><g id="018---Ocarina" fill-rule="nonzero"><g id="Color" transform="translate(1 1)"><path id="Shape" d="m57.95 3.18c-1.8 7.65-7.49 27.84-19.98 40.33-8.93 8.93-17.64 10.22-23.46 9.67-4.76093786-.4532427-8.53145879-4.2195695-8.99-8.98-.41986582-4.7807099.50127741-9.5838139 2.66-13.87 1.78969195-3.5652502 4.1623393-6.8065163 7.02-9.59 1.5654783-1.5547787 3.2288795-3.0077496 4.98-4.35 12.34-9.5 28.65-14.05 35.35-15.63.6783139-.1587699 1.3905109.0442808 1.8831151.53688495.4926041.49260414.6956548 1.20480111.5368849 1.88311505z" fill="#673ab7"/><path id="Shape" d="m55.533.764c-.421.1-.886.211-1.379.333.6636591.46630699.9768522 1.28947826.791 2.079-1.791 7.65-7.486 27.842-19.976 40.332-7.158 7.158-14.163 9.4-19.663 9.732 5.805.353 14.125-1.194 22.663-9.732 12.49-12.49 18.185-32.682 19.976-40.332.1590444-.67619813-.043066-1.38655013-.5342579-1.87774207-.491192-.49119193-1.201544-.69330233-1.8777421-.53425793z" fill="#4527a0"/><path id="Shape" d="m20.18 16.39c-1.7511205 1.3422504-3.4145217 2.7952213-4.98 4.35-2.8576607 2.7834837-5.23030805 6.0247498-7.02 9.59h-.01c-.10732175-2.3174138-.61832363-4.5983096-1.51-6.74-.2-.48-.42-.96-.65-1.41l.01-.01c1.01207389-1.5436055 2.18167743-2.9779617 3.49-4.28 1.3046511-1.3054345 2.7386975-2.4747855 4.28-3.49v-.01c.46.23.93.45 1.41.66 1.591502.6705812 3.2668841 1.1213869 4.98 1.34z" fill="#9d27b0"/><path id="Shape" d="m15.2 15.05c-.48-.21-.95-.43-1.41-.66v.01c-.387.252-.4.313-.79.6 1.3307903.6336644 2.734752 1.1005321 4.18 1.39-1.7511205 1.3422504-3.4145217 2.7952213-4.98 4.35-1.7116547 1.699062-3.26351594 3.5518558-4.636 5.535.33158873 1.3291019.5345238 2.6870255.606 4.055h.01c1.78969195-3.5652502 4.1623393-6.8065163 7.02-9.59 1.5654783-1.5547787 3.2288795-3.0077496 4.98-4.35-1.7131159-.2186131-3.388498-.6694188-4.98-1.34z" fill="#6a1b9a"/><path id="Shape" d="m13.79 14.4c-1.5413025 1.0152145-2.9753489 2.1845655-4.28 3.49-1.30832257 1.3020383-2.47792611 2.7363945-3.49 4.28-1.48182402-2.9899945-3.26435716-5.8212737-5.32-8.45-1.02794758-1.311742-.91193634-3.1851086.27-4.36.57194052-.57237915 1.33257146-.91715112 2.14-.97.80402414-.04803517 1.59766296.20108913 2.23.7 2.6277329 2.0542168 5.4592126 3.8335253 8.45 5.31z" fill="#9d27b0"/><path id="Shape" d="m5.34 9.09c-.63233704-.49891087-1.42597586-.74803517-2.23-.7-.44926556.0326865-.88716613.15653717-1.287.364.18274708.09509718.35588393.20761939.517.336 2.6277329 2.0542168 5.45921256 3.8335253 8.45 5.31-1.54130246 1.0152145-2.97534889 2.1845655-4.28 3.49-.627.627-1.2 1.269-1.737 1.915.43.758.851 1.548 1.247 2.365 1.01207389-1.5436055 2.18167743-2.9779617 3.49-4.28 1.3046511-1.3054345 2.7386975-2.4747855 4.28-3.49-2.9907874-1.4764747-5.8222671-3.2557832-8.45-5.31z" fill="#6a1b9a"/><g fill="#283593"><circle id="Oval" cx="32.277" cy="33.547" r="4.025"/><circle id="Oval" cx="19.47" cy="33.547" r="4.025"/><circle id="Oval" cx="32.989" cy="17.183" r="4.025"/><circle id="Oval" cx="43.661" cy="15.048" r="3.019"/><circle id="Oval" cx="50.064" cy="8.645" r="2.012"/><circle id="Oval" cx="15.201" cy="44.931" r="4.025"/></g></g><g id="Outline" fill="#000"><path id="Shape" d="m6.059 23.488c.01451615.0467851.03291339.0922765.055.136.22.439.433.9.63 1.356.81199504 1.9637589 1.28959256 4.0495723 1.413 6.171-2.14848224 4.3860568-3.05755747 9.2758372-2.629 14.141.49140875 5.244362 4.6445883 9.3971216 9.889 9.888.747.07 1.543.111 2.382.111 5.854 0 13.793-1.991 21.877-10.076 12.595-12.595 18.352-32.736 20.243-40.815.2365327-1.01352638-.0678468-2.07730107-.8046916-2.81231344-.7368448-.73501236-1.8013741-1.03674216-2.8143084-.79768656-6.987 1.637-23.022 6.178-35.374 15.54-1.4876529-.2136123-2.9418183-.6168936-4.327-1.2-.46-.2-.919-.412-1.359-.632-.0452444-.021554-.0916489-.0405832-.139-.057-2.8819051-1.4337507-5.61088346-3.1562403-8.145-5.141-1.71367033-1.33009034-4.14919738-1.17773609-5.68374958.35554662-1.53455219 1.53328268-1.68892206 3.96868288-.36025042 5.68345338 1.98728772 2.534963 3.71181401 5.2653233 5.147 8.149zm50.701-20.751c.339662-.08036831.6967185.02088483.9436293.26759192s.3484586.60367986.2683707.94340808c-1.852 7.908-7.479 27.621-19.71 39.852-8.695 8.693-17.126 9.905-22.659 9.388-4.2870273-.4006842-7.68184621-3.7959231-8.082-8.083-.516-5.539.694-13.966 9.387-22.659 12.23-12.228 31.944-17.857 39.852-19.709zm-37.892 15.229c-1.17.975-2.3 1.994-3.374 3.067-2.175722 2.1494567-4.0912019 4.5472469-5.707 7.144-.25931668-1.3683694-.6635955-2.7052384-1.206-3.988-.133-.308-.279-.611-.422-.914 1.81420178-2.6355475 4.0954525-4.9167982 6.731-6.731.3.144.607.289.92.424.9897553.4172643 2.0126475.7510924 3.058.998zm-16.188-6.903c.81895186-.8299904 2.13119819-.9109826 3.046-.188 2.24277534 1.7505154 4.6280973 3.3102904 7.131 4.663-2.1600531 1.6208169-4.07918309 3.5399469-5.7 5.7-1.3536504-2.504059-2.91407389-4.8906875-4.665-7.135-.71339146-.9156036-.63276985-2.2192722.188-3.04z"/><path id="Shape" d="m33.277 39.572c2.39731.0002019 4.4609172-1.6930766 4.9287927-4.0442865.4678754-2.3512098-.7902919-4.7054999-3.0050516-5.6230699s-4.7692642-.1428614-6.1012693 1.8503414c-1.332005 1.9932029-1.070525 4.6497599.6245282 6.345015.9402125.945491 2.2196058 1.4755408 3.553 1.472zm-2.139-7.164c1.1813371-1.181337 3.0966629-1.181337 4.278 0 1.181337 1.1813371 1.181337 3.0966629 0 4.278-1.1975247 1.1415879-3.0804753 1.1415879-4.278 0-1.1791345-1.1822486-1.1791345-3.0957514 0-4.278z"/><path id="Shape" d="m16.917 38.1c1.4370929 1.437264 3.5984819 1.8672914 5.4762692 1.0895519 1.8777872-.7777395 3.1021539-2.6100747 3.1021539-4.6425519s-1.2243667-3.8648124-3.1021539-4.6425519c-1.8777873-.7777395-4.0391763-.3477121-5.4762692 1.0895519-.9464276.9401257-1.478658 2.218998-1.478658 3.553s.5322304 2.6128743 1.478658 3.553zm1.414-5.692c1.1813366-1.1813344 3.0966596-1.1813332 4.2779947.0000026 1.1813351 1.1813359 1.1813351 3.0966589 0 4.2779948-1.1813351 1.1813358-3.0966581 1.181337-4.2779947.0000026-.5690201-.5663825-.888915-1.3361469-.888915-2.139s.3198949-1.5726175.888915-2.139z"/><path id="Shape" d="m33.988 23.205c2.3964106-.0011479 4.458274-1.69499 4.9245817-4.0455946s-.792821-4.7032577-3.0073196-5.6191075c-2.2144987-.9158497-4.7675626-.1398045-6.0977715 1.8535166-1.3302089 1.9933212-1.0670595 4.6487184.6285094 6.3421855.9417198.9422641 2.2198235 1.4708492 3.552 1.469zm-2.138-7.162c1.1814825-1.180928 3.0965484-1.1806283 4.2776613.0006693 1.1811128 1.1812977 1.1811128 3.0963637 0 4.2776614-1.1811129 1.1812976-3.0961788 1.1815973-4.2776613.0006693-.5698218-.5661586-.8902541-1.3362364-.8902541-2.1395s.3204323-1.5733414.8902541-2.1395z"/><path id="Shape" d="m44.661 20.064c1.0646594.0010625 2.0860391-.4213045 2.839-1.174 1.3616115-1.3563748 1.5749748-3.485897.5095263-5.0854463s-3.1127292-2.2232725-4.8890478-1.4894942c-1.7763186.7337784-2.7865499 2.6205273-2.4125022 4.5056869s2.0281136 3.2432667 3.9500237 3.2432536zm-1.428-5.443c.5773969-.5775171 1.4458378-.7503312 2.2003379-.437853.7545002.3124782 1.2464593 1.0487055 1.2464593 1.865353s-.4919591 1.5528748-1.2464593 1.865353c-.7545001.3124782-1.622941.1396641-2.2003379-.437853-.380269-.3777067-.5941186-.8915272-.5941186-1.4275s.2138496-1.0497933.5941186-1.4275z"/><path id="Shape" d="m51.064 12.655c.7988461.0019575 1.5654828-.314775 2.13-.88 1.019831-1.0163359 1.1793987-2.61166559.3810685-3.80985708-.7983302-1.19819148-2.332064-1.66530949-3.662758-1.1155392s-2.0874846 1.96320825-1.8073153 3.37547558c.2801692 1.4122674 1.5192153 2.4297661 2.9590048 2.4299207zm-.715-3.726c.3953296-.39487899 1.0358827-.39463548 1.430912.00054397.3950292.39517944.3950292 1.03573262 0 1.43091203-.3950293.3951795-1.0355824.395423-1.430912.000544-.191523-.1890268-.2993318-.4469049-.2993318-.716s.1078088-.5269732.2993318-.716z"/><path id="Shape" d="m16.2 40.906c-2.3978649-.0003995-4.4620666 1.6931533-4.9301473 4.0448881-.4680807 2.3517349.7903368 4.7066097 3.0056092 5.6243921 2.2152723.9177824 4.7703673.1428373 6.1025985-1.8508819 1.3322312-1.9937191 1.0705249-4.6508905-.6250604-6.3463983-.9401492-.9455854-2.2195837-1.4756523-3.553-1.472zm2.14 7.164c-1.1973923 1.1409526-3.0796077 1.1409526-4.277 0-.865436-.8650331-1.1245003-2.16625-.6563703-3.296788.46813-1.1305379 1.5712438-1.8677079 2.7948703-1.8677079s2.3267403.73717 2.7948703 1.8677079c.46813 1.130538.2090657 2.4317549-.6563703 3.296788z"/></g></g></g></svg>