<svg height="512" viewBox="0 0 60 60" width="512" xmlns="http://www.w3.org/2000/svg"><g id="Page-1" fill="none" fill-rule="evenodd"><g id="019---Drum" fill-rule="nonzero" transform="translate(-1 -1)"><g id="Color" transform="translate(1 2)"><path id="Shape" d="m3.01 29.82c-1.20405087-.4135263-2.01189354-1.5469175-2.01-2.82v-2c0-1.6568542 1.34314575-3 3-3h52c1.6568542 0 3 1.3431458 3 3v2c.0018935 1.2730825-.8059491 2.4064737-2.01 2.82" fill="#f44335"/><path id="Shape" d="m56 22h-3c1.6568542 0 3 1.3431458 3 3v2c.0018935 1.2730825-.8059491 2.4064737-2.01 2.82h3c1.2040509-.4135263 2.0118935-1.5469175 2.01-2.82v-2c0-1.6568542-1.3431458-3-3-3z" fill="#c81e1e"/><path id="Shape" d="m11 50h-7c-1.65685425 0-3 1.3431458-3 3v2c0 1.6568542 1.34314575 3 3 3h52c1.6568542 0 3-1.3431458 3-3v-2c0-1.6568542-1.3431458-3-3-3h-7" fill="#f44335"/><path id="Shape" d="m56 50h-3c1.6568542 0 3 1.3431458 3 3v2c0 1.6568542-1.3431458 3-3 3h3c1.6568542 0 3-1.3431458 3-3v-2c0-1.6568542-1.3431458-3-3-3z" fill="#c81e1e"/><path id="Shape" d="m56 30v20h-7-38-7v-20z" fill="#ffe0b2"/><path id="Rectangle-path" d="m53 30h3v20h-3z" fill="#dfc49c"/><circle id="Oval" cx="6" cy="30" fill="#ff9801" r="3"/><path id="Shape" d="m6 27c-.52810593.0027453-1.0459153.1463511-1.5.416.92735392.5298262 1.49968025 1.5159639 1.49968025 2.584s-.57232633 2.0541738-1.49968025 2.584c.4540847.2696489.97189407.4132547 1.5.416 1.65685425 0 3-1.3431458 3-3s-1.34314575-3-3-3z" fill="#f57c00"/><circle id="Oval" cx="22" cy="30" fill="#ff9801" r="3"/><path id="Shape" d="m22 27c-.5281059.0027453-1.0459153.1463511-1.5.416.9273539.5298262 1.4996803 1.5159639 1.4996803 2.584s-.5723264 2.0541738-1.4996803 2.584c.4540847.2696489.9718941.4132547 1.5.416 1.6568542 0 3-1.3431458 3-3s-1.3431458-3-3-3z" fill="#f57c00"/><circle id="Oval" cx="14" cy="50" fill="#ff9801" r="3"/><path id="Shape" d="m14 47c-.5281059.0027453-1.0459153.1463511-1.5.416.9273539.5298262 1.4996803 1.5159639 1.4996803 2.584s-.5723264 2.0541738-1.4996803 2.584c.4540847.2696489.9718941.4132547 1.5.416 1.6568542 0 3-1.3431458 3-3s-1.3431458-3-3-3z" fill="#f57c00"/><circle id="Oval" cx="30" cy="50" fill="#ff9801" r="3"/><path id="Shape" d="m30 47c-.5281059.0027453-1.0459153.1463511-1.5.416.9273539.5298262 1.4996803 1.5159639 1.4996803 2.584s-.5723264 2.0541738-1.4996803 2.584c.4540847.2696489.9718941.4132547 1.5.416 1.6568542 0 3-1.3431458 3-3s-1.3431458-3-3-3z" fill="#f57c00"/><circle id="Oval" cx="38" cy="30" fill="#ff9801" r="3"/><path id="Shape" d="m38 27c-.5281059.0027453-1.0459153.1463511-1.5.416.9273539.5298262 1.4996803 1.5159639 1.4996803 2.584s-.5723264 2.0541738-1.4996803 2.584c.4540847.2696489.9718941.4132547 1.5.416 1.6568542 0 3-1.3431458 3-3s-1.3431458-3-3-3z" fill="#f57c00"/><circle id="Oval" cx="54" cy="30" fill="#ff9801" r="3"/><path id="Shape" d="m54 27c-.5281059.0027453-1.0459153.1463511-1.5.416.9273539.5298262 1.4996803 1.5159639 1.4996803 2.584s-.5723264 2.0541738-1.4996803 2.584c.4540847.2696489.9718941.4132547 1.5.416 1.6568542 0 3-1.3431458 3-3s-1.3431458-3-3-3z" fill="#f57c00"/><circle id="Oval" cx="46" cy="50" fill="#ff9801" r="3"/><path id="Shape" d="m46 47c-.5281059.0027453-1.0459153.1463511-1.5.416.9273539.5298262 1.4996803 1.5159639 1.4996803 2.584s-.5723264 2.0541738-1.4996803 2.584c.4540847.2696489.9718941.4132547 1.5.416 1.6568542 0 3-1.3431458 3-3s-1.3431458-3-3-3z" fill="#f57c00"/><path id="Shape" d="m51.481 18.1c-1.7187652-.3853249-3.2789552-1.2861322-4.472-2.582-.3990676-.4900847-.9501095-.8331663-1.566-.975l-42.943-10.638c-.51521463-.12904966-.95702855-.45958442-1.22627325-.91741323-.2692447-.4578288-.34336598-1.00460006-.20572675-1.51758677.28305641-1.05623654 1.36875714-1.68303284 2.425-1.4l44.187 11.838c.4319282.1252913.8851997.1593462 1.331.1 1.3474616-.1741135 2.7162658-.0720401 4.023.3 3.2.858 5.448 2.85 5.019 4.451s-3.371 2.201-6.572 1.341z" fill="#ff9801"/><g fill="#ff5722"><path id="Shape" d="m22.66 8.9-11.23 3.01c-.4354392.1228673-.8911471.1568754-1.34.1-1.34634271-.1785515-2.71507213-.0764075-4.02.3-3.2.85-5.45 2.85-5.02 4.45s3.37 2.2 6.57 1.34c1.72205535-.3815709 3.2856801-1.2820512 4.48-2.58.3961222-.4895636.9457143-.8312972 1.56-.97l15.89-3.94"/><path id="Shape" d="m29.55 7.05 26.06-6.98c.1691577-.04777366.3442307-.07134118.52-.07.9992618.00281409 1.8396514.75012304 1.9592106 1.74221051.1195593.99208748-.5192271 1.9176561-1.4892106 2.15778949l-20.16 5"/></g></g><g id="Outline" fill="#000"><path id="Shape" d="m57 23h-52c-2.209139 0-4 1.790861-4 4v2c-.00011674 1.4451093.78405513 2.7764401 2.048 3.477.09421917.7933256.42606778 1.5396364.952 2.141v16.524c-1.76068514.4545933-2.99318518 2.0395884-3 3.858v2c0 2.209139 1.790861 4 4 4h52c2.209139 0 4-1.790861 4-4v-2c-.0068148-1.8184116-1.2393149-3.4034067-3-3.858v-16.524c.5259322-.6013636.8577808-1.3476744.952-2.141 1.2639449-.7005599 2.0481167-2.0318907 2.048-3.477v-2c0-2.209139-1.790861-4-4-4zm-37.858 10c.2315986.887505.7611756 1.6684546 1.5 2.212l-5.142 12.839c-.16541-.0276345-.332417-.0446692-.5-.051-.167583.0063308-.33459.0233655-.5.051l-5.139-12.839c.7377043-.5440331 1.2661828-1.3249245 1.497-2.212zm16 0c.2315986.887505.7611756 1.6684546 1.5 2.212l-5.142 12.839c-.3298924-.0677342-.6701076-.0677342-1 0l-5.139-12.839c.7377043-.5440331 1.2661828-1.3249245 1.497-2.212zm16 0c.2315986.887505.7611756 1.6684546 1.5 2.212l-5.142 12.839c-.3298924-.0677342-.6701076-.0677342-1 0l-5.139-12.839c.7377043-.5440331 1.2661828-1.3249245 1.497-2.212zm-.284 18c-.2315986-.887505-.7611756-1.6684546-1.5-2.212l5.142-12.839c.4999734.0918859 1.0148012.060653 1.5-.091v15.142zm-16 0c-.2315986-.887505-.7611756-1.6684546-1.5-2.212l5.142-12.839c.3298924.0677342.6701076.0677342 1 0l5.138 12.839c-.7373309.5441955-1.2654433 1.3250675-1.496 2.212zm-16 0c-.2315986-.887505-.7611756-1.6684546-1.5-2.212l5.142-12.839c.16541.0276345.332417.0446692.5.051.167583-.0063308.33459-.0233655.5-.051l5.138 12.839c-.7373309.5441955-1.2654433 1.3250675-1.496 2.212zm-12.858 0v-15.142c.32585845.0900507.66195413.1377763 1 .142.16758296-.0063308.33459001-.0233655.5-.051l5.138 12.839c-.7373309.5441955-1.2654433 1.3250675-1.496 2.212zm8.235-.847c.0086602.0004737.0173398.0004737.026 0l.008-.005c.4686862-.1906555.9933138-.1906555 1.462 0l.008.005c.0086602.0004737.0173398.0004737.026 0 .8816598.3649904 1.3826761 1.3019903 1.1966093 2.2378969s-1.0073861 1.6100141-1.9616093 1.6100141-1.7755425-.6741075-1.9616093-1.6100141.3149495-1.8729065 1.1966093-2.2378969zm16 0c.0086602.0004737.0173398.0004737.026 0l.008-.005c.4686862-.1906555.9933138-.1906555 1.462 0l.008.005c.0086602.0004737.0173398.0004737.026 0 .8816598.3649904 1.3826761 1.3019903 1.1966093 2.2378969s-1.0073861 1.6100141-1.9616093 1.6100141-1.7755425-.6741075-1.9616093-1.6100141.3149495-1.8729065 1.1966093-2.2378969zm16 0c.0086602.0004737.0173398.0004737.026 0l.008-.005c.4686862-.1906555.9933138-.1906555 1.462 0l.008.005c.0086602.0004737.0173398.0004737.026 0 .8816598.3649904 1.3826761 1.3019903 1.1966093 2.2378969s-1.0073861 1.6100141-1.9616093 1.6100141-1.7755425-.6741075-1.9616093-1.6100141.3149495-1.8729065 1.1966093-2.2378969zm10.765-18.153c0 1.1045695-.8954305 2-2 2-.2505215-.000968-.498581-.049494-.731-.143l-.008-.005c-.008 0-.016 0-.024 0-.9276709-.3828644-1.4279597-1.3939373-1.1695701-2.363676s1.195438-1.5978291 2.1906224-1.4683433c.9951843.1294858 1.7403102.9764478 1.7419477 1.9800193zm-17.238 1.847c-.007 0-.015 0-.023 0l-.008.005c-.4686862.1906555-.9933138.1906555-1.462 0l-.008-.005c-.008 0-.016 0-.024 0-.8826228-.3639915-1.3849053-1.3010722-1.1993726-2.2376032.1855327-.9365311 1.0071408-1.6113408 1.9618726-1.6113408s1.7763399.6748097 1.9618726 1.6113408c.1855327.936531-.3167498 1.8736117-1.1993726 2.2376032zm-16 0c-.007 0-.015 0-.023 0l-.008.005c-.4686862.1906555-.9933138.1906555-1.462 0l-.008-.005c-.008 0-.016 0-.023 0-.8828152-.3637916-1.3853509-1.3008882-1.1999251-2.2375441s1.0070916-1.611606 1.9619251-1.611606 1.7764993.6749501 1.9619251 1.611606-.3171099 1.8737525-1.1999251 2.2375441zm-16 0c-.008 0-.016 0-.024 0l-.008.005c-.23177223.095094-.47949243.1453168-.73.148-1.03161742.0026805-1.89689732-.7778891-2.00014311-1.8043306-.10324579-1.0264414.58924428-1.9637011 1.6007297-2.1665284 1.01148542-.2028274 2.01179466.394985 2.31227102 1.3818769s-.19696238 2.0407197-1.14985761 2.4359821zm51.238 21.153v2c0 1.1045695-.8954305 2-2 2h-52c-1.1045695 0-2-.8954305-2-2v-2c0-1.1045695.8954305-2 2-2h6.142c.4490235 1.7642024 2.0375517 2.9990647 3.858 2.9990647s3.4089765-1.2348623 3.858-2.9990647h8.284c.4490235 1.7642024 2.0375517 2.9990647 3.858 2.9990647s3.4089765-1.2348623 3.858-2.9990647h8.284c.4490235 1.7642024 2.0375517 2.9990647 3.858 2.9990647s3.4089765-1.2348623 3.858-2.9990647h6.142c1.1045695 0 2 .8954305 2 2zm0-26c-.0030226.4449072-.1567125.8756619-.436 1.222-.7353905-1.4952406-2.3251292-2.3733121-3.9823458-2.1995968-1.6572165.1737152-3.0303146 1.3623616-3.4396542 2.9775968h-8.284c-.4490235-1.7642024-2.0375517-2.9990647-3.858-2.9990647s-3.4089765 1.2348623-3.858 2.9990647h-8.284c-.4490235-1.7642024-2.0375517-2.9990647-3.858-2.9990647s-3.4089765 1.2348623-3.858 2.9990647h-8.284c-.4093396-1.6152352-1.7824377-2.8038816-3.43965422-2.9775968-1.65721653-.1737153-3.24695527.7043562-3.98234578 2.1995968-.27928748-.3463381-.43297735-.7770928-.436-1.222v-2c0-1.1045695.8954305-2 2-2h52c1.1045695 0 2 .8954305 2 2z"/><path id="Shape" d="m11.245 13.022c-1.48378299-.197736-2.99238065-.0881312-4.432.322-2.454.656-4.513 1.975-5.366 3.456-.41476435.6610187-.54562127 1.4613007-.363 2.22.425 1.58 2.27 2.48 4.701 2.48 1.0457246-.0089304 2.08582274-.1541542 3.094-.432 1.9334344-.4327744 3.6841351-1.4568417 5.009-2.93.2594443-.311965.6155982-.5284025 1.012-.615l15.655-3.882 15.645 3.876c.3996794.0889035.7586866.3076131 1.021.622 1.3231666 1.4705191 3.0702496 2.4939604 5 2.929 1.0068394.2775998 2.0456271.4224922 3.09.431 2.434 0 4.282-.9 4.706-2.482.589-2.2-1.872-4.643-5.726-5.676-1.4414431-.4055955-2.9500869-.5151295-4.435-.322-.3083528.0386184-.6213727.0123915-.919-.077l-7.486-2.007 16.382-4.063c.7748498-.18349538 1.4420812-.67354418 1.849-1.358.5524821-.92014703.5674865-2.06630269.0392811-3.00059709-.5282055-.9342944-1.5180123-1.51237778-2.5912811-1.51340291-.2627485-.0034703-.5246698.03019568-.778.1l-25.802 6.915-25.798-6.915c-1.17090579-.31397325-2.41535221.11214723-3.14804167 1.07794521-.73268946.96579797-.80778153 2.27903319-.18995833 3.32205479.40424342.6912383 1.07195817 1.18859556 1.85 1.378l16.392 4.06-7.468 2c-.3054011.0915728-.6262217.1201506-.943.084zm45.647-9.993c.0776268-.0205415.1577118-.03029975.238-.029.3526781.0015325.677332.19245111.8501005.49991694.1727685.30746582.1670016.6840516-.0151005.98608306-.1333812.22433191-.3526793.38437982-.607.443l-19.9 4.936-3.044-.815zm-53.755 1.452c-.20344436-.34343386-.17850857-.77589348.06306129-1.09366765s.65159764-.45748935 1.03693871-.35333235l32.875 8.808.022.006 11.291 3.026c.5652616.1625858 1.1582181.2054993 1.741.126 1.2093669-.1521359 2.4370151-.0579107 3.609.277 2.949.79 4.523 2.438 4.312 3.226-.1.372-.667.707-1.482.873-1.2898822.2079909-2.6098192.127736-3.865-.235-1.506036-.3409683-2.877156-1.1208363-3.94-2.241-.537544-.6642994-1.2803809-1.1313863-2.112-1.328l-42.944-10.638c-.25546153-.06229036-.47459075-.22582501-.607-.453zm20.533 7.452 2.729.676-11.978 2.97c-.8318928.1891374-1.5750396.654838-2.108 1.321-1.0669692 1.1202003-2.44294828 1.8978217-3.953 2.234-2.945.793-5.132.153-5.344-.634-.03527416-.2455137.02289601-.4953243.163-.7 1.04081768-1.3083308 2.51338374-2.2034269 4.154-2.525 1.1695197-.3373003 2.3958367-.4308993 3.603-.275.5861874.0798951 1.1825432.0383681 1.752-.122z"/><path id="Shape" d="m8 55h-2c-.55228475 0-1 .4477153-1 1s.44771525 1 1 1h2c.55228475 0 1-.4477153 1-1s-.44771525-1-1-1z"/><path id="Shape" d="m56 55h-2c-.5522847 0-1 .4477153-1 1s.4477153 1 1 1h2c.5522847 0 1-.4477153 1-1s-.4477153-1-1-1z"/><path id="Shape" d="m25 55h-4c-.5522847 0-1 .4477153-1 1s.4477153 1 1 1h4c.5522847 0 1-.4477153 1-1s-.4477153-1-1-1z"/><path id="Shape" d="m41 55h-4c-.5522847 0-1 .4477153-1 1s.4477153 1 1 1h4c.5522847 0 1-.4477153 1-1s-.4477153-1-1-1z"/></g></g></g></svg>