<svg height="512" viewBox="0 0 60 60" width="512" xmlns="http://www.w3.org/2000/svg"><g id="Page-1" fill="none" fill-rule="evenodd"><g id="021---Recorder" fill-rule="nonzero" transform="translate(0 -1)"><g id="Color" transform="translate(1 1)"><path id="Shape" d="m43.58 25.29s-1.51 1.01-3.67 2.6c-.6131161-2.0802873-1.7816637-3.9541121-3.38-5.42-1.4658879-1.5983363-3.3397127-2.7668839-5.42-3.38 1.59-2.16 2.6-3.67 2.6-3.67s2.82 0 6.34 3.53 3.53 6.34 3.53 6.34z" fill="#e91e63"/><path id="Shape" d="m40.05 18.95c-3.52-3.53-6.34-3.53-6.34-3.53s-.181.27-.5.726c1.4308666.7046438 2.7287488 1.6520031 3.836 2.8 3.53 3.52 3.53 6.34 3.53 6.34s-.495.332-1.3.9c.2713677.5425386.4842328 1.1124136.635 1.7 2.16-1.59 3.67-2.6 3.67-2.6s-.001-2.816-3.531-6.336z" fill="#ad1457"/><path id="Shape" d="m39.91 27.89v.01c-3.7291363 2.6805635-7.2615057 5.6247616-10.57 8.81-2.5435521 2.5800015-4.7754883 5.4496337-6.65 8.55v.01l-8.95-8.95v-.01c3.1003663-1.8745117 5.9699985-4.1064479 8.55-6.65 3.1852384-3.3084943 6.1294365-6.8408637 8.81-10.57h.01c2.0802873.6131161 3.9541121 1.7816637 5.42 3.38 1.5983363 1.4658879 2.7668839 3.3397127 3.38 5.42z" fill="#e91e63"/><path id="Shape" d="m36.53 22.47c-1.4658879-1.5983363-3.3397127-2.7668839-5.42-3.38h-.01c-.22.3-.458.622-.7.945 1.1480821.667226 2.200909 1.4862782 3.13 2.435 1.5983363 1.4658879 2.7668839 3.3397127 3.38 5.42v.01c-3.7291363 2.6805635-7.2615057 5.6247616-10.57 8.81-2.0613416 2.0433811-3.8929076 4.3061801-5.462 6.748l1.812 1.812v-.01c1.8745117-3.1003663 4.1064479-5.9699985 6.65-8.55 3.3084943-3.1852384 6.8408637-6.1294365 10.57-8.81v-.01c-.6131161-2.0802873-1.7816637-3.9541121-3.38-5.42z" fill="#ad1457"/><path id="Shape" d="m23.72 47.13c.003163.8046345-.4797353 1.5315797-1.2226749 1.84059-.7429397.3090103-1.5989297.1389478-2.1673251-.43059l-.71-.71-8.45-8.45-.71-.71c-.77319406-.7771038-.77319406-2.0328962 0-2.81.3736892-.3744562.8809811-.5848881 1.41-.5848881s1.0363108.2104319 1.41.5848881l.46.46 8.95 8.95.45.45c.3735077.3739282.5822911.8814879.58 1.41z" fill="#673ab7"/><path id="Shape" d="m16.11 58.39-.02.02c-.3751365.3755541-.8841815.5865733-1.415.5865733s-1.0398635-.2110192-1.415-.5865733l-12.67-12.67c-.37555409-.3751365-.58657331-.8841815-.58657331-1.415s.21101922-1.0398635.58657331-1.415l.02-.02c.37513651-.3755541.8841815-.5865733 1.415-.5865733s1.03986349.2110192 1.415.5865733l.71.71 11.25 11.25.71.71c.3755541.3751365.5865733.8841815.5865733 1.415s-.2110192 1.0398635-.5865733 1.415z" fill="#673ab7"/><path id="Shape" d="m57.78 5.51c-2.88 3.61-.59 7.57-3.43 10.41-1.3209758 1.5785066-3.6412494 1.8586906-5.3.64-.6193971 1.4361657-1.0399425 2.9501289-1.25 4.5-.7 4.93-4.22 4.23-4.22 4.23s0-2.82-3.53-6.34-6.34-3.53-6.34-3.53-.7-3.52 4.23-4.22c1.5498711-.2100575 3.0638343-.6306029 4.5-1.25-1.2186906-1.65875056-.9385066-3.97902419.64-5.3 2.84-2.84 6.8-.55 10.41-3.43.392349-.32014833.9637115-.2898488 1.32.07l2.9 2.9c.3598488.35628851.3901483.92765104.07 1.32z" fill="#9d27b0"/><path id="Shape" d="m57.71 4.19-2.9-2.9c-.3562885-.3598488-.927651-.39014833-1.32-.07-.3317305.26159549-.6865191.49254282-1.06.69l2.28 2.28c.3598488.35628851.3901483.92765104.07 1.32-2.88 3.61-.59 7.57-3.43 10.41-.4324263.445664-.9428551.8083193-1.506 1.07 1.5725301.6883091 3.4107912.2517935 4.506-1.07 2.84-2.84.55-6.8 3.43-10.41.3201483-.39234896.2898488-.96371149-.07-1.32z" fill="#6a1b9a"/><path id="Shape" d="m46.05 16.56c-.6193971 1.4361657-1.0399425 2.9501289-1.25 4.5-.0983487 1.2049729-.5826477 2.3461091-1.381 3.254.0892272.31846.1432174.6457546.161.976 0 0 3.52.7 4.22-4.23.1805671-1.2865246.5004458-2.5496099.954-3.767-.9593236.0794564-1.9161447-.1799186-2.704-.733z" fill="#6a1b9a"/><path id="Shape" d="m44.127 13.155 1.718 1.718c.3236707.3225978.3874757.8235701.155 1.217l-1.057 1.762c-.1587913.2619649-.4288931.436697-.7329297.4741409-.3040367.0374439-.6084629-.0665317-.8260703-.2821409l-2.423-2.423c-.2156092-.2176074-.3195848-.5220336-.2821409-.8260703.0374439-.3040366.212176-.5741384.4741409-.7329297l1.762-1.057c.3911638-.2311439.8889892-.1695318 1.212.15z" fill="#37474f"/><path id="Shape" d="m19.62 47.83s-3.5 3.51-4.22 7.02l-11.25-11.25c3.51-.72 7.02-4.22 7.02-4.22z" fill="#e91e63"/></g><g id="Outline" fill="#000"><path id="Shape" d="m33.3 26.287c-.2875238.2854155-.3744305.7161091-.2200821 1.0906869.1543484.3745779.51945.6190171.9245821.6190171s.7702337-.2444392.9245821-.6190171c.1543484-.3745778.0674417-.8052714-.2200821-1.0906869-.1866737-.1871675-.4401541-.2923587-.7045-.2923587s-.5178263.1051912-.7045.2923587z"/><path id="Shape" d="m30.485 29.105c-.2875238.2854155-.3744305.7161091-.2200821 1.0906869.1543484.3745779.51945.6190171.9245821.6190171s.7702337-.2444392.9245821-.6190171c.1543484-.3745778.0674417-.8052714-.2200821-1.0906869-.3899205-.3870613-1.0190795-.3870613-1.409 0z"/><path id="Shape" d="m27.667 31.924c-.2875238.2854155-.3744305.7161091-.2200821 1.0906869.1543484.3745779.51945.6190171.9245821.6190171s.7702337-.2444392.9245821-.6190171c.1543484-.3745778.0674417-.8052714-.2200821-1.0906869-.3899205-.3870613-1.0190795-.3870613-1.409 0z"/><path id="Shape" d="m24.849 34.742c-.2875238.2854155-.3744305.7161091-.2200821 1.0906869.1543484.3745779.51945.6190171.9245821.6190171s.7702337-.2444392.9245821-.6190171c.1543484-.3745778.0674417-.8052714-.2200821-1.0906869-.3899205-.3870613-1.0190795-.3870613-1.409 0z"/><circle id="Oval" cx="22.735" cy="38.265" r="1"/><path id="Shape" d="m14.28 46.72c-.2854155-.2875238-.7161091-.3744305-1.0906869-.2200821-.3745779.1543484-.6190171.51945-.6190171.9245821s.2444392.7702337.6190171.9245821c.3745778.1543484.8052714.0674417 1.0906869-.2200821.3870613-.3899205.3870613-1.0190795 0-1.409z"/><path id="Shape" d="m56.515 1.583c-.7172475-.71822645-1.8602453-.78115167-2.652-.146-1.4397809 1.02470909-3.1722632 1.5564854-4.939 1.516-1.9.151-3.871.307-5.554 1.99-1.5492324 1.36564645-2.0773486 3.55526947-1.321 5.477-1.0547875.36961-2.1438622.6329175-3.251.786-1.6969156.113928-3.2684738.9336192-4.333 2.26-.5532731.784365-.8282002 1.7312968-.781 2.69-3.3300968 4.8856642-7.0416876 9.5000744-11.1 13.8-2.2079543 2.2044542-4.6597474 4.1503217-7.308 5.8l-.425.281c-1.1927252-1.0195348-2.9631308-.9724679-4.1.109-1.15700357 1.1535075-1.17126749 3.0229721-.032 4.194-1.52917728 1.3917208-3.32135149 2.4634213-5.271 3.152l-.309-.309c-1.18436574-1.1319333-3.056135-1.1100919-4.21376512.0491698s-1.1768352 3.0310599-.04323488 4.2138302l12.672 12.672c.5599828.5616134 1.3209124.8765678 2.114.875 1.2174135.0016978 2.3163933-.7289289 2.7859338-1.852152s.2174974-2.4186174-.6389338-3.283848l-.309-.309c.6891175-1.9493953 1.7607571-3.7414679 3.152-5.271 1.1559274 1.1012418 2.9738708 1.0975519 4.1253183-.0083732 1.1514474-1.1059252 1.2284261-2.9222418.1746817-4.1216268.093-.141.187-.281.28-.423 1.6496783-2.6482526 3.5955458-5.1000457 5.8-7.308 4.3002251-4.0579687 8.9146073-7.769537 13.8-11.1h.2c.8948134.0024637 1.7683323-.2728695 2.5-.788 1.3263808-1.0645262 2.146072-2.6360844 2.26-4.333.153241-1.1060328.4162042-2.194064.785-3.248.5593014.2330578 1.158129.3566254 1.764.364 1.4149594-.0388748 2.7542421-.6475741 3.714-1.688 1.683-1.683 1.839-3.651 1.99-5.554-.0404854-1.7667368.4912909-3.49921906 1.516-4.939.6359494-.79113206.5729807-1.93448876-.146-2.651zm-40.133 57.117c-.3904999.3903819-1.0235001.3903819-1.414 0l-12.668-12.668c-.3598227-.4001963-.34390775-1.0118966.03623831-1.3928407.38014607-.3809442.99181165-.3981419 1.39276169-.0391593l.615.615c.05441779.0758957.11979645.1432964.194.2l11.023 11.017c.0734505.1094606.1675394.2035495.277.277l.563.562c.1878571.1915637.2914997.4501746.2879327.7184547-.0035671.26828-.1140489.524044-.3069327.7105453zm-9.364-13.639c1.87152212-.8208701 3.6002153-1.9348493 5.121-3.3l7.1 7.1c-1.3649333 1.5209507-2.478889 3.2496073-3.3 5.121zm16.419 3.77c-.3922027.3728262-1.0077973.3728262-1.4 0l-9.864-9.864c-.3860202-.386839-.3860202-1.013161 0-1.4.3877406-.3838341 1.0122594-.3838341 1.4 0l9.864 9.864c.3843778.3875169.3843778 1.0124831 0 1.4zm6.193-11.831c-2.3023684 2.30261-4.3348159 4.8601121-6.058 7.623l-.044.066-7.218-7.217.066-.044c2.7632374-1.7231216 5.3210777-3.7555713 7.624-6.058 3.0621899-3.1711139 5.9022486-6.5494473 8.5-10.111 1.6441413.6347018 3.1241294 1.6317284 4.33 2.917 1.2852661 1.2060802 2.2825796 2.6859868 2.918 4.33-3.5639546 2.5953258-6.9446447 5.4333948-10.118 8.494zm11.779-9.714c-.753952-1.6994742-1.8309045-3.2362797-3.171-4.525-1.2887203-1.3400955-2.8255258-2.417048-4.525-3.171.654-.907 1.166-1.641 1.479-2.1 1.9859368.5352539 3.775633 1.6312909 5.155 3.157 1.5256369 1.3796017 2.6219439 3.169172 3.158 5.155-.454.318-1.188.831-2.096 1.485zm14.644-15.368c-.138 1.752-.248 3.136-1.41 4.3-.7795908.9702449-2.090361 1.3365368-3.26.911.259561-.504109.5774027-.976005.947-1.406.2599566-.2510745.3642126-.6228779.2726972-.9725073-.0915155-.3496295-.3645604-.6226744-.7141899-.7141899-.3496294-.0915154-.7214328.0127406-.9725073.2726972-.1.1-2.358 2.409-3.1 7.611-.0562983 1.1379766-.5663182 2.2059209-1.416 2.965-.2871825.2067736-.6186246.3437331-.968.4-.6290844-2.3221586-1.9028917-4.4187054-3.674-6.047-1.6282946-1.7711083-3.7248414-3.0449156-6.047-3.674.0562669-.3493754.1932264-.6808175.4-.968.7604185-.8483089 1.829065-1.3565193 2.967-1.411 5.2-.744 7.515-3.005 7.611-3.1.3708182-.39252174.3630433-1.00853879-.0175634-1.39157663-.3806067-.38303783-.9965618-.39473482-1.3914366-.02642337-.4323409.37049216-.9061695.68962178-1.412.951-.4246692-1.16987461-.0580689-2.48030978.912-3.26 1.162-1.162 2.546-1.272 4.3-1.41 2.1648268.02073406 4.2777036-.66296759 6.02-1.948l2.9 2.888c-1.2827049 1.74723075-1.9657141 3.86255982-1.947 6.03z"/><path id="Shape" d="m45.834 13.448c-.6467958-.6491305-1.6531289-.7729615-2.438-.3l-1.763 1.057c-.5257106.3173604-.8764894.8586354-.951431 1.4681214-.0749416.6094859.134262 1.2196156.567431 1.6548786l2.423 2.423c.3724983.3744152.8788506.5849455 1.407.585.0832253-.000014.1663748-.005023.249-.015.6106429-.0735989 1.1525671-.4263853 1.467-.955l1.057-1.761c.4723735-.7853389.3486091-1.7915433-.3-2.439zm-.748 4.889-2.424-2.418 1.76-1.055 1.715 1.712z"/></g></g></g></svg>