<svg height="512" viewBox="0 0 60 52" width="512" xmlns="http://www.w3.org/2000/svg"><g id="Page-1" fill="none" fill-rule="evenodd"><g id="025---Cymbals"><g id="Color" transform="translate(1 1)"><g fill-rule="nonzero"><path id="Shape" d="m40.381 16.309c8.358-1.428 15.062-.014 17.042 4.243 2.991 6.442-5.933 16.963-19.948 23.5s-27.81 6.611-30.816.17c-.17062208-.3631023-.30461808-.742311-.4-1.132z" fill="#ff5722"/><path id="Shape" d="m57.423 20.552c-1.623-3.479-6.394-5.052-12.648-4.739 4.759.263 8.3 1.841 9.648 4.739 2.991 6.441-5.933 16.963-19.948 23.5-5.6895526 2.7591273-11.8472215 4.4237197-18.152 4.907 5.815.32 13.449-1.316 21.152-4.907 14.015-6.537 22.939-17.059 19.948-23.5z" fill="#d84315"/><path id="Shape" d="m22.173 5.582c8.153-5.466 15.832-7.248 19.255-3.825 4.688 4.688-.382 17.352-11.314 28.284s-23.6 16-28.284 11.314c-3.423-3.423-1.641-11.102 3.825-19.255z" fill="#ff9801"/><path id="Shape" d="m41.428 1.757c-1.48-1.48-3.759-1.983-6.525-1.639 1.3225807.14628866 2.5607712.72200335 3.525 1.639 4.688 4.688-.382 17.352-11.314 28.284-7.486 7.486-15.783 12.221-21.776 12.959 5.973.882 15.939-4.121 24.776-12.958 10.932-10.933 16.002-23.597 11.314-28.285z" fill="#f57c00"/><path id="Shape" d="m37.915 13.072c-.3320758.0002548-.6426171-.1643542-.8288036-.4393251-.1861865-.2749708-.2237287-.6244312-.1001964-.9326749 1.564-3.908 1.278-6.036.907-6.407-.012-.012-.3-.288-1.376-.288-.5522847 0-1-.44771525-1-1s.4477153-1 1-1c1.0087388-.08834256 2.0115294.22543384 2.79.873 1.325 1.325 1.152 4.527-.463 8.565-.1518102.3799891-.5198081.6291502-.929.629z" fill="#f5f5f5"/><path id="Shape" d="m35.786 41.423c-.4686987-.0001301-.8744217-.3257748-.9759697-.7833407-.1015479-.4575658.1283286-.9242696.5529697-1.1226593 12.726-5.933 18.664-14.407 17.525-16.859-.422-.908-2.66-1.886-6.576-1.886-.5522847 0-1-.4477153-1-1s.4477153-1 1-1c4.368 0 7.5 1.137 8.389 3.042 1.964 4.228-5.528 13.471-18.493 19.516-.1321447.0615712-.2762154.0933214-.422.093z" fill="#f5f5f5"/><path id="Shape" d="m22 11.508c1.476-2.508 1.951-4.601 1.043-5.508-1.562-1.563-6.627.97-11.314 5.656s-7.219 9.752-5.657 11.314 6.628-.97 11.314-5.657" fill="#ffdc00"/><path id="Shape" d="m23.043 6c-.6-.6-1.717-.592-3.129-.1.044995.03067707.0880751.06407253.129.1.908.907.433 3-1.043 5.508l-4.614 5.805c-2.3039709 2.4599918-5.09073316 4.4181467-8.186 5.752 1.687 1.333 6.612-1.179 11.185-5.752l4.615-5.805c1.476-2.508 1.951-4.601 1.043-5.508z" fill="#fec108"/></g><path id="Shape" d="m9.605 17.632c-2.17956435.6685345-4.55014621.0792547-6.163-1.532-2.421-2.421-.177-5.876 3.338-9.39s6.969-5.759 9.39-3.338c1.8126989 1.57280541 2.4960545 4.08463094 1.73 6.359" stroke="#000" stroke-linecap="round" stroke-linejoin="round" stroke-width="2"/></g><g id="Outline" fill="#000" fill-rule="nonzero"><path id="Shape" d="m2.123 43.062c1.19117095 1.1348666 2.73683513 1.824889 4.377 1.954.074.207.156.414.254.626 1.67 3.58 6.137 5.377 12.061 5.377 5.735 0 12.834-1.685 20.083-5.064 14.732-6.868 23.702-17.772 20.431-24.825-1.987-4.271-8.005-6.119-16.265-5.079.165-.374.345-.752.493-1.122 2.3-5.738 2.146-10.312-.422-12.879-3.67-3.671-11.4-2.317-20.219 3.509-1.1146557.00952352-2.2127201.27104881-3.212.765-.4278707-.99892617-1.0487408-1.9035546-1.827-2.662-.988-.989-2.726-1.924-5.391-.767-2.0372034 1.03057449-3.87108714 2.42131763-5.413 4.105-1.68404224 1.54158484-3.07483845 3.3755385-4.105 5.413-1.158 2.664-.222 4.4.767 5.391.76254435.7689807 1.6928634 1.350858 2.718 1.7-.52598755 1.0342835-.80690319 2.1757386-.821 3.336-5.827 8.822-7.18 16.551-3.509 20.222zm55.393-21.089c2.71 5.836-6.2 15.988-19.463 22.17-13.069 6.093-26.36 6.468-29.35.907 6.323-.444 15.1-5.279 23.118-13.3 4.0510526-3.976752 7.4861913-8.5355909 10.192-13.526 7.909-1.261 13.832.158 15.503 3.749zm-52.367-5.583c-.561-.561-1.107-1.43-.347-3.18.93371514-1.806026 2.18151906-3.43138796 3.685-4.8 1.36820596-1.50392247 2.9936524-2.75179123 4.8-3.685 1.75-.761 2.618-.214 3.179.347.6381903.61207145 1.1356795 1.35557557 1.458 2.179-2.1480904 1.32197418-4.1290387 2.8980032-5.9 4.694-1.754993 1.7325998-3.30148314 3.66437-4.608 5.756-.86039963-.2237519-1.64392518-.6768626-2.267-1.311zm3.58 3.493c.71880607-.0035252 1.4342337-.0986243 2.129-.283.5346116-.1394519.8549519-.6858884.7155-1.2205s-.6858884-.8549519-1.2205-.7155c-.2.052-.415.1-.637.132 1.0982847-1.5913049 2.3441288-3.0755369 3.721-4.433 1.4396205-1.4546364 3.0215413-2.7611784 4.722-3.9-.0412685.32701304-.1118868.649648-.211.964-.1093233.3402955-.0287967.7130647.2112462.9778892s.6031339.381471.9525.306c.3493662-.075471.6319305-.3315937.7412538-.6718892.287637-.8813202.3984224-1.81076234.326-2.735 1.985-.956 2.934-.815 3.157-.592.336.335.294 1.756-1.2 4.294-.2800083.4760695-.1210694 1.0889916.355 1.369.4760695.2800083 1.0889916.1210694 1.369-.355 1.681-2.86 2.059-5.1 1.124-6.411 7.36-4.61 13.985-5.89 16.735-3.14 1.938 1.938 1.93 5.846-.021 10.722-2.088 5.219-6.1 10.954-11.293 16.148-10.347 10.344-22.652 15.525-26.868 11.309-2.748-2.748-1.471-9.368 3.134-16.727.50228651.3443534 1.10132079.5195096 1.71.5 2.837 0 7.159-2.853 10.712-6.406.3789722-.3923789.3735524-1.0160848-.0121814-1.4018186s-1.0094397-.3911536-1.4018186-.0121814c-5.033 5.033-9.177 6.377-9.9 5.657-.363-.364-.2-1.605.7-3.392.086.008.166.017.25.017z"/></g></g></g></svg>