<svg height="512" viewBox="0 0 60 60" width="512" xmlns="http://www.w3.org/2000/svg"><g id="Page-1" fill="none" fill-rule="evenodd"><g id="026---Stereo"><g id="Color" transform="translate(1 11)"><g fill-rule="nonzero"><path id="Rectangle-path" d="m0 12h58v28h-58z" fill="#9e9e9e"/><path id="Rectangle-path" d="m55 12h3v28h-3z" fill="#707070"/><path id="Shape" d="m58 40v1c0 1.6568542-1.3431458 3-3 3h-52c-1.65685425 0-3-1.3431458-3-3v-1z" fill="#a0522d"/><path id="Shape" d="m55 40v1c0 1.6568542-1.3431458 3-3 3h3c1.6568542 0 3-1.3431458 3-3v-1z" fill="#783e22"/><path id="Shape" d="m58 3v9h-58v-9c0-1.65685425 1.34314575-3 3-3h52c1.6568542 0 3 1.34314575 3 3z" fill="#607d8b"/><path id="Shape" d="m55 0h-3c1.6568542 0 3 1.34314575 3 3v9h3v-9c0-1.65685425-1.3431458-3-3-3z" fill="#37474f"/><path id="Shape" d="m15 44v2c-.0032948 1.1032019-.8967981 1.9967052-2 2h-6c-1.10320187-.0032948-1.9967052-.8967981-2-2v-2z" fill="#37474f"/><path id="Shape" d="m53 44v2c-.0032948 1.1032019-.8967981 1.9967052-2 2h-6c-1.1032019-.0032948-1.9967052-.8967981-2-2v-2z" fill="#37474f"/><path id="Shape" d="m20 24v10c0 1.1045695-.8954305 2-2 2h-12c-1.1045695 0-2-.8954305-2-2v-10z" fill="#00838f"/><circle id="Oval" cx="12" cy="24" fill="#607d8b" r="8"/></g><circle id="Oval" cx="12" cy="24" r="3" stroke="#000" stroke-linecap="round" stroke-linejoin="round" stroke-width="2"/><path id="Shape" d="m54 24v10c0 1.1045695-.8954305 2-2 2h-12c-1.1045695 0-2-.8954305-2-2v-10z" fill="#00838f" fill-rule="nonzero"/><circle id="Oval" cx="46" cy="24" fill="#607d8b" fill-rule="nonzero" r="8"/><path id="Shape" d="m46 16c-.5034323.0013583-1.005629.049904-1.5.145 3.7641632.7265899 6.4837629 4.0213519 6.4837629 7.855s-2.7195997 7.1284101-6.4837629 7.855c2.9873733.5766142 6.0432406-.5912461 7.8846263-3.0132663s2.1495108-5.6789024.795012-8.4032768-4.1371319-4.4446-7.1796383-4.4384569z" fill="#37474f" fill-rule="nonzero"/><path id="Shape" d="m12 16c-.5034323.0013583-1.005629.049904-1.5.145 3.7641632.7265899 6.4837629 4.0213519 6.4837629 7.855s-2.7195997 7.1284101-6.4837629 7.855c2.9873733.5766142 6.0432406-.5912461 7.8846263-3.0132663s2.1495108-5.6789024.795012-8.4032768-4.1371319-4.4446-7.1796383-4.4384569z" fill="#37474f" fill-rule="nonzero"/><circle id="Oval" cx="46" cy="24" r="3" stroke="#000" stroke-linecap="round" stroke-linejoin="round" stroke-width="2"/><rect id="Rectangle-path" fill="#00bcd4" fill-rule="nonzero" height="8" rx="1" width="10" x="24" y="19"/><path id="Shape" d="m33 19h-3c.5522847 0 1 .4477153 1 1v6c0 .5522847-.4477153 1-1 1h3c.5522847 0 1-.4477153 1-1v-6c0-.5522847-.4477153-1-1-1z" fill="#00838f" fill-rule="nonzero"/><rect id="Rectangle-path" fill="#37474f" fill-rule="nonzero" height="4" rx="2" width="10" x="24" y="31"/><rect id="Rectangle-path" fill="#a4c400" fill-rule="nonzero" height="4" rx="1" width="15" x="4" y="4"/><path id="Shape" d="m9 4v4" stroke="#000" stroke-linejoin="round" stroke-width="2"/><rect id="Rectangle-path" fill="#a4c400" fill-rule="nonzero" height="4" rx="1" transform="matrix(-1 0 0 -1 93 12)" width="15" x="39" y="4"/><path id="Shape" d="m49 4v4" stroke="#000" stroke-linejoin="round" stroke-width="2"/></g><g id="Outline" fill="#000" fill-rule="nonzero"><path id="Shape" d="m4 56h1v1c0 1.6568542 1.34314575 3 3 3h6c1.6568542 0 3-1.3431458 3-3v-1h26v1c0 1.6568542 1.3431458 3 3 3h6c1.6568542 0 3-1.3431458 3-3v-1h1c2.209139 0 4-1.790861 4-4v-38c0-2.209139-1.790861-4-4-4h-4v-5c-.0033061-2.76005315-2.2399468-4.99669388-5-5h-34c-2.7600532.00330612-4.99669388 2.23994685-5 5v5h-4c-2.209139 0-4 1.790861-4 4v38c0 2.209139 1.790861 4 4 4zm54-6h-56v-26h56zm-43 7c0 .5522847-.4477153 1-1 1h-6c-.55228475 0-1-.4477153-1-1v-1h8zm38 0c0 .5522847-.4477153 1-1 1h-6c-.5522847 0-1-.4477153-1-1v-1h8zm3-3h-52c-1.1045695 0-2-.8954305-2-2h56c0 1.1045695-.8954305 2-2 2zm-46-49c0-1.65685425 1.3431458-3 3-3h34c1.6568542 0 3 1.34314575 3 3v5h-40zm-6 7h52c1.1045695 0 2 .8954305 2 2v8h-56v-8c0-1.1045695.8954305-2 2-2z"/><path id="Shape" d="m7 48h12c1.6568542 0 3-1.3431458 3-3v-10c-.0000001-4.9705627-4.0294373-8.9999999-9-8.9999999s-8.99999993 4.0294372-9 8.9999999v10c0 1.6568542 1.34314575 3 3 3zm6-20c3.8659932 0 7 3.1340068 7 7s-3.1340068 7-7 7c-3.86599325 0-7-3.1340068-7-7 .00440864-3.8641657 3.13583434-6.9955914 7-7zm0 16c2.7212047-.0006742 5.2954226-1.2348278 7-3.356v4.356c0 .5522847-.4477153 1-1 1h-12c-.55228475 0-1-.4477153-1-1v-4.356c1.70457739 2.1211722 4.2787953 3.3553258 7 3.356z"/><path id="Shape" d="m13 39c2.209139 0 4-1.790861 4-4s-1.790861-4-4-4-4 1.790861-4 4 1.790861 4 4 4zm0-6c1.1045695 0 2 .8954305 2 2s-.8954305 2-2 2-2-.8954305-2-2 .8954305-2 2-2z"/><path id="Shape" d="m41 48h12c1.6568542 0 3-1.3431458 3-3v-10c0-4.9705627-4.0294373-9-9-9s-9 4.0294373-9 9v10c0 .7956495.3160705 1.5587112.8786797 2.1213203.5626091.5626092 1.3256708.8786797 2.1213203.8786797zm6-20c3.8659932 0 7 3.1340068 7 7s-3.1340068 7-7 7-7-3.1340068-7-7c.0044086-3.8641657 3.1358343-6.9955914 7-7zm0 16c2.7212047-.0006742 5.2954226-1.2348278 7-3.356v4.356c0 .5522847-.4477153 1-1 1h-12c-.5522847 0-1-.4477153-1-1v-4.356c1.7045774 2.1211722 4.2787953 3.3553258 7 3.356z"/><path id="Shape" d="m47 39c2.209139 0 4-1.790861 4-4s-1.790861-4-4-4-4 1.790861-4 4 1.790861 4 4 4zm0-6c1.1045695 0 2 .8954305 2 2s-.8954305 2-2 2-2-.8954305-2-2 .8954305-2 2-2z"/><path id="Shape" d="m26 39h8c1.1045695 0 2-.8954305 2-2v-6c0-1.1045695-.8954305-2-2-2h-8c-1.1045695 0-2 .8954305-2 2v6c0 1.1045695.8954305 2 2 2zm0-8h8v6h-8z"/><path id="Shape" d="m27 47h6c1.6568542 0 3-1.3431458 3-3s-1.3431458-3-3-3h-6c-1.6568542 0-3 1.3431458-3 3s1.3431458 3 3 3zm0-4h6c.5522847 0 1 .4477153 1 1s-.4477153 1-1 1h-6c-.5522847 0-1-.4477153-1-1s.4477153-1 1-1z"/><path id="Shape" d="m6 20h13c1.1045695 0 2-.8954305 2-2v-2c0-1.1045695-.8954305-2-2-2h-13c-1.1045695 0-2 .8954305-2 2v2c0 1.1045695.8954305 2 2 2zm13-2h-8v-2h8zm-13-2h3v2h-3z"/><path id="Shape" d="m41 20h13c1.1045695 0 2-.8954305 2-2v-2c0-1.1045695-.8954305-2-2-2h-13c-1.1045695 0-2 .8954305-2 2v2c0 1.1045695.8954305 2 2 2zm13-2h-3v-2h3zm-13-2h8v2h-8z"/><path id="Shape" d="m24 17v2c0 .5522847.4477153 1 1 1s1-.4477153 1-1v-2c.5522847 0 1-.4477153 1-1s-.4477153-1-1-1c0-.5522847-.4477153-1-1-1s-1 .4477153-1 1c-.5522847 0-1 .4477153-1 1s.4477153 1 1 1z"/><path id="Shape" d="m34 17v2c0 .5522847.4477153 1 1 1s1-.4477153 1-1v-2c.5522847 0 1-.4477153 1-1s-.4477153-1-1-1c0-.5522847-.4477153-1-1-1s-1 .4477153-1 1c-.5522847 0-1 .4477153-1 1s.4477153 1 1 1z"/><path id="Shape" d="m29 19c0 .5522847.4477153 1 1 1s1-.4477153 1-1c.5522847 0 1-.4477153 1-1s-.4477153-1-1-1v-2c0-.5522847-.4477153-1-1-1s-1 .4477153-1 1v2c-.5522847 0-1 .4477153-1 1s.4477153 1 1 1z"/><circle id="Oval" cx="5" cy="27" r="1"/><circle id="Oval" cx="21" cy="27" r="1"/><circle id="Oval" cx="28" cy="34" r="1"/><circle id="Oval" cx="32" cy="34" r="1"/><circle id="Oval" cx="39" cy="27" r="1"/><circle id="Oval" cx="55" cy="27" r="1"/></g></g></g></svg>