<svg height="512" viewBox="0 0 60 60" width="512" xmlns="http://www.w3.org/2000/svg"><g id="Page-1" fill="none" fill-rule="evenodd"><g id="027---Grand-Piano"><g id="Color" transform="translate(1 1)"><g fill-rule="nonzero"><path id="Rectangle-path" d="m0 26h58v7h-58z" fill="#673ab7"/><path id="Rectangle-path" d="m55 26h3v7h-3z" fill="#4527a0"/><path id="Shape" d="m0 33v21c0 2.209139 1.790861 4 4 4h50c2.209139 0 4-1.790861 4-4v-21" fill="#f5f5f5"/><path id="Shape" d="m55 33v21c0 2.209139-1.790861 4-4 4h3c2.209139 0 4-1.790861 4-4v-21z" fill="#cfd8dc"/><path id="Shape" d="m34 6c0-3.3137085-2.6862915-6-6-6h-22c-3.3137085 0-6 2.6862915-6 6v20h58v-8c0-3.3137085-2.6862915-6-6-6h-12c-3.3137085 0-6-2.6862915-6-6z" fill="#9d27b0"/><path id="Shape" d="m31 6c0 3.3137085 2.6862915 6 6 6h3c-3.3137085 0-6-2.6862915-6-6s-2.6862915-6-6-6h-3c3.3137085 0 6 2.6862915 6 6z" fill="#6a1b9a"/><path id="Shape" d="m52 12h-3c3.3137085 0 6 2.6862915 6 6v8h3v-8c0-3.3137085-2.6862915-6-6-6z" fill="#6a1b9a"/><path id="Shape" d="m5 8c-.4043959-.00008635-.76893405-.2437275-.92367798-.61734544s-.06922994-.80366031.21667798-1.08965456l3-3c.25107447-.25995658.62287789-.3642126.97250732-.27269716.34962944.09151544.6226744.3645604.71418984.71418984.09151544.34962943-.01274058.72143285-.27269716.97250732l-3 3c-.18749273.18754937-.44180519.29294336-.707.293z" fill="#f5f5f5"/><path id="Shape" d="m5 14c-.4043959-.0000863-.76893405-.2437275-.92367798-.6173454-.15474393-.373618-.06922994-.8036603.21667798-1.0896546l9-9c.2510745-.25995658.6228779-.3642126.9725073-.27269716.3496295.09151544.6226744.3645604.7141899.71418984.0915154.34962943-.0127406.72143285-.2726972.97250732l-9 9c-.18749273.1875494-.44180519.2929434-.707.293z" fill="#f5f5f5"/></g><path id="Shape" d="m5 33v18.242c-.00592278.1952235.06599455.3847956.19991387.5269677.13391932.142172.31885746.225284.51408613.2310323h3.572c.19540758-.0052195.38066113-.0881694.5146929-.2304608s.2057684-.3321687.1993071-.5275392v-18.242" fill="#607d8b"/><path id="Shape" d="m15 33v18.242c-.0059228.1952235.0659945.3847956.1999139.5269677.1339193.142172.3188574.225284.5140861.2310323h3.572c.1954076-.0052195.3806611-.0881694.5146929-.2304608s.2057684-.3321687.1993071-.5275392v-18.242" fill="#607d8b"/><path id="Shape" d="m28 33v18.242c-.0059228.1952235.0659945.3847956.1999139.5269677.1339193.142172.3188574.225284.5140861.2310323h3.572c.1954076-.0052195.3806611-.0881694.5146929-.2304608s.2057684-.3321687.1993071-.5275392v-18.242" fill="#607d8b"/><path id="Shape" d="m38 33v18.242c-.0059228.1952235.0659945.3847956.1999139.5269677.1339193.142172.3188574.225284.5140861.2310323h3.572c.1954076-.0052195.3806611-.0881694.5146929-.2304608s.2057684-.3321687.1993071-.5275392v-18.242" fill="#607d8b"/><path id="Shape" d="m48 33v18.242c-.0059228.1952235.0659945.3847956.1999139.5269677.1339193.142172.3188574.225284.5140861.2310323h3.572c.1954076-.0052195.3806611-.0881694.5146929-.2304608s.2057684-.3321687.1993071-.5275392v-18.242" fill="#607d8b"/></g><g id="Outline" fill="#000" fill-rule="nonzero"><path id="Shape" d="m52 21h-44c-.55228475 0-1 .4477153-1 1s.44771525 1 1 1h44c.5522847 0 1-.4477153 1-1s-.4477153-1-1-1z"/><path id="Shape" d="m53 12h-12c-2.7600532-.0033061-4.9966939-2.23994685-5-5-.0044086-3.86416566-3.1358343-6.99559136-7-7h-22c-3.86416566.00440864-6.99559136 3.13583434-7 7v48c.00330612 2.7600532 2.23994685 4.9966939 5 5h50c2.7600532-.0033061 4.9966939-2.2399468 5-5v-36c-.0044086-3.8641657-3.1358343-6.9955914-7-7zm5 21h-56v-5h56zm-8 2h3v17h-3zm-10 0h3v17h-3zm-10 0h3v17h-3zm-13 0h3v17h-3zm-10 0h3v17h-3zm48 23h-50c-1.65685425 0-3-1.3431458-3-3v-20h3v17.242c-.01056721.9581332.75590668 1.7442832 1.714 1.758h3.572c.9580933-.0137168 1.7245672-.7998668 1.714-1.758v-17.242h3v17.242c-.0105672.9581332.7559067 1.7442832 1.714 1.758h3.572c.9580933-.0137168 1.7245672-.7998668 1.714-1.758v-17.242h6v17.242c-.0105672.9581332.7559067 1.7442832 1.714 1.758h3.572c.9580933-.0137168 1.7245672-.7998668 1.714-1.758v-17.242h3v17.242c-.0105672.9581332.7559067 1.7442832 1.714 1.758h3.572c.9580933-.0137168 1.7245672-.7998668 1.714-1.758v-17.242h3v17.242c-.0105672.9581332.7559067 1.7442832 1.714 1.758h3.572c.9580933-.0137168 1.7245672-.7998668 1.714-1.758v-17.242h3v20c0 .7956495-.3160705 1.5587112-.8786797 2.1213203-.5626091.5626092-1.3256708.8786797-2.1213203.8786797zm3-32h-56v-19c.00330612-2.76005315 2.23994685-4.99669388 5-5h22c2.7600532.00330612 4.9966939 2.23994685 5 5 .0044086 3.8641657 3.1358343 6.9955914 7 7h12c2.7600532.0033061 4.9966939 2.2399468 5 5z"/></g></g></g></svg>