<svg height="512" viewBox="0 0 60 60" width="512" xmlns="http://www.w3.org/2000/svg"><g id="Page-1" fill="none" fill-rule="evenodd"><g id="028---Mandolin"><g id="Color" transform="translate(1 1)"><g fill-rule="nonzero"><path id="Rectangle-path" d="m28.138 17.256h19.143v6.07h-19.143z" fill="#ffe0b2" transform="matrix(.707 -.707 .707 .707 -3.303 32.608)"/><path id="Shape" d="m42.331 11.377-1.5 1.5 2.792 2.792-12.035 12.036 1.5 1.5 13.535-13.536z" fill="#dfc49c"/><path id="Shape" d="m35.448 26.844c3.062 8.327-4.921 24.952-8.8 28.829-4.027 4.027-12 2.675-18.492-2.883l-2.946-2.947c-5.558-6.489-6.91-14.465-2.883-18.492 3.877-3.878 20.5-11.861 28.829-8.8z" fill="#ff9801"/><path id="Shape" d="m35.448 26.844-4.292-4.292c-1.9215157-.6225031-3.952649-.8330785-5.961-.618 1.0099049.0747317 2.0055149.2825288 2.961.618l4.292 4.292c3.062 8.327-4.921 24.952-8.8 28.829-1.2792081 1.2429325-2.9347317 2.0262024-4.707 2.227 3.062.355 5.821-.337 7.708-2.224 3.878-3.876 11.861-20.505 8.799-28.832z" fill="#f57c00"/><path id="Shape" d="m50.972 15.613-.716.715c-.7913988.7867641-2.0696012.7867641-2.861 0l-5.723-5.723c-.7867641-.79139883-.7867641-2.06960117 0-2.861l.715-.716c.5351165-.53493208 1.3234274-.72767314 2.045-.5.7951636.21704944 1.6434132.11889893 2.368-.274l1.836-.919c1.023321-.47090364 1.6973291-1.4745813 1.746-2.6-.0007825-.53595538.2118812-1.05016266.591-1.429l.715-.716c.7913988-.78676408 2.0696012-.78676408 2.861 0l2.861 2.862c.7867641.79139883.7867641 2.06960117 0 2.861l-.716.715c-.3788373.37911878-.8930446.59178253-1.429.591-1.1254187.04867086-2.1290964.72267901-2.6 1.746l-.919 1.835c-.394319.7236396-.4942579 1.5715091-.279 2.367.2293484.7209492.0385408 1.5096207-.495 2.046z" fill="#91562d"/><path id="Shape" d="m57.41 3.452-2.862-2.862c-.7913988-.78676408-2.0696012-.78676408-2.861 0l-.069.069 2.792 2.793c.7867641.79139883.7867641 2.06960117 0 2.861l-.716.715c-.3788373.37911878-.8930446.59178253-1.429.591-1.1254187.04867086-2.1290964.72267901-2.6 1.746l-.918 1.835c-.3946556.7235058-.4949536 1.5713815-.28 2.367.2289421.7206497.0381624 1.5088206-.495 2.045l-.646.646.069.069c.7913988.7867641 2.0696012.7867641 2.861 0l.716-.715c.5331624-.5361794.7239421-1.3243503.495-2.045-.2149536-.7956185-.1146556-1.6434942.28-2.367l.918-1.836c.4709036-1.02332099 1.4745813-1.69732914 2.6-1.746.5359554.00078253 1.0501627-.21188122 1.429-.591l.716-.715c.7861015-.79128203.7861015-2.06871797 0-2.86z" fill="#6d4122"/><rect id="Rectangle-path" fill="#607d8b" height="7.082" rx="2" transform="matrix(.707 .707 -.707 .707 33.975 -.004)" width="16.187" x="8.899" y="37.468"/><path id="Shape" d="m23.8 42.813-8.613-8.613c-.7809997-.7807639-2.0470003-.7807639-2.828 0l-.086.085 8.527 8.528c.7807639.7809997.7807639 2.0470003 0 2.828l-2.093 2.094.086.085c.7809997.7807639 2.0470003.7807639 2.828 0l2.179-2.179c.7807639-.7809997.7807639-2.0470003 0-2.828z" fill="#37474f"/><path id="Shape" d="m8.05 44.227-1.93 1.93c-.14107562.1412672-.23711971.3211759-.276.517l-.655 3.276-1.355 1.35c-.73506812.7023572-.86143625 1.8304034-.3 2.678.34513682.4858837.8867898.7950555 1.4806689.8451556s1.17967229-.1639594 1.6013311-.5851556l1.434-1.427 3.276-.655c.1958241-.0388803.3757328-.1349244.517-.276l1.93-1.93c.3950878-.3951895.3950878-1.0358105 0-1.431l-4.292-4.292c-.39518951-.3950878-1.03581049-.3950878-1.431 0z" fill="#a0522d"/><path id="Shape" d="m13.773 48.519-4.292-4.292c-.39518951-.3950878-1.03581049-.3950878-1.431 0l-.785.785 3.508 3.507c.3950878.3951895.3950878 1.0358105 0 1.431l-1.93 1.93c-.14126721.1410756-.3211759.2371197-.517.276l-3.276.655-1.35 1.351c.36914334.4107623.89076666.6519186 1.44282073.6670434s1.08609904-.1971092 1.47717927-.5870434l1.43-1.431 3.276-.655c.1958241-.0388803.3757328-.1349244.517-.276l1.93-1.93c.3950878-.3951895.3950878-1.0358105 0-1.431z" fill="#783e22"/></g><path id="Shape" d="m28.08 29.92-14.307 14.307" stroke="#000" stroke-linecap="round" stroke-linejoin="round" stroke-width="2"/><path id="Shape" d="m25.219 27.059-14.308 14.307" stroke="#000" stroke-linecap="round" stroke-linejoin="round" stroke-width="2"/><path id="Shape" d="m30.941 32.781-14.307 14.308" stroke="#000" stroke-linecap="round" stroke-linejoin="round" stroke-width="2"/></g><g id="Outline" fill="#000" fill-rule="nonzero"><path id="Shape" d="m56.256.883c-1.18236-1.17792065-3.09464-1.17792065-4.277 0l-.714.715c-.5678046.56548929-.8857648 1.33464332-.883 2.136-.0499763.7466309-.5097879 1.40399976-1.194 1.707l-1.836.918c-.4935005.27220517-1.0707574.3506465-1.619.22-1.076013-.34371127-2.2538866-.05734752-3.052.742l-.716.716c-1.1771411 1.18190154-1.1771411 3.0930985 0 4.275l.008.008-10.094 10.095c-8.81-2.608-25.114 5.085-29.259 9.229-4.213 4.213-3.194 12.34 2.287 19.173l-.781.781c-1.07638978 1.0518082-1.24487121 2.7235651-.4 3.969.5188681.7245386 1.32986665 1.1845189 2.218 1.258.082.007.164.01.245.01.80171854.0001303 1.57056554-.3186336 2.137-.886l.861-.86c3.99 3.2 8.416 4.893 12.253 4.893 2.5611304.0983865 5.0539727-.8387723 6.916-2.6 4.146-4.145 11.835-20.444 9.229-29.259l10.094-10.096.009.008c1.1821279 1.1765929 3.0928721 1.1765929 4.275 0l.716-.716c.7996944-.798743 1.0860541-1.9773718.742-3.054-.1303246-.5476027-.0518869-1.1241199.22-1.617l.919-1.836c.3015705-.6849487.9591943-1.14520821 1.706-1.194.8005197.00249496 1.5688342-.31505584 2.134-.882l.716-.716c1.1782393-1.18144773 1.1782393-3.09355227 0-4.275zm-49.344 53.652c-.21362949.2145902-.51134783.3235161-.81302244.2974598-.3016746-.0260564-.57630673-.1844176-.74997756-.4324598-.27286063-.4493965-.19267895-1.0286256.192-1.387l1.359-1.356c.13942895-.1396637.23441608-.3174602.273-.511l.658-3.282 1.93-1.93 4.308 4.309-1.939 1.933-3.276.655c-.19353984.0385839-.37133627.1335711-.511.273zm26.469-25.035c-.389913.391846-.388346 1.025587.0035 1.4155s1.025587.388346 1.4155-.0035l1.139-1.139c1.5 8.227-5.367 22.568-8.992 26.193-3.282 3.282-9.678 2.519-15.448-1.623l1.027-.206c.3905147-.0770769.7491476-.2689281 1.03-.551l1.928-1.928c.3776922-.3770465.5899318-.888819.5899318-1.4225s-.2122396-1.0454535-.5899318-1.4225l-4.291-4.292c-.7958605-.7605133-2.04913954-.7605133-2.845 0l-1.936 1.93c-.28081946.280298-.47192201.6377886-.549 1.027l-.205 1.027c-4.143-5.769-4.906-12.165-1.624-15.447 3.625-3.625 17.966-10.493 26.194-8.991l-1.139 1.139c-.2737182.2474883-.3888941.6256051-.2996269.9836602s.3684679.6378493.7263326.7278768c.3578646.0900275.7362253-.0243451.9842943-.297537l12.887-12.886 2.878 2.878zm24.319-22.895-.717.717c-.1907073.19215216-.4502756.30015558-.721.3-1.5036024.05148567-2.8522437.93925758-3.494 2.3l-.919 1.837c-.5131887.9542334-.6344287 2.0708609-.338 3.113.1172201.3653554.0212116.7655835-.249 1.038l-.717.716c-.4062114.382257-1.0397886.382257-1.446 0l-5.72-5.726c-.3957377-.4007716-.3957377-1.0452284 0-1.446l.716-.716c.1910839-.19159121.4504081-.29949312.721-.3.1071287.00026815.2136237.01644461.316.048 1.0424569.29659329 2.1594563.17535186 3.114-.338l1.836-.918c1.362149-.64327328 2.2500489-1.99442529 2.3-3.5-.0010962-.27120439.1070316-.53143186.3-.722l.715-.716c.4003343-.39869326 1.0476657-.39869326 1.448 0l2.855 2.867c.399013.39942151.399013 1.04657849 0 1.446z"/><path id="Shape" d="m31.234 33.074-7.877 7.878-1.447-1.452 7.877-7.877c.3789722-.3923789.3735524-1.0160848-.0121814-1.4018186s-1.0094397-.3911536-1.4018186-.0121814l-7.873 7.881-1.448-1.447 7.878-7.877c.2599566-.2510745.3642126-.6228779.2726972-.9725073-.0915155-.3496295-.3645604-.6226744-.7141899-.7141899-.3496294-.0915154-.7214328.0127406-.9725073.2726972l-7.878 7.877-.739-.74c-.5626643-.563025-1.3260174-.8793595-2.122-.8793595s-1.5593357.3163345-2.122.8793595l-2.178 2.178c-.56271905.5626237-.87885933 1.3257625-.87885933 2.1215s.31614028 1.5588763.87885933 2.1215l.74.74-.009.009c-.2599566.2510745-.3642126.6228779-.2726972.9725073.0915155.3496295.3645604.6226744.7141899.7141899.3496294.0915154.7214328-.0127406.9725073-.2726972l.009-.009 1.447 1.447-.009.009c-.2599566.2510745-.3642126.6228779-.2726972.9725073.0915155.3496295.3645604.6226744.7141899.7141899.3496294.0915154.7214328-.0127406.9725073-.2726972l.009-.008 1.448 1.447-.008.008c-.391846.3893607-.3938607 1.022654-.0045 1.4145s1.022654.3938607 1.4145.0045l.008-.008.74.74c1.1714996 1.1711458 3.0705004 1.1711458 4.242 0l2.18-2.178c.562719-.5626237.8788593-1.3257625.8788593-2.1215s-.3161403-1.5588763-.8788593-2.1215l-.741-.74 7.877-7.878c.3789722-.3923789.3735524-1.0160848-.0121814-1.4018186s-1.0094397-.3911536-1.4018186-.0121814zm-19.347 6.426c-.3903819-.3904999-.3903819-1.0235001 0-1.414l2.178-2.186c.1875683-.187777.4420908-.2932867.7075-.2932867s.5199317.1055097.7075.2932867l.74.74-3.593 3.593zm2.154 2.154 3.593-3.593 1.448 1.439-3.594 3.6zm2.859 2.857 3.6-3.593 1.447 1.448-3.597 3.593zm7.2.01c.188338.1865548.2938987.4409093.293.706.0002088.2655413-.1052054.5202623-.293.708l-2.181 2.179c-.3953495.3775255-1.0176505.3775255-1.413 0l-.74-.74 3.593-3.593z"/></g></g></g></svg>