<svg height="512" viewBox="0 0 60 60" width="512" xmlns="http://www.w3.org/2000/svg"><g id="Page-1" fill="none" fill-rule="evenodd"><g id="033---Harp" fill-rule="nonzero" transform="translate(-1)"><g id="Color" transform="translate(2)"><path id="Shape" d="m16 53h26c2.209139 0 4 1.790861 4 4 0 1.1045695-.8954305 2-2 2h-30c-1.1045695 0-2-.8954305-2-2 0-2.209139 1.790861-4 4-4z" fill="#a0522d"/><path id="Shape" d="m42 53h-3c2.209139 0 4 1.790861 4 4 0 1.1045695-.8954305 2-2 2h3c1.1045695 0 2-.8954305 2-2 0-2.209139-1.790861-4-4-4z" fill="#783e22"/><path id="Shape" d="m48 17.19c6 7.16 6 16.37 6 16.37s1 19.44-23 19.44h-4c-24 0-23-19.44-23-19.44s0-9.21 6-16.37c3.9-4.66 2.31-6.72.72-7.59-.78546043-.41275432-1.66290071-.61921085-2.55-.6h-4c-2.10233807.03328459-3.89178038-1.52331462-4.15-3.61-.11003359-1.12317241.25951297-2.24056462 1.01751917-3.07665688.75800619-.83609226 1.8339315-1.31307732 2.96248083-1.31334312h5c3.1449849.12952365 5.9244592 2.0841469 7.11 5 .1113731.2508847.2082002.5079773.29.77.3347818 1.04567664.5232362 2.13265461.56 3.23.0715578 2.3069593-.3300232 4.6041386-1.18 6.75-1.11 2.93-2.99 5.44-4.22 8.29-2.3 5.34-2.38 12.06.86 17.05 3.18 4.89 8.81 6.89 14.46 6.91h4.24c5.65-.02 11.28-2.02 14.46-6.91 3.24-4.99 3.16-11.71.86-17.05-1.23-2.85-3.11-5.36-4.22-8.29-.8499768-2.1458614-1.2515578-4.4430407-1.18-6.75.0367638-1.09734539.2252182-2.18432336.56-3.23.0817998-.2620227.1786269-.5191153.29-.77 1.1855408-2.9158531 3.9650151-4.87047635 7.11-5h4.83c2.1023381-.03328459 3.8917804 1.52331462 4.15 3.61.1100336 1.12317241-.259513 2.24056462-1.0175192 3.07665688s-1.8339315 1.31307732-2.9624808 1.31334312h-4.17c-.8840276-.02033505-1.7585153.18623686-2.54.6-1.6.87-3.19 2.93.71 7.59z" fill="#ff9801"/><g fill="#f57c00"><path id="Shape" d="m48 17.186c-3.9-4.656-2.307-6.718-.715-7.591.7838696-.40782878 1.6575563-.61241106 2.541-.595h-3c-.8838727-.01586973-1.7575836.19043743-2.541.6-1.592.873-3.185 2.935.715 7.591 6 7.163 6 16.372 6 16.372s1 19.437-23 19.437h3c24 0 23-19.442 23-19.442s0-9.209-6-16.372z"/><path id="Shape" d="m13.4 6.77c.9224655 3.3031542.7047479 6.8208084-.618 9.985-1.117 2.925-3 5.44-4.224 8.289-2.3 5.339-2.384 12.06.858 17.044 3.186 4.9 8.809 6.888 14.463 6.912h3c-5.654-.024-11.277-2.016-14.463-6.912-3.24-4.988-3.156-11.705-.856-17.044 1.227-2.849 3.107-5.364 4.224-8.289 1.3220857-3.1644198 1.5390984-6.6820691.616-9.985-.9955221-3.2965865-3.9601783-5.60821707-7.4-5.77h-3c3.43982167.16178293 6.4044779 2.4734135 7.4 5.77z"/><path id="Shape" d="m53.828 1h-3c2.1024623-.03500637 3.893257 1.52035036 4.153 3.607.1109537 1.12383596-.2583164 2.24220862-1.0166468 3.07901983s-1.8350534 1.31407981-2.9643532 1.31398017h3c1.1292998.00009964 2.2060228-.47716896 2.9643532-1.31398017s1.1276005-1.95518387 1.0166468-3.07901983c-.259743-2.08664964-2.0505377-3.64200637-4.153-3.607z"/></g><path id="Shape" d="m41.89 6c-.1113731.2508847-.2082002.5079773-.29.77-.3347818 1.04567664-.5232362 2.13265461-.56 3.23h-24.08c-.0367638-1.09734539-.2252182-2.18432336-.56-3.23-.0817998-.2620227-.1786269-.5191153-.29-.77z" fill="#fec108"/></g><g id="Outline" fill="#000"><path id="Shape" d="m55.828 0h-4.828c-3.308839.10076263-6.2897512 2.02567042-7.743 5h-24.514c-1.4532488-2.97432958-4.434161-4.89923737-7.743-5h-5c-1.41113095-.00024593-2.75666275.59580822-3.70463058 1.64110607-.94796782 1.04529786-1.41009582 2.44250009-1.27236942 3.84689393.31626082 2.59610621 2.53384405 4.5393448 5.149 4.512h4c.7154555-.0186279 1.4240291.1437249 2.06.472.5890122.2601656 1.0215589.7819621 1.168 1.409.146.775-.111 2.213-2.163 4.663-6.166 7.356-6.237 16.623-6.237 16.963-.06119535 5.1217418 1.82742615 10.075128 5.283 13.856 2.0123235 2.0765471 4.4615144 3.6792812 7.17 4.692-2.5271793.2735383-4.4448373 2.4030732-4.453 4.945 0 1.6568542 1.3431458 3 3 3h30c1.6568542 0 3-1.3431458 3-3-.0081627-2.5419268-1.9258207-4.6714617-4.453-4.945 2.7084856-1.0127188 5.1576765-2.6154529 7.17-4.692 3.445132-3.7669403 5.3331305-8.7004667 5.283-13.805 0-.391-.071-9.658-6.233-17.014-2.052-2.45-2.309-3.888-2.163-4.663.1451687-.6257912.575293-1.1473447 1.162-1.409.6359709-.3282751 1.3445445-.4906279 2.06-.472h4.174c1.4111309.0002459 2.7566627-.59580821 3.7046306-1.64110607.9479678-1.04529786 1.4100958-2.44250009 1.2723694-3.84689393-.3162608-2.59610621-2.5338441-4.53934481-5.149-4.512zm-8.828 24.365c.177.356.364.708.521 1.074 2.272 5.273 2.052 11.361-.521 15.674zm-2 19.307c-1.1592702 1.1419765-2.5140786 2.0666332-4 2.73v-35.402h1.04c.0640924 2.0930598.4840941 4.1599279 1.242 6.112.487382 1.227579 1.0614985 2.4189209 1.718 3.565zm-30-2.559c-2.573-4.316-2.793-10.4-.521-15.674.157-.366.344-.718.521-1.074zm2-20.436c.6565015-1.1460791 1.230618-2.337421 1.718-3.565.7579059-1.9520721 1.1779076-4.0189402 1.242-6.112h1.04v35.4c-1.4859214-.6633668-2.8407298-1.5880235-4-2.73zm25.113-11.677h-22.226c-.0775891-.67582566-.2079877-1.34453686-.39-2h23.003c-.1809992.65554487-.3103946 1.32425493-.387 2zm-19.113 2h4v36.909c-1.3557117-.1137169-2.6961125-.3667175-4-.755zm6 0h4v37h-4zm6 0h4v36.154c-1.3039825.3878906-2.6443426.6408835-4 .755zm9 43c1.6568542 0 3 1.3431458 3 3 0 .5522847-.4477153 1-1 1h-30c-.5522847 0-1-.4477153-1-1 0-1.6568542 1.3431458-3 3-3zm14.22-46.982c-.5691994.62465196-1.37491.98105185-2.22.982h-4.174c-1.0515069-.01991513-2.0908946.22711579-3.021.718-1.1138121.54772406-1.9131912 1.5780267-2.167 2.793-.332 1.769.516 3.835 2.595 6.317 5.684 6.785 5.767 15.642 5.767 15.78.007645 4.5794455-1.6858547 8.9985103-4.752 12.4-3.79 3.975-9.594 5.992-17.248 5.992h-4c-7.654 0-13.458-2.017-17.249-5.995-3.07528637-3.4141175-4.76900515-7.8510832-4.751-12.446 0-.089.083-8.946 5.767-15.731 2.079-2.482 2.927-4.548 2.6-6.317-.2538088-1.2149733-1.0531879-2.24527594-2.167-2.793-.9315945-.49170837-1.9728076-.73876423-3.026-.718h-4c-1.58691399.03520062-2.94715518-1.12703078-3.16-2.7-.08480288-.84377748.19146737-1.68402983.76045078-2.31284605.56898341-.62881623 1.37752099-.98744728 2.22554922-.98715395h5c3.0040925.16744517 5.5821576 2.1971218 6.45 5.078.8532493 3.0857971.641879 6.3690824-.6 9.32-.6218242 1.5114647-1.357262 2.9736488-2.2 4.374-.7395222 1.2547438-1.410506 2.5486409-2.01 3.876-2.64 6.139-2.283 13.03.94 17.985 3.072 4.721 8.5 7.338 15.289 7.367h4.255c6.792-.029 12.224-2.646 15.3-7.367 3.223-4.955 3.583-11.846.938-17.985-.599494-1.3273591-1.2704778-2.6212562-2.01-3.876-.842738-1.4003512-1.5781758-2.8625353-2.2-4.374-1.241879-2.9509176-1.4532493-6.2342029-.6-9.32.8675918-2.88021927 3.4446574-4.90973839 6.448-5.078h4.828c1.5861579-.03416903 2.9452374 1.12780522 3.158 2.7.0871366.84657249-.1915932 1.69003937-.766 2.318z"/><path id="Shape" d="m10 4h-4c-.55228475 0-1 .44771525-1 1s.44771525 1 1 1h4c.5522847 0 1-.44771525 1-1s-.4477153-1-1-1z"/><path id="Shape" d="m56 4h-4c-.5522847 0-1 .44771525-1 1s.4477153 1 1 1h4c.5522847 0 1-.44771525 1-1s-.4477153-1-1-1z"/></g></g></g></svg>