<svg height="512" viewBox="0 0 60 60" width="512" xmlns="http://www.w3.org/2000/svg"><g id="Page-1" fill="none" fill-rule="evenodd"><g id="034---Violin" transform="translate(-1)"><g id="Color" transform="translate(2)"><g fill-rule="nonzero"><path id="Shape" d="m22.24 57.81c-3.4194261 1.3295009-7.1718295 1.5430239-10.72.61.2717386-.8968141.7632983-1.711497 1.43-2.37 1.3382294-1.3375122 3.2511051-1.927032 5.1100736-1.5748485 1.8589684.3521835 3.4236581 1.6005316 4.1799264 3.3348485z" fill="#607d8b"/><path id="Shape" d="m21.04 56.05c-1.4522313-1.4432231-3.5669375-1.9967112-5.54-1.45.9587943.2531535 1.8345346.753084 2.54 1.45.5063632.5066108.9133779 1.1035657 1.2 1.76-1.5898546.5886338-3.2512113.9622709-4.94 1.111 2.6964406.22786 5.4096601-.1517857 7.94-1.111-.2866221-.6564343-.6936368-1.2533892-1.2-1.76z" fill="#37474f"/><path id="Shape" d="m39.77 39.14c-.3362925.8795906-1.2384158 1.4075614-2.17 1.27-2.3603165-.2324411-4.720492.4434273-6.6 1.89-3.61 2.65-4.94 6.98-2.96 9.68l.02.02c.3564449.444534.5134739 1.0165424.4339535 1.5807586-.0795204.5642161-.3885293 1.0705413-.8539535 1.3992414-1.6721456 1.1694338-3.4868335 2.1204647-5.4 2.83-.7562683-1.7343169-2.320958-2.982665-4.1799264-3.3348485-1.8589685-.3521835-3.7718442.2373363-5.1100736 1.5748485-.6667017.658503-1.1582614 1.4731859-1.43 2.37-2.61487721-.7173501-4.99469764-2.1107522-6.9-4.04-5.74-5.74-6.35-14.74-.59-23.03.32828821-.4628715.83266833-.7701617 1.39454875-.8496195.56188042-.0794579 1.13168932.0759268 1.57545125.4296195.01.01.02.02.03.02 2.7 1.98 7.03.65 9.69-2.96 1.446793-1.8748591 2.1164204-4.2346691 1.87-6.59-.1342679-.9338544.3977324-1.8357611 1.28-2.17 5.53-2.08 11.11-2.45 15.26-.53l5.17 5.17c1.93 4.15 1.56 9.74-.53 15.27z" fill="#ff9801"/><path id="Shape" d="m9.95 56.05c-.4096882.4121422-.75429682.8842088-1.022 1.4.83244889.4026037 1.7000868.7279679 2.592.972.5720422-1.8792567 2.0791244-3.3265101 3.98-3.822-1.9761231-.5523323-4.0965752.0016597-5.55 1.45z" fill="#f57c00"/><path id="Shape" d="m40.3 23.87-5.17-5.17c-2.4473131-1.0421048-5.1187949-1.4470416-7.765-1.177 1.6451218.1095053 3.2580971.5079254 4.765 1.177l5.17 5.17c1.93 4.15 1.56 9.74-.53 15.27-.3362925.8795906-1.2384158 1.4075614-2.17 1.27-2.3603165-.2324411-4.720492.4434273-6.6 1.89-3.61 2.65-4.94 6.98-2.96 9.68l.02.02c.3564449.444534.5134739 1.0165424.4339535 1.5807586-.0795204.5642161-.3885293 1.0705413-.8539535 1.3992414-.9609609.6634172-1.9666988 1.2595091-3.01 1.784.2394321.3263234.4438894.6769174.61 1.046 1.9131665-.7095353 3.7278544-1.6605662 5.4-2.83.4654242-.3287001.7744331-.8350253.8539535-1.3992414.0795204-.5642162-.0775086-1.1362246-.4339535-1.5807586l-.02-.02c-1.98-2.7-.65-7.03 2.96-9.68 1.879508-1.4465727 4.2396835-2.1224411 6.6-1.89.9315842.1375614 1.8337075-.3904094 2.17-1.27 2.09-5.53 2.46-11.12.53-15.27z" fill="#f57c00"/><path id="Shape" d="m53.219 12.812c-.957749.7579318-2.068154 1.2996593-3.255 1.588-.9438394.238488-1.7959679.7510177-2.449 1.473l-15.125 16.294c-.9834971 1.0357406-2.4515024 1.4563531-3.834265 1.0985925-1.3827627-.3577606-2.4625669-1.4375648-2.8203275-2.8203275-.3577606-1.3827626.0628519-2.8507679 1.0985925-3.834265l16.295-15.125c.7209212-.6535656 1.2326752-1.5055613 1.471-2.449.2878325-1.18683823.8292368-2.29728003 1.587-3.255.4569227-.57897611 1.0378347-1.04814802 1.7-1.373l6.389-3.195c.7777157-.38874791 1.7169054-.23651219 2.332.378l.8.8c.6149707.61438879.7676507 1.55343124.379 2.331l-3.195 6.387c-.3244278.6629985-.7936453 1.2446505-1.373 1.702z" fill="#ffe0b2"/><path id="Shape" d="m57.408 2.39-.8-.8c-.6150946-.61451219-1.5542843-.76674791-2.332-.378l-.7.352c.011.011.025.016.036.026l.8.8c.6146806.61453743.7673284 1.55338218.379 2.331l-3.199 6.389c-.324679.6622756-.7938796 1.2432233-1.373 1.7-.95757.7586458-2.0679876 1.3010618-3.255 1.59-.9438394.238488-1.7959679.7510177-2.449 1.473l-15.125 16.294c-.3813434.4014342-.8435195.7173909-1.356.927 1.5039423.6220355 3.2356572.2535094 4.356-.927l15.125-16.3c.6538282-.7197774 1.505876-1.2301711 2.449-1.467 1.1867628-.2880419 2.2971615-.8294252 3.255-1.587.5791204-.4567767 1.048321-1.0377244 1.373-1.7l3.2-6.389c.3885213-.77943279.2337546-1.72012416-.384-2.334z" fill="#dfc49c"/><path id="Shape" d="m11.167 42.364 5.47 5.469c-.3903196.5532622-.827605 1.0718485-1.307 1.55-2.763 2.763-6.276 3.72-7.854 2.142s-.622-5.091 2.142-7.855c.477747-.4791429.9960085-.9161019 1.549-1.306z" fill="#607d8b"/><path id="Shape" d="m11.167 42.364c-.5529915.3898981-1.071253.8268571-1.549 1.306-.024.025-.046.05-.07.074l4.089 4.089c-.3903196.5532622-.827605 1.0718485-1.307 1.55-1.1530136 1.1941328-2.57489554 2.0951951-4.147 2.628 1.771.811 4.743-.223 7.147-2.628.479395-.4781515.9166804-.9967378 1.307-1.55z" fill="#37474f"/></g><path id="Shape" d="m11.52 58.43v-.01" stroke="#000" stroke-linejoin="round" stroke-width="2"/></g><g id="Outline" fill="#000" fill-rule="nonzero"><path id="Shape" d="m60.116 1.683-.8-.8c-.9187699-.91851885-2.3223643-1.14573678-3.484-.564l-2.814 1.408-1.156-1.157c-.3923789-.37897221-1.0160848-.37355237-1.4018186.01218143-.3857338.38573379-.3911536 1.00943968-.0121814 1.40181857l.685.685-1.69.845c-.3844732.19318355-.7480536.42540585-1.085.693l-.781-.781c-.3923789-.37897221-1.0160848-.37355237-1.4018186.01218142-.3857338.3857338-.3911536 1.00943969-.0121814 1.40181858l.863.863c-.6545018.94180344-1.1291528 1.99654582-1.4 3.111-.1930072.74853354-.6032353 1.4232004-1.179 1.939l-7.382 6.852c-4.2-1.746-9.683-1.519-15.541.692-1.331998.4846307-2.1371113 1.8416902-1.924 3.243.1973986 2.0967097-.4064132 4.1904004-1.69 5.86-2.306 3.137-5.989 4.376-8.244 2.784-.02-.018-.041-.035-.062-.051-.68674982-.5182321-1.55324732-.7381005-2.404-.61-.80830945.1293914-1.52826349.5844226-1.992 1.259-5.877 8.459-5.6 18 .707 24.306 3.12531941 3.1767209 7.4027133 4.9541892 11.859 4.928 4.4788282-.1046083 8.8186889-1.5756529 12.438-4.216.6746934-.4631738 1.1298001-1.1828858 1.259-1.991.1295029-.8514606-.0896794-1.7191774-.608-2.407-.011-.015-.028-.035-.045-.055-1.6-2.254-.365-5.939 2.769-8.242 1.6713381-1.2846791 3.7657131-1.8917443 5.865-1.7 1.3959934.2081107 2.7482586-.5850129 3.248-1.905 2.218-5.868 2.445-11.36.694-15.563l6.846-7.375c.5170774-.5784166 1.1938656-.9907529 1.945-1.185 1.1140451-.2711377 2.1684078-.7457705 3.11-1.4l.863.862c.3923789.3789722 1.0160848.3735524 1.4018186-.0121814s.3911536-1.0094397.0121814-1.4018186l-.781-.78c.2683736-.3365925.5009616-.7002207.694-1.085l.845-1.69.685.685c.2510745.2599566.6228779.3642126.9725073.2726972.3496295-.0915155.6226744-.3645604.7141899-.7141899.0915154-.34962941-.0127406-.72143283-.2726972-.9725073l-1.155-1.159 1.407-2.814c.582293-1.16205172.3546085-2.56644164-.565-3.485zm-45.2 56.036c.8410692-1.4534753 2.393719-2.3477833 4.073-2.346h.011c1.4785288-.0327933 2.8778601.6666852 3.739 1.869-2.5311717.7830896-5.2134224.9466791-7.821.477zm25.916-18.933c-.1696594.4460328-.6285962.7122162-1.1.638-2.6181309-.2762329-5.2422276.464916-7.329 2.07-4.043 2.97-5.466 7.94-3.171 11.078.015.02.034.044.054.067.1782746.2461818.2532763.5522893.209.853-.0431751.272125-.1974743.5140777-.426.668-1.369794.9546194-2.8382279 1.7592407-4.38 2.4-1.1976865-1.9953039-3.3619286-3.2077208-5.689-3.187h-.008c-2.5855602-.0059953-4.9419545 1.4819461-6.048 3.819-2.117668-.7257183-4.03969705-1.92951-5.617-3.518-5.589-5.589-5.777-14.126-.48-21.75.15426719-.2292802.39702027-.38399.67-.427.29795318-.0448318.60161834.0287513.846.205.024.02.048.04.073.058 3.137 2.294 8.11.868 11.087-3.181 1.6033747-2.0853774 2.3411887-4.708557 2.06-7.324-.0696373-.468005.1982613-.9207621.642-1.085 4.9-1.847 9.614-2.2 13.207-1.048l-7.286 6.763c-1.4690558 1.3867638-1.943395 3.5294445-1.1969113 5.4066767s2.5627038 3.1090692 4.5829113 3.1083233h.068c1.3358179-.0148532 2.6077874-.5739131 3.522-1.548l6.757-7.28c1.16 3.594.805 8.315-1.047 13.214zm10.909-25.362c-1.1397287.2831192-2.1696393.89849-2.959 1.768l-15.118 16.287c-.7325477.7705194-1.8250043 1.0837626-2.8545469.8184926-1.0295427-.2652701-1.8346077-1.0674253-2.103604-2.0960006-.2689963-1.0285754.0402891-2.122159.8081509-2.857492l16.3-15.131c.8673675-.7878333 1.4810139-1.8156823 1.763-2.953.25472-1.04474166.7322955-2.02206576 1.4-2.865.021-.027.051-.048.073-.074.3534728-.42598427.7917756-.77369768 1.287-1.021l6.389-3.195c.1422586-.06960246.2986279-.10552977.457-.105.2702892.00055237.5292858.1084676.72.3l.8.8c.3108191.31009494.3878088.78452875.191 1.177l-3.194 6.386c-.2447904.4917466-.5890633.9272807-1.011 1.279-.026.021-.046.051-.072.071-.8455201.6725087-1.8266852 1.1538801-2.876 1.411z"/><path id="Shape" d="m13.875 41.657c-.3433595-.343861-.8842153-.3911121-1.282-.112-.6003221.4235199-1.1630667.8979384-1.682 1.418-3.2 3.2-4.141 7.271-2.142 9.269.74536681.7092389 1.7458941 1.0868712 2.774 1.047 2.4938358-.1960235 4.8187722-1.336673 6.5-3.189.5196703-.5186567.9937519-1.0810641 1.417-1.681.2799411-.3977507.2330938-.9392383-.111-1.283zm2.749 7.019c-2.53 2.529-5.425 3.158-6.441 2.142s-.387-3.911 2.142-6.441c.242-.242.5-.472.754-.688l4.232 4.233c-.211.259-.445.511-.687.754z"/><path id="Shape" d="m11.618 39.549c.8011548.0022328 1.5699197-.3160755 2.135-.884l3.57-3.57c.3986208-.3981177 1.0443792-.3981177 1.443 0 .2527654.2525868.6210837.3511378.966213.25853.3451292-.0926079.6146361-.3623054.707-.7075.0923638-.3451947-.0064476-.7134432-.259213-.96603-1.1800767-1.1777792-3.0909233-1.1777792-4.271 0l-3.571 3.57c-.4030536.3862953-1.0389464.3862953-1.442 0-.2527654-.2525868-.6210837-.3511379-.96621299-.25853-.34512927.0926079-.61463616.3623054-.70700002.7075-.09236385.3451947.00644759.7134432.25921301.96603.5653243.5681714 1.3344988.8865002 2.136.884z"/><path id="Shape" d="m25.906 40.821c-.187777.1875683-.2932867.4420908-.2932867.7075s.1055097.5199317.2932867.7075c.1913194.1909659.2988312.4501834.2988312.7205s-.1075118.5295341-.2988312.7205l-3.571 3.571c-1.1765643 1.1801887-1.1765643 3.0898113 0 4.27.3915699.3907415 1.0257585.3900699 1.4165-.0015s.3900699-1.0257585-.0015-1.4165c-.3969034-.3987324-.3969034-1.0432676 0-1.442l3.57-3.57c.566628-.5662328.8849895-1.3344464.8849895-2.1355s-.3183615-1.5692672-.8849895-2.1355c-.3916033-.3892795-1.0246054-.3874888-1.414.004z"/><path id="Shape" d="m16.624 41.521c.3904999.3903819 1.0235001.3903819 1.414 0l7.14-7.141c.3789722-.3923789.3735524-1.0160848-.0121814-1.4018186s-1.0094397-.3911536-1.4018186-.0121814l-7.14 7.141c-.3903819.3904999-.3903819 1.0235001 0 1.414z"/><path id="Shape" d="m26.621 35.823-7.142 7.14c-.3904653.3907415-.3902414 1.0240347.0005 1.4145.3907415.3904653 1.0240347.3902414 1.4145-.0005l7.141-7.14c.3789722-.3923789.3735524-1.0160848-.0121814-1.4018186s-1.0094397-.3911536-1.4018186-.0121814z"/><path id="Shape" d="m41.616 17.971-8.569 8.569c-.2599566.2510745-.3642126.6228779-.2726972.9725073.0915155.3496295.3645604.6226744.7141899.7141899.3496294.0915154.7214328-.0127406.9725073-.2726972l8.569-8.569c.3789722-.3923789.3735524-1.0160848-.0121814-1.4018186s-1.0094397-.3911536-1.4018186-.0121814z"/></g></g></g></svg>