<svg height="512" viewBox="0 0 60 60" width="512" xmlns="http://www.w3.org/2000/svg"><g id="Page-1" fill="none" fill-rule="evenodd"><g id="036---Drum" fill-rule="nonzero" transform="translate(0 -1)"><g id="Color" transform="translate(1 2)"><path id="Shape" d="m53 31c.0019365 1.3203154-.1084616 2.638402-.33 3.94-1.6884714 10.1152066-9.6147934 18.0415286-19.73 19.73-2.6082409.4399926-5.2717591.4399926-7.88 0-10.1152066-1.6884714-18.04152861-9.6147934-19.73-19.73-.43999258-2.6082409-.43999258-5.2717591 0-7.88 1.67962931-10.1197557 9.6102443-18.05037069 19.73-19.73 2.6082409-.43999258 5.2717591-.43999258 7.88 0 10.1197557 1.67962931 18.0503707 9.6102443 19.73 19.73.2215384 1.301598.3319365 2.6196846.33 3.94z" fill="#f44335"/><circle id="Oval" cx="29" cy="31" fill="#ffe0b2" r="20"/><path id="Shape" d="m29 11c-.506 0-1 .039-1.5.076 10.4305847.7755615 18.4975598 9.4646218 18.4975598 19.924s-8.0669751 19.1484385-18.4975598 19.924c.5.037.994.076 1.5.076 11.045695 0 20-8.954305 20-20s-8.954305-20-20-20z" fill="#dfc49c"/><path id="Shape" d="m29 7c-.5 0-1 .021-1.5.051 12.6273361.81636717 22.4516137 11.296302 22.4516137 23.95s-9.8242776 23.1336328-22.4516137 23.95c.5.03 1 .051 1.5.051 13.2553863 0 24.001-10.7456137 24.001-24.001s-10.7456137-24.001-24.001-24.001z" fill="#c81e1e"/><g fill="#ffeb3a"><path id="Shape" d="m32.94 7.33c-2.6082409-.43999258-5.2717591-.43999258-7.88 0 .3352475-1.91370895 1.9971483-3.30978264 3.94-3.30978264s3.6047525 1.39607369 3.94 3.30978264z"/><path id="Shape" d="m32.94 54.67c-.3352475 1.913709-1.9971483 3.3097826-3.94 3.3097826s-3.6047525-1.3960736-3.94-3.3097826c2.6082409.4399926 5.2717591.4399926 7.88 0z"/><path id="Shape" d="m15.05 50.52c-1.5885953 1.1308155-3.7615274.9491998-5.14036362-.4296364s-1.56045192-3.5517683-.42963638-5.1403636c1.5337331 2.1537215 3.4162785 4.0362669 5.57 5.57z"/><path id="Shape" d="m56 31c-.0017 1.9492831-1.4082554 3.6134957-3.33 3.94.4399926-2.6082409.4399926-5.2717591 0-7.88 1.9217446.3265043 3.3283 1.9907169 3.33 3.94z"/><path id="Shape" d="m5 31c-.0019365 1.3203154.10846162 2.638402.33 3.94-1.91370895-.3352475-3.30978264-1.9971483-3.30978264-3.94s1.39607369-3.6047525 3.30978264-3.94c-.22153838 1.301598-.3319365 2.6196846-.33 3.94z"/><path id="Shape" d="m48.09 50.09c-1.3797969 1.3763625-3.5506963 1.5579747-5.14.43 2.1537215-1.5337331 4.0362669-3.4162785 5.57-5.57 1.1279747 1.5893037.9463625 3.7602031-.43 5.14z"/></g><path id="Shape" d="m54.558.614-18.688 19.441c-1.7584184-.4306603-3.5868676.3734082-4.4580031 1.9604263-.8711354 1.5870182-.5677489 3.5612799.739697 4.8135134 1.3074459 1.2522336 3.2929534 1.4702079 4.8409321.5314505s2.2724567-2.8001773 1.766374-4.5383902l18.683-19.436c.4951701-.51517698.6778826-1.25539026.4793113-1.94180866-.1985713-.68641839-.7482586-1.21475862-1.4420001-1.38600002-.6937414-.1712414-1.4261411.04063167-1.9213112.55580868z" fill="#ff9801"/><path id="Shape" d="m3.442 6.686 18.688 19.442c1.7585253-.430536 3.586977.3737643 4.4579408 1.9609613.8709639 1.587197.5672555 3.561506-.7404701 4.8135548-1.3077255 1.2520488-3.2933728 1.4696254-4.8411986.5304728-1.5478258-.9391527-2.2718629-2.8008468-1.7652721-4.5389889l-18.683-19.435c-.76574281-.79639461-.74089461-2.06275719.0555-2.8285s2.06275719-.74089461 2.8285.0555z" fill="#ff9801"/><path id="Shape" d="m29 48c-.5522847 0-1-.4477153-1-1s.4477153-1 1-1c3.8373663.0068975 7.530091-1.4638181 10.312-4.107.2581429-.2525927.6324298-.346363.9791712-.2453123.3467414.1010506.6120518.3812183.6940779.7329463.0820262.3517279-.0319791.7203555-.2982491.964366-3.1530139 2.9954092-7.3379864 4.662308-11.687 4.655z" fill="#dfc49c"/><path id="Shape" d="m23 39c-1.1567767.0020248-2.3029572-.2204192-3.375-.655-.3421675-.1262208-.588485-.4287107-.6427707-.7893536-.0542857-.360643.0920704-.72224.3819191-.9435948.2898487-.2213549.6772194-.2673601 1.0108516-.1200516.8340402.337072 1.7254234.5095759 2.625.508.5522847 0 1 .4477153 1 1s-.4477153 1-1 1z" fill="#825a2c"/><path id="Shape" d="m15.582 34c-.4072316.0001549-.7738809-.2466511-.927-.624-.4345614-1.072398-.6570021-2.2189015-.655-3.376 0-.5522847.4477153-1 1-1s1 .4477153 1 1c-.0020918.8993976.1707853 1.7906146.509 2.624.1251219.308352.0886599.6587434-.0972682.9347274-.1859282.2759839-.496961.4413992-.8297318.4412726z" fill="#825a2c"/><path id="Shape" d="m42.418 28c-.3327708.0001266-.6438036-.1652887-.8297318-.4412726-.1859281-.275984-.2223901-.6263754-.0972682-.9347274.3382147-.8333854.5110918-1.7246024.509-2.624 0-.5522847.4477153-1 1-1s1 .4477153 1 1c.0020021 1.1570985-.2204386 2.303602-.655 3.376-.1531191.3773489-.5197684.6241549-.927.624z" fill="#825a2c"/><path id="Shape" d="m35 33c-.5522847 0-1-.4477153-1-1s.4477153-1 1-1c1.1862134.0003625 2.3530632-.3007268 3.391-.875.4832492-.2678581 1.0921419-.0932491 1.3599999.39.2678581.4832492.0932492 1.0921419-.3899999 1.36-1.3350245.7380472-2.8355479 1.1251348-4.361 1.125z" fill="#825a2c"/></g><g id="Outline" fill="#000"><path id="Shape" d="m56.94 1c-.7947517.01493996-1.5506709.34646449-2.1.921l-10.327 10.741c-2.9158572-2.0857941-6.248395-3.51616889-9.769-4.193-.6582765-2.06703269-2.5791068-3.46995811-4.7484267-3.46812958-2.1693198.00182853-4.0877824 1.4079901-4.7425733 3.47612958-4.921067.95274816-9.4412601 3.3651207-12.972 6.923l-7.119-7.4c-.54906921-.57490683-1.30515116-.90650277-2.1-.921h-.062c-1.20209663.00112656-2.28745044.71970531-2.75790236 1.82592073-.47045193 1.10621547-.2351515 2.38644277.59790236 3.25307927l7.72 8.027c-1.49494211 2.4891692-2.54179661 5.2212124-3.093 8.072-2.06271025.6578459-3.46387069 2.5732802-3.46615355 4.7383505-.00228287 2.1650704 1.39483516 4.0834552 3.45615355 4.7456495.6390479 3.3152505 1.9466228 6.4656111 3.843 9.259-.99443431 1.9260353-.62882193 4.2740963.9041347 5.8065961 1.5329566 1.5324997 3.8811265 1.8974122 5.8068653.9024039 2.791758 1.8923325 5.9392134 3.1971094 9.251 3.835.6610109 2.0604258 2.5771401 3.4580266 4.741 3.4580266s4.0799891-1.3976008 4.741-3.4580266c3.3117866-.6378906 6.459242-1.9426675 9.251-3.835 1.9252361.9856918 4.2665115.6168529 5.7954544-.9130021s1.8963854-3.87135.9095456-5.7959979c1.8951926-2.7933313 3.2017355-5.9433246 3.84-9.258 2.0596342-.6615034 3.456469-2.5772433 3.456469-4.7405s-1.3968348-4.0789966-3.456469-4.7405c-.8310702-4.2707527-2.7666806-8.2492008-5.614-11.539l10.236-10.642c.5518554-.57355951.853164-1.34291236.8375972-2.13869657-.0155669-.79578421-.3467331-1.55276483-.9205972-2.10430343-.5701343-.55730547-1.3420416-.85935618-2.139-.837zm-26.94 6c.9072674-.00099109 1.7656048.41124644 2.332 1.12-1.551309-.14450019-3.112691-.14450019-4.664 0 .5666757-.70840102 1.4248324-1.12055178 2.332-1.12zm-3.771 3.315c5.9085143-.98350539 11.9674853.3800771 16.885 3.8l-1.414 1.473c-3.4510996-2.3439961-7.5281459-3.5942903-11.7-3.588-5.6238885.0068734-11.0109733 2.2648466-14.959 6.27l-1.375-1.43c3.3960884-3.44365 7.7927144-5.7271798 12.563-6.525zm5.3 18c.6313717 1.1674517 1.7032246 2.0340792 2.977 2.407.4619894.1367139.9412069.2064244 1.423.207 1.4650255.000504 2.856167-.6432023 3.8040937-1.7602229.9479268-1.1170205 1.3567405-2.5943504 1.1179063-4.0397771l3.9-4.061c5.9299496 7.3239751 5.5933395 17.8883618-.7908318 24.8199756-6.3841714 6.9316137-16.8852751 8.1342744-24.6712986 2.8255315s-10.50240565-15.5234793-6.3818696-23.9985071l6.241 6.485c-.234165 1.4446421.1763541 2.9193516 1.1232919 4.0352068s2.3352163 1.7608177 3.7987081 1.7647932c1.8567239.0027927 3.5617175-1.0247266 4.4266102-2.6677092.8648927-1.6429827.7468841-3.6301598-.3063813-5.1592326-1.0532653-1.5290728-2.8678853-2.3475796-4.7112289-2.1250582l-7.034-7.318c3.5663909-3.6515174 8.4508316-5.7162791 13.555-5.73 3.6568808-.0076074 7.2365122 1.052033 10.3 3.049l-3.774 3.927c-1.8557899-.2280201-3.6833345.6005475-4.7347805 2.1466428-1.0514459 1.5460954-1.1503423 3.5502568-.2562195 5.1923572zm-29.488-17.958c-.089991-.3026625-.03174771-.63004796.15710776-.88310246.18885546-.2530545.48613451-.40204674.80189224-.40189754h.02c.2648036.00457017.51680966.11473283.7.306l18.689 19.443c.2470194.2566922.6119449.3625891.958.278 1.3189584-.3227133 2.690225.2807326 3.3432634 1.4712518s.4250018 2.6712347-.5559724 3.6101089-2.4702626 1.1017822-3.6310105.3971834-1.7035021-2.1010002-1.3232805-3.4045441c.0992433-.3432994.0077499-.7134662-.24-.971l-18.682-19.437c-.11092025-.1147663-.19225853-.2547917-.237-.408zm1.959 22.643c-.00096803-.9082729.41206588-1.7674718 1.122-2.334-.072.774-.122 1.551-.122 2.334s.041 1.56.112 2.327c-.70415322-.5670715-1.11312574-1.4228979-1.112-2.327zm7.617 18.383c-.6415428-.6404742-.9569093-1.5379992-.857-2.439.9953765 1.1998714 2.1001286 2.3046235 3.3 3.3-.9030253.1005817-1.8025839-.2164547-2.443-.861zm18.383 7.617c-.9040364.0008353-1.7597438-.4080803-2.327-1.112.767.071 1.542.112 2.327.112s1.56-.041 2.327-.112c-.5672562.7039197-1.4229636 1.1128353-2.327 1.112zm18.383-7.617c-.6401538.6420511-1.5379311.9575063-2.439.857 1.1998714-.9953765 2.3046235-2.1001286 3.3-3.3.100132.9029738-.2168373 1.8023421-.861 2.443zm7.617-18.383c.0011257.9041021-.4078468 1.7599285-1.112 2.327.071-.767.112-1.542.112-2.327s-.037-1.556-.109-2.325c.7023669.5673163 1.1101061 1.4221347 1.109 2.325zm-3 0c-.0002987 1.2427127-.1006226 2.4833853-.3 3.71-1.6076208 9.7440963-9.2440731 17.381353-18.988 18.99-2.4567807.4046733-4.9632193.4046733-7.42 0-9.7450293-1.6072557-17.38320485-9.2442247-18.992-18.989-.19943089-1.2269442-.299755-2.4679534-.3-3.711.00110038-3.9696857 1.03496255-7.8707923 3-11.32l1.455 1.513c-4.94462342 9.3162068-2.21202444 20.8546943 6.3856807 26.963743 8.5977051 6.1090487 20.3928487 4.8931632 27.5635105-2.8413452 7.1706618-7.7345083 7.4919524-19.5878016.7508088-27.6993978l1.39-1.446c3.5202585 4.1395512 5.4537754 9.3960234 5.455 14.83zm4.959-28.715c-.0447312.15343522-.1264578.2935379-.238.408l-13.573 14.12-.009.005c-.006.006-.008.014-.014.019l-5.087 5.292c-.2477499.2575338-.3392433.6277006-.24.971.360955 1.239169-.1111144 2.5703171-1.1721359 3.3052061-1.0610215.7348889-2.4731559.7087854-3.5062927-.0648143-1.0331369-.7735998-1.4556877-2.1212851-1.0491825-3.3462675.4065051-1.2249824 1.5509437-2.052669 2.8416111-2.0551243.2429181.0005494.4849235.0297512.721.087.3460551.0845891.7109806-.0213078.958-.278l18.688-19.441c.1832002-.19197318.4356772-.30254444.701-.307.2650138-.00385596.5209839.09630623.713.279.2698933.25915956.3725256.64731019.266 1.006z"/></g></g></g></svg>