<svg height="512" viewBox="0 0 40 60" width="512" xmlns="http://www.w3.org/2000/svg"><g id="Page-1" fill="none" fill-rule="evenodd"><g id="037---Phone-Music"><g id="Color" transform="translate(0 1)"><g fill-rule="nonzero"><path id="Shape" d="m39 50v5c0 1.6568542-1.3431458 3-3 3h-22c-1.6568542 0-3-1.3431458-3-3v-5c0 1.6568542 1.3431458 3 3 3h22c1.6568542 0 3-1.3431458 3-3z" fill="#607d8b"/><path id="Shape" d="m36 53v2c0 1.6568542-1.3431458 3-3 3h3c1.6568542 0 3-1.3431458 3-3v-5c0 1.6568542-1.3431458 3-3 3z" fill="#37474f"/><path id="Shape" d="m39 12v38c0 1.6568542-1.3431458 3-3 3h-22c-1.6568542 0-3-1.3431458-3-3v-38c0-1.6568542 1.3431458-3 3-3h2l2.83 2.83c.7507884.7499543 1.7688148 1.1708345 2.83 1.17h6.68c1.0611852.0008345 2.0792116-.4200457 2.83-1.17l2.83-2.83h2c1.6568542 0 3 1.3431458 3 3z" fill="#00bcd4"/><path id="Shape" d="m36 9h-2l-.14.14c1.2679662.37424614 2.1387151 1.5379573 2.14 2.86v38c0 1.6568542-1.3431458 3-3 3h3c1.6568542 0 3-1.3431458 3-3v-38c0-1.6568542-1.3431458-3-3-3z" fill="#00838f"/><path id="Shape" d="m34 9-2.83 2.83c-.7507884.7499543-1.7688148 1.1708345-2.83 1.17h-6.68c-1.0611852.0008345-2.0792116-.4200457-2.83-1.17l-2.83-2.83z" fill="#607d8b"/><path id="Shape" d="m31 9-2.83 2.83c-.7507884.7499543-1.7688148 1.1708345-2.83 1.1700012l3-.0000012c1.0611852.0008345 2.0792116-.4200457 2.83-1.17l2.83-2.83z" fill="#37474f"/><path id="Shape" d="m32 5c1.1045695 0 2 .8954305 2 2v2h-4v-2c0-1.1045695.8954305-2 2-2z" fill="#f5f5f5"/></g><path id="Shape" d="m32 5v-1.5c0-1.93299662-1.5670034-3.5-3.5-3.5s-3.5 1.56700338-3.5 3.5v5.5" stroke="#000" stroke-linecap="round" stroke-linejoin="round" stroke-width="2"/><path id="Shape" d="m29 31v1c-.0018497 7.208599-5.4771882 13.2374647-12.6523098 13.93139-7.1751216.6939254-13.70431332-4.1739497-15.08753408-11.2485948-1.38322075-7.0746451 2.83173629-14.0431952 9.73984388-16.1027952" stroke="#000" stroke-linecap="round" stroke-linejoin="round" stroke-width="2"/><path id="Shape" d="m31 23.87v5.13c0 1.1045695-.8954305 2-2 2s-2-.8954305-2-2v-8c0-.5522847.4477153-1 1-1" fill="#cfd8dc" fill-rule="nonzero"/><path id="Shape" d="m34 20c0 2.209.209 4-2 4-2.209139 0-4-1.790861-4-4s1.790861-4 4-4c2.209 0 2 1.791 2 4z" fill="#f5f5f5" fill-rule="nonzero"/><path id="Shape" d="m20 29.87v5.13c0 1.1045695-.8954305 2-2 2s-2-.8954305-2-2v-8c0-.5522847.4477153-1 1-1" fill="#cfd8dc" fill-rule="nonzero"/><path id="Shape" d="m23 26c0 2.209.209 4-2 4-2.209139 0-4-1.790861-4-4s1.790861-4 4-4c2.209 0 2 1.791 2 4z" fill="#f5f5f5" fill-rule="nonzero"/><path id="Shape" d="m1 32c.00205494 3.9757116 2.61247513 7.4790524 6.42153061 8.6180798 3.80905549 1.1390275 7.91419019-.3561509 10.09846939-3.6780798" stroke="#000" stroke-linecap="round" stroke-linejoin="round" stroke-width="2"/><path id="Shape" d="m26 50c-.4043959-.0000863-.7689341-.2437275-.923678-.6173454-.1547439-.373618-.0692299-.8036603.216678-1.0896546l9-9c.3923789-.3789722 1.0160848-.3735524 1.4018186.0121814s.3911536 1.0094397.0121814 1.4018186l-9 9c-.1874927.1875494-.4418052.2929434-.707.293z" fill="#f5f5f5" fill-rule="nonzero"/><path id="Shape" d="m32 50c-.4043959-.0000863-.7689341-.2437275-.923678-.6173454-.1547439-.373618-.0692299-.8036603.216678-1.0896546l3-3c.3923789-.3789722 1.0160848-.3735524 1.4018186.0121814s.3911536 1.0094397.0121814 1.4018186l-3 3c-.1874927.1875494-.4418052.2929434-.707.293z" fill="#f5f5f5" fill-rule="nonzero"/></g><g id="Outline" fill="#000" fill-rule="nonzero"><path id="Shape" d="m36 9h-1v-1c-.0052514-1.26678543-.8056491-2.39374545-2-2.816v-.684c0-2.48528137-2.0147186-4.5-4.5-4.5s-4.5 2.01471863-4.5 4.5v4.5h-10c-2.209139 0-4 1.790861-4 4v5.867c-5.99256844 2.1144785-10.00016934 7.7783249-10.00016934 14.133s4.0076009 12.0185215 10.00016934 14.133v8.867c0 2.209139 1.790861 4 4 4h22c2.209139 0 4-1.790861 4-4v-43c0-2.209139-1.790861-4-4-4zm-6 2h1.586l-1.121 1.122c-.5618214.5641204-1.3258404.8802414-2.122.878h-6.686c-.7961596.0022414-1.5601786-.3138796-2.122-.878l-1.121-1.122zm2-4c.5522847 0 1 .44771525 1 1v1h-2v-1c0-.55228475.4477153-1 1-1zm-6-2.5c0-1.38071187 1.1192881-2.5 2.5-2.5s2.5 1.11928813 2.5 2.5v.684c-1.1943509.42225455-1.9947486 1.54921457-2 2.816v1h-3zm-12 6.5h1.586l2.535 2.536c.9358645.9406269 2.2091214 1.4677898 3.536 1.464h6.686c1.3268786.0037898 2.6001355-.5233731 3.536-1.464l2.535-2.536h1.586c1.1045695 0 2 .8954305 2 2v38c0 1.1045695-.8954305 2-2 2h-22c-1.1045695 0-2-.8954305-2-2v-3.307c4.4135145.9072992 9.0010092-.2198104 12.4915669-3.0690751s5.5135151-7.1181201 5.5084331-11.6239249v-.184c1.1943509-.4222546 1.9947486-1.5492146 2-2.816v-4c.7886696.0467829 1.5622866-.2302312 2.142-.767.882-.89.872-2.261.861-3.712l-.003-.521v-.521c.011-1.451.021-2.822-.861-3.712-.5789764-.5359958-1.3513494-.8129523-2.139-.767-2.4604388.0064748-4.5495566 1.8040582-4.923 4.236-.6585423.3425684-1.0731792 1.0216952-1.077 1.764v8c.0052514 1.2667854.8056491 2.3937454 2 2.816v.184c.0024525 3.9762642-1.8160895 7.7347091-4.9355286 10.2004307s-7.1962479 3.3671831-11.0644714 2.4465693v-2.866c2.3876526-.4850139 4.51377-1.8306533 5.974-3.781h.026c1.6568542 0 3-1.3431458 3-3v-4c.7886696.0467829 1.5622866-.2302312 2.142-.767.882-.89.872-2.261.861-3.712l-.003-.521v-.521c.011-1.451.021-2.822-.861-3.712-.5789764-.5359958-1.3513494-.8129523-2.139-.767-2.4604388.0064748-4.5495566 1.8040582-4.923 4.236-.6585423.3425684-1.0731792 1.0216952-1.077 1.764v8c.0029158.8627008.3793065 1.6818613 1.032 2.246-1.0589443 1.2234425-2.4653121 2.0954464-4.032 2.5v-27.746c0-1.1045695.8954305-2 2-2zm19 10.537c.007.932.016 1.988-.281 2.287-.21314.1376558-.4663763.1996441-.719.176-1.6568542 0-2.9999999-1.3431458-2.9999999-3s1.3431457-3 2.9999999-3c.2536207-.0243321.5080276.037684.722.176.3.3.288 1.355.281 2.287l-.003.537zm-3 4.039v4.424c0 .5522847-.4477153 1-1 1s-1-.4477153-1-1v-6.031c.5162172.6998604 1.205392 1.2536123 2 1.607zm-8 1.961c.007.932.016 1.988-.281 2.287-.21314.1376558-.4663763.1996441-.719.176-1.6568542 0-3-1.3431458-3-3s1.3431458-3 3-3c.2536207-.0243321.5080276.037684.722.176.3.3.288 1.355.281 2.287l-.003.537zm-3 4.039v4.424c0 .5522847-.4477153 1-1 1s-1-.4477153-1-1v-6.031c.5162172.6998604 1.205392 1.2536123 2 1.607zm-9-10.569v19.993c-4.41622192-.0049599-7.99504012-3.5837781-8-8 .02519859-5.2387534 3.17282214-9.9574346 8-11.993zm-4.362 20.977c1.35752476.6667955 2.84955599 1.0143204 4.362 1.016v1.993c-1.64605968-.6912515-3.13121595-1.7157437-4.362-3.009zm30.362 16.016h-22c-1.1045695 0-2-.8954305-2-2v-1.556c.6053465.3599241 1.2957468.5518554 2 .556h22c.7042532-.0041446 1.3946535-.1960759 2-.556v1.556c0 1.1045695-.8954305 2-2 2z"/></g></g></g></svg>