<svg height="512" viewBox="0 0 60 61" width="512" xmlns="http://www.w3.org/2000/svg"><g id="Page-1" fill="none" fill-rule="evenodd"><g id="038---Gong" fill-rule="nonzero"><g id="Color" transform="translate(1 1)"><circle id="Oval" cx="29" cy="26" fill="#ffdc00" r="17"/><path id="Shape" d="m29 9c-.506 0-1 .032-1.5.076 8.7736376.76969109 15.5042963 8.1166655 15.5042963 16.924s-6.7306587 16.1543089-15.5042963 16.924c.5.044.994.076 1.5.076 9.3888407 0 17-7.6111593 17-17s-7.6111593-17-17-17z" fill="#fec108"/><rect id="Rectangle-path" fill="#ff9801" height="4" rx="2" width="58"/><rect id="Rectangle-path" fill="#ff9801" height="4" rx="2" width="58" y="47"/><path id="Shape" d="m47.82 51 3.59 3.59c.7787215.7787215.7787215 2.0412785 0 2.82s-2.0412785.7787215-2.82 0l-6.41-6.41" fill="#d84315"/><path id="Shape" d="m10.35 51-3.76 3.76c-.5477693.4945934-.77864281 1.2506558-.60061292 1.9668815s.73602665 1.2762012 1.45161766 1.4567653c.71559101.180564 1.47246592-.0476317 1.96899526-.5936468l6.59-6.59" fill="#d84315"/><path id="Shape" d="m36.8 27.79c.1328727-.5873982.1999523-1.187761.2-1.79.0059185-3.8640674-2.7469624-7.1818375-6.5457802-7.8889696-3.7988177-.7071322-7.5611216 1.3978668-8.945979 5.0052512-1.3848573 3.6073844.0023389 7.6892514 3.2984651 9.7058337 3.2961263 2.0165823 7.5619707 1.3932667 10.1432941-1.4821153" fill="#ff9801"/><g fill="#f57c00"><path id="Rectangle-path" d="m4 4h4v43h-4z"/><path id="Shape" d="m50 34.63v-30.63h4v32.71z"/><path id="Shape" d="m54 41.22v5.78h-4v-7.85z"/></g><path id="Shape" d="m56.921 38.225-23.94-12.414c-.0853993-1.8083369-1.3746957-3.3338811-3.1434997-3.7195076-1.768804-.3856264-3.5761013.4648128-4.4064642 2.0734995s-.4767577 3.5745284.8621429 4.7930196c1.3389005 1.2184911 3.3292697 1.3858263 4.852821.4079885l23.933 12.409c.9771176.4862965 2.1636812.0994121 2.6663609-.8693789.5026798-.9687911.135829-2.1617006-.8243609-2.6806211z" fill="#e91e63"/><path id="Shape" d="m16 27c-.5522847 0-1-.4477153-1-1 .0082673-7.7285595 6.2714405-13.9917327 14-14 .5522847 0 1 .4477153 1 1s-.4477153 1-1 1c-6.624447.0071648-11.9928352 5.375553-12 12 0 .5522847-.4477153 1-1 1z" fill="#f5f5f5"/></g><g id="Outline" fill="#000"><path id="Shape" d="m57 6c1.6568542 0 3-1.34314575 3-3s-1.3431458-3-3-3h-54c-1.65685425 0-3 1.34314575-3 3s1.34314575 3 3 3h1v41h-1c-1.6568542.0000001-2.99999987 1.3431458-2.99999987 3s1.34314567 2.9999999 2.99999987 3h5.935l-2.048 2.048c-.80826878.7450815-1.1442941 1.8725631-.87578389 2.9385589.26851022 1.0659959 1.09854774 1.8997617 2.16332951 2.1730466 1.06478178.273285 2.19375798-.057684 2.94245438-.8626055l6.3-6.3h25.349l6.118 6.118c.7543177.7669879 1.8621316 1.0703343 2.9019642.7946284 1.0398327-.2757059 1.8518202-1.088077 2.1270349-2.1280398s-.0286549-2.1476332-.7959991-2.9015886l-1.883-1.88h5.766c1.6568542-.0000001 2.9999999-1.3431458 2.9999999-3s-1.3431457-2.9999999-2.9999999-3h-1v-3.194c1.4814725.5310767 3.1209695-.1775782 3.7491834-1.620544.6282139-1.4429659.0299149-3.1258743-1.3681834-3.848456l-2.381-1.237v-31.1zm-55-3c0-.55228475.44771525-1 1-1h54c.5522847 0 1 .44771525 1 1s-.4477153 1-1 1h-54c-.55228475 0-1-.44771525-1-1zm45.125 29.5c2.64733-8.1605876-.8592484-17.0528076-8.364-21.21l2.117-5.29h9.122v27.991zm-17.125-.5c.7495889-.0004709 1.4892497-.1714512 2.163-.5l2.058 1.068c-2.5896314 1.9542712-6.1836358 1.8695182-8.6782696-.2046489-2.4946337-2.0741671-3.2339198-5.5923352-1.7851184-8.4951513 1.4488014-2.9028162 4.7047202-4.4269695 7.8619106-3.6802998 3.1571903.7466697 5.3854525 3.5678217 5.3804774 6.8121 0 .082-.011.162-.014.244l-2.07-1.074c-.4441547-2.612033-2.8512033-4.4223128-5.483918-4.1243147-2.6327147.297998-4.5742366 2.6004944-4.42332 5.2457191.1509165 2.6452247 2.3417138 4.7119622 4.991238 4.7085956zm0-14c-4.0407397-.0092188-7.5923022 2.6757394-8.6851331 6.5659043-1.0928309 3.8901648.5409922 8.0318093 3.9954165 10.1281431 3.4544242 2.0963338 7.8825502 1.633412 10.8287166-1.1320474l6.426 3.332c-5.1172894 6.5023605-14.3412081 8.0446444-21.2954603 3.5607042-6.9542521-4.4839402-9.3560654-13.5222259-5.5451181-20.8668854 3.8109473-7.3446596 12.5836902-10.58476709 20.2538211-7.4805063 7.6701309 3.1042608 11.7198861 11.5338989 9.3497573 19.4616875l-6.423-3.33c.3797484-2.5806846-.3868154-5.1984879-2.0986077-7.1667127-1.7117924-1.9682248-4.1979805-3.0904469-6.8063923-3.0722873zm-20 29v-41h9.122l2.117 5.29c-6.4037823 3.5671411-10.0030354 10.6627952-9.0985247 17.93705.9045108 7.2742549 6.1318967 13.2723684 13.2142694 15.1625856 7.0823726 1.8902173 14.6033633-.7054769 19.0122553-6.5616356l5.633 2.921v6.251zm20-38c-2.3908761-.00296877-4.75812.4730642-6.962 1.4l-1.761-4.4h17.446l-1.761 4.4c-2.20388-.9269358-4.5711239-1.40296877-6.962-1.4zm-24-3h2v41h-2zm3.7 51.882c-.28752591.2818318-.716027.3637456-1.08723249.2078393-.3712055-.1559063-.61271-.5192225-.61276751-.9218393.00199094-.2641418.11009796-.5163915.3-.7l3.464-3.468h2.822zm42-1.581c.1899184.1833574.2971827.4360134.2971827.7s-.1072643.5166426-.2971827.7c-.3896849.3857397-1.0173151.3857397-1.407 0l-4.7-4.7h2.812zm6.3-6.301c0 .5522847-.4477153 1-1 1h-54c-.55228475 0-1-.4477153-1-1s.44771525-1 1-1h54c.5522847 0 1 .4477153 1 1zm-6-3v-5.214l2 1.038v4.176zm5.953-6.3c.0811614.2524658.0577492.5269282-.065.762-.2607388.4830265-.8574828.6723567-1.349.428l-23.933-12.412c-.317393-.1649211-.6987028-.1477621-1 .045-1.141964.7349828-2.6352422.6111646-3.640558-.3018643-1.0053157-.9130289-1.2719062-2.3875255-.649938-3.5947691.6219683-1.2072435 1.9773536-1.8461031 3.30438-1.5575163 1.3270265.2885868 2.2946849 1.4326357 2.359116 2.7891497.0169602.3566317.2227736.6771671.54.841l23.94 12.413c.2368617.1218156.4148564.3336798.494.588zm-3.953-4.635-2-1.037v-29.028h2z"/></g></g></g></svg>