<svg height="512" viewBox="0 0 60 61" width="512" xmlns="http://www.w3.org/2000/svg"><g id="Page-1" fill="none" fill-rule="evenodd"><g id="039---xylophone"><g id="Color" transform="translate(1 1)"><path id="Shape" d="m11 10v-7c0-1.65685425-1.34314575-3-3-3h-5c-1.65685425 0-3 1.34314575-3 3v44c0 1.6568542 1.34314575 3 3 3h5c.34157656.0021256.68060416-.0588994 1-.18" stroke="#000" stroke-linecap="round" stroke-linejoin="round" stroke-width="2"/><path id="Shape" d="m11 6c0-1.65685425 1.3431458-3 3-3h5c1.6568542 0 3 1.34314575 3 3v38c0 1.6568542-1.3431458 3-3 3h-5c-.3415766.0021256-.6806042-.0588994-1-.18" stroke="#000" stroke-linecap="round" stroke-linejoin="round" stroke-width="2"/><path id="Shape" d="m33 38v3c0 1.6568542-1.3431458 3-3 3h-5c-1.6568542 0-3-1.3431458-3-3v-32c0-1.65685425 1.3431458-3 3-3h5c1.6568542 0 3 1.34314575 3 3v10" fill="#ff9801" fill-rule="nonzero"/><path id="Shape" d="m30 6h-3c1.6568542 0 3 1.34314575 3 3v32c0 1.6568542-1.3431458 3-3 3h3c1.6568542 0 3-1.3431458 3-3v-32c0-1.65685425-1.3431458-3-3-3z" fill="#f57c00" fill-rule="nonzero"/><path id="Shape" d="m22 35v9c0 1.6568542-1.3431458 3-3 3h-5c-1.6568542 0-3-1.3431458-3-3v-38c0-1.65685425 1.3431458-3 3-3h5c1.6568542 0 3 1.34314575 3 3v10" fill="#ff9801" fill-rule="nonzero"/><path id="Shape" d="m19 3h-3c1.6568542 0 3 1.34314575 3 3v38c0 1.6568542-1.3431458 3-3 3h3c1.6568542 0 3-1.3431458 3-3v-38c0-1.65685425-1.3431458-3-3-3z" fill="#f57c00" fill-rule="nonzero"/><path id="Shape" d="m11 32v15c0 1.6568542-1.34314575 3-3 3h-5c-1.65685425 0-3-1.3431458-3-3v-44c0-1.65685425 1.34314575-3 3-3h5c1.65685425 0 3 1.34314575 3 3v10" fill="#ff9801" fill-rule="nonzero"/><path id="Shape" d="m8 0h-3c1.65685425 0 3 1.34314575 3 3v44c0 1.6568542-1.34314575 3-3 3h3c1.65685425 0 3-1.3431458 3-3v-44c0-1.65685425-1.34314575-3-3-3z" fill="#f57c00" fill-rule="nonzero"/><rect id="Rectangle-path" fill="#ff9801" fill-rule="nonzero" height="26" rx="3" width="11" x="44" y="12"/><path id="Shape" d="m52 12h-3c1.6568542 0 3 1.3431458 3 3v20c0 1.6568542-1.3431458 3-3 3h3c1.6568542 0 3-1.3431458 3-3v-20c0-1.6568542-1.3431458-3-3-3z" fill="#f57c00" fill-rule="nonzero"/><rect id="Rectangle-path" fill="#ff9801" fill-rule="nonzero" height="32" rx="3" width="11" x="33" y="9"/><path id="Shape" d="m41 9h-3c1.6568542 0 3 1.3431458 3 3v26c0 1.6568542-1.3431458 3-3 3h3c1.6568542 0 3-1.3431458 3-3v-26c0-1.6568542-1.3431458-3-3-3z" fill="#f57c00" fill-rule="nonzero"/><path id="Shape" d="m55 16h1c1.1045695 0 2 .8954305 2 2s-.8954305 2-2 2h-1" stroke="#000" stroke-linecap="round" stroke-linejoin="round" stroke-width="2"/><g fill-rule="nonzero"><circle id="Oval" cx="50" cy="17" fill="#000" r="1"/><circle id="Oval" cx="50" cy="33" fill="#000" r="1"/><circle id="Oval" cx="39" cy="17" fill="#000" r="1"/><circle id="Oval" cx="28" cy="17" fill="#000" r="1"/><circle id="Oval" cx="28" cy="33" fill="#000" r="1"/><circle id="Oval" cx="17" cy="17" fill="#000" r="1"/><circle id="Oval" cx="17" cy="33" fill="#000" r="1"/><circle id="Oval" cx="5" cy="17" fill="#000" r="1"/><circle id="Oval" cx="5" cy="33" fill="#000" r="1"/><path id="Shape" d="m4 4h3" fill="#000" stroke="#000" stroke-linecap="round" stroke-linejoin="round" stroke-width="2"/><path id="Shape" d="m15 7h3" fill="#000" stroke="#000" stroke-linecap="round" stroke-linejoin="round" stroke-width="2"/><path id="Shape" d="m26 10h3" fill="#000" stroke="#000" stroke-linecap="round" stroke-linejoin="round" stroke-width="2"/><path id="Shape" d="m37 13h3" fill="#000" stroke="#000" stroke-linecap="round" stroke-linejoin="round" stroke-width="2"/></g><path id="Shape" d="m55 30h1c1.1045695 0 2 .8954305 2 2s-.8954305 2-2 2h-1" stroke="#000" stroke-linecap="round" stroke-linejoin="round" stroke-width="2"/><path id="Shape" d="m57.414 50.586-26.006-26.007c.0689794-1.2418345-.6354577-2.3974508-1.7708858-2.9051063s-2.4663539-.2620598-3.3458171.6174034-1.1250589 2.210389-.6174034 3.3458171 1.6632718 1.8398652 2.9051063 1.7708858l26.007 26.006c.7847578.7579444 2.0321696.7471047 2.8036372-.0243628.7714675-.7714676.7823072-2.0188794.0243628-2.8036372z" fill="#91562d" fill-rule="nonzero"/><path id="Shape" d="m13 56.5v-36.783c.9271097-.8292321 1.2463496-2.1445657.8025171-3.3065342-.4438325-1.1619686-1.5586689-1.9295338-2.8025171-1.9295338-1.24384816 0-2.35868458.7675652-2.80251708 1.9295338-.4438325 1.1619685-.1245926 2.4773021.80251708 3.3065342v36.783c0 1.1045695.8954305 2 2 2s2-.8954305 2-2z" fill="#91562d" fill-rule="nonzero"/></g><g id="Outline" fill="#000" fill-rule="nonzero"><path id="Shape" d="m60 19c0-1.6568542-1.3431458-3-3-3 0-2.209139-1.790861-4-4-4h-5c-.720679.0035419-1.4267209.2037369-2.042.579-.2110442-2.0290761-1.9179882-3.5725709-3.958-3.579h-5c-.720679.00354188-1.4267209.20373691-2.042.579-.2110442-2.0290761-1.9179882-3.5725709-3.958-3.579h-5c-.720679.00354188-1.4267209.20373691-2.042.579-.2110442-2.0290761-1.9179882-3.5725709-3.958-3.579h-5c-.720679.00354188-1.4267209.20373691-2.042.579-.2110442-2.0290761-1.9179882-3.5725709-3.958-3.579h-5c-2.209139 0-4 1.790861-4 4v44c0 2.209139 1.790861 4 4 4h5v5.5c0 1.6568542 1.3431458 3 3 3s3-1.3431458 3-3v-8.5h5c2.0400118-.0064291 3.7469558-1.5499239 3.958-3.579.6152791.3752631 1.321321.5754581 2.042.579h5c2.0400118-.0064291 3.7469558-1.5499239 3.958-3.579.6152791.3752631 1.321321.5754581 2.042.579h5c.2347255.0004841.4690137-.0202672.7-.062l12.179 12.183c.7532234.7798698 1.8686337 1.0926378 2.917522.8180915 1.0488883-.2745464 1.8680231-1.0936812 2.1425695-2.1425695.2745463-1.0488883-.0382217-2.1642986-.8180915-2.917522l-10.879-10.879h4.758c2.209139 0 4-1.790861 4-4 1.6568542 0 3-1.3431458 3-3s-1.3431458-3-3-3v-8c1.6568542 0 3-1.3431458 3-3zm-2 0c0 .5522847-.4477153 1-1 1v-2c.5522847 0 1 .4477153 1 1zm-45 38.5c0 .5522847-.4477153 1-1 1s-1-.4477153-1-1v-36.783c-.0001022-.2828752-.1200044-.5524736-.33-.742-.4243036-.3729971-.6682576-.9100599-.67-1.475 0-1.1045695.8954305-2 2-2s2 .8954305 2 2c-.0005959.5663363-.2446517 1.1050803-.67 1.479-.2099956.1895264-.3298978.4591248-.33.742zm9-12.5c0 1.1045695-.8954305 2-2 2h-5v-25.875c1.4182283-1.6081197 1.3162204-4.0484851-.2312657-5.5326372s-3.9899825-1.4841521-5.53746861 0c-1.54748608 1.4841521-1.649494 3.9245175-.23126569 5.5326372v28.875h-5c-1.1045695 0-2-.8954305-2-2v-44c0-1.1045695.8954305-2 2-2h5c1.1045695 0 2 .8954305 2 2v7c0 .5522847.4477153 1 1 1s1-.4477153 1-1v-4c0-1.1045695.8954305-2 2-2h5c1.1045695 0 2 .8954305 2 2zm15-4c-1.1045695 0-2-.8954305-2-2v-1c0-.5522847-.4477153-1-1-1s-1 .4477153-1 1v4c0 1.1045695-.8954305 2-2 2h-5c-1.1045695 0-2-.8954305-2-2v-32c0-1.1045695.8954305-2 2-2h5c1.1045695 0 2 .8954305 2 2v10c0 .5522847.4477153 1 1 1s1-.4477153 1-1v-7c0-1.1045695.8954305-2 2-2h5c1.1045695 0 2 .8954305 2 2v22.758l-10.6-10.6c-.0596251-.9639134-.4680461-1.8731745-1.149-2.558-1.5821292-1.5121388-4.0738708-1.5121388-5.656 0-1.1071321 1.1082482-1.4631133 2.7619221-.9100525 4.2275548.5530609 1.4656327 1.9127729 2.4718847 3.4760525 2.5724452l11.597 11.6zm21 12c-.0000863.4043959-.2437275.7689341-.6173454.923678-.373618.1547439-.8036603.0692299-1.0896546-.216678l-12.56-12.56c-.014-.015-.029-.029-.044-.043l-13.4-13.4c-.1874927-.1875494-.4418052-.2929434-.707-.293h-.053c-.8253147.0460544-1.5933218-.4223784-1.9301267-1.1772477-.336805-.7548694-.1724198-1.6393136.4131267-2.2227523.7909621-.756325 2.0370379-.756325 2.828 0 .3997546.4008267.6080798.954054.572 1.519-.0134463.2827594.0925059.5581624.292.759l26.003 26.004c.1882061.1870531.2937185.4416514.293.707zm-3-17c0 1.1045695-.8954305 2-2 2h-5c-1.1045695 0-2-.8954305-2-2v-20c0-1.1045695.8954305-2 2-2h5c1.1045695 0 2 .8954305 2 2zm3-3c0 .5522847-.4477153 1-1 1v-2c.5522847 0 1 .4477153 1 1z"/><circle id="Oval" cx="51" cy="18" r="1"/><circle id="Oval" cx="51" cy="34" r="1"/><circle id="Oval" cx="40" cy="18" r="1"/><circle id="Oval" cx="29" cy="18" r="1"/><circle id="Oval" cx="29" cy="34" r="1"/><circle id="Oval" cx="18" cy="18" r="1"/><circle id="Oval" cx="18" cy="34" r="1"/><circle id="Oval" cx="6" cy="18" r="1"/><circle id="Oval" cx="6" cy="34" r="1"/><path id="Shape" d="m8 4h-3c-.55228475 0-1 .44771525-1 1s.44771525 1 1 1h3c.55228475 0 1-.44771525 1-1s-.44771525-1-1-1z"/><path id="Shape" d="m19 7h-3c-.5522847 0-1 .44771525-1 1s.4477153 1 1 1h3c.5522847 0 1-.44771525 1-1s-.4477153-1-1-1z"/><path id="Shape" d="m27 12h3c.5522847 0 1-.4477153 1-1s-.4477153-1-1-1h-3c-.5522847 0-1 .4477153-1 1s.4477153 1 1 1z"/><path id="Shape" d="m38 15h3c.5522847 0 1-.4477153 1-1s-.4477153-1-1-1h-3c-.5522847 0-1 .4477153-1 1s.4477153 1 1 1z"/></g></g></g></svg>