<svg height="512pt" viewBox="-56 0 512 512" width="512pt" xmlns="http://www.w3.org/2000/svg"><g fill="#ff712f"><path d="m390 226v10c0 11.050781-8.949219 20-20 20h-40v-30c0-16.570312 13.429688-30 30-30 16.558594 0 30 13.441406 30 30zm0 0"/><path d="m290 326v10c0 11.050781-8.949219 20-20 20-16.933594 0-122.953125 0-140 0-11.050781 0-20-8.949219-20-20v-10c0-16.570312 13.429688-30 30-30h120c16.570312 0 30 13.429688 30 30zm0 0"/><path d="m290 100v76c0 33.140625-26.859375 60-60 60-7.257812 0-52.691406 0-60 0-33.140625 0-60-26.859375-60-60v-76c0-49.710938 40.289062-90 90-90s90 40.289062 90 90zm0 0"/><path d="m70 226v30h-40c-11.050781 0-20-8.949219-20-20v-10c0-16.570312 13.429688-30 30-30 16.558594 0 30 13.441406 30 30zm0 0"/></g><path d="m80 226c0-22.097656-17.898438-40-40-40-22.054688 0-40 17.945312-40 40v10c0 16.542969 13.457031 30 30 30h30v40c0 16.542969 13.457031 30 30 30h10c0 16.542969 13.457031 30 30 30h60v86h-50c-22.054688 0-40 17.945312-40 40v10c0 5.523438 4.476562 10 10 10s10-4.476562 10-10v-10c0-11.027344 8.972656-20 20-20h50v30c0 5.523438 4.476562 10 10 10s10-4.476562 10-10v-30h50c11.027344 0 20 8.972656 20 20v10c0 5.523438 4.476562 10 10 10s10-4.476562 10-10v-10c0-22.054688-17.945312-40-40-40h-50v-46h20c5.523438 0 10-4.476562 10-10s-4.476562-10-10-10h-20v-20h60c16.542969 0 30-13.457031 30-30h10c16.542969 0 30-13.457031 30-30v-40h30c16.542969 0 30-13.457031 30-30v-10c0-22.097656-17.898438-40-40-40-22.054688 0-40 17.945312-40 40v80c0 5.515625-4.484375 10-10 10h-11.265625c-4.453125-17.234375-20.128906-30-38.734375-30h-50v-40h20c38.597656 0 70-31.402344 70-70v-76c0-36.34375-19.761719-69.875-51.570312-87.511719-4.832032-2.679687-10.917969-.933593-13.59375 3.898438-2.679688 4.828125-.933594 10.917969 3.894531 13.59375 25.457031 14.113281 41.269531 40.941406 41.269531 70.019531v76c0 27.570312-22.429688 50-50 50h-60c-27.570312 0-50-22.429688-50-50v-76c0-29.078125 15.8125-55.90625 41.269531-70.019531 4.828125-2.679688 6.574219-8.765625 3.894531-13.59375-2.675781-4.832031-8.765624-6.578125-13.59375-3.898438-31.808593 17.636719-51.570312 51.167969-51.570312 87.511719v76c0 38.597656 31.402344 70 70 70h20v40h-50c-18.605469 0-34.28125 12.765625-38.734375 30h-11.265625c-5.515625 0-10-4.484375-10-10 0-25.480469 0-65.515625 0-80zm260 0c0-11.027344 8.972656-20 20-20 11.046875 0 20 8.953125 20 20v10c0 5.515625-4.484375 10-10 10h-30zm-200 80h120c11.027344 0 20 8.972656 20 20v10c0 5.515625-4.484375 10-10 10h-140c-5.515625 0-10-4.484375-10-10v-10c0-11.027344 8.972656-20 20-20zm-120-70v-10c0-11.027344 8.972656-20 20-20 11.046875 0 20 8.953125 20 20v20h-30c-5.515625 0-10-4.484375-10-10zm0 0"/><path d="m210 10c0 5.523438-4.476562 10-10 10s-10-4.476562-10-10 4.476562-10 10-10 10 4.476562 10 10zm0 0"/></svg>