<svg height="512pt" viewBox="-36 0 512 512" width="512pt" xmlns="http://www.w3.org/2000/svg"><path d="m370 10h60v60h-60zm0 0" fill="#866d67"/><path d="m370 292 60 120h-120zm0 0" fill="#fff2fb"/><path d="m370 10v60h-180c-16.570312 0-30 13.429688-30 30v72h-60v-72c0-49.710938 40.289062-90 90-90zm0 0" fill="#76e2f8"/><path d="m220 232h-180c0-33.140625 26.859375-60 60-60h60c33.140625 0 60 26.859375 60 60zm0 0" fill="#fff2fb"/><path d="m80 292c0-5.523438-4.476562-10-10-10s-10 4.476562-10 10v30c0 5.523438 4.476562 10 10 10s10-4.476562 10-10zm0 0"/><path d="m140 292c0-5.523438-4.476562-10-10-10s-10 4.476562-10 10v30c0 5.523438 4.476562 10 10 10s10-4.476562 10-10zm0 0"/><path d="m200 292c0-5.523438-4.476562-10-10-10s-10 4.476562-10 10v30c0 5.523438 4.476562 10 10 10s10-4.476562 10-10zm0 0"/><path d="m80 382c0-5.523438-4.476562-10-10-10s-10 4.476562-10 10v30c0 5.523438 4.476562 10 10 10s10-4.476562 10-10zm0 0"/><path d="m140 382c0-5.523438-4.476562-10-10-10s-10 4.476562-10 10v30c0 5.523438 4.476562 10 10 10s10-4.476562 10-10zm0 0"/><path d="m200 382c0-5.523438-4.476562-10-10-10s-10 4.476562-10 10v30c0 5.523438 4.476562 10 10 10s10-4.476562 10-10zm0 0"/><path d="m70 462c-5.523438 0-10 4.476562-10 10v30c0 5.523438 4.476562 10 10 10s10-4.476562 10-10v-30c0-5.523438-4.476562-10-10-10zm0 0"/><path d="m130 462c-5.523438 0-10 4.476562-10 10v30c0 5.523438 4.476562 10 10 10s10-4.476562 10-10v-30c0-5.523438-4.476562-10-10-10zm0 0"/><path d="m190 462c-5.523438 0-10 4.476562-10 10v30c0 5.523438 4.476562 10 10 10s10-4.476562 10-10v-30c0-5.523438-4.476562-10-10-10zm0 0"/><path d="m140 232c0 5.523438-4.476562 10-10 10s-10-4.476562-10-10 4.476562-10 10-10 10 4.476562 10 10zm0 0"/><path d="m0 232c0 5.523438 4.476562 10 10 10h75c5.523438 0 10-4.476562 10-10s-4.476562-10-10-10h-33.992188c4.644532-22.796875 24.84375-40 48.992188-40h60c24.144531 0 44.347656 17.203125 48.992188 40h-33.992188c-5.523438 0-10 4.476562-10 10s4.476562 10 10 10h75c5.523438 0 10-4.476562 10-10s-4.476562-10-10-10h-20.726562c-4.398438-30.609375-28.664063-54.875-59.273438-59.273438v-62.726562c0-11.027344 8.972656-20 20-20h170v209.640625l-58.945312 117.886719c-1.546876 3.101562-1.382813 6.78125.4375 9.730468 1.824218 2.945313 5.042968 4.742188 8.507812 4.742188h120c3.46875 0 6.6875-1.792969 8.507812-4.742188 1.820313-2.949218 1.988282-6.628906.4375-9.730468l-58.945312-117.886719v-209.640625h50c5.523438 0 10-4.476562 10-10v-60c0-5.523438-4.476562-10-10-10h-240c-55.140625 0-100 44.859375-100 100v62.726562c-30.609375 4.398438-54.875 28.664063-59.273438 59.273438h-20.726562c-5.523438 0-10 4.476562-10 10zm326.179688 170 43.820312-87.640625 43.820312 87.640625zm93.820312-342h-40v-40h40zm-230-40h170v40h-170c-22.054688 0-40 17.945312-40 40v62h-40v-62c0-44.113281 35.886719-80 80-80zm0 0"/></svg>