<svg height="512pt" viewBox="0 -36 512 512" width="512pt" xmlns="http://www.w3.org/2000/svg"><path d="m402 400h-372c-11.050781 0-20-8.949219-20-20v-350c0-11.050781 8.949219-20 20-20h372zm0 0" fill="#ff712f"/><path d="m502 70v310c0 11.050781-8.949219 20-20 20h-80v-330zm0 0" fill="#866d67"/><path d="m502 30v40h-100v-60h80c11.050781 0 20 8.949219 20 20zm0 0" fill="#fff2fb"/><path d="m70 70h272v270h-272zm0 0" fill="#fff2fb"/><path d="m462 150c0 5.523438-4.476562 10-10 10s-10-4.476562-10-10 4.476562-10 10-10 10 4.476562 10 10zm0 0"/><path d="m462 210c0 5.523438-4.476562 10-10 10s-10-4.476562-10-10 4.476562-10 10-10 10 4.476562 10 10zm0 0"/><path d="m352 340v-270c0-5.523438-4.476562-10-10-10h-272c-5.523438 0-10 4.476562-10 10v270c0 5.523438 4.476562 10 10 10h272c5.523438 0 10-4.476562 10-10zm-20-10h-252v-250h252zm0 0"/><path d="m452 270c-5.523438 0-10 4.476562-10 10v60c0 5.523438 4.476562 10 10 10s10-4.476562 10-10v-60c0-5.523438-4.476562-10-10-10zm0 0"/><path d="m276 260c5.523438 0 10-4.476562 10-10v-90c0-5.523438-4.476562-10-10-10s-10 4.476562-10 10v90c0 5.523438 4.476562 10 10 10zm0 0"/><path d="m206 400c0 5.523438-4.476562 10-10 10s-10-4.476562-10-10 4.476562-10 10-10 10 4.476562 10 10zm0 0"/><path d="m482 0h-452c-16.542969 0-30 13.457031-30 30v350c0 16.542969 13.457031 30 30 30v20c0 5.523438 4.476562 10 10 10s10-4.476562 10-10v-20h101c5.523438 0 10-4.476562 10-10s-4.476562-10-10-10h-121c-5.515625 0-10-4.484375-10-10v-350c0-5.515625 4.484375-10 10-10h362v370h-151c-5.523438 0-10 4.476562-10 10s4.476562 10 10 10h221v20c0 5.523438 4.476562 10 10 10s10-4.476562 10-10v-20c16.542969 0 30-13.457031 30-30v-350c0-16.542969-13.457031-30-30-30zm0 20c5.515625 0 10 4.484375 10 10v30h-80v-40zm0 370h-70v-310h80v300c0 5.515625-4.484375 10-10 10zm0 0"/></svg>