<svg height="512pt" viewBox="-66 0 512 512" width="512pt" xmlns="http://www.w3.org/2000/svg"><path d="m250 336c-10 0-170 0-180 0l-22.039062-180.308594c-22.210938-8.800781-37.960938-30.363281-37.960938-55.691406h270c-33.980469 267.324219-21.007812 165.265625-30 236zm0 0" fill="#fff2fb"/><path d="m250 376 30 126h-240l30-126zm0 0" fill="#ff712f"/><path d="m250 336v40h-180v-40zm0 0" fill="#866d67"/><path d="m250 100h-180c0-33.140625 26.859375-60 60-60h60c33.140625 0 60 26.859375 60 60zm0 0" fill="#866d67"/><path d="m160 0c-5.523438 0-10 4.476562-10 10v20h-20c-35.203125 0-64.40625 26.121094-69.273438 60h-50.726562c-5.523438 0-10 4.476562-10 10 0 26.78125 15.011719 50.707031 38.71875 62.507812l21.28125 174.097657v38.21875l-29.730469 124.859375c-.707031 2.976562-.015625 6.113281 1.882813 8.515625 1.898437 2.402343 4.789062 3.800781 7.847656 3.800781h75c5.523438 0 10-4.476562 10-10s-4.476562-10-10-10h-62.339844l25.238282-106h164.203124l25.238282 106h-62.339844c-5.523438 0-10 4.476562-10 10s4.476562 10 10 10h75c3.058594 0 5.949219-1.398438 7.847656-3.800781 1.898438-2.402344 2.589844-5.539063 1.882813-8.515625l-29.730469-124.859375v-38.191407l5.929688-46.632812h14.070312c55.140625 0 100-44.859375 100-100 0-38.597656-31.402344-70-70-70h-22.460938l2.382813-18.738281c.359375-2.851563-.519531-5.71875-2.417969-7.871094-1.898437-2.15625-4.632812-3.390625-7.503906-3.390625h-20.726562c-4.867188-33.878906-34.070313-60-69.273438-60h-20v-20c0-5.523438-4.476562-10-10-10zm-80 366v-20h160v20zm230-226c27.570312 0 50 22.429688 50 50 0 44.113281-35.886719 80-80 80h-11.53125l16.527344-130zm-68.808594 186h-71.191406v-40h30c5.523438 0 10-4.476562 10-10s-4.476562-10-10-10h-80c-5.523438 0-10 4.476562-10 10s4.476562 10 10 10h30v40h-71.148438l-20.964843-171.523438c-.445313-3.632812-2.839844-6.734374-6.242188-8.082031-16.035156-6.355469-27.335937-20.089843-30.644531-36.40625h247.648438c-1.492188 11.671875-26.101563 204.390625-27.457032 216.011719zm-2.199218-236h-157.984376c4.644532-22.796875 24.84375-40 48.992188-40h60c24.144531 0 44.347656 17.203125 48.992188 40zm0 0"/><path d="m190 439c0-5.523438-4.476562-10-10-10h-40c-5.523438 0-10 4.476562-10 10s4.476562 10 10 10h40c5.523438 0 10-4.476562 10-10zm0 0"/><path d="m170 502c0 5.523438-4.476562 10-10 10s-10-4.476562-10-10 4.476562-10 10-10 10 4.476562 10 10zm0 0"/></svg>