<svg height="512pt" viewBox="0 0 512 512" width="512pt" xmlns="http://www.w3.org/2000/svg"><path d="m502 30v106h-492v-106c0-11.050781 8.949219-20 20-20h452c11.050781 0 20 8.949219 20 20zm0 0" fill="#76e2f8"/><path d="m502 136v346c0 11.050781-8.949219 20-20 20h-452c-11.050781 0-20-8.949219-20-20v-346zm0 0" fill="#866d67"/><path d="m76 259h360v180h-360zm0 0" fill="#76e2f8"/><path d="m76 199h360v60h-360zm0 0" fill="#fff2fb"/><path d="m316 319c-10.929688 0-21.171875 2.921875-30 8.03125-8.828125-5.109375-19.070312-8.03125-30-8.03125s-21.171875 2.921875-30 8.03125c-8.828125-5.109375-19.070312-8.03125-30-8.03125-33.140625 0-60 26.859375-60 60s26.859375 60 60 60c10.929688 0 21.171875-2.921875 30-8.03125 8.828125 5.109375 19.070312 8.03125 30 8.03125s21.171875-2.921875 30-8.03125c8.828125 5.109375 19.070312 8.03125 30 8.03125 33.140625 0 60-26.859375 60-60s-26.859375-60-60-60zm0 0" fill="#fff2fb"/><path d="m206 73c0 5.523438-4.476562 10-10 10s-10-4.476562-10-10 4.476562-10 10-10 10 4.476562 10 10zm0 0"/><path d="m146 73c0 5.523438-4.476562 10-10 10s-10-4.476562-10-10 4.476562-10 10-10 10 4.476562 10 10zm0 0"/><path d="m86 73c0 5.523438-4.476562 10-10 10s-10-4.476562-10-10 4.476562-10 10-10 10 4.476562 10 10zm0 0"/><path d="m436 63h-90c-5.523438 0-10 4.476562-10 10s4.476562 10 10 10h90c5.523438 0 10-4.476562 10-10s-4.476562-10-10-10zm0 0"/><path d="m436 449c5.523438 0 10-4.476562 10-10v-240c0-5.523438-4.476562-10-10-10h-360c-5.523438 0-10 4.476562-10 10v240c0 5.523438 4.476562 10 10 10zm-290-70c0-27.570312 22.429688-50 50-50 3.382812 0 6.742188.351562 10.027344 1.019531-12.636719 12.929688-20.027344 30.492188-20.027344 48.980469s7.390625 36.050781 20.027344 48.980469c-3.285156.667969-6.644532 1.019531-10.027344 1.019531-27.570312 0-50-22.429688-50-50zm60 0c0-27.238281 22.078125-50 50-50 3.382812 0 6.742188.351562 10.027344 1.019531-12.636719 12.929688-20.027344 30.492188-20.027344 48.980469s7.390625 36.050781 20.027344 48.980469c-3.285156.667969-6.644532 1.019531-10.027344 1.019531-27.929688 0-50-22.769531-50-50zm110 50c-27.929688 0-50-22.769531-50-50 0-27.253906 22.085938-50 50-50 27.570312 0 50 22.429688 50 50s-22.429688 50-50 50zm110-220v40h-340v-40zm-340 220v-160h340v160h-61.078125c12.992187-12.714844 21.078125-30.429688 21.078125-50 0-38.597656-31.402344-70-70-70-10.40625 0-20.667969 2.328125-30 6.753906-9.332031-4.425781-19.59375-6.753906-30-6.753906-10.410156 0-20.671875 2.328125-30 6.753906-9.332031-4.425781-19.59375-6.753906-30-6.753906-38.597656 0-70 31.402344-70 70 0 19.570312 8.085938 37.285156 21.078125 50zm0 0"/><path d="m266 502c0 5.523438-4.476562 10-10 10s-10-4.476562-10-10 4.476562-10 10-10 10 4.476562 10 10zm0 0"/><path d="m482 0h-452c-16.542969 0-30 13.457031-30 30v452c0 16.542969 13.457031 30 30 30h181c5.523438 0 10-4.476562 10-10s-4.476562-10-10-10h-181c-5.515625 0-10-4.484375-10-10v-336h472v336c0 5.515625-4.484375 10-10 10h-181c-5.523438 0-10 4.476562-10 10s4.476562 10 10 10h181c16.542969 0 30-13.457031 30-30v-452c0-16.542969-13.457031-30-30-30zm-462 126v-96c0-5.515625 4.484375-10 10-10h452c5.515625 0 10 4.484375 10 10v96zm0 0"/></svg>