<?xml version="1.0" encoding="iso-8859-1"?>
<!-- Generator: Adobe Illustrator 19.0.0, SVG Export Plug-In . SVG Version: 6.00 Build 0)  -->
<svg version="1.1" id="Layer_1" xmlns="http://www.w3.org/2000/svg" xmlns:xlink="http://www.w3.org/1999/xlink" x="0px" y="0px"
	 viewBox="0 0 356.623 356.623" style="enable-background:new 0 0 356.623 356.623;" xml:space="preserve">
<g id="XMLID_1951_">
	<g id="XMLID_1952_">
		<path id="XMLID_1953_" style="fill:#B3404A;" d="M263.22,356.623H72.903c-23.008,0-41.727-18.719-41.727-41.728V41.727
			C31.176,18.719,49.895,0,72.903,0H263.22c23.008,0,41.727,18.719,41.727,41.727v273.169
			C304.947,337.904,286.228,356.623,263.22,356.623z M72.903,20c-11.98,0-21.727,9.746-21.727,21.727v273.169
			c0,11.98,9.747,21.728,21.727,21.728H263.22c11.98,0,21.727-9.747,21.727-21.728V41.727C284.947,29.746,275.2,20,263.22,20H72.903
			z"/>
	</g>
	<g id="XMLID_1956_">
		<path id="XMLID_1957_" style="fill:#B3404A;" d="M238.878,316.622H97.245c-14.375,0-26.069-11.694-26.069-26.068V66.068
			c0-14.375,11.694-26.069,26.069-26.069h141.633c14.375,0,26.069,11.694,26.069,26.069v42.131h-20V66.068
			c0-3.347-2.723-6.069-6.069-6.069H97.245c-3.346,0-6.069,2.723-6.069,6.069v224.485c0,3.346,2.723,6.068,6.069,6.068h141.633
			c3.346,0,6.069-2.723,6.069-6.068V166.866h20v123.688C264.947,304.928,253.252,316.622,238.878,316.622z"/>
	</g>
	<g id="XMLID_1958_">
		<g id="XMLID_1959_">
			<rect id="XMLID_1960_" x="11.614" y="57.983" style="fill:#B3404A;" width="69.562" height="20"/>
		</g>
		<g id="XMLID_1961_">
			<rect id="XMLID_1962_" x="11.614" y="113.147" style="fill:#B3404A;" width="62.5" height="20"/>
		</g>
		<g id="XMLID_1963_">
			<rect id="XMLID_1964_" x="11.614" y="168.312" style="fill:#B3404A;" width="62.5" height="20"/>
		</g>
		<g id="XMLID_1965_">
			<rect id="XMLID_1966_" x="11.614" y="223.476" style="fill:#B3404A;" width="62.5" height="20"/>
		</g>
		<g id="XMLID_1967_">
			<rect id="XMLID_1968_" x="11.614" y="278.64" style="fill:#B3404A;" width="69.562" height="20"/>
		</g>
	</g>
	<g id="XMLID_1969_">
		<path id="XMLID_44_" style="fill:#F4B2B0;" d="M318.094,98.003h-23.147V39.199h23.147c9.342,0,16.915,7.573,16.915,16.915v24.973
			C335.009,90.43,327.436,98.003,318.094,98.003z"/>
		<path id="XMLID_1970_" style="fill:#B3404A;" d="M318.094,108.003h-33.147V29.199h33.147c14.841,0,26.915,12.074,26.915,26.915
			v24.974C345.009,95.929,332.935,108.003,318.094,108.003z M304.947,88.003h13.147c3.813,0,6.915-3.103,6.915-6.915V56.114
			c0-3.813-3.102-6.915-6.915-6.915h-13.147V88.003z"/>
	</g>
	<g id="XMLID_1973_">
		<path id="XMLID_1974_" style="fill:#B3404A;" d="M318.094,166.062h-33.147V87.258h33.147c14.841,0,26.915,12.074,26.915,26.915
			v24.974C345.009,153.987,332.935,166.062,318.094,166.062z M304.947,146.062h13.147c3.813,0,6.915-3.103,6.915-6.915v-24.974
			c0-3.813-3.102-6.915-6.915-6.915h-13.147V146.062z"/>
	</g>
	<g id="XMLID_1977_">
		<path id="XMLID_35_" style="fill:#F4B2B0;" d="M318.094,214.866h-23.147v-58.804h23.147c9.342,0,16.915,7.573,16.915,16.915
			v24.973C335.009,207.293,327.436,214.866,318.094,214.866z"/>
		<path id="XMLID_1978_" style="fill:#B3404A;" d="M318.094,224.866h-33.147v-78.805h33.147c14.841,0,26.915,12.074,26.915,26.916
			v24.973C345.009,212.792,332.935,224.866,318.094,224.866z M304.947,204.866h13.147c3.813,0,6.915-3.103,6.915-6.916v-24.973
			c0-3.813-3.102-6.916-6.915-6.916h-13.147V204.866z"/>
	</g>
</g>
<g>
</g>
<g>
</g>
<g>
</g>
<g>
</g>
<g>
</g>
<g>
</g>
<g>
</g>
<g>
</g>
<g>
</g>
<g>
</g>
<g>
</g>
<g>
</g>
<g>
</g>
<g>
</g>
<g>
</g>
</svg>
