<?xml version="1.0" encoding="iso-8859-1"?>
<!-- Generator: Adobe Illustrator 19.0.0, SVG Export Plug-In . SVG Version: 6.00 Build 0)  -->
<svg version="1.1" id="Layer_1" xmlns="http://www.w3.org/2000/svg" xmlns:xlink="http://www.w3.org/1999/xlink" x="0px" y="0px"
	 viewBox="0 0 344.7 344.7" style="enable-background:new 0 0 344.7 344.7;" xml:space="preserve">
<g id="XMLID_1512_">
	<g id="XMLID_1513_">
		<g id="XMLID_1514_">
			<path id="XMLID_1515_" style="fill:#B3404A;" d="M274.645,289.513H26.619C11.941,289.513,0,277.571,0,262.894V36.131
				C0,21.453,11.941,9.512,26.619,9.512h286.762C328.059,9.512,340,21.453,340,36.131v188.026L274.645,289.513z M26.619,29.512
				c-3.649,0-6.619,2.97-6.619,6.619v226.762c0,3.649,2.969,6.619,6.619,6.619H266.36l53.64-53.64V36.131
				c0-3.649-2.969-6.619-6.619-6.619H26.619z"/>
		</g>
		<g id="XMLID_1518_">
			<g id="XMLID_1519_">
				<path id="XMLID_1520_" style="fill:#B3404A;" d="M298.967,335.188c-1.708,0-3.37-0.354-4.938-1.05l-24.675-10.967
					l-24.674,10.966c-1.567,0.697-3.229,1.051-4.937,1.051c-3.172,0-6.176-1.218-8.46-3.429c-2.349-2.274-3.696-5.456-3.696-8.73
					v-77.276h83.536v77.276C311.123,329.733,305.669,335.188,298.967,335.188z M269.354,302.432c1.713,0,3.375,0.354,4.94,1.05
					l16.828,7.479v-45.207h-43.536v45.207l16.831-7.479C265.98,302.785,267.642,302.432,269.354,302.432z"/>
			</g>
			<g id="XMLID_1523_">
				<path id="XMLID_1524_" style="fill:#F4B2B0;" d="M334.701,220.309c0,6.567-9.765,11.51-11.689,17.435
					c-1.994,6.141,2.931,15.867-0.789,20.979c-3.757,5.163-14.554,3.466-19.717,7.223c-5.112,3.72-6.813,14.533-12.954,16.527
					c-5.926,1.924-13.631-5.761-20.198-5.761s-14.272,7.685-20.197,5.761c-6.141-1.994-7.842-12.807-12.954-16.527
					c-5.163-3.757-15.959-2.06-19.717-7.223c-3.72-5.112,1.205-14.837-0.789-20.978c-1.924-5.926-11.689-10.869-11.689-17.436
					s9.765-11.51,11.689-17.435c1.994-6.141-2.931-15.867,0.789-20.979c3.757-5.163,14.554-3.466,19.717-7.223
					c5.112-3.72,6.813-14.533,12.954-16.527c5.926-1.924,13.631,5.761,20.198,5.761c6.567,0,14.272-7.685,20.197-5.761
					c6.141,1.994,7.842,12.807,12.954,16.527c5.163,3.757,15.959,2.06,19.717,7.223c3.72,5.112-1.205,14.837,0.789,20.979
					C324.936,208.799,334.701,213.742,334.701,220.309z"/>
				<path id="XMLID_1525_" style="fill:#B3404A;" d="M287.513,292.783c-5.071,0-9.425-2.124-13.266-3.997
					c-1.569-0.766-3.917-1.911-4.892-2.064c-0.975,0.153-3.322,1.299-4.892,2.064c-3.841,1.873-8.195,3.996-13.266,3.997
					c-1.772,0-3.497-0.269-5.128-0.798c-7.299-2.37-10.752-8.914-13.272-13.691c-0.747-1.416-1.854-3.514-2.5-4.251
					c-0.911-0.401-3.292-0.818-4.898-1.1c-5.286-0.925-12.526-2.191-16.998-8.335c-4.444-6.105-3.427-13.353-2.684-18.645
					c0.23-1.642,0.572-4.076,0.461-5.082c-0.502-0.82-2.105-2.468-3.188-3.581c-3.791-3.895-8.981-9.229-8.981-16.991
					s5.191-13.096,8.981-16.99c1.083-1.113,2.686-2.761,3.188-3.581c0.111-1.007-0.231-3.44-0.461-5.082
					c-0.743-5.292-1.76-12.538,2.684-18.645c4.473-6.145,11.712-7.411,16.999-8.336c1.605-0.28,3.986-0.697,4.897-1.099
					c0.647-0.738,1.754-2.836,2.5-4.251c2.521-4.777,5.973-11.32,13.272-13.69c1.63-0.53,3.356-0.799,5.129-0.799
					c5.071,0,9.425,2.124,13.267,3.998c1.569,0.765,3.916,1.909,4.891,2.063c0.975-0.154,3.322-1.299,4.891-2.064
					c3.842-1.874,8.196-3.998,13.267-3.998c1.772,0,3.497,0.269,5.127,0.798c7.299,2.371,10.751,8.914,13.272,13.692
					c0.747,1.415,1.853,3.513,2.5,4.251c0.911,0.401,3.292,0.818,4.897,1.099c5.287,0.925,12.527,2.191,16.998,8.336
					c4.444,6.106,3.427,13.353,2.684,18.644c-0.23,1.643-0.572,4.076-0.461,5.082c0.502,0.821,2.106,2.469,3.189,3.582
					c3.79,3.896,8.98,9.229,8.98,16.99c0,7.762-5.191,13.097-8.981,16.991c-1.083,1.113-2.686,2.761-3.188,3.581
					c-0.111,1.006,0.23,3.44,0.461,5.083c0.743,5.291,1.76,12.538-2.684,18.644c-4.471,6.144-11.711,7.41-16.998,8.335
					c-1.606,0.281-3.988,0.698-4.898,1.1c-0.647,0.737-1.753,2.835-2.5,4.251c-2.521,4.777-5.973,11.321-13.272,13.69
					C291.01,292.515,289.285,292.783,287.513,292.783z M269.355,266.713c5.259,0,9.917,2.271,13.659,4.097
					c0.983,0.479,2.292,1.118,3.324,1.541c0.618-0.987,1.344-2.362,1.885-3.39c2.002-3.795,4.271-8.096,8.399-11.1
					c4.163-3.03,8.986-3.874,13.241-4.618c1.133-0.198,2.649-0.464,3.77-0.745c-0.079-1.138-0.289-2.635-0.446-3.754
					c-0.603-4.294-1.286-9.159,0.314-14.087c1.56-4.804,4.92-8.257,7.885-11.304c0.871-0.896,2.057-2.113,2.811-3.044
					c-0.754-0.93-1.939-2.147-2.81-3.042c-2.965-3.048-6.326-6.502-7.885-11.306c-1.6-4.927-0.917-9.793-0.314-14.086
					c0.157-1.12,0.367-2.616,0.446-3.755c-1.12-0.281-2.636-0.546-3.769-0.744c-4.255-0.744-9.079-1.588-13.243-4.619
					c-4.127-3.004-6.396-7.305-8.398-11.1c-0.542-1.027-1.267-2.402-1.886-3.39c-1.033,0.424-2.34,1.062-3.323,1.541
					c-3.743,1.825-8.4,4.098-13.659,4.098s-9.917-2.271-13.659-4.097c-0.983-0.48-2.292-1.118-3.324-1.541
					c-0.619,0.987-1.344,2.362-1.886,3.39c-2.001,3.794-4.271,8.095-8.398,11.099c-4.164,3.031-8.987,3.875-13.243,4.619
					c-1.133,0.198-2.649,0.463-3.769,0.744c0.08,1.139,0.29,2.635,0.447,3.755c0.603,4.293,1.286,9.159-0.314,14.087
					c-1.56,4.805-4.92,8.258-7.885,11.304c-0.871,0.896-2.056,2.113-2.811,3.043c0.754,0.931,1.939,2.148,2.811,3.044
					c2.964,3.047,6.325,6.5,7.885,11.303c1.6,4.929,0.917,9.795,0.314,14.088c-0.157,1.12-0.367,2.616-0.447,3.754
					c1.121,0.281,2.637,0.547,3.77,0.745c4.255,0.744,9.079,1.588,13.243,4.619c4.126,3.003,6.396,7.304,8.398,11.099
					c0.542,1.027,1.267,2.402,1.886,3.39c1.033-0.424,2.341-1.062,3.324-1.541C259.438,268.984,264.096,266.713,269.355,266.713z"/>
			</g>
		</g>
	</g>
	<g id="XMLID_1528_">
		<path id="XMLID_1529_" style="fill:#B3404A;" d="M282.351,122.512h-20v-47.5c0-3.032-2.467-5.5-5.5-5.5h-169
			c-3.033,0-5.5,2.468-5.5,5.5v47.5h-20v-47.5c0-14.061,11.439-25.5,25.5-25.5h169c14.061,0,25.5,11.439,25.5,25.5V122.512z"/>
	</g>
	<g id="XMLID_1530_">
		<rect id="XMLID_1531_" x="72.351" y="159.512" style="fill:#B3404A;" width="109" height="20"/>
	</g>
	<g id="XMLID_1532_">
		<rect id="XMLID_1533_" x="72.351" y="207.012" style="fill:#B3404A;" width="80" height="20"/>
	</g>
</g>
<g>
</g>
<g>
</g>
<g>
</g>
<g>
</g>
<g>
</g>
<g>
</g>
<g>
</g>
<g>
</g>
<g>
</g>
<g>
</g>
<g>
</g>
<g>
</g>
<g>
</g>
<g>
</g>
<g>
</g>
</svg>
