<?xml version="1.0" encoding="iso-8859-1"?>
<!-- Generator: Adobe Illustrator 19.0.0, SVG Export Plug-In . SVG Version: 6.00 Build 0)  -->
<svg version="1.1" id="Layer_1" xmlns="http://www.w3.org/2000/svg" xmlns:xlink="http://www.w3.org/1999/xlink" x="0px" y="0px"
	 viewBox="0 0 328.498 328.498" style="enable-background:new 0 0 328.498 328.498;" xml:space="preserve">
<g id="XMLID_1335_">
	<g id="XMLID_1336_">
		<g id="XMLID_1337_">
			<path id="XMLID_44_" style="fill:#F4B2B0;" d="M167.2,173.663L167.2,173.663l-57.276-57.276L13.01,213.301
				c-4.013,4.013-4.013,10.52,0,14.533l68.923,68.923c1.927,1.927,4.541,3.01,7.267,3.01h68.979c6.528,0,12.789-2.593,17.405-7.21
				l55.255-55.255l0,0L167.2,173.663z"/>
			<path id="XMLID_1338_" style="fill:#B3404A;" d="M158.179,309.768H89.2c-5.416,0-10.508-2.109-14.338-5.938L5.939,234.906
				C2.109,231.076,0,225.984,0,220.568c0-5.417,2.11-10.509,5.94-14.339l103.984-103.984l135.057,135.058l-62.325,62.327
				C176.118,306.167,167.426,309.768,158.179,309.768z M109.925,130.529l-89.843,89.844c-0.031,0.031-0.082,0.081-0.082,0.195
				s0.052,0.165,0.082,0.195l68.923,68.923c0.052,0.053,0.121,0.081,0.195,0.081h68.979c3.904,0,7.575-1.52,10.335-4.28
				l48.185-48.185L109.925,130.529z"/>
		</g>
		<g id="XMLID_1341_">
			<path id="XMLID_1342_" style="fill:#B3404A;" d="M230.84,251.445L95.782,116.388l91.719-91.719
				c3.829-3.829,8.921-5.938,14.338-5.938c5.416,0,10.508,2.108,14.338,5.938l106.382,106.382c3.83,3.83,5.939,8.922,5.939,14.338
				c0,5.417-2.11,10.509-5.94,14.339L230.84,251.445z M124.067,116.388L230.84,223.161l77.576-77.577
				c0.031-0.03,0.081-0.081,0.082-0.195c0-0.114-0.052-0.165-0.082-0.195L202.034,38.812c-0.03-0.03-0.081-0.081-0.195-0.081h-0.001
				c-0.113,0-0.163,0.05-0.193,0.08L124.067,116.388z"/>
		</g>
	</g>
	<g id="XMLID_1345_">
		<rect id="XMLID_1346_" x="88.934" y="289.758" style="fill:#B3404A;" width="148.906" height="20"/>
	</g>
	<g id="XMLID_1347_">
		<rect id="XMLID_1348_" x="256.249" y="289.758" style="fill:#B3404A;" width="32" height="20"/>
	</g>
</g>
<g>
</g>
<g>
</g>
<g>
</g>
<g>
</g>
<g>
</g>
<g>
</g>
<g>
</g>
<g>
</g>
<g>
</g>
<g>
</g>
<g>
</g>
<g>
</g>
<g>
</g>
<g>
</g>
<g>
</g>
</svg>
