<?xml version="1.0" encoding="iso-8859-1"?>
<!-- Generator: Adobe Illustrator 19.0.0, SVG Export Plug-In . SVG Version: 6.00 Build 0)  -->
<svg version="1.1" id="Layer_1" xmlns="http://www.w3.org/2000/svg" xmlns:xlink="http://www.w3.org/1999/xlink" x="0px" y="0px"
	 viewBox="0 0 349.741 349.741" style="enable-background:new 0 0 349.741 349.741;" xml:space="preserve">
<g id="XMLID_1813_">
	<g id="XMLID_1814_">
		<path id="XMLID_51_" style="fill:#F4B2B0;" d="M118.982,222.58l-24.478-56.764l-16.388,14.516
			c-9.671,8.567-21.032,14.075-32.879,16.631l51.028,117.805c3.87,8.897,14.219,12.972,23.116,9.103l20.603-8.961
			c8.897-3.87,12.972-14.219,9.103-23.117L134.8,258.947c2.773-0.798,5.42-2.188,7.724-4.228c8.273-7.328,9.039-19.975,1.711-28.247
			C137.743,219.142,127.084,217.718,118.982,222.58z"/>
		<path id="XMLID_1815_" style="fill:#B3404A;" d="M112.385,335.334c-0.001,0-0.001,0-0.002,0
			c-10.982-0.001-20.908-6.508-25.288-16.577l-55.877-129l11.91-2.569c10.521-2.27,20.327-7.229,28.358-14.342l26.73-23.677
			l26.282,60.949c1.57-0.253,3.165-0.381,4.768-0.381c8.582,0,16.766,3.683,22.454,10.103c10.972,12.388,9.821,31.393-2.565,42.364
			c-0.486,0.431-0.984,0.844-1.494,1.239l10.596,24.362c6.063,13.938-0.345,30.211-14.284,36.274l-20.604,8.961
			C119.874,334.563,116.177,335.334,112.385,335.334z M58.9,203.348l46.542,107.446c1.197,2.752,3.924,4.539,6.942,4.54l0,0
			c1.031,0,2.043-0.213,3.008-0.633l20.604-8.961c3.826-1.664,5.585-6.132,3.921-9.958l-18.832-43.295l10.949-3.151
			c1.458-0.419,2.757-1.127,3.86-2.104c4.13-3.659,4.514-9.999,0.854-14.132c-1.894-2.137-4.621-3.363-7.482-3.363
			c-1.817,0-3.594,0.49-5.139,1.417l-9.802,5.882l-23.534-54.574l-6.045,5.355C77.158,194.539,68.372,199.802,58.9,203.348z"/>
	</g>
	<g id="XMLID_1818_">
		<path id="XMLID_1819_" style="fill:#B3404A;" d="M269.503,245.864l-55.616-23.787c-12.874-5.506-36.588-8.796-52.077-8.796H83.146
			C37.299,213.281,0,175.982,0,130.136S37.299,46.99,83.146,46.99h78.665c15.489,0,39.203-3.29,52.078-8.796l55.615-23.787v231.457
			H269.503z M83.146,66.99C48.327,66.99,20,95.317,20,130.136s28.327,63.146,63.146,63.146h78.665
			c17.694,0,43.966,3.575,59.942,10.407l27.751,11.869V44.714l-27.75,11.869c-15.977,6.832-42.248,10.407-59.942,10.407H83.146z"/>
	</g>
	<g id="XMLID_1822_">
		<g id="XMLID_1823_">
			<rect id="XMLID_1824_" x="283.741" y="43.515" style="fill:#B3404A;" width="46" height="20"/>
		</g>
		<g id="XMLID_1825_">
			<rect id="XMLID_1826_" x="303.741" y="120.136" style="fill:#B3404A;" width="46" height="20"/>
		</g>
		<g id="XMLID_1827_">
			<rect id="XMLID_1828_" x="283.741" y="196.758" style="fill:#B3404A;" width="46" height="20"/>
		</g>
	</g>
	<g id="XMLID_1829_">
		<path id="XMLID_1830_" style="fill:#F4B2B0;" d="M129.741,56.99H83.146C42.916,56.99,10,89.906,10,130.136l0,0
			c0,40.23,32.915,73.145,73.145,73.145h46.595V56.99H129.741z"/>
		<path id="XMLID_1831_" style="fill:#B3404A;" d="M139.741,213.281H83.146C37.299,213.281,0,175.982,0,130.136
			S37.299,46.99,83.146,46.99h56.596v166.291H139.741z M83.146,66.99C48.327,66.99,20,95.317,20,130.136
			s28.327,63.146,63.146,63.146h36.596V66.99H83.146z"/>
	</g>
</g>
<g>
</g>
<g>
</g>
<g>
</g>
<g>
</g>
<g>
</g>
<g>
</g>
<g>
</g>
<g>
</g>
<g>
</g>
<g>
</g>
<g>
</g>
<g>
</g>
<g>
</g>
<g>
</g>
<g>
</g>
</svg>
