<?xml version="1.0" encoding="iso-8859-1"?>
<!-- Generator: Adobe Illustrator 19.0.0, SVG Export Plug-In . SVG Version: 6.00 Build 0)  -->
<svg version="1.1" id="Layer_1" xmlns="http://www.w3.org/2000/svg" xmlns:xlink="http://www.w3.org/1999/xlink" x="0px" y="0px"
	 viewBox="0 0 359.311 359.311" style="enable-background:new 0 0 359.311 359.311;" xml:space="preserve">
<g id="XMLID_1415_">
	<g id="XMLID_1416_">
		<path id="XMLID_1417_" style="fill:#B3404A;" d="M233.212,290.155h-77.551c-10.119,0-18.353-8.232-18.353-18.352v-24.297h20
			v22.648h74.255v-21h-55.127v-20h56.775c10.119,0,18.352,8.232,18.352,18.352v24.297
			C251.563,281.923,243.33,290.155,233.212,290.155z"/>
	</g>
	<g id="XMLID_1418_">
		<path id="XMLID_1419_" style="fill:#B3404A;" d="M304.647,359.311H84.226c-23.009,0-41.728-18.719-41.728-41.728V41.728
			C42.498,18.719,61.216,0,84.226,0h220.422c23.008,0,41.727,18.719,41.727,41.728v275.855
			C346.374,340.592,327.655,359.311,304.647,359.311z M84.226,20c-11.98,0-21.728,9.747-21.728,21.728v275.855
			c0,11.98,9.747,21.728,21.728,21.728h220.422c11.98,0,21.727-9.747,21.727-21.728V41.728c0-11.98-9.746-21.728-21.727-21.728
			H84.226z"/>
	</g>
	<g id="XMLID_1422_">
		<g id="XMLID_1423_">
			<rect id="XMLID_1424_" x="12.937" y="52.78" style="fill:#B3404A;" width="79.5" height="20"/>
		</g>
		<g id="XMLID_1425_">
			<rect id="XMLID_1426_" x="12.937" y="111.218" style="fill:#B3404A;" width="79.5" height="20"/>
		</g>
		<g id="XMLID_1427_">
			<rect id="XMLID_1428_" x="12.937" y="169.655" style="fill:#B3404A;" width="79.5" height="20"/>
		</g>
		<g id="XMLID_1429_">
			<rect id="XMLID_1430_" x="12.937" y="228.093" style="fill:#B3404A;" width="79.5" height="20"/>
		</g>
		<g id="XMLID_1431_">
			<rect id="XMLID_1432_" x="12.937" y="286.53" style="fill:#B3404A;" width="79.5" height="20"/>
		</g>
	</g>
	<g id="XMLID_1433_">
		<path id="XMLID_35_" style="fill:#F4B2B0;" d="M254.11,159.655H134.76c-5.979,0-10.825-4.847-10.825-10.825V97.98
			c0-5.979,4.847-10.825,10.825-10.825h119.35c5.979,0,10.825,4.847,10.825,10.825v50.85
			C264.936,154.809,260.09,159.655,254.11,159.655z"/>
		<path id="XMLID_1434_" style="fill:#B3404A;" d="M254.11,169.655H134.76c-11.483,0-20.825-9.342-20.825-20.825V97.98
			c0-11.483,9.342-20.825,20.825-20.825h119.35c11.483,0,20.825,9.342,20.825,20.825v50.85
			C274.937,160.313,265.595,169.655,254.11,169.655z M134.761,97.155c-0.455,0-0.825,0.37-0.825,0.825v50.85
			c0,0.455,0.37,0.825,0.825,0.825h119.35c0.455,0,0.825-0.37,0.825-0.825V97.98c0-0.455-0.37-0.825-0.825-0.825
			C254.111,97.155,134.761,97.155,134.761,97.155z"/>
	</g>
</g>
<g>
</g>
<g>
</g>
<g>
</g>
<g>
</g>
<g>
</g>
<g>
</g>
<g>
</g>
<g>
</g>
<g>
</g>
<g>
</g>
<g>
</g>
<g>
</g>
<g>
</g>
<g>
</g>
<g>
</g>
</svg>
