<?xml version="1.0" encoding="iso-8859-1"?>
<!-- Generator: Adobe Illustrator 19.0.0, SVG Export Plug-In . SVG Version: 6.00 Build 0)  -->
<svg version="1.1" id="Layer_1" xmlns="http://www.w3.org/2000/svg" xmlns:xlink="http://www.w3.org/1999/xlink" x="0px" y="0px"
	 viewBox="0 0 369 369" style="enable-background:new 0 0 369 369;" xml:space="preserve">
<g id="XMLID_1981_">
	<g id="XMLID_1982_">
		<path id="XMLID_70_" style="fill:#F4B2B0;" d="M249.524,183H119.476c-9.1,0-16.476-7.377-16.476-16.476v-56.918
			c0-9.1,7.377-16.476,16.476-16.476h130.048c9.1,0,16.476,7.377,16.476,16.476v56.918C266,175.623,258.623,183,249.524,183z"/>
		<path id="XMLID_1983_" style="fill:#B3404A;" d="M249.523,193H119.476C104.877,193,93,181.123,93,166.523v-56.918
			c0-14.599,11.877-26.476,26.476-26.476h130.047c14.6,0,26.477,11.877,26.477,26.476v56.918C276,181.123,264.123,193,249.523,193z
			 M119.476,103.13c-3.571,0-6.476,2.905-6.476,6.476v56.918c0,3.571,2.905,6.477,6.476,6.477h130.047
			c3.571,0,6.477-2.905,6.477-6.477v-56.918c0-3.57-2.905-6.476-6.477-6.476C249.523,103.13,119.476,103.13,119.476,103.13z"/>
	</g>
	<g id="XMLID_1986_">
		<g id="XMLID_1987_">
			<path id="XMLID_1988_" style="fill:#B3404A;" d="M284.313,330.699H84.687c-17.902,0-32.466-14.564-32.466-32.466V63.268
				c0-17.901,14.564-32.466,32.466-32.466h199.626c17.901,0,32.466,14.564,32.466,32.466v234.966
				C316.779,316.135,302.215,330.699,284.313,330.699z M84.687,50.802c-6.874,0-12.466,5.592-12.466,12.466v234.966
				c0,6.874,5.592,12.466,12.466,12.466h199.626c6.874,0,12.466-5.592,12.466-12.466V63.268c0-6.874-5.592-12.466-12.466-12.466
				C284.313,50.802,84.687,50.802,84.687,50.802z"/>
		</g>
	</g>
	<g id="XMLID_1991_">
		<g id="XMLID_1992_">
			<path id="XMLID_60_" style="fill:#F4B2B0;" d="M118.5,359h-14c-9.389,0-17-7.611-17-17v-21.301h48V342
				C135.5,351.388,127.889,359,118.5,359z"/>
			<path id="XMLID_1993_" style="fill:#B3404A;" d="M118.5,369h-14c-14.888,0-27-12.112-27-27v-31.301h68V342
				C145.5,356.888,133.388,369,118.5,369z M97.5,330.699V342c0,3.859,3.14,7,7,7h14c3.86,0,7-3.141,7-7v-11.301H97.5z"/>
		</g>
		<g id="XMLID_1996_">
			<path id="XMLID_55_" style="fill:#F4B2B0;" d="M264.5,359h-14c-9.389,0-17-7.611-17-17v-21.301h48V342
				C281.5,351.388,273.889,359,264.5,359z"/>
			<path id="XMLID_1997_" style="fill:#B3404A;" d="M264.5,369h-14c-14.888,0-27-12.112-27-27v-31.301h68V342
				C291.5,356.888,279.388,369,264.5,369z M243.5,330.699V342c0,3.859,3.141,7,7,7h14c3.859,0,7-3.141,7-7v-11.301H243.5z"/>
		</g>
	</g>
	<g id="XMLID_2000_">
		<g id="XMLID_2001_">
			<path id="XMLID_2002_" style="fill:#B3404A;" d="M124.532,283.198c-15.071,0-27.333-12.262-27.333-27.333
				c0-15.072,12.262-27.334,27.333-27.334c15.072,0,27.333,12.262,27.333,27.334C151.866,270.937,139.604,283.198,124.532,283.198z
				 M124.532,248.531c-4.043,0-7.333,3.29-7.333,7.334c0,4.043,3.29,7.333,7.333,7.333c4.044,0,7.333-3.29,7.333-7.333
				C131.866,251.821,128.576,248.531,124.532,248.531z"/>
		</g>
		<g id="XMLID_2005_">
			<path id="XMLID_2006_" style="fill:#B3404A;" d="M244.468,283.198c-15.072,0-27.334-12.262-27.334-27.333
				c0-15.072,12.262-27.334,27.334-27.334c15.071,0,27.333,12.262,27.333,27.334C271.801,270.937,259.539,283.198,244.468,283.198z
				 M244.468,248.531c-4.044,0-7.334,3.29-7.334,7.334c0,4.043,3.29,7.333,7.334,7.333c4.043,0,7.333-3.29,7.333-7.333
				C251.801,251.821,248.511,248.531,244.468,248.531z"/>
		</g>
	</g>
	<g id="XMLID_2009_">
		<path id="XMLID_40_" style="fill:#F4B2B0;" d="M244.667,40.802H124.333V24c0-7.732,6.268-14,14-14h92.333c7.732,0,14,6.268,14,14
			L244.667,40.802L244.667,40.802z"/>
		<path id="XMLID_2010_" style="fill:#B3404A;" d="M254.667,50.802H114.333V24c0-13.233,10.767-24,24-24h92.333
			c13.233,0,24,10.767,24,24L254.667,50.802L254.667,50.802z M134.333,30.802h100.333V24c0-2.206-1.794-4-4-4h-92.333
			c-2.206,0-4,1.794-4,4L134.333,30.802L134.333,30.802z"/>
	</g>
	<g id="XMLID_2013_">
		<g id="XMLID_2014_">
			<path id="XMLID_2015_" style="fill:#B3404A;" d="M358.5,146h-20v-21c0-3.859-3.141-7-7-7h-24.721V98H331.5
				c14.888,0,27,12.112,27,27V146z"/>
		</g>
		<g id="XMLID_2016_">
			<path id="XMLID_2017_" style="fill:#B3404A;" d="M30.5,146h-20v-21c0-14.888,12.112-27,27-27h24.721v20H37.5c-3.86,0-7,3.141-7,7
				V146z"/>
		</g>
	</g>
</g>
<g>
</g>
<g>
</g>
<g>
</g>
<g>
</g>
<g>
</g>
<g>
</g>
<g>
</g>
<g>
</g>
<g>
</g>
<g>
</g>
<g>
</g>
<g>
</g>
<g>
</g>
<g>
</g>
<g>
</g>
</svg>
