<?xml version="1.0" encoding="iso-8859-1"?>
<!-- Generator: Adobe Illustrator 19.0.0, SVG Export Plug-In . SVG Version: 6.00 Build 0)  -->
<svg version="1.1" id="Layer_1" xmlns="http://www.w3.org/2000/svg" xmlns:xlink="http://www.w3.org/1999/xlink" x="0px" y="0px"
	 viewBox="0 0 375.356 375.356" style="enable-background:new 0 0 375.356 375.356;" xml:space="preserve">
<g id="XMLID_2080_">
	<g id="XMLID_2081_">
		<path id="XMLID_2082_" style="fill:#B3404A;" d="M350.554,169.16H24.802c-10.955,0-20.203-6.738-23.56-17.167
			c-3.356-10.428,0.225-21.294,9.122-27.684L173.24,7.325c4.233-3.041,9.226-4.648,14.438-4.648s10.205,1.607,14.438,4.648
			L364.993,124.31c8.896,6.39,12.478,17.256,9.121,27.684C370.758,162.422,361.509,169.16,350.554,169.16z M187.678,22.677
			c-0.697,0-1.744,0.155-2.771,0.893L22.032,140.554c-2.446,1.756-2.146,4.082-1.751,5.312c0.396,1.23,1.51,3.295,4.521,3.295
			h325.752c3.012,0,4.125-2.064,4.521-3.295c0.396-1.229,0.695-3.556-1.75-5.312L190.449,23.57
			C189.423,22.832,188.376,22.677,187.678,22.677z"/>
	</g>
	<g id="XMLID_2085_">
		<g id="XMLID_2086_">
			<rect id="XMLID_50_" x="42.678" y="160.678" style="fill:#F4B2B0;" width="60" height="151"/>
			<path id="XMLID_2087_" style="fill:#B3404A;" d="M112.678,321.678h-80v-171h80V321.678z M52.678,301.678h40v-131h-40
				C52.678,170.678,52.678,301.678,52.678,301.678z"/>
		</g>
		<g id="XMLID_2090_">
			<rect id="XMLID_45_" x="157.678" y="160.678" style="fill:#F4B2B0;" width="60" height="151"/>
			<path id="XMLID_2091_" style="fill:#B3404A;" d="M227.678,321.678h-80v-171h80V321.678z M167.678,301.678h40v-131h-40V301.678z"
				/>
		</g>
		<g id="XMLID_2094_">
			<rect id="XMLID_40_" x="272.678" y="160.678" style="fill:#F4B2B0;" width="60" height="151"/>
			<path id="XMLID_2095_" style="fill:#B3404A;" d="M342.678,321.678h-80v-171h80V321.678z M282.678,301.678h40v-131h-40V301.678z"
				/>
		</g>
	</g>
	<g id="XMLID_2098_">
		<path id="XMLID_2099_" style="fill:#B3404A;" d="M350.431,372.678H24.926c-11.761,0-21.329-9.568-21.329-21.329v-27.343
			c0-11.761,9.568-21.328,21.329-21.328h325.505c11.761,0,21.329,9.567,21.329,21.328v27.343
			C371.76,363.11,362.192,372.678,350.431,372.678z M24.926,322.678c-0.732,0-1.329,0.596-1.329,1.328v27.343
			c0,0.732,0.597,1.329,1.329,1.329h325.505c0.732,0,1.329-0.597,1.329-1.329v-27.343c0-0.732-0.597-1.328-1.329-1.328H24.926z"/>
	</g>
</g>
<g>
</g>
<g>
</g>
<g>
</g>
<g>
</g>
<g>
</g>
<g>
</g>
<g>
</g>
<g>
</g>
<g>
</g>
<g>
</g>
<g>
</g>
<g>
</g>
<g>
</g>
<g>
</g>
<g>
</g>
</svg>
