<?xml version="1.0" encoding="iso-8859-1"?>
<!-- Generator: Adobe Illustrator 19.0.0, SVG Export Plug-In . SVG Version: 6.00 Build 0)  -->
<svg version="1.1" id="Layer_1" xmlns="http://www.w3.org/2000/svg" xmlns:xlink="http://www.w3.org/1999/xlink" x="0px" y="0px"
	 viewBox="0 0 352.655 352.655" style="enable-background:new 0 0 352.655 352.655;" xml:space="preserve">
<g id="XMLID_934_">
	<g id="XMLID_935_">
		<path id="XMLID_936_" style="fill:#B3404A;" d="M305.05,352.655H47.607c-22.761,0-41.279-18.518-41.279-41.279V41.279
			C6.329,18.518,24.846,0,47.607,0h257.442c22.761,0,41.279,18.518,41.279,41.279v270.098
			C346.329,334.138,327.811,352.655,305.05,352.655z M47.607,20c-11.733,0-21.279,9.545-21.279,21.279v270.098
			c0,11.733,9.545,21.279,21.279,21.279h257.442c11.733,0,21.279-9.545,21.279-21.279V41.279c0-11.733-9.545-21.279-21.279-21.279
			H47.607z"/>
	</g>
	<g id="XMLID_939_">
		<g id="XMLID_940_">
			<path id="XMLID_941_" style="fill:#F4B2B0;" d="M200.863,112.054v11.971c0,6.514,5.281,11.795,11.795,11.795h70.767
				c6.514,0,11.795-5.281,11.795-11.795v-11.971c0-6.514-5.281-11.795-11.795-11.795h-70.767
				C206.143,100.26,200.863,105.54,200.863,112.054z"/>
			<path id="XMLID_942_" style="fill:#B3404A;" d="M283.424,145.82h-70.767c-12.018,0-21.794-9.777-21.794-21.795v-11.971
				c0-12.018,9.777-21.794,21.794-21.794h70.767c12.018,0,21.795,9.777,21.795,21.794v11.971
				C305.219,136.042,295.442,145.82,283.424,145.82z M212.657,110.26c-0.989,0-1.794,0.805-1.794,1.794v11.971
				c0,0.99,0.805,1.795,1.794,1.795h70.767c0.99,0,1.795-0.805,1.795-1.795v-11.971c0-0.989-0.805-1.794-1.795-1.794H212.657z"/>
		</g>
		<g id="XMLID_945_">
			<path id="XMLID_946_" style="fill:#F4B2B0;" d="M140,100.26h-17.604V82.656c0-6.514-5.281-11.795-11.795-11.795h-11.97
				c-6.514,0-11.795,5.281-11.795,11.795v17.604H69.233c-6.514,0-11.795,5.281-11.795,11.795v11.971
				c0,6.514,5.281,11.795,11.795,11.795h17.604v17.604c0,6.514,5.281,11.795,11.795,11.795h11.971
				c6.514,0,11.795-5.281,11.795-11.795V135.82h17.604c6.514,0,11.795-5.281,11.795-11.795v-11.971
				C151.795,105.54,146.514,100.26,140,100.26z"/>
			<path id="XMLID_947_" style="fill:#B3404A;" d="M110.602,175.218H98.631c-12.018,0-21.794-9.777-21.794-21.794v-7.604h-7.604
				c-12.018,0-21.795-9.777-21.795-21.795v-11.971c0-12.018,9.777-21.794,21.795-21.794h7.604v-7.604
				c0-12.018,9.777-21.795,21.794-21.795h11.971c12.018,0,21.795,9.777,21.795,21.795v7.604h7.604
				c12.018,0,21.794,9.777,21.794,21.794v11.971c0,12.018-9.777,21.795-21.794,21.795h-7.604v7.604
				C132.397,165.441,122.619,175.218,110.602,175.218z M69.233,110.26c-0.99,0-1.795,0.805-1.795,1.794v11.971
				c0,0.99,0.805,1.795,1.795,1.795h27.604v27.604c0,0.989,0.805,1.794,1.794,1.794h11.971c0.99,0,1.795-0.805,1.795-1.794V125.82
				h27.604c0.989,0,1.794-0.805,1.794-1.795v-11.971c0-0.989-0.805-1.794-1.794-1.794h-27.604V82.656
				c0-0.99-0.805-1.795-1.795-1.795H98.631c-0.989,0-1.794,0.805-1.794,1.795v27.604C96.837,110.26,69.233,110.26,69.233,110.26z"/>
		</g>
		<g id="XMLID_950_">
			<path id="XMLID_41_" style="fill:#F4B2B0;" d="M285.633,253.194l-12.448-12.448l12.448-12.448c4.606-4.606,4.606-12.074,0-16.68
				l-8.465-8.465c-4.606-4.606-12.074-4.606-16.68,0l-12.448,12.448l-12.448-12.448c-4.606-4.606-12.074-4.606-16.68,0l-8.465,8.465
				c-4.606,4.606-4.606,12.074,0,16.68l12.448,12.448l-12.448,12.448c-4.606,4.606-4.606,12.074,0,16.68l8.465,8.465
				c4.606,4.606,12.074,4.606,16.68,0l12.448-12.448l12.448,12.448c4.606,4.606,12.074,4.606,16.68,0l8.465-8.465
				C290.239,265.268,290.239,257.801,285.633,253.194z"/>
			<path id="XMLID_951_" style="fill:#B3404A;" d="M268.829,291.794c-5.821,0-11.294-2.267-15.411-6.383l-5.377-5.377l-5.376,5.377
				c-4.117,4.116-9.59,6.383-15.412,6.383c-5.821,0-11.294-2.267-15.411-6.383l-8.464-8.465c-4.116-4.116-6.384-9.589-6.384-15.411
				s2.268-11.295,6.384-15.412l5.376-5.376l-5.376-5.377c-4.116-4.116-6.384-9.589-6.384-15.411c0-5.822,2.268-11.295,6.384-15.411
				l8.464-8.464c4.117-4.117,9.59-6.384,15.411-6.384c5.822,0,11.295,2.267,15.412,6.383l5.376,5.377l5.376-5.377
				c4.117-4.116,9.59-6.383,15.411-6.383s11.294,2.267,15.411,6.383l8.465,8.465c8.498,8.498,8.498,22.325,0,30.823l-5.377,5.376
				l5.376,5.376c8.498,8.499,8.498,22.325,0,30.822l-8.465,8.465C280.123,289.527,274.65,291.794,268.829,291.794z M248.041,251.75
				l19.519,19.519c0.434,0.435,0.93,0.526,1.269,0.526s0.834-0.091,1.269-0.526l8.464-8.465c0.7-0.699,0.7-1.838,0-2.538
				l-19.519-19.518l19.519-19.519c0.7-0.7,0.7-1.838,0-2.538l-8.465-8.465c-0.434-0.435-0.93-0.526-1.269-0.526
				s-0.834,0.091-1.269,0.526l-19.519,19.519l-19.519-19.519c-0.434-0.435-0.93-0.526-1.269-0.526s-0.834,0.091-1.269,0.525
				l-8.464,8.465c-0.435,0.435-0.526,0.93-0.526,1.269s0.091,0.834,0.526,1.269l19.519,19.519l-19.518,19.519
				c-0.435,0.435-0.526,0.93-0.526,1.269c0,0.339,0.091,0.834,0.526,1.269l8.465,8.465c0.434,0.434,0.93,0.525,1.269,0.525
				s0.835-0.091,1.27-0.526L248.041,251.75z"/>
		</g>
		<g id="XMLID_954_">
			<g id="XMLID_955_">
				<rect id="XMLID_956_" x="61.616" y="213.985" style="fill:#B3404A;" width="86" height="20"/>
			</g>
			<g id="XMLID_957_">
				<rect id="XMLID_958_" x="61.616" y="247.508" style="fill:#B3404A;" width="86" height="20"/>
			</g>
		</g>
	</g>
</g>
<g>
</g>
<g>
</g>
<g>
</g>
<g>
</g>
<g>
</g>
<g>
</g>
<g>
</g>
<g>
</g>
<g>
</g>
<g>
</g>
<g>
</g>
<g>
</g>
<g>
</g>
<g>
</g>
<g>
</g>
</svg>
