<?xml version="1.0" encoding="iso-8859-1"?>
<!-- Generator: Adobe Illustrator 19.0.0, SVG Export Plug-In . SVG Version: 6.00 Build 0)  -->
<svg version="1.1" id="Layer_1" xmlns="http://www.w3.org/2000/svg" xmlns:xlink="http://www.w3.org/1999/xlink" x="0px" y="0px"
	 viewBox="0 0 372.879 372.879" style="enable-background:new 0 0 372.879 372.879;" xml:space="preserve">
<g id="XMLID_838_">
	<g id="XMLID_839_">
		<path id="XMLID_840_" style="fill:#B3404A;" d="M47.877,323.317c-8.352,0-15.688-5.625-17.839-13.678l-5.928-22.189h-5.68
			C8.268,287.451,0,279.184,0,269.021v-141.03c0-10.162,8.268-18.43,18.43-18.43h193.658c10.162,0,18.43,8.268,18.43,18.43v141.029
			c0,10.162-8.268,18.43-18.43,18.43H91.384l-30.519,30.474C57.383,321.402,52.77,323.317,47.877,323.317z M20,267.451h19.468
			l9.19,34.399l34.45-34.399h127.409V129.562H20V267.451z"/>
	</g>
	<g id="XMLID_843_">
		<path id="XMLID_35_" style="fill:#F4B2B0;" d="M354.449,59.562H160.791c-4.656,0-8.43,3.774-8.43,8.43V209.02
			c0,4.656,3.774,8.43,8.43,8.43h124.842l33.447,33.398c4.592,4.585,12.425,2.48,14.1-3.789l7.91-29.609h13.359
			c4.656,0,8.43-3.774,8.43-8.43V67.991C362.879,63.336,359.105,59.562,354.449,59.562z"/>
		<path id="XMLID_844_" style="fill:#B3404A;" d="M325.002,263.317c-4.893,0-9.506-1.915-12.988-5.394l-30.519-30.474H160.791
			c-10.162,0-18.43-8.268-18.43-18.43V67.991c0-10.162,8.268-18.43,18.43-18.43h193.658c10.162,0,18.43,8.268,18.43,18.43V209.02
			c0,10.162-8.268,18.43-18.43,18.43h-5.681l-5.928,22.189C340.689,257.692,333.354,263.317,325.002,263.317z M162.361,207.45
			H289.77l34.45,34.399l9.19-34.399h19.468V69.562H162.361V207.45z"/>
	</g>
</g>
<g>
</g>
<g>
</g>
<g>
</g>
<g>
</g>
<g>
</g>
<g>
</g>
<g>
</g>
<g>
</g>
<g>
</g>
<g>
</g>
<g>
</g>
<g>
</g>
<g>
</g>
<g>
</g>
<g>
</g>
</svg>
