<?xml version="1.0" encoding="iso-8859-1"?>
<!-- Generator: Adobe Illustrator 19.0.0, SVG Export Plug-In . SVG Version: 6.00 Build 0)  -->
<svg version="1.1" id="Layer_1" xmlns="http://www.w3.org/2000/svg" xmlns:xlink="http://www.w3.org/1999/xlink" x="0px" y="0px"
	 viewBox="0 0 380.809 380.809" style="enable-background:new 0 0 380.809 380.809;" xml:space="preserve">
<g id="XMLID_1834_">
	<g id="XMLID_1835_">
		<path id="XMLID_1836_" style="fill:#B3404A;" d="M254.339,380.809h-127.87V41.246C126.469,18.503,144.972,0,167.715,0h45.378
			c22.743,0,41.246,18.503,41.246,41.246L254.339,380.809L254.339,380.809z M146.469,360.809h87.87V41.246
			c0-11.715-9.531-21.246-21.246-21.246h-45.378c-11.715,0-21.246,9.531-21.246,21.246V360.809z"/>
	</g>
	<g id="XMLID_1839_">
		<path id="XMLID_70_" style="fill:#F4B2B0;" d="M200.877,152.371h-20.945c-5.089,0-9.214-4.125-9.214-9.214V80.682
			c0-5.089,4.125-9.214,9.214-9.214h20.945c5.089,0,9.214,4.125,9.214,9.214v62.475
			C210.091,148.246,205.965,152.371,200.877,152.371z"/>
		<path id="XMLID_1840_" style="fill:#B3404A;" d="M200.876,162.371h-20.944c-10.595,0-19.214-8.619-19.214-19.214V80.683
			c0-10.595,8.62-19.215,19.214-19.215h20.944c10.595,0,19.214,8.62,19.214,19.215v62.475
			C220.091,153.752,211.471,162.371,200.876,162.371z M180.718,142.371h19.373V81.468h-19.373V142.371z"/>
	</g>
	<g id="XMLID_1843_">
		<circle id="XMLID_1844_" style="fill:#F4B2B0;" cx="190.404" cy="301.771" r="19.057"/>
		<path id="XMLID_1845_" style="fill:#B3404A;" d="M190.404,330.828c-16.022,0-29.057-13.035-29.057-29.057
			s13.035-29.058,29.057-29.058s29.057,13.035,29.057,29.058C219.461,317.793,206.426,330.828,190.404,330.828z M190.404,292.714
			c-4.994,0-9.057,4.063-9.057,9.058s4.063,9.057,9.057,9.057s9.057-4.063,9.057-9.057S195.398,292.714,190.404,292.714z"/>
	</g>
	<g id="XMLID_1848_">
		<g id="XMLID_1849_">
			<path id="XMLID_1850_" style="fill:#B3404A;" d="M362.21,380.809H234.34v-257.59c0-22.743,18.503-41.246,41.246-41.246h45.378
				c22.743,0,41.246,18.503,41.246,41.246V380.809z M254.339,360.809h87.87v-237.59c0-11.715-9.531-21.246-21.246-21.246h-45.378
				c-11.715,0-21.246,9.531-21.246,21.246L254.339,360.809L254.339,360.809z"/>
		</g>
		<g id="XMLID_1853_">
			<path id="XMLID_56_" style="fill:#F4B2B0;" d="M308.747,212.769h-20.945c-5.089,0-9.214-4.125-9.214-9.214v-40.901
				c0-5.089,4.125-9.214,9.214-9.214h20.945c5.089,0,9.214,4.125,9.214,9.214v40.901
				C317.961,208.644,313.836,212.769,308.747,212.769z"/>
			<path id="XMLID_1854_" style="fill:#B3404A;" d="M308.747,222.77h-20.945c-10.595,0-19.214-8.619-19.214-19.214v-40.901
				c0-10.595,8.619-19.214,19.214-19.214h20.945c10.595,0,19.214,8.619,19.214,19.214v40.901
				C327.961,214.15,319.342,222.77,308.747,222.77z M288.589,202.77h19.373v-39.33h-19.373V202.77z"/>
		</g>
		<g id="XMLID_1857_">
			<circle id="XMLID_1858_" style="fill:#F4B2B0;" cx="298.275" cy="301.771" r="19.057"/>
			<path id="XMLID_1859_" style="fill:#B3404A;" d="M298.274,330.828c-16.022,0-29.057-13.035-29.057-29.057
				s13.035-29.058,29.057-29.058s29.057,13.035,29.057,29.058C327.332,317.793,314.296,330.828,298.274,330.828z M298.274,292.714
				c-4.994,0-9.057,4.063-9.057,9.058s4.063,9.057,9.057,9.057s9.057-4.063,9.057-9.057S303.27,292.714,298.274,292.714z"/>
		</g>
	</g>
	<g id="XMLID_1862_">
		<g id="XMLID_1863_">
			<path id="XMLID_1864_" style="fill:#B3404A;" d="M146.469,380.809H18.599V104.342c0-22.743,18.503-41.246,41.246-41.246h45.378
				c22.743,0,41.246,18.503,41.246,41.246V380.809z M38.599,360.809h87.87V104.342c0-11.715-9.531-21.246-21.246-21.246H59.845
				c-11.715,0-21.246,9.531-21.246,21.246V360.809z"/>
		</g>
		<g id="XMLID_1867_">
			<path id="XMLID_41_" style="fill:#F4B2B0;" d="M93.006,193.892H72.062c-5.089,0-9.214-4.125-9.214-9.214v-40.901
				c0-5.089,4.125-9.214,9.214-9.214h20.945c5.089,0,9.214,4.125,9.214,9.214v40.901C102.22,189.767,98.095,193.892,93.006,193.892z
				"/>
			<path id="XMLID_1868_" style="fill:#B3404A;" d="M93.006,203.892H72.062c-10.595,0-19.214-8.619-19.214-19.214v-40.9
				c0-10.595,8.619-19.214,19.214-19.214h20.945c10.595,0,19.214,8.619,19.214,19.214v40.9
				C112.22,195.272,103.601,203.892,93.006,203.892z M72.848,183.892H92.22v-39.328H72.848V183.892z"/>
		</g>
		<g id="XMLID_1871_">
			<circle id="XMLID_1872_" style="fill:#F4B2B0;" cx="82.534" cy="301.771" r="19.057"/>
			<path id="XMLID_1873_" style="fill:#B3404A;" d="M82.534,330.828c-16.022,0-29.057-13.035-29.057-29.057
				s13.035-29.058,29.057-29.058s29.057,13.035,29.057,29.058C111.591,317.793,98.556,330.828,82.534,330.828z M82.534,292.714
				c-4.994,0-9.057,4.063-9.057,9.058s4.063,9.057,9.057,9.057s9.057-4.063,9.057-9.057S87.528,292.714,82.534,292.714z"/>
		</g>
	</g>
</g>
<g>
</g>
<g>
</g>
<g>
</g>
<g>
</g>
<g>
</g>
<g>
</g>
<g>
</g>
<g>
</g>
<g>
</g>
<g>
</g>
<g>
</g>
<g>
</g>
<g>
</g>
<g>
</g>
<g>
</g>
</svg>
