<?xml version="1.0" encoding="iso-8859-1"?>
<!-- Generator: Adobe Illustrator 19.0.0, SVG Export Plug-In . SVG Version: 6.00 Build 0)  -->
<svg version="1.1" id="Layer_1" xmlns="http://www.w3.org/2000/svg" xmlns:xlink="http://www.w3.org/1999/xlink" x="0px" y="0px"
	 viewBox="0 0 366.366 366.366" style="enable-background:new 0 0 366.366 366.366;" xml:space="preserve">
<g id="XMLID_911_">
	<g id="XMLID_912_">
		<g id="XMLID_913_">
			<circle id="XMLID_914_" style="fill:#F4B2B0;" cx="98.516" cy="237.004" r="69.524"/>
			<path id="XMLID_915_" style="fill:#B3404A;" d="M98.516,316.528c-43.85,0-79.524-35.674-79.524-79.524
				s35.674-79.523,79.524-79.523s79.523,35.674,79.523,79.523S142.366,316.528,98.516,316.528z M98.516,177.481
				c-32.822,0-59.524,26.702-59.524,59.523c0,32.822,26.702,59.524,59.524,59.524c32.821,0,59.523-26.702,59.523-59.524
				C158.04,204.183,131.338,177.481,98.516,177.481z"/>
		</g>
		<g id="XMLID_918_">
			<path id="XMLID_919_" style="fill:#B3404A;" d="M75.992,237.004h-20c0-23.448,19.076-42.523,42.524-42.523v20
				C86.096,214.481,75.992,224.585,75.992,237.004z"/>
		</g>
		<g id="XMLID_920_">
			<circle id="XMLID_921_" style="fill:#F4B2B0;" cx="267.849" cy="237.004" r="69.524"/>
			<path id="XMLID_922_" style="fill:#B3404A;" d="M267.849,316.528c-43.85,0-79.523-35.674-79.523-79.524
				s35.674-79.523,79.523-79.523s79.524,35.674,79.524,79.523S311.699,316.528,267.849,316.528z M267.849,177.481
				c-32.821,0-59.523,26.702-59.523,59.523c0,32.822,26.702,59.524,59.523,59.524c32.822,0,59.524-26.702,59.524-59.524
				C327.373,204.183,300.671,177.481,267.849,177.481z"/>
		</g>
		<g id="XMLID_925_">
			<path id="XMLID_926_" style="fill:#B3404A;" d="M245.326,237.004h-20c0-23.448,19.076-42.523,42.523-42.523v20
				C255.43,214.481,245.326,224.585,245.326,237.004z"/>
		</g>
	</g>
	<g id="XMLID_927_">
		<rect id="XMLID_928_" x="164.273" y="227.004" style="fill:#B3404A;" width="37.82" height="20"/>
	</g>
	<g id="XMLID_929_">
		<g id="XMLID_930_">
			<path id="XMLID_931_" style="fill:#B3404A;" d="M36.973,249.838H21.212c-6.435,0-12.446-2.87-16.492-7.875
				c-4.045-5.005-5.592-11.484-4.244-17.776l27.03-126.139c2.584-16.881,16.209-48.21,49.844-48.21c27.57,0,50,22.43,50,50h-20
				c0-16.542-13.458-30-30-30c-24.983,0-29.913,30.195-30.11,31.48l-0.112,0.615L20.032,228.378
				c-0.08,0.374,0.001,0.714,0.242,1.011c0.24,0.297,0.556,0.448,0.938,0.448h15.762L36.973,249.838L36.973,249.838z"/>
		</g>
		<g id="XMLID_932_">
			<path id="XMLID_933_" style="fill:#B3404A;" d="M345.154,249.838h-15.762v-20h15.762c0.382,0,0.698-0.151,0.938-0.448
				s0.322-0.637,0.242-1.011l-27.165-126.77l-0.048-0.328c-0.192-1.248-5.121-31.443-30.104-31.443c-16.542,0-30,13.458-30,30h-20
				c0-27.57,22.43-50,50-50c33.634,0,47.259,31.33,49.844,48.21l27.029,126.14c1.349,6.292-0.198,12.771-4.244,17.775
				C357.6,246.967,351.589,249.838,345.154,249.838z"/>
		</g>
	</g>
</g>
<g>
</g>
<g>
</g>
<g>
</g>
<g>
</g>
<g>
</g>
<g>
</g>
<g>
</g>
<g>
</g>
<g>
</g>
<g>
</g>
<g>
</g>
<g>
</g>
<g>
</g>
<g>
</g>
<g>
</g>
</svg>
