<?xml version="1.0" encoding="iso-8859-1"?>
<!-- Generator: Adobe Illustrator 19.0.0, SVG Export Plug-In . SVG Version: 6.00 Build 0)  -->
<svg version="1.1" id="Layer_1" xmlns="http://www.w3.org/2000/svg" xmlns:xlink="http://www.w3.org/1999/xlink" x="0px" y="0px"
	 viewBox="0 0 368.059 368.059" style="enable-background:new 0 0 368.059 368.059;" xml:space="preserve">
<g id="XMLID_227_">
	<g id="XMLID_228_">
		<rect id="XMLID_229_" x="14.029" y="119.459" style="fill:#B3404A;" width="20" height="155"/>
	</g>
	<g id="XMLID_230_">
		<path id="XMLID_231_" style="fill:#B3404A;" d="M184.029,347.287c-6.813,0-13.457-1.329-19.746-3.949l-78.659-32.774
			c-19.193-7.997-31.595-26.6-31.595-47.392V95.732h260v167.439c0,20.792-12.401,39.395-31.595,47.392l-78.659,32.774
			C197.486,345.958,190.843,347.287,184.029,347.287z M74.029,115.732v147.439c0,12.692,7.57,24.048,19.286,28.93l78.659,32.774
			c3.84,1.6,7.896,2.411,12.055,2.411s8.215-0.811,12.055-2.411l78.659-32.774c11.716-4.881,19.286-16.237,19.286-28.93V115.732
			H74.029z"/>
	</g>
	<g id="XMLID_235_">
		<path id="XMLID_236_" style="fill:#F4B2B0;" d="M178.912,31.883L16.837,108.655c-9.116,4.318-9.116,17.289,0,21.607
			l162.075,76.772c3.239,1.534,6.996,1.534,10.235,0l162.075-76.772c9.116-4.318,9.116-17.289,0-21.607L189.147,31.883
			C185.908,30.349,182.151,30.349,178.912,31.883z"/>
		<path id="XMLID_237_" style="fill:#B3404A;" d="M184.029,218.185c-3.229,0-6.479-0.73-9.397-2.113L12.556,139.3
			C4.811,135.631,0,128.029,0,119.459s4.811-16.172,12.556-19.841l162.075-76.772c5.84-2.765,12.958-2.765,18.796,0l162.076,76.772
			c7.745,3.669,12.556,11.271,12.556,19.841s-4.811,16.172-12.556,19.841l-162.075,76.772
			C190.508,217.455,187.259,218.185,184.029,218.185z M184.029,40.732c-0.292,0-0.573,0.063-0.837,0.188L21.118,117.693
			c-0.742,0.351-1.118,0.945-1.118,1.766s0.376,1.415,1.118,1.767l162.075,76.772c0.525,0.25,1.146,0.25,1.673,0l162.074-76.772
			c0.742-0.351,1.118-0.945,1.118-1.766s-0.376-1.415-1.118-1.767L184.865,40.92C184.603,40.795,184.321,40.732,184.029,40.732z"/>
	</g>
</g>
<g>
</g>
<g>
</g>
<g>
</g>
<g>
</g>
<g>
</g>
<g>
</g>
<g>
</g>
<g>
</g>
<g>
</g>
<g>
</g>
<g>
</g>
<g>
</g>
<g>
</g>
<g>
</g>
<g>
</g>
</svg>
