<?xml version="1.0" encoding="iso-8859-1"?>
<!-- Generator: Adobe Illustrator 19.0.0, SVG Export Plug-In . SVG Version: 6.00 Build 0)  -->
<svg version="1.1" id="Layer_1" xmlns="http://www.w3.org/2000/svg" xmlns:xlink="http://www.w3.org/1999/xlink" x="0px" y="0px"
	 viewBox="0 0 322 322" style="enable-background:new 0 0 322 322;" xml:space="preserve">
<g id="XMLID_2243_">
	<g id="XMLID_2244_">
		<path id="XMLID_2245_" style="fill:#B3404A;" d="M293.685,319.304H28.315C12.702,319.304,0,306.602,0,290.989V173.238
			c0-6.076,1.903-11.876,5.502-16.772l41.633-56.62c5.313-7.228,13.841-11.542,22.812-11.542h182.105
			c8.971,0,17.499,4.314,22.813,11.543l41.632,56.618c3.6,4.897,5.503,10.697,5.503,16.773v117.751
			C322,306.602,309.298,319.304,293.685,319.304z M69.947,108.304c-2.634,0-5.138,1.267-6.698,3.389l-41.633,56.62
			C20.559,169.75,20,171.454,20,173.238v117.751c0,4.585,3.73,8.314,8.315,8.314h265.37c4.585,0,8.315-3.729,8.315-8.314V173.238
			c0-1.784-0.559-3.488-1.617-4.927l-41.632-56.618c-1.561-2.123-4.064-3.39-6.699-3.39L69.947,108.304L69.947,108.304z"/>
	</g>
	<g id="XMLID_2248_">
		<path id="XMLID_37_" style="fill:#F4B2B0;" d="M267.446,99.304H54.554c-10.523,0-19.054-8.531-19.054-19.054v-48.5
			c0-10.523,8.531-19.054,19.054-19.054h212.892c10.523,0,19.054,8.531,19.054,19.054v48.5
			C286.5,90.773,277.969,99.304,267.446,99.304z"/>
		<path id="XMLID_2249_" style="fill:#B3404A;" d="M267.446,109.304H54.554c-16.021,0-29.054-13.033-29.054-29.054v-48.5
			c0-16.021,13.033-29.054,29.054-29.054h212.893c16.021,0,29.054,13.033,29.054,29.054v48.5
			C296.5,96.271,283.467,109.304,267.446,109.304z M54.554,22.696c-4.992,0-9.054,4.062-9.054,9.054v48.5
			c0,4.992,4.062,9.054,9.054,9.054h212.893c4.992,0,9.054-4.062,9.054-9.054v-48.5c0-4.992-4.062-9.054-9.054-9.054H54.554z"/>
	</g>
	<g id="XMLID_2252_">
		<path id="XMLID_2253_" style="fill:#B3404A;" d="M161,272.304H0v-101h95.5v20H20v61h141c5.514,0,10-4.486,10-10v-41
			c0-5.514-4.486-10-10-10h-27.667v-20H161c16.542,0,30,13.458,30,30v41C191,258.846,177.542,272.304,161,272.304z"/>
	</g>
</g>
<g>
</g>
<g>
</g>
<g>
</g>
<g>
</g>
<g>
</g>
<g>
</g>
<g>
</g>
<g>
</g>
<g>
</g>
<g>
</g>
<g>
</g>
<g>
</g>
<g>
</g>
<g>
</g>
<g>
</g>
</svg>
