<?xml version="1.0" encoding="iso-8859-1"?>
<!-- Generator: Adobe Illustrator 19.0.0, SVG Export Plug-In . SVG Version: 6.00 Build 0)  -->
<svg version="1.1" id="Layer_1" xmlns="http://www.w3.org/2000/svg" xmlns:xlink="http://www.w3.org/1999/xlink" x="0px" y="0px"
	 viewBox="0 0 376.988 376.988" style="enable-background:new 0 0 376.988 376.988;" xml:space="preserve">
<g id="XMLID_1025_">
	<g id="XMLID_1026_">
		<path id="XMLID_1027_" style="fill:#B3404A;" d="M273.491,282.844h-52.455V93.534h-97.091V40.08h117.556
			c17.64,0,31.99,14.351,31.99,31.99V282.844z M241.037,262.844h12.455V72.07c0-6.611-5.379-11.99-11.99-11.99h-97.555v13.454
			h81.101c8.817,0,15.99,7.173,15.99,15.99L241.037,262.844L241.037,262.844z"/>
	</g>
	<g id="XMLID_1030_">
		<path id="XMLID_1031_" style="fill:#B3404A;" d="M361.742,366.037h-27.216v-20h22.463v-19.42h-21.472l-14.645-43.933H175.998
			l-14.645,43.933h-26.086v19.42h148.817v20h-153.57c-8.407,0-15.247-6.84-15.247-15.247v-28.926c0-8.407,6.84-15.247,15.247-15.247
			h16.424l11.091-33.272c2.011-6.384,7.833-10.661,14.541-10.661h151.729c6.708,0,12.53,4.276,14.541,10.66l11.091,33.273h11.81
			c8.407,0,15.247,6.84,15.247,15.247v28.926C376.989,359.197,370.149,366.037,361.742,366.037z"/>
	</g>
	<g id="XMLID_1032_">
		<g id="XMLID_1033_">
			<path id="XMLID_1034_" style="fill:#B3404A;" d="M146.067,216.59c-5.146,0-10.291-1.958-14.208-5.875l-10.977-10.977
				l14.143-14.143l10.976,10.977c0.036,0.037,0.096,0.037,0.132,0l6.728-6.728c0.037-0.037,0.037-0.096,0-0.132L26.878,63.727
				c-0.036-0.037-0.096-0.038-0.132,0l-6.728,6.728c-0.037,0.037-0.037,0.096,0,0.132l101.335,100.965l-14.116,14.168L5.888,84.743
				c-7.848-7.847-7.848-20.595-0.013-28.43l6.728-6.728c7.834-7.834,20.582-7.835,28.417,0l125.983,125.984
				c7.834,7.834,7.834,20.582,0,28.417l-6.728,6.728C156.359,214.631,151.213,216.59,146.067,216.59z"/>
		</g>
		<g id="XMLID_1035_">
			<g id="XMLID_1036_">
				<path id="XMLID_41_" style="fill:#F4B2B0;" d="M173.074,43.515c-31.217-31.217-83.892-29.971-117.149,3.287L39.979,62.747
					L153.842,176.61l0.178-0.178l15.767-15.767l0,0C203.045,127.407,204.291,74.733,173.074,43.515z"/>
				<path id="XMLID_1037_" style="fill:#B3404A;" d="M153.852,190.762L25.837,62.747l23.016-23.016
					c18.56-18.559,42.939-28.78,68.649-28.78c23.957,0,46.204,9.054,62.643,25.494c17.083,17.083,26.125,40.22,25.46,65.147
					c-0.661,24.777-10.871,48.268-28.747,66.144L153.852,190.762z M54.121,62.747l99.721,99.721l8.874-8.874
					c14.24-14.241,22.372-32.898,22.896-52.536c0.517-19.385-6.447-37.309-19.61-50.472c-12.662-12.663-29.886-19.636-48.5-19.636
					c-20.367,0-39.725,8.141-54.507,22.922L54.121,62.747z"/>
			</g>
			<g id="XMLID_1040_">
				<path id="XMLID_1041_" style="fill:#B3404A;" d="M83.97,69.818L69.828,55.675c24.627-24.626,63.776-25.547,87.272-2.052
					l-14.143,14.143C127.26,52.068,100.799,52.989,83.97,69.818z"/>
			</g>
		</g>
		<g id="XMLID_1042_">
			<path id="XMLID_1043_" style="fill:#B3404A;" d="M71.457,199.049c-14.402,0-27.941-5.608-38.125-15.792
				c-21.022-21.022-21.022-55.228,0-76.25l14.143,14.143c-13.224,13.224-13.224,34.741,0,47.964
				c13.224,13.225,34.741,13.225,47.965,0l14.143,14.143C99.398,193.44,85.859,199.049,71.457,199.049z"/>
		</g>
	</g>
</g>
<g>
</g>
<g>
</g>
<g>
</g>
<g>
</g>
<g>
</g>
<g>
</g>
<g>
</g>
<g>
</g>
<g>
</g>
<g>
</g>
<g>
</g>
<g>
</g>
<g>
</g>
<g>
</g>
<g>
</g>
</svg>
