<?xml version="1.0" encoding="iso-8859-1"?>
<!-- Generator: Adobe Illustrator 19.0.0, SVG Export Plug-In . SVG Version: 6.00 Build 0)  -->
<svg version="1.1" id="Layer_1" xmlns="http://www.w3.org/2000/svg" xmlns:xlink="http://www.w3.org/1999/xlink" x="0px" y="0px"
	 viewBox="0 0 338.251 338.251" style="enable-background:new 0 0 338.251 338.251;" xml:space="preserve">
<g id="XMLID_1471_">
	<g id="XMLID_1472_">
		<path id="XMLID_37_" style="fill:#F4B2B0;" d="M325.06,227.614l-36.086-36.086l36.086-36.086c4.255-4.255,4.255-11.155,0-15.41
			l-19.261-19.261c-4.255-4.255-11.155-4.255-15.41,0l-36.086,36.086l-36.086-36.086c-4.255-4.255-11.155-4.255-15.41,0
			l-19.261,19.261c-4.255,4.255-4.255,11.155,0,15.41l36.086,36.086l-36.086,36.086c-4.255,4.255-4.255,11.155,0,15.41
			l19.261,19.261c4.255,4.255,11.155,4.255,15.41,0l36.086-36.086l36.086,36.086c4.255,4.255,11.155,4.255,15.41,0l19.261-19.261
			C329.315,238.769,329.315,231.87,325.06,227.614z"/>
		<path id="XMLID_1473_" style="fill:#B3404A;" d="M298.094,275.477c-5.582,0-10.829-2.174-14.776-6.12l-29.015-29.015
			l-29.015,29.015c-3.947,3.946-9.194,6.12-14.776,6.12s-10.829-2.174-14.776-6.12l-19.261-19.261
			c-3.947-3.947-6.12-9.195-6.12-14.776c0-5.582,2.174-10.83,6.121-14.776l29.014-29.015l-29.015-29.015
			c-3.947-3.947-6.12-9.195-6.12-14.776c0-5.582,2.174-10.83,6.121-14.776l19.261-19.261c3.946-3.946,9.194-6.12,14.775-6.12
			c5.582,0,10.83,2.174,14.776,6.121l29.015,29.014l29.015-29.015c3.946-3.946,9.194-6.12,14.776-6.12s10.83,2.174,14.776,6.121
			l19.26,19.26c3.947,3.946,6.121,9.194,6.121,14.776c0,5.581-2.173,10.829-6.12,14.775l-29.015,29.016l29.015,29.015
			c3.946,3.946,6.12,9.194,6.12,14.776c0,5.581-2.174,10.829-6.121,14.775l-19.26,19.262
			C308.923,273.303,303.675,275.477,298.094,275.477z M254.303,212.057l43.157,43.157c0.348,0.348,0.919,0.348,1.268,0l19.26-19.262
			c0.175-0.174,0.263-0.387,0.263-0.633c0-0.247-0.088-0.46-0.262-0.634l-43.157-43.157l43.157-43.157
			c0.174-0.174,0.263-0.388,0.263-0.634s-0.088-0.46-0.262-0.634l-19.261-19.261c-0.349-0.35-0.919-0.349-1.268-0.001L254.303,171
			l-43.157-43.157c-0.348-0.349-0.917-0.349-1.267-0.001l-19.262,19.262c-0.174,0.174-0.262,0.388-0.262,0.634
			s0.088,0.46,0.263,0.635l43.157,43.156l-43.156,43.157c-0.175,0.174-0.263,0.387-0.263,0.634c0,0.246,0.088,0.46,0.263,0.635
			l19.26,19.26c0.348,0.348,0.919,0.348,1.268,0L254.303,212.057z"/>
	</g>
	<g id="XMLID_1476_">
		<path id="XMLID_1477_" style="fill:#B3404A;" d="M97.479,275.479c-8.737,0-16.326-5.13-19.594-13.383L55.518,205.62
			c-1.405-3.549-4.778-5.841-8.594-5.841H0v-20h46.923c12.072,0,22.744,7.252,27.189,18.477l22.368,56.477
			c0.126,0.317,0.317,0.788,1.171,0.741c0.855-0.057,0.98-0.558,1.063-0.889l42.275-169.64
			c3.253-13.055,14.921-22.173,28.376-22.173h163.321v20H169.365c-4.253,0-7.941,2.882-8.97,7.009L118.12,259.42
			c-2.268,9.103-9.782,15.386-19.142,16.009C98.475,275.462,97.975,275.479,97.479,275.479z"/>
	</g>
</g>
<g>
</g>
<g>
</g>
<g>
</g>
<g>
</g>
<g>
</g>
<g>
</g>
<g>
</g>
<g>
</g>
<g>
</g>
<g>
</g>
<g>
</g>
<g>
</g>
<g>
</g>
<g>
</g>
<g>
</g>
</svg>
