<?xml version="1.0" encoding="iso-8859-1"?>
<!-- Generator: Adobe Illustrator 19.0.0, SVG Export Plug-In . SVG Version: 6.00 Build 0)  -->
<svg version="1.1" id="Layer_1" xmlns="http://www.w3.org/2000/svg" xmlns:xlink="http://www.w3.org/1999/xlink" x="0px" y="0px"
	 viewBox="0 0 340 340" style="enable-background:new 0 0 340 340;" xml:space="preserve">
<g id="XMLID_1173_">
	<g id="XMLID_1174_">
		<path id="XMLID_1175_" style="fill:#B3404A;" d="M212.212,340H28.771c-14.678,0-26.619-11.941-26.619-26.619V26.619
			C2.151,11.941,14.093,0,28.771,0h222.178c14.678,0,26.619,11.941,26.619,26.619v51.174h-20V26.619c0-3.649-2.97-6.619-6.619-6.619
			H28.771c-3.65,0-6.619,2.969-6.619,6.619v286.762c0,3.65,2.969,6.619,6.619,6.619h175.157l53.64-53.64V157.777h20v116.868
			L212.212,340z"/>
	</g>
	<g id="XMLID_1176_">
		<g id="XMLID_1177_">
			<rect id="XMLID_1178_" x="57.818" y="80" style="fill:#B3404A;" width="87.041" height="20"/>
		</g>
		<g id="XMLID_1179_">
			<rect id="XMLID_1180_" x="57.818" y="160" style="fill:#B3404A;" width="87.041" height="20"/>
		</g>
		<g id="XMLID_1181_">
			<rect id="XMLID_1182_" x="57.818" y="240" style="fill:#B3404A;" width="87.041" height="20"/>
		</g>
	</g>
	<g id="XMLID_1183_">
		<path id="XMLID_45_" style="fill:#F4B2B0;" d="M151.048,197.972l-18.9,45.716c-2.805,6.784,3.055,12.644,9.839,9.839l45.716-18.9
			c2.557-1.057,3.527-4.286,1.804-6.008l-32.451-32.451C155.335,194.445,152.105,195.415,151.048,197.972z"/>
		<path id="XMLID_1184_" style="fill:#B3404A;" d="M138.54,264.246L138.54,264.246c-5.763,0-11.082-2.81-14.229-7.516
			c-3.241-4.846-3.766-11.149-1.405-16.861l18.9-45.717c2.188-5.293,7.447-8.851,13.085-8.851c3.508,0,6.789,1.349,9.236,3.797
			l32.451,32.45c3.083,3.083,4.402,7.536,3.53,11.913c-0.933,4.681-4.143,8.572-8.587,10.409l-45.715,18.899
			C143.438,263.749,140.992,264.246,138.54,264.246z M156.854,210.106l-13.191,31.908l31.908-13.191L156.854,210.106z"/>
	</g>
	<g id="XMLID_1187_">
		<path id="XMLID_40_" style="fill:#F4B2B0;" d="M190.503,232.128l111.747-111.747l-18.478-18.478l-18.478-18.478L153.548,195.172
			C153.451,195.27,190.406,232.226,190.503,232.128z"/>
		<path id="XMLID_1188_" style="fill:#B3404A;" d="M194.609,242.164l-4.193-0.036c-4.074-0.035-6.152-2.077-8.56-4.44
			c-1.03-1.012-2.49-2.457-4.238-4.192c-3.47-3.446-8.08-8.043-12.688-12.651c-19.776-19.776-19.776-19.776-20.639-21.884
			l-2.518-6.157l123.52-123.521l51.099,51.098L194.609,242.164z M167.63,195.233c6.498,6.535,16.278,16.315,22.813,22.813
			l97.665-97.665l-22.813-22.813L167.63,195.233z"/>
	</g>
	<g id="XMLID_1191_">
		<path id="XMLID_35_" style="fill:#F4B2B0;" d="M302.278,120.354l22.186-22.186c4.513-4.512,4.513-11.829,0-16.341L314.157,71.52
			L303.85,61.212c-4.512-4.512-11.829-4.513-16.341,0l-22.186,22.186C265.286,83.434,302.242,120.39,302.278,120.354z"/>
		<path id="XMLID_1192_" style="fill:#B3404A;" d="M306.174,130.599l-4.481-0.262c-3.792-0.222-5.681-2.098-8.071-4.473
			c-1.019-1.011-2.469-2.456-4.207-4.19c-3.467-3.458-8.083-8.07-12.698-12.685s-9.229-9.234-12.692-12.706
			c-7.274-7.293-7.274-7.293-8.049-9.329l-2.301-6.05l26.763-26.763c4.072-4.071,9.484-6.313,15.242-6.313
			c5.757,0,11.169,2.242,15.24,6.313l20.615,20.615c4.071,4.071,6.313,9.484,6.313,15.242c0,5.757-2.242,11.17-6.313,15.242
			L306.174,130.599z M279.441,83.421c6.529,6.543,16.27,16.284,22.813,22.813l15.138-15.138c0.377-0.376,0.456-0.806,0.456-1.099
			c0-0.294-0.079-0.723-0.456-1.1l-20.614-20.615c-0.376-0.376-0.806-0.456-1.099-0.456c-0.294,0-0.724,0.079-1.101,0.456
			L279.441,83.421z"/>
	</g>
</g>
<g>
</g>
<g>
</g>
<g>
</g>
<g>
</g>
<g>
</g>
<g>
</g>
<g>
</g>
<g>
</g>
<g>
</g>
<g>
</g>
<g>
</g>
<g>
</g>
<g>
</g>
<g>
</g>
<g>
</g>
</svg>
