<?xml version="1.0" encoding="iso-8859-1"?>
<!-- Generator: Adobe Illustrator 19.0.0, SVG Export Plug-In . SVG Version: 6.00 Build 0)  -->
<svg version="1.1" id="Layer_1" xmlns="http://www.w3.org/2000/svg" xmlns:xlink="http://www.w3.org/1999/xlink" x="0px" y="0px"
	 viewBox="0 0 376.225 376.225" style="enable-background:new 0 0 376.225 376.225;" xml:space="preserve">
<g id="XMLID_2227_">
	<g id="XMLID_2228_">
		<path id="XMLID_2229_" style="fill:#F4B2B0;" d="M251.245,268.584c-10.028-13.369-19.365-52.858-19.365-52.858
			c-0.815-2.224-3.362-4.044-5.661-4.044h-76.193c-2.299,0-4.846,1.82-5.661,4.044c0,0-8.164,39.009-19.366,52.858
			c-1.49,1.842-0.602,5.764,0.475,7.866c0,0,52.445,59.324,57.177,88.509c0.262,1.619,10.563,1.713,10.997,0.113
			c7.929-29.298,57.122-88.622,57.122-88.622C251.847,274.348,252.667,270.479,251.245,268.584z M188.108,295.339
			c-11.503,0-20.827-9.325-20.827-20.827c0-11.503,9.325-20.828,20.827-20.828s20.827,9.325,20.827,20.828
			C208.935,286.015,199.61,295.34,188.108,295.339z"/>
		<path id="XMLID_2232_" style="fill:#B3404A;" d="M188.343,376.225C188.342,376.225,188.343,376.225,188.343,376.225
			c-11.568,0-14.848-5.256-15.562-9.665c-3.498-21.575-40.742-67.58-54.798-83.486l-0.833-0.943l-0.575-1.122
			c-2.086-4.073-4.296-12.599,0.652-18.714c7.037-8.699,14.377-34.438,17.352-48.618l0.148-0.708l0.25-0.681
			c2.251-6.146,8.581-10.605,15.051-10.605h76.192c6.47,0,12.8,4.46,15.051,10.605l0.205,0.558l0.137,0.579
			c3.431,14.491,11.252,40.652,17.633,49.16c4.627,6.17,2.444,14.485,0.425,18.426l-0.5,0.978l-0.701,0.846
			c-13.299,16.042-49.135,62.559-55.167,84.852C201.768,373.351,196.734,376.225,188.343,376.225z M134.877,272.009
			c9.172,10.565,41.833,49.296,53.709,78.266c13.278-28.882,45.248-68.884,52.892-78.265c-8.641-13.633-15.876-40.208-18.432-50.328
			h-69.755C150.933,231.928,144.294,257.979,134.877,272.009z M188.108,305.34c-16.999,0-30.828-13.829-30.828-30.827
			c0-16.999,13.829-30.828,30.828-30.828s30.828,13.829,30.828,30.828C218.935,291.511,205.106,305.34,188.108,305.34z
			 M188.108,263.685c-5.97,0-10.828,4.857-10.828,10.828c0,5.97,4.857,10.827,10.828,10.827s10.828-4.857,10.828-10.827
			C198.935,268.542,194.078,263.685,188.108,263.685z"/>
	</g>
	<g id="XMLID_2237_">
		<rect id="XMLID_2238_" x="124.212" y="201.682" style="fill:#B3404A;" width="127.792" height="20"/>
	</g>
	<g id="XMLID_2239_">
		<path id="XMLID_2240_" style="fill:#B3404A;" d="M241.108,221.682h-106V41c0-22.607,18.393-41,41-41h24c22.607,0,41,18.393,41,41
			V221.682z M155.108,201.682h66V41c0-11.579-9.42-21-21-21h-24c-11.58,0-21,9.421-21,21V201.682z"/>
	</g>
</g>
<g>
</g>
<g>
</g>
<g>
</g>
<g>
</g>
<g>
</g>
<g>
</g>
<g>
</g>
<g>
</g>
<g>
</g>
<g>
</g>
<g>
</g>
<g>
</g>
<g>
</g>
<g>
</g>
<g>
</g>
</svg>
