<?xml version="1.0" encoding="iso-8859-1"?>
<!-- Generator: Adobe Illustrator 19.0.0, SVG Export Plug-In . SVG Version: 6.00 Build 0)  -->
<svg version="1.1" id="Layer_1" xmlns="http://www.w3.org/2000/svg" xmlns:xlink="http://www.w3.org/1999/xlink" x="0px" y="0px"
	 viewBox="0 0 369.656 369.656" style="enable-background:new 0 0 369.656 369.656;" xml:space="preserve">
<g id="XMLID_1437_">
	<g id="XMLID_1438_">
		<path id="XMLID_1439_" style="fill:#B3404A;" d="M255.967,195h-20V80.25c0-2.251-1.832-4.083-4.083-4.083h-56.25v-20h56.25
			c13.279,0,24.083,10.804,24.083,24.083L255.967,195L255.967,195z"/>
	</g>
	<g id="XMLID_1440_">
		<path id="XMLID_1441_" style="fill:#B3404A;" d="M185.861,369.656h-37.345c-19.204,0-34.827-15.624-34.827-34.828V112.334h107
			v222.494C220.689,354.032,205.065,369.656,185.861,369.656z M133.689,132.334v202.494c0,8.176,6.651,14.828,14.827,14.828h37.345
			c8.176,0,14.828-6.652,14.828-14.828V132.334H133.689z"/>
	</g>
	<g id="XMLID_1444_">
		<path id="XMLID_37_" style="fill:#F4B2B0;" d="M210.689,122.334h-87V34.828c0-13.712,11.116-24.828,24.828-24.828h37.345
			c13.712,0,24.828,11.116,24.828,24.828v87.506H210.689z"/>
		<path id="XMLID_1445_" style="fill:#B3404A;" d="M220.689,132.334h-107V34.828C113.689,15.624,129.313,0,148.517,0h37.345
			c19.204,0,34.828,15.624,34.828,34.828v97.506H220.689z M133.689,112.334h67V34.828c0-8.177-6.651-14.828-14.828-14.828h-37.345
			c-8.176,0-14.827,6.651-14.827,14.828V112.334z"/>
	</g>
	<g id="XMLID_1448_">
		<rect id="XMLID_1449_" x="157.189" y="124.828" style="fill:#B3404A;" width="20" height="234.828"/>
	</g>
</g>
<g>
</g>
<g>
</g>
<g>
</g>
<g>
</g>
<g>
</g>
<g>
</g>
<g>
</g>
<g>
</g>
<g>
</g>
<g>
</g>
<g>
</g>
<g>
</g>
<g>
</g>
<g>
</g>
<g>
</g>
</svg>
