<?xml version="1.0" encoding="iso-8859-1"?>
<!-- Generator: Adobe Illustrator 19.0.0, SVG Export Plug-In . SVG Version: 6.00 Build 0)  -->
<svg version="1.1" id="Layer_1" xmlns="http://www.w3.org/2000/svg" xmlns:xlink="http://www.w3.org/1999/xlink" x="0px" y="0px"
	 viewBox="0 0 364 364" style="enable-background:new 0 0 364 364;" xml:space="preserve">
<g id="XMLID_1236_">
	<g id="XMLID_1237_">
		<path id="XMLID_1238_" style="fill:#B3404A;" d="M211.042,364H152.96c-34.917,0-63.325-28.407-63.325-63.324V91h184.731v209.676
			C274.366,335.593,245.958,364,211.042,364z M109.635,111v189.676c0,23.889,19.436,43.324,43.325,43.324h58.082
			c23.889,0,43.325-19.436,43.325-43.324V111H109.635z"/>
	</g>
	<g id="XMLID_1241_">
		<path id="XMLID_1242_" style="fill:#B3404A;" d="M171.809,326.445c-26.653,0-48.337-21.684-48.337-48.337V199h20v79.108
			c0,15.625,12.712,28.337,28.337,28.337V326.445z"/>
	</g>
	<g id="XMLID_1243_">
		<path id="XMLID_1244_" style="fill:#F4B2B0;" d="M245.53,101V31.193c0-11.705-9.489-21.193-21.193-21.193h-42.336h-42.336
			c-11.705,0-21.193,9.489-21.193,21.193V101H245.53z"/>
		<path id="XMLID_1245_" style="fill:#B3404A;" d="M255.53,111H108.472V31.193c0-17.2,13.993-31.193,31.193-31.193h84.673
			c17.2,0,31.193,13.993,31.193,31.193L255.53,111L255.53,111z M128.471,91h107.059V31.193c0-6.172-5.021-11.193-11.193-11.193
			h-84.673c-6.172,0-11.193,5.021-11.193,11.193L128.471,91L128.471,91z"/>
	</g>
	<g id="XMLID_1248_">
		<g id="XMLID_1249_">
			<rect id="XMLID_1250_" x="146.833" y="49.333" style="fill:#B3404A;" width="21.333" height="20"/>
		</g>
		<g id="XMLID_1251_">
			<rect id="XMLID_1252_" x="195.833" y="49.333" style="fill:#B3404A;" width="21.333" height="20"/>
		</g>
	</g>
</g>
<g>
</g>
<g>
</g>
<g>
</g>
<g>
</g>
<g>
</g>
<g>
</g>
<g>
</g>
<g>
</g>
<g>
</g>
<g>
</g>
<g>
</g>
<g>
</g>
<g>
</g>
<g>
</g>
<g>
</g>
</svg>
