<?xml version="1.0" encoding="iso-8859-1"?>
<!-- Generator: Adobe Illustrator 19.0.0, SVG Export Plug-In . SVG Version: 6.00 Build 0)  -->
<svg version="1.1" id="Layer_1" xmlns="http://www.w3.org/2000/svg" xmlns:xlink="http://www.w3.org/1999/xlink" x="0px" y="0px"
	 viewBox="0 0 367.122 367.122" style="enable-background:new 0 0 367.122 367.122;" xml:space="preserve">
<g id="XMLID_1065_">
	<g id="XMLID_1066_">
		<path id="XMLID_1067_" style="fill:#B3404A;" d="M183.561,347.226L183.561,347.226c-16.873,0-32.21-7.754-43.188-21.834
			c-10.948-14.043-16.735-33.164-16.735-55.294V82.247l60.915,12.202h58.931v185.649c0,10.018-1.92,19.656-5.707,28.648
			C227.934,332.121,206.653,347.226,183.561,347.226z M143.638,106.65v163.448c0,33.636,16.417,57.127,39.923,57.127l0,0
			c15.257,0,28.968-10.055,35.784-26.242c2.746-6.522,4.139-13.549,4.139-20.886V114.448h-40.915L143.638,106.65z"/>
	</g>
	<g id="XMLID_1070_">
		<path id="XMLID_1071_" style="fill:#F4B2B0;" d="M241.837,108.957V77.681c0-36.65-25.477-67.2-57.503-67.675
			c-32.54-0.483-59.05,29.556-59.05,66.681v32.271h-5.299c-5.067,0-9.175,4.701-9.175,10.499v19.002
			c0,5.798,4.108,10.499,9.175,10.499h63.576h63.576c5.067,0,9.175-4.701,9.175-10.499v-19.002c0-5.798-4.108-10.499-9.175-10.499
			L241.837,108.957L241.837,108.957z"/>
		<path id="XMLID_1072_" style="fill:#B3404A;" d="M247.136,158.958H119.985c-10.573,0-19.175-9.196-19.175-20.499v-19.002
			c0-9.57,6.166-17.629,14.474-19.876V76.687C115.284,34.402,145.913,0,183.56,0c0.307,0,0.615,0.002,0.923,0.007
			c37.139,0.551,67.354,35.396,67.354,77.674V99.58c8.309,2.247,14.475,10.306,14.475,19.876v19.002
			C266.312,149.762,257.709,158.958,247.136,158.958z M120.872,138.958H246.25c0.034-0.128,0.062-0.293,0.062-0.499v-19.002
			c0-0.206-0.027-0.371-0.062-0.499h-14.413V77.681c0-31.413-21.376-57.287-47.651-57.676L183.56,20
			c-26.619,0-48.276,25.43-48.276,56.687v42.271h-14.412c-0.035,0.128-0.062,0.293-0.062,0.499v19.002
			C120.81,138.664,120.837,138.83,120.872,138.958z"/>
	</g>
	<g id="XMLID_1075_">
		<rect id="XMLID_1076_" x="173.561" y="332.789" style="fill:#B3404A;" width="20" height="34.333"/>
	</g>
	<g id="XMLID_1077_">
		<rect id="XMLID_1078_" x="200.612" y="182.789" style="fill:#B3404A;" width="36.673" height="20"/>
	</g>
	<g id="XMLID_1079_">
		<rect id="XMLID_1080_" x="190.612" y="216.622" style="fill:#B3404A;" width="46.673" height="20"/>
	</g>
	<g id="XMLID_1081_">
		<rect id="XMLID_1082_" x="200.612" y="250.456" style="fill:#B3404A;" width="36.673" height="20"/>
	</g>
</g>
<g>
</g>
<g>
</g>
<g>
</g>
<g>
</g>
<g>
</g>
<g>
</g>
<g>
</g>
<g>
</g>
<g>
</g>
<g>
</g>
<g>
</g>
<g>
</g>
<g>
</g>
<g>
</g>
<g>
</g>
</svg>
