<?xml version="1.0" encoding="iso-8859-1"?>
<!-- Generator: Adobe Illustrator 19.0.0, SVG Export Plug-In . SVG Version: 6.00 Build 0)  -->
<svg version="1.1" id="Layer_1" xmlns="http://www.w3.org/2000/svg" xmlns:xlink="http://www.w3.org/1999/xlink" x="0px" y="0px"
	 viewBox="0 0 359.281 359.281" style="enable-background:new 0 0 359.281 359.281;" xml:space="preserve">
<g id="XMLID_1876_">
	<g id="XMLID_1877_">
		<path id="XMLID_1878_" style="fill:#B3404A;" d="M314.967,359.281H139.448c-18.886,0-34.25-15.364-34.25-34.25v-196.5
			c0-18.886,15.364-34.25,34.25-34.25h175.519c18.886,0,34.25,15.364,34.25,34.25v77.31l-15.007-8.681
			c-6.209-3.591-13.479-5.128-20.755-4.376c-16.222,1.675-29.303,15.237-30.429,31.549c-0.664,9.616,2.569,18.768,9.104,25.769
			c6.541,7.008,15.419,10.867,24.999,10.867c5.998,0,11.903-1.583,17.079-4.577l15.008-8.682v77.321
			C349.217,343.917,333.852,359.281,314.967,359.281z M139.448,114.281c-7.857,0-14.25,6.393-14.25,14.25v196.5
			c0,7.857,6.393,14.25,14.25,14.25h175.519c7.857,0,14.25-6.393,14.25-14.25v-45.43c-3.949,0.904-8.005,1.367-12.087,1.367
			c-14.964,0-29.405-6.276-39.62-17.22c-10.358-11.098-15.485-25.585-14.437-40.793c1.787-25.883,22.563-47.406,48.327-50.066
			c5.997-0.618,12.034-0.255,17.816,1.067V128.53c0-7.857-6.393-14.25-14.25-14.25L139.448,114.281L139.448,114.281z"/>
	</g>
	<g id="XMLID_1881_">
		<path id="XMLID_40_" style="fill:#F4B2B0;" d="M224.071,10.109c-21.203,1.463-38.625,18.236-40.808,39.377
			c-1.352,13.089,3.016,25.168,10.908,34.044c5.153,5.797,8.03,13.141,8.519,20.751h49.161c0.554-7.689,3.447-15.103,8.61-20.997
			c6.808-7.772,10.935-17.952,10.935-29.096C271.395,28.746,249.894,8.326,224.071,10.109z"/>
		<path id="XMLID_1882_" style="fill:#B3404A;" d="M261.156,114.281H193.31l-0.601-9.359c-0.356-5.549-2.491-10.786-6.013-14.747
			c-10.22-11.496-14.972-26.312-13.382-41.716c2.661-25.764,24.186-46.54,50.067-48.327C224.653,0.044,225.94,0,227.208,0
			c29.879,0,54.187,24.309,54.187,54.188c0,13.139-4.764,25.813-13.414,35.686c-3.611,4.124-5.741,9.355-6.156,15.126
			L261.156,114.281z M211.076,94.281h32.393c1.807-6.522,5.007-12.491,9.468-17.585c5.455-6.227,8.459-14.22,8.459-22.508
			c0-18.852-15.337-34.188-34.187-34.188c-0.811,0-1.634,0.028-2.448,0.085c-16.311,1.126-29.875,14.207-31.55,30.429
			c-1.008,9.755,1.988,19.121,8.435,26.372C206.047,81.838,209.266,87.82,211.076,94.281z"/>
	</g>
	<g id="XMLID_1885_">
		<path id="XMLID_35_" style="fill:#F4B2B0;" d="M20.175,229.417c1.463,21.203,18.236,38.625,39.377,40.808
			c13.089,1.352,25.168-3.016,34.044-10.908c5.797-5.153,13.141-8.03,20.751-8.519v-49.161c-7.689-0.554-15.103-3.447-20.997-8.61
			c-7.772-6.808-17.952-10.935-29.096-10.935C38.813,182.093,18.393,203.595,20.175,229.417z"/>
		<path id="XMLID_1886_" style="fill:#B3404A;" d="M64.256,280.469c-0.001,0-0.001,0-0.002,0c-1.898,0-3.826-0.1-5.729-0.296
			c-25.764-2.661-46.54-24.186-48.326-50.067c-1.05-15.207,4.077-29.694,14.435-40.792c10.215-10.944,24.656-17.221,39.621-17.221
			c13.139,0,25.812,4.764,35.686,13.414c4.125,3.611,9.355,5.741,15.125,6.156l9.282,0.669v67.846l-9.36,0.601
			c-5.548,0.356-10.786,2.491-14.746,6.013C90.32,275.611,77.539,280.469,64.256,280.469z M64.255,192.093
			c-9.58,0-18.458,3.859-25,10.867c-6.534,7.001-9.768,16.152-9.104,25.769c1.126,16.311,14.208,29.875,30.429,31.55
			c9.654,0.994,19.208-2.065,26.373-8.435c4.951-4.402,10.934-7.622,17.395-9.432V210.02c-6.522-1.807-12.491-5.008-17.585-9.469
			C80.536,195.097,72.543,192.093,64.255,192.093z"/>
	</g>
</g>
<g>
</g>
<g>
</g>
<g>
</g>
<g>
</g>
<g>
</g>
<g>
</g>
<g>
</g>
<g>
</g>
<g>
</g>
<g>
</g>
<g>
</g>
<g>
</g>
<g>
</g>
<g>
</g>
<g>
</g>
</svg>
