<?xml version="1.0" encoding="iso-8859-1"?>
<!-- Generator: Adobe Illustrator 19.0.0, SVG Export Plug-In . SVG Version: 6.00 Build 0)  -->
<svg version="1.1" id="Layer_1" xmlns="http://www.w3.org/2000/svg" xmlns:xlink="http://www.w3.org/1999/xlink" x="0px" y="0px"
	 viewBox="0 0 360.699 360.699" style="enable-background:new 0 0 360.699 360.699;" xml:space="preserve">
<g id="XMLID_2018_">
	<g id="XMLID_2019_">
		<g id="XMLID_2020_">
			<path id="XMLID_2021_" style="fill:#B3404A;" d="M337.129,270.273H23.57V45.531c0-19.574,15.925-35.499,35.499-35.499H301.63
				c19.574,0,35.499,15.925,35.499,35.499V270.273z M43.57,250.273h273.559V45.531c0-8.546-6.953-15.499-15.499-15.499H59.069
				c-8.546,0-15.499,6.953-15.499,15.499V250.273z"/>
		</g>
		<g id="XMLID_2024_">
			<g id="XMLID_2025_">
				<path id="XMLID_2026_" style="fill:#F4B2B0;" d="M77.842,259.934l-42.749,64.945c-5.016,7.156,1.818,15.789,12.5,15.789h26.94
					c5.235,0,10.042-2.191,12.5-5.698l49.758-75.036H77.842z"/>
				<path id="XMLID_2027_" style="fill:#B3404A;" d="M74.533,350.667h-26.94c-9.688,0-18.141-4.679-22.059-12.211
					c-3.221-6.191-2.742-13.348,1.272-19.178l45.646-69.346h82.969l-60.199,90.775C90.852,346.945,83.117,350.667,74.533,350.667z
					 M43.869,329.734c0.662,0.428,1.872,0.934,3.724,0.934h26.94c2.269,0,3.867-0.885,4.278-1.395l39.35-59.34h-34.93
					L43.869,329.734z"/>
			</g>
			<g id="XMLID_2030_">
				<path id="XMLID_2031_" style="fill:#F4B2B0;" d="M282.857,259.934h-58.949l49.758,75.036c2.458,3.507,7.266,5.698,12.5,5.698
					h26.94c10.682,0,17.517-8.633,12.5-15.789L282.857,259.934z"/>
				<path id="XMLID_2032_" style="fill:#B3404A;" d="M313.106,350.667h-26.94c-8.584,0-16.318-3.723-20.688-9.959l-0.146-0.213
					l-60.054-90.563h82.969l45.646,69.346c4.015,5.83,4.493,12.986,1.272,19.178C331.247,345.989,322.795,350.667,313.106,350.667z
					 M281.888,329.273c0.411,0.51,2.01,1.395,4.278,1.395h26.94c1.852,0,3.062-0.506,3.724-0.934l-39.362-59.801h-34.93
					L281.888,329.273z"/>
			</g>
		</g>
		<g id="XMLID_2035_">
			<rect id="XMLID_2036_" y="250.273" style="fill:#B3404A;" width="360.699" height="20"/>
		</g>
	</g>
	<g id="XMLID_2037_">
		<g id="XMLID_2038_">
			<g id="XMLID_2039_">
				<rect id="XMLID_2040_" x="171.014" y="116.341" style="fill:#B3404A;" width="20" height="47.327"/>
			</g>
			<g id="XMLID_2041_">
				<rect id="XMLID_2042_" x="157.35" y="130.004" style="fill:#B3404A;" width="47.327" height="20"/>
			</g>
		</g>
		<g id="XMLID_2043_">
			<path id="XMLID_2044_" style="fill:#B3404A;" d="M74.567,181.475c0-4.472,0.332-8.469,0.999-11.992
				c0.665-3.52,1.806-6.732,3.426-9.636c1.617-2.902,3.805-5.59,6.567-8.066c2.759-2.474,6.232-4.901,10.421-7.281
				c4.472-2.474,8.209-4.519,11.207-6.139c2.998-1.617,5.375-3.045,7.138-4.283c1.759-1.235,3.02-2.355,3.783-3.354
				c0.76-0.999,1.142-2.164,1.142-3.498c0-2.663-0.953-4.805-2.855-6.424c-1.905-1.617-4.618-2.427-8.137-2.427
				c-3.998,0-7.473,0.977-10.422,2.926c-2.951,1.952-5.806,4.497-8.565,7.638l-14.562-16.845c1.522-1.713,3.569-3.377,6.139-4.997
				c2.569-1.617,5.471-3.07,8.708-4.354c3.235-1.285,6.782-2.306,10.635-3.069c3.855-0.761,7.875-1.142,12.063-1.142
				c10.279,0,18.153,2.237,23.626,6.71c5.472,4.474,8.209,10.517,8.209,18.13c0,3.141-0.499,5.949-1.499,8.422
				c-0.999,2.476-2.308,4.689-3.926,6.638c-1.619,1.952-3.426,3.665-5.425,5.139c-1.998,1.477-4.046,2.833-6.138,4.069
				c-1.427,0.857-3.141,1.856-5.139,2.998s-3.974,2.309-5.924,3.498c-1.952,1.191-3.762,2.38-5.425,3.569
				c-1.666,1.191-2.927,2.262-3.783,3.212h38.83v20.557H74.567V181.475z"/>
		</g>
		<g id="XMLID_2046_">
			<path id="XMLID_2047_" style="fill:#B3404A;" d="M215.039,181.475c0-4.472,0.332-8.469,0.999-11.992
				c0.665-3.52,1.806-6.732,3.426-9.636c1.617-2.902,3.805-5.59,6.567-8.066c2.759-2.474,6.232-4.901,10.421-7.281
				c4.472-2.474,8.209-4.519,11.207-6.139c2.998-1.617,5.375-3.045,7.138-4.283c1.759-1.235,3.02-2.355,3.783-3.354
				c0.76-0.999,1.142-2.164,1.142-3.498c0-2.663-0.953-4.805-2.855-6.424c-1.905-1.617-4.618-2.427-8.137-2.427
				c-3.998,0-7.473,0.977-10.422,2.926c-2.951,1.952-5.806,4.497-8.565,7.638l-14.562-16.845c1.522-1.713,3.569-3.377,6.139-4.997
				c2.569-1.617,5.471-3.07,8.708-4.354c3.235-1.285,6.782-2.306,10.635-3.069c3.855-0.761,7.875-1.142,12.063-1.142
				c10.279,0,18.153,2.237,23.626,6.71c5.472,4.474,8.209,10.517,8.209,18.13c0,3.141-0.499,5.949-1.499,8.422
				c-0.999,2.476-2.308,4.689-3.926,6.638c-1.619,1.952-3.426,3.665-5.425,5.139c-1.998,1.477-4.046,2.833-6.138,4.069
				c-1.427,0.857-3.141,1.856-5.139,2.998c-1.998,1.142-3.975,2.309-5.924,3.498c-1.952,1.191-3.762,2.38-5.425,3.569
				c-1.666,1.191-2.927,2.262-3.783,3.212h38.83v20.557h-71.093V181.475z"/>
		</g>
	</g>
</g>
<g>
</g>
<g>
</g>
<g>
</g>
<g>
</g>
<g>
</g>
<g>
</g>
<g>
</g>
<g>
</g>
<g>
</g>
<g>
</g>
<g>
</g>
<g>
</g>
<g>
</g>
<g>
</g>
<g>
</g>
</svg>
