<?xml version="1.0" encoding="iso-8859-1"?>
<!-- Generator: Adobe Illustrator 19.0.0, SVG Export Plug-In . SVG Version: 6.00 Build 0)  -->
<svg version="1.1" id="Layer_1" xmlns="http://www.w3.org/2000/svg" xmlns:xlink="http://www.w3.org/1999/xlink" x="0px" y="0px"
	 viewBox="0 0 361 361" style="enable-background:new 0 0 361 361;" xml:space="preserve">
<g id="XMLID_1795_">
	<g id="XMLID_1796_">
		<path id="XMLID_1797_" style="fill:#B3404A;" d="M181,323.712H0V178.751c0-13.723,11.164-24.888,24.887-24.888H181V323.712z
			 M20,303.712h141V173.864H24.887c-2.694,0-4.887,2.192-4.887,4.888V303.712z"/>
	</g>
	<g id="XMLID_1800_">
		<path id="XMLID_1801_" style="fill:#B3404A;" d="M361,323.712H161V134.103c0-6.753,2.797-13.305,7.674-17.975L243.788,44.2
			c4.654-4.457,10.767-6.912,17.212-6.912s12.558,2.455,17.213,6.913l75.112,71.927c4.878,4.671,7.675,11.223,7.675,17.976V323.712z
			 M181,303.712h160V134.103c0-1.326-0.55-2.613-1.508-3.53L264.38,58.645c-0.915-0.876-2.114-1.357-3.38-1.357
			s-2.465,0.481-3.379,1.356l-75.114,71.929c-0.957,0.917-1.507,2.204-1.507,3.53V303.712z"/>
	</g>
	<g id="XMLID_1804_">
		<path id="XMLID_1805_" style="fill:#F4B2B0;" d="M297.5,316.181V255.68c0-20.075-16.425-36.5-36.5-36.5l0,0
			c-20.075,0-36.5,16.425-36.5,36.5v60.501H297.5z"/>
		<path id="XMLID_1806_" style="fill:#B3404A;" d="M307.5,320.18h-93v-64.5c0-25.641,20.859-46.5,46.5-46.5s46.5,20.859,46.5,46.5
			V320.18z M234.5,306.181h53V255.68c0-14.612-11.888-26.5-26.5-26.5s-26.5,11.888-26.5,26.5V306.181z"/>
	</g>
	<g id="XMLID_1809_">
		<path id="XMLID_35_" style="fill:#F4B2B0;" d="M121.5,256.18h-62c-3.866,0-7-3.134-7-7v-36c0-3.866,3.134-7,7-7h62
			c3.866,0,7,3.134,7,7v36C128.5,253.046,125.366,256.18,121.5,256.18z"/>
		<path id="XMLID_1810_" style="fill:#B3404A;" d="M121.5,266.18h-62c-9.374,0-17-7.626-17-17v-36c0-9.374,7.626-17,17-17h62
			c9.374,0,17,7.626,17,17v36C138.5,258.554,130.874,266.18,121.5,266.18z M62.5,246.18h56v-30h-56V246.18z"/>
	</g>
</g>
<g>
</g>
<g>
</g>
<g>
</g>
<g>
</g>
<g>
</g>
<g>
</g>
<g>
</g>
<g>
</g>
<g>
</g>
<g>
</g>
<g>
</g>
<g>
</g>
<g>
</g>
<g>
</g>
<g>
</g>
</svg>
