<?xml version="1.0" encoding="iso-8859-1"?>
<!-- Generator: Adobe Illustrator 19.0.0, SVG Export Plug-In . SVG Version: 6.00 Build 0)  -->
<svg version="1.1" id="Layer_1" xmlns="http://www.w3.org/2000/svg" xmlns:xlink="http://www.w3.org/1999/xlink" x="0px" y="0px"
	 viewBox="0 0 375.346 375.346" style="enable-background:new 0 0 375.346 375.346;" xml:space="preserve">
<g id="XMLID_1253_">
	<g id="XMLID_1254_">
		<path id="XMLID_1255_" style="fill:#B3404A;" d="M280.126,375.346H95.222c-26.218,0-47.548-21.33-47.548-47.549v-56.396
			l4.368-2.977C72.065,254.775,84.02,232.188,84.02,208c0-24.187-11.955-46.775-31.979-60.426l-4.368-2.977V78.202
			c0-26.219,21.33-47.549,47.548-47.549h184.903c8.717,0,17.246,2.383,24.664,6.891c9.824,5.969,22.885,16.263,22.885,36.658v70.396
			l-4.368,2.977c-1.2,0.818-2.391,1.684-3.542,2.572c-0.579,0.447-1.148,0.9-1.709,1.362c-2.805,2.305-5.462,4.839-7.896,7.532
			c-0.485,0.537-0.967,1.087-1.441,1.644c-0.942,1.107-1.862,2.256-2.731,3.411c-0.441,0.585-0.87,1.172-1.289,1.766
			c-0.841,1.188-1.655,2.415-2.423,3.651c-0.385,0.621-0.763,1.248-1.129,1.881c-5.7,9.822-8.954,20.563-9.671,31.924
			c-0.098,1.546-0.147,3.12-0.147,4.683c0,1.562,0.05,3.136,0.147,4.68c0.717,11.363,3.971,22.104,9.669,31.924
			c0.368,0.635,0.745,1.262,1.131,1.882c0.768,1.237,1.583,2.465,2.42,3.648c1.256,1.777,2.61,3.52,4.024,5.183
			c1.88,2.209,3.914,4.329,6.043,6.302c1.063,0.985,2.17,1.951,3.292,2.872c1.688,1.386,3.453,2.709,5.25,3.934l4.369,2.977v56.396
			c0,4.02-0.504,8.016-1.498,11.877c-0.386,1.502-0.854,3.007-1.389,4.471C317.952,362.808,300.004,375.346,280.126,375.346z
			 M67.674,281.786v46.011c0,15.19,12.358,27.549,27.548,27.549h184.903c11.521,0,21.92-7.265,25.88-18.076
			c0.308-0.843,0.578-1.712,0.801-2.579c0.576-2.236,0.867-4.555,0.867-6.894v-46.013c-0.782-0.602-1.555-1.216-2.314-1.84
			c-1.426-1.171-2.835-2.4-4.188-3.653c-2.707-2.507-5.293-5.204-7.685-8.014c-1.8-2.116-3.522-4.334-5.119-6.592
			c-1.066-1.507-2.104-3.072-3.083-4.648c-0.491-0.791-0.972-1.59-1.44-2.396c-7.165-12.347-11.429-26.421-12.33-40.698
			c-0.125-1.961-0.188-3.961-0.188-5.942c0-1.982,0.063-3.983,0.188-5.945c0.901-14.275,5.165-28.35,12.332-40.698
			c0.467-0.805,0.947-1.604,1.438-2.395c0.979-1.577,2.017-3.142,3.085-4.651c0.535-0.756,1.084-1.509,1.644-2.251
			c1.103-1.464,2.271-2.925,3.471-4.335c0.601-0.706,1.21-1.4,1.829-2.087c3.1-3.431,6.478-6.652,10.045-9.583
			c0.718-0.59,1.444-1.17,2.179-1.737c0.044-0.034,0.089-0.068,0.134-0.104V74.202c0-8.386-3.597-13.688-13.271-19.566
			c-4.288-2.605-9.225-3.982-14.278-3.982h-184.9c-15.19,0-27.548,12.358-27.548,27.549v56.012
			C90.53,151.8,104.02,178.995,104.02,208C104.02,237.006,90.53,264.201,67.674,281.786z"/>
	</g>
	<g id="XMLID_1258_">
		<g id="XMLID_1259_">
			<path id="XMLID_1260_" style="fill:#F4B2B0;" d="M220.482,90.692h-32.808h-32.808c-10.557,0-19.115,8.558-19.115,19.115V203
				c0-9.511,4.267-18.021,10.986-23.736c0.034-0.029,0.067-0.059,0.101-0.088c0.313-0.264,0.632-0.519,0.955-0.771
				c0.06-0.046,0.119-0.094,0.179-0.14c0.305-0.234,0.616-0.46,0.93-0.683c0.084-0.06,0.167-0.12,0.251-0.179
				c0.299-0.208,0.603-0.409,0.91-0.607c0.104-0.067,0.208-0.135,0.313-0.201c0.295-0.185,0.593-0.364,0.894-0.539
				c0.124-0.072,0.247-0.144,0.372-0.214c0.29-0.163,0.582-0.321,0.878-0.475c0.142-0.074,0.285-0.147,0.428-0.219
				c0.285-0.143,0.572-0.282,0.862-0.417c0.161-0.074,0.322-0.147,0.484-0.219c0.279-0.124,0.56-0.245,0.844-0.361
				c0.178-0.073,0.358-0.142,0.538-0.212c0.274-0.106,0.549-0.21,0.827-0.309c0.196-0.07,0.394-0.135,0.592-0.2
				c0.268-0.089,0.536-0.177,0.807-0.259c0.214-0.065,0.431-0.124,0.647-0.184c0.261-0.073,0.521-0.146,0.784-0.211
				c0.234-0.059,0.47-0.11,0.706-0.163c0.251-0.057,0.502-0.115,0.756-0.166c0.255-0.051,0.512-0.093,0.769-0.137
				c0.241-0.042,0.48-0.086,0.722-0.123c0.28-0.042,0.563-0.073,0.845-0.107c0.224-0.027,0.446-0.059,0.671-0.081
				c0.323-0.032,0.65-0.052,0.977-0.074c0.188-0.013,0.375-0.031,0.565-0.041c0.501-0.025,1.005-0.038,1.511-0.038
				c0.017,0,0.033-0.001,0.05-0.001c8.603,0,16.391,3.487,22.029,9.125c0.352,0.352,0.696,0.713,1.032,1.082
				c0.67,0.738,1.306,1.508,1.904,2.307c3.887,5.198,6.189,11.65,6.189,18.64c0,1.075-0.054,2.138-0.161,3.185
				c-0.106,1.047-0.265,2.079-0.472,3.093c-0.104,0.507-0.22,1.01-0.348,1.507c-0.256,0.995-0.56,1.971-0.91,2.926
				s-0.744,1.887-1.182,2.795c-0.656,1.362-1.409,2.669-2.249,3.912c-0.56,0.829-1.159,1.629-1.793,2.398s-1.306,1.508-2.011,2.212
				c-1.057,1.057-2.19,2.039-3.389,2.936c-0.8,0.598-1.629,1.158-2.485,1.679c-2.141,1.301-4.451,2.351-6.89,3.11
				c-0.975,0.303-1.972,0.56-2.986,0.768c-2.028,0.415-4.128,0.633-6.279,0.633c-0.524,0-1.045-0.014-1.562-0.04
				c-0.184-0.009-0.365-0.027-0.547-0.04c-0.332-0.022-0.665-0.043-0.994-0.075c-0.221-0.022-0.44-0.053-0.66-0.08
				c-0.286-0.034-0.573-0.066-0.856-0.109c-0.241-0.036-0.479-0.081-0.718-0.122c-0.258-0.045-0.516-0.087-0.772-0.138
				c-0.254-0.051-0.504-0.109-0.756-0.166c-0.236-0.053-0.472-0.104-0.706-0.163c-0.263-0.066-0.523-0.139-0.784-0.211
				c-0.216-0.06-0.432-0.119-0.647-0.184c-0.272-0.082-0.541-0.171-0.81-0.26c-0.196-0.065-0.393-0.13-0.587-0.199
				c-0.28-0.099-0.556-0.204-0.832-0.311c-0.178-0.069-0.357-0.138-0.533-0.21c-0.285-0.116-0.567-0.238-0.848-0.363
				c-0.161-0.071-0.321-0.143-0.48-0.217c-0.292-0.135-0.58-0.275-0.867-0.419c-0.141-0.071-0.282-0.143-0.422-0.216
				c-0.298-0.155-0.592-0.314-0.884-0.479c-0.123-0.069-0.244-0.14-0.366-0.21c-0.303-0.176-0.603-0.356-0.899-0.542
				c-0.104-0.065-0.206-0.132-0.31-0.198c-0.307-0.198-0.612-0.4-0.912-0.608c-0.084-0.059-0.167-0.119-0.251-0.179
				c-0.314-0.223-0.625-0.449-0.93-0.683c-0.06-0.046-0.119-0.094-0.179-0.141c-0.323-0.251-0.642-0.507-0.955-0.771
				c-0.034-0.029-0.068-0.059-0.102-0.088c-0.334-0.284-0.664-0.574-0.985-0.872l0,0c-6.148-5.691-10-13.826-10-22.864v93.192
				c0,10.557,8.558,19.115,19.115,19.115h65.615c10.557,0,19.115-8.558,19.115-19.115V109.808
				C239.597,99.25,231.039,90.692,220.482,90.692z"/>
			<path id="XMLID_1261_" style="fill:#B3404A;" d="M166.905,244.153c-0.688,0-1.373-0.018-2.053-0.051
				c-0.243-0.013-0.444-0.028-0.645-0.044l-0.223-0.017c-0.387-0.025-0.775-0.053-1.158-0.091c-0.265-0.026-0.492-0.055-0.719-0.084
				l-0.285-0.034c-0.334-0.04-0.669-0.081-1.001-0.13c-0.275-0.041-0.527-0.085-0.778-0.129l-0.355-0.063
				c-0.282-0.048-0.563-0.098-0.842-0.153c-0.299-0.06-0.583-0.123-0.866-0.187l-0.137-0.031c-0.357-0.08-0.633-0.143-0.906-0.21
				c-0.398-0.1-0.745-0.195-1.091-0.292c-0.319-0.088-0.595-0.166-0.868-0.249c-0.328-0.099-0.689-0.216-1.051-0.337
				c-0.216-0.07-0.478-0.158-0.738-0.25c-0.402-0.144-0.759-0.277-1.114-0.414l-0.675-0.266c-0.435-0.179-0.806-0.338-1.175-0.502
				c-0.207-0.092-0.423-0.189-0.639-0.289c-0.356-0.165-0.739-0.351-1.118-0.541l-0.576-0.295c-0.389-0.202-0.783-0.415-1.173-0.636
				l-0.398-0.229c-0.47-0.272-0.867-0.512-1.259-0.757l-0.377-0.242c-0.446-0.287-0.852-0.556-1.25-0.834l-0.267-0.188
				c-0.461-0.327-0.866-0.623-1.265-0.928l-0.261-0.204c-0.413-0.321-0.833-0.659-1.246-1.007l-0.159-0.137
				c-0.433-0.369-0.86-0.746-1.278-1.133c-8.393-7.769-13.207-18.777-13.207-30.202c0-12.075,5.28-23.495,14.486-31.336l0.091-0.079
				c0.475-0.401,0.891-0.734,1.312-1.063l0.263-0.206c0.399-0.305,0.804-0.601,1.214-0.892l0.336-0.237
				c0.393-0.273,0.797-0.542,1.206-0.805l0.369-0.237c0.421-0.264,0.81-0.497,1.203-0.727l0.495-0.284
				c0.395-0.222,0.777-0.43,1.165-0.632l0.561-0.286c0.375-0.189,0.758-0.374,1.145-0.554c0.235-0.109,0.454-0.208,0.672-0.304
				c0.335-0.149,0.706-0.309,1.079-0.462l0.685-0.271c0.411-0.158,0.767-0.292,1.125-0.42c0.274-0.097,0.535-0.184,0.796-0.271
				c0.346-0.114,0.697-0.229,1.052-0.336c0.306-0.092,0.597-0.173,0.889-0.254c0.387-0.106,0.705-0.194,1.026-0.273
				c0.267-0.067,0.56-0.134,0.853-0.199l0.205-0.046c0.284-0.064,0.568-0.128,0.856-0.186c0.306-0.062,0.612-0.115,0.919-0.167
				l0.235-0.041c0.273-0.048,0.546-0.096,0.821-0.137c0.34-0.05,0.659-0.089,0.978-0.127l0.324-0.04
				c0.232-0.029,0.464-0.058,0.697-0.081c0.4-0.039,0.771-0.065,1.141-0.091l0.25-0.018c0.227-0.019,0.454-0.034,0.682-0.045
				c0.574-0.029,1.19-0.046,1.813-0.049l0.211-0.002c10.992,0,21.327,4.281,29.1,12.054c0.466,0.466,0.919,0.941,1.362,1.428
				c0.878,0.966,1.723,1.99,2.51,3.042c5.354,7.158,8.183,15.676,8.183,24.631c0,1.398-0.071,2.811-0.212,4.196
				c-0.139,1.368-0.349,2.744-0.624,4.088c-0.136,0.667-0.291,1.334-0.46,1.993c-0.337,1.308-0.742,2.611-1.205,3.874
				c-0.457,1.248-0.983,2.492-1.562,3.694c-0.86,1.785-1.86,3.524-2.972,5.17c-0.732,1.085-1.528,2.149-2.365,3.164
				c-0.834,1.011-1.728,1.994-2.657,2.922c-1.39,1.392-2.896,2.695-4.472,3.873c-1.048,0.784-2.153,1.531-3.278,2.215
				c-2.859,1.736-5.924,3.12-9.112,4.112c-1.295,0.403-2.627,0.745-3.957,1.017C172.478,243.872,169.691,244.153,166.905,244.153z
				 M153.336,219.222c0.195,0.163,0.395,0.321,0.595,0.478l0.158,0.125c0.164,0.124,0.379,0.281,0.597,0.436l0.13,0.093
				c0.256,0.18,0.46,0.313,0.666,0.446l0.218,0.14c0.187,0.117,0.39,0.239,0.594,0.357l0.216,0.125
				c0.243,0.137,0.438,0.242,0.636,0.346l0.297,0.151c0.174,0.087,0.369,0.183,0.565,0.273l0.341,0.154
				c0.203,0.09,0.396,0.173,0.592,0.253l0.355,0.14c0.173,0.066,0.37,0.142,0.569,0.212l0.348,0.116
				c0.223,0.074,0.399,0.133,0.577,0.187l0.42,0.118c0.218,0.062,0.392,0.11,0.569,0.155l1.989,0.396
				c0.12,0.018,0.262,0.032,0.404,0.049l0.647,0.08c0.135,0.014,0.316,0.023,0.497,0.036l0.592,0.044
				c0.279,0.013,0.637,0.022,0.996,0.022c1.442,0,2.88-0.145,4.273-0.43c0.681-0.139,1.358-0.313,2.018-0.519
				c1.634-0.509,3.205-1.218,4.67-2.108c0.576-0.35,1.144-0.733,1.686-1.139c0.816-0.609,1.59-1.28,2.309-1.999
				c0.482-0.481,0.941-0.986,1.369-1.506c0.433-0.524,0.844-1.074,1.221-1.633c0.572-0.847,1.085-1.739,1.526-2.654
				c0.297-0.616,0.566-1.253,0.8-1.893c0.237-0.646,0.444-1.313,0.616-1.98c0.086-0.335,0.165-0.674,0.234-1.016
				c0.142-0.693,0.25-1.399,0.321-2.104c0.073-0.718,0.11-1.448,0.11-2.174c0-4.604-1.452-8.979-4.198-12.652
				c-0.405-0.541-0.841-1.069-1.294-1.567c-0.23-0.254-0.465-0.499-0.705-0.739c-3.965-3.964-9.227-6.161-14.828-6.195l-0.18,0.001
				c-0.324,0.001-0.666,0.009-1.004,0.026l-0.545,0.04c-0.181,0.013-0.363,0.023-0.542,0.041l-0.597,0.074
				c-0.144,0.018-0.287,0.033-0.429,0.055l-0.638,0.111c-0.116,0.02-0.231,0.037-0.346,0.061l-0.984,0.222
				c-0.167,0.041-0.311,0.083-0.455,0.123l-0.109,0.03c-0.141,0.038-0.282,0.076-0.422,0.118c-0.17,0.052-0.355,0.113-0.541,0.175
				l-0.407,0.137c-0.182,0.064-0.376,0.14-0.571,0.214l-0.367,0.145c-0.161,0.066-0.353,0.149-0.543,0.234l-0.348,0.156
				c-0.174,0.081-0.365,0.174-0.554,0.269l-0.299,0.153c-0.206,0.107-0.408,0.216-0.608,0.329l-0.274,0.158
				c-0.169,0.099-0.377,0.223-0.582,0.351l-0.186,0.12c-0.239,0.154-0.442,0.288-0.642,0.427l-0.173,0.124
				c-0.204,0.145-0.406,0.291-0.604,0.441l-0.215,0.169c-0.14,0.11-0.353,0.278-0.563,0.455l-0.136,0.117
				c-4.696,3.994-7.417,9.869-7.417,16.078c0,5.957,2.413,11.47,6.792,15.524c0.205,0.189,0.414,0.373,0.625,0.554L153.336,219.222z
				"/>
		</g>
		<path id="XMLID_1264_" style="fill:#B3404A;" d="M220.481,325.308h-65.615c-16.054,0-29.115-13.062-29.115-29.115V109.808
			c0-16.054,13.061-29.115,29.115-29.115h65.615c16.054,0,29.115,13.062,29.115,29.115v186.385
			C249.597,312.246,236.536,325.308,220.481,325.308z M154.866,100.692c-5.026,0-9.115,4.089-9.115,9.115v186.385
			c0,5.026,4.089,9.115,9.115,9.115h65.615c5.026,0,9.115-4.089,9.115-9.115V109.808c0-5.026-4.089-9.115-9.115-9.115
			L154.866,100.692L154.866,100.692z"/>
	</g>
	<g id="XMLID_1267_">
		<path id="XMLID_1268_" style="fill:#B3404A;" d="M272.174,50.653h-169V29.25c0-16.129,13.122-29.25,29.25-29.25h110.5
			c16.128,0,29.25,13.121,29.25,29.25V50.653z M123.174,30.653h129V29.25c0-5.101-4.149-9.25-9.25-9.25h-110.5
			c-5.101,0-9.25,4.149-9.25,9.25C123.174,29.25,123.174,30.653,123.174,30.653z"/>
	</g>
</g>
<g>
</g>
<g>
</g>
<g>
</g>
<g>
</g>
<g>
</g>
<g>
</g>
<g>
</g>
<g>
</g>
<g>
</g>
<g>
</g>
<g>
</g>
<g>
</g>
<g>
</g>
<g>
</g>
<g>
</g>
</svg>
