<?xml version="1.0" encoding="iso-8859-1"?>
<!-- Generator: Adobe Illustrator 19.0.0, SVG Export Plug-In . SVG Version: 6.00 Build 0)  -->
<svg version="1.1" id="Layer_1" xmlns="http://www.w3.org/2000/svg" xmlns:xlink="http://www.w3.org/1999/xlink" x="0px" y="0px"
	 viewBox="0 0 371 371" style="enable-background:new 0 0 371 371;" xml:space="preserve">
<g id="XMLID_1271_">
	<g id="XMLID_1272_">
		<g id="XMLID_1273_">
			<g id="XMLID_1274_">
				<circle id="XMLID_1275_" style="fill:#F4B2B0;" cx="120.642" cy="267.495" r="53.258"/>
				<path id="XMLID_1276_" style="fill:#B3404A;" d="M120.642,330.753c-34.88,0-63.258-28.377-63.258-63.258
					s28.377-63.258,63.258-63.258s63.258,28.377,63.258,63.258S155.522,330.753,120.642,330.753z M120.642,224.237
					c-23.853,0-43.258,19.405-43.258,43.258s19.405,43.258,43.258,43.258s43.258-19.405,43.258-43.258
					S144.494,224.237,120.642,224.237z"/>
			</g>
			<g id="XMLID_1279_">
				<path id="XMLID_1280_" style="fill:#B3404A;" d="M105.728,267.495h-20c0-19.252,15.663-34.915,34.914-34.915v20
					C112.418,252.58,105.728,259.271,105.728,267.495z"/>
			</g>
			<g id="XMLID_1281_">
				<circle id="XMLID_1282_" style="fill:#F4B2B0;" cx="250.358" cy="267.495" r="53.258"/>
				<path id="XMLID_1283_" style="fill:#B3404A;" d="M250.358,330.753c-34.881,0-63.258-28.377-63.258-63.258
					s28.377-63.258,63.258-63.258s63.258,28.377,63.258,63.258S285.239,330.753,250.358,330.753z M250.358,224.237
					c-23.853,0-43.258,19.405-43.258,43.258s19.405,43.258,43.258,43.258s43.258-19.405,43.258-43.258
					S274.211,224.237,250.358,224.237z"/>
			</g>
			<g id="XMLID_1286_">
				<path id="XMLID_1287_" style="fill:#B3404A;" d="M235.443,267.495h-20c0-19.252,15.663-34.915,34.915-34.915v20
					C242.134,252.58,235.443,259.271,235.443,267.495z"/>
			</g>
		</g>
		<g id="XMLID_1288_">
			<rect id="XMLID_1289_" x="171.014" y="257.495" style="fill:#B3404A;" width="28.972" height="20"/>
		</g>
	</g>
	<g id="XMLID_1290_">
		<path id="XMLID_1291_" style="fill:#B3404A;" d="M317.589,200.247h-19.478l-2.991-3.459
			c-12.563-14.526-30.755-22.857-49.911-22.857s-37.349,8.331-49.911,22.857l-2.991,3.459h-13.613l-2.991-3.459
			c-12.563-14.526-30.755-22.857-49.911-22.857c-10.833,0-21.15,2.542-30.665,7.555l-9.323-17.693
			c12.243-6.451,26.071-9.861,39.988-9.861c22.375,0,43.736,8.716,59.709,24.144c15.973-15.428,37.334-24.144,59.709-24.144
			c19.107,0,37.476,6.356,52.38,17.82V96.209H73.411v94.038h-20V76.209h264.178L317.589,200.247L317.589,200.247z"/>
	</g>
	<g id="XMLID_1292_">
		<path id="XMLID_37_" style="fill:#F4B2B0;" d="M352.603,86.209H18.397c-4.638,0-8.397-3.76-8.397-8.397V58.645
			c0-4.638,3.76-8.397,8.397-8.397h334.205c4.638,0,8.397,3.76,8.397,8.397v19.167C361,82.449,357.24,86.209,352.603,86.209z"/>
		<path id="XMLID_1293_" style="fill:#B3404A;" d="M352.603,96.209H18.397C8.253,96.209,0,87.956,0,77.812V58.645
			C0,48.5,8.253,40.247,18.397,40.247h334.205C362.747,40.247,371,48.5,371,58.645v19.167C371,87.956,362.747,96.209,352.603,96.209
			z M20,76.209h331V60.247H20V76.209z"/>
	</g>
	<g id="XMLID_1296_">
		<rect id="XMLID_1297_" x="335.5" y="90.247" style="fill:#B3404A;" width="20" height="164.791"/>
	</g>
</g>
<g>
</g>
<g>
</g>
<g>
</g>
<g>
</g>
<g>
</g>
<g>
</g>
<g>
</g>
<g>
</g>
<g>
</g>
<g>
</g>
<g>
</g>
<g>
</g>
<g>
</g>
<g>
</g>
<g>
</g>
</svg>
