<?xml version="1.0" encoding="iso-8859-1"?>
<!-- Generator: Adobe Illustrator 19.0.0, SVG Export Plug-In . SVG Version: 6.00 Build 0)  -->
<svg version="1.1" id="Layer_1" xmlns="http://www.w3.org/2000/svg" xmlns:xlink="http://www.w3.org/1999/xlink" x="0px" y="0px"
	 viewBox="0 0 366.285 366.285" style="enable-background:new 0 0 366.285 366.285;" xml:space="preserve">
<g id="XMLID_30_">
	<g id="XMLID_31_">
		<path id="XMLID_71_" style="fill:#F4B2B0;" d="M70.717,286.199l-31.01,31.01c-8.797,8.797-8.797,23.193,0,31.99l0,0
			c8.797,8.797,23.193,8.797,31.99,0l33.232-33.232C92.038,307.853,80.499,297.794,70.717,286.199z"/>
		<path id="XMLID_85_" style="fill:#B3404A;" d="M55.702,365.797c-8.731,0-16.922-3.383-23.066-9.526
			c-12.719-12.719-12.719-33.414,0-46.133l38.706-38.706l7.019,8.319c9.163,10.861,19.894,20.199,31.896,27.753l10.604,6.674
			l-42.092,42.093C72.625,362.414,64.433,365.797,55.702,365.797z M70.356,300.703l-23.577,23.578
			c-4.921,4.92-4.921,12.927,0,17.848c2.366,2.366,5.535,3.669,8.923,3.669s6.558-1.303,8.924-3.669l24.728-24.728
			C82.585,312.355,76.237,306.775,70.356,300.703z"/>
	</g>
	<g id="XMLID_88_">
		<path id="XMLID_89_" style="fill:#F4B2B0;" d="M326.578,317.209l-31.01-31.01c-9.781,11.594-21.321,21.654-34.212,29.768
			l33.232,33.232c8.797,8.797,23.193,8.797,31.99,0l0,0C335.375,340.402,335.375,326.006,326.578,317.209z"/>
		<path id="XMLID_90_" style="fill:#B3404A;" d="M310.583,365.797c-8.731,0-16.922-3.383-23.066-9.526l-42.092-42.092l10.604-6.674
			c12.002-7.555,22.733-16.893,31.896-27.753l7.019-8.319l38.706,38.706c12.719,12.719,12.719,33.414,0,46.133
			C327.505,362.414,319.314,365.797,310.583,365.797z M276.932,317.401l24.728,24.727c2.366,2.366,5.535,3.669,8.924,3.669
			s6.558-1.303,8.923-3.669c4.921-4.92,4.921-12.927,0-17.848l-23.577-23.578C290.048,306.775,283.7,312.355,276.932,317.401z"/>
	</g>
	<g id="XMLID_93_">
		<g id="XMLID_102_">
			<path id="XMLID_103_" style="fill:#F4B2B0;" d="M133.143,52.971c-8.624-24.73-32.135-42.481-59.805-42.481
				C38.357,10.49,10,38.847,10,73.827c0,25.882,15.532,48.123,37.776,57.95C61.985,93.703,93.703,64.165,133.143,52.971z"/>
			<path id="XMLID_104_" style="fill:#B3404A;" d="M53.437,145.208l-9.702-4.286C17.167,129.187,0,102.85,0,73.827
				C0,33.389,32.899,0.49,73.337,0.49c31.159,0,58.988,19.767,69.248,49.188l3.493,10.017l-10.205,2.896
				c-36.141,10.257-65.571,37.428-78.728,72.682L53.437,145.208z M73.337,20.49C43.927,20.49,20,44.417,20,73.827
				c0,17.654,8.737,33.943,22.904,43.796c15.351-32.495,42.939-57.965,76.52-70.646C110,30.811,92.538,20.49,73.337,20.49z"/>
		</g>
		<g id="XMLID_107_">
			<path id="XMLID_108_" style="fill:#F4B2B0;" d="M292.948,10.49c-27.671,0-51.182,17.751-59.805,42.481
				c39.439,11.194,71.158,40.732,85.366,78.805c22.244-9.827,37.776-32.068,37.776-57.95
				C356.285,38.847,327.928,10.49,292.948,10.49z"/>
			<path id="XMLID_109_" style="fill:#B3404A;" d="M312.848,145.208l-3.708-9.937c-13.157-35.253-42.587-62.424-78.728-72.682
				l-10.205-2.896l3.493-10.017c10.26-29.421,38.089-49.188,69.248-49.188c40.438,0,73.337,32.899,73.337,73.337
				c0,29.022-17.167,55.359-43.735,67.097L312.848,145.208z M246.861,46.978c33.581,12.68,61.169,38.15,76.52,70.646
				c14.167-9.854,22.904-26.143,22.904-43.796c0-29.41-23.927-53.337-53.337-53.337C273.747,20.49,256.285,30.811,246.861,46.978z"
				/>
		</g>
		<g id="XMLID_169_">
			<path id="XMLID_197_" style="fill:#B3404A;" d="M183.143,348.485c-86.588,0-157.032-70.444-157.032-157.032
				S96.555,34.42,183.143,34.42s157.032,70.444,157.032,157.032S269.73,348.485,183.143,348.485z M183.143,54.42
				c-75.56,0-137.032,61.473-137.032,137.032s61.473,137.032,137.032,137.032s137.032-61.473,137.032-137.032
				S258.702,54.42,183.143,54.42z"/>
		</g>
		<g id="XMLID_223_">
			<path id="XMLID_224_" style="fill:#B3404A;" d="M183.143,314.554c-67.878,0-123.102-55.223-123.102-123.102
				S115.264,68.351,183.143,68.351v20c-56.851,0-103.102,46.251-103.102,103.102s46.251,103.102,103.102,103.102
				s103.102-46.251,103.102-103.102h20C306.244,259.331,251.021,314.554,183.143,314.554z"/>
		</g>
		<g id="XMLID_225_">
			<polygon id="XMLID_226_" style="fill:#B3404A;" points="185.117,214.93 133.43,189.087 142.374,171.198 181.168,190.594 
				232.622,139.141 246.765,153.283 			"/>
		</g>
	</g>
</g>
<g>
</g>
<g>
</g>
<g>
</g>
<g>
</g>
<g>
</g>
<g>
</g>
<g>
</g>
<g>
</g>
<g>
</g>
<g>
</g>
<g>
</g>
<g>
</g>
<g>
</g>
<g>
</g>
<g>
</g>
</svg>
