<svg height="512pt" viewBox="0 0 512 512" width="512pt" xmlns="http://www.w3.org/2000/svg"><path d="m482 136h-452c-11.050781 0-20 8.949219-20 20v326c0 11.050781 8.949219 20 20 20h452c11.050781 0 20-8.949219 20-20v-326c0-11.050781-8.949219-20-20-20zm0 0" fill="#866d67"/><path d="m259 136h180v90h-180zm0 0" fill="#fff2fb"/><path d="m196 136c0 11.339844-3.179688 21.878906-8.679688 30.871094-16.351562 26.738281-21.320312 58.9375-21.320312 90.289062.671875 4.296875-4.675781 35.332032 23.820312 92.46875 3.949219 7.941406 6.179688 16.882813 6.179688 26.371094 0 33.140625-26.871094 60-60 60-29.175781 0-52.144531-20.355469-58.160156-44.949219-4.148438-17-1.03125-33.050781 6.839844-45.921875 16.351562-26.738281 21.320312-58.9375 21.320312-90.289062-.671875-4.296875 4.675781-35.332032-23.820312-92.46875-3.949219-7.941406-6.179688-16.882813-6.179688-26.371094 0-37.378906 34.179688-66.769531 72.980469-58.640625 25.550781 5.359375 47.019531 28.496094 47.019531 58.640625zm0 0" fill="#76e2f8"/><path d="m449 296c0 5.523438-4.476562 10-10 10s-10-4.476562-10-10 4.476562-10 10-10 10 4.476562 10 10zm0 0"/><path d="m389 296c0 5.523438-4.476562 10-10 10s-10-4.476562-10-10 4.476562-10 10-10 10 4.476562 10 10zm0 0"/><path d="m389 351c0 5.523438-4.476562 10-10 10s-10-4.476562-10-10 4.476562-10 10-10 10 4.476562 10 10zm0 0"/><path d="m389 406c0 5.523438-4.476562 10-10 10s-10-4.476562-10-10 4.476562-10 10-10 10 4.476562 10 10zm0 0"/><path d="m329 296c0 5.523438-4.476562 10-10 10s-10-4.476562-10-10 4.476562-10 10-10 10 4.476562 10 10zm0 0"/><path d="m329 351c0 5.523438-4.476562 10-10 10s-10-4.476562-10-10 4.476562-10 10-10 10 4.476562 10 10zm0 0"/><path d="m329 406c0 5.523438-4.476562 10-10 10s-10-4.476562-10-10 4.476562-10 10-10 10 4.476562 10 10zm0 0"/><path d="m269 296c0 5.523438-4.476562 10-10 10s-10-4.476562-10-10 4.476562-10 10-10 10 4.476562 10 10zm0 0"/><path d="m269 351c0 5.523438-4.476562 10-10 10s-10-4.476562-10-10 4.476562-10 10-10 10 4.476562 10 10zm0 0"/><path d="m269 406c0 5.523438-4.476562 10-10 10s-10-4.476562-10-10 4.476562-10 10-10 10 4.476562 10 10zm0 0"/><path d="m429 406c0 5.523438 4.476562 10 10 10s10-4.476562 10-10v-60c0-5.523438-4.476562-10-10-10s-10 4.476562-10 10zm0 0"/><path d="m289 502c0 5.523438-4.476562 10-10 10s-10-4.476562-10-10 4.476562-10 10-10 10 4.476562 10 10zm0 0"/><path d="m482 126h-33v-116c0-5.523438-4.476562-10-10-10s-10 4.476562-10 10v116h-223.710938c-4.203124-30.078125-27.371093-52.789062-54.257812-58.429688-40.488281-8.480468-78.601562 18.621094-84.296875 58.429688h-36.734375c-16.542969 0-30 13.457031-30 30v326c0 16.542969 13.457031 30 30 30h203.996094c5.523437 0 10-4.476562 10-10s-4.476563-10-10-10h-87.996094v-46.726562c47.105469-6.769532 73.757812-57.902344 52.769531-100.105469-26.996093-54.132813-22.179687-83.386719-22.769531-88.007813 0-35.398437 6.492188-63.226562 19.851562-85.070312 4.890626-7.996094 8.074219-16.871094 9.417969-26.089844h43.730469v80c0 5.523438 4.476562 10 10 10h180c5.523438 0 10-4.476562 10-10v-80h33c5.515625 0 10 4.484375 10 10v326c0 5.515625-4.484375 10-10 10h-158c-5.523438 0-10 4.476562-10 10s4.476562 10 10 10h158c16.542969 0 30-13.457031 30-30v-326c0-16.542969-13.457031-30-30-30zm-452 366c-5.515625 0-10-4.484375-10-10v-326c0-5.515625 4.484375-10 10-10h36.710938c1.042968 7.226562 3.222656 14.199219 6.519531 20.832031 26.996093 54.132813 22.179687 83.386719 22.769531 88.007813 0 35.398437-6.492188 63.226562-19.851562 85.074218-25.769532 42.136719-.222657 98.40625 49.851562 105.367188v46.71875zm148.789062-330.347656c-15.335937 25.078125-22.789062 56.320312-22.789062 95.507812.621094 4.957032-4.617188 37.808594 24.867188 96.921875 16.230468 32.640625-7.667969 71.917969-44.867188 71.917969-40.324219 0-62.359375-43.648438-42.789062-75.652344 15.335937-25.078125 22.789062-56.320312 22.789062-95.507812-.621094-4.957032 4.617188-37.808594-24.867188-96.921875-3.40625-6.851563-5.132812-14.222657-5.132812-21.917969 0-31.335938 28.644531-55.613281 60.929688-48.851562 21.074218 4.417968 39.070312 23.546874 39.070312 48.851562 0 9.070312-2.492188 17.941406-7.210938 25.652344zm250.210938 54.347656h-160v-70h160zm0 0"/></svg>