<svg height="512pt" viewBox="0 0 512 512" width="512pt" xmlns="http://www.w3.org/2000/svg"><path d="m482 226h-452c-11.050781 0-20 8.949219-20 20s8.949219 20 20 20h10v180h240c0-10 0-170 0-180h202c11.050781 0 20-8.949219 20-20s-8.949219-20-20-20zm0 0" fill="#ffc473"/><path d="m250 40v126h-60v-126c0-16.570312 13.429688-30 30-30s30 13.429688 30 30zm0 0" fill="#76e2f8"/><path d="m190 40v126h-60v-126c0-16.570312 13.429688-30 30-30s30 13.429688 30 30zm0 0" fill="#ff712f"/><path d="m130 40v126h-60v-126c0-16.570312 13.429688-30 30-30s30 13.429688 30 30zm0 0" fill="#76e2f8"/><path d="m30 176h260c16.542969 0 30-13.457031 30-30v-10c0-5.523438-4.476562-10-10-10s-10 4.476562-10 10v10c0 5.515625-4.484375 10-10 10h-30v-116c0-22.054688-17.945312-40-40-40-11.9375 0-22.664062 5.265625-30 13.585938-7.335938-8.320313-18.0625-13.585938-30-13.585938s-22.664062 5.265625-30 13.585938c-7.335938-8.320313-18.0625-13.585938-30-13.585938-22.054688 0-40 17.945312-40 40v116h-30c-5.515625 0-10-4.484375-10-10v-10c0-5.523438-4.476562-10-10-10s-10 4.476562-10 10v10c0 16.542969 13.457031 30 30 30zm190-156c11.027344 0 20 8.972656 20 20v116h-40v-116c0-11.027344 8.972656-20 20-20zm-60 0c11.027344 0 20 8.972656 20 20v116h-40v-116c0-11.027344 8.972656-20 20-20zm-80 20c0-11.027344 8.972656-20 20-20s20 8.972656 20 20v116h-40zm0 0"/><path d="m260 226c0 5.523438-4.476562 10-10 10s-10-4.476562-10-10 4.476562-10 10-10 10 4.476562 10 10zm0 0"/><path d="m482 216h-187c-5.523438 0-10 4.476562-10 10s4.476562 10 10 10h187c5.515625 0 10 4.484375 10 10s-4.484375 10-10 10h-452c-5.515625 0-10-4.484375-10-10s4.484375-10 10-10h175c5.523438 0 10-4.476562 10-10s-4.476562-10-10-10h-175c-16.542969 0-30 13.457031-30 30s13.457031 30 30 30v226c0 5.523438 4.476562 10 10 10s10-4.476562 10-10v-46h220v46c0 5.523438 4.476562 10 10 10s10-4.476562 10-10v-226h172v226c0 5.523438 4.476562 10 10 10s10-4.476562 10-10v-226c16.542969 0 30-13.457031 30-30s-13.457031-30-30-30zm-432 220v-70h100v20c0 5.523438 4.476562 10 10 10s10-4.476562 10-10v-20h100v70zm220-90h-220v-70h100v20c0 5.523438 4.476562 10 10 10s10-4.476562 10-10v-20h100zm0 0"/></svg>