<svg height="512pt" viewBox="-36 0 512 512" width="512pt" xmlns="http://www.w3.org/2000/svg"><path d="m410 10h-260c-11.050781 0-20 8.949219-20 20v110c0 11.050781 8.949219 20 20 20h260c11.050781 0 20-8.949219 20-20v-110c0-11.050781-8.949219-20-20-20zm0 0" fill="#76e2f8"/><path d="m370 310h-33.429688c20.390626-24.75 33.429688-62.589844 33.429688-105 0-69.820312-37.253906-135-90-135-56.804688 0-90 71.539062-90 135 0 42.410156 13.039062 80.25 33.429688 105h-33.429688c0 39.371094 19.21875 80 48.511719 101.878906-11.453125 15.101563-18.511719 33.710938-18.511719 54.121094v36h120v-36c0-20.410156-7.058594-39.019531-18.511719-54.121094 29.292969-21.878906 48.511719-62.507812 48.511719-101.878906zm0 0" fill="#fff2fb"/><path d="m100 310h-90v-90c49.710938 0 90 40.289062 90 90zm0 0" fill="#76e2f8"/><path d="m230 215c5.523438 0 10-4.476562 10-10 0-51.097656 24.074219-85 40-85s40 33.902344 40 85c0 5.523438 4.476562 10 10 10s10-4.476562 10-10c0-41.179688-19.988281-105-60-105-39.78125 0-60 63.316406-60 105 0 5.523438 4.476562 10 10 10zm0 0"/><path d="m100 320c5.523438 0 10-4.476562 10-10 0-55.140625-44.859375-100-100-100-5.523438 0-10 4.476562-10 10v90c0 5.523438 4.476562 10 10 10zm-80-89.378906c36.132812 4.527344 64.851562 33.25 69.378906 69.378906h-69.378906zm0 0"/><path d="m290 10c0 5.523438-4.476562 10-10 10s-10-4.476562-10-10 4.476562-10 10-10 10 4.476562 10 10zm0 0"/><path d="m120 30v110c0 16.542969 13.457031 29.988281 30 29.988281h32.914062c-1.929687 11.371094-2.914062 23.105469-2.914062 35.011719 0 35.320312 8.695312 68.875 24.257812 95h-44.257812c-5.523438 0-10 4.476562-10 10s4.476562 10 10 10h20.378906c2.648438 36.070312 19.394532 71.214844 44.683594 93.789062-9.878906 15.859376-15.0625 33.734376-15.0625 52.210938v36c0 5.523438 4.476562 10 10 10h120c5.523438 0 10-4.476562 10-10v-36c0-18.476562-5.183594-36.351562-15.0625-52.210938 25.289062-22.574218 42.035156-57.71875 44.683594-93.789062h20.378906c5.523438 0 10-4.476562 10-10s-4.476562-10-10-10h-44.257812c15.5625-26.125 24.257812-59.679688 24.257812-95 0-11.90625-.984375-23.632812-2.914062-35h32.914062c16.542969 0 30-13.457031 30-30v-110c0-16.542969-13.457031-30-30-30h-85c-5.523438 0-10 4.476562-10 10s4.476562 10 10 10h85c5.515625 0 10 4.484375 10 10v110c0 5.515625-4.484375 10-10 10h-37.386719c-15.179687-54.160156-51.703125-90-92.613281-90s-77.4375 35.84375-92.617188 90h-37.382812c-5.515625 0-10-4.484375-10-10v-110c0-5.515625 4.484375-10 10-10h85c5.523438 0 10-4.476562 10-10s-4.476562-10-10-10h-85c-16.542969 0-30 13.457031-30 30zm195.507812 373.867188c-2.136718 1.597656-3.546874 3.976562-3.917968 6.613281-.375 2.640625.320312 5.316406 1.933594 7.441406 10.777343 14.214844 16.476562 30.839844 16.476562 48.078125v26h-100v-26c0-17.238281 5.699219-33.863281 16.476562-48.078125 1.613282-2.121094 2.308594-4.800781 1.9375-7.4375-.375-2.640625-1.785156-5.019531-3.917968-6.617187-24.171875-18.054688-41.140625-50.84375-44.046875-83.875h159.105469c-2.910157 33.03125-19.875 65.820312-44.046876 83.875zm-35.507812-323.867188c46.390625 0 80 60.253906 80 125 0 36.757812-10.269531 71.058594-28.292969 95h-103.414062c-18.023438-23.941406-28.292969-58.242188-28.292969-95 0-65.550781 34.199219-125 80-125zm0 0"/></svg>