<svg height="512pt" viewBox="-54 0 512 512" width="512pt" xmlns="http://www.w3.org/2000/svg"><path d="m170 138h64v364h-64zm0 0" fill="#866d67"/><path d="m374 10h-24c-11.050781 0-20 8.949219-20 20v12h-64v-12c0-11.050781-8.949219-20-20-20h-88c-11.050781 0-20 8.949219-20 20v12c-70.691406 0-128 57.308594-128 128 19.609375-39.21875 59.699219-64 103.550781-64h24.449219v12c0 11.050781 8.949219 20 20 20h88c11.050781 0 20-8.949219 20-20v-12h64v12c0 11.050781 8.949219 20 20 20h24c11.050781 0 20-8.949219 20-20v-88c0-11.050781-8.949219-20-20-20zm0 0" fill="#fff2fb"/><path d="m210 10c0 5.523438-4.476562 10-10 10s-10-4.476562-10-10 4.476562-10 10-10 10 4.476562 10 10zm0 0"/><path d="m148 30c0-4.910156 3.648438-9.160156 8.484375-9.886719 5.464844-.824219 9.226563-5.914062 8.40625-11.375-.824219-5.460937-5.921875-9.226562-11.375-8.402343-14.546875 2.183593-25.515625 14.9375-25.515625 29.664062v2.363281c-71.441406 5.144531-128 64.90625-128 137.636719 0 4.636719 3.1875 8.667969 7.703125 9.730469 4.511719 1.066406 9.164063-1.109375 11.242187-5.257813 18.03125-36.066406 54.285157-58.472656 94.605469-58.472656h14.449219v2c0 16.542969 13.457031 30 30 30h2v354c0 5.523438 4.476562 10 10 10h64c5.523438 0 10-4.476562 10-10v-354h2c16.542969 0 30-13.457031 30-30v-2h44v2c0 16.542969 13.457031 30 30 30h24c16.542969 0 30-13.457031 30-30v-88c0-16.542969-13.457031-30-30-30h-24c-16.542969 0-30 13.457031-30 30v2h-44v-2c0-16.542969-13.457031-30-30-30h-1c-5.523438 0-10 4.476562-10 10s4.476562 10 10 10h1c5.515625 0 10 4.484375 10 10v88c0 5.515625-4.484375 10-10 10h-88c-5.515625 0-10-4.484375-10-10zm182 22c5.523438 0 10-4.476562 10-10v-12c0-5.515625 4.484375-10 10-10h24c5.515625 0 10 4.484375 10 10v88c0 5.515625-4.484375 10-10 10h-24c-5.515625 0-10-4.484375-10-10v-12c0-5.523438-4.476562-10-10-10h-54v-44zm-106 440h-44v-344h44zm-110.449219-396c-23.375 0-46.238281 6.496094-66.121093 18.785156-7.492188 4.628906-14.4375 10.003906-20.738282 16.023438 15.128906-42.847656 54.351563-74.421875 101.308594-78.378906v43.570312zm0 0"/></svg>