<svg height="512pt" viewBox="-4 0 512 512.00133" width="512pt" xmlns="http://www.w3.org/2000/svg"><path d="m143.28125 487.859375-42.429688-42.429687-48.421874 48.433593-42.429688-42.433593 253.804688-253.652344c-9.042969-4.300782-17.632813-9.839844-25.109376-17.320313-35.152343-35.148437-35.152343-92.128906 0-127.28125 31.96875-31.96875 81.839844-34.53125 117.078126-8.328125 2.890624-4.550781 6.222656-8.910156 10.203124-12.882812 29.289063-29.289063 76.769532-29.289063 106.058594 0 29.292969 29.292968 29.292969 76.773437 0 106.0625-3.96875 3.980468-8.328125 7.308594-12.878906 10.199218 26.199219 35.242188 23.640625 85.113282-8.332031 117.082032-35.148438 35.152344-92.128907 35.152344-127.28125 0-7.480469-7.480469-13.019531-16.070313-17.320313-25.109375l-120.511718 120.378906 42.421874 42.433594c-4.71875 4.714843-80.136718 80.132812-84.851562 84.847656zm300.476562-385.183594c11.707032-11.71875 11.707032-30.710937 0-42.429687-11.722656-11.710938-30.710937-11.710938-42.433593 0-11.710938 11.71875-11.710938 30.710937 0 42.429687 11.722656 11.710938 30.710937 11.710938 42.433593 0zm0 0" fill="#ffc473"/><path d="m373.046875 215.816406c-3.90625-3.90625-10.238281-3.90625-14.144531 0s-3.90625 10.238282 0 14.144532c15.59375 15.589843 40.96875 15.59375 56.566406-.003907 13.992188-14.007812 15.488281-35.835937 3.554688-51.910156-3.289063-4.433594-9.554688-5.359375-13.988282-2.070313-4.4375 3.292969-5.363281 9.554688-2.070312 13.992188 5.972656 8.046875 5.28125 18.917969-1.640625 25.847656-7.796875 7.796875-20.480469 7.796875-28.277344 0zm0 0"/><path d="m314.035156 101.035156c4.433594 3.292969 10.699219 2.367188 13.988282-2.070312 3.292968-4.433594 2.367187-10.695313-2.066407-13.988282-16.074219-11.933593-37.90625-10.433593-51.914062 3.558594-15.59375 15.59375-15.59375 40.96875 0 56.5625 3.90625 3.90625 10.238281 3.90625 14.144531 0 3.902344-3.90625 3.902344-10.238281 0-14.140625-7.796875-7.796875-7.796875-20.484375-.003906-28.277343 6.929687-6.925782 17.804687-7.617188 25.851562-1.644532zm0 0"/><path d="m394.25 53.179688c-15.582031 15.59375-15.582031 40.96875.007812 56.570312 15.59375 15.582031 40.972657 15.582031 56.566407 0 0 0 .003906-.003906.003906-.003906 15.585937-15.597656 15.585937-40.972656-.003906-56.574219-15.59375-15.582031-40.972657-15.582031-56.574219.007813zm42.433594 42.425781c-7.800782 7.792969-20.492188 7.789062-28.285156.003906-7.792969-7.800781-7.792969-20.496094-.003907-28.289063 7.792969-7.785156 20.484375-7.800781 28.289063-.007812 7.792968 7.800781 7.792968 20.492188 0 28.292969zm0 0"/><path d="m482.039062 31.964844c0 5.519531-4.476562 10-10 10-5.523437 0-10-4.480469-10-10 0-5.523438 4.476563-10.003906 10-10.003906 5.523438 0 10 4.480468 10 10.003906zm0 0"/><path d="m0 451.429688c0 2.652343 1.054688 5.195312 2.929688 7.070312l42.429687 42.433594c3.902344 3.902344 10.238281 3.902344 14.144531-.003906l41.347656-41.355469 49.5 49.5c3.90625 3.902343 10.238282 3.902343 14.144532 0 3.902344-3.90625 3.902344-10.238281 0-14.144531l-7.070313-7.070313c19.347657-19.347656 57.832031-57.832031 70.710938-70.707031l7.066406 7.070312c3.90625 3.902344 10.238281 3.902344 14.144531 0 3.902344-3.90625 3.902344-10.238281 0-14.144531l-49.488281-49.496094 104.039063-103.925781c3.726562 5.835938 7.890624 11.039062 12.578124 15.722656 39.082032 39.082032 102.335938 39.089844 141.421876 0 32.332031-32.332031 38.335937-82.394531 14.9375-121.648437 2.230468-1.796875 4.3125-3.667969 6.273437-5.632813 19.605469-19.601562 28.425781-47.621094 23.597656-74.953125-.960937-5.4375-6.152343-9.066406-11.589843-8.109375-5.4375.960938-9.066407 6.148438-8.105469 11.589844 3.691406 20.90625-3.050781 42.339844-18.050781 57.339844-3.175782 3.179687-6.824219 6.0625-11.164063 8.820312-2.347656 1.488282-3.964844 3.890625-4.472656 6.625-.503907 2.734375.152343 5.554688 1.8125 7.785156 23.882812 32.125 20.78125 75.882813-7.378907 104.042969-31.265624 31.265625-81.867187 31.269531-113.136718 0-6.082032-6.082031-11.105469-13.386719-15.363282-22.335937-1.394531-2.933594-4.125-5.007813-7.328124-5.558594-3.199219-.554688-6.46875.484375-8.769532 2.777344l-120.511718 120.382812c-1.875 1.875-2.929688 4.417969-2.933594 7.070313 0 2.652343 1.054687 5.199219 2.929687 7.074219l35.351563 35.359374-28.28125 28.28125-35.359375-35.351562c-3.90625-3.90625-10.238281-3.90625-14.140625 0-3.90625 3.90625-3.90625 10.238281 0 14.144531l35.355468 35.347657-28.285156 28.289062-35.359375-35.359375c-3.90625-3.90625-10.238281-3.90625-14.144531 0 0 0-.003906 0-.003906.003906l-41.347656 41.351563-28.285157-28.285156 246.730469-246.582032c2.296875-2.296875 3.335938-5.566406 2.785156-8.769531-.550781-3.203125-2.625-5.9375-5.558594-7.332031-8.949218-4.257813-16.257812-9.28125-22.335937-15.363282-31.191406-31.191406-31.191406-81.945312 0-113.136718 28.160156-28.160156 71.917969-31.261719 104.042969-7.378906 2.230468 1.660156 5.050781 2.3125 7.785156 1.808593 2.730469-.503906 5.132812-2.125 6.625-4.46875 2.753906-4.339843 5.640625-7.992187 8.828125-11.171875 14.996094-14.996094 36.433594-21.742187 57.347656-18.039062 5.4375.960937 10.625-2.667969 11.589844-8.105469.960937-5.4375-2.667969-10.628906-8.105469-11.589844-27.335937-4.835937-55.363281 3.984375-74.964844 23.582031-1.972656 1.96875-3.847656 4.050782-5.644531 6.28125-39.246093-23.386718-89.304687-17.398437-121.648437 14.941407-38.988282 38.988281-38.988282 102.433593 0 141.421875 4.683594 4.683594 9.882812 8.847656 15.714844 12.570312l-244.402344 244.261719c-1.878906 1.875-2.933594 4.417969-2.933594 7.070313zm0 0"/></svg>