<svg height="512pt" viewBox="0 -81 512.0009 512" width="512pt" xmlns="http://www.w3.org/2000/svg"><path d="m376.160156 79.8125c11.15625 0 20.171875 9.078125 20.101563 20.222656-.070313 11.058594-9.046875 19.804688-20.101563 19.804688h-239.898437c-11.117188 0-20.121094-8.855469-20.09375-19.972656.019531-11.078126 9.015625-20.054688 20.09375-20.054688zm0 0" fill="#ff712f"/><path d="m256.171875 219.996094c16.539063.019531 29.957031 13.4375 29.957031 29.988281 0 16.5625-13.417968 29.980469-29.957031 30-.011719 0-.03125 0-.042969 0-16.570312 0-30-13.429687-30-30 0-16.558594 13.429688-29.988281 30-29.988281zm0 0" fill="#ff712f"/><path d="m24.617188 240.28125-24.316407 97.273438c-1.339843 5.363281 1.917969 10.796874 7.28125 12.136718 5.386719 1.347656 10.800781-1.945312 12.132813-7.28125l24.316406-97.269531c2.246094-8.964844 10.222656-15.230469 19.402344-15.230469h49.152344c9.171874 0 17.148437 6.265625 19.390624 15.226563l24.316407 97.273437c1.339843 5.359375 6.765625 8.621094 12.136719 7.28125 5.359374-1.339844 8.621093-6.773437 7.277343-12.136718l-24.316406-97.273438c-.925781-3.710938-2.355469-7.1875-4.195313-10.371094h18.804688c5.527344 0 10.007812-4.476562 10.007812-10.003906s-4.480468-10.007812-10.007812-10.007812h-99.972656c-10.058594 0-18.382813-7.179688-19.796875-17.074219l-26.316407-184.230469c-.78125-5.472656-5.855468-9.273438-11.320312-8.492188-5.46875.78125-9.273438 5.851563-8.488281 11.320313l26.316406 184.230469c1.292969 9.066406 5.660156 17.09375 11.941406 23.097656-6.617187 5.335938-11.558593 12.789062-13.746093 21.53125zm0 0"/><path d="m485.578125 195.652344 26.320313-184.230469c.78125-5.46875-3.023438-10.539063-8.492188-11.320313-5.472656-.78125-10.539062 3.019532-11.320312 8.492188l-26.316407 184.230469c-1.414062 9.894531-9.738281 17.074219-19.792969 17.074219h-99.988281c-5.523437 0-10.003906 4.480468-10.003906 10.007812s4.480469 10.003906 10.003906 9.996094h18.808594c-1.832031 3.195312-3.261719 6.667968-4.1875 10.378906l-24.328125 97.273438c-1.339844 5.363281 1.917969 10.796874 7.28125 12.136718 5.359375 1.339844 10.792969-1.914062 12.136719-7.28125l24.324219-97.277344c2.238281-8.960937 10.210937-15.222656 19.390624-15.222656h49.152344c9.179688 0 17.15625 6.265625 19.402344 15.226563l24.316406 97.273437c1.339844 5.359375 6.765625 8.621094 12.132813 7.28125 5.363281-1.339844 8.621093-6.773437 7.28125-12.136718l-24.316407-97.273438c-2.191406-8.746094-7.128906-16.195312-13.746093-21.53125 6.28125-6.003906 10.648437-14.03125 11.941406-23.097656zm0 0"/><path d="m266.175781 79.8125c0 5.527344-4.480469 10.007812-10.003906 10.007812-5.527344 0-10.007813-4.480468-10.007813-10.007812 0-5.523438 4.480469-10.003906 10.007813-10.003906 5.523437 0 10.003906 4.480468 10.003906 10.003906zm0 0"/><path d="m136.261719 89.820312h74.878906c5.527344 0 10.003906-4.480468 10.003906-10.007812 0-5.523438-4.476562-10.003906-10.003906-10.003906h-74.878906c-16.566407 0-30.070313 13.476562-30.101563 30.03125-.042968 16.625 13.394532 30.007812 30.101563 30.007812h109.902343v81.398438c-17.253906 4.4375-30.039062 20.125-30.039062 38.738281 0 18.609375 12.769531 34.292969 30.039062 38.742187v41.25h-20.164062c-5.527344 0-10.007812 4.480469-10.007812 10.007813s4.480468 10.007813 10.007812 10.007813h60c5.527344 0 10.003906-4.480469 10.003906-10.007813s-4.476562-10.007813-10.003906-10.007813h-19.824219v-41.261718c17.210938-4.472656 29.960938-20.144532 29.960938-38.730469 0-18.578125-12.75-34.246094-29.960938-38.714844v-81.421875h109.980469c16.5 0 30.007812-13.34375 30.113281-29.746094.101563-16.714843-13.390625-30.292968-30.113281-30.292968h-74.957031c-5.527344 0-10.007813 4.480468-10.007813 10.007812 0 5.523438 4.480469 10.003906 10.007813 10.003906h74.957031c5.601562 0 10.132812 4.542969 10.097656 10.15625-.035156 5.527344-4.46875 9.859376-10.097656 9.859376h-239.894531c-5.617188 0-10.101563-4.390626-10.085938-9.949219.007813-5.550781 4.535157-10.066407 10.085938-10.066407zm139.859375 160.164063c0 11.011719-8.957032 19.980469-19.992188 19.992187-11.023437 0-19.992187-8.96875-19.992187-19.992187 0-11.019531 8.96875-19.980469 19.992187-19.980469h.027344c11.011719.011719 19.964844 8.976563 19.964844 19.980469zm0 0"/></svg>