<svg height="512pt" viewBox="-86 0 512 512" width="512pt" xmlns="http://www.w3.org/2000/svg"><path d="m250 442c-60 0-41.378906-116.148438-41.378906-116.148438l-.132813-.53125h-76.976562l-.132813.53125s2.730469 17.039063 2.730469 38.058594c0 33.871094-7.089844 78.089844-44.109375 78.089844-16.570312 0-30 13.429688-30 30v10c0 11.050781 8.949219 20 20 20h180c11.050781 0 20-8.949219 20-20v-10c0-16.558594-13.4375-30-30-30zm0 0" fill="#76e2f8"/><path d="m170 10c88.21875 0 160 71.78125 160 160 0 74.960938-51.820312 138.039062-121.511719 155.320312-12.328125 3.058594-25.226562 4.679688-38.488281 4.679688s-26.160156-1.621094-38.488281-4.679688c-69.691407-17.28125-121.511719-80.359374-121.511719-155.320312 0-88.21875 71.78125-160 160-160zm0 0" fill="#fff2fb"/><path d="m204.058594 174.488281h-.007813c.621094-2.386719.949219-4.898437.949219-7.488281h90c0-33.140625-26.859375-60-60-60-22.601562 0-42.269531 12.488281-52.511719 30.941406v.007813c-2.386719-.621094-4.898437-.949219-7.488281-.949219v-90c-33.140625 0-60 26.859375-60 60 0 22.601562 12.488281 42.269531 30.941406 52.511719h.007813c-.621094 2.386719-.949219 4.898437-.949219 7.488281h-90c0 33.140625 26.859375 60 60 60 22.601562 0 42.269531-12.488281 52.511719-30.941406v-.007813c2.386719.621094 4.898437.949219 7.488281.949219v90c33.140625 0 60-26.859375 60-60 0-22.601562-12.488281-42.269531-30.941406-52.511719zm0 0" fill="#76e2f8"/><path d="m200 170c0 16.570312-13.429688 30-30 30s-30-13.429688-30-30 13.429688-30 30-30 30 13.429688 30 30zm0 0" fill="#866d67"/><path d="m122.269531 333.175781c.765625 6.507813 1.839844 17.894531 1.839844 30.734375 0 31.0625-5.917969 68.089844-34.109375 68.089844-22.054688 0-40 17.945312-40 40v10c0 16.542969 13.457031 30 30 30h45c5.523438 0 10-4.476562 10-10s-4.476562-10-10-10h-45c-5.515625 0-10-4.484375-10-10v-10c0-11.027344 8.972656-20 20-20 20.207031 0 54.109375-11.445312 54.109375-88.089844 0-10.023437-.589844-19.132812-1.238281-26.089844 8.9375 1.4375 18.015625 2.179688 27.128906 2.179688 9.109375 0 18.183594-.738281 27.117188-2.179688-.605469 6.515626-1.066407 14.90625-1.117188 24.179688-.242188 43.433594 10.601562 90 54 90 11.046875 0 20 8.953125 20 20v10c0 5.515625-4.484375 10-10 10h-45c-5.523438 0-10 4.476562-10 10s4.476562 10 10 10h45c16.542969 0 30-13.457031 30-30v-10c0-22.097656-17.898438-40-40-40-29.585938 0-34.285156-40.417969-34.109375-70 .066406-11.042969.882813-21.28125 1.804687-28.816406 69.480469-20.394532 122.304688-84.753906 122.304688-163.183594 0-93.738281-76.261719-170-170-170s-170 76.261719-170 170c0 78.136719 52.539062 142.6875 122.269531 163.175781zm47.730469-313.175781c82.710938 0 150 67.289062 150 150 0 83.605469-67.890625 150.519531-151 149.976562-82.074219-.539062-149-66.890624-149-149.976562 0-82.710938 67.289062-150 150-150zm0 0"/><path d="m110 240c19.050781 0 37-7.761719 50-21.011719v71.011719c0 5.523438 4.476562 10 10 10 38.597656 0 70-31.402344 70-70 0-19.050781-7.761719-37-21.011719-50h71.011719c5.523438 0 10-4.476562 10-10 0-38.597656-31.402344-70-70-70-19.050781 0-36.996094 7.761719-50 21.011719v-71.011719c0-5.523438-4.476562-10-10-10-38.597656 0-70 31.402344-70 70 0 19.050781 7.761719 37 21.011719 50h-71.011719c-5.523438 0-10 4.476562-10 10 0 38.597656 31.402344 70 70 70zm60-90c11.082031 0 20 8.960938 20 20 0 11.082031-8.960938 20-20 20-11.082031 0-20-8.960938-20-20 0-11.078125 8.960938-20 20-20zm10 128.996094v-70.257813c9.445312-2.433593 17.644531-8.242187 23.078125-16.226562 10.625 9.394531 16.921875 22.996093 16.921875 37.488281 0 24.144531-17.207031 44.347656-40 48.996094zm50-158.996094c24.144531 0 44.351562 17.207031 48.996094 40h-70.261719c-2.429687-9.445312-8.238281-17.644531-16.222656-23.078125 9.394531-10.625 22.992187-16.921875 37.488281-16.921875zm-70-58.996094v70.257813c-9.445312 2.433593-17.644531 8.242187-23.078125 16.226562-10.625-9.390625-16.921875-22.992187-16.921875-37.488281 0-24.144531 17.207031-44.347656 40-48.996094zm-28.738281 118.996094c2.433593 9.445312 8.242187 17.644531 16.226562 23.078125-9.390625 10.625-22.992187 16.921875-37.488281 16.921875-24.144531 0-44.347656-17.207031-48.996094-40zm0 0"/><path d="m200 462c0-5.523438-4.476562-10-10-10h-40c-5.523438 0-10 4.476562-10 10s4.476562 10 10 10h40c5.523438 0 10-4.476562 10-10zm0 0"/><path d="m180 502c0 5.523438-4.476562 10-10 10s-10-4.476562-10-10 4.476562-10 10-10 10 4.476562 10 10zm0 0"/></svg>