<svg height="511pt" viewBox="0 -40 511.99973 511" width="511pt" xmlns="http://www.w3.org/2000/svg"><path d="m472 100.5 30 40h-36c-16.570312 0-30 13.429688-30 30v40c0 39.179688-25.050781 77.621094-60 89.980469 0-.820313 0-.410157-.019531.007812-.011719 0-.019531.011719-.03125.011719.019531.859375.03125.417969.03125-.011719.007812 0 .007812-.007812.019531-.007812v.019531c0 33.140625-26.859375 60-60 60h-180c-33.140625 0-60-26.859375-60-60 0-.101562 0-.191406 0-.289062.0625-60.554688 20.527344-117.316407 54-161.710938l36-38h120l36 38c15.859375 21.140625 28.421875 44.351562 37.421875 68.839844 9.828125-4.929688 16.578125-15.089844 16.578125-26.839844v-10c0-49.710938 46.289062-70 96-70zm0 0" fill="#fff2fb"/><path d="m316 360.5v40c0 11.050781-8.949219 20-20 20h-140c-11.050781 0-20-8.949219-20-20v-40zm0 0" fill="#76e2f8"/><path d="m286 100.5h-120c0-33.140625 26.859375-60 60-60s60 26.859375 60 60zm0 0" fill="#76e2f8"/><path d="m286 240.5c-11.191406 0-21.660156 3.058594-30.628906 8.390625.410156-2.742187.628906-5.539063.628906-8.390625 0-33.140625-30-60-30-60s-30 26.859375-30 60c0 2.851562.21875 5.648438.628906 8.390625-8.96875-5.332031-19.4375-8.390625-30.628906-8.390625h-30c0 33.140625 26.859375 60 60 60h60c33.140625 0 60-26.859375 60-60zm0 0" fill="#ffc473"/><path d="m126 240.5c0 38.597656 31.402344 70 70 70h60c38.597656 0 70-31.402344 70-70 0-5.523438-4.476562-10-10-10h-30c-6.9375 0-13.804688 1.03125-20.371094 3.027344-3.566406-33.785156-31.683594-59.335938-32.957031-60.476563-3.800781-3.402343-9.546875-3.402343-13.34375 0-1.273437 1.140625-29.390625 26.695313-32.957031 60.476563-6.566406-1.996094-13.433594-3.027344-20.371094-3.027344h-30c-5.523438 0-10 4.476562-10 10zm178.996094 10c-4.648438 22.792969-24.851563 40-48.996094 40h-8.105469c6.535157-9.09375 13.34375-21.199219 16.414063-35.042969 6.730468-3.238281 14.144531-4.957031 21.691406-4.957031zm-78.976563-55.519531c7.898438 9.179687 19.980469 26.347656 19.980469 45.519531 0 16.605469-9.277344 32.996094-20 45.5-10.742188-12.53125-20-28.921875-20-45.5 0-19.066406 12.117188-36.308594 20.019531-45.519531zm-60.019531 55.519531c7.546875 0 14.960938 1.71875 21.695312 4.960938 3.070313 13.84375 9.878907 25.949218 16.410157 35.039062h-8.105469c-24.144531 0-44.347656-17.207031-48.996094-40zm0 0"/><path d="m66.714844 310.40625c4.363281 30.652344 28.644531 54.964844 59.285156 59.367188v30.726562c0 16.542969 13.457031 30 30 30h25c5.523438 0 10-4.476562 10-10s-4.476562-10-10-10h-25c-5.515625 0-10-4.484375-10-10v-30h160v30c0 5.515625-4.484375 10-10 10h-25c-5.523438 0-10 4.476562-10 10s4.476562 10 10 10h25c16.542969 0 30-13.457031 30-30v-30.726562c31.640625-4.546876 56.515625-30.328126 59.65625-62.410157 35.328125-15.777343 60.34375-55.359375 60.34375-96.863281v-40c0-11.027344 8.972656-20 20-20h36c3.789062 0 7.25-2.140625 8.945312-5.527344 1.691407-3.390625 1.328126-7.441406-.945312-10.472656l-30-40c-1.890625-2.519531-4.851562-4-8-4-56.128906 0-106 24.679688-106 80v10c0 3.535156-.914062 6.90625-2.574219 9.851562-26.3125-61.523437-53.6875-76.648437-67.558593-93.976562-1.945313-33.335938-27.324219-60.472656-59.867188-65.148438v-20.726562c0-5.523438-4.476562-10-10-10s-10 4.476562-10 10v20.726562c-32.542969 4.675782-57.921875 31.8125-59.867188 65.152344l-26.285156 27.742188c-12.460937-20.605469-34.882812-33.621094-59.847656-33.621094-38.597656 0-70 31.402344-70 70v80c0 37.015625 28.953125 68.0625 66.714844 69.90625zm159.285156-259.90625c24.144531 0 44.351562 17.207031 48.996094 40h-97.992188c4.648438-22.792969 24.851563-40 48.996094-40zm-55.699219 60h111.398438c11.066406 14.230469 44.511719 35.457031 68.332031 100.289062 2.058594 5.59375 8.535156 8.164063 13.871094 5.488282 13.628906-6.835938 22.097656-20.542969 22.097656-35.777344v-10c0-42.046875 39.195312-58.695312 81.054688-59.929688l14.945312 19.929688h-16c-22.054688 0-40 17.945312-40 40v40c0 34.128906-21.59375 67.746094-50.65625 79.53125-4.941406.292969-8.855469 4.164062-9.296875 9.175781-.066406.5-.105469 1.007813-.09375 1.519531.003906.183594.027344.355469.035156.53125-.40625 27.222657-22.671875 49.242188-49.988281 49.242188h-180c-27.570312 0-50-22.429688-50-50v-.277344c.117188-112.53125 64.425781-168.46875 84.300781-189.722656zm-150.300781 50c0-27.570312 22.429688-50 50-50 20.269531 0 38.183594 12.011719 45.980469 30.335938-30.78125 44.3125-47.878907 95.707031-49.792969 149.515624-26.15625-1.925781-46.1875-23.898437-46.1875-49.851562zm0 0"/><path d="m236 420.5c0 5.523438-4.476562 10-10 10s-10-4.476562-10-10 4.476562-10 10-10 10 4.476562 10 10zm0 0"/></svg>