<svg height="512pt" viewBox="0 0 512 512" width="512pt" xmlns="http://www.w3.org/2000/svg"><path d="m472 406v96h-60l-15-30h-282l-15 30h-60v-96zm0 0" fill="#866d67"/><path d="m40 10v396h432c0-17.914062 0-364.117188 0-396-17.6875 0-418.675781 0-432 0zm0 0" fill="#ffc473"/><path d="m502 0h-492c-5.523438 0-10 4.476562-10 10s4.476562 10 10 10h20v482c0 5.523438 4.476562 10 10 10h60c3.789062 0 7.25-2.140625 8.945312-5.527344l12.234376-24.472656h89.820312c5.523438 0 10-4.476562 10-10s-4.476562-10-10-10h-96c-3.789062 0-7.25 2.140625-8.945312 5.527344l-12.234376 24.472656h-43.820312v-76h412v76h-43.820312l-12.234376-24.472656c-1.695312-3.386719-5.15625-5.527344-8.945312-5.527344h-96c-5.523438 0-10 4.476562-10 10s4.476562 10 10 10h89.820312l12.234376 24.472656c1.695312 3.386719 5.15625 5.527344 8.945312 5.527344h60c5.523438 0 10-4.476562 10-10v-482h20c5.523438 0 10-4.476562 10-10s-4.476562-10-10-10zm-120 266c5.523438 0 10-4.476562 10-10v-20h70v70h-160v-70h70v20c0 5.523438 4.476562 10 10 10zm-100 130h-106v-160h20c5.523438 0 10-4.476562 10-10s-4.476562-10-10-10h-20v-196h106zm-232-376h106v196h-20c-5.523438 0-10 4.476562-10 10s4.476562 10 10 10h20v160h-106zm252 376v-70h70v20c0 5.523438 4.476562 10 10 10s10-4.476562 10-10v-20h70v70zm160-180h-160v-196h160zm0 0"/><path d="m266 472c0 5.523438-4.476562 10-10 10s-10-4.476562-10-10 4.476562-10 10-10 10 4.476562 10 10zm0 0"/></svg>