<svg height="512pt" viewBox="-36 0 512 512" width="512pt" xmlns="http://www.w3.org/2000/svg"><path d="m410 10h-380c-11.050781 0-20 8.949219-20 20v286h420c0-9.539062 0-285.402344 0-286 0-11.050781-8.949219-20-20-20zm0 0" fill="#866d67"/><path d="m370 100v63h-60v-63c0-16.570312 13.429688-30 30-30s30 13.429688 30 30zm0 0" fill="#ff712f"/><path d="m310 100v63h-60v-63c0-16.570312 13.429688-30 30-30s30 13.429688 30 30zm0 0" fill="#76e2f8"/><path d="m250 253v63c-7.257812 0-52.691406 0-60 0v-63c0-16.570312 13.429688-30 30-30s30 13.429688 30 30zm0 0" fill="#76e2f8"/><path d="m250 100v63h-60v-63c0-16.570312 13.429688-30 30-30s30 13.429688 30 30zm0 0" fill="#ff712f"/><path d="m10 316v136c0 11.050781 8.949219 20 20 20h380c11.050781 0 20-8.949219 20-20v-136c-85.847656 0-333.484375 0-420 0zm0 0" fill="#ffc473"/><path d="m190 253v63h-60v-63c0-16.570312 13.429688-30 30-30s30 13.429688 30 30zm0 0" fill="#ff712f"/><path d="m130 253v63h-60v-63c0-16.570312 13.429688-30 30-30s30 13.429688 30 30zm0 0" fill="#76e2f8"/><path d="m280 366c-5.523438 0-10 4.476562-10 10v36c0 5.523438 4.476562 10 10 10s10-4.476562 10-10v-36c0-5.523438-4.476562-10-10-10zm0 0"/><path d="m160 422c5.523438 0 10-4.476562 10-10v-36c0-5.523438-4.476562-10-10-10s-10 4.476562-10 10v36c0 5.523438 4.476562 10 10 10zm0 0"/><path d="m230 10c0 5.523438-4.476562 10-10 10s-10-4.476562-10-10 4.476562-10 10-10 10 4.476562 10 10zm0 0"/><path d="m0 30v422c0 16.542969 13.457031 30 30 30v20c0 5.523438 4.476562 10 10 10s10-4.476562 10-10v-20h340v20c0 5.523438 4.476562 10 10 10s10-4.476562 10-10v-20c16.542969 0 30-13.457031 30-30v-422c0-16.542969-13.457031-30-30-30h-145c-5.523438 0-10 4.476562-10 10s4.476562 10 10 10h145c5.515625 0 10 4.484375 10 10v123h-40v-53c0-22.054688-17.945312-40-40-40-11.9375 0-22.664062 5.265625-30 13.585938-7.335938-8.320313-18.0625-13.585938-30-13.585938s-22.664062 5.265625-30 13.585938c-7.335938-8.320313-18.0625-13.585938-30-13.585938-22.054688 0-40 17.945312-40 40v53h-160v-123c0-5.515625 4.484375-10 10-10h145c5.523438 0 10-4.476562 10-10s-4.476562-10-10-10h-145c-16.542969 0-30 13.457031-30 30zm20 422v-126h190v136h-180c-5.515625 0-10-4.484375-10-10zm220-146h-40v-53c0-11.027344 8.972656-20 20-20s20 8.972656 20 20zm-60 0h-40v-53c0-11.027344 8.972656-20 20-20s20 8.972656 20 20zm-60 0h-40v-53c0-11.027344 8.972656-20 20-20s20 8.972656 20 20zm290 156h-180v-136h190v126c0 5.515625-4.484375 10-10 10zm-70-382c11.027344 0 20 8.972656 20 20v53h-40v-53c0-11.027344 8.972656-20 20-20zm-60 0c11.027344 0 20 8.972656 20 20v53h-40v-53c0-11.027344 8.972656-20 20-20zm-80 20c0-11.027344 8.972656-20 20-20s20 8.972656 20 20v53h-40zm220 73v133h-160v-53c0-22.054688-17.945312-40-40-40-11.9375 0-22.664062 5.265625-30 13.585938-7.335938-8.320313-18.0625-13.585938-30-13.585938s-22.664062 5.265625-30 13.585938c-7.335938-8.320313-18.0625-13.585938-30-13.585938-22.054688 0-40 17.945312-40 40v53h-40v-133zm0 0"/></svg>