<svg height="512pt" viewBox="-1 0 511 512" width="512pt" xmlns="http://www.w3.org/2000/svg"><path d="m429.5 316c16.570312 0 30 13.429688 30 30s-13.429688 30-30 30h-100c-16.570312 0-30-13.429688-30-30s13.429688-30 30-30zm0 0" fill="#fff2fb"/><path d="m499.5 136v60c-12.433594 0-475.886719 0-489 0v-40c0-11.050781 8.949219-20 20-20zm0 0" fill="#76e2f8"/><path d="m429.5 76c16.570312 0 30 13.429688 30 30s-13.429688 30-30 30h-100c-16.570312 0-30-13.429688-30-30s13.429688-30 30-30zm0 0" fill="#fff2fb"/><path d="m10.5 376v60h489v-60c-22.601562 0-463.917969 0-489 0zm0 0" fill="#76e2f8"/><path d="m499.5 0c-5.523438 0-10 4.476562-10 10v116h-25.382812c3.414062-5.886719 5.382812-12.71875 5.382812-20 0-22.054688-17.945312-40-40-40h-100c-22.054688 0-40 17.945312-40 40 0 7.28125 1.964844 14.113281 5.382812 20h-264.382812c-16.542969 0-30 13.457031-30 30v346c0 5.523438 4.476562 10 10 10s10-4.476562 10-10v-56h100v56c0 5.523438 4.476562 10 10 10s10-4.476562 10-10v-56h114c5.523438 0 10-4.476562 10-10s-4.476562-10-10-10h-114v-40h349v40h-145c-5.523438 0-10 4.476562-10 10s4.476562 10 10 10h145v56c0 5.523438 4.476562 10 10 10s10-4.476562 10-10v-492c0-5.523438-4.476562-10-10-10zm-190 106c0-11.027344 8.972656-20 20-20h100c11.027344 0 20 8.972656 20 20s-8.972656 20-20 20h-100c-11.027344 0-20-8.972656-20-20zm-279 40h459v40h-469v-30c0-5.515625 4.484375-10 10-10zm90 160h-100v-40h100zm-100 20h100v40h-100zm100-80h-100v-40h100zm0 180h-100v-40h100zm189-80c0-11.027344 8.972656-20 20-20h100c11.027344 0 20 8.972656 20 20s-8.972656 20-20 20h-100c-11.027344 0-20-8.972656-20-20zm154.617188 20c3.414062-5.886719 5.382812-12.71875 5.382812-20 0-22.054688-17.945312-40-40-40h-100c-22.054688 0-40 17.945312-40 40 0 7.28125 1.964844 14.113281 5.382812 20h-154.382812v-160h349v160zm0 0"/><path d="m309.5 436c0 5.523438-4.476562 10-10 10s-10-4.476562-10-10 4.476562-10 10-10 10 4.476562 10 10zm0 0"/></svg>