<svg height="512pt" viewBox="-36 0 512 512" width="512pt" xmlns="http://www.w3.org/2000/svg"><path d="m370 422h-360v-196c0-16.570312 13.429688-30 30-30h300c16.570312 0 30 13.429688 30 30zm0 0" fill="#ff712f"/><path d="m370 422v20c0 11.050781-8.949219 20-20 20h-10v20c0 11.050781-8.949219 20-20 20h-20c-11.050781 0-20-8.949219-20-20v-20h-180v20c0 11.035156-8.964844 20-20 20h-20c-11.050781 0-20-8.949219-20-20v-20h-10c-11.050781 0-20-8.949219-20-20v-20zm0 0" fill="#866d67"/><path d="m370 70c0 12.261719-11.078125 23.640625-30 33.140625v92.859375h-300v-92.859375c-18.921875-9.5-30-20.878906-30-33.140625 0-33.140625 80.589844-60 180-60s180 26.859375 180 60zm0 0" fill="#ffc473"/><path d="m140 256c0 5.523438-4.476562 10-10 10s-10-4.476562-10-10 4.476562-10 10-10 10 4.476562 10 10zm0 0"/><path d="m80 256c0 5.523438-4.476562 10-10 10s-10-4.476562-10-10 4.476562-10 10-10 10 4.476562 10 10zm0 0"/><path d="m430 276h-50v-50c0-18.605469-12.765625-34.28125-30-38.734375v-78.125c24.625-13.925781 30-28.808594 30-39.140625 0-41.128906-77.671875-62.375-144.1875-68.078125-5.480469-.457031-10.34375 3.605469-10.816406 9.109375s3.609375 10.347656 9.109375 10.820312c29.828125 2.554688 125.894531 18.226563 125.894531 48.148438 0 7.566406-8.925781 16.390625-24.488281 24.203125-3.378907 1.695313-5.511719 5.15625-5.511719 8.9375v82.859375h-280v-82.859375c0-3.78125-2.132812-7.242187-5.511719-8.9375-15.5625-7.8125-24.488281-16.636719-24.488281-24.203125 0-29.886719 95.882812-45.578125 125.894531-48.148438 5.5-.472656 9.578125-5.316406 9.109375-10.816406-.472656-5.503906-5.320312-9.5625-10.820312-9.109375-66.511719 5.699219-144.183594 26.945313-144.183594 68.074219 0 10.332031 5.375 25.214844 30 39.140625v78.125c-17.234375 4.453125-30 20.128906-30 38.734375v216c0 16.542969 13.457031 30 30 30v10c0 16.542969 13.457031 30 30 30h20c16.527344 0 30-13.453125 30-30v-10h160v10c0 16.542969 13.457031 30 30 30h20c16.542969 0 30-13.457031 30-30v-10c16.542969 0 30-13.457031 30-30v-146h50c5.523438 0 10-4.476562 10-10s-4.476562-10-10-10zm-390-70h300c11.027344 0 20 8.972656 20 20v186h-340v-186c0-11.027344 8.972656-20 20-20zm310 246h-10c-5.523438 0-10 4.476562-10 10v20c0 5.515625-4.484375 10-10 10h-20c-5.515625 0-10-4.484375-10-10v-20c0-5.523438-4.476562-10-10-10h-180c-5.523438 0-10 4.476562-10 10v20c0 5.503906-4.488281 10-10 10h-20c-5.515625 0-10-4.484375-10-10v-20c0-5.523438-4.476562-10-10-10h-10c-5.515625 0-10-4.484375-10-10v-10h340v10c0 5.515625-4.484375 10-10 10zm0 0"/><path d="m200 10c0 5.523438-4.476562 10-10 10s-10-4.476562-10-10 4.476562-10 10-10 10 4.476562 10 10zm0 0"/></svg>