<svg height="512pt" viewBox="0 0 512 512" width="512pt" xmlns="http://www.w3.org/2000/svg"><path d="m262 10v432c-23.585938 0-168.738281 0-192 0v-432zm0 0" fill="#fff2fb"/><path d="m502 136c0 22.148438-12.140625 41.28125-30 51.679688v78.320312c0 11.050781-8.949219 20-20 20-6.996094 0-13.003906 0-20 0-11.050781 0-20-8.949219-20-20v-78.320312c-17.859375-10.398438-30-29.53125-30-51.679688 0-33.140625 26.859375-60 60-60s60 26.859375 60 60zm0 0" fill="#76e2f8"/><path d="m196 256c0 16.570312-13.429688 30-30 30s-30-13.429688-30-30 13.429688-30 30-30 30 13.429688 30 30zm0 0" fill="#ff712f"/><path d="m70 10v432c-33.140625 0-60-26.859375-60-60v-312c0-33.140625 26.859375-60 60-60zm0 0" fill="#76e2f8"/><path d="m322 70v312c0 33.140625-26.859375 60-60 60v-432c33.140625 0 60 26.859375 60 60zm0 0" fill="#76e2f8"/><path d="m452 136c0 5.523438-4.476562 10-10 10s-10-4.476562-10-10 4.476562-10 10-10 10 4.476562 10 10zm0 0"/><path d="m206 156c0 5.523438-4.476562 10-10 10s-10-4.476562-10-10 4.476562-10 10-10 10 4.476562 10 10zm0 0"/><path d="m146 156c0 5.523438-4.476562 10-10 10s-10-4.476562-10-10 4.476562-10 10-10 10 4.476562 10 10zm0 0"/><path d="m442 66c-38.597656 0-70 31.402344-70 70 0 22.695312 11.363281 44.09375 30 57.144531v72.855469c0 16.542969 13.457031 30 30 30v176c0 11.027344-8.972656 20-20 20h-150c-11.460938 0-26-9.417969-26-20v-20h26c38.597656 0 70-31.402344 70-70v-312c0-38.597656-31.402344-70-70-70h-51c-5.523438 0-10 4.476562-10 10s4.476562 10 10 10h41v412h-172v-412h41c5.523438 0 10-4.476562 10-10s-4.476562-10-10-10h-51c-38.597656 0-70 31.402344-70 70v312c0 38.597656 31.402344 70 70 70h20v20c0 11.027344-8.972656 20-20 20h-60c-5.523438 0-10 4.476562-10 10s4.476562 10 10 10h60c22.054688 0 40-17.945312 40-40v-20h106v20c0 22.894531 24.285156 40 46 40h150c22.054688 0 40-17.945312 40-40v-176c16.542969 0 30-13.457031 30-30v-72.855469c18.636719-13.050781 30-34.449219 30-57.144531 0-38.597656-31.402344-70-70-70zm-130 4v312c0 24.144531-17.203125 44.347656-40 48.992188v-409.984376c22.796875 4.644532 40 24.847657 40 48.992188zm-292 312v-312c0-24.144531 17.203125-44.347656 40-48.992188v409.984376c-22.796875-4.644532-40-24.847657-40-48.992188zm446.96875-202.960938c-3.074219 1.789063-4.96875 5.082032-4.96875 8.640626v78.320312c0 5.515625-4.484375 10-10 10h-20c-5.515625 0-10-4.484375-10-10v-78.320312c0-3.558594-1.894531-6.851563-4.96875-8.640626-15.675781-9.128906-25.03125-25.21875-25.03125-43.039062 0-27.570312 22.429688-50 50-50s50 22.429688 50 50c0 17.820312-9.355469 33.910156-25.03125 43.039062zm0 0"/><path d="m126 256c0 22.054688 17.945312 40 40 40s40-17.945312 40-40-17.945312-40-40-40-40 17.945312-40 40zm40-20c11.027344 0 20 8.972656 20 20s-8.972656 20-20 20-20-8.972656-20-20 8.972656-20 20-20zm0 0"/><path d="m176 10c0 5.523438-4.476562 10-10 10s-10-4.476562-10-10 4.476562-10 10-10 10 4.476562 10 10zm0 0"/></svg>