<?xml version="1.0" encoding="iso-8859-1"?>
<!-- Generator: Adobe Illustrator 19.0.0, SVG Export Plug-In . SVG Version: 6.00 Build 0)  -->
<svg version="1.1" id="Capa_1" xmlns="http://www.w3.org/2000/svg" xmlns:xlink="http://www.w3.org/1999/xlink" x="0px" y="0px"
	 viewBox="0 0 512 512" style="enable-background:new 0 0 512 512;" xml:space="preserve">
<g>
	<g>
		<rect x="80" y="10" style="fill:#636A75;" width="119.999" height="72"/>
		<path style="fill:#636A75;" d="M200,82.004H80.001H31.667c-11.917,0-21.666,9.749-21.666,21.666v18.334h259.935H270v-18.334
			c0-11.917-9.749-21.666-21.667-21.666H200z"/>
	</g>
	<rect x="10" y="156.999" style="fill:#4AD194;" width="70" height="263.628"/>
	<polygon style="fill:#E1E6E9;" points="80.001,157.003 80.001,420.635 10.001,420.635 10.001,455.634 269.936,455.634 270,455.634 
		270,122.003 269.936,122.003 10.001,122.003 10.001,157.003 	"/>
	<path style="fill:#636A75;" d="M269.936,455.634H10.001v24.699C10.001,492.25,19.75,502,31.667,502h216.666
		c11.918,0,21.667-9.75,21.667-21.667v-24.699H269.936z"/>
	<path style="fill:#FF9750;" d="M270,122.003v333.631h6.301h39.818h39.817c22.001,0,40-18,40-40v-18.464v-41.17c0-22,18-40,40-40
		h18.898c25.09,0,47.166-11.766,47.166-40V162.003c0-22-18.001-40-40-40H270L270,122.003z M310.501,380.635h40v40h-40V380.635
		L310.501,380.635z M410.5,197.003v-40h40v40H410.5L410.5,197.003z M350.5,197.003h-40v-40h40V197.003z"/>
</g>
<path d="M462,112.003H280v-8.334c0-17.461-14.206-31.666-31.667-31.666H210V10c0-5.523-4.477-10-10-10H80.001
	c-5.522,0-10,4.477-10,10v62.004H31.667c-17.461,0-31.666,14.205-31.666,31.666l0,0v376.664l0,0
	C0.001,497.794,14.206,512,31.667,512h216.666C265.794,512,280,497.794,280,480.333v-14.699h75.936c27.57,0,50-22.43,50-50v-59.634
	c0-16.542,13.458-30,30-30h18.898c34.727,0,57.166-19.626,57.166-50V162.003C512,134.433,489.57,112.003,462,112.003z
	 M20.001,167.003h50v243.632h-50V167.003z M20.001,430.634h60c5.522,0,10-4.477,10-10V157.003c0-5.523-4.478-10-10-10h-60v-15H260
	v313.631H20.001C20.001,445.634,20.001,430.634,20.001,430.634z M90.001,20H190v52.004H90.001C90.001,72.004,90.001,20,90.001,20z
	 M31.667,92.003L31.667,92.003h216.666l0,0c6.434,0,11.667,5.233,11.667,11.666v8.334H20.001v-8.334
	C20.001,97.236,25.234,92.003,31.667,92.003z M248.333,492H31.667c-6.433,0-11.666-5.233-11.666-11.667v-14.699H260v14.699
	C260,486.766,254.766,492,248.333,492z M492,276.001c0,27.077-25.991,30-37.166,30h-18.898c-27.57,0-50,22.43-50,50v59.634
	c0,16.542-13.458,30-30,30h-75.936V132.003h182c16.542,0,30,13.458,30,30L492,276.001L492,276.001z"/>
<path d="M350.5,370.635h-40c-5.522,0-10,4.477-10,10v40c0,5.523,4.478,10,10,10h40c5.523,0,10-4.477,10-10v-40
	C360.5,375.112,356.022,370.635,350.5,370.635z M340.5,410.635h-20v-20h20V410.635z"/>
<path d="M350.5,147.003h-40c-5.522,0-10,4.477-10,10v40c0,5.523,4.478,10,10,10h40c5.523,0,10-4.477,10-10v-40
	C360.5,151.48,356.022,147.003,350.5,147.003z M340.5,187.003h-20v-20h20V187.003z"/>
<path d="M450.5,147.003h-40c-5.522,0-10,4.477-10,10v40c0,5.523,4.478,10,10,10h40c5.523,0,10-4.477,10-10v-40
	C460.5,151.48,456.022,147.003,450.5,147.003z M440.5,187.003h-20v-20h20V187.003z"/>
<path d="M138.884,350.601c-5.522,0-10,4.477-10,10v0.27c0,5.523,4.478,10,10,10c5.523,0,10-4.477,10-10v-0.27
	C148.884,355.078,144.406,350.601,138.884,350.601z"/>
<path d="M138.884,379.601c-5.522,0-10,4.477-10,10v31.034c0,5.523,4.478,10,10,10c5.523,0,10-4.477,10-10v-31.034
	C148.884,384.078,144.406,379.601,138.884,379.601z"/>
<path d="M178.883,291.601c-5.522,0-10,4.477-10,10v119.033c0,5.523,4.478,10,10,10c5.523,0,10-4.477,10-10V301.601
	C188.883,296.078,184.405,291.601,178.883,291.601z"/>
<path d="M229.884,206.768c-5.522,0-10,4.477-10,10v0.269c0,5.523,4.478,10,10,10s10-4.477,10-10v-0.269
	C239.884,211.245,235.406,206.768,229.884,206.768z"/>
<path d="M229.884,147.003c-5.522,0-10,4.477-10,10v31.034c0,5.523,4.478,10,10,10s10-4.477,10-10v-31.034
	C239.884,151.48,235.406,147.003,229.884,147.003z"/>
<g>
</g>
<g>
</g>
<g>
</g>
<g>
</g>
<g>
</g>
<g>
</g>
<g>
</g>
<g>
</g>
<g>
</g>
<g>
</g>
<g>
</g>
<g>
</g>
<g>
</g>
<g>
</g>
<g>
</g>
</svg>
