<?xml version="1.0" encoding="iso-8859-1"?>
<!-- Generator: Adobe Illustrator 19.0.0, SVG Export Plug-In . SVG Version: 6.00 Build 0)  -->
<svg version="1.1" id="Capa_1" xmlns="http://www.w3.org/2000/svg" xmlns:xlink="http://www.w3.org/1999/xlink" x="0px" y="0px"
	 viewBox="0 0 512 512" style="enable-background:new 0 0 512 512;" xml:space="preserve">
<g>
	<path style="fill:#636A75;" d="M347.944,215.752H112.878C56.061,215.752,10,169.693,10,112.877S56.061,10,112.878,10
		s102.877,46.06,102.877,102.877h29.313C245.067,56.06,291.125,10,347.943,10S450.82,56.06,450.82,112.877
		S404.76,215.752,347.944,215.752L347.944,215.752z M132.878,112.877c0-11.046-8.954-20-20-20c-11.045,0-20,8.954-20,20
		s8.955,20,20,20C123.923,132.876,132.878,123.922,132.878,112.877L132.878,112.877z M347.943,92.877c-11.046,0-20,8.954-20,20
		s8.954,20,20,20s20.001-8.954,20.001-20S358.989,92.877,347.943,92.877z"/>
	<polygon style="fill:#BCCBD3;" points="112.878,215.752 347.944,215.752 347.944,245.303 115.569,245.303 112.878,245.303 	"/>
	<path style="fill:#4AD194;" d="M115.569,245.303h232.375h0.701c11,0,20,8.998,20,20.003l-0.001,11.842v107.437l0.001,43.935
		c0,11.005-9,20.003-20,20.003h-32.668h-53.869h-60.002h-57.261h-29.276c-11,0-20-8.997-20-20.003v-76.262v-42.784v-44.168
		C95.569,254.301,104.569,245.303,115.569,245.303L115.569,245.303z M250.569,300.303c0-11-8.999-20-20-20h-80c-11,0-20,9-20,20v40
		c0,11.001,9,20,20,20h80c11.001,0,20-8.999,20-20V300.303L250.569,300.303z M313.645,340.338c-11.001,0-20.001,9-20.001,20v33.184
		c0,11,9,20,20.001,20c11,0,20-9,20-20v-33.184C333.645,349.338,324.645,340.338,313.645,340.338z"/>
	<path style="fill:#BCCBD3;" d="M150.569,280.303h80c11.001,0,20,9,20,20v40c0,11.001-8.999,20-20,20h-80c-11,0-20-8.999-20-20v-40
		C130.569,289.303,139.569,280.303,150.569,280.303z"/>
	<g>
		<path style="fill:#FF9750;" d="M293.644,393.522v-33.184c0-11,9-20,20.001-20c11,0,20,9,20,20v33.184c0,11-9,20-20,20
			C302.644,413.522,293.644,404.522,293.644,393.522z"/>
		<polygon style="fill:#FF9750;" points="368.644,384.585 368.644,277.148 406.848,277.148 406.848,293.759 406.848,367.973 
			406.848,384.585 		"/>
	</g>
	<polygon style="fill:#4AD194;" points="406.848,367.973 406.848,293.759 456.715,256.649 456.715,405.082 	"/>
	<g>
		<path style="fill:#BCCBD3;" d="M456.715,405.082V256.649V245.3h22.643c12.453,0,22.642,10.189,22.642,22.642V393.79
			c0,12.454-10.189,22.642-22.642,22.642h-22.643V405.082z"/>
		<rect x="52.786" y="309.47" style="fill:#BCCBD3;" width="42.783" height="42.784"/>
	</g>
	<path style="fill:#FF9750;" d="M52.786,309.474l0.002,42.783c0,11.766-9.626,21.391-21.393,21.391
		c-11.766,0-21.391-9.625-21.391-21.391v-42.782c0-11.766,9.625-21.392,21.391-21.392C43.162,288.083,52.788,297.709,52.786,309.474
		z"/>
	<path style="fill:#BCCBD3;" d="M262.108,502v-53.478h53.869v26.738c0,14.708-12.033,26.74-26.738,26.74H262.108z"/>
	<rect x="202.11" y="448.52" style="fill:#636A75;" width="60" height="53.48"/>
	<path style="fill:#BCCBD3;" d="M202.106,448.522V502h-30.521c-14.706,0-26.739-12.032-26.739-26.74v-26.738H202.106z"/>
</g>
<path d="M479.358,235.3h-22.643c-5.523,0-10,4.477-10,10v6.326l-30.314,22.559c-1.263-4.076-5.062-7.037-9.553-7.037h-28.203v-1.841
	c0-13.298-8.698-24.596-20.701-28.52v-11.482c57.573-5.079,102.876-53.558,102.876-112.428C460.82,50.636,410.184,0,347.943,0
	c-58.871,0-107.359,45.302-112.437,102.877h-10.191C220.238,45.302,171.749,0,112.878,0C50.637,0,0.001,50.636,0.001,112.877
	c0,58.87,45.303,107.349,102.877,112.428v12.824c-10.214,4.79-17.309,15.169-17.309,27.177v34.167H61.145
	c-4.187-12.419-15.936-21.39-29.75-21.39c-17.309,0-31.391,14.082-31.391,31.392v42.782c0,17.309,14.082,31.391,31.391,31.391
	c13.814,0,25.564-8.972,29.75-21.391h24.424v66.262c0,16.543,13.458,30.003,30,30.003h19.276v16.738
	c0,20.259,16.481,36.74,36.739,36.74h117.654c20.257,0,36.738-16.481,36.738-36.74v-16.738h22.668c16.542,0,30-13.459,30-30.003
	v-33.935h28.203c4.491,0,8.29-2.961,9.553-7.037l30.314,22.559v6.327c0,5.523,4.477,10,10,10h22.643
	c17.999,0,32.642-14.643,32.642-32.642V267.942C512,249.943,497.357,235.3,479.358,235.3z M122.878,225.752h215.066v9.551H122.878
	V225.752z M20,112.877C20,61.664,61.665,20,112.878,20s92.877,41.664,92.877,92.877c0,5.523,4.477,10,10,10h29.313
	c5.523,0,10-4.477,10-10c0-51.212,41.664-92.877,92.876-92.877s92.877,41.664,92.877,92.877c0,51.212-41.665,92.876-92.877,92.876
	H112.878C61.665,205.752,20,164.088,20,112.877z M31.395,363.648c-6.281,0-11.391-5.11-11.391-11.391v-42.782
	c0-6.281,5.11-11.392,11.391-11.392c6.275,0,11.38,5.1,11.392,11.372c0,0.006-0.001,0.012-0.001,0.018v42.784
	c0,0.006,0.001,0.013,0.001,0.019C42.776,358.549,37.67,363.648,31.395,363.648z M62.788,342.257v-22.784h22.781v22.784H62.788z
	 M154.845,475.26v-16.738h37.261V492h-20.521C162.355,492,154.845,484.49,154.845,475.26z M252.108,458.522V492h-40.002v-33.478
	H252.108z M305.977,475.26c0,9.23-7.509,16.74-16.738,16.74h-17.131v-33.478h33.869L305.977,475.26L305.977,475.26z
	 M348.645,438.522L348.645,438.522H115.569l0,0c-5.514,0-10-4.487-10-10.003l0,0V265.306l0,0c0-5.516,4.486-10.003,10-10.003
	h232.375h0.701c5.514,0,10,4.487,10,10.003l0,0c0,0.007,0,0,0,0.007V428.52c0,0.007,0-0.007,0,0l0,0
	C358.645,434.035,354.159,438.522,348.645,438.522z M396.848,374.584h-18.203v-87.437h18.203v6.611v74.214V374.584z M416.848,362.95
	v-64.168l29.867-22.227v108.621L416.848,362.95z M492,393.79c0,6.971-5.671,12.642-12.642,12.642h-12.643v-1.35V256.649V255.3
	h12.643c6.971,0,12.642,5.671,12.642,12.642V393.79z"/>
<path d="M230.569,270.303h-80c-16.542,0-30,13.458-30,30v40c0,16.542,13.458,30,30,30h80c16.542,0,30-13.458,30-30v-40
	C260.569,283.761,247.111,270.303,230.569,270.303z M240.569,340.303c0,5.514-4.486,10-10,10h-80c-5.514,0-10-4.486-10-10v-40
	c0-5.514,4.486-10,10-10h80c5.514,0,10,4.486,10,10V340.303z"/>
<path d="M323.645,332.058v-22.755c0-5.523-4.477-10-10-10s-10,4.477-10,10v22.754c-11.64,4.128-20.001,15.244-20.001,28.28v33.184
	c0,16.542,13.459,30,30.001,30c16.542,0,30-13.458,30-30v-33.184C343.645,347.302,335.284,336.186,323.645,332.058z
	 M323.645,393.522c0,5.514-4.486,10-10,10c-5.515,0-10.001-4.486-10.001-10v-33.184c0-5.514,4.486-10,10.001-10
	c5.514,0,10,4.486,10,10V393.522z"/>
<path d="M313.645,290.573c5.523,0,10-4.477,10-10v-0.27c0-5.523-4.477-10-10-10s-10,4.477-10,10v0.27
	C303.645,286.096,308.122,290.573,313.645,290.573z"/>
<path d="M190.604,403.521h-0.269c-5.523,0-10,4.477-10,10s4.477,10,10,10h0.269c5.523,0,10-4.477,10-10
	S196.127,403.521,190.604,403.521z"/>
<path d="M161.604,403.521h-31.035c-5.523,0-10,4.477-10,10s4.477,10,10,10h31.035c5.523,0,10-4.477,10-10
	S167.127,403.521,161.604,403.521z"/>
<path d="M347.944,142.876c16.542,0,30-13.458,30-30s-13.458-30-30-30s-30,13.458-30,30S331.402,142.876,347.944,142.876z
	 M347.944,102.877c5.514,0,10,4.486,10,10s-4.486,10-10,10s-10-4.486-10-10C337.944,107.362,342.43,102.877,347.944,102.877z"/>
<path d="M142.878,112.877c0-16.542-13.458-30-30.001-30c-16.542,0-30,13.458-30,30s13.458,30,30,30
	C129.42,142.876,142.878,129.419,142.878,112.877z M102.878,112.877c0-5.514,4.486-10,10-10c5.515,0,10.001,4.486,10.001,10
	s-4.486,10-10.001,10S102.878,118.391,102.878,112.877z"/>
<g>
</g>
<g>
</g>
<g>
</g>
<g>
</g>
<g>
</g>
<g>
</g>
<g>
</g>
<g>
</g>
<g>
</g>
<g>
</g>
<g>
</g>
<g>
</g>
<g>
</g>
<g>
</g>
<g>
</g>
</svg>
