<?xml version="1.0" encoding="iso-8859-1"?>
<!-- Generator: Adobe Illustrator 19.0.0, SVG Export Plug-In . SVG Version: 6.00 Build 0)  -->
<svg version="1.1" id="Capa_1" xmlns="http://www.w3.org/2000/svg" xmlns:xlink="http://www.w3.org/1999/xlink" x="0px" y="0px"
	 viewBox="0 0 512.001 512.001" style="enable-background:new 0 0 512.001 512.001;" xml:space="preserve">
<g>
	<path style="fill:#BCCBD3;" d="M105.997,315V25c0-8.25-6.75-15-15-15s-15,6.75-15,15v290c0,8.25,6.75,15,15,15
		S105.997,323.25,105.997,315z"/>
	<path style="fill:#636A75;" d="M105.997,25v290c66.206,0,122.046-44.374,139.412-105v-79.988c-0.001-0.004-0.002-0.007-0.003-0.011
		C228.043,69.373,172.203,25,105.997,25z"/>
	<path style="fill:#BCCBD3;" d="M290.41,220.767v128.282h-32.977c-8.25,0-15,6.75-15,15c0,0.561,0.031,1.114,0.093,1.659
		c0.831,7.477,7.218,13.341,14.907,13.341h12.031h20.945v-15c0-8.25,6.75-15,15-15s15,6.75,15,15v15h20.945h12.031
		c7.689,0,14.074-5.864,14.906-13.341c0.063-0.545,0.094-1.099,0.094-1.659c0-8.25-6.75-15-15-15h-32.977V220.767V210h-30v10.767
		H290.41z"/>
	<g>
		<path style="fill:#636A75;" d="M305.41,349.049c-8.25,0-15,6.75-15,15v15v107.953c0,8.25,6.75,15,15,15s15-6.75,15-15V379.049v-15
			C320.41,355.799,313.66,349.049,305.41,349.049z"/>
		<path style="fill:#636A75;" d="M202.8,494.513l66.664-115.464h-12.031c-7.689,0-14.076-5.864-14.907-13.341L176.82,479.513
			c-4.125,7.145-1.654,16.365,5.491,20.491C189.456,504.128,198.676,501.658,202.8,494.513z"/>
		<path style="fill:#636A75;" d="M341.355,379.049l66.663,115.464c4.125,7.145,13.345,9.615,20.49,5.491
			c7.145-4.125,9.615-13.346,5.49-20.491l-65.704-113.805c-0.832,7.477-7.219,13.341-14.908,13.341H341.355z"/>
	</g>
	<path style="fill:#4AD194;" d="M245.409,130h80.001c22,0,40,17.999,40,39.999V170c0,22-18,40-40,40h-80.001V130z"/>
</g>
<path d="M442.659,474.513l-64.295-111.361c-0.476-13.371-11.493-24.103-24.978-24.103h-22.977v-119.3l0,0
	c25.231-2.517,45-23.867,45-49.75c0-27.57-22.43-49.999-50-49.999h-72.674c-9.843-28.8-28.326-54.573-52.638-73.174
	c-25.091-19.197-54.711-30.042-86.101-31.618C110.18,6.276,101.308,0,90.997,0c-13.785,0-25,11.215-25,25v290
	c0,13.785,11.215,25,25,25c10.312,0,19.184-6.276,23.001-15.209c31.39-1.576,61.01-12.421,86.101-31.618
	C224.41,274.572,242.893,248.8,252.737,220h27.674l0,0v119.049h-22.977c-13.483,0-24.501,10.731-24.977,24.101l-64.296,111.363
	c-6.893,11.939-2.787,27.258,9.151,34.151c3.782,2.183,8.09,3.337,12.457,3.337c8.935,0,17.246-4.786,21.692-12.489l63.777-110.464
	h5.172v97.953c0,13.785,11.215,25,25,25s25-11.215,25-25v-97.953h5.172l63.776,110.464c4.447,7.703,12.759,12.488,21.692,12.489
	h0.001c4.365,0,8.673-1.154,12.458-3.338C445.446,501.771,449.551,486.451,442.659,474.513z M90.997,320c-2.71,0-5-2.29-5-5V25
	c0-2.71,2.29-5,5-5s5,2.29,5,5v290C95.997,317.71,93.707,320,90.997,320z M115.997,304.626V35.374
	c55.35,4.146,103.451,42.42,119.412,96.067v77.118C219.448,262.205,171.346,300.479,115.997,304.626z M255.409,140h70.001
	c16.542,0,30,13.458,30,30c0,14.838-10.831,27.187-25,29.575v-9.843c0-5.523-4.478-10-10-10c-5.523,0-10,4.477-10,10V200h-10
	v-10.268c0-5.523-4.478-10-10-10c-5.523,0-10,4.477-10,10V200h-25.001V140z M310.41,220L310.41,220v119.552
	c-1.616-0.329-3.288-0.503-5-0.503s-3.384,0.174-5,0.503V220l0,0H310.41z M194.139,489.514c-1.059,1.834-2.952,2.487-4.371,2.487
	c-0.874,0-1.701-0.221-2.457-0.658c-2.348-1.355-3.186-4.483-1.831-6.831l57.69-99.921c2.744,1.906,5.885,3.272,9.262,3.957
	L194.139,489.514z M280.41,369.049h-22.977c-0.328,0-0.65-0.037-0.963-0.101c-0.086-0.018-0.166-0.051-0.252-0.074
	c-0.225-0.059-0.449-0.121-0.662-0.21c-0.08-0.034-0.154-0.08-0.232-0.117c-0.21-0.101-0.417-0.208-0.61-0.336
	c-0.064-0.042-0.122-0.092-0.184-0.137c-0.196-0.143-0.386-0.295-0.56-0.464c-0.051-0.049-0.096-0.102-0.143-0.153
	c-0.169-0.178-0.327-0.366-0.47-0.566c-0.043-0.062-0.082-0.126-0.123-0.191c-0.127-0.196-0.24-0.4-0.338-0.613
	c-0.04-0.087-0.076-0.176-0.111-0.266c-0.076-0.193-0.139-0.393-0.189-0.596c-0.03-0.122-0.058-0.246-0.078-0.371
	c-0.045-0.264-0.084-0.53-0.084-0.805c0-2.711,2.29-5,5-5h23.48c-0.329,1.616-0.503,3.288-0.503,5v5H280.41z M310.41,487.002
	c0,2.71-2.29,5-5,5s-5-2.29-5-5V364.049c0-2.711,2.29-5,5-5s5,2.289,5,5V487.002z M329.907,359.049h23.479c2.71,0,5,2.289,5,5
	c0,0.271-0.039,0.535-0.083,0.796c-0.021,0.131-0.05,0.261-0.082,0.389c-0.05,0.197-0.11,0.39-0.184,0.578
	c-0.037,0.096-0.075,0.19-0.118,0.283c-0.096,0.207-0.206,0.406-0.328,0.597c-0.044,0.068-0.086,0.138-0.134,0.204
	c-0.139,0.195-0.294,0.379-0.458,0.553c-0.052,0.055-0.1,0.112-0.154,0.164c-0.17,0.166-0.356,0.314-0.549,0.455
	c-0.064,0.047-0.126,0.1-0.193,0.145c-0.19,0.126-0.395,0.231-0.601,0.331c-0.081,0.039-0.157,0.086-0.241,0.121
	c-0.211,0.088-0.433,0.15-0.656,0.209c-0.087,0.022-0.169,0.057-0.257,0.075c-0.313,0.064-0.634,0.101-0.962,0.101h-22.977l0,0v-5
	C330.41,362.337,330.236,360.665,329.907,359.049z M423.508,491.343c-0.756,0.437-1.583,0.658-2.456,0.658
	c-1.42,0-3.314-0.653-4.373-2.488l-58.291-100.964c3.377-0.685,6.518-2.051,9.261-3.957l57.69,99.921
	C426.693,486.86,425.855,489.988,423.508,491.343z"/>
<path d="M290.41,171.002c5.522,0,10-4.477,10-10v-0.27c0-5.523-4.478-10-10-10c-5.523,0-10,4.477-10,10v0.27
	C280.41,166.525,284.887,171.002,290.41,171.002z"/>
<path d="M320.41,171.002c5.522,0,10-4.477,10-10v-0.27c0-5.523-4.478-10-10-10c-5.523,0-10,4.477-10,10v0.27
	C310.41,166.525,314.887,171.002,320.41,171.002z"/>
<path d="M140.997,115.476c-5.522,0-10,4.477-10,10v0.269c0,5.523,4.478,10,10,10c5.523,0,10-4.477,10-10v-0.269
	C150.997,119.953,146.519,115.476,140.997,115.476z"/>
<path d="M140.997,55.71c-5.522,0-10,4.477-10,10v31.034c0,5.523,4.478,10,10,10c5.523,0,10-4.477,10-10V65.71
	C150.997,60.187,146.519,55.71,140.997,55.71z"/>
<g>
</g>
<g>
</g>
<g>
</g>
<g>
</g>
<g>
</g>
<g>
</g>
<g>
</g>
<g>
</g>
<g>
</g>
<g>
</g>
<g>
</g>
<g>
</g>
<g>
</g>
<g>
</g>
<g>
</g>
</svg>
