<?xml version="1.0" encoding="iso-8859-1"?>
<!-- Generator: Adobe Illustrator 19.0.0, SVG Export Plug-In . SVG Version: 6.00 Build 0)  -->
<svg version="1.1" id="Capa_1" xmlns="http://www.w3.org/2000/svg" xmlns:xlink="http://www.w3.org/1999/xlink" x="0px" y="0px"
	 viewBox="0 0 512.002 512.002" style="enable-background:new 0 0 512.002 512.002;" xml:space="preserve">
<g>
	<path style="fill:#636A75;" d="M256,94.232c22.091,0,40,17.908,40,40c0,22.091-17.909,40-40,40c-22.092,0-40-17.909-40-40
		S233.909,94.232,256,94.232L256,94.232z M256,467.002c116.532,0,211.001-94.469,211.001-211C467.002,139.469,372.533,45,256,45
		S44.999,139.469,44.999,256.002C44.999,372.533,139.467,467.002,256,467.002L256,467.002z M249.822,236.984
		c10.502-3.412,21.782,2.336,25.194,12.838c3.412,10.502-2.335,21.783-12.837,25.195c-10.503,3.412-21.782-2.336-25.194-12.838
		C233.573,251.678,239.319,240.398,249.822,236.984L249.822,236.984z M359.449,180.33c21.011-6.826,43.577,4.672,50.403,25.682
		c6.826,21.01-4.672,43.576-25.682,50.402c-21.01,6.827-43.576-4.67-50.402-25.682C326.941,209.723,338.439,187.156,359.449,180.33
		L359.449,180.33z M304.063,322.154c17.872-12.984,42.887-9.023,55.872,8.849c12.985,17.872,9.022,42.888-8.85,55.872
		s-42.887,9.023-55.872-8.85C282.229,360.154,286.191,335.139,304.063,322.154L304.063,322.154z M102.149,206.012
		c6.826-21.01,29.393-32.508,50.402-25.682c21.01,6.826,32.508,29.393,25.682,50.402c-6.826,21.01-29.393,32.509-50.402,25.682
		C106.821,249.588,95.322,227.021,102.149,206.012L102.149,206.012z M152.065,331.003c12.985-17.872,38-21.834,55.873-8.849
		c17.871,12.984,21.834,38,8.849,55.871c-12.985,17.873-38,21.834-55.872,8.85C143.043,373.891,139.081,348.875,152.065,331.003z"/>
	<path style="fill:#BCCBD3;" d="M256,45c116.532,0,211.001,94.469,211.001,211.002c0,116.531-94.469,211-211.001,211
		c-116.533,0-211.001-94.469-211.001-211C44.999,139.469,139.467,45,256,45L256,45z M256,10C120.137,10,9.999,120.139,9.999,256.002
		c0,135.861,110.138,246,246.001,246c46.277,0,89.571-12.779,126.543-35c14.373-8.639,27.791-18.703,40.057-30
		c48.816-44.955,79.4-109.406,79.4-181C502,120.139,391.863,10,256,10z"/>
	<path style="fill:#FF9750;" d="M487,437.002h-64.4c-12.266,11.297-25.684,21.361-40.057,30H487c8.25,0,15-6.75,15-15
		S495.25,437.002,487,437.002z"/>
</g>
<path d="M256,35C134.14,35,34.999,134.141,34.999,256.002c0,121.86,99.141,221,221.001,221s221.001-99.14,221.001-221
	C477.002,134.141,377.861,35,256,35z M256,457.002c-110.833,0-201.001-90.168-201.001-201C54.999,145.169,145.168,55,256,55
	s201.001,90.169,201.001,201.002C457.002,366.834,366.832,457.002,256,457.002z"/>
<path d="M149.674,125.754c2.105,0,4.228-0.662,6.035-2.032c8.985-6.813,18.706-12.729,28.893-17.583
	c4.985-2.376,7.101-8.344,4.725-13.33c-2.376-4.985-8.343-7.101-13.33-4.725c-11.413,5.439-22.305,12.068-32.373,19.702
	c-4.401,3.337-5.263,9.609-1.926,14.01C143.665,124.39,146.651,125.754,149.674,125.754z"/>
<path d="M258.883,421.979c-0.055,0-0.11,0-0.166,0.001c-11.278,0.185-22.62-0.79-33.7-2.894c-5.426-1.036-10.66,2.532-11.69,7.958
	c-1.031,5.426,2.532,10.66,7.958,11.69c11.427,2.17,23.098,3.268,34.742,3.268c1.005,0,2.011-0.008,3.016-0.025
	c5.522-0.09,9.926-4.639,9.836-10.162C268.79,426.349,264.331,421.979,258.883,421.979z"/>
<path d="M256,184.232c27.57,0,50-22.43,50-50s-22.43-50-50-50s-50,22.43-50,50S228.43,184.232,256,184.232z M256,104.232
	c16.542,0,30,13.458,30,30s-13.458,30-30,30s-30-13.458-30-30S239.459,104.232,256,104.232z"/>
<path d="M187.744,233.822c4.127-12.702,3.06-26.25-3.003-38.15c-6.063-11.9-16.398-20.726-29.1-24.853
	c-5.019-1.631-10.22-2.458-15.458-2.458c-21.722,0-40.829,13.889-47.545,34.56c-4.127,12.702-3.061,26.251,3.002,38.15
	c6.063,11.9,16.398,20.726,29.1,24.853c5.02,1.631,10.222,2.458,15.46,2.458C161.922,268.383,181.028,254.494,187.744,233.822z
	 M113.461,231.992c-3.638-7.14-4.277-15.268-1.801-22.89c4.03-12.405,15.493-20.74,28.523-20.74c3.136,0,6.258,0.498,9.278,1.479
	c7.621,2.476,13.821,7.771,17.459,14.912c3.638,7.14,4.278,15.269,1.802,22.89c-4.03,12.405-15.492,20.74-28.522,20.74
	c-3.136,0-6.258-0.498-9.28-1.48C123.299,244.427,117.099,239.132,113.461,231.992z"/>
<path d="M224.877,383.904c7.851-10.804,11.023-24.02,8.934-37.211c-2.089-13.191-9.19-24.779-19.995-32.629
	c-8.602-6.249-18.753-9.552-29.357-9.552c-15.972,0-31.106,7.706-40.484,20.614c-7.85,10.804-11.022,24.019-8.933,37.21
	c2.089,13.191,9.19,24.779,19.996,32.629c8.601,6.249,18.753,9.552,29.357,9.552C200.365,404.517,215.499,396.811,224.877,383.904z
	 M208.696,372.147c-5.627,7.746-14.712,12.37-24.303,12.37c-6.353,0-12.439-1.982-17.601-5.732
	c-6.483-4.71-10.743-11.662-11.997-19.577c-1.253-7.915,0.65-15.843,5.36-22.326c5.627-7.746,14.713-12.37,24.304-12.37
	c6.353,0,12.439,1.982,17.601,5.733c6.483,4.71,10.743,11.662,11.997,19.577C215.311,357.736,213.407,365.665,208.696,372.147z"/>
<path d="M327.542,304.512c-10.605,0-20.756,3.303-29.356,9.552c-10.805,7.85-17.905,19.438-19.995,32.629
	c-2.089,13.191,1.083,26.406,8.934,37.211c9.378,12.908,24.512,20.614,40.483,20.614c10.604,0,20.755-3.303,29.356-9.552
	c10.805-7.85,17.906-19.438,19.995-32.629c2.09-13.191-1.083-26.407-8.934-37.21C358.647,312.218,343.513,304.512,327.542,304.512z
	 M357.205,359.208c-1.253,7.914-5.514,14.867-11.997,19.577c-5.161,3.75-11.248,5.732-17.601,5.732
	c-9.591,0-18.676-4.624-24.304-12.37c-4.709-6.482-6.613-14.411-5.359-22.326c1.254-7.915,5.515-14.867,11.997-19.577
	c5.161-3.75,11.248-5.733,17.601-5.733c9.591,0,18.676,4.624,24.304,12.371C356.555,343.364,358.459,351.293,357.205,359.208z"/>
<path d="M419.363,202.922c-6.717-20.671-25.823-34.56-47.546-34.56c-5.237,0-10.439,0.827-15.458,2.458
	c-12.702,4.127-23.036,12.953-29.1,24.853s-7.129,25.449-3.002,38.15c6.716,20.672,25.822,34.561,47.543,34.561
	c5.239,0,10.44-0.827,15.46-2.458C413.481,257.406,427.882,229.143,419.363,202.922z M381.08,246.903
	c-3.021,0.982-6.143,1.48-9.279,1.48c-13.029,0-24.491-8.335-28.522-20.741c-2.476-7.621-1.837-15.75,1.801-22.89
	s9.839-12.436,17.459-14.912c3.02-0.981,6.143-1.479,9.278-1.479c13.031,0,24.494,8.335,28.524,20.74
	C405.453,224.835,396.812,241.792,381.08,246.903z"/>
<path d="M284.527,246.732c-4.029-12.4-15.491-20.731-28.522-20.731c-3.145,0-6.265,0.496-9.273,1.474
	c-7.62,2.475-13.82,7.77-17.458,14.91c-3.637,7.139-4.276,15.267-1.8,22.885c4.029,12.4,15.491,20.732,28.523,20.732
	c3.143,0,6.263-0.496,9.272-1.473C280.999,279.418,289.637,262.462,284.527,246.732z M259.089,265.507
	c-1.01,0.328-2.051,0.495-3.092,0.495c-4.34,0-8.158-2.778-9.502-6.913c-0.825-2.539-0.612-5.247,0.6-7.626
	c1.212-2.378,3.277-4.143,5.817-4.968c1.01-0.328,2.05-0.495,3.092-0.495c4.339,0,8.158,2.777,9.5,6.911
	C267.209,258.154,264.331,263.804,259.089,265.507z"/>
<path d="M127.432,145.805c2.666,0,5.327-1.06,7.295-3.158l0.479-0.509c3.811-3.998,3.659-10.328-0.339-14.138
	c-3.997-3.81-10.327-3.658-14.138,0.339l-0.587,0.624c-3.779,4.028-3.577,10.356,0.451,14.135
	C122.522,144.908,124.979,145.805,127.432,145.805z"/>
<path d="M286.813,419.117l-0.722,0.135c-5.432,0.999-9.025,6.212-8.026,11.644c0.887,4.821,5.092,8.193,9.823,8.193
	c0.601,0,1.209-0.054,1.82-0.167l0.808-0.15c5.428-1.023,8.998-6.252,7.976-11.679C297.468,421.665,292.235,418.095,286.813,419.117
	z"/>
<path d="M487,427.002h-40.661c40.797-45.365,65.661-105.33,65.661-171C512.001,114.842,397.16,0,256,0S0,114.842,0,256.002
	c0,141.159,114.842,256,256.001,256c47.042,0,91.152-12.768,129.072-35h101.928c13.785,0,25-11.215,25-25
	C512.001,438.217,500.786,427.002,487,427.002z M19.999,256.002C19.999,125.87,125.869,20,256,20s236,105.87,236,236.002
	c0,130.131-105.869,236-236,236S19.999,386.133,19.999,256.002z M487,457.002h-72.636c4.067-3.212,8.027-6.553,11.892-10H487
	c2.71,0,5,2.29,5,5C492,454.712,489.71,457.002,487,457.002z"/>
<g>
</g>
<g>
</g>
<g>
</g>
<g>
</g>
<g>
</g>
<g>
</g>
<g>
</g>
<g>
</g>
<g>
</g>
<g>
</g>
<g>
</g>
<g>
</g>
<g>
</g>
<g>
</g>
<g>
</g>
</svg>
