<?xml version="1.0" encoding="iso-8859-1"?>
<!-- Generator: Adobe Illustrator 19.0.0, SVG Export Plug-In . SVG Version: 6.00 Build 0)  -->
<svg version="1.1" id="Capa_1" xmlns="http://www.w3.org/2000/svg" xmlns:xlink="http://www.w3.org/1999/xlink" x="0px" y="0px"
	 viewBox="0 0 512.002 512.002" style="enable-background:new 0 0 512.002 512.002;" xml:space="preserve">
<g>
	<circle style="fill:#BCCBD3;" cx="255.999" cy="190" r="40"/>
	<path style="fill:#636A75;" d="M296,190c0,22.092-17.908,40-40,40s-40-17.908-40-40s17.908-40,40-40S296,167.908,296,190L296,190z
		 M331,190c0-41.422-33.578-75-75-75c-41.421,0-75,33.578-75,75c0,41.42,33.579,75,75,75C297.422,265,331,231.42,331,190z"/>
	<path style="fill:#E1E6E9;" d="M255.999,115c41.422,0,75,33.578,75,75h105c0-99.412-80.589-180-180-180
		c-99.41,0-180,80.588-180,180h105C181.001,148.578,214.579,115,255.999,115z"/>
	<path style="fill:#4AD194;" d="M331,190c0,41.42-33.578,75-75,75c-41.421,0-75-33.58-75-75h-105
		c0,51.289,21.451,97.568,55.873,130.354c21.499,20.48,48.06,35.695,77.613,43.578c14.839,3.957,30.431,6.068,46.514,6.068
		c16.085,0,31.677-2.111,46.515-6.068c29.553-7.883,56.113-23.1,77.613-43.578C414.549,287.568,436,241.289,436,190H331z"/>
	<path style="fill:#636A75;" d="M302.515,363.932c-14.838,3.957-30.429,6.068-46.515,6.068c-16.084,0-31.676-2.111-46.514-6.068
		v19.553C209.486,409.068,230.419,430,255.999,430c25.583,0,46.515-20.932,46.515-46.516V363.932z"/>
	<path style="fill:#E1E6E9;" d="M302.515,363.932v19.553c0,25.583-20.932,46.515-46.515,46.515
		c-25.582,0-46.514-20.932-46.514-46.516v-19.553c-29.554-7.883-56.114-23.098-77.613-43.578
		c-48.746,33.373-83.379,85.852-93.102,146.648h434.457c-1.922-12.02-4.818-23.715-8.604-35
		c-15.363-45.801-45.389-84.873-84.497-111.648C358.628,340.832,332.068,356.049,302.515,363.932z"/>
	<path style="fill:#4AD194;" d="M473.229,467.002H38.771H27.5c-9.625,0-17.499,7.875-17.499,17.5s7.874,17.5,17.499,17.5h457.003
		c9.625,0,17.499-7.875,17.499-17.5s-7.874-17.5-17.499-17.5H473.229z"/>
</g>
<path d="M125.426,126.16c1.575,0.909,3.294,1.342,4.991,1.342c3.456,0,6.817-1.794,8.669-5.002
	c6.904-11.958,15.568-22.748,25.753-32.071c4.074-3.729,4.353-10.055,0.624-14.128c-3.729-4.074-10.055-4.353-14.128-0.624
	c-11.693,10.704-21.641,23.094-29.568,36.823C119.003,117.283,120.643,123.398,125.426,126.16z"/>
<path d="M255.999,240c27.57,0,50-22.43,50-50s-22.43-50-50-50s-50,22.43-50,50C206.001,217.57,228.429,240,255.999,240z
	 M255.999,160c16.542,0,30,13.458,30,30s-13.458,30-30,30s-30-13.458-30-30C226.001,173.458,239.457,160,255.999,160z"/>
<path d="M484.503,457.002h-2.928c-1.844-9.258-4.257-18.365-7.218-27.272c-0.152-0.652-0.367-1.279-0.64-1.876
	c-14.681-42.906-41.975-81.048-78.376-108.835C426.76,285.111,446,239.764,446,190c0-104.767-85.233-190-190-190
	s-190,85.233-190,190c0,49.764,19.24,95.111,50.66,129.02c-44.463,33.941-75.345,83.326-86.232,137.982H27.5
	C12.337,457.002,0,469.338,0,484.502s12.336,27.5,27.499,27.5h457.003c15.163,0,27.499-12.336,27.499-27.5
	S499.665,457.002,484.503,457.002z M219.486,376.483c3.982,0.775,7.996,1.424,12.039,1.944c0.286,0.036,0.572,0.07,0.858,0.105
	c1.197,0.148,2.395,0.287,3.596,0.413c0.438,0.046,0.875,0.09,1.313,0.133c1.065,0.104,2.131,0.198,3.199,0.284
	c0.516,0.042,1.031,0.084,1.548,0.122c1.018,0.074,2.038,0.137,3.059,0.194c0.539,0.031,1.076,0.065,1.615,0.091
	c1.067,0.052,2.135,0.089,3.205,0.122c0.48,0.016,0.959,0.037,1.441,0.049c1.544,0.037,3.091,0.059,4.64,0.059
	c1.549,0,3.096-0.021,4.641-0.059c0.481-0.012,0.96-0.033,1.44-0.049c1.07-0.033,2.139-0.07,3.206-0.122
	c0.539-0.026,1.076-0.06,1.613-0.091c1.022-0.058,2.042-0.12,3.061-0.194c0.516-0.038,1.03-0.079,1.544-0.121
	c1.07-0.087,2.138-0.182,3.204-0.286c0.436-0.042,0.873-0.086,1.309-0.132c1.204-0.126,2.404-0.265,3.603-0.413
	c0.283-0.035,0.567-0.069,0.85-0.105c4.044-0.52,8.059-1.17,12.042-1.944v7.001c0,20.135-16.38,36.516-36.515,36.516
	c-20.134,0-36.514-16.381-36.514-36.516v-7.001H219.486z M171.608,200c4.967,42.171,40.907,75,84.392,75s79.424-32.829,84.392-75
	h85.306c-4.685,80.349-65.419,145.894-143.586,157.995c-0.145,0.022-0.289,0.045-0.433,0.067c-1.171,0.178-2.348,0.341-3.528,0.495
	c-0.27,0.035-0.541,0.072-0.812,0.106c-1.063,0.134-2.129,0.253-3.198,0.366c-0.367,0.039-0.734,0.082-1.102,0.118
	c-0.987,0.1-1.978,0.184-2.97,0.265c-0.435,0.036-0.869,0.077-1.304,0.109c-0.949,0.07-1.902,0.126-2.856,0.182
	c-0.468,0.026-0.935,0.06-1.404,0.083c-0.98,0.049-1.966,0.081-2.951,0.112c-0.435,0.015-0.868,0.036-1.303,0.047
	c-1.413,0.035-2.83,0.055-4.252,0.055c-1.422,0-2.839-0.02-4.252-0.054c-0.435-0.011-0.869-0.032-1.304-0.047
	c-0.985-0.031-1.969-0.064-2.949-0.112c-0.47-0.023-0.938-0.057-1.406-0.084c-0.953-0.055-1.905-0.11-2.854-0.181
	c-0.437-0.032-0.872-0.073-1.307-0.109c-0.991-0.081-1.981-0.165-2.967-0.264c-0.369-0.037-0.737-0.08-1.105-0.119
	c-1.067-0.113-2.133-0.232-3.194-0.366c-0.272-0.034-0.544-0.072-0.816-0.107c-1.177-0.153-2.352-0.316-3.522-0.494
	c-0.146-0.022-0.293-0.046-0.439-0.068C151.719,345.892,90.986,280.348,86.303,200H171.608z M191.001,190c0-35.841,29.159-65,65-65
	s65,29.159,65,65s-29.159,65-65,65S191.001,225.841,191.001,190z M255.999,20c90.381,0,164.503,70.899,169.698,160h-85.306
	c-4.967-42.171-40.907-75-84.392-75s-79.424,32.829-84.392,75H86.303C91.497,90.899,165.619,20,255.999,20z M131.1,333.183
	c20.094,17.556,43.361,30.492,68.386,38.267v12.035c0,31.162,25.352,56.515,56.513,56.515c31.162,0,56.515-25.353,56.515-56.516
	v-12.035c25.025-7.775,48.291-20.711,68.386-38.267c30.84,22.872,54.75,53.791,69.251,88.819h-57.035c-5.523,0-10,4.477-10,10
	c0,5.522,4.477,10,10,10h64.146c1.48,4.942,2.787,9.943,3.896,15H50.84C61.65,407.724,90.324,363.423,131.1,333.183z
	 M484.503,492.002H27.5c-4.135,0-7.499-3.364-7.499-7.5s3.364-7.5,7.499-7.5l0,0h457.003c0.007,0-0.007,0,0,0l0,0
	c4.135,0,7.499,3.364,7.499,7.5C492.001,488.638,488.637,492.002,484.503,492.002z"/>
<path d="M183.19,74.611c1.688,0,3.4-0.429,4.969-1.329l0.318-0.184c4.79-2.75,6.444-8.862,3.694-13.651
	c-2.749-4.79-8.861-6.443-13.651-3.694l-0.318,0.184c-4.79,2.75-6.444,8.862-3.694,13.651
	C176.357,72.809,179.727,74.611,183.19,74.611z"/>
<path d="M364.387,422.002h-0.27c-5.523,0-10,4.477-10,10c0,5.522,4.477,10,10,10h0.27c5.523,0,10-4.478,10-10
	C374.387,426.479,369.91,422.002,364.387,422.002z"/>
<g>
</g>
<g>
</g>
<g>
</g>
<g>
</g>
<g>
</g>
<g>
</g>
<g>
</g>
<g>
</g>
<g>
</g>
<g>
</g>
<g>
</g>
<g>
</g>
<g>
</g>
<g>
</g>
<g>
</g>
</svg>
