<?xml version="1.0" encoding="iso-8859-1"?>
<!-- Generator: Adobe Illustrator 19.0.0, SVG Export Plug-In . SVG Version: 6.00 Build 0)  -->
<svg version="1.1" id="Capa_1" xmlns="http://www.w3.org/2000/svg" xmlns:xlink="http://www.w3.org/1999/xlink" x="0px" y="0px"
	 viewBox="0 0 512.001 512.001" style="enable-background:new 0 0 512.001 512.001;" xml:space="preserve">
<g>
	<g>
		<path style="fill:#636A75;" d="M44.999,256c0-102.855,73.597-188.523,171.001-207.215C228.951,46.301,242.324,45,256,45
			c63.659,0,120.734,28.192,159.422,72.77c32.131,37.027,51.579,85.357,51.579,138.23c0,102.858-73.597,188.523-171.001,207.215
			c-12.951,2.484-26.324,3.787-40,3.787c-63.659,0-120.734-28.191-159.422-72.772C64.446,357.206,44.999,308.874,44.999,256
			L44.999,256z M256,10C120.137,10,9.999,120.137,9.999,256S120.137,502.003,256,502.003c135.862,0,246.001-110.139,246.001-246.002
			S391.862,10,256,10z"/>
		<polygon style="fill:#636A75;" points="216,232.907 216,256 216,279.094 236,290.641 256,302.188 276,290.641 296,279.094 
			296,256 296,232.907 276,221.36 256,209.813 236,221.36 		"/>
	</g>
	<path style="fill:#E1E6E9;" d="M216,232.907l20-11.547l20-11.547l159.422-92.043C376.734,73.192,319.659,45,256,45
		c-13.676,0-27.049,1.301-40,3.785V232.907z"/>
	<path style="fill:#BCCBD3;" d="M216,279.094V256v-23.094V48.823C158.05,60.038,105.098,95.37,73.268,150.501
		c-6.838,11.844-12.397,24.076-16.721,36.535L216,279.094z"/>
	<path style="fill:#E1E6E9;" d="M256,302.188l-20-11.545l-20-11.549L56.578,187.053C37.315,242.846,41.438,306.37,73.268,361.5
		c6.838,11.846,14.651,22.775,23.279,32.748L256,302.188z"/>
	<path style="fill:#BCCBD3;" d="M296,279.094l-20,11.547l-20,11.547L96.578,394.231c38.688,44.58,95.763,72.772,159.422,72.772
		c13.676,0,27.049-1.303,40-3.787V279.094z"/>
	<path style="fill:#E1E6E9;" d="M296,232.907V256v23.094v184.084c57.95-11.213,110.902-46.547,142.732-101.678
		c6.838-11.844,12.396-24.074,16.721-36.533L296,232.907z"/>
	<path style="fill:#BCCBD3;" d="M256,209.813l20,11.547l20,11.547l159.422,92.043c19.263-55.795,15.14-119.318-16.689-174.449
		c-6.838-11.844-14.651-22.773-23.279-32.748L256,209.813z"/>
</g>
<path d="M256,0.001C114.841,0.001,0,114.841,0,256s114.841,256,256,256s256.001-114.841,256.001-256S397.159,0.001,256,0.001z
	 M256,492C125.869,492,20,386.131,20,256S125.869,20,256,20s236.001,105.869,236.001,236S386.131,492,256,492z"/>
<path d="M114.883,150.348c1.875,1.577,4.16,2.348,6.433,2.348c2.849,0,5.679-1.211,7.657-3.563
	c12.456-14.805,27.268-27.218,44.027-36.893c4.783-2.761,6.422-8.877,3.661-13.66c-2.762-4.783-8.878-6.422-13.66-3.66
	c-18.778,10.84-35.376,24.748-49.332,41.338C110.113,140.484,110.656,146.792,114.883,150.348z"/>
<path d="M397.118,361.653c-4.227-3.555-10.535-3.013-14.09,1.215c-12.456,14.805-27.27,27.219-44.028,36.895
	c-4.783,2.762-6.421,8.878-3.66,13.66c1.853,3.209,5.213,5.002,8.669,5.002c1.696,0,3.417-0.433,4.991-1.342
	c18.777-10.842,35.374-24.75,49.331-41.34C401.887,371.517,401.344,365.209,397.118,361.653z"/>
<path d="M465.092,327.592c7.713-22.463,11.909-46.546,11.909-71.592c0-54.678-19.97-104.774-52.986-143.4
	c-0.615-1.021-1.385-1.891-2.263-2.604C381.225,64.043,321.944,35,256,35c-14.048,0-27.789,1.333-41.116,3.852
	c-0.495,0.055-0.976,0.152-1.446,0.277C136.107,54.278,73.102,109.88,47.434,182.921c-0.221,0.488-0.389,0.988-0.526,1.492
	C39.195,206.875,35,230.956,35,256c0,54.687,19.976,104.789,53,143.418c0.605,1,1.361,1.852,2.22,2.554
	C130.748,447.945,190.04,477,256,477c14.048,0,27.789-1.333,41.116-3.852c0.495-0.055,0.976-0.152,1.445-0.277
	c77.332-15.148,140.337-70.751,166.005-143.79C464.788,328.594,464.955,328.095,465.092,327.592z M449.611,310.047L276,209.813l0,0
	l137.039-79.119c27.495,34.387,43.962,77.957,43.962,125.307C457.001,274.718,454.42,292.843,449.611,310.047z M256,290.641
	l-30-17.32V238.68l30-17.32l30,17.32v34.641L256,290.641z M399.503,115.415L226,215.587l0,0V57.241c9.79-1.472,19.807-2.24,30-2.24
	C312.156,55,362.998,78.159,399.503,115.415z M206,61.297v200.477l0,0L68.875,182.606C92.285,123.13,143.269,77.416,206,61.297z
	 M62.389,201.956L236,302.188l0,0L98.962,381.307C71.467,346.921,55,303.35,55,256C55,237.284,57.581,219.159,62.389,201.956z
	 M112.497,396.586L286,296.415l0,0V454.76c-9.79,1.472-19.807,2.24-30,2.24C199.844,457,149.002,433.842,112.497,396.586z
	 M306,450.704V250.227l0,0l137.125,79.17C419.715,388.874,368.73,434.586,306,450.704z"/>
<path d="M98.55,176.644c1.582,0.921,3.312,1.358,5.019,1.358c3.444,0,6.796-1.782,8.653-4.974l0.372-0.641
	c2.76-4.783,1.119-10.899-3.665-13.659c-4.784-2.759-10.899-1.119-13.659,3.665l-0.335,0.578
	C92.157,167.746,93.776,173.868,98.55,176.644z"/>
<path d="M413.418,335.338c-4.784-2.76-10.898-1.119-13.659,3.665l-0.353,0.609c-2.76,4.783-1.119,10.899,3.665,13.659
	c1.574,0.908,3.292,1.34,4.988,1.34c3.457,0,6.819-1.795,8.671-5.005l0.353-0.609C419.843,344.214,418.202,338.098,413.418,335.338z
	"/>
<g>
</g>
<g>
</g>
<g>
</g>
<g>
</g>
<g>
</g>
<g>
</g>
<g>
</g>
<g>
</g>
<g>
</g>
<g>
</g>
<g>
</g>
<g>
</g>
<g>
</g>
<g>
</g>
<g>
</g>
</svg>
