<?xml version="1.0" encoding="iso-8859-1"?>
<!-- Generator: Adobe Illustrator 19.0.0, SVG Export Plug-In . SVG Version: 6.00 Build 0)  -->
<svg version="1.1" id="Capa_1" xmlns="http://www.w3.org/2000/svg" xmlns:xlink="http://www.w3.org/1999/xlink" x="0px" y="0px"
	 viewBox="0 0 512.001 512.001" style="enable-background:new 0 0 512.001 512.001;" xml:space="preserve">
<g>
	<path style="fill:#BCCBD3;" d="M256.001,155.999c-66.274,0-120,53.727-120,120c0,20.684,5.232,40.145,14.447,57.133
		l136.369-136.369l26.315-26.316C296.146,161.232,276.685,155.999,256.001,155.999z"/>
	<path style="fill:#636A75;" d="M175.464,364.957C196.757,384.248,225.006,396,256.001,396c66.273,0,120-53.727,120-120
		c0-30.994-11.753-59.242-31.043-80.537L175.464,364.957z"/>
	<path style="fill:#4AD194;" d="M175.464,364.957L104.421,436h377.581c11,0,19.999-9,19.999-20V276h-126
		c0,66.273-53.727,120-120,120C225.006,396,196.757,384.248,175.464,364.957L175.464,364.957z M407.002,376c0-11.045,8.954-20,20-20
		c11.045,0,19.999,8.955,19.999,20s-8.954,20-19.999,20C415.956,396,407.002,387.044,407.002,376z"/>
	<path style="fill:#F74F5C;" d="M496.139,44.283c7.815-7.816,7.815-20.605-0.001-28.422c-7.814-7.814-20.603-7.814-28.419,0.002
		L367.581,115.999l-54.448,54.447l-26.315,26.316L176.763,306.816l-26.314,26.316L47.58,436l-31.718,31.719
		c-7.815,7.815-7.815,20.604,0,28.42c7.816,7.816,20.605,7.816,28.421,0L104.421,436l71.043-71.043l24.791-24.791l119.912-119.912
		l24.791-24.791L424.421,116L496.139,44.283z"/>
	<path style="fill:#4AD194;" d="M105,100.999c0-8.25-6.749-15-14.999-15H59.999c-8.249,0-14.999,6.75-14.999,15v15h60V100.999z"/>
	<path style="fill:#E1E6E9;" d="M186.001,115.999H105H45H30c-11.001,0-20,9-20,20v140h126.001c0-66.273,53.726-120,120-120
		c20.684,0,40.145,5.232,57.132,14.447l54.448-54.447h-41.58l-10-30c-1.739-5.217-4.5-10-10-10h-100c-5.5,0-8.261,4.783-10,10
		L186.001,115.999z"/>
	<path style="fill:#636A75;" d="M256.001,155.999c-66.274,0-120,53.727-120,120c0,20.684,5.232,40.145,14.447,57.133l26.314-26.316
		C173.043,297.263,171,286.871,171,276c0-46.943,38.056-85,85-85c10.87,0,21.263,2.043,30.816,5.764l26.315-26.316
		C296.146,161.232,276.685,155.999,256.001,155.999z"/>
	<path style="fill:#BCCBD3;" d="M320.167,220.253L200.255,340.166C215.179,353.142,234.672,361,256.001,361
		c46.944,0,85-38.055,85-85C341.001,254.671,333.144,235.177,320.167,220.253z"/>
	<circle style="fill:#636A75;" cx="427" cy="376" r="20"/>
	<path style="fill:#E1E6E9;" d="M376.001,276h126V136c0-11-8.999-20-19.999-20h-57.581l-79.463,79.463
		C364.248,216.757,376.001,245.005,376.001,276L376.001,276z M467.002,170.999c0,11-9,20-20,20h-40c-11,0-20-9-20-20s9-20,20-20h40
		C458.002,150.999,467.002,159.999,467.002,170.999z"/>
	<path style="fill:#FFC36C;" d="M407.002,190.999h40c11,0,20-9,20-20s-9-20-20-20h-40c-11,0-20,9-20,20
		S396.002,190.999,407.002,190.999z"/>
	<path style="fill:#4AD194;" d="M150.448,333.132c-9.215-16.988-14.447-36.449-14.447-57.133H10v140c0,11,8.999,20,20,20h17.58
		L150.448,333.132z"/>
</g>
<path d="M482.002,105.999h-33.439l54.646-54.646c5.669-5.669,8.79-13.227,8.79-21.281c0-8.006-3.084-15.521-8.688-21.178
	c-0.034-0.035-0.069-0.069-0.103-0.104c-5.668-5.668-13.226-8.789-21.279-8.789c-8.056,0-15.613,3.122-21.282,8.791L363.439,106
	h-30.23l-7.722-23.163C320.847,68.921,312.33,66,306.001,66h-100c-6.329,0-14.847,2.921-19.487,16.838L178.793,106H115v-5
	c0-13.785-11.214-25-24.999-25H59.999C46.214,76,35,87.215,35,101v5h-5c-16.542,0-30,13.458-30,30v280
	c0,14.5,10.342,26.629,24.036,29.402L8.791,460.647C3.123,466.315,0,473.873,0,481.927c0,8.055,3.122,15.612,8.791,21.282
	C14.46,508.879,22.019,512,30.073,512c8.055,0,15.613-3.122,21.281-8.791l57.21-57.21h373.438c16.542,0,29.999-13.458,29.999-30
	v-280C512.001,119.458,498.544,105.999,482.002,105.999z M482.002,125.999c5.514,0,9.999,4.486,9.999,10v130h-106.39
	c-1.956-25.507-11.359-49.786-27.102-69.946l19.09-19.089c2.773,13.693,14.902,24.035,29.402,24.035h40c16.542,0,30-13.458,30-30
	s-13.458-30-30-30h-33.439l15-15C428.562,125.999,482.002,125.999,482.002,125.999z M331.001,276c0,41.355-33.645,75-75,75
	c-14.456,0-28.517-4.171-40.54-11.896l79.433-79.433c-0.671,1.855-0.806,3.925-0.256,5.976c0.904,3.377,1.363,6.86,1.363,10.354
	c0,9.347-3.298,18.447-9.286,25.626c-3.537,4.241-2.967,10.547,1.274,14.085c1.87,1.56,4.141,2.32,6.4,2.32
	c2.863,0,5.706-1.224,7.685-3.595c8.98-10.767,13.927-24.417,13.927-38.437c0-5.24-0.688-10.466-2.045-15.529
	c-1.43-5.334-6.915-8.502-12.247-7.071c-0.275,0.073-0.541,0.165-0.804,0.26l18.198-18.199
	C326.83,247.482,331.001,261.543,331.001,276z M201.071,353.493C217.056,364.83,236.234,371,256.001,371c52.383,0,95-42.617,95-95
	c0-19.768-6.17-38.945-17.507-54.931l10.75-10.75c14.094,18.909,21.757,41.866,21.757,65.681c0,60.654-49.346,110-110,110
	c-23.816,0-46.773-7.662-65.681-21.756L201.071,353.493z M407.002,160.999h40c5.514,0,10,4.486,10,10s-4.486,10-10,10h-40
	c-5.514,0-10-4.486-10-10C397.002,165.486,401.488,160.999,407.002,160.999z M146.001,276c0-60.654,49.346-110,110-110
	c13.693,0,27.284,2.566,39.949,7.488l-11.787,11.787c-9.087-2.822-18.527-4.275-28.162-4.275c-52.383,0-95,42.617-95,95
	c0,9.635,1.452,19.075,4.274,28.163l-11.786,11.786C148.566,303.284,146.001,289.693,146.001,276z M181.883,287.554
	c-0.586-3.799-0.882-7.657-0.882-11.555c0-41.355,33.645-75,75-75c3.898,0,7.755,0.295,11.555,0.883l-51.963,51.963L181.883,287.554
	z M55,100.999c0-2.71,2.289-5,4.999-5h30.002c2.71,0,4.999,2.29,4.999,5v5H55V100.999z M30,125.999L30,125.999h156.001l0,0
	c4.304,0,8.125-2.754,9.487-6.838l10-29.999c0.573-1.72,1.063-2.671,1.371-3.163h98.285c0.307,0.492,0.797,1.442,1.37,3.162l10,30
	c1.361,4.084,5.183,6.838,9.487,6.838h17.438l-32.268,32.268c-17.167-8.04-36.086-12.268-55.17-12.268
	c-68.318,0-124.496,52.972-129.619,120H20v-130C20,130.486,24.486,125.999,30,125.999z M20,416V286h106.403
	c1.209,15.654,5.234,31.009,11.866,45.17L43.438,426H30C24.486,426,20,421.513,20,416z M37.212,489.068
	c-1.892,1.89-4.427,2.932-7.139,2.932s-5.248-1.042-7.14-2.933c-1.891-1.892-2.933-4.428-2.933-7.141
	c0-2.712,1.041-5.247,2.933-7.138L474.79,22.933c1.892-1.892,4.427-2.933,7.14-2.933c2.685,0,5.195,1.021,7.08,2.875
	c0.02,0.02,0.039,0.039,0.059,0.059c1.891,1.891,2.932,4.426,2.932,7.138c0,2.713-1.041,5.249-2.933,7.14l0,0
	c-0.004,0.004,0.004-0.004,0,0l0,0l0,0L37.212,489.068L37.212,489.068L37.212,489.068C37.208,489.072,37.216,489.064,37.212,489.068
	L37.212,489.068z M482.002,426H128.564l47.49-47.49C198.831,396.297,226.87,406,256,406c68.318,0,124.496-52.972,129.619-120H492
	v130C492.001,421.513,487.516,426,482.002,426z"/>
<path d="M104.765,160.999h0.27c5.523,0,10-4.477,10-10c0-5.522-4.477-10-10-10h-0.27c-5.523,0-10,4.478-10,10
	C94.765,156.522,99.242,160.999,104.765,160.999z"/>
<path d="M45,160.999h31.034c5.523,0,10-4.477,10-10c0-5.522-4.477-10-10-10H45c-5.523,0-10,4.478-10,10
	C35,156.522,39.477,160.999,45,160.999z"/>
<path d="M427.002,346c-16.542,0-30,13.458-30,30s13.458,30,30,30s29.999-13.458,29.999-30S443.544,346,427.002,346z M427.002,386
	c-5.514,0-10-4.486-10-10s4.486-10,10-10s9.999,4.486,9.999,10C437.001,381.513,432.516,386,427.002,386z"/>
<path d="M266.585,314.574l-0.23,0.063c-5.335,1.429-8.502,6.911-7.074,12.246c1.196,4.469,5.237,7.417,9.654,7.417
	c0.855,0,1.726-0.111,2.592-0.343l0.513-0.141c5.313-1.506,8.399-7.035,6.893-12.349
	C277.427,316.154,271.903,313.07,266.585,314.574z"/>
<g>
</g>
<g>
</g>
<g>
</g>
<g>
</g>
<g>
</g>
<g>
</g>
<g>
</g>
<g>
</g>
<g>
</g>
<g>
</g>
<g>
</g>
<g>
</g>
<g>
</g>
<g>
</g>
<g>
</g>
</svg>
