<?xml version="1.0" encoding="iso-8859-1"?>
<!-- Generator: Adobe Illustrator 19.0.0, SVG Export Plug-In . SVG Version: 6.00 Build 0)  -->
<svg version="1.1" id="Capa_1" xmlns="http://www.w3.org/2000/svg" xmlns:xlink="http://www.w3.org/1999/xlink" x="0px" y="0px"
	 viewBox="0 0 512.002 512.002" style="enable-background:new 0 0 512.002 512.002;" xml:space="preserve">
<g>
	<path style="fill:#E1E6E9;" d="M45,91.001h422.002v218.363v111.637H45l-0.001-41.225L45,91.001L45,91.001z M30,56.001
		c-11.001,0-20,9-20,20v360c0,11,8.999,20,20,20h452.002c10.964,0,19.941-8.941,19.999-19.893l0.001-360.107l-0.001-0.107
		c-0.058-10.951-9.035-19.893-19.999-19.893C482.002,56.001,30,56.001,30,56.001z"/>
	<path style="fill:#BCCBD3;" d="M467.002,91.001H45l-0.001,288.775l92.941-92.941c13.216-13.215,34.841-13.215,48.057,0
		l58.789,58.789l105.21-105.209c13.216-13.215,34.841-13.215,48.057,0l68.949,68.949V91.001L467.002,91.001z M246.001,166.118
		c16.568,0,29.999,13.432,29.999,30s-13.431,30-29.999,30c-16.569,0-30-13.432-30-30S229.432,166.118,246.001,166.118z"/>
	<path style="fill:#4AD194;" d="M244.786,345.624l-58.789-58.789c-13.216-13.215-34.841-13.215-48.057,0l-92.941,92.941L45,421.001
		h422.002V309.364l-68.949-68.949c-13.216-13.215-34.841-13.215-48.057,0L244.786,345.624z"/>
	<circle style="fill:#FFC36C;" cx="246" cy="196.12" r="30"/>
</g>
<path d="M482.002,46.001H30c-16.542,0-30,13.458-30,30v360c0,16.542,13.458,30,30,30h452.002c16.542,0,30-13.458,30-30v-360
	C512.002,59.459,498.544,46.001,482.002,46.001z M492.002,436.001c0,5.514-4.486,10-10,10H30c-5.514,0-10-4.486-10-10v-360
	c0-5.514,4.486-10,10-10h452.002c5.514,0,10,4.486,10,10V436.001z"/>
<path d="M477.002,421.001v-330c0-5.522-4.478-10-10-10H45c-5.523,0-10,4.478-10,10v327.333c0,0.017,0-0.017,0,0v2.667
	c0,5.522,4.477,10,10,10h422.002C472.524,431.001,477.002,426.523,477.002,421.001L477.002,421.001
	C477.002,420.998,477.002,421.004,477.002,421.001z M457.002,101.001v184.221l-51.878-51.878c-17.148-17.146-45.051-17.146-62.199,0
	l-98.139,98.138l-51.718-51.718c-17.148-17.146-45.05-17.146-62.199,0L55,355.633V101.001H457.002z M55,411.001v-27.083
	l90.011-90.012c9.351-9.352,24.565-9.35,33.915,0l58.789,58.789c3.906,3.906,10.237,3.905,14.143,0l105.21-105.209
	c9.351-9.351,24.563-9.351,33.914,0l66.021,66.02V411H55V411.001z"/>
<path d="M246.001,236.118c22.056,0,39.999-17.944,39.999-40s-17.943-40-39.999-40s-40,17.944-40,40S223.945,236.118,246.001,236.118
	z M246.001,176.118c11.027,0,19.999,8.972,19.999,20s-8.972,20-19.999,20c-11.028,0-20-8.972-20-20S234.973,176.118,246.001,176.118
	z"/>
<path d="M139.765,136.001h0.27c5.523,0,10-4.478,10-10s-4.477-10-10-10h-0.27c-5.523,0-10,4.478-10,10
	C129.765,131.523,134.242,136.001,139.765,136.001z"/>
<path d="M80,136.001h31.034c5.523,0,10-4.478,10-10s-4.477-10-10-10H80c-5.523,0-10,4.478-10,10
	C70,131.523,74.477,136.001,80,136.001z"/>
<path d="M372.236,376.001h-0.269c-5.522,0-10,4.478-10,10s4.478,10,10,10h0.269c5.522,0,10-4.478,10-10
	S377.759,376.001,372.236,376.001z"/>
<path d="M432.002,376.001h-31.034c-5.522,0-10,4.478-10,10s4.478,10,10,10h31.034c5.522,0,10-4.478,10-10
	S437.524,376.001,432.002,376.001z"/>
<g>
</g>
<g>
</g>
<g>
</g>
<g>
</g>
<g>
</g>
<g>
</g>
<g>
</g>
<g>
</g>
<g>
</g>
<g>
</g>
<g>
</g>
<g>
</g>
<g>
</g>
<g>
</g>
<g>
</g>
</svg>
