<?xml version="1.0" encoding="iso-8859-1"?>
<!-- Generator: Adobe Illustrator 19.0.0, SVG Export Plug-In . SVG Version: 6.00 Build 0)  -->
<svg version="1.1" id="Capa_1" xmlns="http://www.w3.org/2000/svg" xmlns:xlink="http://www.w3.org/1999/xlink" x="0px" y="0px"
	 viewBox="0 0 512.001 512.001" style="enable-background:new 0 0 512.001 512.001;" xml:space="preserve">
<g>
	<path style="fill:#BCCBD3;" d="M197.493,253.572c15.45-32.408,41.481-58.801,73.624-74.711
		c-6.131-28.118-31.156-49.16-61.117-49.16c-34.563,0-62.561,27.999-62.561,62.561C147.439,222.539,168.928,247.781,197.493,253.572
		z"/>
	<path style="fill:#636A75;" d="M147.439,192.261c0-34.562,27.999-62.561,62.561-62.561c29.961,0,54.986,21.042,61.117,49.16
		c10.437-5.166,21.517-9.226,33.088-12.028C293.017,125.282,255.082,94.7,210,94.7c-53.882,0-97.562,43.68-97.562,97.561
		c0,45.584,31.264,83.862,73.517,94.572c2.633-11.618,6.529-22.755,11.538-33.261C168.928,247.781,147.439,222.539,147.439,192.261z
		"/>
	<path style="fill:#FFC36C;" d="M304.205,166.832c-11.571,2.803-22.651,6.863-33.088,12.028
		c-32.143,15.91-58.174,42.303-73.624,74.711c-5.009,10.505-8.905,21.643-11.538,33.261c-2.588,11.421-3.954,23.306-3.954,35.51
		c0,88.365,71.635,159.999,160,159.999c88.366,0,160-71.634,160-159.999c0-64.052-37.638-119.313-92.002-144.874v0.013
		c-20.639-9.705-43.682-15.139-67.998-15.139C328.98,162.342,316.323,163.897,304.205,166.832L304.205,166.832z M362.001,227.342v30
		h10.001c11,0,19.999,8.999,19.999,20v33.332v53.335v33.333c0,11-8.999,20-19.999,20h-60.001c-11,0-20-9-20-20v-33.333v-53.335
		v-33.332c0-11.001,9-20,20-20h10v-30L362.001,227.342L362.001,227.342z"/>
	<rect x="322" y="227.34" style="fill:#E1E6E9;" width="40" height="30"/>
	<g>
		<path style="fill:#4AD194;" d="M362.001,257.342h-40h-10c-11,0-20,8.999-20,20v33.332h100v-33.332c0-11.001-8.999-20-19.999-20
			H362.001z"/>
		<rect x="292" y="310.68" style="fill:#4AD194;" width="100" height="53.33"/>
		<path style="fill:#4AD194;" d="M392.001,364.009h-100v33.333c0,11,9,20,20,20h60.001c11,0,19.999-9,19.999-20V364.009z"/>
	</g>
	<path style="fill:#E1E6E9;" d="M342.001,162.342c24.313,0,47.361,5.423,67.998,15.126V78.44c0-8.944-7.317-16.26-16.26-16.26
		H266.91l-8.131-24.391c-1.414-4.242-3.658-8.129-8.129-8.129h-81.302c-4.471,0-6.716,3.888-8.13,8.129l-8.13,24.391H26.26
		C17.316,62.18,10,69.496,10,78.44v227.642c0,8.943,7.316,16.26,16.26,16.26h155.741c0-12.204,1.366-24.089,3.954-35.51
		c-42.253-10.71-73.517-48.988-73.517-94.572c0-53.88,43.68-97.561,97.562-97.561c45.082,0,83.017,30.582,94.205,72.132
		C316.323,163.897,328.98,162.342,342.001,162.342z"/>
</g>
<path d="M419.999,171.322V78.44c0-14.48-11.78-26.26-26.26-26.26H274.118l-5.852-17.553c-4.341-13.023-12.9-14.967-17.616-14.967
	h-81.302c-4.716,0-13.275,1.944-17.617,14.967L145.88,52.18H26.26C11.78,52.18,0,63.96,0,78.44v227.642
	c0,14.48,11.78,26.26,26.26,26.26h146.043c5.195,89.1,79.317,159.999,169.698,159.999c93.738,0,170-76.261,170-169.999
	C512.001,256.702,474.603,199.638,419.999,171.322z M20,306.082V78.44c0-3.394,2.867-6.26,6.26-6.26h126.829
	c4.304,0,8.126-2.754,9.487-6.838l8.13-24.39c0.18-0.54,0.344-0.964,0.485-1.292h77.617c0.141,0.328,0.305,0.752,0.485,1.292
	l8.131,24.391c1.361,4.084,5.183,6.837,9.487,6.837H393.74c3.393,0,6.26,2.867,6.26,6.26v84.055
	c-14.393-5.24-29.346-8.457-44.695-9.636c-0.175-0.014-0.351-0.026-0.526-0.04c-1.14-0.084-2.281-0.156-3.425-0.218
	c-0.337-0.018-0.674-0.038-1.012-0.054c-1.012-0.048-2.026-0.086-3.041-0.116c-0.401-0.012-0.802-0.029-1.204-0.039
	c-1.203-0.028-2.409-0.042-3.616-0.046c-0.159-0.001-0.318-0.006-0.477-0.006c-0.742,0-1.48,0.019-2.22,0.028
	c-0.68,0.009-1.362,0.009-2.041,0.026c-0.743,0.018-1.481,0.054-2.222,0.082c-0.686,0.026-1.373,0.044-2.056,0.079
	c-0.73,0.036-1.456,0.088-2.184,0.134c-0.689,0.043-1.38,0.08-2.066,0.131c-0.726,0.054-1.447,0.123-2.17,0.186
	c-0.683,0.06-1.368,0.115-2.049,0.183c-0.723,0.072-1.442,0.158-2.162,0.239c-0.676,0.076-1.353,0.148-2.027,0.232
	c-0.721,0.09-1.437,0.192-2.155,0.292c-0.668,0.092-1.337,0.181-2.003,0.281c-0.716,0.108-1.429,0.227-2.143,0.343
	c-0.662,0.108-1.324,0.214-1.982,0.33c-0.514,0.09-1.026,0.186-1.538,0.28C295.601,113.248,255.351,84.7,210,84.7
	c-59.31,0-107.562,48.251-107.562,107.561c0,46.101,29.157,86.58,71.973,101.527c-0.01,0.063-0.021,0.126-0.031,0.188
	c-0.123,0.728-0.249,1.454-0.363,2.184c-0.101,0.651-0.189,1.306-0.283,1.959c-0.105,0.733-0.213,1.466-0.309,2.203
	c-0.084,0.65-0.158,1.305-0.235,1.957c-0.088,0.746-0.178,1.49-0.256,2.239c-0.068,0.65-0.126,1.303-0.186,1.956
	c-0.07,0.756-0.142,1.511-0.202,2.27c-0.052,0.651-0.094,1.304-0.138,1.957c-0.037,0.548-0.083,1.093-0.116,1.642H26.26
	C22.867,312.342,20,309.475,20,306.082z M290.365,160.367c-0.613,0.196-1.226,0.395-1.836,0.597c-0.686,0.228-1.369,0.46-2.05,0.696
	c-0.604,0.209-1.207,0.422-1.808,0.638c-0.681,0.245-1.361,0.493-2.038,0.747c-0.594,0.222-1.186,0.448-1.777,0.677
	c-0.677,0.262-1.353,0.527-2.025,0.797c-0.509,0.204-1.017,0.412-1.523,0.621c-4.563-11.289-11.957-21.382-21.489-29.152
	C242.931,125.485,226.659,119.7,210,119.7c-40.011,0-72.561,32.55-72.561,72.561c0,30.271,18.932,57.063,46.419,67.695
	c-0.068,0.171-0.132,0.344-0.2,0.516c-0.219,0.559-0.428,1.123-0.642,1.685c-0.269,0.708-0.541,1.414-0.8,2.126
	c-0.205,0.563-0.399,1.13-0.599,1.696c-0.253,0.718-0.51,1.434-0.754,2.156c-0.191,0.565-0.369,1.134-0.553,1.701
	c-0.238,0.73-0.48,1.459-0.709,2.194c-0.174,0.56-0.335,1.125-0.503,1.688c-0.043,0.146-0.087,0.291-0.13,0.437
	c-33.723-12.726-56.53-45.105-56.53-81.893c0-48.281,39.28-87.561,87.562-87.561c36.176,0,68.356,22.314,81.418,55.325
	C291.065,160.135,290.717,160.255,290.365,160.367z M256.994,175.166c-0.487,0.283-0.969,0.573-1.454,0.86
	c-0.672,0.399-1.346,0.796-2.012,1.204c-0.459,0.281-0.912,0.57-1.368,0.855c-0.682,0.426-1.365,0.851-2.041,1.286
	c-0.423,0.273-0.841,0.554-1.262,0.831c-0.7,0.46-1.401,0.917-2.093,1.388c-0.365,0.248-0.723,0.503-1.086,0.753
	c-0.74,0.511-1.481,1.02-2.213,1.542c-0.235,0.168-0.465,0.341-0.699,0.51c-3.831,2.764-7.542,5.683-11.126,8.748
	c-0.211,0.181-0.426,0.357-0.636,0.538c-0.701,0.605-1.391,1.223-2.081,1.84c-0.305,0.272-0.615,0.54-0.918,0.814
	c-0.642,0.581-1.273,1.173-1.906,1.764c-0.343,0.32-0.69,0.637-1.031,0.96c-0.604,0.574-1.199,1.157-1.795,1.739
	c-0.358,0.35-0.72,0.697-1.076,1.05c-0.577,0.574-1.145,1.156-1.713,1.738c-0.364,0.373-0.731,0.742-1.092,1.118
	c-0.553,0.576-1.097,1.16-1.641,1.743c-0.367,0.393-0.735,0.784-1.098,1.18c-0.532,0.581-1.056,1.169-1.579,1.756
	c-0.364,0.408-0.73,0.815-1.09,1.227c-0.514,0.588-1.02,1.183-1.526,1.778c-0.359,0.422-0.719,0.844-1.074,1.27
	c-0.495,0.594-0.983,1.194-1.471,1.795c-0.355,0.437-0.709,0.874-1.059,1.314c-0.479,0.602-0.95,1.209-1.42,1.817
	c-0.347,0.449-0.693,0.897-1.036,1.35c-0.461,0.61-0.917,1.224-1.371,1.84c-0.339,0.461-0.678,0.924-1.013,1.389
	c-0.445,0.617-0.885,1.238-1.322,1.862c-0.331,0.472-0.66,0.946-0.986,1.422c-0.429,0.626-0.854,1.255-1.275,1.887
	c-0.321,0.482-0.64,0.966-0.957,1.452c-0.414,0.635-0.825,1.273-1.23,1.915c-0.311,0.491-0.619,0.985-0.925,1.479
	c-0.398,0.644-0.792,1.288-1.182,1.937c-0.302,0.502-0.599,1.007-0.895,1.513c-0.382,0.652-0.762,1.305-1.135,1.962
	c-0.29,0.511-0.576,1.024-0.861,1.538c-0.304,0.547-0.61,1.093-0.908,1.645c-20.597-7.348-34.9-27.115-34.9-49.515
	c0-28.982,23.579-52.561,52.561-52.561c22.033,0,41.685,14.007,49.246,34.189c-0.086,0.048-0.171,0.098-0.257,0.145
	C258.322,174.41,257.655,174.783,256.994,175.166z M342.001,472.341c-82.711,0-150-67.29-150-149.999c0-82.71,67.289-150,150-150
	c1.343,0,2.682,0.019,4.018,0.054c0.585,0.016,1.166,0.045,1.75,0.067c0.711,0.026,1.422,0.05,2.131,0.086
	c0.926,0.048,1.849,0.111,2.771,0.176c0.338,0.024,0.678,0.043,1.016,0.069c1.14,0.088,2.276,0.19,3.409,0.304
	c0.096,0.009,0.192,0.018,0.289,0.027c75.511,7.728,134.617,71.699,134.617,149.217
	C492.001,405.052,424.711,472.341,342.001,472.341z"/>
<path d="M230.337,349.837c-1.32-5.363-6.737-8.639-12.1-7.321c-5.363,1.32-8.641,6.737-7.321,12.1
	c3.04,12.352,7.808,24.203,14.171,35.226c1.852,3.208,5.214,5.002,8.67,5.002c1.696,0,3.416-0.433,4.991-1.341
	c4.783-2.762,6.422-8.877,3.661-13.661C236.988,370.453,232.926,360.358,230.337,349.837z"/>
<path d="M105.033,107.18c5.523,0,10-4.477,10-10s-4.477-10-10-10h-0.269c-5.523,0-10,4.477-10,10s4.477,10,10,10H105.033z"/>
<path d="M76.033,87.18H45c-5.523,0-10,4.477-10,10s4.477,10,10,10h31.033c5.523,0,10-4.477,10-10
	C86.033,91.657,81.556,87.18,76.033,87.18z"/>
<path d="M372.002,247.342h-0.001v-20c0-5.523-4.477-10-10-10h-40c-5.523,0-10,4.477-10,10v20c-16.542,0-30,13.458-30,30v120
	c0,16.542,13.458,30,30,30h60.001c16.541,0,29.999-13.458,29.999-30v-120C402.001,260.8,388.543,247.342,372.002,247.342z
	 M302.001,320.675h80v33.335h-80V320.675z M332.001,237.342h20v10h-20V237.342z M312.001,267.342h10h40h10.001
	c5.514,0,9.999,4.486,9.999,10v23.332h-80v-23.332C302.001,271.828,306.487,267.342,312.001,267.342z M372.002,407.342h-60.001
	c-5.514,0-10-4.486-10-10v-23.333h80v23.333C382.001,402.856,377.516,407.342,372.002,407.342z"/>
<path d="M227.002,322.823l-0.001-0.48c0-5.523-4.477-10-10-10s-10,4.477-10,10l0.001,0.48c0,5.523,4.477,10,10,10
	S227.002,328.345,227.002,322.823z"/>
<g>
</g>
<g>
</g>
<g>
</g>
<g>
</g>
<g>
</g>
<g>
</g>
<g>
</g>
<g>
</g>
<g>
</g>
<g>
</g>
<g>
</g>
<g>
</g>
<g>
</g>
<g>
</g>
<g>
</g>
</svg>
