<?xml version="1.0" encoding="iso-8859-1"?>
<!-- Generator: Adobe Illustrator 19.0.0, SVG Export Plug-In . SVG Version: 6.00 Build 0)  -->
<svg version="1.1" id="Capa_1" xmlns="http://www.w3.org/2000/svg" xmlns:xlink="http://www.w3.org/1999/xlink" x="0px" y="0px"
	 viewBox="0 0 512.002 512.002" style="enable-background:new 0 0 512.002 512.002;" xml:space="preserve">
<g>
	<g>
		<path style="fill:#636A75;" d="M277.39,121.567c11.816,0,21.392,9.576,21.392,21.391c0,11.814-9.576,21.393-21.392,21.393
			c-11.814,0-21.392-9.578-21.392-21.393C255.998,131.144,265.575,121.567,277.39,121.567L277.39,121.567z M223.912,143.456
			c0.268,58.676,47.783,106.191,106.459,106.457l0.497,0.002l0.498-0.002c58.841-0.268,106.459-48.051,106.459-106.955
			c0-59.07-47.885-106.957-106.957-106.957c-58.904,0-106.688,47.617-106.956,106.459c0.002,0.166,0.002,0.332,0,0.498
			C223.912,143.124,223.912,143.29,223.912,143.456L223.912,143.456z M330.867,110.872c-11.814,0-21.392-9.576-21.392-21.391
			c0-11.814,9.577-21.393,21.392-21.393s21.393,9.578,21.393,21.393S342.683,110.872,330.867,110.872L330.867,110.872z
			 M320.173,142.958c0-5.906,4.788-10.695,10.694-10.695c5.907,0,10.695,4.789,10.695,10.695c0,5.908-4.788,10.695-10.695,10.695
			C324.961,153.653,320.173,148.866,320.173,142.958L320.173,142.958z M330.867,175.044c11.815,0,21.393,9.578,21.393,21.393
			c0,11.814-9.577,21.393-21.393,21.393c-11.814,0-21.392-9.578-21.392-21.393C309.476,184.622,319.053,175.044,330.867,175.044
			L330.867,175.044z M362.953,142.958c0-11.815,9.578-21.391,21.393-21.391c11.814,0,21.393,9.576,21.393,21.391
			c0,11.814-9.578,21.393-21.393,21.393S362.953,154.772,362.953,142.958z"/>
		<path style="fill:#636A75;" d="M223.912,142.46c-0.267-58.842-48.051-106.459-106.955-106.459C57.887,36.001,10,83.888,10,142.958
			c0,58.904,47.617,106.688,106.459,106.955l0.498,0.002l0.498-0.002c58.675-0.266,106.19-47.781,106.457-106.457
			c0-0.166,0-0.332,0.002-0.498C223.914,142.792,223.914,142.626,223.912,142.46L223.912,142.46z M149.042,142.958
			c0-11.815,9.577-21.391,21.392-21.391c11.814,0,21.393,9.576,21.393,21.391c0,11.814-9.578,21.393-21.393,21.393
			S149.042,154.772,149.042,142.958L149.042,142.958z M138.348,89.481c0,11.814-9.576,21.391-21.392,21.391
			c-11.814,0-21.392-9.576-21.392-21.391c0-11.814,9.577-21.393,21.392-21.393C128.771,68.089,138.348,77.667,138.348,89.481
			L138.348,89.481z M127.651,142.958c0,5.908-4.788,10.695-10.695,10.695s-10.695-4.787-10.695-10.695
			c0-5.906,4.788-10.695,10.695-10.695S127.651,137.052,127.651,142.958L127.651,142.958z M84.871,142.958
			c0,11.814-9.578,21.393-21.393,21.393c-11.814,0-21.393-9.578-21.393-21.393s9.578-21.391,21.393-21.391
			S84.871,131.144,84.871,142.958L84.871,142.958z M116.956,175.044c11.815,0,21.392,9.578,21.392,21.393
			c0,11.814-9.576,21.393-21.392,21.393c-11.814,0-21.392-9.578-21.392-21.393C95.564,184.622,105.142,175.044,116.956,175.044z"/>
	</g>
	<path style="fill:#4AD194;" d="M330.371,249.913H117.455c-0.166,0.002-0.332,0.002-0.498,0.002s-0.332,0-0.498-0.002H56.074
		c-10.999,0-19.999,9.002-19.999,20v186.088c0,11,9,20,19.999,20h335.68c10.998,0,19.999-9,19.999-20l-0.001-64.465v-80.027
		l0.001-41.596c0-10.998-9.001-20-19.999-20h-60.388c-0.166,0.002-0.332,0.002-0.498,0.002
		C330.702,249.915,330.536,249.915,330.371,249.913L330.371,249.913z M276.752,344.948c11,0,20,9,20,20v56.053c0,11-9,20-20,20
		s-20-9-20-20v-56.053C256.752,353.948,265.752,344.948,276.752,344.948L276.752,344.948z M194.621,284.913c11,0,20,9,20,20v56.264
		c0,11-9,19.998-20,19.998H91.074c-11,0-19.999-8.998-19.999-19.998v-56.264c0-11,8.999-20,19.999-20H194.621L194.621,284.913z
		 M336.753,304.913c0-11,9-20,20-20s20,9,20,20v116.088c0,11-9,20-20,20s-20-9-20-20V304.913z"/>
	<path style="fill:#BCCBD3;" d="M214.621,304.913c0-11-9-20-20-20H91.074c-11,0-19.999,9-19.999,20v56.264
		c0,11,8.999,19.998,19.999,19.998h103.547c11,0,20-8.998,20-19.998V304.913z"/>
	<path style="fill:#FF9750;" d="M276.752,344.948c-11,0-20,9-20,20v56.053c0,11,9,20,20,20s20-9,20-20v-56.053
		C296.752,353.948,287.752,344.948,276.752,344.948z"/>
	<g>
		<path style="fill:#BCCBD3;" d="M336.753,304.913v116.088c0,11,9,20,20,20s20-9,20-20V304.913c0-11-9-20-20-20
			S336.753,293.913,336.753,304.913z"/>
		<path style="fill:#BCCBD3;" d="M459.217,293.142v116.762v10.697h21.393c11.766,0,21.391-9.627,21.391-21.393v-95.371
			c0-11.766-9.625-21.391-21.391-21.391h-21.393V293.142z"/>
	</g>
	<polygon style="fill:#FF9750;" points="411.752,391.536 459.217,409.903 459.217,293.142 411.752,311.509 	"/>
</g>
<path d="M480.609,272.446h-21.393c-5.523,0-10,4.478-10,10v3.842l-27.464,10.628v-27.003c0-15.172-11.324-27.741-25.961-29.721
	c31.351-21.002,52.034-56.746,52.034-97.234c0-64.49-52.466-116.957-116.956-116.957c-47.666,0-88.757,28.666-106.956,69.66
	c-18.199-40.994-59.29-69.66-106.956-69.66C52.467,26.001,0,78.468,0,142.958c0,40.488,20.683,76.232,52.035,97.234
	c-14.637,1.98-25.959,14.549-25.959,29.721v186.088c0,16.542,13.458,30,29.999,30h335.68c16.542,0,29.999-13.458,29.999-30v-49.872
	l27.464,10.628v3.844c0,5.522,4.477,10,10,10h21.393c17.309,0,31.391-14.083,31.391-31.393v-95.371
	C512,286.528,497.918,272.446,480.609,272.446z M330.869,46.001c53.462,0,96.956,43.495,96.956,96.957
	c0,53.41-43.411,96.871-96.802,96.955h-0.308c-53.366-0.084-96.76-43.503-96.802-96.878c0-0.026,0.001-0.052,0.001-0.077
	s-0.001-0.051-0.001-0.077C233.955,89.454,277.433,46.001,330.869,46.001z M265.522,239.913h-83.219
	c18.128-12.257,32.644-29.463,41.609-49.658C232.878,210.45,247.395,227.656,265.522,239.913z M20,142.958
	c0-53.462,43.495-96.957,96.957-96.957c53.437,0,96.914,43.453,96.956,96.88c0,0.026-0.001,0.052-0.001,0.077
	s0.001,0.051,0.001,0.077c-0.042,53.375-43.436,96.794-96.802,96.878h-0.308C63.412,239.829,20,196.368,20,142.958z
	 M391.754,466.001H56.074c-5.514,0-9.999-4.486-9.999-10V269.913c0-5.514,4.485-10,9.999-10l0,0c0.051,0,60.934,0.003,60.883,0.002
	c-0.154-0.002-60.934-0.002-60.883-0.002h335.629c0.051,0,0,0,0.051,0s-0.051,0,0,0l0,0c5.514,0,9.999,4.486,9.999,10l0,0
	c0,0.009,0,0,0,0.009v186.079c0,0.009,0-0.009,0,0l0,0C401.753,461.515,397.268,466.001,391.754,466.001z M421.753,384.684v-66.323
	l27.464-10.628v87.578L421.753,384.684z M492,399.208c0,6.282-5.11,11.393-11.391,11.393h-11.393l0,0V292.446l0,0h11.393
	c6.281,0,11.391,5.109,11.391,11.391V399.208z"/>
<path d="M106.261,142.958c0,5.891,4.805,10.695,10.695,10.695c5.892,0,10.695-4.805,10.695-10.695
	c0-5.891-4.804-10.695-10.695-10.695S106.261,137.067,106.261,142.958z"/>
<path d="M116.956,120.872c17.309,0,31.392-14.082,31.392-31.391c0-17.31-14.082-31.393-31.392-31.393S85.564,72.171,85.564,89.481
	C85.564,106.79,99.646,120.872,116.956,120.872z M116.956,78.089c6.281,0,11.392,5.11,11.392,11.393
	c0,6.281-5.11,11.391-11.392,11.391c-6.281,0-11.392-5.109-11.392-11.391C105.564,83.199,110.675,78.089,116.956,78.089z"/>
<path d="M94.871,142.958c0-17.309-14.083-31.391-31.393-31.391s-31.393,14.082-31.393,31.391s14.083,31.393,31.393,31.393
	C80.789,174.351,94.871,160.268,94.871,142.958z M63.479,154.351c-6.282,0-11.393-5.11-11.393-11.393
	c0-6.281,5.111-11.391,11.393-11.391s11.393,5.109,11.393,11.391C74.871,149.24,69.76,154.351,63.479,154.351z"/>
<path d="M116.956,227.829c17.309,0,31.392-14.083,31.392-31.393s-14.082-31.393-31.392-31.393s-31.392,14.083-31.392,31.393
	S99.646,227.829,116.956,227.829z M116.956,185.044c6.281,0,11.392,5.11,11.392,11.393c0,6.282-5.11,11.393-11.392,11.393
	c-6.281,0-11.392-5.11-11.392-11.393C105.564,190.154,110.675,185.044,116.956,185.044z"/>
<path d="M139.042,142.958c0,17.309,14.082,31.393,31.392,31.393s31.393-14.083,31.393-31.393c0-17.309-14.083-31.391-31.393-31.391
	S139.042,125.649,139.042,142.958z M170.434,131.567c6.282,0,11.393,5.109,11.393,11.391c0,6.282-5.111,11.393-11.393,11.393
	c-6.281,0-11.392-5.11-11.392-11.393C159.042,136.677,164.152,131.567,170.434,131.567z"/>
<path d="M341.563,142.958c0-5.891-4.804-10.695-10.694-10.695c-5.891,0-10.695,4.805-10.695,10.695
	c0,5.891,4.805,10.695,10.695,10.695C336.759,153.653,341.563,148.849,341.563,142.958z"/>
<path d="M330.867,120.872c17.31,0,31.393-14.082,31.393-31.391c0-17.31-14.083-31.393-31.393-31.393s-31.392,14.083-31.392,31.393
	C299.476,106.79,313.558,120.872,330.867,120.872z M330.867,78.089c6.282,0,11.393,5.11,11.393,11.393
	c0,6.281-5.111,11.391-11.393,11.391c-6.281,0-11.392-5.109-11.392-11.391C319.476,83.199,324.586,78.089,330.867,78.089z"/>
<path d="M277.39,174.351c17.31,0,31.392-14.083,31.392-31.393c0-17.309-14.082-31.391-31.392-31.391
	c-17.309,0-31.392,14.082-31.392,31.391C245.998,160.268,260.08,174.351,277.39,174.351z M277.39,131.567
	c6.281,0,11.392,5.109,11.392,11.391c0,6.282-5.11,11.393-11.392,11.393c-6.281,0-11.392-5.11-11.392-11.393
	C265.998,136.677,271.108,131.567,277.39,131.567z"/>
<path d="M330.867,165.044c-17.31,0-31.392,14.083-31.392,31.393s14.082,31.393,31.392,31.393s31.393-14.083,31.393-31.393
	S348.177,165.044,330.867,165.044z M330.867,207.829c-6.281,0-11.392-5.11-11.392-11.393c0-6.282,5.11-11.393,11.392-11.393
	s11.393,5.11,11.393,11.393S337.149,207.829,330.867,207.829z"/>
<path d="M352.953,142.958c0,17.309,14.083,31.393,31.393,31.393s31.393-14.083,31.393-31.393c0-17.309-14.083-31.391-31.393-31.391
	S352.953,125.649,352.953,142.958z M384.346,131.567c6.282,0,11.393,5.109,11.393,11.391c0,6.282-5.111,11.393-11.393,11.393
	s-11.393-5.11-11.393-11.393C372.953,136.677,378.064,131.567,384.346,131.567z"/>
<path d="M194.621,274.913H91.074c-16.542,0-29.999,13.458-29.999,30v56.264c0,16.541,13.458,29.998,29.999,29.998h103.547
	c16.542,0,30-13.457,30-29.998v-56.264C224.621,288.371,211.163,274.913,194.621,274.913z M204.621,361.177
	c0,5.513-4.486,9.998-10,9.998H91.074c-5.514,0-9.999-4.485-9.999-9.998v-56.264c0-5.514,4.485-10,9.999-10h103.547
	c5.514,0,10,4.486,10,10V361.177z"/>
<path d="M356.753,274.913c-16.542,0-30,13.458-30,30v116.088c0,16.542,13.458,30,30,30s30-13.458,30-30V304.913
	C386.753,288.371,373.295,274.913,356.753,274.913z M366.753,421.001c0,5.514-4.486,10-10,10s-10-4.486-10-10V304.913
	c0-5.514,4.486-10,10-10s10,4.486,10,10V421.001z"/>
<path d="M286.752,336.669v-22.756c0-5.522-4.477-10-10-10s-10,4.478-10,10v22.756c-11.639,4.127-20,15.243-20,28.279v56.053
	c0,16.542,13.458,30,30,30s30-13.458,30-30v-56.053C306.752,351.912,298.391,340.796,286.752,336.669z M286.752,421.001
	c0,5.514-4.486,10-10,10s-10-4.486-10-10v-56.053c0-5.514,4.486-10,10-10s10,4.486,10,10V421.001z"/>
<path d="M131.109,431.001h-0.27c-5.523,0-10,4.478-10,10s4.477,10,10,10h0.27c5.523,0,10-4.478,10-10
	S136.632,431.001,131.109,431.001z"/>
<path d="M102.109,431.001H71.075c-5.523,0-10,4.478-10,10s4.477,10,10,10h31.034c5.523,0,10-4.478,10-10
	C112.109,435.479,107.632,431.001,102.109,431.001z"/>
<path d="M276.752,295.183c5.523,0,10-4.478,10-10v-0.27c0-5.522-4.477-10-10-10s-10,4.478-10,10v0.27
	C266.752,290.705,271.229,295.183,276.752,295.183z"/>
<g>
</g>
<g>
</g>
<g>
</g>
<g>
</g>
<g>
</g>
<g>
</g>
<g>
</g>
<g>
</g>
<g>
</g>
<g>
</g>
<g>
</g>
<g>
</g>
<g>
</g>
<g>
</g>
<g>
</g>
</svg>
