<svg id="Capa_1" enable-background="new 0 0 512 512" height="512" viewBox="0 0 512 512" width="512" xmlns="http://www.w3.org/2000/svg"><g><g><path d="m165.272 145.9c0-50.108 40.62-90.728 90.728-90.728l18.116-21.702-18.116-33.47c-80.578 0-145.9 65.322-145.9 145.9 0 70.706 50.298 129.659 117.063 143.045v103.209h-61.891v57.674h61.891v62.172h28.837l18.116-158.557-18.116-116.815c-50.108 0-90.728-40.62-90.728-90.728z" fill="#fd445f"/></g><path d="m284.837 449.828h61.891v-57.674h-61.891v-103.209c66.766-13.386 117.063-72.339 117.063-143.045 0-80.578-65.321-145.9-145.9-145.9v55.172c50.108 0 90.728 40.62 90.728 90.728s-40.62 90.728-90.728 90.728v275.372h28.837z" fill="#e1105a"/></g></svg>