<svg id="Capa_1" enable-background="new 0 0 512 512" height="512" viewBox="0 0 512 512" width="512" xmlns="http://www.w3.org/2000/svg"><g><g><path d="m90.458 313.807c-20.557-18.466-22.259-50.214-3.793-70.771 9.795-10.904 23.326-16.501 36.942-16.6l7.214-14.97-7.214-15.021c-21.837.103-43.557 9.053-59.265 26.539-29.522 32.868-26.802 83.623 6.065 113.146 11.19 10.051 24.575 16.396 38.537 19.04v79.998h-50.327v30.006h50.327v46.826h14.663l7.214-90.038-7.214-95.353c-11.89-.089-23.754-4.363-33.149-12.802z" fill="#b782d7"/><g fill="#9244c2"><path d="m157.435 239.244c4.66 4.185 8.439 9.108 11.234 14.631l26.774-13.548c-4.479-8.852-10.521-16.727-17.956-23.406-15.379-13.813-34.675-20.565-53.88-20.475v29.991c12.055-.087 24.175 4.135 33.828 12.807z"/><path d="m138.95 355.181c13.352-2.518 26.187-8.425 37.088-17.771l-19.53-22.78c-9.431 8.086-21.178 12.066-32.9 11.979v185.391h15.343v-46.825h50.327v-30.006h-50.328z"/></g></g><g><path d="m309.702 0c-69.258 0-125.604 56.346-125.604 125.604v98.803h125.604l21.265-95.508z" fill="#f8b400"/><path d="m435.306 125.604c0-69.258-56.346-125.604-125.604-125.604v224.406h125.604z" fill="#fd9127"/></g><g><path d="m180.878 222.387c-18.716 23.302-29.611 52.734-29.611 83.945v45.456h158.435l21.265-53.789-21.265-99.69c-11.709.584-114.461 6.197-128.824 24.078z" fill="#fd445f"/><path d="m468.137 305.913c0-31.687-11.267-61.584-30.557-85.077-15.004-18.272-126.775-22.58-126.775-22.58s-.392.018-1.103.053v153.479h158.435z" fill="#e1105a"/></g><g><path d="m240.468 180.019c-23.94 8.497-43.347 22.199-58.581 41.165 33.37 35.076 78.521 56.216 127.249 56.216.189 0 .377-.007.566-.007l29.852-60.97-29.852-60.977z" fill="#ffcebf"/></g><g><path d="m211.284 305.027h30.006v46.761h-30.006z" fill="#e1105a"/></g><g><path d="m378.114 305.027h30.006v46.761h-30.006z" fill="#b20844"/></g><path d="m438.163 221.574c-15.072-18.619-35.138-33.298-58.632-41.762l-68.726-24.758-1.103.391v121.947c48.945-.155 95.161-20.354 128.461-55.818z" fill="#f5afaa"/><g><path d="m294.699 49.935c0 20.244-16.411 36.655-36.655 36.655h-18.713v29.029c0 38.865 31.506 70.371 70.371 70.371l18.623-68.027-18.623-68.027h-15.003z" fill="#ffdfcf"/><path d="m361.398 86.59c-20.244 0-36.655-16.411-36.655-36.655h-15.041v136.055c38.865 0 70.371-31.506 70.371-70.371v-29.029z" fill="#ffcebf"/></g></g></svg>