<svg id="Capa_1" enable-background="new 0 0 512 512" height="512" viewBox="0 0 512 512" width="512" xmlns="http://www.w3.org/2000/svg"><g><g><path d="m256 132.553c-7.522 0-14.864-4.69-21.95-3.219-48.83 10.133-85.526 53.397-85.526 105.232v65.966l107.544 24.81 15-82.795-15-109.996c-.023-.001-.045.002-.068.002z" fill="#badb47"/><path d="m278.087 129.362c-7.107-1.485-14.472 3.161-22.019 3.188v192.791l107.408-24.81v-65.966c0-51.786-36.627-95.018-85.389-105.203z" fill="#1fc979"/></g><g><path d="m309.772 300.532 10.308 49.619 43.396-34.772v-14.847z" fill="#f5afaa"/><path d="m201.15 300.532h-52.626v14.847l43.696 34.772z" fill="#ffdfcf"/></g><g><g><path d="m192.22 213.397h29.535v87.134h-29.535z" fill="#1fc979"/></g><g><path d="m290.381 213.397h29.699v87.134h-29.699z" fill="#19a995"/></g></g><g><path d="m192.22 300.532v211.468h63.848l11.009-105.734-11.009-105.734z" fill="#79e1f5"/></g><path d="m256 127.09c-7.523 0-14.864.776-21.95 2.247v23.815c0 12.16 9.858 22.018 22.018 22.018l7.5-48.079c-.023 0-7.545-.001-7.568-.001z" fill="#ffcebf"/><path d="m256.068 300.532h64.012v211.468h-64.012z" fill="#31c3e7"/><g><path d="m256.068 341.461h15v170.539h-15z" fill="#199de2"/><path d="m241.068 341.461h15v170.539h-15z" fill="#31c3e7"/></g><path d="m278.086 153.152v-23.785c-7.107-1.485-14.471-2.271-22.018-2.276v48.079c12.161 0 22.018-9.858 22.018-22.018z" fill="#f5afaa"/><g><path d="m247.338 13.217c-17.623-17.623-46.299-17.623-63.923.001-8.537 8.537-13.239 19.888-13.239 31.962 0 12.073 4.702 23.424 13.239 31.962l72.653 72.653 17.964-74.897-17.964-52.95z" fill="#fd445f"/><path d="m328.721 13.217c-17.624-17.624-46.3-17.622-63.924 0l-8.729 8.73v127.847l72.653-72.653c8.537-8.537 13.239-19.888 13.239-31.962 0-12.073-4.701-23.424-13.239-31.962z" fill="#e1105a"/></g></g></svg>