<svg id="Capa_1" enable-background="new 0 0 512 512" height="512" viewBox="0 0 512 512" width="512" xmlns="http://www.w3.org/2000/svg"><g><g><path d="m336.959 57.674h76.585l-90.802 90.802-39.961-39.961-40.782 40.782 39.961 39.961-55.314 55.314c-23.123-15.394-50.884-24.372-80.746-24.372-80.578-.001-145.9 65.321-145.9 145.9 0 40.289 16.33 76.764 42.733 103.167l33.371-6.697 5.642-32.316c-16.419-16.419-26.574-39.101-26.574-64.154 0-50.108 40.62-90.728 90.728-90.728 25.054 0 47.736 10.155 64.154 26.574l158.17-139.315 143.776-162.631h-175.041z" fill="#f8b400"/></g><path d="m236.628 366.1c0 50.108-40.62 90.728-90.728 90.728-25.054 0-47.736-10.155-64.154-26.574l-39.013 39.013c26.403 26.403 62.878 42.733 103.167 42.733 80.579 0 145.9-65.322 145.9-145.9 0-29.862-8.978-57.623-24.372-80.746l55.314-55.314 39.961 39.961 40.782-40.782-39.961-39.961 90.802-90.802v76.585h57.674v-175.041l-301.945 301.945c16.418 16.419 26.573 39.101 26.573 64.155z" fill="#fd9127"/></g></svg>