<?xml version="1.0" encoding="iso-8859-1"?>
<!-- Generator: Adobe Illustrator 19.0.0, SVG Export Plug-In . SVG Version: 6.00 Build 0)  -->
<svg version="1.1" id="Capa_1" xmlns="http://www.w3.org/2000/svg" xmlns:xlink="http://www.w3.org/1999/xlink" x="0px" y="0px"
	 viewBox="0 0 512.001 512.001" style="enable-background:new 0 0 512.001 512.001;" xml:space="preserve">
<g>
	<path style="fill:#4AD194;" d="M90,86H59.999C51.749,86,45,92.75,45,101v15h60v-15C105,92.75,98.25,86,90,86z"/>
	<path style="fill:#E1E6E9;" d="M186,116h-81H45H30c-11.001,0-20,8.999-20,20v140h126c0-66.274,53.727-120,120-120
		c66.274,0,120,53.726,120,120h126.001V136c0-11.001-9-20-20-20H326l-10-30c-1.739-5.218-4.5-10-10-10H206c-5.5,0-8.26,4.782-10,10
		L186,116L186,116z M407.001,151h40.001c11,0,19.999,8.999,19.999,20c0,11-8.999,20-19.999,20h-40.001c-11,0-20-9-20-20
		C387.001,159.999,396.001,151,407.001,151z"/>
	<path style="fill:#FFC36C;" d="M407.001,151c-11,0-20,8.999-20,20c0,11,9,20,20,20h40.001c11,0,19.999-9,19.999-20
		c0-11.001-8.999-20-19.999-20H407.001z"/>
	<path style="fill:#636A75;" d="M376,275.999c0-66.274-53.726-120-120-120c-66.273,0-120,53.726-120,120
		c0,14.722,2.65,28.825,7.502,41.856c4.727,12.698,11.541,24.379,20.025,34.626c22.012,26.584,55.265,43.518,92.473,43.518
		C322.274,395.999,376,342.273,376,275.999L376,275.999z M256,191c46.944,0,85,38.055,85,85c0,46.944-38.056,85-85,85
		s-85-38.056-85-85C171,229.055,209.056,191,256,191z"/>
	<circle style="fill:#BCCBD3;" cx="256" cy="275.999" r="85"/>
	<path style="fill:#4AD194;" d="M376,275.999c0,66.274-53.726,120-120,120c-37.208,0-70.461-16.935-92.471-43.519l-18.772,10.838
		c-9.526,5.5-21.82,2.207-27.321-7.32c-5.5-9.526-2.205-21.82,7.321-27.32l18.745-10.823C138.65,304.824,136,290.721,136,275.999H10
		v140c0,11,8.999,20,20,20h452.001c11,0,20-9,20-20v-140H376L376,275.999z M407.001,375.999c0-11.046,8.954-20,20-20s20,8.954,20,20
		c0,11.045-8.954,20-20,20S407.001,387.045,407.001,375.999z"/>
	<circle style="fill:#636A75;" cx="427" cy="375.999" r="20"/>
	<path style="fill:#FFC36C;" d="M163.529,352.481c-8.486-10.246-15.301-21.928-20.027-34.625l-18.745,10.823
		c-9.526,5.5-12.821,17.794-7.321,27.32c5.501,9.527,17.795,12.82,27.321,7.32L163.529,352.481z"/>
</g>
<path d="M482.001,106H333.207l-7.721-23.162C320.849,68.921,312.33,66,306,66H206c-6.328,0-14.845,2.921-19.487,16.838L178.792,106
	H115v-5c0-13.785-11.215-25-25-25H59.999C46.214,76,35,87.215,35,101v5h-5c-16.542,0-30,13.458-30,30v280c0,16.542,13.458,30,30,30
	h452.001c16.542,0,30-13.458,30-30V136C512.001,119.458,498.543,106,482.001,106z M55,101c0-2.71,2.289-5,4.999-5H90
	c2.71,0,5,2.29,5,5v5H55V101z M30,126L30,126h156l0,0c4.304,0,8.126-2.754,9.487-6.838l9.999-29.998
	c0.574-1.72,1.064-2.671,1.372-3.164h98.285c0.307,0.492,0.797,1.443,1.37,3.162l10,30c1.361,4.084,5.183,6.838,9.487,6.838h156.001
	c5.514,0,10,4.486,10,10v130H385.619C380.496,198.971,324.318,145.999,256,145.999s-124.496,52.972-129.619,120H20v-130
	C20,130.485,24.486,126,30,126z M148.794,349.442l-9.037,5.217c-4.775,2.756-10.904,1.115-13.661-3.66
	c-1.324-2.294-1.67-4.986-0.975-7.582c0.695-2.595,2.342-4.754,4.636-6.079l9.003-5.198
	C141.664,338.182,145.026,343.961,148.794,349.442z M146,275.999c0-60.654,49.346-110,110-110s110,49.346,110,110
	s-49.346,110-110,110S146,336.654,146,275.999z M482.001,425.999H30c-5.514,0-10-4.486-10-10v-130h106.381
	c0.719,9.402,2.451,18.525,5.071,27.267l-11.695,6.752c-14.326,8.271-19.252,26.655-10.981,40.982
	c5.551,9.613,15.655,14.993,26.032,14.993c5.086,0,10.238-1.293,14.95-4.014l11.757-6.788c23.716,25.111,57.3,40.808,94.485,40.808
	c68.318,0,124.496-52.972,129.619-120h106.382v130C492.001,421.514,487.515,425.999,482.001,425.999z"/>
<path d="M256,370.999c52.383,0,95-42.617,95-95s-42.617-95-95-95s-95,42.617-95,95S203.617,370.999,256,370.999z M256,200.999
	c41.355,0,75,33.645,75,75s-33.645,75-75,75s-75-33.645-75-75S214.645,200.999,256,200.999z"/>
<path d="M287.988,315.709c1.87,1.56,4.142,2.322,6.4,2.322c2.864,0,5.706-1.224,7.684-3.595C311.054,303.669,316,290.02,316,275.999
	c0-5.243-0.688-10.468-2.044-15.529c-1.429-5.335-6.913-8.501-12.247-7.071c-5.335,1.429-8.501,6.913-7.071,12.247
	c0.904,3.375,1.362,6.858,1.362,10.353c0,9.347-3.298,18.447-9.285,25.625C283.177,305.865,283.747,312.171,287.988,315.709z"/>
<path d="M407.001,201h40.001c16.541,0,29.999-13.458,29.999-30s-13.458-30-29.999-30h-40.001c-16.542,0-30,13.458-30,30
	S390.459,201,407.001,201z M407.001,161h40.001c5.514,0,9.999,4.486,9.999,10s-4.485,10-9.999,10h-40.001c-5.514,0-10-4.486-10-10
	C397.001,165.485,401.487,161,407.001,161z"/>
<path d="M104.765,161h0.269c5.523,0,10-4.477,10-10s-4.477-10-10-10h-0.269c-5.523,0-10,4.477-10,10S99.242,161,104.765,161z"/>
<path d="M45,161h31.033c5.523,0,10-4.477,10-10s-4.477-10-10-10H45c-5.523,0-10,4.477-10,10S39.477,161,45,161z"/>
<path d="M427.002,345.999c-16.543,0-30.001,13.458-30.001,30s13.458,30,30.001,30c16.541,0,29.999-13.458,29.999-30
	S443.543,345.999,427.002,345.999z M427.002,385.999c-5.515,0-10.001-4.486-10.001-10s4.486-10,10.001-10
	c5.514,0,9.999,4.486,9.999,10C437.001,381.514,432.516,385.999,427.002,385.999z"/>
<path d="M268.935,334.298c0.862,0,1.739-0.112,2.612-0.348l0.477-0.131c5.316-1.498,8.411-7.022,6.914-12.337
	c-1.499-5.316-7.023-8.41-12.337-6.914l-0.264,0.072c-5.332,1.439-8.488,6.928-7.049,12.26
	C260.49,331.361,264.526,334.298,268.935,334.298z"/>
<g>
</g>
<g>
</g>
<g>
</g>
<g>
</g>
<g>
</g>
<g>
</g>
<g>
</g>
<g>
</g>
<g>
</g>
<g>
</g>
<g>
</g>
<g>
</g>
<g>
</g>
<g>
</g>
<g>
</g>
</svg>
