<?xml version="1.0" encoding="iso-8859-1"?>
<!-- Generator: Adobe Illustrator 19.0.0, SVG Export Plug-In . SVG Version: 6.00 Build 0)  -->
<svg version="1.1" id="Capa_1" xmlns="http://www.w3.org/2000/svg" xmlns:xlink="http://www.w3.org/1999/xlink" x="0px" y="0px"
	 viewBox="0 0 512.003 512.003" style="enable-background:new 0 0 512.003 512.003;" xml:space="preserve">
<g>
	<g>
		<rect x="196.002" y="10" style="fill:#FFC36C;" width="43.999" height="120"/>
		<rect x="240.002" y="10" style="fill:#FFC36C;" width="44" height="120"/>
		<rect x="284.002" y="10" style="fill:#FFC36C;" width="43.999" height="120"/>
		<rect x="328.002" y="10" style="fill:#FFC36C;" width="44" height="120"/>
		<rect x="372.002" y="10" style="fill:#FFC36C;" width="44" height="120"/>
	</g>
	<path style="fill:#4AD194;" d="M196.005,130V10h-20.002c-5.508,0-11.016,2.089-15.193,6.267l-98.539,98.539
		c-4.179,4.178-6.268,9.686-6.268,15.194v66.001h20c11,0,20,9,20,20v20c0,11-9,20-20,20h-20v206.001c0,22,18,40,40,40h320
		c22,0,40-18,40-40V316.001h-20c-11,0-20-9-20-20v-40V216c0-11,9-19.999,20-19.999h20V50c0-22-18-40-40-40v120h-44h-44h-43.999h-44
		H196.005z"/>
	<path style="fill:#E1E6E9;" d="M96.003,216.001c0-11-9-20-20-20h-20v60h20c11,0,20-9,20-20V216.001z"/>
	<path style="fill:#F74F5C;" d="M416.003,216.001v40.001h40v-60h-20C425.003,196.001,416.003,205.001,416.003,216.001z"/>
	<path style="fill:#E1E6E9;" d="M456.003,256.001h-40v40c0,11,9,20,20,20h20V256.001z"/>
</g>
<path d="M416.003,0C416,0,196.008,0,196.005,0s-0.006,0.001-0.009,0.001h-19.993c-8.427,0-16.335,3.266-22.265,9.196l-98.539,98.539
	c-5.931,5.93-9.197,13.837-9.197,22.265l0,0l0,0v332.002c0,27.57,22.43,50,50,50h320c27.57,0,50-22.43,50-50l0,0V50l0,0
	C466.003,22.43,443.573,0,416.003,0 M446.003,246.001h-20V216c0-5.514,4.486-9.999,10-9.999h10V246.001z M426.003,266.001h20v40h-10
	c-5.514,0-10-4.486-10-10V266.001z M382.003,120V20h24v100H382.003z M338.003,120V20h24v100H338.003z M294.003,120V20h24v100
	H294.003z M250.004,120V20h23.999v100H250.004z M206.005,120V20h23.999v100H206.005z M66.003,206.001h10c5.514,0,10,4.486,10,10v20
	c0,5.514-4.486,10-10,10h-10V206.001z M416.003,492.002h-320c-16.542,0-30-13.458-30-30V266.001h10c16.542,0,30-13.458,30-30v-20
	c0-16.542-13.458-30-30-30h-10V130c0-3.085,1.185-5.97,3.339-8.123l98.539-98.539c2.152-2.153,5.038-3.338,8.122-3.339h10.002v100
	H164.97c-5.523,0-10,4.477-10,10c0,5.523,4.477,10,10,10l0,0h251.033c5.523,0,10-4.477,10-10V21.72c11.639,4.128,20,15.244,20,28.28
	v136.001h-10c-16.542,0-30,13.458-30,29.999v80.001c0,16.542,13.458,30,30,30h10v136.001
	C446.003,478.544,432.545,492.002,416.003,492.002z"/>
<path d="M135.97,140h0.27c5.523,0,10-4.477,10-10c0-5.523-4.477-10-10-10h-0.27c-5.523,0-10,4.477-10,10
	C125.97,135.523,130.447,140,135.97,140z"/>
<path d="M408.021,457.002h-0.27c-5.523,0-10,4.477-10,10s4.477,10,10,10h0.27c5.523,0,10-4.477,10-10
	S413.543,457.002,408.021,457.002z"/>
<path d="M379.021,457.002H103.985c-5.523,0-10,4.477-10,10s4.477,10,10,10H379.02c5.523,0,10-4.477,10-10
	C389.021,461.479,384.543,457.002,379.021,457.002z"/>
<g>
</g>
<g>
</g>
<g>
</g>
<g>
</g>
<g>
</g>
<g>
</g>
<g>
</g>
<g>
</g>
<g>
</g>
<g>
</g>
<g>
</g>
<g>
</g>
<g>
</g>
<g>
</g>
<g>
</g>
</svg>
