<?xml version="1.0" encoding="iso-8859-1"?>
<!-- Generator: Adobe Illustrator 19.0.0, SVG Export Plug-In . SVG Version: 6.00 Build 0)  -->
<svg version="1.1" id="Capa_1" xmlns="http://www.w3.org/2000/svg" xmlns:xlink="http://www.w3.org/1999/xlink" x="0px" y="0px"
	 viewBox="0 0 512.002 512.002" style="enable-background:new 0 0 512.002 512.002;" xml:space="preserve">
<g>
	<path style="fill:#F74F5C;" d="M222.161,159.96l-49.07-28.333c-3.863-2.609-8.52-4.13-13.533-4.13
		c-13.378,0-24.225,10.846-24.225,24.223v58.306v58.305h0.053c-0.004,4.119,1.046,8.292,3.258,12.112
		c6.689,11.55,21.477,15.49,33.026,8.801l50.491-29.153l-0.021-0.042l50.134-28.942c3.708-2.058,6.918-5.119,9.186-9.063
		c6.638-11.55,2.655-26.294-8.896-32.932l-49.158-28.381C222.999,160.464,222.588,160.206,222.161,159.96z"/>
	<path style="fill:#E1E6E9;" d="M173.09,131.628l49.07,28.333c0.428,0.245,0.838,0.504,1.244,0.771l49.158,28.381
		c11.551,6.638,15.533,21.382,8.896,32.932c-2.268,3.944-5.478,7.005-9.186,9.063l-50.134,28.942l0.021,0.042l-50.491,29.153
		c-11.55,6.689-26.337,2.749-33.026-8.801c-2.212-3.821-3.262-7.994-3.258-12.112h-0.053v-58.305V151.72
		c0-13.377,10.847-24.223,24.225-24.223C164.57,127.497,169.227,129.018,173.09,131.628L173.09,131.628z M410.001,370V102.002V50
		c0-22-17.999-40-40-40h-320c-22,0-40,18-40,40v320c0,22,17.999,40,40,40h52.001h267.999C392.002,410,410.001,392,410.001,370z"/>
	<path style="fill:#BCCBD3;" d="M410.001,102.002V370c0,22-17.999,40-40,40H102.003v52.002c0,22,18,40,40,40h320
		c22.001,0,40-18,40-40V142.001c0-22-17.999-40-40-40L410.001,102.002L410.001,102.002z"/>
</g>
<path d="M462.002,92.002h-42.001V50c0-27.57-22.43-50-50-50h-320c-27.57,0-50,22.43-50,50v320c0,27.57,22.43,50,50,50h42.001v42.002
	c0,27.57,22.43,50,50,50h320c27.57,0,50-22.43,50-50V142.001C512.003,114.431,489.573,92.002,462.002,92.002z M20.001,370V50
	c0-16.542,13.458-30,30-30h320c16.542,0,30,13.458,30,30v320c0,16.542-13.458,30-30,30h-320C33.459,400,20.001,386.543,20.001,370z
	 M492.002,462.002c0,16.542-13.458,30-30,30h-320c-16.542,0-30-13.458-30-30V420h257.999c27.57,0,50-22.43,50-50V112.002h42.001
	c16.542,0,30,13.458,30,30V462.002z"/>
<path d="M142.25,457.002h-0.27c-5.523,0-10,4.477-10,10s4.477,10,10,10h0.27c5.523,0,10-4.477,10-10S147.774,457.002,142.25,457.002
	z"/>
<path d="M462.025,457.002H170.981c-5.523,0-10,4.477-10,10s4.477,10,10,10h291.044c5.522,0,10-4.477,10-10
	S467.547,457.002,462.025,457.002z"/>
<path d="M109.766,55h0.27c5.523,0,10-4.477,10-10s-4.477-10-10-10h-0.27c-5.523,0-10,4.477-10,10S104.243,55,109.766,55z"/>
<path d="M81.036,35H50.001c-5.523,0-10,4.477-10,10s4.477,10,10,10h31.034c5.523,0,10-4.477,10-10
	C91.036,39.477,86.559,35,81.036,35z"/>
<path d="M129.99,285.455c6.09,10.516,17.428,17.048,29.59,17.048c5.986,0,11.9-1.592,17.089-4.598l50.492-29.153
	c0.286-0.166,0.561-0.343,0.825-0.532l49.219-28.414c5.373-3.001,9.84-7.417,12.923-12.779c4.541-7.902,5.733-17.1,3.357-25.898
	c-2.377-8.799-8.037-16.146-15.922-20.676l-48.918-28.242c-0.491-0.319-0.986-0.625-1.484-0.911l-48.792-28.172
	c-5.589-3.685-12.086-5.631-18.813-5.631c-18.871,0-34.224,15.352-34.224,34.224v116.611c0,0.407,0.025,0.809,0.072,1.203
	C125.601,275.115,127.176,280.595,129.99,285.455z M145.334,151.721c0-7.843,6.381-14.224,14.224-14.224
	c2.851,0,5.595,0.836,7.936,2.417c0.195,0.131,0.394,0.256,0.597,0.374l49.091,28.344c0.246,0.142,0.482,0.292,0.716,0.447
	c0.166,0.109,0.335,0.214,0.507,0.314l49.177,28.391c3.27,1.879,5.612,4.919,6.596,8.561c0.983,3.642,0.49,7.448-1.388,10.716
	c-1.284,2.233-3.141,4.067-5.369,5.304c-0.049,0.027-0.099,0.055-0.148,0.083L217.14,251.39c-0.287,0.165-0.562,0.343-0.826,0.532
	l-49.656,28.67c-2.159,1.25-4.607,1.912-7.078,1.912c-5.05,0-9.757-2.709-12.283-7.071c-1.253-2.164-1.914-4.616-1.912-7.091
	c0-0.34-0.017-0.679-0.052-1.015L145.334,151.721L145.334,151.721z"/>
<g>
</g>
<g>
</g>
<g>
</g>
<g>
</g>
<g>
</g>
<g>
</g>
<g>
</g>
<g>
</g>
<g>
</g>
<g>
</g>
<g>
</g>
<g>
</g>
<g>
</g>
<g>
</g>
<g>
</g>
</svg>
