<?xml version="1.0" encoding="iso-8859-1"?>
<!-- Generator: Adobe Illustrator 19.0.0, SVG Export Plug-In . SVG Version: 6.00 Build 0)  -->
<svg version="1.1" id="Capa_1" xmlns="http://www.w3.org/2000/svg" xmlns:xlink="http://www.w3.org/1999/xlink" x="0px" y="0px"
	 viewBox="0 0 512.002 512.002" style="enable-background:new 0 0 512.002 512.002;" xml:space="preserve">
<g>
	<path style="fill:#4AD194;" d="M256.001,45c116.533,0,211.001,94.468,211.001,211.001c0,116.532-94.468,211-211.001,211
		c-116.532,0-211.001-94.468-211.001-211C45,139.468,139.469,45,256.001,45L256.001,45z M502.002,256.001
		C502.002,120.138,391.863,10,256.001,10S10,120.138,10,256.001c0,135.862,110.139,246,246.001,246S502.002,391.864,502.002,256.001
		z"/>
	<path style="fill:#E1E6E9;" d="M467.002,256.001C467.002,139.468,372.534,45,256.001,45C139.469,45,45,139.468,45,256.001
		c0,116.532,94.469,211,211.001,211C372.534,467.002,467.002,372.533,467.002,256.001L467.002,256.001z M223.052,164.808
		l57.1,32.968c0.495,0.285,0.973,0.586,1.446,0.898l57.2,33.023c13.439,7.723,18.073,24.879,10.351,38.319
		c-2.639,4.588-6.374,8.151-10.689,10.545l-58.334,33.677l0.026,0.05l-58.753,33.921c-13.439,7.783-30.645,3.198-38.428-10.242
		c-2.574-4.446-3.797-9.301-3.793-14.093h-0.06v-67.843v-67.843c0-15.567,12.62-28.187,28.187-28.187
		C213.138,160.001,218.557,161.771,223.052,164.808z"/>
	<path style="fill:#4AD194;" d="M338.798,231.697l-57.2-33.023c-0.474-0.312-0.951-0.613-1.446-0.898l-57.1-32.968
		c-4.495-3.037-9.914-4.807-15.747-4.807c-15.566,0-28.187,12.62-28.187,28.187v67.843v67.843h0.06
		c-0.004,4.792,1.219,9.647,3.793,14.093c7.783,13.44,24.988,18.025,38.428,10.242l58.753-33.921l-0.026-0.05l58.334-33.677
		c4.315-2.394,8.051-5.957,10.689-10.545C356.871,256.576,352.237,239.42,338.798,231.697z"/>
</g>
<path d="M256.001,0C114.842,0,0,114.842,0,256.001s114.842,256.001,256.001,256.001S512.002,397.16,512.002,256.001
	S397.16,0,256.001,0z M256.001,492.002C125.87,492.002,20,386.133,20,256.001S125.87,20,256.001,20s236.001,105.87,236.001,236.001
	S386.132,492.002,256.001,492.002z"/>
<path d="M256.001,35C134.141,35,35,134.141,35,256.001s99.141,221,221.001,221s221.001-99.141,221.001-221
	C477.002,134.141,377.861,35,256.001,35z M256.001,457.002c-110.832,0-201.001-90.168-201.001-201C55,145.169,145.169,55,256.001,55
	s201.001,90.168,201.001,201.001C457.002,366.833,366.833,457.002,256.001,457.002z"/>
<path d="M108.58,159.341c-4.785-2.762-10.898-1.122-13.66,3.66c-10.87,18.826-18.3,39.227-22.082,60.635
	c-0.961,5.438,2.669,10.626,8.107,11.587c0.589,0.104,1.174,0.154,1.752,0.154c4.76,0,8.978-3.412,9.836-8.262
	c3.376-19.106,10.006-37.313,19.707-54.115C115.002,168.218,113.363,162.102,108.58,159.341z"/>
<path d="M441.3,239.858c-0.479-5.503-5.344-9.571-10.83-9.095c-5.502,0.479-9.573,5.328-9.094,10.83
	c2.97,34.09-4.505,67.773-21.614,97.408c-2.762,4.783-1.123,10.899,3.66,13.66c1.575,0.91,3.294,1.342,4.99,1.342
	c3.456,0,6.818-1.794,8.67-5.002C436.253,315.796,444.628,278.054,441.3,239.858z"/>
<path d="M80.001,245.393c-5.522,0-10,4.477-10,10L70,256.001c0,5.523,4.478,10,10,10s10-4.477,10-10l0.001-0.608
	C90.001,249.87,85.523,245.393,80.001,245.393z"/>
<path d="M416.491,213.586c1.184,4.486,5.232,7.453,9.663,7.453c0.844,0,1.702-0.107,2.557-0.333c5.34-1.408,8.528-6.879,7.12-12.219
	l-0.169-0.633c-1.433-5.334-6.913-8.497-12.252-7.063c-5.334,1.433-8.496,6.918-7.063,12.252L416.491,213.586z"/>
<path d="M343.798,223.037l-56.96-32.885c-0.598-0.388-1.153-0.73-1.688-1.037l-56.815-32.804c-6.244-4.129-13.508-6.31-21.03-6.31
	c-21.056,0-38.187,17.131-38.187,38.187v135.687c0,0.428,0.027,0.85,0.08,1.264c0.207,6.253,1.966,12.396,5.119,17.84
	c6.794,11.733,19.444,19.022,33.015,19.022c6.678,0,13.274-1.777,19.066-5.131l0,0c0.308-0.178,116.71-67.404,116.991-67.608l0,0
	c5.999-3.347,10.986-8.276,14.429-14.263C368.276,256.799,361.979,233.484,343.798,223.037z M340.479,265.031
	c-1.642,2.857-4.018,5.203-6.872,6.786c-0.049,0.028-0.099,0.056-0.148,0.085l0.148-0.085c-0.308,0.178-116.94,67.535-117.221,67.74
	l0,0c-2.761,1.599-5.893,2.444-9.055,2.444c-6.458,0-12.478-3.465-15.708-9.044c-1.603-2.768-2.448-5.906-2.446-9.076
	c0-0.363-0.02-0.725-0.06-1.083v-134.61c0-10.028,8.158-18.187,18.187-18.187c3.645,0,7.154,1.069,10.149,3.093
	c0.194,0.132,0.394,0.256,0.598,0.374l115.764,66.899c0.321,0.185-0.307-0.202,0,0c0.164,0.108-0.17-0.098,0,0l0,0
	c4.184,2.404,7.182,6.294,8.439,10.953C343.514,255.979,342.883,260.849,340.479,265.031z"/>
<g>
</g>
<g>
</g>
<g>
</g>
<g>
</g>
<g>
</g>
<g>
</g>
<g>
</g>
<g>
</g>
<g>
</g>
<g>
</g>
<g>
</g>
<g>
</g>
<g>
</g>
<g>
</g>
<g>
</g>
</svg>
