<?xml version="1.0" encoding="iso-8859-1"?>
<!-- Generator: Adobe Illustrator 19.0.0, SVG Export Plug-In . SVG Version: 6.00 Build 0)  -->
<svg version="1.1" id="Capa_1" xmlns="http://www.w3.org/2000/svg" xmlns:xlink="http://www.w3.org/1999/xlink" x="0px" y="0px"
	 viewBox="0 0 512.002 512.002" style="enable-background:new 0 0 512.002 512.002;" xml:space="preserve">
<g>
	<path style="fill:#F74F5C;" d="M279.345,130.686l34.546-34.546c5.805-5.805,5.863-15.352,0.001-21.213L279.346,40.38
		c-5.834-5.833-15.38-5.833-21.214,0c-5.833,5.833-5.833,15.379,0,21.213l8.941,8.94H166.574c-8.25,0-15,6.75-15,15
		c0,8.249,6.75,14.999,15,14.999h100.499l-8.94,8.94c-5.834,5.834-5.833,15.38,0,21.213
		C263.966,136.519,273.513,136.519,279.345,130.686z"/>
	<circle style="fill:#FFC36C;" cx="298.505" cy="268.166" r="23.25"/>
	<path style="fill:#4AD194;" d="M349.01,331.709c-63.884,63.883-44.37,54.558-112.814-13.887c-6.585-6.584-17.359-6.584-23.943,0
		c-47.089,47.089-39.94,64.893-81.706,23.128c-6.585-6.584-16.465-5.547-23.943,0c-30.422,22.566-48.843,61.693-89.588,74.02
		c6.695,40.709,18.186,67.34,34.473,59.729c47.357-22.132,98.593-32.731,204.511-32.731c105.919,0,157.153,10.6,204.512,32.731
		c19.986,9.34,32.749-32.884,38.292-89.408c-20.768-6.525-32.296-23.423-48.61-35.522c-5.84-4.332-13.554-5.141-18.694,0
		c-32.61,32.61-27.03,18.71-63.797-18.058C362.563,326.568,354.151,326.568,349.01,331.709z"/>
	<path style="fill:#BCCBD3;" d="M236.196,317.823c68.444,68.445,48.931,77.769,112.814,13.887c5.141-5.141,13.553-5.141,18.693,0
		c36.767,36.767,31.186,50.668,63.797,18.058c5.141-5.141,12.854-4.332,18.694,0c16.314,12.101,27.844,28.997,48.61,35.522
		c9.798-99.91-2.967-244.499-38.292-227.99c-47.358,22.132-98.593,32.731-204.512,32.731c-105.918,0-157.153-10.6-204.511-32.731
		C12.463,139.063,0.972,317.427,17.016,414.97c40.745-12.327,59.166-51.454,89.588-74.02c7.479-5.547,17.358-6.584,23.943,0
		c41.765,41.766,34.616,23.963,81.706-23.128C218.836,311.24,229.611,311.24,236.196,317.823L236.196,317.823z M275.256,268.167
		c0-12.841,10.409-23.251,23.25-23.251c12.841,0,23.251,10.41,23.251,23.251c0,12.84-10.41,23.25-23.251,23.25
		S275.256,281.007,275.256,268.167z"/>
</g>
<path d="M166.574,110.532h79.056c-1.229,2.985-1.872,6.215-1.872,9.547c0,6.689,2.594,12.967,7.304,17.677
	c4.71,4.71,10.989,7.304,17.678,7.304c6.69,0,12.968-2.594,17.677-7.303l34.546-34.546c4.697-4.698,7.292-10.961,7.304-17.637
	c0.013-6.704-2.581-12.996-7.303-17.718l-34.546-34.546c-4.711-4.71-10.988-7.304-17.678-7.304c-6.689,0-12.967,2.594-17.678,7.304
	c-7.346,7.347-9.155,18.167-5.427,27.225h-79.062c-13.785,0-25,11.215-25,25C141.575,99.317,152.789,110.532,166.574,110.532z
	 M166.574,80.534h100.5c4.045,0,7.691-2.437,9.239-6.173c1.548-3.737,0.692-8.038-2.168-10.898l-8.94-8.939
	c-1.917-1.917-1.917-5.156-0.001-7.072c1.259-1.258,2.756-1.446,3.536-1.446c0.78,0,2.277,0.188,3.536,1.446l34.547,34.546
	c1.261,1.261,1.446,2.757,1.445,3.537c-0.001,0.781-0.191,2.278-1.447,3.533l-34.546,34.547c-1.257,1.257-2.753,1.445-3.534,1.445
	c-0.781,0-2.278-0.188-3.536-1.446c-1.258-1.258-1.446-2.755-1.446-3.535c0-0.78,0.188-2.277,1.446-3.535l8.94-8.94
	c2.86-2.86,3.715-7.161,2.168-10.898c-1.548-3.737-5.194-6.173-9.239-6.173h-100.5c-2.711,0-5-2.289-5-5
	C161.574,82.823,163.863,80.534,166.574,80.534z"/>
<path d="M502.791,204.034c-7.823-39.049-19.876-58.032-36.849-58.032c-3.234,0-6.486,0.753-9.664,2.238
	c-41.999,19.627-90.151,31.791-200.279,31.791S97.72,167.867,55.722,148.24c-3.178-1.485-6.43-2.238-9.664-2.238
	c-9.084,0-16.882,5.53-23.175,16.437C6.009,191.687-0.001,260.965,0,316.047c0.001,32.016,2.035,68.821,7.053,99.768
	c0.04,0.463,0.122,0.927,0.229,1.392c3.603,21.708,8.698,40.422,15.621,52.397c7.83,13.545,16.906,16.392,23.148,16.392
	c0.006,0,0.012,0,0.018,0c3.234-0.002,6.483-0.756,9.656-2.238c41.997-19.627,90.149-31.791,200.277-31.791
	c110.127,0,158.28,12.165,200.279,31.791c3.178,1.485,6.43,2.238,9.664,2.238c16.973,0,29.026-18.984,36.848-58.038
	c5.939-29.647,9.21-69.412,9.21-111.967C512,273.438,508.729,233.678,502.791,204.034z M40.207,172.434
	c3.03-5.25,5.296-6.432,5.852-6.432c0.13,0,0.506,0.035,1.197,0.357c52.524,24.546,109.1,33.671,208.744,33.671
	s156.221-9.126,208.746-33.671c0.71-0.331,1.095-0.357,1.196-0.357c1.866,0,10.259,7.122,17.239,41.96
	c5.687,28.389,8.819,66.755,8.819,108.029c0,18.913-0.66,37.209-1.919,54.221c-6.446-4.077-12.167-9.372-18.095-14.868
	c-4.94-4.581-10.048-9.317-15.835-13.609c-10.399-7.713-23.445-7.318-31.722,0.961c-9.729,9.729-15.883,14.902-18.301,15.383
	c-2.083-0.841-7.128-6.694-11.59-11.872c-5.014-5.818-11.254-13.058-19.765-21.569c-4.375-4.375-10.206-6.785-16.418-6.785
	c-6.212,0-12.043,2.41-16.417,6.785c-4.513,4.513-8.611,8.662-12.355,12.451c-15.27,15.458-27.343,27.681-32.205,27.681
	c-0.021,0-0.041,0-0.061-0.001c-3.965-0.085-12.996-10.052-23.454-21.592c-7.86-8.674-17.642-19.469-30.598-32.425
	c-10.501-10.499-27.585-10.499-38.084,0.001c-10.827,10.827-18.781,20.057-25.173,27.473c-6.821,7.914-13.874,16.098-16.793,16.206
	c-0.03,0.001-0.061,0.001-0.091,0.001c-4.955,0-19.342-14.388-25.508-20.554c-9.596-9.595-24.8-9.988-36.971-0.96
	c-11.948,8.863-22.029,19.96-31.778,30.691c-13.553,14.92-26.484,29.144-43.831,37.519c-3.225-24.329-5.036-53.604-5.037-85.083
	C19.998,250.085,27.93,193.714,40.207,172.434z M465.942,465.997c-0.129,0-0.506-0.035-1.196-0.357
	c-52.524-24.546-109.1-33.671-208.746-33.671s-156.221,9.125-208.744,33.67c-0.69,0.322-1.072,0.357-1.205,0.357
	c-0.553,0-2.812-1.174-5.834-6.401c-4.666-8.071-8.702-21.221-11.917-38.031c23.709-9.662,39.781-27.344,55.372-44.506
	c9.521-10.481,18.514-20.381,28.889-28.077c2.533-1.878,7.682-4.195,10.914-0.96c18.601,18.601,28.882,26.829,40.481,26.396
	c11.635-0.431,19.42-9.463,31.202-23.136c6.176-7.166,13.863-16.084,24.166-26.387c2.656-2.655,7.145-2.656,9.801,0
	c12.608,12.608,22.208,23.201,29.92,31.712c16.295,17.982,25.271,27.888,37.843,28.158c13.4,0.299,23.927-10.338,46.925-33.62
	c3.717-3.763,7.787-7.883,12.268-12.364c0.806-0.806,1.771-0.927,2.275-0.927c0.504,0,1.469,0.121,2.275,0.927
	c7.987,7.987,13.959,14.917,18.757,20.484c9.576,11.111,15.903,18.452,25.943,18.824c10.754,0.42,20.145-8.155,33.239-21.25
	c1.473-1.473,4.35-0.016,5.665,0.961c4.907,3.64,9.398,7.803,14.152,12.211c8.705,8.072,17.668,16.362,29.688,21.841
	c-1.321,11.696-2.96,22.517-4.896,32.179C476.2,458.874,467.808,465.997,465.942,465.997z"/>
<path d="M120.38,225.577c0.001,0,0.002,0,0.003,0c0.612,0.113,1.221,0.168,1.822,0.168c4.724,0,8.921-3.366,9.814-8.179
	c1.007-5.425-2.579-10.642-8.003-11.655c-0.064-0.012-0.167-0.03-0.232-0.041c-5.444-0.907-10.6,2.772-11.508,8.22
	C111.375,219.498,114.997,224.615,120.38,225.577z"/>
<path d="M53.332,206.96c11.754,4.532,24.129,8.526,36.781,11.871c0.857,0.227,1.716,0.334,2.563,0.334
	c4.428,0,8.476-2.964,9.662-7.446c1.412-5.34-1.772-10.813-7.112-12.224c-11.95-3.159-23.624-6.926-34.698-11.196
	c-5.155-1.987-10.941,0.581-12.928,5.733C45.612,199.186,48.179,204.974,53.332,206.96z"/>
<path d="M298.507,301.417c18.334,0,33.249-14.916,33.249-33.249c0-18.335-14.916-33.25-33.249-33.25
	c-18.334,0-33.249,14.916-33.249,33.25C265.257,286.501,280.173,301.417,298.507,301.417z M298.507,254.917
	c7.306,0,13.25,5.944,13.25,13.251c0,7.306-5.944,13.25-13.25,13.25c-7.306,0-13.25-5.944-13.25-13.25
	S291.201,254.917,298.507,254.917z"/>
<g>
</g>
<g>
</g>
<g>
</g>
<g>
</g>
<g>
</g>
<g>
</g>
<g>
</g>
<g>
</g>
<g>
</g>
<g>
</g>
<g>
</g>
<g>
</g>
<g>
</g>
<g>
</g>
<g>
</g>
</svg>
