<?xml version="1.0" encoding="iso-8859-1"?>
<!-- Generator: Adobe Illustrator 19.0.0, SVG Export Plug-In . SVG Version: 6.00 Build 0)  -->
<svg version="1.1" id="Capa_1" xmlns="http://www.w3.org/2000/svg" xmlns:xlink="http://www.w3.org/1999/xlink" x="0px" y="0px"
	 viewBox="0 0 512.001 512.001" style="enable-background:new 0 0 512.001 512.001;" xml:space="preserve">
<g>
	<path style="fill:#636A75;" d="M10,135.999h492.001V116c0-11.001-8.999-20-19.999-20H30c-11.001,0-20,8.999-20,20V135.999z"/>
	<path style="fill:#BCCBD3;" d="M502.001,135.999H10V396c0,11.001,8.999,20,20,20h452.002c11,0,19.999-8.999,19.999-20V135.999
		L502.001,135.999z M50,175.999L186.001,176h140l136-0.001V376h-136h-140H50V175.999z"/>
	<path style="fill:#FF9750;" d="M186.001,176L50,175.999V376h136.001c-55.229,0-100-44.772-100-100S130.772,176,186.001,176z"/>
	<path style="fill:#636A75;" d="M186.001,176c-55.229,0-100,44.771-100,100s44.771,100,100,100v-60C163.909,316,146,298.091,146,276
		s17.909-40,40.001-40V176z"/>
	<path style="fill:#BCCBD3;" d="M186.001,236C163.909,236,146,253.908,146,276s17.909,40,40.001,40V236z"/>
	<polygon style="fill:#E1E6E9;" points="186.001,175.999 186.001,236 186.001,316 186.001,376 326.001,376 326.001,316 326.001,236 
		326.001,176 	"/>
	<path style="fill:#636A75;" d="M326.001,175.999V236c22.091,0,40,17.909,40,40s-17.909,40-40,40v60c55.228,0,100-44.772,100-100
		S381.229,176,326.001,175.999z"/>
	<path style="fill:#BCCBD3;" d="M366.001,276c0-22.091-17.909-40-40-40v80C348.092,316,366.001,298.091,366.001,276z"/>
	<path style="fill:#FF9750;" d="M326.001,176l136-0.001V376h-136c55.228,0,100-44.772,100-100S381.229,176,326.001,176z"/>
</g>
<path d="M482.002,86.001H30c-16.542,0-30,13.458-30,30v280c0,16.542,13.458,30,30,30h452.002c16.542,0,29.999-13.458,29.999-30V116
	C512.001,99.458,498.544,86.001,482.002,86.001z M30,106.001h452.002c5.514,0,9.999,4.486,9.999,10V126H20v-10
	C20,110.487,24.486,106.001,30,106.001z M482.002,406H30c-5.514,0-10-4.486-10-10V145.999h472.001V396
	C492.001,401.514,487.516,406,482.002,406z"/>
<path d="M462.001,165.999L462.001,165.999H50l0,0c-5.523,0-10,4.477-10,10V376c0,5.523,4.477,10,10,10l0,0h412.001l0,0
	c5.522,0,10-4.477,10-10V175.999C472.001,170.476,467.523,165.999,462.001,165.999z M336.001,247.72
	c11.639,4.128,20,15.243,20,28.28s-8.361,24.152-20,28.28V247.72z M336.001,324.993c22.795-4.645,40-24.847,40-48.994
	s-17.205-44.348-40-48.994v-40.448c44.936,4.991,80,43.196,80,89.441s-35.064,84.451-80,89.441V324.993z M176.001,304.28
	c-11.639-4.128-20-15.243-20-28.28s8.361-24.152,20-28.28V304.28z M176.001,227.006c-22.794,4.645-40,24.847-40,48.994
	s17.206,44.349,40,48.994v40.448c-44.937-4.991-80-43.196-80-89.441s35.063-84.451,80-89.441V227.006z M60,366V185.999h62.831
	C94.53,205.922,76.001,238.836,76.001,276c0,37.163,18.528,70.077,46.828,90H60z M196.001,185.999h120V366h-120V185.999z
	 M452.001,366h-62.828c28.301-19.923,46.828-52.837,46.828-90c0-37.164-18.528-70.078-46.829-90.001h62.829V366z"/>
<path d="M286.018,226.001h-0.269c-5.522,0-10,4.477-10,10s4.478,10,10,10h0.269c5.522,0,10-4.477,10-10
	C296.018,230.478,291.54,226.001,286.018,226.001z"/>
<path d="M225.983,246.001h31.035c5.522,0,10-4.477,10-10s-4.478-10-10-10h-31.035c-5.523,0-10,4.477-10,10
	S220.46,246.001,225.983,246.001z"/>
<path d="M286.018,305.999h-31.034c-5.523,0-10,4.477-10,10s4.477,10,10,10h31.034c5.522,0,10-4.477,10-10
	C296.018,310.476,291.54,305.999,286.018,305.999z"/>
<path d="M226.253,305.999h-0.27c-5.523,0-10,4.477-10,10s4.477,10,10,10h0.27c5.523,0,10-4.477,10-10
	C236.253,310.476,231.776,305.999,226.253,305.999z"/>
<path d="M286.018,266h-60.034c-5.523,0-10,4.477-10,10s4.477,10,10,10h60.034c5.522,0,10-4.477,10-10S291.54,266,286.018,266z"/>
<g>
</g>
<g>
</g>
<g>
</g>
<g>
</g>
<g>
</g>
<g>
</g>
<g>
</g>
<g>
</g>
<g>
</g>
<g>
</g>
<g>
</g>
<g>
</g>
<g>
</g>
<g>
</g>
<g>
</g>
</svg>
