<?xml version="1.0" encoding="iso-8859-1"?>
<!-- Generator: Adobe Illustrator 19.0.0, SVG Export Plug-In . SVG Version: 6.00 Build 0)  -->
<svg version="1.1" id="Capa_1" xmlns="http://www.w3.org/2000/svg" xmlns:xlink="http://www.w3.org/1999/xlink" x="0px" y="0px"
	 viewBox="0 0 512.001 512.001" style="enable-background:new 0 0 512.001 512.001;" xml:space="preserve">
<g>
	<circle style="fill:#BCCBD3;" cx="120" cy="146" r="75"/>
	<path style="fill:#636A75;" d="M140.001,416H100c-11,0-20,8.999-20,19.999V476h80v-40.001C160,424.999,151.001,416,140.001,416z"/>
	<path style="fill:#FFC36C;" d="M100,345.999h40.001c11,0,19.999-8.999,19.999-20c0-11-8.999-20-19.999-20H100c-11,0-20,9-20,20.001
		C80,337,89,345.999,100,345.999z"/>
	<path style="fill:#4AD194;" d="M240,286v80v30c0,11,9,20,19.999,20h222.002c11.001,0,20-9,20-20V255.999
		c0-11-8.999-19.999-20-19.999H259.999C249,235.999,240,244.999,240,255.999V286z"/>
	<g>
		<rect x="210" y="286" style="fill:#636A75;" width="30" height="80"/>
		<path style="fill:#636A75;" d="M120,256.001c37.206,0,70.094-18.475,90-46.747v0.008c12.601-17.893,20-39.713,20-63.261
			C230,85.249,180.752,36,120,36C59.249,36,10,85.249,10,146.001c0,23.548,7.399,45.368,20,63.261v-0.008
			C49.907,237.526,82.795,256.001,120,256.001L120,256.001z M195,146.001c0,41.421-33.578,75-75,75s-75-33.579-75-75
			C45,104.579,78.578,71,120,71S195,104.579,195,146.001z"/>
	</g>
	<path style="fill:#4AD194;" d="M30,209.254V436c0,22,18,40,40,40h10v-40.001c0-11,9-19.999,20-19.999h40.001
		c11,0,19.999,8.999,19.999,19.999V476h10c22.001,0,40-18,40-40v-70v-80v-76.737v-0.008c-42.653,60.578-132.45,61.878-177.127,3.899
		C31.894,211.882,30.936,210.583,30,209.254L30,209.254z M140.001,305.999c11,0,19.999,9,19.999,20c0,11.001-8.999,20-19.999,20H100
		c-11,0-20-8.999-20-19.999c0-11.001,9-20.001,20-20.001H140.001z"/>
</g>
<path d="M120,231.001c46.869,0,85-38.131,85-85C205,99.131,166.869,61,120,61s-85,38.131-85,85.001
	C35,192.87,73.131,231.001,120,231.001z M120,81.001c35.841,0,65,29.159,65,65.001s-29.159,65-65,65s-65-29.159-65-65
	S84.159,81.001,120,81.001z"/>
<path d="M81.762,167.755c0.973,0,1.962-0.144,2.94-0.444c5.279-1.622,8.243-7.217,6.621-12.496
	c-0.878-2.858-1.323-5.824-1.323-8.814c0-10.684,5.748-20.639,15-25.982c4.783-2.761,6.422-8.877,3.66-13.66
	c-2.761-4.783-8.877-6.421-13.66-3.66c-15.421,8.903-25,25.496-25,43.302c0,4.983,0.742,9.925,2.206,14.688
	C73.527,164.99,77.485,167.755,81.762,167.755z"/>
<path d="M482.001,225.999H259.999c-16.541,0-29.999,13.458-29.999,29.999V276h-10v-63.744c12.629-18.999,20-41.78,20-66.254
	C240,79.832,186.168,26,120,26S0,79.832,0,146.001c0,24.474,7.371,47.255,20,66.254V436c0,27.57,22.43,50,50,50l0,0h100l0,0
	c27.57,0,50-22.43,50-50v-60h10v20c0,16.542,13.458,30,29.999,30h222.002c16.542,0,30-13.458,30-30V255.999
	C512.001,239.457,498.543,225.999,482.001,225.999z M120,46c55.141,0,100,44.86,100,100.001c0,35.631-18.735,66.964-46.869,84.68
	c-0.568,0.356-1.138,0.712-1.712,1.057c-0.148,0.088-0.295,0.174-0.442,0.261c-0.755,0.448-1.515,0.889-2.28,1.316
	c-0.007,0.004-0.014,0.008-0.021,0.011c-12.067,6.727-25.504,10.952-39.482,12.247c-0.088,0.008-0.178,0.016-0.266,0.024
	c-0.831,0.075-1.664,0.137-2.498,0.19c-0.206,0.013-0.411,0.027-0.617,0.039c-0.747,0.044-1.496,0.076-2.246,0.103
	c-0.233,0.008-0.466,0.02-0.7,0.027c-0.953,0.027-1.908,0.044-2.865,0.044s-1.912-0.016-2.865-0.044
	c-0.233-0.007-0.466-0.019-0.699-0.027c-0.751-0.027-1.5-0.059-2.248-0.103c-0.205-0.012-0.41-0.026-0.615-0.039
	c-0.835-0.054-1.669-0.116-2.5-0.19c-0.088-0.008-0.176-0.016-0.264-0.023c-14.887-1.38-29.156-6.085-41.815-13.594
	c-0.131-0.078-0.263-0.154-0.393-0.232c-0.605-0.363-1.205-0.737-1.804-1.113C38.703,212.912,20,181.602,20,146.001
	C20,90.86,64.859,46,120,46z M90,466v-30.001c0-5.514,4.486-9.999,10-9.999h40.001c5.514,0,9.999,4.486,9.999,9.999V466H90z
	 M200,436c0,16.543-13.458,30-30,30v-30.001C170,419.457,156.543,406,140.001,406H100c-16.542,0-30,13.457-30,29.999V466
	c-16.542,0-30-13.458-30-30V235.421c5.514,4.926,11.454,9.314,17.733,13.126c0.35,0.213,0.704,0.418,1.056,0.628
	c0.388,0.231,0.773,0.464,1.164,0.69c14.614,8.481,31.173,13.963,48.83,15.607c0.128,0.012,0.256,0.022,0.384,0.034
	c0.764,0.069,1.529,0.133,2.299,0.188c0.289,0.02,0.58,0.037,0.87,0.056c0.632,0.04,1.264,0.08,1.897,0.11
	c0.486,0.023,0.973,0.038,1.46,0.056c0.463,0.017,0.925,0.037,1.389,0.048c0.972,0.024,1.944,0.037,2.918,0.037
	s1.946-0.013,2.917-0.037c0.469-0.011,0.935-0.032,1.402-0.049c0.48-0.018,0.963-0.032,1.443-0.055
	c0.64-0.03,1.277-0.071,1.915-0.111c0.284-0.018,0.568-0.034,0.853-0.054c0.775-0.055,1.549-0.12,2.321-0.189
	c0.118-0.011,0.237-0.021,0.356-0.032c17.672-1.645,34.243-7.133,48.867-15.625c0.298-0.172,0.593-0.352,0.89-0.527
	c0.442-0.261,0.886-0.52,1.324-0.787c6.27-3.809,12.204-8.193,17.712-13.113l0,0L200,436L200,436z M220,356v-60h10v60H220z
	 M492.001,396c0,5.514-4.486,10-10,10H259.999c-5.514,0-9.999-4.486-9.999-10l0,0V255.999l0,0c0-5.514,4.485-9.999,9.999-9.999
	h222.002c5.514,0,10,4.485,10,9.999L492.001,396L492.001,396z"/>
<path d="M105.024,171.996l-0.165-0.096c-4.76-2.804-10.889-1.218-13.691,3.541c-2.803,4.758-1.218,10.889,3.541,13.691l0.267,0.156
	c1.581,0.918,3.31,1.355,5.015,1.355c3.446,0,6.8-1.783,8.656-4.977C111.421,180.891,109.8,174.77,105.024,171.996z"/>
<path d="M140.001,295.999H100c-16.542,0-30,13.458-30,30.001c0,16.542,13.458,29.999,30,29.999h40.001
	c16.542,0,29.999-13.458,29.999-30S156.543,295.999,140.001,295.999z M140.001,335.999H100c-5.514,0-10-4.486-10-10s4.486-10,10-10
	h40.001c5.514,0,9.999,4.486,9.999,10.001C150,331.513,145.515,335.999,140.001,335.999z"/>
<path d="M438.001,370.999H275c-5.522,0-10,4.477-10,10s4.478,10,10,10h163.001c5.522,0,10-4.477,10-10
	C448.001,375.477,443.523,370.999,438.001,370.999z"/>
<path d="M467.001,370.999h-0.269c-5.522,0-10,4.477-10,10s4.478,10,10,10h0.269c5.522,0,10-4.477,10-10
	C477.001,375.477,472.523,370.999,467.001,370.999z"/>
<g>
</g>
<g>
</g>
<g>
</g>
<g>
</g>
<g>
</g>
<g>
</g>
<g>
</g>
<g>
</g>
<g>
</g>
<g>
</g>
<g>
</g>
<g>
</g>
<g>
</g>
<g>
</g>
<g>
</g>
</svg>
