<?xml version="1.0" encoding="iso-8859-1"?>
<!-- Generator: Adobe Illustrator 19.0.0, SVG Export Plug-In . SVG Version: 6.00 Build 0)  -->
<svg version="1.1" id="Capa_1" xmlns="http://www.w3.org/2000/svg" xmlns:xlink="http://www.w3.org/1999/xlink" x="0px" y="0px"
	 viewBox="0 0 512.002 512.002" style="enable-background:new 0 0 512.002 512.002;" xml:space="preserve">
<path style="fill:#FF9750;" d="M156.001,502.002h200c11.001,0,20-9,20-20V356l0.001-249.999L376.001,30c0-11-8.999-20-20-20h-200
	c-11,0-20,9-20,20v76.002V356v126.001C136.001,493.002,145.001,502.002,156.001,502.002z"/>
<path d="M181.002,46.002h-10c-2.75,0-5,2.25-5,5v10c0,2.75,2.25,5,5,5h10c2.75,0,5-2.249,5-5v-10
	C186.002,48.251,183.752,46.002,181.002,46.002z"/>
<path d="M181.002,146.001h-10c-2.75,0-5,2.25-5,5v10c0,2.751,2.25,5,5,5h10c2.75,0,5-2.249,5-5v-10
	C186.002,148.251,183.752,146.001,181.002,146.001z"/>
<path d="M181.002,196.001h-10c-2.75,0-5,2.249-5,4.999v10.001c0,2.75,2.25,5,5,5h10c2.75,0,5-2.25,5-5V201
	C186.002,198.251,183.752,196.001,181.002,196.001z"/>
<path d="M181.002,246.001h-10c-2.75,0-5,2.25-5,4.999v10.001c0,2.75,2.25,5,5,5h10c2.75,0,5-2.25,5-5V251
	C186.002,248.251,183.752,246.001,181.002,246.001z"/>
<path d="M181.002,296h-10c-2.75,0-5,2.25-5,5v10.001c0,2.75,2.25,5,5,5h10c2.75,0,5-2.25,5-5V301
	C186.002,298.25,183.752,296,181.002,296z"/>
<path d="M181.002,396h-10c-2.75,0-5,2.25-5,4.999V411c0,2.751,2.25,5,5,5h10c2.75,0,5-2.249,5-5v-10.001
	C186.002,398.25,183.752,396,181.002,396z"/>
<path d="M181.002,445.999h-10c-2.75,0-5,2.25-5,5V461c0,2.75,2.25,5,5,5h10c2.75,0,5-2.25,5-5v-10.001
	C186.002,448.249,183.752,445.999,181.002,445.999z"/>
<path d="M331,66.002h10.001c2.75,0,5-2.249,5-5v-10c0-2.75-2.25-5-5-5H331c-2.75,0-5,2.25-5,5v10
	C326,63.752,328.25,66.002,331,66.002z"/>
<path d="M331,166.001h10.001c2.75,0,5-2.249,5-5v-10c0-2.75-2.25-5-5-5H331c-2.75,0-5,2.25-5,5v10
	C326,163.752,328.25,166.001,331,166.001z"/>
<path d="M331,216.001h10.001c2.75,0,5-2.25,5-5V201c0-2.75-2.25-4.999-5-4.999H331c-2.75,0-5,2.249-5,4.999v10.001
	C326,213.751,328.25,216.001,331,216.001z"/>
<path d="M331,266.001h10.001c2.75,0,5-2.25,5-5V251c0-2.749-2.25-4.999-5-4.999H331c-2.75,0-5,2.25-5,4.999v10.001
	C326,263.751,328.25,266.001,331,266.001z"/>
<path d="M331,316.001h10.001c2.75,0,5-2.25,5-5V301c0-2.75-2.25-5-5-5H331c-2.75,0-5,2.25-5,5v10.001
	C326,313.751,328.25,316.001,331,316.001z"/>
<path d="M341.001,396H331c-2.75,0-5,2.25-5,4.999V411c0,2.751,2.25,5,5,5h10.001c2.75,0,5-2.249,5-5v-10.001
	C346.001,398.25,343.751,396,341.001,396z"/>
<path d="M341.001,445.999H331c-2.75,0-5,2.25-5,5V461c0,2.75,2.25,5,5,5h10.001c2.75,0,5-2.25,5-5v-10.001
	C346.001,448.249,343.751,445.999,341.001,445.999z"/>
<path d="M276.235,346h-0.269c-5.522,0-10,4.477-10,10s4.478,10,10,10h0.269c5.522,0,10-4.477,10-10S281.758,346,276.235,346z"/>
<path d="M236.036,96.001h-0.27c-5.522,0-10,4.477-10,10s4.478,10,10,10h0.27c5.522,0,10-4.477,10-10S241.559,96.001,236.036,96.001z
	"/>
<path d="M386.001,30c0-0.006,0,75.989,0,75.982V30c0-16.542-13.458-30-30-30h-200c-16.542,0-30,13.458-30,30v452.002
	c0,16.542,13.458,30,30,30h200c16.542,0,30-13.458,30-30V30C386.001,29.994,386.001,30.006,386.001,30z M356.001,492.002h-200
	c-5.514,0-10-4.486-10-10V366h91.264c5.523,0,10-4.477,10-10s-4.477-10-10-10h-91.264V116.002l0,0c0.002,0-0.002,0,0,0h61.035
	c0.002,0,1.382-0.107,1.384-0.107l-1.384,0.107c5.522,0,10-4.477,10-10s-4.478-10-10-10l0,0h-61.035l0,0V30c0-5.514,4.486-10,10-10
	h200c5.514,0,10,4.486,10,10v66.002l0,0h-91.263l0,0c-5.522,0-10,4.477-10,10s4.478,10,10,10l0,0c0.002,0-0.002,0,0,0h91.263
	c0.002,0-0.002,0,0,0l0,0V346h-61.035c-5.523,0-10,4.477-10,10s4.477,10,10,10h61.035v116.002
	C366.001,487.516,361.515,492.002,356.001,492.002z"/>
<g>
</g>
<g>
</g>
<g>
</g>
<g>
</g>
<g>
</g>
<g>
</g>
<g>
</g>
<g>
</g>
<g>
</g>
<g>
</g>
<g>
</g>
<g>
</g>
<g>
</g>
<g>
</g>
<g>
</g>
</svg>
