<?xml version="1.0" encoding="iso-8859-1"?>
<!-- Generator: Adobe Illustrator 19.0.0, SVG Export Plug-In . SVG Version: 6.00 Build 0)  -->
<svg version="1.1" id="Capa_1" xmlns="http://www.w3.org/2000/svg" xmlns:xlink="http://www.w3.org/1999/xlink" x="0px" y="0px"
	 viewBox="0 0 512.002 512.002" style="enable-background:new 0 0 512.002 512.002;" xml:space="preserve">
<g>
	<path style="fill:#4AD194;" d="M45,256.001C45,139.468,139.468,45,256.001,45c116.532,0,211.001,94.468,211.001,211.001
		s-94.469,211.001-211.001,211.001C139.468,467.002,45,372.533,45,256.001L45,256.001z M256.001,10
		C120.138,10,10,120.138,10,256.001s110.138,246.001,246.001,246.001c135.862,0,246.001-110.138,246.001-246.001
		S391.864,10,256.001,10z"/>
	<path style="fill:#E1E6E9;" d="M256.001,45C139.468,45,45,139.468,45,256.001s94.468,211.001,211.001,211.001
		c116.532,0,211.001-94.468,211.001-211.001S372.533,45,256.001,45L256.001,45z M166.001,156.001h46.666c5.501,0,10,4.5,10,10v180
		c0,5.5-4.499,10-10,10h-46.666c-5.5,0-10-4.5-10-10v-180C156.001,160.501,160.501,156.001,166.001,156.001L166.001,156.001z
		 M299.334,156.001h46.667c5.5,0,10,4.5,10,10v180c0,5.5-4.5,10-10,10h-46.667c-5.5,0-9.999-4.5-9.999-10v-180
		C289.335,160.501,293.834,156.001,299.334,156.001z"/>
	<g>
		<path style="fill:#4AD194;" d="M212.667,156.001h-46.666c-5.5,0-10,4.5-10,10v180c0,5.5,4.5,10,10,10h46.666c5.501,0,10-4.5,10-10
			v-180C222.667,160.501,218.168,156.001,212.667,156.001z"/>
		<path style="fill:#4AD194;" d="M289.335,166.001v180c0,5.5,4.499,10,9.999,10h46.667c5.5,0,10-4.5,10-10v-180c0-5.5-4.5-10-10-10
			h-46.667C293.834,156.001,289.335,160.501,289.335,166.001z"/>
	</g>
</g>
<path d="M256.001,0c-141.158,0-256,114.841-256,256.001s114.841,256.001,256,256.001S512.001,397.16,512.001,256.001
	S397.16,0,256.001,0z M256.001,492.002c-130.131,0-236-105.87-236-236.001S125.87,20,256.001,20s236.001,105.869,236.001,236.001
	S386.133,492.002,256.001,492.002z"/>
<path d="M256.001,35c-121.86,0-221,99.141-221,221.001s99.14,221.001,221,221.001s221.001-99.141,221.001-221.001
	S377.862,35,256.001,35z M256.001,457.002c-110.831,0-201-90.169-201-201.001S145.17,55,256.001,55
	c110.832,0,201.001,90.169,201.001,201.001S366.834,457.002,256.001,457.002z"/>
<path d="M108.579,159.34c-4.782-2.76-10.899-1.122-13.66,3.661c-10.87,18.83-18.299,39.23-22.082,60.635
	c-0.961,5.438,2.669,10.626,8.108,11.587c0.588,0.104,1.174,0.154,1.751,0.154c4.76,0,8.979-3.412,9.836-8.262
	c3.375-19.103,10.005-37.31,19.708-54.115C115.001,168.217,113.362,162.101,108.579,159.34z"/>
<path d="M441.301,239.857c-0.479-5.503-5.339-9.572-10.83-9.095c-5.502,0.479-9.574,5.328-9.095,10.83
	c2.97,34.09-4.504,67.773-21.614,97.409c-2.762,4.783-1.123,10.899,3.66,13.66c1.575,0.91,3.294,1.342,4.991,1.342
	c3.456,0,6.817-1.794,8.669-5.002C436.254,315.796,444.628,278.054,441.301,239.857z"/>
<path d="M80.001,245.392c-5.523,0-10,4.477-10,10L70,256c0,5.523,4.477,10,10,10s10-4.477,10-10l0.001-0.608
	C90.001,249.869,85.524,245.392,80.001,245.392z"/>
<path d="M416.495,213.597c1.188,4.481,5.234,7.441,9.66,7.441c0.848,0,1.71-0.108,2.568-0.336c5.339-1.415,8.52-6.89,7.105-12.228
	l-0.17-0.638c-1.443-5.331-6.932-8.484-12.266-7.04c-5.331,1.443-8.483,6.935-7.04,12.266L416.495,213.597z"/>
<path d="M212.667,146.001h-46.666c-11.028,0-20,8.972-20,20v180c0,11.028,8.972,20,20,20h46.666c11.028,0,20-8.972,20-20v-180
	C232.667,154.973,223.695,146.001,212.667,146.001z M166.001,346.001v-180h46.666l0.002,180H166.001z"/>
<path d="M346.001,146.001h-46.667c-11.027,0-19.999,8.972-19.999,20v180c0,11.028,8.972,20,19.999,20h46.667
	c11.028,0,20-8.972,20-20v-180C366.001,154.973,357.029,146.001,346.001,146.001z M299.335,346.001l-0.001-180h46.667l0.002,180
	H299.335z"/>
<g>
</g>
<g>
</g>
<g>
</g>
<g>
</g>
<g>
</g>
<g>
</g>
<g>
</g>
<g>
</g>
<g>
</g>
<g>
</g>
<g>
</g>
<g>
</g>
<g>
</g>
<g>
</g>
<g>
</g>
</svg>
