<?xml version="1.0" encoding="iso-8859-1"?>
<!-- Generator: Adobe Illustrator 19.0.0, SVG Export Plug-In . SVG Version: 6.00 Build 0)  -->
<svg version="1.1" id="Capa_1" xmlns="http://www.w3.org/2000/svg" xmlns:xlink="http://www.w3.org/1999/xlink" x="0px" y="0px"
	 viewBox="0 0 512.001 512.001" style="enable-background:new 0 0 512.001 512.001;" xml:space="preserve">
<path style="fill:#FFC36C;" d="M406.728,168.639H298.863l75.574-137.463c3.796-6.912,1.268-15.593-5.643-19.388
	c-2.185-1.199-4.545-1.767-6.872-1.765V10h-160.89c-6.372,0-11.77,4.169-13.619,9.927L92.017,262.519
	c-2.87,7.343,0.757,15.624,8.102,18.493c1.707,0.668,3.466,0.983,5.195,0.983v0.023h104.868l-53.498,202.078
	c-2.005,7.622,2.548,15.427,10.169,17.432c5.914,1.556,11.937-0.836,15.275-5.546l235.886-304.323
	c4.814-6.233,3.662-15.189-2.57-20.003c-2.599-2.007-5.67-2.976-8.716-2.974L406.728,168.639L406.728,168.639z"/>
<path d="M421.556,163.741c-3.964-3.062-8.645-4.788-13.619-5.029c-0.396-0.048-0.8-0.073-1.209-0.073h-90.955l67.43-122.649
	c3.122-5.684,3.843-12.244,2.03-18.471c-1.811-6.227-5.94-11.375-11.626-14.497c-3.305-1.814-7.005-2.837-10.771-2.981
	C362.534,0.014,362.231,0,361.923,0H201.032c-10.481,0-19.689,6.627-23.028,16.528L82.703,258.879
	c-2.361,6.04-2.228,12.637,0.374,18.577s7.362,10.511,13.397,12.869c2.549,0.998,5.211,1.552,7.936,1.653
	c0.298,0.027,0.599,0.04,0.903,0.04h91.876l-50.177,189.534c-3.404,12.942,4.354,26.242,17.295,29.647
	c2.023,0.532,4.105,0.802,6.186,0.802c7.769,0,15.097-3.749,19.652-10.04L425.928,197.77
	C434.104,187.184,432.142,171.92,421.556,163.741z M410.11,185.532L174.224,489.856c-0.087,0.112-0.172,0.227-0.254,0.343
	c-1,1.411-2.856,2.111-4.572,1.659c-2.277-0.599-3.642-2.939-3.047-5.202l53.498-202.078c0.794-3,0.15-6.199-1.743-8.659
	c-1.893-2.46-4.821-3.9-7.924-3.9H105.996c-0.743-0.051-1.509-0.035-2.239-0.32c-1.436-0.561-2.095-1.661-2.36-2.267
	c-0.266-0.606-0.627-1.837-0.074-3.253l95.396-242.592c0.078-0.199,0.15-0.399,0.215-0.602c0.477-1.485,1.929-2.984,4.098-2.984
	h160.213c0.229,0.016,0.458,0.024,0.69,0.024c0.717,0,1.406,0.179,2.046,0.53c1.352,0.742,1.863,1.919,2.049,2.555
	c0.185,0.635,0.384,1.903-0.355,3.25l-75.574,137.463c-1.703,3.098-1.645,6.865,0.155,9.908s5.072,4.91,8.607,4.91h106.941
	c0.307,0.028,0.618,0.043,0.932,0.043c0.659,0,1.645,0.154,2.594,0.887C411.19,181.006,411.535,183.688,410.11,185.532z"/>
<path d="M246.196,35h-31.034c-5.523,0-10,4.477-10,10s4.477,10,10,10h31.034c5.523,0,10-4.477,10-10
	C256.196,39.477,251.719,35,246.196,35z"/>
<path d="M275.196,35h-0.269c-5.522,0-10,4.477-10,10s4.478,10,10,10h0.269c5.523,0,10-4.477,10-10S280.719,35,275.196,35z"/>
<g>
</g>
<g>
</g>
<g>
</g>
<g>
</g>
<g>
</g>
<g>
</g>
<g>
</g>
<g>
</g>
<g>
</g>
<g>
</g>
<g>
</g>
<g>
</g>
<g>
</g>
<g>
</g>
<g>
</g>
</svg>
