<?xml version="1.0" encoding="iso-8859-1"?>
<!-- Generator: Adobe Illustrator 19.0.0, SVG Export Plug-In . SVG Version: 6.00 Build 0)  -->
<svg version="1.1" id="Capa_1" xmlns="http://www.w3.org/2000/svg" xmlns:xlink="http://www.w3.org/1999/xlink" x="0px" y="0px"
	 viewBox="0 0 512.002 512.002" style="enable-background:new 0 0 512.002 512.002;" xml:space="preserve">
<g>
	<path style="fill:#E1E6E9;" d="M91.003,45h329.999v422.002h-16.968H107.97H91.003V45L91.003,45z M456.001,30
		c0-11-8.999-20-19.999-20h-360c-11.001,0-20,9-20,20v452.002c0,11,8.999,20,20,20h360c11,0,19.999-9,19.999-20V30z"/>
	<path style="fill:#4AD194;" d="M421.001,45H91.003v422.002h16.968c0-22.5,29.5-107.625,39.5-117.625
		c9.999-9.999,42-30.399,71.398-30.399v-11.63c-27.875-15.847-38.633-49.949-42.446-81.115c-1.45-11.858-1.895-23.291-1.895-33.132
		c0-44.997,36.478-81.475,81.476-81.475c44.997,0,81.475,36.478,81.475,81.475c0,6.663-0.204,14.056-0.786,21.816
		c-2.537,33.827-12.256,74.638-43.556,92.432v11.63c29.398,0,61.398,20.4,71.398,30.399c6.892,6.892,23.044,49.461,32.42,82.625
		c4.23,14.96,7.08,28.006,7.08,35h16.968L421.001,45L421.001,45z"/>
	<path style="fill:#636A75;" d="M337.477,193.101c0-44.997-36.478-81.475-81.475-81.475c-44.998,0-81.476,36.478-81.476,81.475
		c0,9.841,0.445,21.274,1.895,33.132c34.517-4.501,80.135-18.353,103.797-44.853c17.5,20.501,37.943,32.571,56.472,33.536
		C337.272,207.156,337.477,199.763,337.477,193.101z"/>
	<path style="fill:#F74F5C;" d="M364.533,349.377c-10-9.999-42-30.399-71.398-30.399c0,20.424-16.71,37.133-37.133,37.133
		c-20.424,0-37.134-16.71-37.134-37.133c-29.398,0-61.399,20.4-71.398,30.399c-10,10-39.5,95.125-39.5,117.625h296.064
		c0-6.994-2.851-20.04-7.08-35C387.577,398.838,371.424,356.269,364.533,349.377z"/>
	<g>
		<path style="fill:#FFD278;" d="M293.134,307.348c31.3-17.794,41.019-58.604,43.556-92.432
			c-18.528-0.965-38.972-13.035-56.472-33.536c-23.662,26.5-69.28,40.351-103.797,44.853c3.814,31.166,14.571,65.268,42.446,81.115
			c16.625,9.371,32.996,9.029,37.134,9.029C270.901,316.376,283.122,313.04,293.134,307.348z"/>
		<path style="fill:#FFD278;" d="M218.868,307.348v0.925v10.705c0,20.424,16.71,37.133,37.134,37.133
			c20.423,0,37.133-16.71,37.133-37.133v-11.63c-21.023,11.952-51.994,12.12-73.31,0.522
			C219.713,307.808,218.868,307.335,218.868,307.348z"/>
	</g>
</g>
<path d="M436.001,0h-360c-16.542,0-30,13.458-30,30v452.002c0,16.542,13.458,30,30,30h360c16.542,0,29.999-13.458,29.999-30V30
	C466.001,13.458,452.544,0,436.001,0z M446.001,482.002c0,5.514-4.485,10-9.999,10h-360c-5.514,0-10-4.486-10-10V30
	c0-5.514,4.486-10,10-10h360c5.514,0,9.999,4.486,9.999,10V482.002z"/>
<path d="M421.001,35H91.003c-5.522,0-10,4.477-10,10v422.003c0,5.523,4.478,10,10,10h329.999c5.522,0,10-4.477,10-10V45
	C431.001,39.477,426.523,35,421.001,35z M411.001,55v391.46c-1.271-5.606-2.828-11.522-4.448-17.238
	c-0.024-0.086-0.046-0.173-0.073-0.259c-3.452-12.157-7.171-23.367-8.979-28.682c-4.975-14.621-17.46-49.539-25.896-57.975
	c-9.019-9.019-35.806-27.31-64.701-32.131c26.477-20.614,40.574-60.466,40.574-117.074c0-50.439-41.035-91.475-91.475-91.475
	s-91.476,41.035-91.476,91.475c0,56.608,14.097,96.461,40.574,117.074c-28.896,4.82-55.684,23.113-64.702,32.131
	c-8.436,8.436-20.92,43.353-25.896,57.975c-2.672,7.849-9.505,28.552-13.501,46.179V55H411.001z M184.527,193.101
	c0-39.411,32.063-71.475,71.476-71.475c39.411,0,71.475,32.063,71.475,71.475c0,3.325-0.053,6.691-0.164,10.079
	c-13.135-3.85-27.073-13.748-39.488-28.292c-1.874-2.196-4.606-3.475-7.494-3.507c-2.839-0.039-5.647,1.186-7.57,3.339
	c-19.359,21.681-56.149,34.531-87.442,40.031C184.762,207.47,184.527,200.192,184.527,193.101z M279.882,195.794
	c14.478,14.646,30.318,24.163,45.978,27.667c-4.678,41.02-20.789,79.744-64.362,82.729c-0.059,0.004-0.116,0.008-0.175,0.012
	c-0.735,0.049-1.482,0.083-2.233,0.112c-0.164,0.006-0.327,0.015-0.492,0.02c-0.855,0.027-1.719,0.042-2.595,0.042
	c-0.876,0-1.739-0.016-2.595-0.042c-0.165-0.005-0.328-0.014-0.492-0.02c-0.751-0.028-1.498-0.063-2.233-0.112
	c-0.059-0.003-0.116-0.008-0.175-0.012c-39.595-2.712-56.514-34.934-62.784-71.573C209.978,230.753,252.034,220.527,279.882,195.794
	z M248.691,326.118c0.188,0.013,0.375,0.024,0.561,0.037c0.883,0.057,1.771,0.102,2.667,0.136c0.268,0.01,0.535,0.022,0.804,0.031
	c1.085,0.033,2.175,0.055,3.278,0.055c1.104,0,2.193-0.022,3.278-0.055c0.269-0.008,0.535-0.02,0.803-0.031
	c0.896-0.034,1.786-0.08,2.67-0.137c0.186-0.012,0.372-0.023,0.558-0.036c6.932-0.485,13.464-1.672,19.586-3.543
	c-1.765,13.268-13.152,23.536-26.895,23.536s-25.131-10.269-26.895-23.537C235.229,324.445,241.76,325.632,248.691,326.118z
	 M210.099,329.638c4.847,20.87,23.581,36.473,45.903,36.473s41.057-15.604,45.902-36.473c23.288,3.322,47.314,18.568,55.516,26.767
	c2.707,2.977,11.131,20.774,21.385,51.021c1.691,4.986,3.277,9.871,4.741,14.577h-17.628c-5.522,0-10,4.477-10,10s4.478,10,10,10
	h23.398c1.492,5.689,2.666,10.76,3.472,15H119.215c2.228-11.724,7.299-29.858,13.983-49.577
	c10.254-30.246,18.678-48.043,21.343-50.977C162.779,348.211,186.809,332.961,210.099,329.638z"/>
<path d="M126.003,90h31.034c5.522,0,10-4.477,10-10s-4.478-10-10-10h-31.034c-5.522,0-10,4.477-10,10S120.479,90,126.003,90z"/>
<path d="M185.767,90h0.27c5.522,0,10-4.477,10-10s-4.478-10-10-10h-0.27c-5.522,0-10,4.477-10,10S180.245,90,185.767,90z"/>
<path d="M336.919,442.002h0.268c5.522,0,10-4.477,10-10s-4.478-10-10-10h-0.268c-5.523,0-10,4.477-10,10
	C326.919,437.525,331.396,442.002,336.919,442.002z"/>
<g>
</g>
<g>
</g>
<g>
</g>
<g>
</g>
<g>
</g>
<g>
</g>
<g>
</g>
<g>
</g>
<g>
</g>
<g>
</g>
<g>
</g>
<g>
</g>
<g>
</g>
<g>
</g>
<g>
</g>
</svg>
