<?xml version="1.0" encoding="iso-8859-1"?>
<!-- Generator: Adobe Illustrator 19.0.0, SVG Export Plug-In . SVG Version: 6.00 Build 0)  -->
<svg version="1.1" id="Capa_1" xmlns="http://www.w3.org/2000/svg" xmlns:xlink="http://www.w3.org/1999/xlink" x="0px" y="0px"
	 viewBox="0 0 512.001 512.001" style="enable-background:new 0 0 512.001 512.001;" xml:space="preserve">
<g>
	<path style="fill:#636A75;" d="M62.5,116V56H10v40c0,11,9,20,20,20h6.001H62.5z"/>
	<g>
		<path style="fill:#4AD194;" d="M36.001,116v60c0,11,9,20,20,20h35.5v-80H62.5C62.5,116,36.001,116,36.001,116z"/>
		<polygon style="fill:#4AD194;" points="91.501,116 91.501,196 192.502,196 192.502,116 173.501,116 		"/>
		<polygon style="fill:#4AD194;" points="192.502,116 192.502,196 420.502,196 420.502,116 338.501,116 319.501,116 		"/>
		<path style="fill:#4AD194;" d="M420.502,116v80h35.499c11.001,0,20-9,20-20v-60h-26.499C449.502,116,420.502,116,420.502,116z"/>
	</g>
	<path style="fill:#E1E6E9;" d="M420.502,196h-228H91.501H56.002v60.001c0,110,90.005,199.999,200,199.999
		c109.994,0,199.999-90.005,199.999-199.999V196H420.502L420.502,196z M256.001,266c33.138,0,60,26.863,60,60
		c0,24.214-14.344,45.079-34.999,54.559c-7.61,3.494-16.078,5.441-25.001,5.441s-17.39-1.948-25.001-5.441
		c-20.654-9.48-34.998-30.344-34.998-54.559C196.002,292.863,222.864,266,256.001,266z"/>
	<path style="fill:#636A75;" d="M316.001,326c0-33.137-26.862-60-60-60c-33.137,0-59.999,26.863-59.999,60
		c0,24.214,14.344,45.079,34.999,54.556c7.61,3.497,16.077,5.444,25,5.444s17.391-1.948,25-5.444
		C301.657,371.079,316.001,350.214,316.001,326L316.001,326z M256.001,301c13.808,0,25,11.193,25,25s-11.192,25-25,25
		c-13.807,0-25-11.193-25-25S242.194,301,256.001,301z"/>
	<circle style="fill:#BCCBD3;" cx="256" cy="325.999" r="25"/>
	<g>
		<polygon style="fill:#636A75;" points="192.502,116 319.501,116 338.501,116 338.501,56 173.501,56 173.501,116 		"/>
		<polygon style="fill:#636A75;" points="173.501,116 173.501,56 62.5,56 62.5,116 91.501,116 		"/>
		<polygon style="fill:#636A75;" points="338.501,56 338.501,116 346.143,116 397.219,116 437.839,116 449.502,116 449.502,56 		"/>
		<path style="fill:#636A75;" d="M449.502,56v60h14h12.499h6.001c11,0,20-9,20-20V56H449.502z"/>
	</g>
</g>
<path d="M502.002,46H10C4.478,46,0,50.477,0,56v40c0,15.186,11.344,27.763,26.001,29.726V176c0,13.037,8.361,24.152,20.001,28.28
	v51.721c0,55.872,21.905,108.546,61.681,148.321c36.516,36.514,83.904,57.953,134.654,61.224c0.372,0.024,0.744,0.046,1.116,0.069
	c1.673,0.099,3.349,0.178,5.027,0.237c0.472,0.017,0.942,0.038,1.414,0.052c2.031,0.058,4.066,0.096,6.107,0.096
	c2.041,0,4.076-0.038,6.107-0.096c0.472-0.014,0.943-0.035,1.416-0.052c1.678-0.06,3.352-0.138,5.022-0.237
	c0.374-0.023,0.748-0.044,1.122-0.069c50.748-3.272,98.137-24.711,134.651-61.227C444.094,364.544,466,311.87,466,256.001V204.28
	c11.64-4.128,20-15.243,20-28.28v-50.274c14.657-1.962,26.001-14.54,26.001-29.726V56C512.002,50.477,507.525,46,502.002,46z
	 M348.501,106V66h91.001v40H348.501z M202.502,186v-60h106.999v11.034c0,5.523,4.478,10,10,10s10-4.477,10-10V126h81.001v60H202.502
	z M101.501,186v-60h81.001v60H101.501z M183.501,106V66h145v40H183.501z M163.501,106H72.5V66h91.001V106z M20,96V66h32.5v40H30l0,0
	C24.486,106,20,101.514,20,96z M46.001,126h35.5v60H56.002h-0.001c-5.514,0-10-4.486-10-10V126z M256.001,446
	c-1.454,0-2.902-0.022-4.349-0.055c-0.557-0.013-1.113-0.032-1.67-0.05c-0.855-0.027-1.708-0.06-2.561-0.098
	c-0.715-0.032-1.431-0.066-2.146-0.107c-0.606-0.034-1.212-0.076-1.817-0.115c-0.819-0.054-1.639-0.105-2.457-0.17v-51.012
	c0.23,0.05,0.465,0.084,0.696,0.132c0.345,0.072,0.694,0.131,1.041,0.198c0.807,0.154,1.611,0.308,2.424,0.434
	c0.515,0.081,1.036,0.139,1.555,0.208c0.65,0.086,1.298,0.181,1.951,0.249c0.943,0.099,1.896,0.166,2.85,0.227
	c0.247,0.015,0.493,0.043,0.74,0.056c1.24,0.066,2.487,0.103,3.743,0.103c1.257,0,2.506-0.037,3.747-0.103
	c0.225-0.012,0.447-0.038,0.672-0.051c0.978-0.061,1.954-0.131,2.921-0.233c0.635-0.065,1.265-0.159,1.895-0.242
	c0.537-0.071,1.077-0.132,1.61-0.215c0.805-0.125,1.603-0.277,2.4-0.43c0.353-0.068,0.71-0.128,1.061-0.201
	c0.229-0.048,0.463-0.081,0.692-0.131v51.012c-0.821,0.065-1.643,0.117-2.466,0.171c-0.602,0.039-1.202,0.081-1.806,0.115
	c-0.717,0.041-1.434,0.074-2.15,0.107c-0.852,0.038-1.704,0.071-2.559,0.098c-0.557,0.018-1.113,0.037-1.669,0.05
	c-1.447,0.033-2.896,0.055-4.35,0.055h0.002V446z M275.671,371.962c-0.136,0.058-0.271,0.116-0.407,0.173
	c-0.622,0.261-1.251,0.509-1.887,0.746c-0.146,0.054-0.292,0.107-0.439,0.16c-0.64,0.231-1.284,0.451-1.936,0.656
	c-0.136,0.043-0.271,0.083-0.407,0.124c-0.664,0.203-1.332,0.396-2.008,0.572c-0.126,0.033-0.254,0.061-0.38,0.094
	c-0.683,0.171-1.368,0.333-2.062,0.477c-0.138,0.028-0.277,0.052-0.415,0.079c-0.681,0.135-1.364,0.261-2.054,0.368
	c-0.192,0.029-0.386,0.05-0.577,0.077c-0.64,0.091-1.28,0.179-1.928,0.246c-0.34,0.035-0.683,0.054-1.023,0.082
	c-0.509,0.042-1.017,0.09-1.53,0.117c-0.869,0.044-1.741,0.069-2.618,0.069s-1.749-0.025-2.618-0.069
	c-0.514-0.027-1.021-0.075-1.532-0.117c-0.34-0.027-0.682-0.046-1.021-0.081c-0.646-0.066-1.285-0.154-1.924-0.245
	c-0.193-0.027-0.389-0.048-0.582-0.078c-0.688-0.107-1.37-0.232-2.049-0.367c-0.141-0.028-0.281-0.051-0.421-0.08
	c-0.691-0.144-1.376-0.305-2.057-0.476c-0.128-0.032-0.257-0.061-0.385-0.095c-0.675-0.175-1.342-0.368-2.005-0.571
	c-0.137-0.042-0.273-0.082-0.41-0.125c-0.65-0.206-1.295-0.425-1.935-0.656c-0.146-0.053-0.292-0.105-0.439-0.16
	c-0.636-0.237-1.267-0.485-1.891-0.747c-0.133-0.056-0.265-0.113-0.397-0.17c-17.82-7.653-30.335-25.373-30.335-45.964
	c0-27.57,22.43-50,49.999-50c27.57,0,50,22.43,50,50C306.001,346.589,293.488,364.308,275.671,371.962z M446.001,256.001
	c0,92.811-66.896,170.281-155,186.755v-56.174c20.901-12.122,35-34.73,35-60.582c0-38.598-31.401-70-70-70
	c-38.598,0-69.999,31.402-69.999,70c0,25.853,14.098,48.459,34.999,60.582v56.173C132.897,426.281,66.002,348.811,66.002,256
	v-50.001h379.999V256.001z M466.001,176c0,5.514-4.486,10-10,10h-25.499v-60h35.499V176z M492.002,96c0,5.514-4.486,10-10,10l0,0
	h-22.5V66h32.5V96z"/>
<path d="M91.002,266.471c5.522,0,10-4.477,10-10l-0.001-0.47c0-5.523-4.478-10-10-10s-10,4.477-10,10l0.001,0.47
	C81.002,261.994,85.479,266.471,91.002,266.471z"/>
<path d="M103.931,285.947c-0.095-0.484-0.189-0.969-0.279-1.455c-1.013-5.43-6.238-9.011-11.664-7.998
	c-5.429,1.012-9.01,6.234-7.998,11.664c0.103,0.551,0.21,1.102,0.32,1.663c2.93,14.784,7.795,29.166,14.463,42.747
	c1.738,3.54,5.29,5.595,8.984,5.595c1.479,0,2.981-0.33,4.399-1.026c4.958-2.434,7.003-8.426,4.569-13.384
	C110.825,311.735,106.52,299.011,103.931,285.947z"/>
<path d="M256.001,291c-19.299,0-35,15.701-35,35s15.701,35,35,35c19.3,0,35.001-15.701,35.001-35S275.301,291,256.001,291z
	 M256.001,341c-8.271,0-15-6.729-15-15s6.729-15,15-15s15.001,6.729,15.001,15S264.272,341,256.001,341z"/>
<path d="M319.501,155.765c-5.522,0-10,4.477-10,10v0.27c0,5.523,4.478,10,10,10s10-4.477,10-10v-0.27
	C329.501,160.242,325.023,155.765,319.501,155.765z"/>
<g>
</g>
<g>
</g>
<g>
</g>
<g>
</g>
<g>
</g>
<g>
</g>
<g>
</g>
<g>
</g>
<g>
</g>
<g>
</g>
<g>
</g>
<g>
</g>
<g>
</g>
<g>
</g>
<g>
</g>
</svg>
