<?xml version="1.0" encoding="iso-8859-1"?>
<!-- Generator: Adobe Illustrator 19.0.0, SVG Export Plug-In . SVG Version: 6.00 Build 0)  -->
<svg version="1.1" id="Capa_1" xmlns="http://www.w3.org/2000/svg" xmlns:xlink="http://www.w3.org/1999/xlink" x="0px" y="0px"
	 viewBox="0 0 512.001 512.001" style="enable-background:new 0 0 512.001 512.001;" xml:space="preserve">
<g>
	<path style="fill:#E1E6E9;" d="M323.751,256c0-8.25,6.749-15.001,15-15.001h75V186h-75c-8.251,0-15-6.75-15-15s6.749-15,15-15h90
		l0.386,0.004l0.383,0.015l0.381,0.024l0.379,0.033l0.375,0.044l0.373,0.054l0.37,0.061l0.366,0.07l0.364,0.08l0.36,0.088
		l0.357,0.098l0.353,0.106l0.35,0.115l0.346,0.123l0.342,0.13l0.339,0.14l0.334,0.146l0.33,0.154l0.325,0.162l0.321,0.17
		l0.316,0.178l0.312,0.185l0.307,0.192l0.303,0.199l0.297,0.205l0.291,0.214l0.286,0.22l0.281,0.227l0.274,0.232l0.27,0.24
		l0.265,0.246l0.258,0.252l0.252,0.258l0.245,0.264l0.24,0.27l0.233,0.275l0.226,0.28l0.22,0.286l0.214,0.292l0.205,0.297
		l0.199,0.302l0.192,0.307l0.185,0.313l0.178,0.316l0.17,0.32l0.162,0.326l0.155,0.33l0.147,0.334l0.139,0.338l0.131,0.342
		l0.122,0.346l0.115,0.35l0.105,0.354l0.098,0.357l0.088,0.361l0.08,0.363l0.07,0.367l0.061,0.369l0.053,0.373l0.043,0.375
		l0.034,0.379l0.024,0.381l0.015,0.383l0.005,0.387v85v85l-0.005,0.385l-0.015,0.383l-0.024,0.381l-0.034,0.379l-0.043,0.375
		l-0.053,0.373l-0.061,0.37l-0.07,0.366l-0.08,0.365l-0.088,0.359l-0.098,0.358l-0.105,0.353l-0.115,0.35l-0.122,0.346l-0.131,0.342
		l-0.139,0.34l-0.147,0.334l-0.155,0.329l-0.162,0.325l-0.17,0.321l-0.178,0.316l-0.185,0.312l-0.192,0.307l-0.199,0.303
		l-0.206,0.297l-0.213,0.291l-0.22,0.287l-0.226,0.279l-0.233,0.276l-0.24,0.27l-0.245,0.264l-0.252,0.258l-0.258,0.252
		l-0.265,0.245l-0.27,0.24l-0.274,0.232l-0.281,0.227l-0.286,0.221l-0.292,0.213l-0.296,0.205l-0.303,0.199l-0.307,0.192
		l-0.312,0.185l-0.316,0.178l-0.321,0.17l-0.325,0.162l-0.33,0.154l-0.334,0.147l-0.339,0.139l-0.342,0.131l-0.346,0.122
		l-0.35,0.115l-0.353,0.105l-0.357,0.098l-0.36,0.088l-0.364,0.08l-0.366,0.07l-0.37,0.061l-0.373,0.053l-0.375,0.043l-0.379,0.034
		l-0.381,0.024l-0.383,0.015l-0.386,0.003h-90c-8.251,0-15-6.75-15-15s6.749-15,15-15h75v-54.998h-75
		C330.5,271,323.751,264.25,323.751,256L323.751,256z M236,212c0-11.046,8.955-19.999,20-19.999c11.046,0,20,8.953,20,19.999
		s-8.954,20-20,20C244.955,232,236,223.045,236,212L236,212z M256,280c11.046,0,20,8.953,20,20c0,11.045-8.954,19.999-20,19.999
		c-11.045,0-20-8.954-20-19.999C236,288.954,244.955,280,256,280L256,280z M482.001,71.498H30c-11,0-20,9-20,20V420.5
		c0,11,9,20,20,20h452.001c11.001,0,20-9,20-20V91.498C502.001,80.498,493.002,71.498,482.001,71.498L482.001,71.498z M83.25,159
		c8.25,0,15,6.749,15,15v67h60v-70c0-8.25,6.75-14.999,15-14.999s15,6.749,15,14.999v85.001v85c0,8.25-6.75,14.999-15,14.999
		s-15-6.749-15-14.999v-70h-75l-0.386-0.006l-0.384-0.014l-0.381-0.025l-0.378-0.033l-0.376-0.043l-0.373-0.053l-0.369-0.063
		l-0.367-0.07l-0.363-0.08l-0.361-0.088l-0.356-0.098l-0.353-0.105l-0.35-0.115l-0.347-0.121l-0.342-0.131l-0.338-0.139
		l-0.334-0.147l-0.33-0.155l-0.326-0.162l-0.32-0.17l-0.316-0.178l-0.313-0.184l-0.307-0.193l-0.302-0.198l-0.297-0.206
		l-0.291-0.213l-0.286-0.221l-0.281-0.227l-0.275-0.232l-0.27-0.24l-0.264-0.244l-0.258-0.252l-0.252-0.258l-0.246-0.265
		l-0.239-0.27l-0.233-0.275l-0.227-0.281l-0.219-0.287l-0.214-0.291l-0.206-0.297l-0.199-0.303l-0.191-0.307l-0.186-0.311
		l-0.178-0.316l-0.17-0.322l-0.162-0.325l-0.154-0.329l-0.146-0.334l-0.139-0.34l-0.131-0.342l-0.123-0.346l-0.114-0.35
		l-0.106-0.353l-0.097-0.358l-0.089-0.359l-0.08-0.364l-0.071-0.366l-0.061-0.371l-0.053-0.373l-0.043-0.375l-0.035-0.379
		l-0.023-0.381l-0.016-0.383l-0.004-0.385v-82.001C68.25,165.748,75,159,83.25,159z"/>
	<g>
		<path style="fill:#4AD194;" d="M188.25,256v-85.001c0-8.25-6.75-14.999-15-14.999s-15,6.749-15,14.999v70h-60v-67
			c0-8.251-6.75-15-15-15s-15,6.749-15,15V256l0.004,0.385l0.016,0.383l0.023,0.381l0.035,0.379l0.043,0.375l0.053,0.373
			l0.061,0.371l0.071,0.366l0.08,0.364l0.089,0.359l0.097,0.358l0.106,0.353l0.114,0.35l0.123,0.346l0.131,0.342l0.139,0.34
			l0.146,0.334l0.154,0.329l0.162,0.325l0.17,0.322l0.178,0.316l0.186,0.311l0.191,0.307l0.199,0.303l0.206,0.297l0.214,0.291
			l0.219,0.287l0.227,0.281l0.233,0.275l0.239,0.27l0.246,0.265l0.252,0.258l0.258,0.252l0.264,0.244l0.27,0.24l0.275,0.232
			l0.281,0.227l0.286,0.221l0.291,0.213l0.297,0.206l0.302,0.198l0.307,0.193l0.313,0.184l0.316,0.178l0.32,0.17l0.326,0.162
			l0.33,0.155l0.334,0.147l0.338,0.139l0.342,0.131l0.347,0.121l0.35,0.115l0.353,0.105l0.356,0.098l0.361,0.088l0.363,0.08
			l0.367,0.07l0.369,0.063l0.373,0.053l0.376,0.043l0.378,0.033l0.381,0.025l0.384,0.014l0.386,0.006h75v70
			c0,8.25,6.75,14.999,15,14.999s15-6.749,15-14.999V256H188.25z"/>
		<circle style="fill:#4AD194;" cx="256" cy="211.999" r="20"/>
		<circle style="fill:#4AD194;" cx="256" cy="299.999" r="20"/>
		<path style="fill:#4AD194;" d="M323.751,256c0,8.25,6.749,15,15,15h75v54.999h-75c-8.251,0-15,6.751-15,15.001s6.749,15,15,15h90
			l0.386-0.005l0.383-0.015l0.381-0.024l0.379-0.034l0.375-0.043l0.373-0.053l0.37-0.061l0.366-0.07l0.364-0.08l0.36-0.088
			l0.357-0.098l0.353-0.105l0.35-0.115l0.346-0.122l0.342-0.131l0.339-0.139l0.334-0.147l0.33-0.154l0.325-0.162l0.321-0.17
			l0.316-0.178l0.312-0.185l0.307-0.192l0.303-0.199l0.296-0.205l0.292-0.213l0.286-0.221l0.281-0.227l0.274-0.232l0.27-0.24
			l0.265-0.245l0.258-0.252l0.252-0.258l0.245-0.264l0.24-0.27l0.233-0.276l0.226-0.279l0.22-0.287l0.213-0.291l0.206-0.297
			l0.199-0.303l0.192-0.307l0.185-0.312l0.178-0.316l0.17-0.321l0.162-0.325l0.155-0.329l0.147-0.334l0.139-0.34l0.131-0.342
			l0.122-0.346l0.115-0.35l0.105-0.353l0.098-0.358l0.088-0.359l0.08-0.365l0.07-0.366l0.061-0.37l0.053-0.373l0.043-0.375
			l0.034-0.379l0.024-0.381l0.015-0.383l0.005-0.385v-85v-85l-0.005-0.387l-0.015-0.383l-0.024-0.381l-0.034-0.379l-0.043-0.375
			l-0.053-0.373l-0.061-0.369l-0.07-0.367l-0.08-0.363l-0.088-0.361l-0.098-0.357l-0.105-0.354l-0.115-0.35l-0.122-0.346
			l-0.131-0.342l-0.139-0.338l-0.147-0.334l-0.155-0.33l-0.162-0.326l-0.17-0.32l-0.178-0.316l-0.185-0.313l-0.192-0.307
			l-0.199-0.302l-0.205-0.297l-0.214-0.292l-0.22-0.286l-0.226-0.28l-0.233-0.275l-0.24-0.27l-0.245-0.264l-0.252-0.258
			l-0.258-0.252l-0.265-0.246l-0.27-0.24l-0.274-0.232l-0.281-0.227l-0.286-0.22l-0.291-0.214l-0.297-0.205l-0.303-0.199
			l-0.307-0.192l-0.312-0.185l-0.316-0.178l-0.321-0.17l-0.325-0.162l-0.33-0.154l-0.334-0.146l-0.339-0.14l-0.342-0.13
			l-0.346-0.123l-0.35-0.115l-0.353-0.106l-0.357-0.098l-0.36-0.088l-0.364-0.08l-0.366-0.07l-0.37-0.061l-0.373-0.054l-0.375-0.044
			l-0.379-0.033l-0.381-0.024l-0.383-0.015l-0.386-0.004h-90c-8.251,0-15,6.75-15,15s6.749,15,15,15h75v54.999h-75
			C330.5,241,323.751,247.75,323.751,256z"/>
	</g>
</g>
<path d="M482.001,61.499H30c-16.542,0-30,13.458-30,30v329.002c0,16.542,13.458,30,30,30h452.001c16.542,0,30-13.458,30-30V91.498
	C512.001,74.957,498.543,61.499,482.001,61.499z M492.001,420.5c0,5.514-4.486,10-10,10H30c-5.514,0-10-4.486-10-10V91.498
	c0-5.514,4.486-10,10-10h452.001c5.514,0,10,4.486,10,10V420.5z"/>
<path d="M173.25,146c-13.785,0-25,11.214-25,24.999v60h-40v-57c0-13.785-11.215-25-25-25s-25,11.215-25,25V256l0.005,0.535
	c0.001,0.051,0.002,0.102,0.003,0.152c0.006,0.208,0.015,0.414,0.021,0.539c0.01,0.209,0.023,0.419,0.042,0.69
	c0.018,0.231,0.039,0.46,0.057,0.621c0.02,0.202,0.044,0.405,0.07,0.616c0.026,0.213,0.057,0.427,0.09,0.639
	c0.029,0.193,0.061,0.383,0.094,0.574c0.01,0.055,0.02,0.113,0.031,0.169l0.101,0.516c0.042,0.202,0.086,0.403,0.137,0.621
	c0.047,0.202,0.097,0.403,0.13,0.526c0.055,0.218,0.114,0.435,0.177,0.655c0.052,0.183,0.106,0.362,0.184,0.615
	c0.058,0.181,0.116,0.362,0.169,0.516c0.073,0.217,0.149,0.434,0.229,0.646c0.064,0.173,0.129,0.344,0.196,0.514
	c0.076,0.192,0.153,0.38,0.229,0.561c0.085,0.201,0.173,0.402,0.265,0.603c0.007,0.015,0.051,0.11,0.058,0.126l0.187,0.398
	c0.084,0.173,0.17,0.344,0.257,0.515l0.236,0.451c0.034,0.065,0.069,0.129,0.104,0.193l0.287,0.507
	c0.096,0.163,0.193,0.326,0.258,0.433c0.101,0.165,0.203,0.329,0.346,0.553c0.105,0.164,0.213,0.328,0.323,0.49
	c0.113,0.167,0.229,0.332,0.336,0.483c0.115,0.162,0.233,0.324,0.353,0.484c0.107,0.145,0.217,0.288,0.329,0.432
	c0.021,0.027,0.042,0.053,0.063,0.08l0.306,0.381c0.035,0.042,0.07,0.085,0.105,0.127l0.314,0.37
	c0.024,0.027,0.047,0.054,0.071,0.081l0.279,0.314c0.023,0.027,0.047,0.053,0.071,0.079l0.406,0.435
	c0.135,0.142,0.273,0.283,0.416,0.425c0.137,0.137,0.276,0.273,0.463,0.452c0.128,0.122,0.259,0.242,0.39,0.361
	c0.146,0.134,0.297,0.267,0.486,0.432c0.134,0.116,0.27,0.23,0.406,0.344c0.179,0.149,0.352,0.288,0.465,0.375
	c0.166,0.131,0.335,0.262,0.505,0.39c0.17,0.127,0.338,0.25,0.437,0.319c0.189,0.136,0.38,0.269,0.536,0.373
	c0.163,0.11,0.325,0.218,0.489,0.323l0.457,0.288c0.032,0.02,0.064,0.039,0.096,0.059c0.166,0.1,0.332,0.198,0.469,0.275
	c0.18,0.104,0.363,0.208,0.546,0.308c0.188,0.103,0.381,0.205,0.599,0.315l0.487,0.242c0.196,0.094,0.392,0.187,0.56,0.262
	l0.46,0.204c0.036,0.016,0.072,0.031,0.108,0.046c0.175,0.074,0.354,0.147,0.53,0.217l0.509,0.195
	c0.033,0.012,0.065,0.024,0.098,0.037c0.174,0.063,0.348,0.124,0.522,0.183c0.192,0.067,0.384,0.129,0.576,0.19
	c0.222,0.07,0.446,0.137,0.594,0.178c0.205,0.059,0.411,0.115,0.619,0.169c0.225,0.059,0.448,0.113,0.601,0.148
	c0.197,0.046,0.393,0.089,0.603,0.133c0.228,0.048,0.456,0.091,0.608,0.118c0.199,0.036,0.398,0.07,0.598,0.102
	c0.033,0.005,0.066,0.01,0.099,0.015l1.138,0.146c0.051,0.006,0.103,0.011,0.154,0.016l1.07,0.082
	c0.053,0.003,0.106,0.006,0.159,0.009l0.535,0.02c0.229,0.007,0.46,0.01,0.691,0.01h65v60c0,13.785,11.215,24.999,25,24.999
	s25-11.214,25-24.999V171C198.25,157.215,187.035,146,173.25,146z M78.433,257.336l-0.117-0.526
	c-0.005-0.034-0.018-0.123-0.023-0.157l-0.038-0.423L78.25,174c0-2.71,2.29-5,5-5s5,2.29,5,5v67c0,5.523,4.477,10,10,10h60
	c5.523,0,10-4.477,10-10v-70c0-2.71,2.29-4.999,5-4.999s5,2.289,5,4.999v170.001c0,2.71-2.29,4.999-5,4.999s-5-2.289-5-4.999v-70
	c0-5.523-4.477-10-10-10l-75.081-0.002l-0.175-0.006l-0.594-0.066c-0.026-0.005-0.086-0.016-0.113-0.021l-0.137-0.03
	c-0.025-0.006-0.076-0.018-0.101-0.023l-0.115-0.031c-0.025-0.007-0.13-0.038-0.155-0.045c-0.047-0.017-0.094-0.033-0.141-0.049
	l-0.666-0.288c-0.053-0.03-0.044-0.024-0.098-0.053l-0.222-0.13c-0.012-0.008-0.094-0.06-0.106-0.069L80.278,260l-0.114-0.087
	c-0.031-0.026-0.063-0.053-0.095-0.079l-0.107-0.091c-0.029-0.027-0.059-0.055-0.089-0.082l-0.583-0.636
	c-0.023-0.031-0.046-0.063-0.07-0.093l-0.569-0.984 M78.65,257.948c-0.007-0.018-0.083-0.21-0.091-0.228
	c-0.015-0.041-0.032-0.091-0.048-0.132l-0.079-0.251"/>
<path d="M429.442,365.99c0.206-0.006,0.412-0.014,0.614-0.024c0.204-0.011,0.409-0.024,0.61-0.039
	c0.207-0.016,0.413-0.035,0.623-0.056c0.228-0.023,0.456-0.049,0.605-0.069c0.206-0.026,0.409-0.055,0.625-0.087
	c0.199-0.03,0.4-0.064,0.611-0.101c0.229-0.04,0.46-0.085,0.668-0.128l0.55-0.121c0.226-0.051,0.453-0.107,0.678-0.166l0.523-0.143
	c0.199-0.056,0.399-0.116,0.668-0.199c0.198-0.063,0.394-0.127,0.542-0.178c0.189-0.064,0.377-0.13,0.565-0.2
	c0.202-0.073,0.406-0.151,0.66-0.252c0.172-0.069,0.342-0.138,0.51-0.21c0.2-0.085,0.398-0.172,0.53-0.233
	c0.187-0.084,0.374-0.172,0.589-0.275c0.163-0.08,0.328-0.162,0.488-0.243c0.203-0.103,0.406-0.211,0.608-0.322
	c0.17-0.094,0.339-0.188,0.509-0.287c0.176-0.102,0.351-0.205,0.522-0.311c0.166-0.102,0.328-0.203,0.491-0.308
	c0.172-0.11,0.336-0.219,0.438-0.289c0.131-0.087,0.261-0.177,0.446-0.307c0.049-0.034,0.099-0.069,0.148-0.104l0.902-0.677
	c0.154-0.121,0.307-0.245,0.46-0.37c0.165-0.136,0.33-0.275,0.5-0.424c0.141-0.123,0.278-0.245,0.414-0.368
	c0.154-0.139,0.306-0.28,0.455-0.422c0.142-0.136,0.283-0.273,0.421-0.412c0.14-0.139,0.277-0.281,0.414-0.423
	c0.142-0.148,0.282-0.299,0.419-0.452c0.138-0.15,0.271-0.301,0.38-0.427c0.139-0.16,0.277-0.322,0.412-0.488
	c0.126-0.152,0.251-0.307,0.373-0.462c0.122-0.155,0.242-0.312,0.36-0.47c0.107-0.143,0.213-0.287,0.317-0.432
	c0.022-0.031,0.046-0.063,0.067-0.095c0.116-0.165,0.232-0.331,0.294-0.426c0.127-0.187,0.25-0.374,0.334-0.506
	c0.106-0.164,0.209-0.328,0.312-0.496c0.107-0.175,0.21-0.349,0.311-0.524c0.109-0.188,0.216-0.378,0.286-0.508
	c0.111-0.201,0.218-0.404,0.288-0.542c0.105-0.203,0.207-0.407,0.277-0.555c0.094-0.194,0.188-0.391,0.277-0.59l0.243-0.555
	c0.081-0.19,0.157-0.378,0.223-0.545c0.079-0.2,0.156-0.399,0.22-0.577c0.071-0.193,0.141-0.39,0.19-0.537
	c0.067-0.195,0.132-0.391,0.217-0.663c0.06-0.196,0.121-0.395,0.185-0.623l0.154-0.57c0.046-0.181,0.09-0.364,0.143-0.588
	c0.044-0.189,0.086-0.382,0.121-0.549c0.047-0.226,0.091-0.455,0.132-0.685c0.036-0.206,0.071-0.414,0.101-0.613l0.077-0.546
	c0.03-0.227,0.056-0.454,0.081-0.697c0.02-0.203,0.039-0.402,0.054-0.607c0.016-0.203,0.028-0.405,0.039-0.608
	c0.011-0.205,0.019-0.41,0.025-0.619c0.007-0.23,0.009-0.46,0.009-0.689v-170c0-0.23-0.003-0.458-0.009-0.691
	c-0.006-0.206-0.014-0.412-0.025-0.616c-0.011-0.203-0.023-0.406-0.039-0.611c-0.016-0.203-0.034-0.402-0.056-0.621
	c-0.023-0.227-0.048-0.454-0.079-0.681l-0.078-0.549c-0.03-0.198-0.064-0.399-0.101-0.613c-0.036-0.202-0.076-0.406-0.129-0.669
	c-0.039-0.189-0.081-0.378-0.133-0.602c-0.043-0.184-0.087-0.367-0.152-0.621l-0.149-0.548c-0.054-0.19-0.112-0.383-0.193-0.646
	c-0.06-0.189-0.122-0.376-0.178-0.541c-0.063-0.186-0.129-0.373-0.197-0.559c-0.074-0.204-0.151-0.403-0.231-0.605
	c-0.08-0.201-0.162-0.402-0.222-0.541c-0.075-0.178-0.151-0.353-0.258-0.59c-0.08-0.175-0.164-0.351-0.264-0.561
	c-0.089-0.184-0.181-0.369-0.242-0.486c-0.099-0.193-0.2-0.386-0.305-0.576c-0.098-0.182-0.199-0.36-0.301-0.536l-0.277-0.469
	c-0.113-0.187-0.227-0.37-0.346-0.553c-0.105-0.165-0.213-0.329-0.324-0.492c-0.098-0.146-0.202-0.294-0.335-0.482
	c-0.126-0.177-0.255-0.354-0.347-0.476c-0.108-0.146-0.221-0.292-0.336-0.44c-0.02-0.027-0.041-0.053-0.063-0.08
	c-0.111-0.141-0.226-0.282-0.34-0.421c-0.136-0.166-0.272-0.326-0.384-0.455c-0.135-0.156-0.271-0.31-0.409-0.461
	c-0.138-0.153-0.277-0.303-0.419-0.45c-0.137-0.144-0.275-0.286-0.415-0.424c-0.139-0.14-0.279-0.276-0.42-0.411
	c-0.146-0.14-0.292-0.277-0.442-0.412c-0.138-0.126-0.279-0.251-0.438-0.389c-0.161-0.14-0.325-0.279-0.492-0.416
	c-0.151-0.124-0.304-0.248-0.458-0.369l-0.466-0.357c-0.157-0.118-0.314-0.233-0.49-0.358c-0.158-0.112-0.318-0.224-0.479-0.332
	c-0.165-0.112-0.332-0.222-0.499-0.329c-0.162-0.104-0.323-0.205-0.489-0.307c-0.174-0.107-0.348-0.209-0.527-0.313
	c-0.167-0.097-0.335-0.191-0.507-0.285c-0.201-0.111-0.403-0.218-0.605-0.321c-0.162-0.082-0.326-0.164-0.519-0.258
	c-0.184-0.089-0.37-0.176-0.556-0.26c-0.176-0.08-0.353-0.158-0.533-0.235c-0.169-0.072-0.338-0.141-0.53-0.218
	c-0.032-0.013-0.137-0.054-0.168-0.066c-0.158-0.062-0.316-0.122-0.479-0.182c-0.186-0.067-0.372-0.133-0.581-0.204l-0.519-0.17
	c-0.043-0.014-0.178-0.055-0.222-0.068l-0.969-0.274c-0.056-0.015-0.206-0.052-0.262-0.065l-1.022-0.232
	c-0.202-0.041-0.408-0.081-0.623-0.119c-0.198-0.034-0.397-0.068-0.597-0.097c-0.182-0.028-0.366-0.054-0.552-0.079
	c-0.2-0.026-0.399-0.049-0.603-0.071c-0.054-0.006-0.108-0.012-0.162-0.017l-0.537-0.047c-0.203-0.016-0.407-0.028-0.613-0.04
	c-0.203-0.011-0.408-0.018-0.691-0.026c-0.205-0.004-0.409-0.006-0.614-0.006h-90c-13.785,0-25,11.215-25,25s11.215,25,25,25h65
	v34.999h-65c-13.785,0-25,11.215-25,25.001c0,13.785,11.215,25,25,25h65v35h-65c-13.785,0-25,11.215-25,25.001
	c0,13.785,11.215,25,25,25h90C428.981,365.999,429.21,365.997,429.442,365.99z M430.362,166.27c0,0,0.193,0.073,0.234,0.088
	c0.043,0.019,0.09,0.039,0.133,0.057c0.044,0.02,0.092,0.043,0.136,0.063l0.482,0.263c0.039,0.025,0.077,0.049,0.115,0.074
	c0.038,0.026,0.06,0.041,0.098,0.066l0.438,0.337c0.056,0.052,0.083,0.077,0.14,0.127c0.028,0.027,0.067,0.065,0.096,0.091
	c0.027,0.028,0.115,0.117,0.142,0.144c0.038,0.042,0.138,0.156,0.177,0.197c0.022,0.027,0.093,0.114,0.116,0.142l0.073,0.094
	c0.013,0.017,0.08,0.107,0.093,0.124c0.04,0.062,0.059,0.09,0.101,0.151c0.024,0.038,0.05,0.078,0.074,0.115l0.111,0.188
	c0.023,0.043,0.076,0.143,0.099,0.186l0.072,0.147c0.009,0.02,0.076,0.174,0.085,0.193l0.119,0.317l0.254,1.564l-0.001,170.08
	l-0.099,0.91l-0.427,1.221c-0.011,0.021-0.041,0.079-0.052,0.101c-0.011,0.021-0.06,0.107-0.071,0.127l-0.13,0.214
	c-0.012,0.019-0.052,0.08-0.064,0.099c-0.017,0.024-0.062,0.088-0.078,0.113c-0.003,0.004-0.092,0.125-0.096,0.13
	c0,0-0.024,0.032-0.049,0.064l-0.065,0.081c-0.023,0.027-0.057,0.068-0.079,0.096l-0.087,0.099
	c-0.014,0.015-0.075,0.081-0.088,0.096l-0.197,0.197c-0.042,0.037-0.073,0.065-0.115,0.103l-0.368,0.301
	c-0.005,0.003-0.103,0.073-0.108,0.077c-0.025,0.017-0.088,0.059-0.114,0.076c-0.039,0.024-0.049,0.031-0.087,0.056l-0.581,0.314
	c-0.022,0.01-0.113,0.05-0.135,0.06l-1.246,0.341c-0.026,0.003-0.113,0.013-0.139,0.016l-0.143,0.013l-90.38,0.016
	c-2.711,0-5-2.289-5-5s2.289-5.001,5-5.001h75c5.523,0,10-4.477,10-10V271c0-5.523-4.477-10-10-10h-75c-2.711,0-5-2.29-5-5
	c0-2.711,2.289-5.001,5-5.001h75c5.523,0,10-4.477,10-10V186c0-5.523-4.477-10-10-10h-75c-2.711,0-5-2.29-5-5s2.289-5,5-5h90h0.081
	l0.628,0.051c0.054,0.009,0.055,0.009,0.11,0.017L430.362,166.27"/>
<path d="M256,182c-16.542,0-30,13.458-30,29.999c0,16.542,13.458,30,30,30s30-13.458,30-30C286,195.458,272.542,182,256,182z
	 M256,222c-5.514,0-10-4.486-10-10s4.486-9.999,10-9.999s10,4.485,10,9.999S261.514,222,256,222z"/>
<path d="M256,270c-16.542,0-30,13.458-30,30s13.458,29.999,30,29.999s30-13.457,30-29.999C286,283.459,272.542,270,256,270z
	 M256,309.999c-5.514,0-10-4.485-10-9.999s4.486-10,10-10s10,4.486,10,10S261.514,309.999,256,309.999z"/>
<path d="M86.034,106.501c0-5.523-4.477-10-10-10H45c-5.523,0-10,4.477-10,10s4.477,10,10,10h31.034
	C81.557,116.501,86.034,112.023,86.034,106.501z"/>
<path d="M104.765,116.501h0.27c5.523,0,10-4.477,10-10s-4.477-10-10-10h-0.27c-5.523,0-10,4.477-10,10
	C94.765,112.023,99.242,116.501,104.765,116.501z"/>
<path d="M407.235,395.499h-0.269c-5.523,0-10,4.477-10,10s4.477,10,10,10h0.269c5.523,0,10-4.477,10-10
	C417.235,399.977,412.758,395.499,407.235,395.499z"/>
<path d="M467,395.499h-31.033c-5.523,0-10,4.477-10,10s4.477,10,10,10H467c5.523,0,10-4.477,10-10
	C477,399.977,472.523,395.499,467,395.499z"/>
<g>
</g>
<g>
</g>
<g>
</g>
<g>
</g>
<g>
</g>
<g>
</g>
<g>
</g>
<g>
</g>
<g>
</g>
<g>
</g>
<g>
</g>
<g>
</g>
<g>
</g>
<g>
</g>
<g>
</g>
</svg>
