<?xml version="1.0" encoding="iso-8859-1"?>
<!-- Generator: Adobe Illustrator 19.0.0, SVG Export Plug-In . SVG Version: 6.00 Build 0)  -->
<svg version="1.1" id="Capa_1" xmlns="http://www.w3.org/2000/svg" xmlns:xlink="http://www.w3.org/1999/xlink" x="0px" y="0px"
	 viewBox="0 0 512.002 512.002" style="enable-background:new 0 0 512.002 512.002;" xml:space="preserve">
<g>
	<path style="fill:#FF9750;" d="M50,116.002V76.001c0-11-8.999-20-20-20H10v80h20C41.001,136.001,50,127.002,50,116.002z"/>
	<path style="fill:#4AD194;" d="M69.999,56.001C59,56.001,50,65,50,76.001v40.001v140h360V210.27v-68.538V76.001
		c0-11.001-9-20-20-20H69.999L69.999,56.001z M111.225,156.002c0-22.092,17.909-40,40-40s40,17.908,40,40c0,22.092-17.909,40-40,40
		S111.225,178.094,111.225,156.002L111.225,156.002z M275.001,176.02c11.045,0,20,8.953,20,20c0,11.045-8.955,20-20,20
		c-11.046,0-20-8.955-20-20C255.001,184.973,263.955,176.02,275.001,176.02L275.001,176.02z M355,135.984c-11.046,0-20-8.955-20-20
		c0-11.046,8.954-20,20-20s20,8.954,20,20C375,127.029,366.046,135.984,355,135.984z"/>
	<circle style="fill:#BCCBD3;" cx="151.22" cy="156" r="40"/>
	<g>
		<circle style="fill:#636A75;" cx="275" cy="196.02" r="20"/>
		<circle style="fill:#636A75;" cx="355" cy="115.98" r="20"/>
	</g>
	<polygon style="fill:#FF9750;" points="410,141.732 410,210.27 466.246,226.002 466.246,126.002 	"/>
	<path style="fill:#BCCBD3;" d="M466.246,126.002v100v9.999h17.877c9.835,0,17.879-8.045,17.879-17.878v-84.244
		c0-9.832-8.044-17.877-17.879-17.877h-17.877V126.002z"/>
	<path style="fill:#FF9750;" d="M410,256.002H50v20c0,11,9,20,19.999,20h10.002h280H390c11,0,20-9,20-20V256.002z"/>
	<path style="fill:#F74F5C;" d="M360.001,296.002v39.75h15c8.25,0,14.999-6.75,14.999-15v-24.75H360.001z"/>
	<path style="fill:#636A75;" d="M360.001,335.752v-39.75h-280v19.75c0,11,9,20,20,20h169.363l10.637,100.25
		c1.16,10.938,9,19.999,20,19.999h40c11,0,20-8.999,20-19.999V335.752z"/>
</g>
<path d="M484.123,106.002h-17.877c-5.523,0-10,4.477-10,10v2.413L420,128.551v-52.55c0-16.542-13.458-30-30-30H69.999
	c-7.677,0-14.688,2.902-19.999,7.663c-5.312-4.761-12.322-7.663-20-7.663H10c-5.523,0-10,4.477-10,10v80c0,5.523,4.477,10,10,10h20
	c3.506,0,6.87-0.61,10-1.72v131.721c0,16.542,13.457,30,29.999,30h0.002v9.75c0,16.542,13.458,30,30,30h160.368l9.688,91.305
	c1.779,16.771,14.372,28.944,29.944,28.944h40c16.542,0,30-13.458,30-29.999v-90.25h5c13.785,0,24.999-11.215,24.999-25v-16.47
	c11.639-4.128,20-15.244,20-28.28V223.45l36.246,10.139v2.412c0,5.523,4.477,10,10,10h17.877c15.372,0,27.879-12.506,27.879-27.878
	v-84.244C512.002,118.507,499.496,106.002,484.123,106.002z M69.999,66.001H390c5.514,0,10,4.486,10,10l0,0v170.001l0,0H60V76.001
	l0,0C60,70.487,64.485,66.001,69.999,66.001z M30,126.001H20v-60h10c5.514,0,10,4.486,10,10v40.001
	C40,121.516,35.514,126.001,30,126.001z M350.001,436.002c0,5.514-4.486,9.999-10,9.999h-40c-6.104,0-9.491-5.73-10.056-11.054
	l-10.637-100.25c-0.54-5.086-4.83-8.945-9.944-8.945H100.001c-5.514,0-10-4.486-10-10v-9.75h260v29.75V436.002z M380,320.752
	c0,2.71-2.289,5-4.999,5h-5v-19.75H380V320.752z M390,286.002L390,286.002H69.999l0,0c-5.514,0-9.999-4.486-9.999-10v-10h340v10
	C400,281.516,395.514,286.002,390,286.002z M420,202.683v-53.364l36.246-10.136v73.639L420,202.683z M492.002,218.123
	c0,4.344-3.534,7.878-7.879,7.878h-7.877v-99.999h7.877c4.345,0,7.879,3.534,7.879,7.877V218.123z"/>
<path d="M345,144.264v42.755c0,5.523,4.477,10,10,10s10-4.477,10-10v-42.755c11.64-4.128,20.001-15.244,20.001-28.28
	c0-16.542-13.458-30-30-30c-16.543,0-30.001,13.458-30.001,30C325,129.021,333.361,140.136,345,144.264z M355.001,105.984
	c5.514,0,10,4.486,10,10s-4.486,10-10,10c-5.515,0-10.001-4.486-10.001-10S349.486,105.984,355.001,105.984z"/>
<path d="M275.001,226.02c16.542,0,30-13.458,30-30c0-13.036-8.361-24.152-20-28.28v-42.755c0-5.523-4.477-10-10-10s-10,4.477-10,10
	v42.755c-11.639,4.128-20,15.244-20,28.28C245.001,212.562,258.459,226.02,275.001,226.02z M275.001,186.02c5.514,0,10,4.486,10,10
	c0,5.514-4.486,10-10,10s-10-4.486-10-10C265.001,190.505,269.487,186.02,275.001,186.02z"/>
<path d="M355,205.75c-5.523,0-10,4.477-10,10v0.27c0,5.523,4.477,10,10,10s10-4.477,10-10v-0.27
	C365,210.227,360.523,205.75,355,205.75z"/>
<path d="M275.001,106.254c5.523,0,10-4.477,10-10v-0.27c0-5.523-4.477-10-10-10s-10,4.477-10,10v0.27
	C265.001,101.777,269.478,106.254,275.001,106.254z"/>
<path d="M97.229,166.002h5.003c3.987,19.563,19.431,35.006,38.993,38.994v5.002c0,5.523,4.477,10,10,10s10-4.477,10-10v-5.002
	c19.563-3.987,35.008-19.431,38.995-38.994h5.001c5.523,0,10-4.477,10-10c0-5.523-4.477-10-10-10h-5.001
	c-3.987-19.563-19.432-35.007-38.995-38.994v-5.002c0-5.523-4.477-10-10-10s-10,4.477-10,10v5.002
	c-19.562,3.987-35.006,19.431-38.993,38.994h-5.003c-5.523,0-10,4.477-10,10C87.229,161.525,91.707,166.002,97.229,166.002z
	 M151.226,126.002c16.538,0,29.993,13.451,30,29.987c0,0.004-0.001,0.008-0.001,0.013s0.001,0.009,0.001,0.013
	c-0.007,16.536-13.462,29.987-30,29.987c-16.542,0-30-13.458-30-30C121.226,139.46,134.684,126.002,151.226,126.002z"/>
<g>
</g>
<g>
</g>
<g>
</g>
<g>
</g>
<g>
</g>
<g>
</g>
<g>
</g>
<g>
</g>
<g>
</g>
<g>
</g>
<g>
</g>
<g>
</g>
<g>
</g>
<g>
</g>
<g>
</g>
</svg>
