<?xml version="1.0" encoding="iso-8859-1"?>
<!-- Generator: Adobe Illustrator 19.0.0, SVG Export Plug-In . SVG Version: 6.00 Build 0)  -->
<svg version="1.1" id="Capa_1" xmlns="http://www.w3.org/2000/svg" xmlns:xlink="http://www.w3.org/1999/xlink" x="0px" y="0px"
	 viewBox="0 0 512.002 512.002" style="enable-background:new 0 0 512.002 512.002;" xml:space="preserve">
<g>
	<path style="fill:#E1E6E9;" d="M410.001,370V102.002V50c0-22-18-40-40-40h-320c-22,0-40,18-40,40v320c0,22.001,17.999,40,40,40
		h52.001h267.999C392.001,410,410.001,392.001,410.001,370z"/>
	<path style="fill:#BCCBD3;" d="M410.001,370c0,22.001-18,40-40,40H102.003v52.002c0,22,18,40,40,40h320c22,0,40-18,40-40v-320
		c0-22-18-40-40-40h-52.002V370z"/>
</g>
<path d="M462.002,92.002h-42.001V50c0-27.57-22.43-50-50-50h-320c-27.57,0-50,22.43-50,50v320c0,27.57,22.43,50,50,50h42.001v42.002
	c0,27.57,22.43,50,50,50h320c27.57,0,50-22.43,50-50v-320C512.003,114.432,489.573,92.002,462.002,92.002z M20.001,370V50
	c0-16.542,13.458-30,30-30h320c16.542,0,30,13.458,30,30v320c0,16.542-13.458,30-30,30h-320C33.459,400,20.001,386.542,20.001,370z
	 M492.002,462.002c0,16.542-13.458,30-30,30h-320c-16.542,0-30-13.458-30-30V420h257.999c27.57,0,50-22.43,50-50V112.002h42.001
	c16.542,0,30,13.458,30,30V462.002z"/>
<path d="M142.25,457.002h-0.27c-5.522,0-10,4.477-10,10s4.478,10,10,10h0.27c5.523,0,10-4.477,10-10S147.773,457.002,142.25,457.002
	z"/>
<path d="M462.024,457.002H170.981c-5.522,0-10,4.477-10,10s4.478,10,10,10h291.043c5.522,0,10-4.477,10-10
	S467.546,457.002,462.024,457.002z"/>
<path d="M109.766,55h0.27c5.522,0,10-4.477,10-10s-4.478-10-10-10h-0.27c-5.522,0-10,4.477-10,10S104.244,55,109.766,55z"/>
<path d="M91.036,45c0-5.523-4.478-10-10-10H50.001c-5.522,0-10,4.477-10,10s4.478,10,10,10h31.034
	C86.558,55,91.036,50.523,91.036,45z"/>
<path d="M270.292,258.367c6.182,2.565,12.873,3.847,20.075,3.847c7.753,0,15.167-1.646,22.184-4.936
	c0.114,0.199,0.236,0.395,0.364,0.587c0.607,0.903,1.361,1.712,2.264,2.419v0.008c0.932,0.725,1.939,1.273,3.023,1.647
	c1.09,0.376,2.212,0.561,3.37,0.561h0.071c1.43,0,2.772-0.263,4.024-0.793c1.236-0.522,2.35-1.295,3.337-2.316
	c1.022-0.988,1.795-2.102,2.317-3.338c0.53-1.254,0.793-2.595,0.793-4.023h-0.009l0.216-44.361l0.008-0.009
	c0-1.429-0.271-2.778-0.802-4.042c-0.529-1.258-1.3-2.389-2.305-3.395l-0.004,0.004c-1.02-1.031-2.153-1.807-3.399-2.326
	c-1.255-0.523-2.6-0.785-4.033-0.785H286.09c-1.457,0-2.814,0.262-4.069,0.785c-1.233,0.515-2.35,1.287-3.347,2.317l-0.004-0.003
	c-1.038,1.023-1.817,2.16-2.339,3.41c-0.524,1.256-0.785,2.602-0.785,4.034s0.261,2.778,0.785,4.034
	c0.52,1.244,1.294,2.377,2.326,3.398l-0.004,0.004c0.984,0.984,2.113,1.74,3.384,2.26v0.009c1.246,0.509,2.598,0.767,4.053,0.767
	h25.152l-0.059,15.135c-2.939,2.629-6.108,4.605-9.511,5.926c-3.487,1.354-7.255,2.031-11.307,2.031
	c-4.345,0-8.355-0.762-12.034-2.279c-3.685-1.521-7.071-3.811-10.16-6.867c-3.057-3.09-5.349-6.479-6.869-10.164
	c-1.518-3.674-2.277-7.677-2.277-12.008c0-4.319,0.761-8.313,2.279-11.98c1.516-3.66,3.808-7.039,6.871-10.139
	c3.098-3.063,6.483-5.354,10.156-6.87c3.679-1.519,7.689-2.28,12.034-2.28c3.541,0,6.89,0.539,10.046,1.615
	c3.164,1.078,6.157,2.698,8.977,4.857l0.001-0.001c1.14,0.883,2.368,1.493,3.686,1.837c1.308,0.343,2.677,0.414,4.105,0.221v-0.004
	c1.416-0.182,2.702-0.607,3.857-1.275c1.155-0.67,2.168-1.571,3.035-2.705l0.003,0.003c0.879-1.132,1.495-2.35,1.854-3.651
	c0.358-1.299,0.453-2.646,0.29-4.043l-0.009-0.061c-0.209-1.431-0.653-2.729-1.333-3.895c-0.682-1.169-1.591-2.194-2.729-3.077
	c-4.675-3.604-9.663-6.305-14.96-8.104c-5.313-1.807-10.923-2.707-16.823-2.707c-7.202,0-13.894,1.281-20.075,3.846
	c-6.179,2.563-11.816,6.395-16.917,11.494l0.005,0.004c-5.106,5.083-8.939,10.701-11.499,16.859
	c-2.563,6.17-3.847,12.854-3.847,20.057c0,14.419,5.114,26.742,15.341,36.969C258.475,251.973,264.113,255.805,270.292,258.367z"/>
<path d="M121.246,252.967l0.009-0.01c3.175-3.188,5.561-6.715,7.157-10.576c1.602-3.873,2.401-8.051,2.401-12.525v-61.621
	c0-1.416-0.27-2.758-0.803-4.023c-0.52-1.239-1.286-2.369-2.287-3.387c-1.002-1.031-2.121-1.808-3.357-2.326
	c-1.242-0.521-2.583-0.783-4.025-0.783c-1.432,0-2.776,0.262-4.033,0.783c-1.244,0.516-2.376,1.283-3.395,2.301h-0.008
	c-1.025,1.025-1.799,2.166-2.322,3.421c-0.524,1.255-0.785,2.594-0.785,4.015v61.621c0,1.633-0.277,3.123-0.838,4.476
	c-0.561,1.355-1.416,2.608-2.569,3.763l-0.009,0.008c-1.14,1.141-2.396,1.996-3.766,2.563c-1.355,0.563-2.847,0.846-4.472,0.846
	c-1.441,0-2.782,0.26-4.024,0.781c-1.235,0.518-2.355,1.295-3.358,2.327l0.001,0.001c-1.001,1.018-1.767,2.146-2.288,3.385
	c-0.531,1.266-0.802,2.607-0.802,4.025c0,1.426,0.268,2.765,0.797,4.012c0.531,1.254,1.313,2.377,2.336,3.369l0.003-0.002
	c0.988,1.018,2.092,1.783,3.312,2.299c1.254,0.53,2.596,0.793,4.024,0.793c4.483,0,8.657-0.797,12.525-2.393
	C114.53,258.514,118.054,256.133,121.246,252.967z"/>
<path d="M156.334,259.391c0.988,1.022,2.101,1.794,3.338,2.316c1.253,0.53,2.595,0.793,4.023,0.793c1.434,0,2.778-0.26,4.034-0.783
	c1.245-0.521,2.379-1.295,3.398-2.328l0.004,0.004c0.99-0.988,1.748-2.113,2.265-3.369c0.512-1.242,0.771-2.574,0.771-3.994v-31.461
	h18.295c4.061,0,8.785-1.068,13.151-2.758c4.47-1.73,8.614-4.141,11.335-6.751c3.172-3.044,5.559-6.405,7.156-10.078
	c1.608-3.696,2.412-7.675,2.412-11.935c0-8.711-3.317-16.152-9.953-22.35c-3.263-3.057-6.873-5.354-10.833-6.891
	c-3.962-1.537-8.24-2.307-12.839-2.307h-29.197c-1.429,0-2.771,0.264-4.023,0.793c-1.253,0.529-2.379,1.314-3.375,2.357l0.003,0.004
	c-1.01,0.982-1.771,2.082-2.282,3.294c-0.53,1.253-0.794,2.595-0.794,4.024v84.057c0,1.43,0.264,2.771,0.794,4.023
	C154.541,257.289,155.312,258.402,156.334,259.391z M174.168,178.42h18.725c1.809,0,3.459,0.271,4.953,0.813
	c1.49,0.54,2.854,1.353,4.09,2.436l0.008,0.009c1.216,1.055,2.123,2.202,2.72,3.438c0.574,1.193,0.862,2.504,0.862,3.932
	c0,1.404-0.28,2.702-0.838,3.89c-0.572,1.219-1.444,2.36-2.612,3.421l-0.005-0.005c-1.204,1.06-2.526,1.863-3.962,2.407
	c-1.452,0.551-3.032,0.85-4.737,0.896v-0.008h-19.203L174.168,178.42L174.168,178.42z"/>
<g>
</g>
<g>
</g>
<g>
</g>
<g>
</g>
<g>
</g>
<g>
</g>
<g>
</g>
<g>
</g>
<g>
</g>
<g>
</g>
<g>
</g>
<g>
</g>
<g>
</g>
<g>
</g>
<g>
</g>
</svg>
