<?xml version="1.0" encoding="iso-8859-1"?>
<!-- Generator: Adobe Illustrator 19.0.0, SVG Export Plug-In . SVG Version: 6.00 Build 0)  -->
<svg version="1.1" id="Capa_1" xmlns="http://www.w3.org/2000/svg" xmlns:xlink="http://www.w3.org/1999/xlink" x="0px" y="0px"
	 viewBox="0 0 512.003 512.003" style="enable-background:new 0 0 512.003 512.003;" xml:space="preserve">
<g>
	<path style="fill:#BCCBD3;" d="M180.002,116.002V56.001H148c-8.249,0-14.999,6.749-14.999,15v45.001H180.002z"/>
	<path style="fill:#E1E6E9;" d="M180.002,56.001v60.001l82-0.001c0-11.001,9-20,20-20h78v-40H180.002z"/>
	<path style="fill:#BCCBD3;" d="M360.002,56.001v40h47v-25c0-8.251-6.75-15-14.999-15H360.002z"/>
	<path style="fill:#636A75;" d="M407.002,96.001h-47h-78c-11,0-20,8.999-20,20V276c0,11.002,9,20,20,20h200c11,0,20-8.998,20-20
		V116.001c0-11.001-9-20-20-20H407.002L407.002,96.001z M297.002,131.001h170V261h-170V131.001z"/>
	<path style="fill:#BCCBD3;" d="M467.002,131.001h-170V261h170V131.001L467.002,131.001z M382.002,171.001c13.807,0,25,11.192,25,25
		S395.809,221,382.002,221c-13.808,0-25-11.191-25-24.999C357.002,182.193,368.194,171.001,382.002,171.001z"/>
	<circle style="fill:#636A75;" cx="382" cy="196" r="25"/>
	<path style="fill:#4AD194;" d="M262.002,276V116.002h-82h-47.001H28.889C18.5,116.002,10,124.5,10,134.89v302.223
		c0,10.39,8.5,18.889,18.889,18.889h434.225c10.389,0,18.889-8.5,18.889-18.889V296h-200C271.002,296,262.002,287.002,262.002,276
		L262.002,276z M133.001,342.255c16.568,0,30,13.431,30,30c0,16.568-13.432,29.999-30,29.999s-30-13.431-30-29.999
		C103.001,355.686,116.433,342.255,133.001,342.255L133.001,342.255z M173.001,176v40.001c0,5.5-4.5,9.999-10,9.999H103
		c-5.499,0-9.999-4.499-9.999-9.999V176c0-5.5,4.5-10,9.999-10h60.001C168.501,166,173.001,170.5,173.001,176z"/>
	<path style="fill:#BCCBD3;" d="M173.001,216.001V176c0-5.5-4.5-10-10-10H103c-5.499,0-9.999,4.5-9.999,10v40.001
		c0,5.5,4.5,9.999,9.999,9.999h60.001C168.501,226,173.001,221.501,173.001,216.001z"/>
	<circle style="fill:#636A75;" cx="133" cy="372.25" r="30"/>
</g>
<path d="M482.002,86.001h-65v-15c0-13.785-11.215-25-24.999-25H148c-13.784,0-24.999,11.215-24.999,25v35.001H28.889
	C12.959,106.002,0,118.961,0,134.89v302.223c0,15.929,12.959,28.889,28.889,28.889h434.225c15.93,0,28.889-12.959,28.889-28.889
	V304.28c11.639-4.128,20-15.244,20-28.28V116.001C512.002,99.459,498.544,86.001,482.002,86.001z M397.002,71.001v15h-27v-20h22.001
	C394.713,66.001,397.002,68.291,397.002,71.001z M282.002,86.001c-13.037,0-24.152,8.361-28.28,20.001h-63.72V66.001h160v20H282.002
	z M143.001,71.001c0-2.71,2.289-5,4.999-5h22.002v40.001h-27.001V71.001z M463.113,446.001H28.889c-4.901,0-8.889-3.987-8.889-8.889
	V134.89c0-4.901,3.987-8.888,8.889-8.888h223.113V276c0,16.542,13.458,30,30,30h190v131.112
	C472.002,442.014,468.015,446.001,463.113,446.001z M492.002,276c0,5.514-4.486,10-10,10h-200c-5.514,0-10-4.486-10-10V116.001
	c0-5.514,4.486-10,10-10h200c5.514,0,10,4.486,10,10V276z"/>
<path d="M467.002,121.001h-170c-5.523,0-10,4.477-10,10V261c0,5.523,4.477,10,10,10h170c5.522,0,10-4.477,10-10V131.001
	C477.002,125.478,472.525,121.001,467.002,121.001z M457.002,251h-150V141.001h150V251z"/>
<path d="M382.002,231c19.299,0,35-15.701,35-34.999c0-19.299-15.701-35-35-35s-35,15.701-35,35
	C347.002,215.299,362.703,231,382.002,231z M382.002,181.001c8.271,0,15,6.729,15,15c0,8.27-6.729,14.999-15,14.999
	c-8.272,0-15-6.729-15-14.999C367.002,187.73,373.73,181.001,382.002,181.001z"/>
<path d="M163.001,156H103c-11.027,0-19.999,8.972-19.999,20v40.001C83.001,227.028,91.973,236,103,236h60.001
	c11.028,0,20-8.972,20-19.999V176C183.001,164.972,174.029,156,163.001,156z M103.001,216.001L103,176h60.001l0.002,40
	L103.001,216.001z"/>
<path d="M133.001,332.255c-22.056,0-40,17.944-40,40s17.944,39.999,40,39.999s40-17.943,40-39.999S155.057,332.255,133.001,332.255z
	 M133.001,392.254c-11.028,0-20-8.972-20-19.999c0-11.028,8.972-20,20-20s20,8.972,20,20
	C153.001,383.282,144.029,392.254,133.001,392.254z"/>
<path d="M447.002,392.254H295.963c-5.522,0-10,4.477-10,10s4.478,10,10,10h151.039c5.522,0,10-4.477,10-10
	S452.525,392.254,447.002,392.254z"/>
<path d="M267.233,392.254h-0.27c-5.522,0-10,4.477-10,10s4.478,10,10,10h0.27c5.522,0,10-4.477,10-10
	S272.755,392.254,267.233,392.254z"/>
<path d="M153.035,271c5.522,0,10-4.477,10-10c0-5.523-4.478-10-10-10h-0.27c-5.523,0-10,4.477-10,10c0,5.523,4.477,10,10,10H153.035
	z"/>
<path d="M124.035,271c5.522,0,10-4.477,10-10c0-5.523-4.478-10-10-10H93.001c-5.522,0-10,4.477-10,10c0,5.523,4.478,10,10,10
	H124.035z"/>
<g>
</g>
<g>
</g>
<g>
</g>
<g>
</g>
<g>
</g>
<g>
</g>
<g>
</g>
<g>
</g>
<g>
</g>
<g>
</g>
<g>
</g>
<g>
</g>
<g>
</g>
<g>
</g>
<g>
</g>
</svg>
