<?xml version="1.0" encoding="iso-8859-1"?>
<!-- Generator: Adobe Illustrator 19.0.0, SVG Export Plug-In . SVG Version: 6.00 Build 0)  -->
<svg version="1.1" id="Capa_1" xmlns="http://www.w3.org/2000/svg" xmlns:xlink="http://www.w3.org/1999/xlink" x="0px" y="0px"
	 viewBox="0 0 512.001 512.001" style="enable-background:new 0 0 512.001 512.001;" xml:space="preserve">
<g>
	<path style="fill:#BCCBD3;" d="M197.493,253.57c15.451-32.406,41.482-58.801,73.625-74.711
		c-6.132-28.117-31.157-49.16-61.118-49.16c-34.562,0-62.562,28-62.562,62.563C147.438,222.539,168.929,247.779,197.493,253.57z"/>
	<path style="fill:#636A75;" d="M147.438,192.261c0-34.563,28-62.563,62.562-62.563c29.961,0,54.986,21.043,61.118,49.16
		c10.436-5.164,21.516-9.225,33.088-12.027C293.018,125.283,255.083,94.699,210,94.699c-53.881,0-97.562,43.68-97.562,97.563
		c0,45.582,31.265,83.861,73.518,94.57c2.633-11.617,6.529-22.756,11.537-33.262C168.929,247.779,147.438,222.539,147.438,192.261z"
		/>
	<path style="fill:#FFC36C;" d="M304.206,166.832c-11.571,2.803-22.652,6.863-33.088,12.027
		c-32.143,15.91-58.174,42.305-73.625,74.711c-5.008,10.506-8.904,21.644-11.537,33.262c-2.588,11.422-3.954,23.307-3.954,35.51
		c0,88.365,71.634,160,160,160c88.365,0,159.999-71.635,159.999-160c0-64.053-37.637-119.313-92.001-144.873v0.012
		c-20.639-9.705-43.683-15.139-67.998-15.139C328.982,162.341,316.324,163.896,304.206,166.832L304.206,166.832z M362.002,227.341
		v30h10c11,0,20,9,20,20v33.332v53.336v33.332c0,11-9,20-20,20h-60.001c-11,0-19.999-9-19.999-20v-33.332v-53.336v-33.332
		c0-11,8.999-20,19.999-20h10v-30H362.002z"/>
	<g>
		<rect x="322" y="227.34" style="fill:#E1E6E9;" width="40" height="30"/>
		<path style="fill:#E1E6E9;" d="M362.002,257.341h-40.001h-10c-10.999,0-19.999,9-19.999,20v86.668h100v-86.668c0-11-9-20-20-20
			H362.002z"/>
	</g>
	<path style="fill:#F74F5C;" d="M392.002,364.009h-100v33.332c0,11,8.999,20,19.999,20h60.001c11,0,20-9,20-20V364.009z"/>
	<path style="fill:#E1E6E9;" d="M342.002,162.341c24.313,0,47.36,5.424,67.998,15.127V78.439c0-8.943-7.317-16.26-16.26-16.26
		H266.911l-8.131-24.391c-1.414-4.242-3.658-8.129-8.13-8.129h-81.302c-4.471,0-6.715,3.887-8.129,8.129l-8.131,24.391H26.26
		c-8.942,0-16.26,7.316-16.26,16.26v227.643c0,8.943,7.317,16.26,16.26,16.26h155.742c0-12.203,1.366-24.088,3.954-35.51
		c-42.253-10.709-73.518-48.988-73.518-94.57c0-53.883,43.681-97.563,97.562-97.563c45.083,0,83.018,30.584,94.206,72.133
		C316.324,163.896,328.982,162.341,342.002,162.341z"/>
</g>
<path d="M420,171.323V78.439c0-14.48-11.78-26.26-26.26-26.26H274.118l-5.851-17.553c-4.341-13.022-12.901-14.967-17.617-14.967
	h-81.302c-4.716,0-13.275,1.944-17.616,14.967l-5.852,17.553H26.26C11.78,52.179,0,63.959,0,78.439v227.643
	c0,14.479,11.78,26.26,26.26,26.26h146.043c5.195,89.101,79.317,160,169.698,160c93.738,0,170-76.262,170-170
	C512.001,256.703,474.603,199.639,420,171.323z M20,306.082V78.439c0-3.394,2.867-6.26,6.26-6.26h126.829
	c4.304,0,8.125-2.754,9.487-6.838l8.131-24.391c0.18-0.54,0.344-0.963,0.484-1.291h77.618c0.141,0.328,0.304,0.751,0.484,1.291
	l8.13,24.391c1.361,4.084,5.183,6.838,9.487,6.838h126.83c3.393,0,6.26,2.866,6.26,6.26v84.056c-14.419-5.251-29.4-8.47-44.78-9.643
	c-0.114-0.009-0.229-0.018-0.344-0.026c-1.209-0.089-2.42-0.166-3.633-0.23c-0.278-0.015-0.556-0.031-0.834-0.045
	c-1.091-0.053-2.184-0.093-3.278-0.125c-0.328-0.01-0.655-0.023-0.983-0.031c-1.379-0.033-2.761-0.053-4.145-0.053c0,0,0,0-0.001,0
	l0,0c-0.009,0-0.018,0-0.027,0c-1.429,0.001-2.853,0.02-4.272,0.055c-0.501,0.013-0.998,0.038-1.498,0.055
	c-0.928,0.031-1.856,0.061-2.78,0.107c-0.583,0.029-1.162,0.071-1.743,0.106c-0.837,0.051-1.675,0.098-2.508,0.16
	c-0.618,0.046-1.233,0.105-1.851,0.158c-0.79,0.068-1.582,0.133-2.369,0.211c-0.639,0.064-1.274,0.141-1.911,0.212
	c-0.76,0.084-1.521,0.166-2.278,0.261c-0.652,0.082-1.302,0.175-1.951,0.264c-0.736,0.102-1.473,0.199-2.205,0.31
	c-0.66,0.1-1.316,0.21-1.974,0.316c-0.719,0.117-1.438,0.231-2.154,0.357c-0.5,0.088-0.997,0.182-1.496,0.274
	c-15.38-41.939-55.63-70.488-100.982-70.488c-59.31,0-107.562,48.252-107.562,107.563c0,46.1,29.157,86.579,71.974,101.526
	c-0.027,0.156-0.052,0.313-0.078,0.47c-0.104,0.619-0.212,1.236-0.309,1.857c-0.115,0.739-0.216,1.483-0.322,2.226
	c-0.091,0.645-0.187,1.287-0.271,1.934c-0.095,0.728-0.177,1.458-0.262,2.188c-0.078,0.668-0.16,1.335-0.23,2.006
	c-0.075,0.719-0.14,1.441-0.206,2.163c-0.063,0.685-0.128,1.37-0.183,2.059c-0.057,0.714-0.104,1.432-0.152,2.148
	c-0.034,0.501-0.077,1-0.106,1.503H26.26C22.867,312.341,20,309.475,20,306.082z M290.415,160.351
	c-0.644,0.206-1.286,0.414-1.928,0.627c-0.656,0.219-1.311,0.441-1.965,0.668c-0.633,0.219-1.264,0.441-1.894,0.668
	c-0.654,0.235-1.308,0.475-1.958,0.717c-0.621,0.232-1.24,0.469-1.857,0.708c-0.652,0.252-1.302,0.507-1.95,0.768
	c-0.52,0.208-1.039,0.42-1.556,0.634c-4.563-11.289-11.958-21.383-21.49-29.153c-12.886-10.503-29.158-16.288-45.818-16.288
	c-40.011,0-72.562,32.552-72.562,72.563c0,30.27,18.932,57.059,46.42,67.693c-0.073,0.184-0.142,0.369-0.214,0.553
	c-0.189,0.483-0.37,0.972-0.555,1.457c-0.299,0.783-0.599,1.564-0.886,2.354c-0.169,0.464-0.328,0.932-0.493,1.396
	c-0.29,0.817-0.581,1.633-0.858,2.456c-0.142,0.422-0.275,0.849-0.414,1.271c-0.286,0.873-0.574,1.744-0.847,2.622
	c-0.097,0.313-0.185,0.627-0.28,0.94c-0.116,0.383-0.23,0.767-0.343,1.15c-33.723-12.725-56.53-45.104-56.53-81.893
	c0-48.282,39.28-87.563,87.562-87.563c36.177,0,68.357,22.314,81.418,55.326C291.082,160.13,290.75,160.245,290.415,160.351z
	 M257.004,175.161c-0.504,0.292-1.002,0.592-1.502,0.889c-0.656,0.39-1.314,0.777-1.964,1.175c-0.476,0.291-0.945,0.591-1.417,0.886
	c-0.667,0.417-1.334,0.831-1.995,1.257c-0.437,0.282-0.868,0.573-1.303,0.858c-0.686,0.452-1.374,0.901-2.054,1.362
	c-0.378,0.257-0.751,0.521-1.127,0.781c-0.727,0.502-1.455,1.002-2.173,1.515c-0.25,0.179-0.495,0.363-0.744,0.544
	c-3.838,2.769-7.556,5.695-11.145,8.768c-0.189,0.162-0.382,0.32-0.571,0.483c-0.715,0.618-1.42,1.248-2.126,1.878
	c-0.29,0.26-0.585,0.515-0.874,0.775c-0.655,0.594-1.301,1.198-1.947,1.802c-0.329,0.308-0.662,0.61-0.988,0.92
	c-0.619,0.588-1.229,1.184-1.838,1.781c-0.344,0.336-0.69,0.668-1.031,1.007c-0.591,0.587-1.173,1.184-1.755,1.78
	c-0.35,0.357-0.703,0.713-1.05,1.074c-0.566,0.59-1.123,1.188-1.681,1.785c-0.353,0.379-0.708,0.754-1.057,1.136
	c-0.545,0.596-1.083,1.198-1.62,1.802c-0.35,0.393-0.7,0.783-1.046,1.179c-0.529,0.605-1.05,1.216-1.57,1.828
	c-0.343,0.405-0.688,0.809-1.028,1.216c-0.51,0.612-1.013,1.23-1.515,1.849c-0.339,0.419-0.679,0.837-1.014,1.259
	c-0.493,0.62-0.98,1.246-1.464,1.874c-0.331,0.428-0.662,0.856-0.989,1.288c-0.477,0.631-0.949,1.266-1.417,1.902
	c-0.323,0.439-0.646,0.88-0.965,1.322c-0.461,0.64-0.917,1.282-1.369,1.929c-0.314,0.448-0.626,0.898-0.936,1.35
	c-0.446,0.649-0.887,1.303-1.324,1.959c-0.304,0.457-0.606,0.916-0.906,1.376c-0.43,0.66-0.856,1.323-1.278,1.989
	c-0.293,0.465-0.584,0.931-0.874,1.399c-0.415,0.67-0.826,1.343-1.232,2.018c-0.284,0.473-0.563,0.948-0.842,1.423
	c-0.4,0.682-0.797,1.365-1.187,2.052c-0.271,0.478-0.538,0.958-0.805,1.439c-0.316,0.568-0.633,1.135-0.942,1.706
	c-20.597-7.348-34.9-27.113-34.9-49.513c0-28.983,23.579-52.563,52.562-52.563c22.034,0,41.686,14.007,49.246,34.19
	c-0.099,0.055-0.195,0.111-0.294,0.166C258.302,174.421,257.649,174.787,257.004,175.161z M342.001,472.341
	c-82.705,0-149.991-67.281-150-149.984c0-0.006,0.001-0.011,0.001-0.016c0-82.71,67.29-150,149.999-150c0.006,0,0.012,0,0.018,0
	c1.323,0,2.644,0.02,3.961,0.054c0.747,0.02,1.49,0.055,2.235,0.085c0.547,0.021,1.095,0.038,1.642,0.066
	c1.028,0.053,2.053,0.121,3.076,0.195c0.234,0.017,0.471,0.03,0.705,0.048c1.217,0.094,2.43,0.201,3.639,0.324
	c0.018,0.002,0.034,0.003,0.052,0.005c75.537,7.701,134.673,71.687,134.673,149.223
	C492.001,405.051,424.711,472.341,342.001,472.341z"/>
<path d="M230.337,349.836c-1.32-5.363-6.735-8.636-12.101-7.319c-5.363,1.32-8.64,6.738-7.319,12.101
	c3.041,12.354,7.81,24.205,14.172,35.225c1.852,3.208,5.213,5.002,8.669,5.002c1.696,0,3.416-0.433,4.991-1.342
	c4.783-2.762,6.422-8.877,3.66-13.66C236.99,370.455,232.928,360.359,230.337,349.836z"/>
<path d="M105.034,107.179c5.523,0,10-4.478,10-10s-4.477-10-10-10h-0.27c-5.523,0-10,4.478-10,10s4.477,10,10,10H105.034z"/>
<path d="M76.034,87.179H45c-5.523,0-10,4.478-10,10s4.477,10,10,10h31.034c5.523,0,10-4.478,10-10S81.557,87.179,76.034,87.179z"/>
<path d="M372.002,247.341v-20c0-5.522-4.478-10-10-10h-40.001c-5.523,0-10,4.478-10,10v20c-16.542,0-29.999,13.458-29.999,30v120
	c0,16.542,13.457,30,29.999,30h60.001c16.542,0,30-13.458,30-30v-120C402.002,260.799,388.544,247.341,372.002,247.341z
	 M332.001,237.341h20.001v10h-20.001V237.341z M312.001,267.341L312.001,267.341h60.001l0,0c5.514,0,10,4.486,10,10v76.668h-80
	v-76.668C302.002,271.828,306.487,267.341,312.001,267.341z M372.002,407.341h-60.001c-5.514,0-9.999-4.486-9.999-10v-23.332h80
	v23.332C382.002,402.855,377.516,407.341,372.002,407.341z"/>
<path d="M217.064,332.822c5.523-0.034,9.973-4.538,9.939-10.061l-0.002-0.42c0-5.522-4.477-10-10-10s-10,4.478-10,10l0.002,0.541
	c0.034,5.503,4.504,9.939,9.998,9.939C217.022,332.822,217.043,332.822,217.064,332.822z"/>
<g>
</g>
<g>
</g>
<g>
</g>
<g>
</g>
<g>
</g>
<g>
</g>
<g>
</g>
<g>
</g>
<g>
</g>
<g>
</g>
<g>
</g>
<g>
</g>
<g>
</g>
<g>
</g>
<g>
</g>
</svg>
