<?xml version="1.0" encoding="iso-8859-1"?>
<!-- Generator: Adobe Illustrator 19.0.0, SVG Export Plug-In . SVG Version: 6.00 Build 0)  -->
<svg version="1.1" id="Capa_1" xmlns="http://www.w3.org/2000/svg" xmlns:xlink="http://www.w3.org/1999/xlink" x="0px" y="0px"
	 viewBox="0 0 512 512" style="enable-background:new 0 0 512 512;" xml:space="preserve">
<g>
	<path style="fill:#4AD194;" d="M116.001,63.477h280L396,42.899c0-18.094-14.803-32.898-32.897-32.898H148.898
		C130.803,10,116.001,24.805,116.001,42.898V63.477z"/>
	<path style="fill:#E1E6E9;" d="M396,63.477h-280v352.961h280V63.477L396,63.477z M263.211,196.721l26.446,15.268
		c6.213,3.57,8.355,11.502,4.785,17.717c-1.221,2.121-2.947,3.768-4.942,4.875l-26.97,15.57l0.012,0.021l-27.163,15.684
		c-6.214,3.6-14.168,1.479-17.767-4.734c-1.19-2.055-1.755-4.301-1.754-6.516h-0.027v-31.367v-31.365
		c0-7.197,5.835-13.033,13.032-13.033c2.696,0,5.202,0.818,7.28,2.223l26.398,15.242
		C262.771,196.438,262.992,196.576,263.211,196.721L263.211,196.721z M205.284,337.471c11.046,0,20,8.953,20,20
		c0,11.045-8.954,19.998-20,19.998s-20-8.953-20-19.998C185.284,346.424,194.238,337.471,205.284,337.471z"/>
	<path style="fill:#F74F5C;" d="M262.542,196.305l-26.398-15.242c-2.078-1.404-4.584-2.223-7.28-2.223
		c-7.197,0-13.032,5.836-13.032,13.033v31.365v31.367h0.027c-0.001,2.215,0.564,4.461,1.754,6.516
		c3.599,6.213,11.553,8.334,17.767,4.734l27.163-15.684l-0.012-0.021l26.97-15.57c1.995-1.107,3.722-2.754,4.942-4.875
		c3.57-6.215,1.428-14.146-4.785-17.717l-26.446-15.268C262.992,196.576,262.771,196.438,262.542,196.305z"/>
	<circle style="fill:#FF9750;" cx="205.281" cy="357.47" r="20"/>
	<path style="fill:#4AD194;" d="M396,416.438h-280v52.666c0,18.093,14.803,32.896,32.898,32.896h214.204
		C381.198,502,396,487.197,396,469.104L396,416.438z"/>
</g>
<path d="M256.258,442.924c-8.975,0-16.294,7.32-16.294,16.293c0,8.975,7.319,16.295,16.294,16.295
	c8.975,0,16.294-7.32,16.294-16.295C272.552,450.244,265.234,442.924,256.258,442.924z"/>
<path d="M406,42.898C406,42.892,406,42.905,406,42.898L406,42.898C406,19.244,386.755,0,363.102,0H148.898
	c-23.653,0-42.898,19.244-42.898,42.898l0,0v426.205l0,0c0,23.654,19.245,42.897,42.898,42.897h214.204
	C386.755,512,406,492.757,406,469.104l0,0c0-0.007,0-1.597,0-1.604V42.898z M126.001,73.477H386v332.961H126.001V73.477z
	 M148.898,20h214.204C375.729,20,386,30.272,386,42.898v10.578H126.001V42.898C126.001,30.272,136.273,20,148.898,20z M363.102,492
	H148.898c-12.626,0-22.898-10.271-22.898-22.896v-42.666H386v42.666C386,481.729,375.729,492,363.102,492z"/>
<path d="M220.767,108.479h0.235c5.522,0,10-4.478,10-10s-4.478-10-10-10h-0.235c-5.522,0-10,4.478-10,10
	S215.245,108.479,220.767,108.479z"/>
<path d="M151.001,108.477h41.034c5.522,0,10-4.478,10-10s-4.478-10-10-10h-41.034c-5.523,0-10,4.478-10,10
	S145.479,108.477,151.001,108.477z"/>
<path d="M208.958,266.133c4.1,7.079,11.732,11.475,19.916,11.475c4.033,0,8.016-1.072,11.504-3.093l27.163-15.684
	c0.205-0.118,0.403-0.242,0.597-0.372l26.298-15.183c3.605-2.021,6.604-4.988,8.677-8.591c6.311-10.985,2.51-25.057-8.456-31.358
	l-26.217-15.135c-0.291-0.188-0.588-0.369-0.898-0.549l-26.135-15.09c-3.736-2.432-8.064-3.715-12.544-3.715
	c-12.7,0-23.032,10.333-23.032,23.033v62.732c0,0.333,0.017,0.663,0.049,0.988C206.04,259.292,207.096,262.917,208.958,266.133z
	 M225.831,191.873c0-1.673,1.36-3.033,3.032-3.033c0.616,0,1.183,0.171,1.682,0.508c0.194,0.132,0.395,0.257,0.599,0.375
	l26.39,15.237c0.057,0.033,0.111,0.068,0.165,0.104c0.168,0.11,0.339,0.216,0.513,0.316l26.464,15.277
	c1.423,0.818,1.915,2.642,1.101,4.059c-0.277,0.482-0.656,0.858-1.129,1.12c-0.049,0.027-0.098,0.055-0.147,0.083l-26.97,15.57
	c-0.204,0.118-0.403,0.242-0.597,0.373l-26.567,15.339c-0.465,0.27-0.967,0.406-1.491,0.406c-0.408,0-1.804-0.107-2.61-1.5
	c-0.27-0.467-0.406-0.971-0.406-1.498c0-0.248-0.009-0.494-0.027-0.739v-61.997H225.831z"/>
<path d="M361,347.471H233.564c-4.127-11.64-15.243-20.002-28.28-20.002s-24.153,8.362-28.28,20.002h-26.003c-5.523,0-10,4.478-10,10
	s4.477,10,10,10h26.003c4.129,11.638,15.243,19.998,28.279,19.998c13.036,0,24.15-8.36,28.279-19.998H361c5.522,0,10-4.478,10-10
	C371,351.948,366.523,347.471,361,347.471z M205.284,367.469c-5.514,0-10-4.486-10-10s4.486-10,10-10s10,4.486,10,10
	S210.797,367.469,205.284,367.469z"/>
<g>
</g>
<g>
</g>
<g>
</g>
<g>
</g>
<g>
</g>
<g>
</g>
<g>
</g>
<g>
</g>
<g>
</g>
<g>
</g>
<g>
</g>
<g>
</g>
<g>
</g>
<g>
</g>
<g>
</g>
</svg>
