<?xml version="1.0" encoding="iso-8859-1"?>
<!-- Generator: Adobe Illustrator 19.0.0, SVG Export Plug-In . SVG Version: 6.00 Build 0)  -->
<svg version="1.1" id="Capa_1" xmlns="http://www.w3.org/2000/svg" xmlns:xlink="http://www.w3.org/1999/xlink" x="0px" y="0px"
	 viewBox="0 0 512.002 512.002" style="enable-background:new 0 0 512.002 512.002;" xml:space="preserve">
<g>
	<path style="fill:#E1E6E9;" d="M462.001,9.999H49.999c-22,0-40,18-40,40v412.002c0,22,18,40,40,40h412.002c22,0,40-18,40-40V49.999
		C502.001,27.999,484.001,9.999,462.001,9.999L462.001,9.999z M56.001,160.999v-90l0.004-0.385l0.016-0.383l0.023-0.381l0.034-0.379
		l0.043-0.375l0.053-0.373l0.062-0.371l0.071-0.365l0.079-0.363l0.089-0.361l0.097-0.357l0.106-0.353l0.114-0.35l0.123-0.346
		l0.131-0.344l0.139-0.338l0.146-0.334l0.154-0.33l0.162-0.324l0.17-0.322l0.178-0.316l0.185-0.311l0.192-0.307l0.199-0.303
		l0.206-0.297l0.213-0.291l0.22-0.287l0.227-0.281l0.233-0.273l0.239-0.27l0.246-0.266l0.251-0.258l0.259-0.252l0.264-0.244
		l0.27-0.24l0.275-0.232l0.28-0.227l0.286-0.221l0.292-0.213l0.297-0.205l0.302-0.201l0.307-0.191l0.313-0.184l0.316-0.178
		l0.32-0.17l0.326-0.162l0.329-0.156l0.334-0.147l0.339-0.139l0.342-0.131l0.347-0.121l0.35-0.115l0.354-0.105l0.357-0.098
		l0.36-0.088l0.363-0.08l0.367-0.07l0.369-0.063l0.373-0.053l0.376-0.043l0.378-0.033l0.381-0.025l0.384-0.014l0.386-0.006h90
		c8.25,0,14.999,6.75,14.999,15s-6.749,15-14.999,15h-75v75c0,8.252-6.75,15-15,15S56.001,169.251,56.001,160.999L56.001,160.999z
		 M143.458,191.058c11.607-20.104,28.131-36.35,47.557-47.574L191,143.458c19.483-11.25,41.825-17.459,65-17.459
		s45.518,6.209,65,17.459c0.281,0.162,0.554,0.334,0.819,0.51c19.065,11.207,35.283,27.275,46.723,47.09
		c4.11,7.152,1.645,16.281-5.508,20.391c-7.15,4.109-16.28,1.645-20.391-5.508c-8.783-15.213-21.23-27.553-35.863-36.164
		c-0.263-0.133-0.522-0.271-0.779-0.42c-14.906-8.605-32.09-13.358-50.001-13.358s-35.095,4.752-50,13.358l-0.015-0.027
		l-0.044,0.027c-14.944,8.627-27.657,21.121-36.585,36.584c-4.109,7.152-13.239,9.617-20.391,5.508
		C141.814,207.339,139.349,198.21,143.458,191.058L143.458,191.058z M256,215.999c22.092,0,40,17.91,40,40c0,22.092-17.908,40-40,40
		c-22.091,0-40-17.908-40-40C216,233.909,233.909,215.999,256,215.999L256,215.999z M336.001,70.999c0-8.25,6.749-15,14.999-15h90
		l0.386,0.006l0.384,0.014l0.381,0.025l0.378,0.033l0.376,0.043l0.372,0.053l0.37,0.063l0.367,0.07l0.363,0.08l0.36,0.088
		l0.357,0.098l0.354,0.105l0.35,0.115l0.346,0.121l0.343,0.131l0.338,0.139l0.335,0.147l0.329,0.156l0.326,0.162l0.32,0.17
		l0.316,0.178l0.313,0.184l0.307,0.193l0.302,0.199l0.297,0.205l0.291,0.213l0.287,0.221l0.28,0.227l0.275,0.232l0.27,0.24
		l0.264,0.244l0.258,0.254l0.252,0.256l0.246,0.266l0.239,0.27l0.232,0.273l0.227,0.281l0.221,0.287l0.213,0.291l0.206,0.297
		l0.199,0.303l0.192,0.307l0.185,0.311l0.177,0.316l0.17,0.322l0.163,0.324l0.154,0.33l0.148,0.334l0.139,0.34l0.131,0.342
		l0.122,0.346l0.114,0.35l0.105,0.353l0.098,0.357l0.088,0.361l0.08,0.363l0.07,0.365l0.061,0.371l0.054,0.373l0.043,0.375
		l0.033,0.379l0.025,0.381l0.014,0.383L456,70.999v90c0,8.252-6.75,15-15,15s-15-6.748-15-15v-75h-75
		C342.75,85.999,336.001,79.249,336.001,70.999L336.001,70.999z M148.966,300.55c7.151-4.109,16.281-1.643,20.391,5.508
		c8.783,15.213,21.231,27.555,35.863,36.164c0.263,0.133,0.522,0.273,0.78,0.422c14.905,8.605,32.089,13.355,50,13.355
		s35.095-4.75,50.001-13.355l0.015,0.025l0.043-0.025c14.944-8.629,27.658-21.123,36.585-36.586c4.11-7.15,13.24-9.617,20.391-5.508
		c7.152,4.111,9.618,13.24,5.508,20.393c-11.605,20.102-28.131,36.35-47.557,47.574l0.015,0.025
		c-19.482,11.248-41.825,17.457-65,17.457s-45.517-6.209-65-17.457c-0.28-0.162-0.553-0.334-0.819-0.512
		c-19.064-11.205-35.283-27.273-46.723-47.088C139.349,313.79,141.814,304.661,148.966,300.55L148.966,300.55z M86.001,425.999h75
		c8.25,0,14.999,6.75,14.999,15s-6.749,15-14.999,15h-90l-0.386-0.004l-0.384-0.016l-0.381-0.023l-0.378-0.035l-0.376-0.043
		l-0.373-0.053l-0.369-0.06l-0.367-0.07l-0.363-0.08l-0.361-0.088l-0.356-0.098l-0.354-0.105l-0.35-0.115l-0.347-0.123l-0.342-0.131
		l-0.339-0.139l-0.334-0.146l-0.329-0.154l-0.326-0.162l-0.32-0.17l-0.316-0.178l-0.313-0.186l-0.307-0.191l-0.303-0.199
		l-0.296-0.207l-0.292-0.211l-0.286-0.221l-0.28-0.227l-0.275-0.232l-0.27-0.24l-0.264-0.246l-0.259-0.252l-0.251-0.258
		l-0.246-0.264l-0.24-0.27l-0.232-0.275l-0.227-0.281l-0.22-0.285l-0.213-0.293l-0.206-0.297l-0.199-0.301l-0.192-0.307
		l-0.185-0.313l-0.178-0.316l-0.17-0.32l-0.162-0.326l-0.154-0.33l-0.147-0.334l-0.138-0.338l-0.132-0.342l-0.122-0.346l-0.114-0.35
		l-0.106-0.354l-0.097-0.357l-0.089-0.361l-0.079-0.363l-0.071-0.367l-0.062-0.369l-0.053-0.373l-0.043-0.375l-0.034-0.379
		l-0.023-0.381l-0.016-0.383L56,440.999v-90c0-8.25,6.75-15,15-15s15,6.75,15,15L86.001,425.999L86.001,425.999z M351,425.999h75
		v-75c0-8.25,6.75-15,15-15s15,6.75,15,15v90l-0.005,0.387l-0.014,0.383l-0.025,0.381l-0.033,0.379l-0.043,0.375l-0.054,0.373
		l-0.061,0.369l-0.07,0.367l-0.08,0.363l-0.088,0.361l-0.098,0.357l-0.105,0.354l-0.114,0.35l-0.123,0.346l-0.13,0.342l-0.14,0.338
		l-0.147,0.336l-0.154,0.328l-0.163,0.326l-0.17,0.32l-0.177,0.316l-0.185,0.313l-0.193,0.307l-0.198,0.303l-0.206,0.297
		l-0.213,0.291l-0.221,0.285l-0.227,0.281l-0.232,0.275l-0.239,0.27l-0.246,0.264l-0.252,0.258l-0.258,0.252l-0.264,0.246
		l-0.27,0.24l-0.275,0.232l-0.28,0.227l-0.287,0.221l-0.291,0.213l-0.297,0.205l-0.303,0.199l-0.306,0.191l-0.313,0.186
		l-0.316,0.178l-0.321,0.17l-0.325,0.162l-0.33,0.154l-0.334,0.146l-0.338,0.139l-0.343,0.131l-0.346,0.123l-0.35,0.115
		l-0.354,0.105l-0.357,0.098l-0.36,0.088l-0.363,0.08l-0.367,0.07l-0.37,0.06l-0.372,0.053l-0.376,0.043l-0.378,0.035l-0.382,0.023
		l-0.383,0.016L441,455.999h-90c-8.25,0-14.999-6.75-14.999-15S342.75,425.999,351,425.999z"/>
	<g>
		<path style="fill:#4AD194;" d="M86.001,160.999v-75h75c8.25,0,14.999-6.75,14.999-15s-6.749-15-14.999-15h-90l-0.386,0.006
			l-0.384,0.014l-0.381,0.025l-0.378,0.033l-0.376,0.043l-0.373,0.053l-0.369,0.063l-0.367,0.07l-0.363,0.08l-0.36,0.088
			l-0.357,0.098l-0.354,0.105l-0.35,0.115l-0.347,0.121l-0.342,0.131l-0.339,0.139l-0.334,0.147l-0.329,0.156l-0.326,0.162
			l-0.32,0.17l-0.316,0.178l-0.313,0.184l-0.307,0.191l-0.302,0.201l-0.297,0.205l-0.292,0.213l-0.286,0.221l-0.28,0.227
			l-0.275,0.232l-0.27,0.24l-0.264,0.244l-0.259,0.252l-0.251,0.258l-0.246,0.266l-0.239,0.27l-0.233,0.273l-0.227,0.281
			l-0.22,0.287l-0.213,0.291l-0.206,0.297l-0.199,0.303l-0.192,0.307l-0.185,0.311l-0.178,0.316l-0.17,0.322l-0.162,0.324
			l-0.154,0.33l-0.146,0.334l-0.139,0.338l-0.131,0.344l-0.123,0.346l-0.114,0.35l-0.106,0.353l-0.097,0.357l-0.089,0.361
			l-0.079,0.363l-0.071,0.365l-0.062,0.371l-0.053,0.373l-0.043,0.375l-0.034,0.379l-0.023,0.381l-0.016,0.383L56,71v90
			c0,8.252,6.75,15,15,15S86.001,169.251,86.001,160.999z"/>
		<path style="fill:#4AD194;" d="M191.015,143.483c-19.426,11.225-35.95,27.471-47.557,47.574
			c-4.109,7.152-1.643,16.281,5.508,20.391c7.151,4.109,16.281,1.645,20.391-5.508c8.928-15.463,21.641-27.957,36.585-36.584
			l0.044-0.027l0.015,0.027c14.905-8.605,32.089-13.358,50-13.358s35.095,4.752,50.001,13.358c0.257,0.148,0.517,0.287,0.779,0.42
			c14.633,8.611,27.08,20.951,35.863,36.164c4.11,7.152,13.24,9.617,20.391,5.508c7.152-4.109,9.618-13.238,5.508-20.391
			c-11.439-19.814-27.657-35.883-46.723-47.09c-0.266-0.176-0.538-0.348-0.819-0.51c-19.482-11.25-41.825-17.459-65-17.459
			s-45.517,6.209-65,17.459L191.015,143.483z"/>
		<circle style="fill:#4AD194;" cx="256" cy="256" r="40"/>
		<path style="fill:#4AD194;" d="M256,355.999c-17.911,0-35.095-4.75-50-13.355c-0.258-0.148-0.518-0.289-0.78-0.422
			c-14.632-8.609-27.08-20.951-35.863-36.164c-4.109-7.15-13.239-9.617-20.391-5.508c-7.151,4.111-9.617,13.24-5.508,20.393
			c11.44,19.814,27.658,35.883,46.723,47.088c0.267,0.178,0.539,0.35,0.819,0.512C210.483,379.791,232.825,386,256,386
			s45.518-6.209,65-17.457l-0.015-0.025c19.426-11.225,35.951-27.473,47.557-47.574c4.11-7.152,1.645-16.281-5.508-20.393
			c-7.15-4.109-16.28-1.643-20.391,5.508c-8.927,15.463-21.641,27.957-36.585,36.586l-0.043,0.025L306,342.645
			C291.095,351.249,273.911,355.999,256,355.999z"/>
		<path style="fill:#4AD194;" d="M176,440.999c0-8.25-6.749-15-14.999-15h-75v-75c0-8.25-6.75-15-15-15s-15,6.75-15,15v90
			l0.004,0.387l0.016,0.383l0.023,0.381l0.034,0.379l0.043,0.375l0.053,0.373l0.062,0.369l0.071,0.367l0.079,0.363l0.089,0.361
			l0.097,0.357l0.106,0.354l0.114,0.35l0.122,0.346l0.132,0.342l0.138,0.338l0.147,0.334l0.154,0.33l0.162,0.326l0.17,0.32
			l0.178,0.316l0.185,0.313l0.192,0.307l0.199,0.301l0.206,0.297l0.213,0.293l0.22,0.285l0.227,0.281l0.232,0.275l0.24,0.27
			l0.246,0.264l0.251,0.258l0.259,0.252l0.264,0.246l0.27,0.24l0.275,0.232l0.28,0.227l0.286,0.221l0.292,0.211l0.296,0.207
			l0.303,0.199l0.307,0.191l0.313,0.186l0.316,0.178l0.32,0.17l0.326,0.162l0.329,0.154l0.334,0.146l0.339,0.139l0.342,0.131
			l0.347,0.123l0.35,0.115l0.354,0.105l0.356,0.098l0.361,0.088l0.363,0.08l0.367,0.07l0.369,0.06l0.373,0.053l0.376,0.043
			l0.378,0.035l0.381,0.023l0.384,0.016l0.386,0.004h90C169.251,455.999,176,449.249,176,440.999z"/>
		<path style="fill:#4AD194;" d="M351,425.999c-8.25,0-14.999,6.75-14.999,15s6.749,15,14.999,15h90l0.386-0.004l0.383-0.016
			l0.382-0.023l0.378-0.035l0.376-0.043l0.372-0.053l0.37-0.06l0.367-0.07l0.363-0.08l0.36-0.088l0.357-0.098l0.354-0.105
			l0.35-0.115l0.346-0.123l0.343-0.131l0.338-0.139l0.334-0.146l0.33-0.154l0.325-0.162l0.321-0.17l0.316-0.178l0.313-0.186
			l0.306-0.191l0.303-0.199l0.297-0.205l0.291-0.213l0.287-0.221l0.28-0.227l0.275-0.232l0.27-0.24l0.264-0.246l0.258-0.252
			l0.252-0.258l0.246-0.264l0.239-0.27l0.232-0.275l0.227-0.281l0.221-0.285l0.213-0.291l0.206-0.297l0.198-0.303l0.193-0.307
			l0.185-0.313l0.177-0.316l0.17-0.32l0.163-0.326l0.154-0.328l0.147-0.336l0.14-0.338l0.13-0.342l0.123-0.346l0.114-0.35
			l0.105-0.354l0.098-0.357l0.088-0.361l0.08-0.363l0.07-0.367l0.061-0.369l0.054-0.373l0.043-0.375l0.033-0.379l0.025-0.381
			l0.014-0.383l0.005-0.387v-90c0-8.25-6.75-15-15-15s-15,6.75-15,15v75L351,425.999L351,425.999z"/>
		<path style="fill:#4AD194;" d="M426,160.999c0,8.252,6.75,15,15,15s15-6.748,15-15v-90l-0.005-0.385l-0.014-0.383l-0.025-0.381
			l-0.033-0.379l-0.043-0.375l-0.054-0.373l-0.061-0.371l-0.07-0.365l-0.08-0.363l-0.088-0.361l-0.098-0.357l-0.105-0.353
			l-0.114-0.35l-0.122-0.346l-0.131-0.342l-0.139-0.34l-0.148-0.334l-0.154-0.33l-0.163-0.324l-0.17-0.322l-0.177-0.316
			l-0.185-0.311l-0.192-0.307l-0.199-0.303l-0.206-0.297l-0.213-0.291l-0.221-0.287l-0.227-0.281l-0.232-0.273l-0.239-0.27
			l-0.246-0.266l-0.252-0.256l-0.258-0.254l-0.264-0.244l-0.27-0.24l-0.275-0.232l-0.28-0.227l-0.287-0.221l-0.291-0.213
			l-0.297-0.205l-0.302-0.199l-0.307-0.193l-0.313-0.184l-0.316-0.178l-0.32-0.17l-0.326-0.162l-0.329-0.156l-0.335-0.147
			l-0.338-0.139l-0.343-0.131l-0.346-0.121l-0.35-0.115l-0.354-0.105l-0.357-0.098l-0.36-0.088l-0.363-0.08l-0.367-0.07l-0.37-0.063
			l-0.372-0.053l-0.376-0.043l-0.378-0.033l-0.381-0.025l-0.384-0.014L441,55.999h-90c-8.25,0-14.999,6.75-14.999,15
			s6.749,15,14.999,15h75V160.999z"/>
	</g>
</g>
<path d="M466.001,161V71c0-0.229-0.003-0.459-0.01-0.688c-0.003-0.133-0.01-0.339-0.02-0.542c-0.015-0.281-0.028-0.484-0.044-0.688
	c-0.007-0.105-0.023-0.286-0.04-0.468c-0.005-0.049-0.017-0.182-0.023-0.23l-0.06-0.528c-0.038-0.286-0.067-0.495-0.101-0.701
	c-0.021-0.146-0.059-0.371-0.1-0.597c-0.027-0.158-0.072-0.393-0.121-0.624c-0.041-0.194-0.084-0.391-0.13-0.587
	c-0.024-0.108-0.068-0.288-0.113-0.469c-0.009-0.036-0.029-0.118-0.039-0.153l-0.138-0.505c-0.065-0.231-0.123-0.425-0.182-0.615
	l-0.184-0.565c-0.014-0.04-0.027-0.079-0.041-0.119l-0.374-1.017c-0.018-0.047-0.039-0.101-0.058-0.146l-0.19-0.462
	c-0.108-0.251-0.186-0.43-0.264-0.598c-0.08-0.178-0.162-0.354-0.247-0.528c-0.117-0.239-0.203-0.413-0.292-0.585
	c-0.068-0.134-0.166-0.319-0.27-0.507c-0.105-0.196-0.214-0.389-0.325-0.579c-0.056-0.098-0.154-0.265-0.255-0.431
	c-0.138-0.226-0.24-0.389-0.346-0.553c-0.107-0.165-0.214-0.328-0.322-0.487c-0.123-0.183-0.247-0.36-0.375-0.538
	c-0.06-0.086-0.173-0.241-0.29-0.399c-0.162-0.215-0.278-0.365-0.391-0.508c-0.125-0.161-0.253-0.319-0.383-0.476
	c-0.132-0.161-0.266-0.319-0.401-0.475c-0.129-0.149-0.26-0.296-0.392-0.44c-0.134-0.147-0.268-0.292-0.405-0.434
	c-0.136-0.144-0.272-0.284-0.411-0.422c-0.14-0.141-0.281-0.278-0.424-0.414c-0.157-0.151-0.316-0.299-0.477-0.443l-0.35-0.312
	c-0.03-0.026-0.06-0.054-0.092-0.08c-0.148-0.128-0.3-0.256-0.451-0.38l-0.753-0.597c-0.056-0.043-0.183-0.139-0.238-0.181
	c-0.177-0.13-0.327-0.239-0.477-0.344c-0.104-0.074-0.26-0.184-0.423-0.294c-0.167-0.114-0.336-0.225-0.505-0.333
	c-0.169-0.109-0.339-0.214-0.51-0.318c-0.123-0.077-0.329-0.199-0.539-0.319c-0.131-0.076-0.3-0.171-0.471-0.265
	c-0.202-0.111-0.403-0.219-0.606-0.321l-0.521-0.259c-0.169-0.082-0.367-0.176-0.568-0.266c-0.175-0.079-0.35-0.156-0.525-0.229
	c-0.188-0.081-0.375-0.157-0.564-0.232c-0.193-0.076-0.388-0.151-0.583-0.223c-0.2-0.074-0.402-0.146-0.605-0.214l-0.516-0.17
	c-0.05-0.016-0.099-0.03-0.147-0.045c-0.219-0.066-0.37-0.112-0.521-0.154c-0.18-0.051-0.361-0.101-0.544-0.148
	c-0.044-0.012-0.088-0.022-0.131-0.033l-0.397-0.097c-0.044-0.011-0.088-0.021-0.131-0.03c-0.182-0.042-0.363-0.082-0.548-0.12
	c-0.05-0.011-0.1-0.021-0.15-0.03c-0.224-0.044-0.378-0.074-0.533-0.101c-0.189-0.033-0.392-0.066-0.596-0.097
	c-0.184-0.028-0.368-0.055-0.552-0.078c-0.228-0.031-0.457-0.058-0.688-0.08c-0.202-0.021-0.405-0.039-0.607-0.055
	c-0.214-0.017-0.421-0.03-0.628-0.04c-0.2-0.011-0.401-0.019-0.602-0.024c-0.052-0.002-0.105-0.003-0.157-0.004L441.001,46h-90
	c-13.784,0-24.999,11.215-24.999,25s11.215,25,24.999,25h65v65c0,13.785,11.215,25,25,25S466.001,174.785,466.001,161z M446.001,161
	c0,2.71-2.29,5-5,5s-5-2.29-5-5V86c0-5.522-4.478-10-10-10h-75c-2.71,0-4.999-2.29-4.999-5s2.289-5,4.999-5l90.2,0.003
	c0.052,0.004,0.058,0.004,0.109,0.006c0.051,0.006,0.242,0.021,0.293,0.026c0.056,0.009,0.216,0.032,0.271,0.04l0.737,0.194
	c0.056,0.021,0.123,0.046,0.179,0.065c0.044,0.02,0.138,0.059,0.182,0.077c0.056,0.025,0.115,0.052,0.171,0.076l0.294,0.157
	c0.027,0.018,0.095,0.057,0.123,0.073c0.061,0.041,0.125,0.079,0.188,0.118l0.631,0.5c0.028,0.027,0.065,0.063,0.094,0.09
	c0.027,0.027,0.065,0.065,0.092,0.092c0.026,0.027,0.063,0.065,0.089,0.093c0.025,0.027,0.063,0.069,0.088,0.096
	c0.024,0.027,0.061,0.072,0.086,0.099c0.034,0.043,0.046,0.058,0.081,0.1l0.239,0.324c0.023,0.037,0.087,0.135,0.111,0.172
	l0.075,0.125c0.022,0.043,0.084,0.151,0.107,0.194l0.128,0.263c0.008,0.019,0.053,0.122,0.061,0.142l0.278,0.912
	c0.004,0.025,0.016,0.087,0.02,0.112s0.018,0.115,0.023,0.142l0.02,0.152c0.003,0.023,0.005,0.047,0.005,0.05
	c0.002,0.025,0.009,0.099,0.011,0.124L446.001,71V161z"/>
<path d="M462.002,0H50C22.43,0,0,22.43,0,50v412.002c0,27.57,22.43,50,50,50h412.002c27.57,0,50-22.43,50-50V50
	C512.002,22.43,489.572,0,462.002,0z M492.002,462.002c0,16.542-13.458,30-30,30H50c-16.542,0-30-13.458-30-30V50
	c0-16.542,13.458-30,30-30h412.002c16.542,0,30,13.458,30,30V462.002z"/>
<path d="M71.002,186c13.785,0,25-11.215,25-25V96h65c13.784,0,24.999-11.215,24.999-25s-11.215-25-24.999-25h-90
	c-0.23,0-0.461,0.004-0.701,0.011l-0.529,0.02c-0.051,0.002-0.103,0.005-0.153,0.008l-1.071,0.083
	c-0.051,0.005-0.102,0.01-0.151,0.016L67.859,46.2c-0.155,0.02-0.311,0.041-0.536,0.074c-0.055,0.008-0.12,0.018-0.175,0.026
	c-0.193,0.031-0.388,0.063-0.581,0.099c-0.211,0.038-0.42,0.078-0.612,0.118c-0.184,0.038-0.366,0.079-0.531,0.117
	c-0.227,0.051-0.451,0.105-0.695,0.169l-0.523,0.143c-0.224,0.063-0.446,0.13-0.668,0.2c-0.221,0.069-0.439,0.141-0.658,0.218
	l-0.372,0.13c-0.056,0.021-0.111,0.041-0.167,0.062l-1.014,0.401c-0.055,0.023-0.109,0.047-0.164,0.07l-0.364,0.16
	c-0.044,0.02-0.089,0.039-0.133,0.06c-0.176,0.081-0.352,0.165-0.492,0.233c-0.192,0.093-0.384,0.187-0.573,0.285
	c-0.167,0.086-0.334,0.174-0.498,0.265c-0.201,0.107-0.393,0.216-0.528,0.296c-0.17,0.097-0.336,0.194-0.502,0.295
	c-0.187,0.112-0.37,0.228-0.554,0.348c-0.17,0.108-0.336,0.218-0.471,0.31c-0.172,0.116-0.345,0.235-0.555,0.386l-0.902,0.677
	c-0.168,0.132-0.335,0.267-0.459,0.37c-0.151,0.124-0.303,0.252-0.45,0.379c-0.169,0.146-0.337,0.294-0.501,0.445
	c-0.141,0.128-0.28,0.258-0.42,0.391c-0.144,0.137-0.284,0.274-0.423,0.414c-0.139,0.139-0.276,0.279-0.409,0.418
	c-0.145,0.151-0.286,0.303-0.425,0.457c-0.123,0.135-0.246,0.274-0.378,0.425l-0.341,0.401c-0.036,0.042-0.071,0.085-0.106,0.128
	l-0.305,0.379c-0.021,0.027-0.042,0.054-0.063,0.08l-0.298,0.39c-0.117,0.155-0.232,0.313-0.348,0.474
	c-0.128,0.177-0.252,0.356-0.374,0.537c-0.109,0.161-0.217,0.325-0.323,0.49c-0.117,0.183-0.233,0.366-0.346,0.553l-0.543,0.938
	c-0.024,0.044-0.048,0.087-0.071,0.132l-0.527,1.029c-0.085,0.176-0.168,0.354-0.244,0.523c-0.082,0.179-0.16,0.357-0.262,0.593
	c-0.084,0.2-0.164,0.396-0.222,0.545c-0.07,0.177-0.139,0.354-0.231,0.604c-0.068,0.187-0.134,0.373-0.197,0.559
	c-0.068,0.202-0.136,0.408-0.177,0.542c-0.064,0.203-0.126,0.407-0.206,0.688l-0.137,0.505c-0.054,0.205-0.104,0.413-0.162,0.661
	c-0.044,0.189-0.086,0.383-0.12,0.548c-0.041,0.197-0.08,0.397-0.116,0.595c-0.007,0.034-0.013,0.069-0.02,0.104l-0.186,1.224
	c-0.025,0.202-0.049,0.403-0.069,0.605c-0.021,0.205-0.039,0.413-0.056,0.623c-0.018,0.23-0.032,0.457-0.038,0.609
	c-0.012,0.204-0.02,0.408-0.027,0.693c-0.005,0.205-0.007,0.406-0.007,0.611v90C46.002,174.785,57.217,186,71.002,186z
	 M66.007,70.77c0.002-0.027,0.008-0.123,0.009-0.15l0.063-0.493l0.29-0.993c0.011-0.025,0.054-0.122,0.064-0.147l0.743-1.179
	c0.023-0.026,0.061-0.07,0.085-0.098c0.038-0.042,0.09-0.097,0.128-0.14l0.235-0.231c0.043-0.038,0.054-0.048,0.096-0.087l0.1-0.085
	c0.013-0.011,0.09-0.073,0.104-0.084l0.252-0.188c0.038-0.025,0.076-0.051,0.113-0.077l0.241-0.148
	c0.016-0.009,0.046-0.026,0.071-0.041c0.06-0.031,0.128-0.068,0.172-0.093l0.617-0.263c0.047-0.016,0.048-0.016,0.095-0.032
	l0.59-0.151c0.056-0.01,0.048-0.009,0.104-0.02l0.44-0.053L161.002,66c2.71,0,4.999,2.29,4.999,5s-2.289,5-4.999,5h-75
	c-5.522,0-10,4.478-10,10v75c0,2.71-2.29,5-5,5s-5-2.29-5-5V71l-0.001-0.081L66.007,70.77z"/>
<path d="M46.002,351v90c0,0.205,0.002,0.406,0.007,0.611c0.008,0.285,0.016,0.489,0.027,0.693c0.006,0.152,0.021,0.379,0.038,0.609
	c0.017,0.21,0.035,0.418,0.056,0.623c0.02,0.202,0.044,0.403,0.069,0.605l0.186,1.224c0.007,0.034,0.013,0.069,0.02,0.103
	c0.036,0.197,0.075,0.397,0.116,0.595c0.034,0.165,0.076,0.358,0.12,0.548c0.058,0.248,0.108,0.456,0.162,0.661l0.137,0.505
	c0.08,0.28,0.142,0.484,0.206,0.688c0.041,0.134,0.108,0.34,0.177,0.542c0.063,0.186,0.129,0.373,0.197,0.559
	c0.093,0.25,0.161,0.427,0.231,0.604c0.058,0.148,0.138,0.345,0.222,0.545c0.102,0.235,0.18,0.414,0.262,0.593
	c0.076,0.168,0.159,0.347,0.244,0.522l0.527,1.029c0.023,0.045,0.047,0.088,0.071,0.132l0.543,0.939
	c0.112,0.186,0.229,0.37,0.346,0.553c0.106,0.165,0.214,0.329,0.323,0.49c0.122,0.181,0.246,0.36,0.374,0.537
	c0.115,0.16,0.23,0.318,0.348,0.474l0.298,0.39c0.021,0.026,0.041,0.053,0.063,0.08l0.305,0.379c0.035,0.043,0.07,0.086,0.106,0.128
	l0.341,0.401c0.132,0.151,0.255,0.29,0.378,0.425c0.139,0.154,0.28,0.306,0.425,0.457c0.133,0.139,0.271,0.279,0.409,0.418
	c0.139,0.14,0.279,0.277,0.423,0.414c0.14,0.133,0.279,0.263,0.42,0.391c0.164,0.151,0.332,0.3,0.501,0.445
	c0.147,0.127,0.299,0.255,0.45,0.379c0.124,0.104,0.291,0.238,0.459,0.37l0.902,0.677c0.21,0.15,0.383,0.27,0.555,0.386
	c0.135,0.092,0.301,0.201,0.471,0.31c0.184,0.119,0.367,0.235,0.554,0.348c0.166,0.101,0.332,0.198,0.502,0.295
	c0.136,0.08,0.327,0.189,0.528,0.296c0.164,0.091,0.331,0.179,0.498,0.265c0.19,0.099,0.381,0.192,0.573,0.285
	c0.141,0.068,0.317,0.152,0.492,0.233c0.044,0.021,0.089,0.04,0.133,0.06l0.364,0.16c0.055,0.023,0.109,0.047,0.164,0.07
	l1.014,0.401c0.056,0.021,0.111,0.041,0.167,0.062l0.372,0.13c0.219,0.077,0.438,0.148,0.658,0.218
	c0.222,0.07,0.444,0.137,0.668,0.2l0.523,0.143c0.244,0.063,0.469,0.118,0.695,0.169c0.165,0.038,0.348,0.079,0.531,0.117
	c0.192,0.04,0.401,0.08,0.612,0.118c0.193,0.035,0.388,0.067,0.581,0.099c0.055,0.009,0.12,0.019,0.175,0.026
	c0.226,0.033,0.381,0.055,0.536,0.074l0.538,0.061c0.05,0.006,0.101,0.011,0.151,0.016l1.071,0.083
	c0.051,0.003,0.103,0.006,0.153,0.008l0.529,0.02c0.24,0.007,0.471,0.011,0.701,0.011h90c13.784,0,24.999-11.215,24.999-25
	s-11.215-25-24.999-25H96v-65c0-13.785-11.215-25-25-25S46.002,337.215,46.002,351z M66.001,441.081L66.002,441v-90
	c0-2.71,2.29-5,5-5s5,2.29,5,5v75c0,5.522,4.478,10,10,10h75c2.71,0,4.999,2.29,4.999,5s-2.289,5-4.999,5l-90.383-0.016l-0.44-0.053
	c-0.056-0.011-0.048-0.01-0.104-0.02l-0.59-0.151c-0.047-0.017-0.048-0.017-0.095-0.032l-0.617-0.263
	c-0.044-0.024-0.112-0.062-0.172-0.093c-0.025-0.015-0.056-0.032-0.071-0.041l-0.241-0.148c-0.037-0.026-0.075-0.052-0.113-0.077
	l-0.252-0.189c-0.014-0.011-0.091-0.073-0.104-0.084l-0.1-0.085c-0.042-0.039-0.053-0.049-0.096-0.087l-0.235-0.232
	c-0.038-0.043-0.09-0.098-0.128-0.14c-0.024-0.027-0.062-0.071-0.085-0.098l-0.743-1.179c-0.011-0.025-0.054-0.122-0.064-0.147
	l-0.29-0.993l-0.063-0.493c-0.001-0.027-0.007-0.123-0.009-0.15L66.001,441.081z"/>
<path d="M441.001,326c-13.785,0-25,11.215-25,25v65h-65c-13.784,0-24.999,11.215-24.999,25s11.215,25,24.999,25h90l0.537-0.005
	c0.052-0.001,0.105-0.002,0.157-0.004c0.2-0.006,0.401-0.014,0.602-0.025c0.207-0.01,0.414-0.023,0.628-0.04
	c0.202-0.016,0.405-0.034,0.607-0.055c0.23-0.022,0.459-0.049,0.688-0.08c0.184-0.023,0.368-0.05,0.552-0.078
	c0.204-0.03,0.406-0.064,0.596-0.097c0.155-0.027,0.31-0.058,0.533-0.102c0.051-0.01,0.101-0.02,0.15-0.03
	c0.185-0.038,0.366-0.078,0.548-0.12c0.043-0.01,0.087-0.02,0.131-0.03l0.397-0.097c0.043-0.011,0.087-0.022,0.131-0.033
	c0.183-0.048,0.364-0.098,0.544-0.148c0.151-0.042,0.303-0.088,0.521-0.154c0.049-0.015,0.098-0.029,0.147-0.045l0.516-0.17
	c0.203-0.068,0.405-0.14,0.605-0.214c0.195-0.071,0.39-0.146,0.583-0.223c0.189-0.075,0.377-0.151,0.564-0.232
	c0.176-0.073,0.351-0.15,0.525-0.229c0.201-0.09,0.399-0.184,0.568-0.266l0.521-0.259c0.203-0.103,0.404-0.21,0.606-0.321
	c0.171-0.094,0.34-0.188,0.471-0.265c0.21-0.12,0.416-0.242,0.539-0.319c0.171-0.104,0.341-0.209,0.51-0.318
	c0.169-0.108,0.338-0.219,0.505-0.333c0.163-0.11,0.319-0.22,0.423-0.294c0.149-0.104,0.3-0.214,0.477-0.344
	c0.056-0.042,0.183-0.138,0.238-0.181l0.753-0.597c0.151-0.124,0.303-0.252,0.451-0.38c0.031-0.026,0.062-0.054,0.092-0.08
	l0.35-0.312c0.16-0.145,0.319-0.292,0.477-0.443c0.143-0.136,0.284-0.273,0.424-0.414c0.139-0.138,0.275-0.278,0.411-0.422
	c0.137-0.142,0.272-0.286,0.405-0.434c0.132-0.145,0.263-0.291,0.392-0.44c0.136-0.155,0.27-0.314,0.401-0.475
	c0.13-0.156,0.258-0.314,0.383-0.476c0.112-0.143,0.228-0.293,0.391-0.508c0.117-0.158,0.23-0.313,0.29-0.399
	c0.128-0.178,0.252-0.355,0.375-0.538c0.108-0.159,0.216-0.322,0.322-0.487c0.105-0.164,0.208-0.327,0.346-0.553
	c0.1-0.166,0.199-0.333,0.255-0.431c0.111-0.19,0.22-0.383,0.325-0.579c0.104-0.188,0.201-0.373,0.27-0.507
	c0.089-0.172,0.175-0.346,0.292-0.585c0.085-0.175,0.167-0.351,0.247-0.528c0.077-0.168,0.155-0.347,0.264-0.598l0.19-0.462
	c0.018-0.046,0.04-0.1,0.058-0.146l0.374-1.017c0.014-0.04,0.027-0.079,0.041-0.119l0.184-0.565c0.059-0.19,0.116-0.385,0.182-0.615
	l0.138-0.505c0.01-0.035,0.03-0.117,0.039-0.153c0.045-0.181,0.089-0.36,0.113-0.469c0.046-0.196,0.089-0.393,0.13-0.587
	c0.049-0.232,0.094-0.466,0.121-0.624c0.041-0.226,0.078-0.45,0.1-0.597c0.033-0.206,0.063-0.415,0.101-0.701l0.06-0.528
	c0.006-0.049,0.019-0.182,0.023-0.23c0.017-0.182,0.033-0.362,0.04-0.468c0.016-0.203,0.029-0.406,0.044-0.688
	c0.01-0.203,0.017-0.409,0.02-0.542c0.007-0.229,0.01-0.459,0.01-0.689v-90C466.001,337.215,454.786,326,441.001,326z M446.001,441
	l-0.015,0.383c-0.002,0.025-0.009,0.099-0.011,0.124c0,0.003-0.002,0.026-0.005,0.05l-0.02,0.152
	c-0.005,0.026-0.02,0.116-0.023,0.142c-0.004,0.025-0.016,0.087-0.02,0.112l-0.278,0.912c-0.008,0.02-0.053,0.123-0.061,0.142
	l-0.128,0.263c-0.023,0.043-0.085,0.151-0.107,0.194l-0.075,0.125c-0.024,0.037-0.088,0.135-0.111,0.172l-0.239,0.324
	c-0.035,0.042-0.047,0.057-0.081,0.1c-0.024,0.026-0.062,0.071-0.086,0.099c-0.025,0.026-0.063,0.068-0.088,0.096
	c-0.025,0.027-0.063,0.065-0.089,0.093c-0.027,0.027-0.065,0.064-0.092,0.092c-0.028,0.027-0.065,0.063-0.094,0.09l-0.631,0.5
	c-0.063,0.039-0.126,0.077-0.188,0.118c-0.028,0.017-0.096,0.056-0.123,0.073l-0.294,0.157c-0.056,0.024-0.115,0.051-0.171,0.076
	c-0.044,0.019-0.138,0.058-0.182,0.077c-0.056,0.02-0.123,0.044-0.179,0.065l-0.737,0.194c-0.056,0.008-0.216,0.031-0.271,0.04
	c-0.051,0.005-0.242,0.021-0.293,0.026c-0.052,0.002-0.058,0.002-0.109,0.006L351,446c-2.71,0-4.999-2.29-4.999-5s2.289-5,4.999-5
	h75c5.522,0,10-4.478,10-10v-75c0-2.71,2.29-5,5-5s5,2.29,5,5v90H446.001z"/>
<path d="M333.975,210.924c4.435,7.719,12.725,12.514,21.634,12.514c4.342,0,8.633-1.147,12.408-3.317
	c5.775-3.318,9.913-8.688,11.65-15.117c1.737-6.431,0.866-13.151-2.463-18.944c-12.042-20.858-29.364-38.346-50.105-50.587
	c-0.358-0.232-0.726-0.459-1.096-0.673c-21.3-12.299-45.505-18.8-70.002-18.8c-24.495,0-48.701,6.501-70,18.799
	c-0.234,0.135-0.46,0.278-0.679,0.429c-20.933,12.256-38.392,29.818-50.534,50.85c-6.85,11.921-2.724,27.192,9.196,34.042
	c3.777,2.171,8.069,3.318,12.41,3.318c8.909,0,17.198-4.795,21.623-12.496c7.771-13.461,18.942-24.713,32.337-32.581
	c0.219-0.106,0.435-0.221,0.646-0.343C224.617,170.156,240.179,166,256,166s31.383,4.155,44.996,12.015
	c0.315,0.182,0.631,0.355,0.95,0.521C315.204,186.393,326.277,197.593,333.975,210.924z M311.293,160.853
	c-0.097-0.048-0.192-0.099-0.291-0.155C294.347,151.082,275.328,146,256.001,146c-19.076,0-37.852,4.951-54.35,14.324
	c-0.24,0.115-0.477,0.239-0.708,0.373c-16.691,9.635-30.608,23.552-40.257,40.263c-1.05,1.827-2.905,2.477-4.292,2.477
	c-0.862,0-1.685-0.222-2.445-0.658c-2.359-1.356-3.176-4.379-1.83-6.721c10.514-18.21,25.693-33.396,43.899-43.916
	c0.214-0.123,0.422-0.254,0.623-0.391C214.749,141.444,235.256,136,256.001,136c20.99,0,41.738,5.573,60.007,16.123
	c0.1,0.058,0.198,0.121,0.294,0.185c0.148,0.098,0.298,0.192,0.451,0.282c17.858,10.497,32.772,25.528,43.12,43.451
	c0.886,1.543,0.685,3.01,0.485,3.746c-0.199,0.737-0.763,2.105-2.306,2.992c-0.761,0.437-1.583,0.658-2.445,0.658
	c-1.796,0-3.4-0.927-4.303-2.496c-9.477-16.414-23.119-30.171-39.451-39.782C311.67,161.051,311.483,160.949,311.293,160.853z"/>
<path d="M377.213,325.926c6.851-11.92,2.727-27.192-9.195-34.045c-3.776-2.171-8.067-3.318-12.408-3.318
	c-8.908,0-17.198,4.795-21.625,12.496c-7.771,13.46-18.944,24.715-32.342,32.586c-0.217,0.105-0.431,0.219-0.641,0.34
	C287.386,341.845,271.824,346,256.001,346c-15.824,0-31.385-4.155-45.011-12.021c-0.309-0.178-0.619-0.349-0.932-0.513
	c-13.257-7.855-24.332-19.056-32.031-32.39c-4.436-7.719-12.726-12.514-21.634-12.514c-4.341,0-8.632,1.147-12.411,3.319
	c-11.918,6.852-16.043,22.123-9.184,34.061c12.04,20.855,29.358,38.34,50.094,50.578c0.36,0.234,0.729,0.462,1.108,0.682
	c21.301,12.297,45.506,18.797,70,18.797c24.495,0,48.701-6.5,70-18.797c0.229-0.133,0.453-0.273,0.67-0.424
	C347.607,364.523,365.069,346.959,377.213,325.926z M315.983,359.859c-0.214,0.123-0.422,0.254-0.623,0.391
	C297.254,370.557,276.746,376,256.001,376c-20.988,0-41.736-5.573-59.993-16.113c-0.096-0.056-0.189-0.115-0.279-0.176
	c-0.157-0.104-0.317-0.205-0.48-0.301c-17.858-10.496-32.773-25.526-43.119-43.448c-1.356-2.36-0.539-5.385,1.819-6.741
	c0.76-0.437,1.583-0.658,2.444-0.658c1.387,0,3.243,0.651,4.304,2.496c9.479,16.416,23.12,30.173,39.452,39.783
	c0.184,0.108,0.37,0.209,0.559,0.306c0.103,0.051,0.203,0.105,0.292,0.157C217.651,360.918,236.67,366,256,366
	c19.08,0,37.858-4.952,54.357-14.326c0.242-0.115,0.479-0.24,0.713-0.376c16.688-9.638,30.602-23.553,40.244-40.256
	c1.051-1.828,2.907-2.479,4.295-2.479c0.861,0,1.684,0.222,2.442,0.658c2.36,1.356,3.177,4.38,1.831,6.723
	C349.369,334.153,334.19,349.34,315.983,359.859z"/>
<path d="M256.001,206c-27.57,0-50,22.43-50,50s22.43,50,50,50s50-22.43,50-50S283.571,206,256.001,206z M256.001,286
	c-16.542,0-30-13.458-30-30s13.458-30,30-30s30,13.458,30,30S272.543,286,256.001,286z"/>
<path d="M225.984,81h0.269c5.522,0,10-4.478,10-10s-4.478-10-10-10h-0.269c-5.522,0-10,4.478-10,10S220.462,81,225.984,81z"/>
<path d="M254.984,81h31.034c5.523,0,10-4.478,10-10s-4.477-10-10-10h-31.034c-5.522,0-10,4.478-10,10
	C244.984,76.522,249.462,81,254.984,81z"/>
<path d="M71.002,275.748c-5.522,0-10,4.477-10,10v0.27c0,5.522,4.478,10,10,10s10-4.478,10-10v-0.27
	C81.002,280.226,76.524,275.748,71.002,275.748z"/>
<path d="M81.002,225.982c0-5.522-4.478-10-10-10s-10,4.478-10,10v31.035c0,5.522,4.478,10,10,10s10-4.478,10-10V225.982z"/>
<path d="M257.019,431h-31.034c-5.522,0-10,4.478-10,10s4.478,10,10,10h31.034c5.523,0,10-4.478,10-10S262.541,431,257.019,431z"/>
<path d="M286.019,431h-0.269c-5.523,0-10,4.478-10,10s4.477,10,10,10h0.269c5.523,0,10-4.478,10-10S291.541,431,286.019,431z"/>
<path d="M431.001,286.018c0,5.522,4.478,10,10,10s10-4.478,10-10v-31.035c0-5.522-4.478-10-10-10s-10,4.478-10,10V286.018z"/>
<path d="M441.001,236.252c5.522,0,10-4.477,10-10v-0.27c0-5.522-4.478-10-10-10s-10,4.478-10,10v0.27
	C431.001,231.775,435.479,236.252,441.001,236.252z"/>
<g>
</g>
<g>
</g>
<g>
</g>
<g>
</g>
<g>
</g>
<g>
</g>
<g>
</g>
<g>
</g>
<g>
</g>
<g>
</g>
<g>
</g>
<g>
</g>
<g>
</g>
<g>
</g>
<g>
</g>
</svg>
