<?xml version="1.0" encoding="iso-8859-1"?>
<!-- Generator: Adobe Illustrator 19.0.0, SVG Export Plug-In . SVG Version: 6.00 Build 0)  -->
<svg version="1.1" id="Capa_1" xmlns="http://www.w3.org/2000/svg" xmlns:xlink="http://www.w3.org/1999/xlink" x="0px" y="0px"
	 viewBox="0 0 511.999 511.999" style="enable-background:new 0 0 511.999 511.999;" xml:space="preserve">
<g>
	<path style="fill:#E1E6E9;" d="M136.011,255.999c0-66.266,53.722-119.988,119.989-119.988c66.266,0,119.988,53.722,119.988,119.988
		S322.267,375.987,256,375.987C189.733,375.987,136.011,322.267,136.011,255.999L136.011,255.999z M498.404,271.286L498.404,271.286
		L498.404,271.286z M13.596,240.716L13.596,240.716L13.596,240.716z M398.308,381.249c42.644-26.462,77.374-64.404,99.849-109.475
		l0.168-0.334l0.076-0.156c4.582-9.302,4.943-20.551,0.002-30.567c-22.469-45.286-57.298-83.406-100.095-109.964
		c-41.454-25.724-90.221-40.58-142.308-40.58c-52.088,0-100.855,14.856-142.309,40.58c-42.643,26.46-77.374,64.404-99.849,109.475
		l-0.168,0.334l-0.076,0.156c-4.582,9.302-4.944,20.551-0.001,30.567c22.468,45.286,57.295,83.404,100.094,109.964
		c41.454,25.724,90.221,40.578,142.309,40.578C308.087,421.827,356.854,406.973,398.308,381.249z"/>
	<path style="fill:#4AD194;" d="M256,136.011c-66.267,0-119.989,53.722-119.989,119.988S189.733,375.987,256,375.987
		c66.266,0,119.988-53.722,119.988-119.988S322.267,136.011,256,136.011L256,136.011z M196.006,255.999
		c0-33.134,26.859-59.994,59.994-59.994c9.365,0,18.229,2.148,26.126,5.974c0.637-0.891,1.354-1.742,2.155-2.543
		c7.809-7.81,20.472-7.81,28.28,0c7.81,7.81,7.81,20.473,0,28.28c-0.8,0.801-1.651,1.52-2.544,2.154
		c3.828,7.897,5.975,16.762,5.975,26.128c0,33.134-26.859,59.994-59.993,59.994C222.866,315.993,196.006,289.133,196.006,255.999z"
		/>
	<path style="fill:#636A75;" d="M256,196.005c-33.135,0-59.994,26.86-59.994,59.994s26.859,59.994,59.994,59.994
		c33.134,0,59.993-26.86,59.993-59.994c0-9.366-2.147-18.23-5.974-26.126c-7.81,5.571-18.728,4.855-25.737-2.156
		c-7.01-7.009-7.729-17.928-2.155-25.737C274.229,198.154,265.365,196.005,256,196.005z"/>
	<path style="fill:#E1E6E9;" d="M282.127,201.98c-5.573,7.81-4.855,18.728,2.155,25.737c7.009,7.011,17.927,7.728,25.737,2.156
		c0.892-0.637,1.743-1.355,2.543-2.156c7.81-7.808,7.81-20.471,0-28.28c-7.809-7.81-20.472-7.81-28.28,0
		C283.48,200.238,282.764,201.089,282.127,201.98z"/>
</g>
<path d="M507.361,236.272c-23.268-46.896-59.154-86.323-103.781-114.016C359.215,94.726,308.183,80.174,256,80.174
	c-52.184,0-103.216,14.553-147.581,42.083c-44.452,27.582-80.25,66.832-103.511,113.48l-0.256,0.51
	c-0.039,0.079-0.077,0.158-0.114,0.237c-6.083,12.49-6.052,26.775,0.102,39.246c23.267,46.895,59.152,86.321,103.78,114.016
	c44.363,27.529,95.395,42.081,147.581,42.081c52.184,0,103.218-14.552,147.58-42.081c44.453-27.584,80.251-66.835,103.511-113.479
	l0.233-0.463c0.057-0.112,0.111-0.226,0.163-0.339C513.544,262.99,513.505,248.728,507.361,236.272z M489.432,266.865
	c-0.019,0.038-0.037,0.075-0.055,0.113l-0.168,0.333c-21.618,43.353-54.875,79.814-96.173,105.441
	c-41.195,25.562-88.581,39.075-137.036,39.075s-95.842-13.513-137.037-39.075C77.5,347.023,44.162,310.4,22.563,266.861
	c-3.402-6.894-3.401-14.814,0.004-21.725c0.019-0.037,0.036-0.074,0.054-0.11l0.169-0.336
	c21.619-43.355,54.876-79.816,96.173-105.441c41.197-25.564,88.584-39.077,137.037-39.077s95.839,13.513,137.036,39.077
	c41.461,25.727,74.799,62.352,96.4,105.89C492.838,252.036,492.836,259.953,489.432,266.865z"/>
<path d="M59.905,230.125c-4.714-2.879-10.867-1.394-13.747,3.318l-0.262,0.432c-2.847,4.732-1.318,10.875,3.415,13.723
	c1.612,0.97,3.39,1.432,5.144,1.432c3.394,0,6.701-1.727,8.578-4.847l0.189-0.311C66.102,239.16,64.616,233.005,59.905,230.125z"/>
<path d="M102.176,169.519c-16.717,13.239-28.796,25.173-39.164,38.693c-3.36,4.383-2.532,10.659,1.851,14.02
	c1.815,1.392,3.955,2.064,6.077,2.064c3.003,0,5.973-1.348,7.941-3.915c9.324-12.16,20.338-23.012,35.709-35.185
	c4.33-3.429,5.06-9.717,1.631-14.046C112.794,166.82,106.505,166.089,102.176,169.519z"/>
<path d="M447.137,289.768c-4.383-3.359-10.659-2.531-14.02,1.851c-9.324,12.16-20.338,23.012-35.709,35.185
	c-4.33,3.429-5.06,9.717-1.631,14.046c1.974,2.493,4.896,3.792,7.845,3.792c2.174,0,4.364-0.706,6.2-2.161
	c16.717-13.239,28.796-25.172,39.164-38.693C452.348,299.405,451.52,293.128,447.137,289.768z"/>
<path d="M462.689,264.402c-4.729-2.845-10.875-1.317-13.723,3.415l-0.226,0.373c-2.847,4.732-1.318,10.875,3.415,13.723
	c1.612,0.97,3.39,1.432,5.145,1.432c3.394,0,6.701-1.727,8.578-4.846l0.226-0.373C468.95,273.392,467.421,267.249,462.689,264.402z"
	/>
<path d="M256,126.012c-71.676,0-129.988,58.311-129.988,129.987S184.324,385.986,256,385.986s129.987-58.311,129.987-129.987
	S327.676,126.012,256,126.012z M256,365.988c-60.648,0-109.99-49.341-109.99-109.989S195.352,146.01,256,146.01
	s109.989,49.341,109.989,109.989C365.989,316.648,316.648,365.988,256,365.988z"/>
<path d="M319.634,192.367c-5.665-5.665-13.199-8.786-21.212-8.786c-6.887,0-13.417,2.311-18.714,6.557
	c-7.57-2.735-15.514-4.131-23.708-4.131c-38.595,0-69.993,31.398-69.993,69.993s31.398,69.993,69.993,69.993
	c38.594,0,69.992-31.398,69.992-69.993c0-8.196-1.396-16.14-4.13-23.71c4.245-5.296,6.556-11.825,6.556-18.712
	C328.419,205.565,325.299,198.033,319.634,192.367z M305.492,206.506c1.889,1.89,2.929,4.4,2.929,7.071
	c0,2.671-1.04,5.181-2.929,7.068c-1.889,1.889-4.4,2.929-7.07,2.929s-5.183-1.04-7.071-2.93c-1.889-1.888-2.928-4.397-2.928-7.067
	c0-2.672,1.04-5.182,2.929-7.07c1.889-1.889,4.4-2.929,7.07-2.929C301.093,203.579,303.604,204.619,305.492,206.506z M256,305.994
	c-27.567,0-49.995-22.428-49.995-49.995s22.428-49.995,49.995-49.995c4.451,0,8.792,0.586,12.993,1.716
	c-0.376,1.909-0.569,3.869-0.569,5.857c0,8.013,3.121,15.545,8.786,21.21c5.665,5.665,13.199,8.786,21.212,8.786
	c1.989,0,3.948-0.193,5.856-0.569c1.129,4.201,1.716,8.543,1.716,12.995C305.994,283.567,283.566,305.994,256,305.994z"/>
<g>
</g>
<g>
</g>
<g>
</g>
<g>
</g>
<g>
</g>
<g>
</g>
<g>
</g>
<g>
</g>
<g>
</g>
<g>
</g>
<g>
</g>
<g>
</g>
<g>
</g>
<g>
</g>
<g>
</g>
</svg>
