<?xml version="1.0" encoding="iso-8859-1"?>
<!-- Generator: Adobe Illustrator 19.0.0, SVG Export Plug-In . SVG Version: 6.00 Build 0)  -->
<svg version="1.1" id="Capa_1" xmlns="http://www.w3.org/2000/svg" xmlns:xlink="http://www.w3.org/1999/xlink" x="0px" y="0px"
	 viewBox="0 0 512.002 512.002" style="enable-background:new 0 0 512.002 512.002;" xml:space="preserve">
<g>
	<path style="fill:#BCCBD3;" d="M196.001,40h120h25c8.25,0,15-6.75,15-15s-6.75-15-15-15h-170c-8.25,0-15,6.75-15,15s6.75,15,15,15
		H196.001z"/>
	<path style="fill:#636A75;" d="M316.001,70V40h-120v30c0,14.549,10.498,26.766,24.291,29.449
		c6.596-13.027,20.109-21.955,35.709-21.955c15.599,0,29.112,8.928,35.706,21.955C305.503,96.764,316.001,84.549,316.001,70z"/>
	<path style="fill:#FFC36C;" d="M291.707,99.449c-6.594-13.027-20.108-21.955-35.706-21.955c-15.6,0-29.113,8.928-35.709,21.955
		c-2.744,5.42-4.291,11.551-4.291,18.045c0,13.541,6.728,25.512,17.027,32.746c6.5,4.57,14.422,7.254,22.973,7.254
		c8.549,0,16.473-2.684,22.973-7.254c1.898-1.332,3.676-2.826,5.311-4.463c7.238-7.238,11.716-17.238,11.716-28.283
		C296.001,111,294.454,104.869,291.707,99.449z"/>
	<path style="fill:#BCCBD3;" d="M220.292,99.449c-13.793-2.684-24.291-14.9-24.291-29.449h-16.253
		c-13.062,0-23.747,10.686-23.747,23.746c0,13.063,10.685,23.748,23.747,23.748h36.253C216.001,111,217.548,104.869,220.292,99.449z
		"/>
	<path style="fill:#FFC36C;" d="M361.583,106.795l49.498,49.498c5.834,5.834,15.379,5.834,21.213,0s5.834-15.381,0-21.213
		l-49.498-49.498c-5.833-5.834-15.379-5.834-21.213,0S355.749,100.961,361.583,106.795z"/>
	<path style="fill:#BCCBD3;" d="M256.001,267.748L256.001,267.748L256.001,267.748z M278.974,267.748l0.001-117.506
		c-6.501,4.568-14.425,7.252-22.974,7.252c-8.551,0-16.473-2.684-22.973-7.254v117.508h-50.506
		c-12.635,0-22.973,10.336-22.973,22.973c0,0.857,0.047,1.707,0.143,2.541c1.272,11.451,11.054,20.432,22.83,20.432h18.427h32.079
		l-0.001-22.973c0-12.637,10.338-22.973,22.974-22.973c12.635,0,22.973,10.336,22.973,22.973v22.973h32.079h18.427
		c11.776,0,21.556-8.982,22.83-20.432c0.096-0.834,0.143-1.684,0.143-2.541c0-12.635-10.338-22.973-22.973-22.973H278.974z"/>
	<path style="fill:#FFC36C;" d="M278.974,290.721c0-12.637-10.338-22.973-22.973-22.973c-12.636,0-22.974,10.336-22.974,22.973
		l0.001,22.973h45.945L278.974,290.721L278.974,290.721z"/>
	<g>
		<path style="fill:#636A75;" d="M278.974,313.693h-45.945l-0.001,165.336c0,12.635,10.338,22.973,22.974,22.973
			c12.635,0,22.973-10.338,22.973-22.973L278.974,313.693L278.974,313.693z"/>
		<path style="fill:#636A75;" d="M67.47,498.941L67.47,498.941L67.47,498.941z M98.852,490.531L200.95,313.693h-18.427
			c-11.776,0-21.558-8.98-22.83-20.432L59.062,467.559c-6.318,10.943-2.534,25.065,8.409,31.383
			C78.413,505.258,92.534,501.475,98.852,490.531z"/>
		<path style="fill:#636A75;" d="M444.532,498.941L444.532,498.941L444.532,498.941z M311.053,313.693L413.15,490.531
			c6.317,10.943,20.439,14.727,31.382,8.41c10.942-6.318,14.727-20.439,8.408-31.383L352.312,293.262
			c-1.274,11.451-11.056,20.432-22.832,20.432h-18.427V313.693z"/>
	</g>
</g>
<path d="M461.601,462.559L362.45,290.824c0-0.034,0.003-0.068,0.003-0.104c0-18.182-14.792-32.973-32.973-32.973h-40.506V163.08
	c1.013,0.333,2.067,0.509,3.123,0.509c2.559,0,5.119-0.977,7.071-2.929c3.905-3.905,3.905-10.237,0.001-14.143l-1.473-1.473
	c5.243-7.906,8.306-17.377,8.306-27.554c0-4.158-0.519-8.196-1.48-12.062c12.907-6.768,21.48-20.282,21.48-35.431V64.14l22.92,22.92
	c-3.503,8.971-1.643,19.569,5.59,26.804l49.498,49.498c4.71,4.71,10.989,7.305,17.678,7.305c6.69,0,12.967-2.595,17.678-7.305
	c4.71-4.711,7.304-10.989,7.304-17.679s-2.594-12.968-7.304-17.677l-49.498-49.497c-4.71-4.711-10.988-7.306-17.678-7.306
	c-3.178,0-6.26,0.593-9.129,1.712L340.144,50h0.857c13.785,0,25-11.215,25-25s-11.215-25-25-25h-170c-13.785,0-25,11.215-25,25
	s11.215,25,25,25h15v10h-6.253c-18.608,0-33.747,15.139-33.747,33.746c0,18.608,15.139,33.748,33.747,33.748h27.259
	c2.217,10.876,7.982,20.47,16.021,27.538v102.716h-40.506c-18.181,0-32.973,14.791-32.973,32.973c0,0.035,0.003,0.069,0.003,0.104
	L50.401,462.559c-9.091,15.745-3.677,35.952,12.07,45.044c4.985,2.877,10.663,4.398,16.419,4.398c11.79,0,22.757-6.311,28.621-16.47
	l99.211-171.838h16.305v155.336c0,18.182,14.792,32.973,32.974,32.973c18.181,0,32.973-14.791,32.973-32.973V323.693h16.306
	l99.21,171.838c5.864,10.158,16.832,16.469,28.621,16.47h0.001c5.755,0,11.433-1.521,16.42-4.399
	C465.278,498.51,470.691,478.304,461.601,462.559z M342.452,290.721c0,0.619-0.059,1.223-0.143,1.819
	c-0.784,5.48-5.107,9.887-10.434,10.922c-0.011,0.003-0.023,0.003-0.035,0.006c-0.37,0.07-0.744,0.125-1.122,0.163
	c-0.408,0.039-0.821,0.063-1.239,0.063h-40.506l0,0v-12.973c0-4.604-0.952-8.988-2.663-12.973h43.169
	C336.633,277.748,342.452,283.567,342.452,290.721z M243.027,303.693V290.72c0-7.153,5.82-12.973,12.974-12.973
	c7.153,0,12.973,5.819,12.973,12.973v12.973H243.027z M277.224,124.573c-3.905-3.903-10.237-3.904-14.142,0
	c-3.905,3.905-3.905,10.237-0.001,14.143l5.845,5.845c-3.916,1.878-8.299,2.932-12.925,2.932c-16.542,0-30-13.458-30-30
	c0-5.089,1.278-9.884,3.523-14.087c0.09-0.168,0.183-0.333,0.275-0.499c3.69-6.601,9.797-11.672,17.119-14.003
	c0.085-0.026,0.168-0.056,0.252-0.081c0.373-0.115,0.75-0.221,1.129-0.321c0.239-0.063,0.48-0.121,0.72-0.179
	c0.308-0.073,0.615-0.15,0.927-0.214c0.542-0.11,1.089-0.206,1.64-0.287c0.21-0.031,0.422-0.054,0.633-0.08
	c0.435-0.055,0.872-0.102,1.312-0.138c0.195-0.016,0.39-0.032,0.586-0.044c0.624-0.039,1.251-0.065,1.883-0.065
	c0.632,0,1.259,0.026,1.883,0.065c0.196,0.012,0.391,0.028,0.586,0.044c0.44,0.036,0.878,0.083,1.313,0.138
	c0.211,0.026,0.422,0.049,0.631,0.08c0.552,0.081,1.099,0.177,1.642,0.287c0.31,0.063,0.615,0.14,0.921,0.213
	c0.243,0.058,0.486,0.116,0.727,0.18c0.378,0.101,0.753,0.206,1.124,0.32c0.088,0.026,0.175,0.057,0.263,0.085
	c7.304,2.327,13.399,7.382,17.089,13.961c0.104,0.188,0.209,0.374,0.31,0.564c2.237,4.197,3.51,8.982,3.51,14.061
	c0,4.626-1.054,9.01-2.932,12.927L277.224,124.573z M375.725,92.653l49.5,49.499c1.257,1.257,1.445,2.754,1.445,3.533
	c0,0.78-0.188,2.277-1.447,3.536c-1.258,1.259-2.755,1.446-3.535,1.446s-2.277-0.188-3.535-1.446l-49.498-49.498
	c-1.259-1.259-1.447-2.755-1.447-3.535c0-0.78,0.188-2.276,1.447-3.535c1.258-1.259,2.755-1.446,3.536-1.446
	C372.97,91.207,374.466,91.395,375.725,92.653z M166.001,25c0-2.71,2.29-5,5-5h170c2.71,0,5,2.29,5,5s-2.29,5-5,5l0,0h-170l0,0
	C168.291,30,166.001,27.71,166.001,25z M306.001,50v20c0,7.312-3.996,13.866-10.085,17.356
	c-6.808-9.053-16.424-15.438-27.302-18.248c-0.065-0.017-0.129-0.035-0.193-0.052c-0.632-0.16-1.27-0.306-1.91-0.441
	c-0.282-0.061-0.565-0.119-0.848-0.176c-0.528-0.103-1.057-0.198-1.59-0.284c-0.418-0.068-0.838-0.127-1.26-0.184
	c-0.445-0.061-0.89-0.122-1.339-0.171c-0.552-0.061-1.108-0.104-1.665-0.146c-0.346-0.026-0.69-0.06-1.037-0.08
	c-0.919-0.05-1.841-0.08-2.772-0.08c-0.931,0-1.855,0.03-2.773,0.081c-0.345,0.019-0.687,0.053-1.031,0.078
	c-0.559,0.042-1.117,0.086-1.67,0.146c-0.448,0.049-0.892,0.11-1.336,0.171c-0.422,0.058-0.843,0.116-1.262,0.184
	c-0.532,0.086-1.061,0.182-1.588,0.284c-0.284,0.057-0.567,0.115-0.85,0.176c-0.64,0.136-1.276,0.281-1.908,0.441
	c-0.066,0.017-0.132,0.035-0.198,0.053c-10.877,2.812-20.492,9.196-27.3,18.248c-6.087-3.49-10.083-10.045-10.083-17.357V50H306.001
	z M166.001,93.746c0-7.58,6.167-13.746,13.747-13.746h7.534c2.837,10.938,10.22,20.201,20.199,25.433
	c-0.17,0.683-0.332,1.368-0.474,2.062h-27.259C172.168,107.494,166.001,101.327,166.001,93.746z M256.001,167.492
	c4.486,0,8.833-0.604,12.973-1.717v94.636c-3.984-1.712-8.369-2.663-12.973-2.663c-4.604,0-8.989,0.951-12.973,2.663v-94.636
	C247.168,166.889,251.515,167.492,256.001,167.492z M90.191,485.531c-2.303,3.99-6.633,6.47-11.3,6.47
	c-2.251,0-4.472-0.595-6.42-1.72c-6.195-3.577-8.325-11.527-4.749-17.723l91.504-158.489c5.989,5.975,14.248,9.624,23.296,9.624
	h1.106L90.191,485.531z M223.027,303.693h-40.505c-0.418,0-0.831-0.023-1.239-0.063c-0.378-0.038-0.753-0.093-1.122-0.163
	c-0.012-0.003-0.023-0.003-0.035-0.006c-5.328-1.035-9.65-5.441-10.434-10.922c-0.084-0.597-0.143-1.2-0.143-1.819
	c0-7.153,5.819-12.973,12.973-12.973h43.168c-1.712,3.984-2.663,8.369-2.663,12.973L223.027,303.693L223.027,303.693z
	 M256.001,492.002c-7.154,0-12.974-5.819-12.974-12.973V323.693h25.946v155.336C268.974,486.183,263.154,492.002,256.001,492.002z
	 M439.532,490.28c-1.949,1.126-4.169,1.721-6.42,1.721l0,0c-4.667,0-8.997-2.479-11.301-6.47l-93.437-161.838h1.106
	c9.049,0,17.308-3.649,23.296-9.624l91.504,158.489C447.857,478.754,445.727,486.704,439.532,490.28z"/>
<path d="M256.735,104.086c-3.895-3.916-10.227-3.932-14.142-0.036c-3.916,3.895-3.932,10.227-0.036,14.142l0.191,0.191
	c1.954,1.965,4.521,2.947,7.089,2.947c2.551,0,5.102-0.97,7.053-2.911c3.916-3.895,3.932-10.227,0.036-14.142L256.735,104.086z"/>
<g>
</g>
<g>
</g>
<g>
</g>
<g>
</g>
<g>
</g>
<g>
</g>
<g>
</g>
<g>
</g>
<g>
</g>
<g>
</g>
<g>
</g>
<g>
</g>
<g>
</g>
<g>
</g>
<g>
</g>
</svg>
