<?xml version="1.0" encoding="iso-8859-1"?>
<!-- Generator: Adobe Illustrator 19.0.0, SVG Export Plug-In . SVG Version: 6.00 Build 0)  -->
<svg version="1.1" id="Capa_1" xmlns="http://www.w3.org/2000/svg" xmlns:xlink="http://www.w3.org/1999/xlink" x="0px" y="0px"
	 viewBox="0 0 512 512" style="enable-background:new 0 0 512 512;" xml:space="preserve">
<g>
	<path style="fill:#4AD194;" d="M66,115.998h246.218h133.783v240.004H66V115.998L66,115.998z M36.001,106.002V386H196
		c0.001,2.75,2.251,5,5.001,5h110c2.75,0,4.999-2.25,5-5h159.998V106.002C475.999,95,467.002,86,456,86H350.966H56.001
		C45,86,36.001,94.998,36.001,106.002z"/>
	<path style="fill:#E1E6E9;" d="M312.218,115.998H66v240.004h380.001V115.998H312.218L312.218,115.998z M226.179,219.646
		c5.841-28.117,26.438-50.824,53.327-59.662c7.866-2.586,16.27-3.984,25-3.984c20.48,0,39.161,7.695,53.313,20.352
		c16.379,14.65,26.688,35.945,26.688,59.648c0,5.605-0.576,11.074-1.673,16.354c-5.841,28.117-26.438,50.824-53.327,59.662
		c-7.866,2.586-16.27,3.984-25,3.984c-20.479,0-39.162-7.695-53.313-20.352c-16.378-14.65-26.686-35.945-26.686-59.648
		C224.506,230.395,225.082,224.926,226.179,219.646z"/>
	<path style="fill:#4AD194;" d="M196,386H36.001H10v20c0,11,9.001,20,20.001,20h451.998C493,426,502,417,502,406v-20h-26.001
		H316.001c-0.001,2.75-2.25,5-5,5h-110C198.251,391,196.001,388.75,196,386z"/>
	<polygon style="fill:#636A75;" points="279.506,236 279.506,250.434 292.006,257.65 304.506,264.867 317.006,257.65 
		329.506,250.434 329.506,236 329.506,221.566 317.006,214.35 304.506,207.133 292.006,214.35 279.506,221.566 	"/>
	<g>
		<path style="fill:#FF9750;" d="M279.506,250.434V236v-14.434v-61.582c-26.89,8.838-47.486,31.545-53.327,59.662L279.506,250.434z"
			/>
		<path style="fill:#FF9750;" d="M292.006,214.35l12.5-7.217l53.313-30.781C343.667,163.695,324.985,156,304.506,156
			c-8.73,0-17.134,1.398-25,3.984v61.582L292.006,214.35z"/>
		<path style="fill:#FF9750;" d="M304.506,207.133l12.5,7.217l12.5,7.217l53.327,30.787c1.097-5.279,1.673-10.748,1.673-16.354
			c0-23.703-10.309-44.998-26.688-59.648L304.506,207.133z"/>
		<path style="fill:#FF9750;" d="M329.506,221.566V236v14.434v61.582c26.89-8.838,47.486-31.547,53.327-59.662L329.506,221.566z"/>
		<path style="fill:#FF9750;" d="M329.506,250.434l-12.5,7.217l-12.5,7.217l-53.313,30.781C265.344,308.305,284.026,316,304.506,316
			c8.73,0,17.134-1.398,25-3.984V250.434z"/>
		<path style="fill:#FF9750;" d="M292.006,257.65l-12.5-7.217l-53.327-30.787c-1.097,5.279-1.673,10.748-1.673,16.354
			c0,23.703,10.309,44.998,26.686,59.648l53.313-30.781L292.006,257.65z"/>
	</g>
</g>
<path d="M456.001,356.002V115.998c0-5.522-4.478-10-10-10H66c-5.522,0-10,4.478-10,10v240.004c0,5.522,4.478,10,10,10h380.001
	C451.523,366.002,456.001,361.525,456.001,356.002z M436.001,346.002H76V125.998h360.001V346.002z"/>
<path d="M502,376h-16.001V106.002C485.999,89.459,472.541,76,456,76H56.001c-16.542,0-30,13.459-30,30.002V376H10
	c-5.522,0-10,4.478-10,10v20c0,16.542,13.458,30,30.001,30h451.998C498.542,436,512,422.542,512,406v-20
	C512,380.478,507.522,376,502,376z M46.001,106.002c0-5.516,4.486-10.002,10-10.002H456c5.514,0,9.999,4.486,9.999,10.002V376
	H316.001c-3.701,0-6.933,2.011-8.662,5H204.662c-1.729-2.989-4.961-5-8.662-5H46.001V106.002z M492,406c0,5.514-4.486,10-10.001,10
	H30.001C24.486,416,20,411.514,20,406v-10h169.83c2.749,3.067,6.739,5,11.171,5h110c4.432,0,8.422-1.933,11.17-5H492V406z"/>
<path d="M177.035,163.902h0.475c5.523,0,10-4.478,10-10c0-5.523-4.477-10-10-10h-0.475c-5.523,0-10,4.477-10,10
	C167.035,159.425,171.513,163.902,177.035,163.902z"/>
<path d="M106.513,163.902h41.437c5.523,0,10-4.478,10-10c0-5.523-4.477-10-10-10h-41.437c-5.522,0-10,4.477-10,10
	C96.513,159.425,100.99,163.902,106.513,163.902z"/>
<path d="M214.506,236c0,26.254,11.302,49.916,29.294,66.384c0.482,0.529,1.007,1.003,1.577,1.409
	C261.203,317.614,281.893,326,304.506,326c9.641,0,18.93-1.53,27.644-4.35c0.301-0.082,0.594-0.178,0.882-0.286
	c29.869-10.008,52.798-35.281,59.481-66.509c0.061-0.236,0.111-0.473,0.155-0.711c1.204-5.862,1.838-11.931,1.838-18.145
	c0-26.183-11.241-49.786-29.147-66.247c-0.523-0.599-1.112-1.117-1.744-1.564C347.79,154.378,327.108,146,304.506,146
	c-9.641,0-18.93,1.53-27.644,4.35c-0.301,0.082-0.594,0.178-0.882,0.286c-29.869,10.008-52.798,35.281-59.482,66.509
	c-0.06,0.236-0.111,0.473-0.154,0.71C215.14,223.717,214.506,229.786,214.506,236z M234.506,236L234.506,236l50,28.867l0,0
	l-31.682,18.291C241.453,270.707,234.506,254.15,234.506,236z M304.506,218.68l15,8.66v17.32l-15,8.66l-15-8.66v-17.32
	L304.506,218.68z M269.54,296.602l49.966-28.848l0,0v36.61c-4.836,1.061-9.851,1.636-15,1.636
	C291.774,306,279.837,302.566,269.54,296.602z M339.506,296.582v-57.695l0,0l31.711,18.309
	C365.892,273.919,354.436,287.924,339.506,296.582z M374.506,236L374.506,236l-50-28.867l0,0l31.682-18.291
	C367.559,201.293,374.506,217.85,374.506,236z M339.472,175.398l-49.966,28.848l0,0v-36.61c4.836-1.061,9.851-1.636,15-1.636
	C317.237,166,329.175,169.434,339.472,175.398z M269.506,175.418v57.695l0,0l-31.711-18.309
	C243.12,198.081,254.576,184.076,269.506,175.418z"/>
<path d="M106.513,328.492h41.437c5.523,0,10-4.477,10-10c0-5.522-4.477-10-10-10h-41.437c-5.522,0-10,4.478-10,10
	C96.513,324.015,100.99,328.492,106.513,328.492z"/>
<path d="M177.035,328.492h0.475c5.523,0,10-4.477,10-10c0-5.522-4.477-10-10-10h-0.475c-5.523,0-10,4.478-10,10
	C167.035,324.015,171.513,328.492,177.035,328.492z"/>
<g>
</g>
<g>
</g>
<g>
</g>
<g>
</g>
<g>
</g>
<g>
</g>
<g>
</g>
<g>
</g>
<g>
</g>
<g>
</g>
<g>
</g>
<g>
</g>
<g>
</g>
<g>
</g>
<g>
</g>
</svg>
