<?xml version="1.0" encoding="iso-8859-1"?>
<!-- Generator: Adobe Illustrator 19.0.0, SVG Export Plug-In . SVG Version: 6.00 Build 0)  -->
<svg version="1.1" id="Capa_1" xmlns="http://www.w3.org/2000/svg" xmlns:xlink="http://www.w3.org/1999/xlink" x="0px" y="0px"
	 viewBox="0 0 512.002 512.002" style="enable-background:new 0 0 512.002 512.002;" xml:space="preserve">
<g>
	<path style="fill:#BCCBD3;" d="M20.001,136.001h472h10.001v-40c0-11-9-20-20-20H30c-11,0-20,9-20,20v40H20.001z"/>
	<rect x="20" y="136" style="fill:#636A75;" width="472" height="59.998"/>
	<path style="fill:#BCCBD3;" d="M492.001,195.999h-472H10v220.002c0,11,9.001,20,20,20h452.002c11,0,20-9,20-20V195.999H492.001
		L492.001,195.999z M67.03,242.001h133.942h110.057h133.943H456v40v40h-11.028H311.029h-48.285H249.26h-48.287H67.03H56.002v-40v-40
		H67.03z"/>
	<circle style="fill:#E1E6E9;" cx="134" cy="282" r="20"/>
	<g>
		<path style="fill:#636A75;" d="M134.002,262.001c11.045,0,19.999,8.953,19.999,20c0,11.045-8.954,20-19.999,20
			c-11.046,0-20-8.955-20-20C114.002,270.954,122.956,262.001,134.002,262.001L134.002,262.001z M212.002,282.001
			c0-14.623-4.028-28.305-11.029-40H67.03c-7.001,11.695-11.028,25.377-11.028,40s4.027,28.303,11.028,40h133.942
			C207.974,310.304,212.002,296.624,212.002,282.001z"/>
		<path style="fill:#636A75;" d="M200.973,242.001c7.001,11.695,11.029,25.377,11.029,40s-4.028,28.303-11.029,40h48.287
			c4.464-12.863,6.742-26.385,6.742-40c0,13.615,2.278,27.137,6.742,40h48.285c-7-11.697-11.028-25.377-11.028-40
			s4.028-28.305,11.028-40H200.973z"/>
		<path style="fill:#636A75;" d="M311.029,242.001c-7,11.695-11.028,25.377-11.028,40s4.028,28.303,11.028,40h133.943
			c7-11.697,11.028-25.377,11.028-40s-4.028-28.305-11.028-40H311.029L311.029,242.001z M358.001,282.001c0-11.047,8.954-20,20-20
			s20,8.953,20,20c0,11.045-8.954,20-20,20S358.001,293.046,358.001,282.001z"/>
	</g>
	<circle style="fill:#E1E6E9;" cx="378" cy="282" r="20"/>
</g>
<path d="M502.002,146.001c5.522,0,10-4.478,10-10v-40c0-16.542-13.458-30-30-30H30c-16.542,0-30,13.458-30,30v40
	c0,5.522,4.478,10,10,10h0.001v39.998H10c-5.522,0-10,4.477-10,10v220.002c0,16.542,13.458,30,30,30h452.002
	c16.542,0,30-13.458,30-30V195.999c0-5.523-4.478-10-10-10h-0.001v-39.998L502.002,146.001L502.002,146.001z M30,86.001h452.002
	c5.514,0,10,4.486,10,10v30H20v-30C20,90.487,24.486,86.001,30,86.001z M482.002,426.001H30c-5.514,0-10-4.486-10-10V205.999
	h472.002v210.002C492.002,421.515,487.516,426.001,482.002,426.001z M482.001,185.999h-452v-39.998h452V185.999z"/>
<path d="M456.001,232.001H56.002c-5.522,0-10,4.478-10,10v80c0,5.522,4.478,10,10,10l0,0c0.01,0-0.011,0,0,0c0.01,0-0.01,0,0,0
	h144.932c0.01,0,0.02,0.002,0.029,0.002c0.01,0,0.02-0.002,0.031-0.002h48.195c0.023,0,0.047,0.003,0.07,0.003
	c0.025,0,0.05-0.003,0.075-0.003H456c0.025,0-193.282,0.003-193.257,0.003c0.023,0,193.232-0.003,193.257-0.003l0,0
	c0.011,0-0.01,0,0,0s-0.01,0,0,0l0,0c0.01,0-0.01,0,0,0s-0.011,0,0,0l0,0c5.522,0,10-4.478,10-10v-80
	C466.001,236.479,461.523,232.001,456.001,232.001z M270.117,312.001c-2.718-9.763-4.115-19.82-4.115-30
	c0-10.178,1.398-20.235,4.116-30h25.155c-3.467,9.566-5.272,19.717-5.272,30s1.807,20.433,5.272,30H270.117z M216.73,312.001
	c3.466-9.567,5.272-19.717,5.272-30c0-10.284-1.807-20.434-5.272-30h25.156c2.718,9.765,4.116,19.822,4.116,30
	c0,10.18-1.397,20.237-4.115,30H216.73z M72.976,312.001c-4.57-9.289-6.974-19.553-6.974-30c0-10.449,2.403-20.712,6.973-30h61.027
	h61.026c4.569,9.289,6.974,19.552,6.974,30c0,10.446-2.404,20.71-6.975,30h-61.025H72.976z M316.975,312.001
	c-4.57-9.291-6.974-19.555-6.974-30c0-10.447,2.403-20.711,6.973-30h61.027h61.027c4.569,9.289,6.973,19.553,6.973,30
	c0,10.445-2.403,20.709-6.974,30h-61.026H316.975z"/>
<path d="M164.001,282.001c0-16.542-13.457-30-29.999-30s-30,13.458-30,30s13.458,30,30,30S164.001,298.543,164.001,282.001z
	 M134.002,292.001c-5.514,0-10-4.486-10-10s4.486-10,10-10s9.999,4.486,9.999,10C144.001,287.515,139.516,292.001,134.002,292.001z"
	/>
<path d="M408.001,282.001c0-16.542-13.458-30-30-30s-30,13.458-30,30s13.458,30,30,30S408.001,298.543,408.001,282.001z
	 M378.001,292.001c-5.514,0-10-4.486-10-10s4.486-10,10-10s10,4.486,10,10S383.515,292.001,378.001,292.001z"/>
<path d="M56.002,372.003h31.034c5.522,0,10-4.477,10-10c0-5.522-4.478-10-10-10H56.002c-5.522,0-10,4.478-10,10
	C46.002,367.526,50.479,372.003,56.002,372.003z"/>
<path d="M116.036,372.003c5.522,0,10-4.477,10-10c0-5.522-4.478-10-10-10h-0.27c-5.522,0-10,4.478-10,10c0,5.523,4.478,10,10,10
	H116.036z"/>
<path d="M427.001,388.249H56.002c-5.522,0-10,4.477-10,10c0,5.522,4.478,10,10,10h370.999c5.522,0,10-4.478,10-10
	C437.001,392.727,432.523,388.249,427.001,388.249z"/>
<path d="M456.001,388.249h-0.268c-5.523,0-10,4.477-10,10c0,5.522,4.477,10,10,10h0.268c5.522,0,10-4.478,10-10
	S461.523,388.249,456.001,388.249z"/>
<g>
</g>
<g>
</g>
<g>
</g>
<g>
</g>
<g>
</g>
<g>
</g>
<g>
</g>
<g>
</g>
<g>
</g>
<g>
</g>
<g>
</g>
<g>
</g>
<g>
</g>
<g>
</g>
<g>
</g>
</svg>
