<?xml version="1.0" encoding="iso-8859-1"?>
<!-- Generator: Adobe Illustrator 19.0.0, SVG Export Plug-In . SVG Version: 6.00 Build 0)  -->
<svg version="1.1" id="Capa_1" xmlns="http://www.w3.org/2000/svg" xmlns:xlink="http://www.w3.org/1999/xlink" x="0px" y="0px"
	 viewBox="0 0 512.001 512.001" style="enable-background:new 0 0 512.001 512.001;" xml:space="preserve">
<g>
	<path style="fill:#E1E6E9;" d="M89.057,165.21c8.754-16.064,19.76-30.727,32.593-43.561c15.921-15.92,31.22-27.416,51.958-36.902
		c8.691-3.976,17.756,0.727,17.756,12.547v35.25v114.615l-69.016-39.846l-22.019-12.711
		C83.516,184.895,81.614,178.865,89.057,165.21L89.057,165.21z M320.638,379.458V264.842l69.016,39.846l22.019,12.713
		c16.813,9.707,18.714,15.736,11.272,29.391c-8.755,16.064-19.761,30.727-32.594,43.561c-15.921,15.922-31.22,27.418-51.957,36.902
		c-8.692,3.977-17.756-0.727-17.756-12.547V379.458L320.638,379.458z M181.402,373.708l99.26-57.309v79.693v25.424
		c0,19.414-4.271,24.074-19.818,24.459c-18.289,0.449-36.488-1.75-54.019-6.447c-21.749-5.828-39.355-13.33-57.938-26.545
		c-7.789-5.541-8.248-15.74,1.988-21.65L181.402,373.708L181.402,373.708z M231.338,115.91V90.484
		c0-19.412,4.271-24.074,19.818-24.457c18.289-0.451,36.488,1.75,54.02,6.447c21.749,5.826,39.355,13.328,57.937,26.545
		c7.79,5.539,8.248,15.74-1.988,21.65l-30.526,17.623l-99.26,57.309L231.338,115.91L231.338,115.91z M295.977,204.443l99.26,57.307
		l30.527,17.625c10.236,5.91,18.84,0.414,19.743-9.102c2.154-22.703-0.153-41.699-5.979-63.449
		c-4.698-17.531-11.893-34.393-21.428-50.006c-8.105-13.273-14.277-14.641-31.09-4.934l-22.018,12.713L295.977,204.443
		L295.977,204.443z M66.493,241.729c-2.153,22.701,0.153,41.699,5.98,63.447c4.698,17.531,11.892,34.393,21.427,50.006
		c8.105,13.273,14.277,14.641,31.091,4.934l22.018-12.711l69.015-39.848l-99.26-57.307l-30.526-17.625
		C76.001,226.714,67.396,232.212,66.493,241.729L66.493,241.729z M462.001,10H50c-22.001,0-40,17.998-40,40v412
		c0,22.002,17.999,40,40,40h412.001c22,0,40-17.998,40-40V50C502.001,27.999,484.001,10,462.001,10z"/>
	<g>
		<path style="fill:#4AD194;" d="M121.649,121.648c-12.833,12.834-23.839,27.496-32.593,43.561
			c-7.442,13.656-5.541,19.686,11.272,29.393l22.019,12.711l69.016,39.846V132.544v-35.25c0-11.82-9.064-16.523-17.756-12.547
			C152.869,94.232,137.57,105.728,121.649,121.648z"/>
		<path style="fill:#4AD194;" d="M216.023,307.557l-99.26-57.307l-30.526-17.625c-10.236-5.91-18.841-0.412-19.744,9.104
			c-2.153,22.701,0.153,41.699,5.98,63.447c4.698,17.531,11.892,34.393,21.427,50.006c8.105,13.273,14.277,14.641,31.091,4.934
			l22.018-12.711L216.023,307.557z"/>
		<path style="fill:#4AD194;" d="M280.662,316.398l-99.26,57.309l-30.527,17.625c-10.236,5.91-9.777,16.109-1.988,21.65
			c18.583,13.215,36.188,20.717,57.938,26.545c17.531,4.697,35.73,6.897,54.019,6.447c15.548-0.385,19.818-5.045,19.818-24.459
			v-25.424L280.662,316.398L280.662,316.398z"/>
		<path style="fill:#4AD194;" d="M320.638,264.842v114.615v35.25c0,11.82,9.064,16.523,17.756,12.547
			c20.737-9.484,36.036-20.98,51.957-36.902c12.833-12.834,23.839-27.496,32.594-43.561c7.441-13.654,5.54-19.684-11.272-29.391
			l-22.019-12.713L320.638,264.842z"/>
		<path style="fill:#4AD194;" d="M295.977,204.443l99.26,57.307l30.527,17.625c10.236,5.91,18.84,0.414,19.743-9.102
			c2.154-22.703-0.153-41.699-5.979-63.449c-4.698-17.531-11.893-34.393-21.428-50.006c-8.105-13.273-14.277-14.641-31.09-4.934
			l-22.018,12.713L295.977,204.443z"/>
		<path style="fill:#4AD194;" d="M231.339,195.602l99.26-57.309l30.526-17.623c10.236-5.91,9.778-16.111,1.988-21.65
			c-18.582-13.217-36.188-20.719-57.937-26.545c-17.531-4.697-35.73-6.898-54.02-6.447c-15.547,0.383-19.818,5.045-19.818,24.457
			v25.426L231.339,195.602z"/>
	</g>
</g>
<path d="M462.001,0.001H50c-27.57,0-50,22.43-50,50v412c0,27.57,22.43,50,50,50h412.001c27.57,0,50-22.43,50-50V50
	C512.001,22.43,489.571,0.001,462.001,0.001z M492.001,462c0,16.542-13.458,30-30,30H50c-16.542,0-30-13.458-30-30V50
	c0-16.542,13.458-30,30-30h412.001c16.542,0,30,13.458,30,30V462z"/>
<path d="M80.276,160.423c-3.863,7.089-7.366,15.537-4.052,24.448c3.063,8.236,10.993,13.706,19.105,18.39l91.034,52.557
	c1.547,0.894,3.273,1.34,5,1.34s3.453-0.446,5-1.34c3.094-1.786,5-5.088,5-8.66V97.293c0-15.712-10.924-23.933-21.714-23.933
	c-3.445,0-6.878,0.771-10.202,2.292c-20.596,9.421-37.005,21.063-54.87,38.926C100.988,128.169,89.447,143.593,80.276,160.423z
	 M177.768,93.839c0.865-0.396,1.501-0.479,1.881-0.479c1.547,0,1.714,2.75,1.714,3.933v132.545l-76.034-43.896
	c-8.469-4.89-10.066-7.252-10.359-8.041c-0.098-0.263-0.418-1.877,2.868-7.906c8.256-15.15,18.646-29.037,30.883-41.274
	C144.798,112.642,159.467,102.211,177.768,93.839z"/>
<path d="M226.023,307.557c0-3.573-1.906-6.874-5-8.66L91.237,223.964c-4.349-2.511-8.798-3.784-13.225-3.784
	c-11.31,0-20.341,8.665-21.474,20.604c-2.139,22.547-0.262,42.578,6.276,66.98c4.976,18.566,12.563,36.273,22.551,52.629
	c4.842,7.928,11.336,16.033,22.8,16.035c0.001,0,0.002,0,0.003,0c6.005,0,12.532-2.289,21.823-7.653l91.033-52.559
	C224.118,314.431,226.023,311.129,226.023,307.557z M119.991,351.456c-7.12,4.11-10.359,4.974-11.823,4.974l0,0
	c-1.557,0-4.26-4.047-5.733-6.459c-8.991-14.723-15.821-30.664-20.302-47.382c-5.885-21.963-7.585-39.882-5.685-59.914
	c0.108-1.138,0.467-2.493,1.564-2.493c0.49,0,1.561,0.144,3.225,1.105l114.787,66.271L119.991,351.456z"/>
<path d="M285.662,307.739c-3.094-1.787-6.906-1.787-10,0l-129.787,74.934c-7.733,4.465-12.377,11.447-12.743,19.157
	c-0.351,7.401,3.372,14.616,9.959,19.303c18.458,13.126,36.744,21.516,61.145,28.055c16.952,4.542,34.429,6.845,51.945,6.846
	c1.635,0,3.271-0.021,4.91-0.061c8.07-0.2,17.138-1.392,23.197-8.717c5.601-6.771,6.374-16.372,6.374-25.739V316.398
	C290.662,312.827,288.756,309.525,285.662,307.739z M270.662,421.516c0,9.779-1.247,12.343-1.784,12.991
	c-0.179,0.216-1.417,1.301-8.28,1.471c-17.255,0.428-34.497-1.638-51.186-6.109c-21.962-5.885-38.33-13.372-54.729-25.034
	c-1.111-0.79-1.595-1.621-1.574-2.059c0.023-0.49,0.779-1.637,2.765-2.783l114.787-66.273v87.796H270.662z"/>
<path d="M431.725,351.577c3.863-7.088,7.365-15.536,4.051-24.446c-3.064-8.236-10.992-13.706-19.104-18.39l-91.034-52.559
	c-3.094-1.787-6.906-1.787-10,0c-3.094,1.786-5,5.088-5,8.66v149.865c0,15.712,10.923,23.933,21.713,23.933l0,0
	c3.445,0,6.877-0.771,10.201-2.292c20.596-9.42,37.005-21.061,54.87-38.926C411.012,383.832,422.553,368.407,431.725,351.577z
	 M334.233,418.161c-0.866,0.396-1.501,0.479-1.882,0.479c-1.547,0-1.714-2.75-1.714-3.933V282.163l76.034,43.898
	c8.469,4.89,10.065,7.252,10.359,8.041c0.098,0.263,0.418,1.877-2.867,7.904c-8.256,15.15-18.647,29.037-30.883,41.274
	C367.202,399.359,352.534,409.792,334.233,418.161z"/>
<path d="M433.99,291.82c11.309,0,20.339-8.664,21.472-20.602c2.139-22.543,0.263-42.575-6.275-66.982
	c-4.976-18.564-12.563-36.271-22.552-52.629c-4.842-7.929-11.337-16.035-22.801-16.035c-6.006,0-12.533,2.289-21.824,7.653
	l-91.033,52.559c-3.094,1.786-5,5.088-5,8.66s1.906,6.874,5,8.66l129.787,74.932C425.113,290.546,429.563,291.82,433.99,291.82z
	 M392.01,160.546c7.12-4.11,10.359-4.974,11.824-4.974c1.556,0,4.259,4.047,5.732,6.459c8.992,14.724,15.823,30.666,20.303,47.382
	c5.884,21.968,7.584,39.887,5.684,59.916c-0.108,1.137-0.466,2.492-1.562,2.492c-0.49,0-1.561-0.144-3.226-1.105l-114.787-66.271
	L392.01,160.546z"/>
<path d="M226.339,204.261c1.547,0.894,3.273,1.34,5,1.34s3.453-0.446,5-1.34l129.785-74.933
	c7.734-4.464,12.379-11.447,12.744-19.158c0.351-7.402-3.373-14.617-9.959-19.3c-18.457-13.129-36.744-21.518-61.145-28.056
	c-18.541-4.967-37.69-7.255-56.854-6.785c-8.07,0.199-17.138,1.39-23.198,8.716c-5.602,6.771-6.374,16.372-6.374,25.738
	l0.001,105.117C221.339,199.173,223.245,202.475,226.339,204.261z M243.122,77.494c0.179-0.216,1.417-1.301,8.281-1.47
	c1.477-0.037,2.954-0.055,4.429-0.055c15.759,0,31.49,2.074,46.756,6.164c21.962,5.884,38.33,13.37,54.73,25.035
	c1.11,0.789,1.593,1.619,1.572,2.056c-0.023,0.491-0.778,1.637-2.766,2.783l-114.787,66.273V90.484
	C241.338,80.706,242.585,78.142,243.122,77.494z"/>
<path d="M104.765,55h0.269c5.523,0,10-4.478,10-10s-4.477-10-10-10h-0.269c-5.523,0-10,4.478-10,10
	C94.765,50.522,99.242,55,104.765,55z"/>
<path d="M86.033,45c0-5.522-4.477-10-10-10H45c-5.523,0-10,4.478-10,10s4.477,10,10,10h31.033C81.556,55,86.033,50.522,86.033,45z"
	/>
<path d="M467.001,457h-31.034c-5.523,0-10,4.478-10,10c0,5.523,4.477,10,10,10h31.034c5.523,0,10-4.477,10-10
	C477.001,461.478,472.524,457,467.001,457z"/>
<path d="M407.236,457h-0.27c-5.523,0-10,4.478-10,10c0,5.523,4.477,10,10,10h0.27c5.523,0,10-4.477,10-10
	C417.236,461.478,412.759,457,407.236,457z"/>
<g>
</g>
<g>
</g>
<g>
</g>
<g>
</g>
<g>
</g>
<g>
</g>
<g>
</g>
<g>
</g>
<g>
</g>
<g>
</g>
<g>
</g>
<g>
</g>
<g>
</g>
<g>
</g>
<g>
</g>
</svg>
