<?xml version="1.0" encoding="iso-8859-1"?>
<!-- Generator: Adobe Illustrator 19.0.0, SVG Export Plug-In . SVG Version: 6.00 Build 0)  -->
<svg version="1.1" id="Capa_1" xmlns="http://www.w3.org/2000/svg" xmlns:xlink="http://www.w3.org/1999/xlink" x="0px" y="0px"
	 viewBox="0 0 512.002 512.002" style="enable-background:new 0 0 512.002 512.002;" xml:space="preserve">
<g>
	<path style="fill:#636A75;" d="M277.55,196.198L277.55,196.198L277.55,196.198z M262.55,211.198c0-8.25,6.75-15,15-15
		s15,6.75,15,15v9.803v35h37.451c29.455,0,55.324-16.133,69.206-40c6.859-11.783,10.794-25.455,10.794-40s-3.938-28.215-10.794-40
		c-13.882-23.867-39.751-40-69.206-40H90c-44,0-80,36-80,80s36,80,80,80h172.55v-35V211.198z"/>
	<path style="fill:#BCCBD3;" d="M410.001,176.001L410.001,176.001L410.001,176.001z M399.21,135.999
		c6.856,11.785,10.791,25.457,10.791,40.002s-3.935,28.217-10.794,40h52.794h30.001c11.001,0,20-9,20-20v-40c0-11-8.999-20-20-20
		L399.21,135.999z"/>
	<path style="fill:#F74F5C;" d="M292.55,326.198v-70.197v-35v-9.803c0-8.25-6.75-15-15-15s-15,6.75-15,15v9.803v35v70.197H195
		c-8.284,0-15,6.717-15,15c0,8.285,6.716,15,15,15h32.55h50h50h50.201c28.685,0,54.751-11.723,73.639-30.611
		c18.889-18.887,30.612-44.953,30.612-73.639v-35.947h-30.001v35.947c0,20.402-8.357,38.963-21.822,52.428
		s-32.024,21.822-52.428,21.822H292.55z"/>
	<polygon style="fill:#636A75;" points="327.55,356.198 277.55,356.198 227.55,356.198 227.55,386.102 327.55,386.102 	"/>
	<rect x="227.55" y="386.1" style="fill:#BCCBD3;" width="100" height="29.9"/>
</g>
<path d="M482.002,126.001h-77.205c-16.165-24.103-43.658-40-74.796-40H90c-49.626,0-90,40.374-90,90s40.374,90,90,90h162.55v50.197
	H195c-13.785,0-25,11.215-25,25s11.215,25,25,25h22.55v9.902h-3.502c-5.523,0-10,4.477-10,10c0,5.522,4.477,10,10,10h3.502V416
	c0,5.522,4.477,10,10,10h100c5.523,0,10-4.478,10-10v-19.9h3.501c5.523,0,10-4.478,10-10c0-5.523-4.477-10-10-10h-3.501v-9.902
	h40.201c30.419,0,59.082-11.912,80.709-33.54c21.629-21.627,33.542-50.291,33.542-80.71V224.28c11.639-4.127,20-15.243,20-28.279
	v-40C512.002,139.459,498.544,126.001,482.002,126.001z M317.55,406.001h-80v-9.9h80V406.001z M237.55,376.102v-9.9h80v9.9H237.55z
	 M302.55,266.001h27.451c31.138,0,58.631-15.897,74.796-40h37.204v25.947c0,17.065-6.71,33.173-18.893,45.357
	c-12.184,12.184-28.292,18.893-45.357,18.893H302.55V266.001z M90,246.001c-38.598,0-70-31.402-70-70s31.402-70,70-70h240.001
	c25.676,0,48.154,13.905,60.335,34.571c0.078,0.151,0.141,0.309,0.227,0.457c4.55,7.821,7.513,16.448,8.761,25.354
	c0.065,0.471,0.125,0.944,0.181,1.419c0.057,0.478,0.116,0.953,0.163,1.432c0.087,0.905,0.156,1.815,0.208,2.731
	c0.018,0.305,0.032,0.609,0.045,0.914c0.046,1.035,0.079,2.074,0.079,3.121s-0.033,2.086-0.079,3.121
	c-0.014,0.305-0.028,0.609-0.045,0.914c-0.052,0.916-0.121,1.826-0.208,2.731c-0.047,0.479-0.107,0.954-0.163,1.432
	c-0.056,0.475-0.116,0.948-0.181,1.419c-1.247,8.906-4.211,17.533-8.761,25.355c-0.086,0.148-0.149,0.306-0.227,0.457
	c-12.182,20.666-34.659,34.571-60.335,34.571H302.55v-15h27.451c5.523,0,10-4.478,10-10s-4.477-10-10-10h-27.456
	c-0.107-13.694-11.276-24.803-24.995-24.803s-24.888,11.108-24.995,24.803H118.96c-5.523,0-10,4.478-10,10s4.477,10,10,10h133.59v15
	L90,246.001L90,246.001z M472.002,251.948c0,25.077-9.831,48.718-27.684,66.567c-17.85,17.852-41.491,27.683-66.567,27.683H195
	c-2.757,0-5-2.243-5-5s2.243-5,5-5h67.55c5.523,0,10-4.478,10-10v-115c0-2.71,2.29-5,5-5c2.711,0,5,2.29,5,5v115
	c0,5.522,4.477,10,10,10h85.201c22.407,0,43.538-8.79,59.498-24.751c15.962-15.961,24.752-37.092,24.752-59.499v-25.947h10.001
	L472.002,251.948L472.002,251.948z M492.002,196.001c0,5.514-4.486,10-10,10l0,0h-67.149c2.903-8.187,4.654-16.913,5.054-25.985
	c0.007-0.153,0.012-0.307,0.017-0.46c0.046-1.18,0.077-2.363,0.077-3.555c0-1.191-0.03-2.375-0.077-3.555
	c-0.006-0.153-0.01-0.307-0.017-0.46c-0.4-9.072-2.15-17.799-5.054-25.985h67.149c5.514,0,10,4.486,10,10V196.001z"/>
<path d="M149.765,141.001h0.27c5.523,0,10-4.478,10-10s-4.477-10-10-10h-0.27c-5.523,0-10,4.478-10,10
	C139.765,136.523,144.242,141.001,149.765,141.001z"/>
<path d="M90,141.001h31.034c5.523,0,10-4.478,10-10s-4.477-10-10-10H90c-5.523,0-10,4.478-10,10
	C80,136.523,84.477,141.001,90,141.001z"/>
<path d="M90.229,211.001H89.96c-5.523,0-10,4.478-10,10s4.477,10,10,10h0.269c5.523,0,10-4.478,10-10S95.752,211.001,90.229,211.001
	z"/>
<g>
</g>
<g>
</g>
<g>
</g>
<g>
</g>
<g>
</g>
<g>
</g>
<g>
</g>
<g>
</g>
<g>
</g>
<g>
</g>
<g>
</g>
<g>
</g>
<g>
</g>
<g>
</g>
<g>
</g>
</svg>
