<?xml version="1.0" encoding="iso-8859-1"?>
<!-- Generator: Adobe Illustrator 19.0.0, SVG Export Plug-In . SVG Version: 6.00 Build 0)  -->
<svg version="1.1" id="Capa_1" xmlns="http://www.w3.org/2000/svg" xmlns:xlink="http://www.w3.org/1999/xlink" x="0px" y="0px"
	 viewBox="0 0 512.002 512.002" style="enable-background:new 0 0 512.002 512.002;" xml:space="preserve">
<g>
	<path style="fill:#4AD194;" d="M45.001,256.002c0-116.533,94.468-211.002,211-211.002c116.533,0,211.001,94.469,211.001,211.002
		s-94.468,211-211.001,211C139.469,467.002,45.001,372.535,45.001,256.002L45.001,256.002z M502.002,256.002
		C502.002,120.139,391.865,10,256.001,10c-135.862,0-246,110.139-246,246.002c0,135.861,110.138,246,246,246
		C391.865,502.002,502.002,391.863,502.002,256.002z"/>
	<path style="fill:#E1E6E9;" d="M256.001,45c-116.532,0-211,94.469-211,211.002s94.468,211,211,211
		c116.533,0,211.001-94.467,211.001-211S372.535,45,256.001,45L256.001,45z M336.001,256.002L336.001,256.002L336.001,256.002z
		 M256.001,336.002L256.001,336.002L256.001,336.002z M176.001,256.002L176.001,256.002L176.001,256.002z M256.001,176.002
		c44,0,80,36,80,80s-36,80-80,80s-80-36-80-80S212.001,176.002,256.001,176.002z"/>
	<path style="fill:#F74F5C;" d="M256.001,176.002c-44,0-80,36-80,80s36,80,80,80s80-36,80-80S300.001,176.002,256.001,176.002z"/>
</g>
<path d="M256.001,0c-141.158,0-256,114.842-256,256.002c0,141.159,114.841,256,256,256s256.001-114.841,256.001-256
	C512.001,114.842,397.161,0,256.001,0z M256.001,492.002c-130.131,0-236-105.869-236-236C20.001,125.87,125.871,20,256.001,20
	c130.131,0,236.001,105.87,236.001,236.002C492.002,386.133,386.133,492.002,256.001,492.002z"/>
<path d="M256.001,35c-121.86,0-221,99.141-221,221.002c0,121.859,99.14,221,221,221c121.861,0,221.002-99.141,221.002-221
	C477.003,134.141,377.862,35,256.001,35z M256.001,457.002c-110.832,0-201-90.168-201-201c0-110.833,90.168-201.002,201-201.002
	c110.833,0,201.002,90.169,201.002,201.002C457.003,366.834,366.834,457.002,256.001,457.002z"/>
<path d="M108.581,159.342c-4.781-2.761-10.898-1.122-13.66,3.66c-10.87,18.826-18.3,39.228-22.083,60.635
	c-0.961,5.438,2.669,10.627,8.107,11.588c0.589,0.104,1.174,0.154,1.752,0.154c4.76,0,8.979-3.412,9.836-8.262
	c3.377-19.105,10.007-37.313,19.708-54.115C115.002,168.219,113.364,162.104,108.581,159.342z"/>
<path d="M441.301,239.858c-0.479-5.502-5.336-9.597-10.83-9.094c-5.502,0.479-9.574,5.328-9.095,10.83
	c2.97,34.09-4.504,67.773-21.613,97.407c-2.762,4.783-1.122,10.898,3.66,13.66c1.575,0.909,3.294,1.342,4.991,1.342
	c3.456,0,6.817-1.794,8.669-5.002C436.254,315.797,444.628,278.057,441.301,239.858z"/>
<path d="M80.001,245.395c-5.523,0-10,4.478-10,10v0.607c0,5.523,4.477,10,10,10s10-4.477,10-10v-0.607
	C90.001,249.872,85.524,245.395,80.001,245.395z"/>
<path d="M416.495,213.599c1.188,4.48,5.234,7.441,9.66,7.441c0.848,0,1.71-0.109,2.568-0.337c5.339-1.414,8.52-6.889,7.105-12.227
	l-0.168-0.633c-1.44-5.332-6.93-8.482-12.261-7.048c-5.332,1.439-8.487,6.929-7.048,12.261L416.495,213.599z"/>
<path d="M256.001,166.002c-49.626,0-90,40.374-90,90s40.374,90,90,90s90-40.374,90-90S305.627,166.002,256.001,166.002z
	 M256.001,326.002c-38.598,0-70-31.402-70-70s31.402-70,70-70s70,31.402,70,70S294.6,326.002,256.001,326.002z"/>
<g>
</g>
<g>
</g>
<g>
</g>
<g>
</g>
<g>
</g>
<g>
</g>
<g>
</g>
<g>
</g>
<g>
</g>
<g>
</g>
<g>
</g>
<g>
</g>
<g>
</g>
<g>
</g>
<g>
</g>
</svg>
