<?xml version="1.0" encoding="iso-8859-1"?>
<!-- Generator: Adobe Illustrator 19.0.0, SVG Export Plug-In . SVG Version: 6.00 Build 0)  -->
<svg version="1.1" id="Capa_1" xmlns="http://www.w3.org/2000/svg" xmlns:xlink="http://www.w3.org/1999/xlink" x="0px" y="0px"
	 viewBox="0 0 512.002 512.002" style="enable-background:new 0 0 512.002 512.002;" xml:space="preserve">
<g>
	<path style="fill:#BCCBD3;" d="M234.333,161.501h43.334c4.584,0,8.333-3.75,8.333-8.334v-33.334c0-4.582-3.749-8.332-8.333-8.332
		h-43.334c-4.583,0-8.333,3.75-8.333,8.332v33.334C226,157.751,229.75,161.501,234.333,161.501z"/>
	<path style="fill:#E1E6E9;" d="M226,153.167v-33.334c0-4.582,3.75-8.332,8.333-8.332h43.334c4.584,0,8.333,3.75,8.333,8.332v33.334
		c0,4.584-3.749,8.334-8.333,8.334h-43.334C229.75,161.501,226,157.751,226,153.167L226,153.167z M186.001,116.001H30
		c-11,0-20,9-20,20v140h35v-55c0-11,9-20,20-20h240.001c11,0,19.999,9,19.999,20v55l22.356,0.002
		c14.897-21.896,39.662-35.002,66.145-35.002c26.482,0,51.248,13.105,66.146,35h22.355v-140c0-11-9-20-20-20h-15h-60.001h-81l-10-30
		c-1.74-5.219-4.5-10-10-10h-100c-5.5,0-8.261,4.781-10,10L186.001,116.001L186.001,116.001z M393.501,177.515
		c0-11.045,8.955-20,20-20s20,8.955,20,20c0,11.047-8.955,20-20,20S393.501,188.562,393.501,177.515z"/>
	<circle style="fill:#F74F5C;" cx="413.5" cy="177.51" r="20"/>
	<g>
		<path style="fill:#4AD194;" d="M407.001,116.001h60.001v-15c0-8.25-6.75-15-15-15h-30.001c-8.25,0-15,6.75-15,15V116.001z"/>
		<path style="fill:#4AD194;" d="M479.647,276.001c-14.898-21.895-39.664-35-66.146-35c-26.484,0-51.251,13.107-66.145,35.002
			L325,276.001v58.281v46.719c0,11-8.999,20-19.999,20H65c-11,0-20-9-20-20v-105H10v140c0,11,9,20,20,20h452.002c11,0,20-9,20-20
			v-140H479.647L479.647,276.001z M458.501,321.001c0,24.852-20.148,45-45,45c-24.853,0-45-20.148-45-45c0-24.854,20.147-45,45-45
			C438.353,276.001,458.501,296.147,458.501,321.001z"/>
	</g>
	<g>
		<circle style="fill:#BCCBD3;" cx="413.5" cy="321" r="45"/>
		<path style="fill:#BCCBD3;" d="M325,334.282l-45.748-45.748c-8.769-8.768-23.116-8.768-31.886,0l-69.807,69.807l-39.008-39.006
			c-8.768-8.77-23.116-8.77-31.885,0L45,381.001c0,11,9,20,20,20h240.001c11,0,19.999-9,19.999-20V334.282z"/>
	</g>
	<path style="fill:#636A75;" d="M279.252,288.534L325,334.282v-58.281v-55c0-11-8.999-20-19.999-20H65c-11,0-20,9-20,20v55v105
		l61.667-61.666c8.769-8.77,23.117-8.77,31.885,0l39.008,39.006l69.807-69.807C256.136,279.767,270.483,279.767,279.252,288.534
		L279.252,288.534z M176.661,243.96c11.046,0,20,8.955,20,20s-8.954,20-20,20c-11.045,0-19.999-8.955-19.999-20
		C156.662,252.915,165.616,243.96,176.661,243.96z"/>
	<circle style="fill:#FFC36C;" cx="176.66" cy="263.96" r="20"/>
</g>
<path d="M482.002,106.001h-5v-5c0-13.785-11.215-25-25-25h-30.001c-13.785,0-25,11.215-25,25v5h-63.793l-7.721-23.163
	c-4.64-13.916-13.158-16.837-19.486-16.837h-100c-6.33,0-14.849,2.921-19.487,16.838l-7.721,23.162H30c-16.542,0-30,13.458-30,30
	v280c0,16.542,13.458,30,30,30h452.002c16.542,0,30-13.458,30-30v-280C512.002,119.459,498.544,106.001,482.002,106.001z
	 M417.001,101.001c0-2.71,2.29-5,5-5h30.001c2.71,0,5,2.29,5,5v5h-40.001V101.001z M30,126.001h156.001
	c4.304,0,8.126-2.754,9.487-6.838l10.001-30c0.573-1.72,1.063-2.67,1.37-3.162h98.286c0.307,0.492,0.797,1.443,1.371,3.162l10,30
	c1.361,4.084,5.183,6.838,9.487,6.838l0,0h156.001l0,0c5.514,0,10,4.486,10,10v130h-7.264c-16.983-22.011-43.225-35-71.237-35
	s-54.253,12.989-71.237,35H335v-45c0-16.542-13.458-30-29.999-30H65c-16.542,0-30,13.458-30,30v45H20v-130
	C20,130.487,24.486,126.001,30,126.001z M315,310.14l-28.677-28.677c-12.689-12.687-33.336-12.689-46.028,0l-62.735,62.735
	l-31.936-31.934c-6.129-6.131-14.303-9.507-23.014-9.507s-16.885,3.376-23.014,9.506L55,356.859V221.001c0-5.514,4.486-10,10-10
	h240.001c5.514,0,9.999,4.486,9.999,10V310.14z M113.738,326.405c2.352-2.352,5.503-3.647,8.872-3.647s6.52,1.296,8.872,3.648
	l39.007,39.006c3.905,3.904,10.237,3.904,14.142,0l69.806-69.806c4.894-4.892,12.854-4.892,17.744-0.001L315,338.425v42.576
	c0,5.514-4.485,10-9.999,10H65c-4.282,0-7.934-2.711-9.356-6.502L113.738,326.405z M482.002,426.001H30c-5.514,0-10-4.486-10-10
	v-130h15v94.996c0,0.004,0,0.008,0,0.012c0.005,16.539,13.461,29.992,30,29.992h240.001c16.541,0,29.999-13.458,29.999-30v-95l0,0
	l0,0h12.231c0.377,0.004,0.753-0.013,1.128-0.051c0.056-0.006,0.109-0.017,0.165-0.023c0.266-0.031,0.53-0.068,0.792-0.121
	c0.115-0.022,0.226-0.055,0.34-0.081c0.201-0.048,0.402-0.095,0.6-0.154c0.123-0.037,0.242-0.083,0.363-0.125
	c0.188-0.065,0.376-0.129,0.559-0.204c0.105-0.044,0.207-0.095,0.311-0.143c0.195-0.088,0.39-0.178,0.58-0.279
	c0.079-0.042,0.154-0.09,0.232-0.134c0.208-0.118,0.413-0.239,0.613-0.372c0.054-0.036,0.104-0.076,0.157-0.113
	c0.213-0.148,0.423-0.301,0.625-0.467c0.04-0.033,0.078-0.07,0.117-0.103c0.205-0.174,0.406-0.352,0.598-0.543
	c0.044-0.045,0.085-0.093,0.128-0.138c0.178-0.185,0.354-0.371,0.52-0.571c0.074-0.09,0.139-0.185,0.21-0.277
	c0.12-0.156,0.244-0.307,0.356-0.471c13.047-19.179,34.684-30.629,57.878-30.629c23.196,0,44.832,11.45,57.878,30.628
	c0.034,0.05,0.075,0.093,0.11,0.142c0.176,0.248,0.361,0.488,0.558,0.719c0.104,0.122,0.213,0.237,0.322,0.354
	c0.143,0.151,0.289,0.298,0.44,0.44c0.128,0.12,0.255,0.24,0.388,0.353c0.158,0.133,0.323,0.256,0.488,0.379
	c0.175,0.131,0.35,0.258,0.532,0.376c0.236,0.153,0.476,0.3,0.724,0.433c0.135,0.071,0.273,0.133,0.411,0.197
	c0.198,0.095,0.398,0.185,0.603,0.268c0.142,0.057,0.286,0.107,0.43,0.158c0.207,0.071,0.418,0.135,0.632,0.193
	c0.147,0.04,0.294,0.08,0.443,0.113c0.211,0.048,0.426,0.083,0.642,0.117c0.156,0.023,0.311,0.054,0.468,0.07
	c0.2,0.022,0.404,0.027,0.607,0.037c0.16,0.008,0.319,0.028,0.479,0.028c0.045,0,0.089-0.005,0.134-0.005h12.211v130
	C492.002,421.515,487.516,426.001,482.002,426.001z"/>
<path d="M65,168.501h31.034c5.523,0,10-4.478,10-10s-4.477-10-10-10H65c-5.523,0-10,4.478-10,10
	C55,164.023,59.477,168.501,65,168.501z"/>
<path d="M124.765,168.501h0.27c5.523,0,10-4.478,10-10s-4.477-10-10-10h-0.27c-5.523,0-10,4.478-10,10
	C114.765,164.023,119.242,168.501,124.765,168.501z"/>
<path d="M413.501,207.515c16.542,0,30-13.458,30-30s-13.458-30-30-30s-30,13.458-30,30S396.959,207.515,413.501,207.515z
	 M413.501,167.515c5.514,0,10,4.486,10,10s-4.486,10-10,10s-10-4.486-10-10S407.987,167.515,413.501,167.515z"/>
<path d="M413.501,266.001c-30.327,0-55,24.673-55,55c0,26.911,19.433,49.354,45,54.072v2.922c0,5.522,4.477,10,10,10s10-4.478,10-10
	v-2.922c25.567-4.718,45.001-27.161,45.001-54.072C468.502,290.674,443.829,266.001,413.501,266.001z M413.501,356.001
	c-19.299,0-35-15.701-35-35s15.701-35,35-35c19.3,0,35.001,15.701,35.001,35C448.502,340.3,432.801,356.001,413.501,356.001z"/>
<path d="M234.333,171.501h43.334c10.109,0,18.333-8.225,18.333-18.334v-33.334c0-10.108-8.224-18.332-18.333-18.332h-43.334
	c-10.109,0-18.333,8.224-18.333,18.332v33.334C216,163.276,224.224,171.501,234.333,171.501z M236,121.501h40v30h-40V121.501z"/>
<path d="M176.662,233.96c-16.542,0-30,13.458-30,30c0,16.542,13.458,30,30,30s30-13.458,30-30
	C206.662,247.418,193.204,233.96,176.662,233.96z M176.662,273.96c-5.514,0-10-4.486-10-10s4.486-10,10-10s10,4.486,10,10
	S182.176,273.96,176.662,273.96z"/>
<path d="M229.966,375.999h0.27c5.523,0,10-4.478,10-10c0-5.523-4.477-10-10-10h-0.27c-5.523,0-10,4.477-10,10
	S224.443,375.999,229.966,375.999z"/>
<path d="M258.966,375.999H290c5.523,0,10-4.478,10-10c0-5.523-4.477-10-10-10h-31.034c-5.523,0-10,4.477-10,10
	S253.443,375.999,258.966,375.999z"/>
<g>
</g>
<g>
</g>
<g>
</g>
<g>
</g>
<g>
</g>
<g>
</g>
<g>
</g>
<g>
</g>
<g>
</g>
<g>
</g>
<g>
</g>
<g>
</g>
<g>
</g>
<g>
</g>
<g>
</g>
</svg>
