<?xml version="1.0" encoding="iso-8859-1"?>
<!-- Generator: Adobe Illustrator 19.0.0, SVG Export Plug-In . SVG Version: 6.00 Build 0)  -->
<svg version="1.1" id="Capa_1" xmlns="http://www.w3.org/2000/svg" xmlns:xlink="http://www.w3.org/1999/xlink" x="0px" y="0px"
	 viewBox="0 0 512 512" style="enable-background:new 0 0 512 512;" xml:space="preserve">
<g>
	<path style="fill:#E1E6E9;" d="M122.128,261.385c11.046,0,20,8.953,20,20c0,11.045-8.954,19.998-20,19.998
		s-19.999-8.953-19.999-19.998C102.129,270.338,111.082,261.385,122.128,261.385L122.128,261.385z M482,56.001H30c-11,0-20,9-20,20
		v260h492v-260C502,65.001,493,56.001,482,56.001L482,56.001z M215.83,180.014v-31.365c0-7.197,5.836-13.033,13.032-13.033
		c2.696,0,5.202,0.818,7.28,2.223l26.398,15.242c0.229,0.133,0.45,0.271,0.669,0.416l26.446,15.268
		c6.213,3.57,8.355,11.502,4.785,17.717c-1.22,2.121-2.947,3.768-4.941,4.875l-26.971,15.57l0.012,0.021l-27.162,15.684
		c-6.215,3.6-14.169,1.479-17.768-4.734c-1.189-2.057-1.755-4.301-1.753-6.516h-0.028v-31.368H215.83z"/>
	<path style="fill:#F74F5C;" d="M215.83,180.014v31.367h0.028c-0.002,2.215,0.563,4.459,1.753,6.516
		c3.599,6.213,11.553,8.334,17.768,4.734l27.162-15.684l-0.012-0.021l26.971-15.57c1.994-1.107,3.722-2.754,4.941-4.875
		c3.57-6.215,1.428-14.146-4.785-17.717l-26.446-15.268c-0.219-0.145-0.44-0.283-0.669-0.416l-26.398-15.242
		c-2.078-1.404-4.584-2.223-7.28-2.223c-7.196,0-13.032,5.836-13.032,13.033v31.366H215.83z"/>
	<circle style="fill:#FF9750;" cx="122.13" cy="281.38" r="20"/>
	<g>
		<path style="fill:#4AD194;" d="M502,336.001H10v20c0,11,9,20,20,20h181h90h181c11,0,20-9,20-20V336.001z"/>
		<polygon style="fill:#4AD194;" points="301,376.001 211,376.001 190.999,455.999 321,455.999 		"/>
	</g>
</g>
<path d="M482,46.001H30c-16.542,0-30,13.458-30,30v280c0,16.542,13.458,30,30,30h168.192l-16.895,67.572
	c-0.747,2.987-0.076,6.152,1.819,8.58c1.895,2.427,4.803,3.846,7.882,3.846H321c0.008,0.001,0.016,0.001,0.02,0
	c5.523,0,10-4.478,10-10c0-1.069-0.168-2.1-0.479-3.065l-16.733-66.933H482c16.542,0,30-13.458,30-30v-280
	C512,59.459,498.542,46.001,482,46.001z M30,66.001h452c5.514,0,10,4.486,10,10v250H20v-250C20,70.487,24.486,66.001,30,66.001z
	 M308.192,445.999H203.807l15-59.998h74.385L308.192,445.999z M482,366.001L482,366.001H30l0,0c-5.514,0-10-4.486-10-10v-10h472v10
	C492,361.514,487.514,366.001,482,366.001z"/>
<path d="M114.766,101.003h0.236c5.523,0,10-4.478,10-10c0-5.523-4.477-10-10-10h-0.236c-5.523,0-10,4.477-10,10
	C104.766,96.525,109.243,101.003,114.766,101.003z"/>
<path d="M45,101.001h41.035c5.523,0,10-4.478,10-10s-4.477-10-10-10H45c-5.523,0-10,4.478-10,10S39.477,101.001,45,101.001z"/>
<path d="M208.958,222.909c4.1,7.079,11.731,11.475,19.916,11.475c4.033,0,8.015-1.071,11.505-3.093l27.162-15.684
	c0.204-0.118,0.403-0.242,0.596-0.372l26.301-15.184c3.607-2.023,6.605-4.99,8.675-8.59c6.311-10.985,2.51-25.057-8.456-31.358
	l-26.217-15.135c-0.291-0.188-0.588-0.369-0.898-0.549l-26.135-15.09c-3.736-2.432-8.064-3.715-12.544-3.715
	c-12.7,0-23.032,10.333-23.032,23.033v62.732c0,0.338,0.017,0.673,0.05,1.002C206.04,216.074,207.096,219.693,208.958,222.909z
	 M225.83,148.649c0-1.673,1.36-3.033,3.032-3.033c0.617,0,1.182,0.171,1.681,0.508c0.195,0.132,0.395,0.257,0.599,0.375
	l26.39,15.237c0.057,0.033,0.111,0.068,0.165,0.104c0.168,0.11,0.339,0.216,0.513,0.316l26.464,15.277
	c1.423,0.818,1.915,2.642,1.099,4.062c-0.275,0.48-0.654,0.855-1.127,1.118c-0.049,0.026-0.097,0.054-0.145,0.082l-26.971,15.57
	c-0.204,0.118-0.403,0.242-0.597,0.373l-26.565,15.339c-0.466,0.27-0.968,0.406-1.493,0.406c-1.09,0-2.066-0.561-2.609-1.497
	c-0.271-0.468-0.408-0.972-0.407-1.497c0-0.253-0.009-0.506-0.028-0.756L225.83,148.649L225.83,148.649z"/>
<path d="M38.629,291.385h55.22c4.128,11.638,15.244,19.998,28.28,19.998s24.151-8.36,28.28-19.998h322.963c5.522,0,10-4.478,10-10
	s-4.478-10-10-10H150.409c-4.128-11.639-15.244-20-28.28-20s-24.152,8.361-28.28,20h-55.22c-5.523,0-10,4.478-10,10
	C28.629,286.908,33.106,291.385,38.629,291.385z M122.129,271.385c5.511,0,9.994,4.482,9.999,9.99c0,0.004,0,0.007,0,0.007
	c0,0.006,0,0.009,0,0.009c-0.005,5.512-4.489,9.992-9.999,9.992c-5.514,0-10-4.485-10-9.998
	C112.129,275.872,116.615,271.385,122.129,271.385z"/>
<g>
</g>
<g>
</g>
<g>
</g>
<g>
</g>
<g>
</g>
<g>
</g>
<g>
</g>
<g>
</g>
<g>
</g>
<g>
</g>
<g>
</g>
<g>
</g>
<g>
</g>
<g>
</g>
<g>
</g>
</svg>
