<?xml version="1.0" encoding="iso-8859-1"?>
<!-- Generator: Adobe Illustrator 19.0.0, SVG Export Plug-In . SVG Version: 6.00 Build 0)  -->
<svg version="1.1" id="Capa_1" xmlns="http://www.w3.org/2000/svg" xmlns:xlink="http://www.w3.org/1999/xlink" x="0px" y="0px"
	 viewBox="0 0 512.002 512.002" style="enable-background:new 0 0 512.002 512.002;" xml:space="preserve">
<g>
	<path style="fill:#E1E6E9;" d="M410.001,370.002v-268V50c0-22-18-40-40-40h-320c-22.001,0-40,18-40,40v320.002
		c0,22,17.999,40,40,40h52.001h267.999C392.001,410.002,410.001,392.002,410.001,370.002z"/>
	<path style="fill:#BCCBD3;" d="M410.001,370.002c0,22-18,40-40,40H102.002v52c0,22.002,18,40,40,40h320c22,0,40-17.998,40-40v-320
		c0-22-18-40-40-40h-52.001V370.002z"/>
</g>
<path d="M462.002,92.002h-42.001V50c0-27.57-22.43-50-50-50h-320c-27.57,0-50,22.43-50,50v320.002c0,27.57,22.43,50,50,50h42.001v42
	c0,27.57,22.43,50,50,50h320c27.57,0,50-22.43,50-50v-320C512.001,114.432,489.573,92.002,462.002,92.002z M20.001,370.002V50
	c0-16.542,13.458-30,30-30h320c16.542,0,30,13.458,30,30v320.002c0,16.542-13.458,30-30,30h-320
	C33.459,400.002,20.001,386.544,20.001,370.002z M492.002,462.002c0,16.542-13.458,30-30,30h-320c-16.542,0-30-13.458-30-30v-42
	h257.999c27.57,0,50-22.43,50-50v-258h42.001c16.542,0,30,13.458,30,30V462.002z"/>
<path d="M462.024,457.002H170.981c-5.522,0-10,4.478-10,10c0,5.523,4.478,10,10,10h291.043c5.522,0,10-4.477,10-10
	S467.546,457.002,462.024,457.002z"/>
<path d="M142.25,457.002h-0.27c-5.522,0-10,4.478-10,10c0,5.523,4.478,10,10,10h0.27c5.523,0,10-4.477,10-10
	S147.773,457.002,142.25,457.002z"/>
<path d="M109.766,55h0.27c5.522,0,10-4.478,10-10s-4.478-10-10-10h-0.27c-5.522,0-10,4.478-10,10S104.244,55,109.766,55z"/>
<path d="M91.036,45c0-5.522-4.478-10-10-10H50.001c-5.522,0-10,4.478-10,10s4.478,10,10,10h31.034
	C86.558,55,91.036,50.522,91.036,45z"/>
<path d="M103.84,255.738c1.315,2.699,3.416,4.4,5.763,5.201c1.275,0.434,2.616,0.596,3.938,0.502
	c1.317-0.094,2.618-0.44,3.812-1.022c2.307-1.123,4.237-3.123,5.179-5.881h0.002c0.45-1.307,0.639-2.609,0.564-3.904
	c-0.075-1.307-0.414-2.576-1.014-3.805l-0.008-0.008l-14.8-30.002c5.407-2.305,10.07-5.975,13.466-10.537
	c3.725-5.006,5.931-11.08,5.931-17.604c0-8.588-3.248-15.902-9.743-21.965c-3.196-2.992-6.739-5.242-10.627-6.744
	c-3.891-1.506-8.097-2.258-12.612-2.258H64.936c-2.793,0-5.327,1.145-7.163,2.996c-1.832,1.85-2.968,4.396-2.968,7.205v82.777
	c0,2.896,1.137,5.338,2.893,7.105c0.962,0.969,2.107,1.728,3.349,2.246c1.249,0.52,2.597,0.797,3.953,0.797
	c2.49,0,5.028-0.92,7.096-2.967c1.004-0.99,1.761-2.09,2.271-3.297c0.516-1.221,0.771-2.516,0.771-3.885v-31.139h10.844
	l17.862,36.184L103.84,255.738z M102.935,195.92L102.935,195.92c-1.205,1.039-2.538,1.838-3.996,2.395
	c-1.45,0.553-3.02,0.865-4.704,0.934v-0.006H75.138v-21.221H93.69c3.19,0,5.9,0.893,7.984,2.328c1.83,1.26,3.187,2.939,3.96,4.791
	c0.759,1.816,0.957,3.801,0.49,5.709C105.686,192.645,104.651,194.396,102.935,195.92z"/>
<path d="M228.607,171.486l29.181,83.133l0.016,0.047c1.186,3.139,3.318,5.213,5.775,6.234c1.141,0.473,2.355,0.717,3.581,0.73
	c1.219,0.016,2.438-0.197,3.595-0.635c2.602-0.982,4.914-3.084,6.238-6.268l0.039-0.109l19.595-55.779l20.043,56.877l0.047,0.125
	c0.967,2.25,2.404,3.912,4.071,4.99c1.666,1.078,3.544,1.563,5.408,1.465c1.854-0.096,3.686-0.764,5.274-1.992
	c1.666-1.289,3.059-3.191,3.899-5.686l29.251-83.133c0.927-2.66,0.698-5.432-0.42-7.779c-1.12-2.354-3.136-4.285-5.777-5.254
	l-0.055-0.016c-2.721-0.916-5.49-0.688-7.823,0.439c-2.349,1.135-4.243,3.172-5.193,5.861v0.008l-19.568,55.744l-19.571-55.816
	h-0.001c-0.705-2.352-2.14-4.141-3.935-5.322c-1.589-1.047-3.458-1.609-5.345-1.656c-1.887-0.047-3.801,0.42-5.479,1.43
	c-1.938,1.164-3.553,3.031-4.445,5.637h0.002l-19.564,55.73l-19.569-55.746l-0.008-0.016c-0.997-2.779-2.938-4.752-5.235-5.846
	c-1.222-0.584-2.552-0.918-3.899-0.99c-1.34-0.074-2.701,0.115-3.991,0.578c-2.347,0.842-4.429,2.57-5.701,5.24
	c-1.206,2.529-1.354,5.119-0.441,7.766L228.607,171.486z"/>
<path d="M144.688,260.658l0.038,0.023c2.619,1.035,5.435,1.064,7.886,0.041c2.295-0.955,4.242-2.813,5.384-5.6l6.147-14.877h37.566
	l6.148,14.877c1.175,2.844,3.171,4.674,5.459,5.609c1.261,0.518,2.601,0.752,3.932,0.73c1.324-0.021,2.642-0.295,3.865-0.801
	c2.418-0.998,4.496-2.9,5.579-5.547l0.008-0.016c1.023-2.574,1.023-5.152,0-7.727l-0.008-0.031l-8.818-21.24l-0.003,0.002
	l-25.528-61.617h0.001c-1.024-2.709-3.167-4.654-5.674-5.645c-1.165-0.461-2.429-0.715-3.708-0.742
	c-1.28-0.027-2.565,0.178-3.773,0.635c-2.393,0.906-4.479,2.764-5.647,5.719l0.005,0.002l-25.54,61.719h-0.003l-8.818,21.168v0.008
	c-1.076,2.607-1,5.383-0.008,7.783C140.172,257.539,142.088,259.564,144.688,260.658z M182.896,194.928l10.416,25.01h-20.76
	L182.896,194.928z"/>
<g>
</g>
<g>
</g>
<g>
</g>
<g>
</g>
<g>
</g>
<g>
</g>
<g>
</g>
<g>
</g>
<g>
</g>
<g>
</g>
<g>
</g>
<g>
</g>
<g>
</g>
<g>
</g>
<g>
</g>
</svg>
