<?xml version="1.0" encoding="iso-8859-1"?>
<!-- Generator: Adobe Illustrator 19.0.0, SVG Export Plug-In . SVG Version: 6.00 Build 0)  -->
<svg version="1.1" id="Capa_1" xmlns="http://www.w3.org/2000/svg" xmlns:xlink="http://www.w3.org/1999/xlink" x="0px" y="0px"
	 viewBox="0 0 512.002 512.002" style="enable-background:new 0 0 512.002 512.002;" xml:space="preserve">
<g>
	<path style="fill:#BCCBD3;" d="M197.494,253.572c15.45-32.408,41.481-58.801,73.625-74.711
		c-6.133-28.117-31.158-49.16-61.119-49.16c-34.561,0-62.561,27.998-62.561,62.561C147.439,222.541,168.929,247.781,197.494,253.572
		z"/>
	<path style="fill:#636A75;" d="M147.439,192.262c0-34.563,27.999-62.561,62.561-62.561c29.961,0,54.986,21.043,61.119,49.16
		c10.435-5.166,21.516-9.227,33.087-12.027C293.018,125.283,255.084,94.701,210,94.701c-53.881,0-97.561,43.68-97.561,97.561
		c0,45.584,31.264,83.861,73.518,94.572c2.632-11.617,6.528-22.756,11.537-33.262C168.929,247.781,147.439,222.541,147.439,192.262z
		"/>
	<path style="fill:#FFC36C;" d="M304.206,166.834c-11.571,2.801-22.651,6.861-33.087,12.027
		c-32.144,15.91-58.175,42.303-73.625,74.711c-5.009,10.506-8.905,21.645-11.537,33.262c-2.589,11.42-3.955,23.305-3.955,35.51
		c0,88.365,71.635,159.998,160,159.998s160-71.633,160-159.998c0-64.053-37.637-119.313-92.002-144.875v0.014
		c-20.639-9.705-43.682-15.139-67.998-15.139C328.982,162.344,316.324,163.898,304.206,166.834z"/>
	<path style="fill:#E1E6E9;" d="M342.002,162.344c24.314,0,47.361,5.422,67.998,15.125V78.441c0-8.943-7.316-16.26-16.26-16.26
		H266.911l-8.13-24.391c-1.414-4.242-3.658-8.131-8.131-8.131h-81.3c-4.471,0-6.715,3.889-8.13,8.131l-8.13,24.391H26.26
		c-8.942,0-16.26,7.316-16.26,16.26v227.641c0,8.943,7.317,16.262,16.26,16.262h155.742c0-12.205,1.366-24.09,3.955-35.51
		c-42.254-10.711-73.518-48.988-73.518-94.572c0-53.881,43.68-97.561,97.561-97.561c45.084,0,83.018,30.582,94.206,72.133
		C316.324,163.898,328.982,162.344,342.002,162.344z"/>
	<path d="M420,171.322V78.441c0-14.48-11.78-26.26-26.26-26.26H274.119l-5.851-17.553c-4.342-13.024-12.902-14.969-17.618-14.969
		h-81.3c-4.715,0-13.273,1.944-17.617,14.969l-5.851,17.553H26.26C11.78,52.182,0,63.962,0,78.441v227.641
		c0,14.48,11.78,26.262,26.26,26.262h146.045c5.195,89.101,79.317,160,169.697,160c93.738,0,170-76.263,170-170.002
		C512.002,256.702,474.604,199.639,420,171.322z M20,306.082V78.441c0-3.394,2.866-6.26,6.26-6.26h126.83
		c4.305,0,8.126-2.754,9.487-6.838l8.129-24.389c0.181-0.541,0.345-0.966,0.486-1.295h77.617c0.141,0.328,0.305,0.752,0.484,1.293
		l8.13,24.391c1.361,4.084,5.183,6.838,9.487,6.838h126.83c3.393,0,6.26,2.866,6.26,6.26v84.056
		c-14.373-5.233-29.303-8.449-44.63-9.632c-0.223-0.017-0.445-0.033-0.669-0.05c-1.082-0.079-2.168-0.147-3.254-0.207
		c-0.39-0.021-0.778-0.044-1.168-0.063c-0.938-0.044-1.878-0.078-2.818-0.107c-0.473-0.015-0.942-0.034-1.415-0.046
		c-1.028-0.023-2.058-0.033-3.089-0.039c-0.318-0.002-0.636-0.012-0.955-0.012c-2.411,0-4.807,0.063-7.193,0.163
		c-0.434,0.018-0.87,0.028-1.304,0.05c-0.887,0.043-1.77,0.104-2.653,0.162c-0.531,0.035-1.064,0.063-1.595,0.102
		c-0.843,0.063-1.681,0.142-2.521,0.217c-0.565,0.051-1.133,0.095-1.697,0.15c-0.817,0.082-1.631,0.178-2.444,0.27
		c-0.581,0.066-1.164,0.128-1.743,0.2c-0.803,0.1-1.602,0.213-2.4,0.324c-0.584,0.082-1.17,0.159-1.752,0.246
		c-0.791,0.119-1.577,0.249-2.363,0.379c-0.588,0.096-1.177,0.189-1.763,0.293c-0.531,0.093-1.061,0.191-1.591,0.289
		c-15.38-41.937-55.63-70.485-100.983-70.485c-59.309,0-107.561,48.251-107.561,107.561c0,46.1,29.157,86.58,71.973,101.527
		c-0.021,0.123-0.04,0.246-0.061,0.368c-0.11,0.658-0.226,1.315-0.328,1.977c-0.109,0.703-0.206,1.411-0.307,2.117
		c-0.098,0.681-0.198,1.36-0.287,2.044c-0.091,0.697-0.169,1.398-0.251,2.099c-0.082,0.697-0.167,1.394-0.24,2.093
		c-0.073,0.693-0.134,1.391-0.198,2.086c-0.066,0.713-0.134,1.425-0.191,2.14c-0.055,0.69-0.1,1.382-0.146,2.073
		c-0.035,0.52-0.08,1.037-0.11,1.559H26.26C22.866,312.344,20,309.477,20,306.082z M290.281,160.396
		c-0.561,0.18-1.12,0.361-1.679,0.546c-0.735,0.244-1.468,0.493-2.199,0.747c-0.554,0.192-1.105,0.387-1.656,0.585
		c-0.729,0.262-1.458,0.527-2.184,0.799c-0.544,0.204-1.085,0.411-1.626,0.62c-0.727,0.28-1.45,0.564-2.171,0.854
		c-0.487,0.195-0.974,0.395-1.46,0.596c-4.563-11.289-11.957-21.383-21.488-29.153c-12.886-10.504-29.158-16.289-45.818-16.289
		c-40.01,0-72.561,32.551-72.561,72.561c0,30.271,18.932,57.061,46.419,67.695c-0.071,0.182-0.14,0.364-0.211,0.545
		c-0.195,0.499-0.382,1.003-0.572,1.504c-0.292,0.767-0.587,1.533-0.868,2.305c-0.178,0.489-0.347,0.983-0.521,1.475
		c-0.279,0.791-0.562,1.58-0.83,2.376c-0.156,0.464-0.303,0.932-0.455,1.397c-0.272,0.831-0.547,1.66-0.807,2.497
		c-0.12,0.387-0.23,0.777-0.347,1.165c-0.095,0.31-0.186,0.623-0.279,0.935c-33.723-12.728-56.529-45.107-56.529-81.894
		c0-48.281,39.279-87.561,87.561-87.561c36.178,0,68.358,22.313,81.418,55.324C291.037,160.145,290.661,160.273,290.281,160.396z
		 M256.949,175.193c-0.415,0.241-0.825,0.489-1.238,0.733c-0.743,0.439-1.485,0.878-2.221,1.329
		c-0.38,0.232-0.755,0.472-1.132,0.707c-0.762,0.475-1.522,0.947-2.276,1.434c-0.325,0.21-0.646,0.427-0.97,0.64
		c-0.798,0.522-1.595,1.044-2.382,1.579c-0.236,0.16-0.469,0.326-0.704,0.488c-0.868,0.597-1.735,1.195-2.593,1.807
		c-0.034,0.025-0.068,0.051-0.102,0.075c-4.215,3.015-8.287,6.217-12.204,9.594c-0.029,0.026-0.061,0.052-0.091,0.077
		c-0.809,0.698-1.606,1.409-2.401,2.123c-0.199,0.178-0.401,0.352-0.6,0.531c-0.72,0.651-1.429,1.314-2.137,1.978
		c-0.266,0.249-0.535,0.493-0.799,0.744c-0.667,0.632-1.323,1.274-1.98,1.917c-0.297,0.291-0.597,0.578-0.892,0.871
		c-0.627,0.623-1.245,1.257-1.863,1.891c-0.313,0.321-0.631,0.641-0.942,0.965c-0.595,0.619-1.181,1.248-1.767,1.877
		c-0.324,0.348-0.651,0.693-0.973,1.044c-0.569,0.621-1.13,1.249-1.689,1.879c-0.326,0.367-0.654,0.732-0.979,1.102
		c-0.547,0.627-1.087,1.261-1.626,1.895c-0.325,0.384-0.651,0.765-0.974,1.151c-0.525,0.63-1.043,1.266-1.561,1.904
		c-0.324,0.4-0.648,0.801-0.97,1.203c-0.506,0.637-1.005,1.278-1.501,1.922c-0.319,0.413-0.639,0.826-0.953,1.242
		c-0.488,0.645-0.971,1.294-1.45,1.945c-0.313,0.426-0.624,0.852-0.934,1.279c-0.47,0.65-0.933,1.306-1.394,1.964
		c-0.307,0.438-0.612,0.877-0.914,1.317c-0.453,0.66-0.9,1.322-1.344,1.988c-0.298,0.448-0.594,0.896-0.888,1.348
		c-0.436,0.668-0.866,1.338-1.292,2.012c-0.291,0.459-0.578,0.92-0.863,1.381c-0.418,0.676-0.833,1.354-1.241,2.035
		c-0.28,0.467-0.558,0.938-0.834,1.407c-0.401,0.686-0.801,1.372-1.194,2.064c-0.27,0.475-0.535,0.953-0.801,1.432
		c-0.316,0.568-0.635,1.137-0.944,1.71c-20.597-7.349-34.899-27.114-34.899-49.515c0-28.982,23.578-52.561,52.561-52.561
		c22.034,0,41.686,14.008,49.246,34.19c-0.036,0.02-0.071,0.04-0.107,0.061C258.407,174.362,257.675,174.773,256.949,175.193z
		 M342.002,472.344c-82.71,0-150-67.291-150-150.001s67.29-149.999,150-149.999c1.355,0,2.708,0.02,4.058,0.055
		c0.43,0.012,0.857,0.033,1.286,0.049c0.867,0.029,1.733,0.061,2.598,0.105c0.833,0.043,1.663,0.101,2.493,0.158
		c0.432,0.029,0.864,0.055,1.296,0.088c1.073,0.083,2.142,0.18,3.208,0.285c0.164,0.017,0.329,0.03,0.493,0.047
		c75.487,7.75,134.568,71.711,134.568,149.211C492.002,405.053,424.712,472.344,342.002,472.344z"/>
	<path d="M230.337,349.838c-1.32-5.363-6.733-8.638-12.101-7.319c-5.362,1.32-8.64,6.738-7.319,12.101
		c3.04,12.351,7.809,24.201,14.171,35.224c1.853,3.209,5.214,5.003,8.671,5.003c1.695,0,3.415-0.433,4.989-1.341
		c4.783-2.762,6.423-8.877,3.662-13.66C236.989,370.454,232.927,360.358,230.337,349.838z"/>
	<path d="M76.035,87.182H45c-5.522,0-10,4.478-10,10s4.478,10,10,10h31.035c5.522,0,10-4.478,10-10
		C86.035,91.659,81.558,87.182,76.035,87.182z"/>
	<path d="M105.035,107.182c5.522,0,10-4.478,10-10s-4.478-10-10-10h-0.27c-5.522,0-10,4.478-10,10s4.478,10,10,10H105.035z"/>
	<path d="M217.064,332.824c5.523-0.034,9.973-4.538,9.939-10.06l-0.001-0.42c0-5.522-4.477-10-10-10c-5.522,0-10,4.478-10,10
		l0.001,0.541c0.033,5.503,4.504,9.939,9.999,9.939C217.023,332.824,217.043,332.824,217.064,332.824z"/>
	<path d="M342.002,249.637c-38.515,0-74.402,20.72-93.659,54.074c-2.762,4.783-1.123,10.898,3.66,13.66
		c4.784,2.761,10.899,1.122,13.66-3.66c15.695-27.186,44.947-44.074,76.339-44.074s60.644,16.889,76.34,44.074
		c1.853,3.208,5.213,5.002,8.67,5.002c1.696,0,3.416-0.433,4.99-1.342c4.783-2.762,6.422-8.877,3.66-13.66
		C416.404,270.356,380.516,249.637,342.002,249.637z"/>
	<path d="M342.002,287.805c-28.158,0-54.397,15.149-68.475,39.535c-2.762,4.783-1.123,10.9,3.66,13.66
		c4.785,2.761,10.9,1.122,13.66-3.66c10.518-18.218,30.119-29.535,51.154-29.535s40.637,11.317,51.154,29.535
		c1.852,3.208,5.213,5.002,8.67,5.002c1.696,0,3.415-0.433,4.99-1.342c4.783-2.761,6.422-8.877,3.66-13.66
		C396.398,302.954,370.16,287.805,342.002,287.805z"/>
	<path d="M342.002,325.975c-17.801,0-34.389,9.576-43.29,24.991c-2.762,4.783-1.123,10.899,3.659,13.661
		c1.575,0.909,3.295,1.342,4.991,1.342c3.456,0,6.817-1.794,8.67-5.001c5.34-9.248,15.291-14.993,25.97-14.993
		c10.68,0,20.631,5.745,25.97,14.992c2.762,4.783,8.878,6.423,13.66,3.66c4.783-2.762,6.422-8.877,3.66-13.66
		C376.392,335.551,359.804,325.975,342.002,325.975z"/>
	<path d="M342.002,366.873c-5.006,0-9.088,4.082-9.088,9.088s4.082,9.088,9.088,9.088s9.088-4.082,9.088-9.088
		C351.09,370.955,347.008,366.873,342.002,366.873z"/>
</g>
<g>
</g>
<g>
</g>
<g>
</g>
<g>
</g>
<g>
</g>
<g>
</g>
<g>
</g>
<g>
</g>
<g>
</g>
<g>
</g>
<g>
</g>
<g>
</g>
<g>
</g>
<g>
</g>
<g>
</g>
</svg>
