<svg id="Capa_1" enable-background="new 0 0 512 512" height="512" viewBox="0 0 512 512" width="512" xmlns="http://www.w3.org/2000/svg"><g><g><path d="m55.172 366.1c0-50.108 40.62-90.728 90.728-90.728 25.054 0 47.736 10.155 64.154 26.574l83.885-67.312 74.39-90.963c-9.668-9.668-15.647-23.023-15.647-37.776 0-29.505 23.918-53.423 53.423-53.423 14.752 0 28.108 5.979 37.776 15.647l37.103-2.299v-34.804c-19.163-19.163-45.637-31.016-74.879-31.016-58.484 0-105.895 47.411-105.895 105.895 0 18.763 4.886 36.383 13.447 51.666l-87.011 87.011c-23.123-15.394-50.885-24.372-80.746-24.372-80.578-.001-145.9 65.321-145.9 145.9 0 40.289 16.33 76.764 42.733 103.167h40.298l-1.285-39.013c-16.419-16.418-26.574-39.1-26.574-64.154z" fill="#b782d7"/></g><path d="m443.881 68.119c9.668 9.668 15.647 23.023 15.647 37.776 0 29.505-23.918 53.423-53.423 53.423-14.752 0-28.108-5.979-37.776-15.647l-158.274 158.274c16.419 16.418 26.574 39.101 26.574 64.154 0 50.108-40.62 90.728-90.728 90.728-25.054 0-47.736-10.155-64.154-26.574l-39.013 39.013c26.402 26.404 62.877 42.734 103.166 42.734 80.578 0 145.9-65.322 145.9-145.9 0-29.862-8.978-57.623-24.372-80.746l87.011-87.011c15.284 8.56 32.903 13.447 51.666 13.447 58.484 0 105.895-47.411 105.895-105.895 0-29.242-11.853-55.716-31.016-74.879z" fill="#9244c2"/></g></svg>