<svg id="Capa_1" enable-background="new 0 0 512 512" height="512" viewBox="0 0 512 512" width="512" xmlns="http://www.w3.org/2000/svg"><g><g><path d="m243.55 12.858c-8.291-8.292-19.316-12.858-31.042-12.858s-22.751 4.566-31.042 12.858c-8.292 8.292-12.858 19.316-12.858 31.042s4.567 22.751 12.858 31.042l74.534 74.535 19.878-69.943-19.878-54.226z" fill="#fd445f"/><path d="m330.534 12.858c-8.291-8.292-19.316-12.858-31.042-12.858-11.727 0-22.751 4.566-31.042 12.858l-12.45 12.45v124.169l74.534-74.534c8.292-8.292 12.858-19.316 12.858-31.042 0-11.727-4.566-22.751-12.858-31.043z" fill="#e1105a"/></g><g><g><g><g><path d="m91.343 255.29c0 20.383 16.59 36.966 36.982 36.966l7.399-36.967-7.399-36.967c-20.392.001-36.982 16.585-36.982 36.968z" fill="#f8b400"/><path d="m128.325 218.323v73.933c20.392 0 36.982-16.583 36.982-36.966s-16.59-36.967-36.982-36.967z" fill="#fd9127"/></g><g><g><path d="m23.984 407.192c-15.16 18.873-23.984 42.712-23.984 67.991v36.817h128.325l17.224-43.567-17.224-80.744c-9.484.473-92.709 5.02-104.341 19.503z" fill="#fff594"/><path d="m256 474.844c0-25.665-8.476-49.88-24.1-68.908-12.153-14.8-102.682-18.289-102.682-18.289s-.318.014-.893.043v124.31h127.675z" fill="#fedd61"/></g><g><path d="m72.248 372.876c-19.391 6.883-35.109 17.98-47.448 33.341 27.028 28.41 63.599 45.532 103.066 45.532.153 0 .306-.005.459-.006l24.179-49.383-24.179-49.389z" fill="#ffcebf"/></g><path d="m232.372 406.533c-12.208-15.08-28.46-26.97-47.489-33.825l-55.665-20.053-.893.317v98.771c39.643-.125 77.075-16.486 104.047-45.21z" fill="#f5afaa"/></g><g><path d="m66.316 320.529c0 34.178 27.817 61.983 62.009 61.983l12.406-61.984-12.406-42.161c-32.003 0-58.421 4.538-61.673 35.682-.222 2.13-.336 4.292-.336 6.48z" fill="#ffdfcf"/><path d="m128.325 276.882v105.63c34.192 0 62.009-27.805 62.009-61.983 0-16.383-6.392-31.302-16.813-42.396-11.32-12.051-27.394-1.251-45.196-1.251z" fill="#ffcebf"/></g></g><g><path d="m66.656 314.049c9.235 3.02 19.095 4.659 29.34 4.659 11.359 0 22.244-2.017 32.329-5.697l8.817-28.971-8.817-25.495c-32.003 0-58.417 24.36-61.669 55.504z" fill="#fed200"/><path d="m173.509 278.144c-11.32-12.05-27.382-19.599-45.184-19.599v54.466c18.427-6.725 34.173-19.025 45.184-34.867z" fill="#f8b400"/></g></g><g><g><path d="m38.925 467.07h30v44.93h-30z" fill="#fedd61"/></g><g><path d="m187.725 467.07h30v44.93h-30z" fill="#f8b400"/></g></g></g><g><g><g><g><path d="m347.343 255.29c0 20.383 16.59 36.966 36.982 36.966l7.399-36.967-7.399-36.967c-20.392.001-36.982 16.585-36.982 36.968z" fill="#f8b400"/><path d="m384.325 218.323v73.933c20.392 0 36.982-16.583 36.982-36.966s-16.59-36.967-36.982-36.967z" fill="#fd9127"/></g><g><g><path d="m279.984 407.192c-15.16 18.873-23.984 42.712-23.984 67.991v36.817h128.325l17.224-43.567-17.224-80.744c-9.484.473-92.709 5.02-104.341 19.503z" fill="#b782d7"/><path d="m512 474.844c0-25.665-8.476-49.88-24.1-68.908-12.153-14.8-102.682-18.289-102.682-18.289s-.318.014-.893.043v124.31h127.675z" fill="#9244c2"/></g><g><path d="m328.248 372.876c-19.391 6.883-35.109 17.98-47.448 33.341 27.028 28.41 63.599 45.532 103.066 45.532.153 0 .306-.005.459-.006l24.179-49.383-24.179-49.389z" fill="#ffcebf"/></g><path d="m488.372 406.533c-12.208-15.08-28.46-26.97-47.489-33.825l-55.665-20.053-.893.317v98.771c39.643-.125 77.075-16.486 104.047-45.21z" fill="#f5afaa"/></g><g><path d="m322.316 320.529c0 34.178 27.817 61.983 62.009 61.983l12.406-61.984-12.406-42.161c-32.003 0-58.421 4.538-61.673 35.682-.222 2.13-.336 4.292-.336 6.48z" fill="#ffdfcf"/><path d="m384.325 276.882v105.63c34.192 0 62.009-27.805 62.009-61.983 0-16.383-6.392-31.302-16.813-42.396-11.32-12.051-27.394-1.251-45.196-1.251z" fill="#ffcebf"/></g></g><g><path d="m322.656 314.049c9.235 3.02 19.095 4.659 29.34 4.659 11.359 0 22.245-2.017 32.329-5.697l8.817-28.971-8.817-25.495c-32.003 0-58.417 24.36-61.669 55.504z" fill="#fed200"/><path d="m429.509 278.144c-11.32-12.05-27.382-19.599-45.185-19.599v54.466c18.429-6.725 34.174-19.025 45.185-34.867z" fill="#f8b400"/></g></g><g><g><path d="m294.925 467.07h30v44.93h-30z" fill="#9244c2"/></g><g><path d="m443.725 467.07h30v44.93h-30z" fill="#7f297a"/></g></g></g></g></svg>