<svg id="Capa_1" enable-background="new 0 0 512 512" height="512" viewBox="0 0 512 512" width="512" xmlns="http://www.w3.org/2000/svg"><g><g><path d="m219.53 74.733c-24.288-24.289-56.582-37.666-90.933-37.666-34.35 0-66.644 13.376-90.932 37.666-24.288 24.288-37.665 56.582-37.665 90.932s13.377 66.644 37.666 90.933l218.334 218.335 58.23-204.886-58.23-158.845z" fill="#b782d7"/><path d="m474.334 74.733c-24.288-24.289-56.582-37.666-90.932-37.666-34.351 0-66.645 13.376-90.933 37.666l-36.469 36.469v363.73l218.334-218.335c24.289-24.288 37.666-56.582 37.666-90.932s-13.377-66.644-37.666-90.932z" fill="#9244c2"/></g><g><path d="m239.923 253.969c0-8.865 7.212-16.078 16.077-16.078l5.951-15.037-5.951-14.963c-25.407 0-46.077 20.67-46.077 46.078 0 20.156 13.014 37.319 31.077 43.557v27.859h-21.66v30h21.66v22.563h15l5.951-46.264-5.951-61.638c-8.865 0-16.077-7.212-16.077-16.077z" fill="#bcf0fa"/><path d="m297.343 155.116v30h14.266l-32.807 28.838c-6.729-3.85-14.51-6.063-22.802-6.063v30c8.865 0 16.077 7.212 16.077 16.078s-7.212 16.078-16.077 16.078v107.901h15v-22.563h21.66v-30h-21.66v-27.859c18.063-6.238 31.077-23.401 31.077-43.557 0-6.19-1.235-12.094-3.458-17.491l34.498-30.325v14.738h30v-65.775z" fill="#79e1f5"/></g></g></svg>