<svg id="Capa_1" enable-background="new 0 0 512 512" height="512" viewBox="0 0 512 512" width="512" xmlns="http://www.w3.org/2000/svg"><g><g><path d="m219.53 74.733c-24.288-24.289-56.582-37.666-90.933-37.666-34.35 0-66.644 13.376-90.932 37.666-24.288 24.288-37.665 56.582-37.665 90.932s13.377 66.644 37.666 90.933l218.334 218.335 58.23-204.886-58.23-158.845z" fill="#79e1f5"/><path d="m474.334 74.733c-24.288-24.289-56.582-37.666-90.932-37.666-34.351 0-66.645 13.376-90.933 37.666l-36.469 36.469v363.73l218.334-218.335c24.289-24.288 37.666-56.582 37.666-90.932s-13.377-66.644-37.666-90.932z" fill="#31c3e7"/></g><g><path d="m239.92 237.94c0-8.866 7.213-16.08 16.08-16.08l11.908-14.504-11.908-15.499c-8.866 0-16.08-7.213-16.08-16.08h-30.003c0 11.967 4.587 22.88 12.093 31.081-7.505 8.201-12.093 19.115-12.093 31.081 0 20.159 13.016 37.323 31.081 43.563v37.864h-21.663v30.003h21.663v22.566h15.002l7.157-65.04-7.157-52.875c-8.866 0-16.08-7.214-16.08-16.08z" fill="#fd445f"/><path d="m302.083 237.94c0-11.967-4.587-22.88-12.093-31.081 7.505-8.201 12.093-19.115 12.093-31.081h-30.003c0 8.866-7.213 16.08-16.08 16.08v30.003c8.866 0 16.08 7.213 16.08 16.08s-7.213 16.08-16.08 16.08v117.916h15.002v-22.567h21.663v-30.003h-21.663v-37.864c18.065-6.24 31.081-23.404 31.081-43.563z" fill="#e1105a"/></g></g></svg>