<svg id="Capa_1" enable-background="new 0 0 512 512" height="512" viewBox="0 0 512 512" width="512" xmlns="http://www.w3.org/2000/svg"><g><g><g><path d="m308.786 136.528-8.418 2.988c-35.51 12.605-59.368 46.389-59.368 84.069v42.023h135.615l15.068-41.312-15.068-87.883z" fill="#badb47"/><path d="m512 223.316c0-37.493-23.699-71.221-58.973-83.927l-8.583-3.092-67.829.115v129.195h135.385z" fill="#1fc979"/></g><g><path d="m308.786 136.528 67.829 67.714 12.886-46.309-12.886-45.479z" fill="#ffcebf"/></g><path d="m377.442 112.16-.827.294v91.788l67.83-67.945z" fill="#f5afaa"/><g><path d="m311.517 64.956c0 35.816 29.151 64.955 64.983 64.955l13.001-64.956-13.001-64.955c-35.831 0-64.983 29.139-64.983 64.956z" fill="#ffdfcf"/><path d="m376.5 0v129.911c35.831 0 64.983-29.139 64.983-64.955 0-35.817-29.152-64.956-64.983-64.956z" fill="#ffcebf"/></g></g><g><g><path d="m95.723 242.982c0 21.361 17.386 38.739 38.755 38.739l7.754-38.739-7.754-38.739c-21.37-.001-38.755 17.378-38.755 38.739z" fill="#f8b400"/><path d="m134.478 204.242v77.478c21.37 0 38.755-17.378 38.755-38.739 0-21.36-17.385-38.739-38.755-38.739z" fill="#fd9127"/></g><g><g><path d="m25.134 402.166c-15.887 19.779-25.134 44.76-25.134 71.252v38.582h134.478l18.049-45.655-18.049-84.616c-9.939.495-97.154 5.26-109.344 20.437z" fill="#fd445f"/><path d="m268.956 473.062c0-26.895-9.563-52.272-25.937-72.212-12.735-15.509-107.605-19.166-107.605-19.166s-.333.015-.936.045v130.271h134.478z" fill="#e1105a"/></g><g><path d="m75.712 366.205c-20.32 7.213-36.793 18.842-49.723 34.94 28.324 29.773 66.648 47.715 108.008 47.715.161 0 .32-.006.481-.006l25.338-51.751-25.338-51.757z" fill="#ffcebf"/></g><path d="m243.514 401.476c-12.793-15.803-29.825-28.263-49.766-35.447l-58.334-21.014-.936.332v103.507c41.544-.132 80.771-17.277 109.036-47.378z" fill="#f5afaa"/></g><g><path d="m69.495 311.348c0 35.816 29.151 64.955 64.983 64.955l13.001-64.956-13.001-44.183c-33.537 0-61.223 4.755-64.63 37.392-.233 2.233-.353 4.499-.353 6.792z" fill="#ffdfcf"/><path d="m134.478 265.608v110.695c35.831 0 64.983-29.139 64.983-64.955 0-17.169-6.698-32.803-17.619-44.429-11.863-12.628-28.708-1.311-47.364-1.311z" fill="#ffcebf"/></g></g><g><path d="m69.852 304.557c9.678 3.164 20.011 4.882 30.747 4.882 11.904 0 23.311-2.113 33.88-5.97l9.24-30.36-9.24-26.718c-33.538.001-61.219 25.529-64.627 58.166z" fill="#fed200"/><path d="m181.829 266.93c-11.862-12.628-28.695-20.538-47.351-20.538v57.078c19.311-7.048 35.811-19.937 47.351-36.54z" fill="#f8b400"/></g><path d="m460.512 366.695-57.305-57.305-57.304 57.305 21.213 21.213 21.091-21.091v24.839c0 39.03-31.753 70.783-70.783 70.783h-14.751v30h14.751c55.572 0 100.783-45.211 100.783-100.783v-24.84l21.092 21.091z" fill="#b782d7"/></g></svg>