<svg id="Capa_1" enable-background="new 0 0 512 512" height="512" viewBox="0 0 512 512" width="512" xmlns="http://www.w3.org/2000/svg"><g><g><path d="m403.208 327.392-57.305 57.305 21.213 21.213 21.092-21.091v6.838c0 39.03-31.753 70.783-70.783 70.783h-14.752v30h14.752c55.572 0 100.783-45.211 100.783-100.783v-6.838l21.091 21.091 21.213-21.213z" fill="#fedd61"/><g><g><path d="m67.786 382.92-8.418 2.988c-35.51 12.605-59.368 46.389-59.368 84.069v42.023h135.615l15.068-41.312-15.068-87.883z" fill="#badb47"/><path d="m271 469.708c0-37.493-23.699-71.221-58.973-83.927l-8.583-3.092-67.829.115v129.196h135.385z" fill="#1fc979"/></g><g><path d="m67.786 382.92 67.829 67.714 12.886-46.309-12.886-45.479z" fill="#ffcebf"/></g><path d="m136.442 358.552-.827.294v91.788l67.83-67.945z" fill="#f5afaa"/><g><path d="m70.517 311.348c0 35.816 29.151 64.955 64.983 64.955l13.001-64.956-13.001-64.955c-35.831 0-64.983 29.139-64.983 64.956z" fill="#ffdfcf"/><path d="m135.5 246.392v129.911c35.831 0 64.983-29.139 64.983-64.955 0-35.817-29.152-64.956-64.983-64.956z" fill="#ffcebf"/></g></g></g><g><g><path d="m377.291 0c-58.887 0-106.794 47.908-106.794 106.794v84.007h106.794l18.08-81.206z" fill="#f8b400"/><path d="m484.085 106.794c0-58.886-47.907-106.794-106.794-106.794v190.801h106.794z" fill="#fd9127"/></g><g><path d="m267.759 189.084c-15.914 19.812-25.177 44.837-25.177 71.374v38.649h134.709l18.08-45.734-18.08-84.761c-9.956.496-97.32 5.269-109.532 20.472z" fill="#fd445f"/><path d="m512 260.102c0-26.942-9.579-52.362-25.981-72.336-12.757-15.536-107.79-19.199-107.79-19.199s-.333.015-.937.045v130.495h134.708z" fill="#e1105a"/></g><g><path d="m318.425 153.061c-20.355 7.225-36.856 18.874-49.808 35 28.373 29.824 66.762 47.797 108.193 47.797.161 0 .321-.006.482-.006l25.382-51.839-25.382-51.846z" fill="#ffcebf"/></g><path d="m486.515 188.393c-12.815-15.83-29.876-28.311-49.852-35.508l-58.434-21.051-.937.333v103.685c41.614-.132 80.909-17.306 109.223-47.459z" fill="#f5afaa"/><g><path d="m364.535 42.457c0 17.212-13.953 31.166-31.166 31.166h-15.911v24.682c0 33.045 26.788 59.833 59.833 59.833l15.834-57.84-15.834-57.84h-12.756z" fill="#ffdfcf"/><path d="m421.246 73.623c-17.212 0-31.166-13.953-31.166-31.166h-12.789v115.68c33.045 0 59.833-26.788 59.833-59.833v-24.681z" fill="#ffcebf"/></g></g></g></svg>