<svg id="Capa_1" enable-background="new 0 0 512 512" height="512" viewBox="0 0 512 512" width="512" xmlns="http://www.w3.org/2000/svg"><g><g><path d="m20.046 272.271v117.397l7.009 4.412c37.176 23.402 73.98 31.851 110.367 31.849 44.539-.002 88.444-12.665 131.582-26.06l36.966-121.347-36.966-48.211h-164.086z" fill="#1fc979"/><path d="m279.554 396.581c78.859-24.632 153.345-47.897 229.812-2.311l2.596 1.548v-117.597l-37.466-47.91-205.491-2v171.559c-.001 0 7.038-2.192 10.549-3.289z" fill="#19a995"/><path d="m43.037 31.562-22.991-14.473v122.049l57.129 51.55 191.829 3 31.729-82.173-31.729-80.769c-78.28 24.631-152.304 47.187-225.967.816z" fill="#b782d7"/><path d="m511.961 145.15v-121.203c-81.729-43.935-162.336-18.574-240.419 6.001-.847.267-1.692.533-2.538 3.799v159.941l22.042-3z" fill="#9244c2"/></g><g><path d="m42.622 152.348-22.576-13.21v133.133l7.424 4.344c35.546 20.8 70.91 28.407 105.977 28.406 45.799-.001 91.084-12.981 135.557-26.498l42.021-62.982-42.021-65.289c-78.483 23.449-152.663 45.235-226.382 2.096z" fill="#f1f8fc"/></g><path d="m270.388 149.839c-.462.138-.923.276-1.384.413v128.271c2.826-.859 5.648-1.72 8.467-2.58 80.389-24.526 156.32-47.691 231.496.364l2.994 1.914v-133.071c-81.821-43.038-162.968-18.799-241.573 4.689z" fill="#cfe6f3"/><g><path d="m30.039 0v512h-30v-512z" fill="#f8b400"/></g></g></svg>