<svg id="Capa_1" enable-background="new 0 0 512 512" height="512" viewBox="0 0 512 512" width="512" xmlns="http://www.w3.org/2000/svg"><g><g><path d="m512 138.208h-107.544v30.011h54.318l-86.689 80.472c-13.787-11.21-31.351-17.945-50.465-17.945-16.521 0-32.388 4.99-45.887 14.432-13.177 9.216-23.181 21.995-28.932 36.956l28.012 10.768c7.391-19.227 26.201-32.145 46.806-32.145 16.171 0 30.569 7.705 39.74 19.629l73.715-59.77z" fill="#79e1f5"/></g><path d="m361.361 280.387c6.503 8.455 10.382 19.027 10.382 30.493 0 27.637-22.485 50.122-50.122 50.122-5.661 0-11.21-.933-16.492-2.773l-9.87 28.343c8.463 2.946 17.332 4.441 26.362 4.441 44.186 0 80.133-35.948 80.133-80.133 0-14.244-3.753-27.62-10.295-39.224l90.531-84.039v58.135h30.01v-107.544z" fill="#31c3e7"/><g><path d="m78.842 260.331-9.791 3.475c-41.301 14.661-69.051 53.956-69.051 97.782v48.877h157.735l17.525-48.05-17.525-102.217z" fill="#badb47"/><path d="m315.201 361.275c0-43.608-27.565-82.837-68.591-97.616l-9.983-3.596-78.892.134v150.268h157.466z" fill="#1fc979"/></g><g><g><path d="m60.787 365.304h30.011v45.161h-30.011z" fill="#1fc979"/></g><g><path d="m227.644 365.304h30.011v45.161h-30.011z" fill="#19a995"/></g></g><g><path d="m78.842 260.331 78.893 78.759 14.987-53.862-14.987-52.898z" fill="#ffcebf"/></g><path d="m158.696 231.989-.961.341v106.76l78.892-79.027z" fill="#f5afaa"/><g><path d="m82.019 177.086c0 41.658 33.906 75.549 75.581 75.549l15.121-75.55-15.121-75.55c-41.675 0-75.581 33.892-75.581 75.551z" fill="#ffdfcf"/><path d="m157.6 101.535v151.1c41.676 0 75.581-33.891 75.581-75.549.001-41.659-33.905-75.551-75.581-75.551z" fill="#ffcebf"/></g></g></svg>