<svg id="Capa_1" enable-background="new 0 0 512 512" height="512" viewBox="0 0 512 512" width="512" xmlns="http://www.w3.org/2000/svg"><g><g><path d="m165.272 145.9c0-50.108 40.62-90.728 90.728-90.728l23.113-27.266-23.113-27.906c-80.578 0-145.9 65.322-145.9 145.9 0 70.706 50.297 129.659 117.063 143.045v114.811l-54.154-54.154-40.782 40.782 123.773 121.481 11.983-159.813-11.983-115.424c-50.108 0-90.728-40.62-90.728-90.728z" fill="#79e1f5"/></g><path d="m379.773 390.384-40.782-40.782-54.154 54.154v-114.811c66.766-13.386 117.063-72.339 117.063-143.045 0-80.578-65.322-145.9-145.9-145.9v55.172c50.108 0 90.728 40.62 90.728 90.728s-40.62 90.728-90.728 90.728v275.236l.138.135z" fill="#31c3e7"/></g></svg>