<svg id="Capa_1" enable-background="new 0 0 512 512" height="512" viewBox="0 0 512 512" width="512" xmlns="http://www.w3.org/2000/svg"><g><g><path d="m255.978 49.023-21.756-21.756c-17.583-17.583-40.961-27.267-65.827-27.267-24.867 0-48.244 9.685-65.827 27.268-36.298 36.297-36.298 95.357 0 131.654l153.432 153.388 22.519-150.239-22.519-113.07z" fill="#fd445f"/><path d="m436.656 93.095c0-24.866-9.684-48.244-27.268-65.827-17.583-17.583-40.96-27.268-65.827-27.268-24.866 0-48.244 9.684-65.827 27.268l-21.734 21.733v263.309l153.388-153.388c17.584-17.583 27.268-40.961 27.268-65.827z" fill="#e1105a"/></g><g><g><path d="m256 141.611h-41.405v-30h41.405l8.163 15z" fill="#f1f8fc"/></g><g><path d="m256 198.615h-41.405v-30h41.405l5.777 15z" fill="#f1f8fc"/></g></g><g><g><path d="m76.924 512 11.376-62.319-88.3-133.334v-179.906l4.415.094c33.955.722 62.659 28.036 63.492 62.008v97.508l124.219 186.223-4.378 29.726z" fill="#ffdfcf"/><path d="m192.126 482.273 5.469-43.207c3.665-28.954-4.013-58.207-21.425-81.627l-56.688-76.249c-9.541-12.833-27.653-15.538-40.518-6.05-12.783 9.427-15.618 27.384-6.364 40.3z" fill="#ffcebf"/></g><g><path d="m435.076 512-11.376-62.319 88.3-133.334v-179.906l-4.415.094c-33.955.722-62.659 28.036-63.492 62.008v97.508l-124.219 186.222 4.378 29.727z" fill="#f5afaa"/><path d="m319.874 482.273-5.469-43.207c-3.665-28.954 4.013-58.207 21.425-81.627l56.688-76.249c9.541-12.833 27.653-15.538 40.518-6.05 12.783 9.427 15.618 27.384 6.364 40.3z" fill="#ffcebf"/></g></g><g fill="#cfe6f3"><path d="m256 111.611h41.405v30h-41.405z"/><path d="m256 168.615h41.405v30h-41.405z"/></g></g></svg>