<svg id="Capa_1" enable-background="new 0 0 512 512" height="512" viewBox="0 0 512 512" width="512" xmlns="http://www.w3.org/2000/svg"><g><g fill="none"><path d="m178.026 257.914c0 21.692 2.034 42.715 5.919 62.237h57.055v-93.651h-61.507c-.967 10.247-1.467 20.756-1.467 31.414z"/><path d="m203.593 378.667c10.72 20.811 23.83 35.114 37.407 41.29v-69.805h-49.224c3.364 10.208 7.312 19.77 11.817 28.515z"/><path d="m100.875 196.5h52.493c6.568-36.839 18.956-69.602 35.833-93.412-40.655 17.4-71.808 48.788-88.326 93.412z"/><path d="m271 419.957c13.577-6.176 26.687-20.479 37.407-41.29 4.505-8.745 8.452-18.307 11.817-28.516h-49.224z"/><path d="m271 226.5v93.651h57.055c3.885-19.523 5.919-40.546 5.919-62.237 0-10.661-.498-21.17-1.464-31.414z"/><path d="m322.71 102.974c16.928 23.829 29.349 56.62 35.926 93.527h52.665c-16.554-44.723-47.807-76.151-88.591-93.527z"/></g><g><path d="m253.072 76.914c-99.76 0-180.631 80.871-180.631 180.631s80.871 180.631 180.631 180.631c.979 0 1.953-.021 2.928-.037l31.371-168.664-31.371-192.524c-.975-.016-1.949-.037-2.928-.037z" fill="#79e1f5"/><path d="m433.703 257.545c0-98.781-79.295-179.028-177.703-180.594v361.188c98.408-1.566 177.703-81.813 177.703-180.594z" fill="#31c3e7"/></g><g><g fill="none"><path d="m271 226.5v93.651h57.055c3.885-19.523 5.919-40.546 5.919-62.237 0-10.661-.498-21.17-1.464-31.414z"/><path d="m271 419.957c13.577-6.176 26.687-20.479 37.407-41.29 4.505-8.745 8.452-18.307 11.817-28.516h-49.224z"/><path d="m203.593 378.667c10.72 20.811 23.83 35.114 37.407 41.29v-69.805h-49.224c3.364 10.208 7.312 19.77 11.817 28.515z"/><path d="m178.026 257.914c0 21.692 2.034 42.715 5.919 62.237h57.055v-93.651h-61.507c-.967 10.247-1.467 20.756-1.467 31.414z"/><path d="m322.71 102.974c16.928 23.829 29.349 56.62 35.926 93.527h52.665c-16.554-44.723-47.807-76.151-88.591-93.527z"/><path d="m100.875 196.5h52.493c6.568-36.839 18.956-69.602 35.833-93.412-40.655 17.4-71.808 48.788-88.326 93.412z"/></g><path d="m241 160.922v35.578h-57.197c6.211-31.758 17.204-59.398 31.883-78.809l-23.929-18.096c-.688.909-1.363 1.844-2.037 2.782l-11.513-27.22c-73.208 30.964-120.512 101.95-120.512 180.843l.921 58.22 29.079-37.941c0-17.807 1.626-34.405 4.725-49.778h56.985c-.904 10.305-1.38 20.804-1.38 31.414 0 50.554 10.262 98.317 28.896 134.491 5.211 10.116 10.943 19.053 17.101 26.764l-8.045 20.869c20.202 7.788 41.396 12.135 63.108 12.976 2.289.245 4.592.384 6.913.384l8.252-238.085-8.25-54.392zm-87.632 35.578h-52.493c16.519-44.624 47.672-76.012 88.326-93.412-16.878 23.81-29.265 56.573-35.833 93.412zm87.632 223.457c-13.577-6.176-26.687-20.479-37.407-41.29-4.505-8.745-8.452-18.307-11.817-28.516h49.224zm0-99.806h-57.055c-3.885-19.523-5.919-40.546-5.919-62.237 0-10.658.5-21.167 1.467-31.414h61.507z" fill="#31c3e7"/><path d="m333.969 75.157-11.577 27.372c-.818-1.142-1.643-2.271-2.481-3.371l-23.856 18.189c14.816 19.432 25.905 47.199 32.151 79.152h-57.206v-35.578h-15v292.477c2.06 0 4.107-.105 6.142-.299 21.807-.569 43.133-4.672 63.467-12.235l-7.932-21.328c6.271-7.794 12.105-16.853 17.4-27.132 18.634-36.174 28.896-83.938 28.896-134.491 0-10.613-.475-21.111-1.378-31.414h57.159c3.099 15.373 4.725 31.971 4.725 49.778l29.079 37.941.921-58.22c.002-78.891-47.302-149.877-120.51-180.841zm-25.562 303.51c-10.72 20.811-23.83 35.114-37.407 41.29v-69.805h49.224c-3.364 10.208-7.312 19.77-11.817 28.515zm19.648-58.516h-57.055v-93.651h61.51c.966 10.244 1.464 20.753 1.464 31.414 0 21.692-2.034 42.715-5.919 62.237zm30.581-123.651c-6.577-36.906-18.998-69.698-35.926-93.527 40.785 17.376 72.037 48.805 88.592 93.527z" fill="#199de2"/></g><g><path d="m245.058 16.568c-22.09-22.09-58.034-22.09-80.125.001-10.701 10.7-16.595 24.928-16.595 40.062 0 15.133 5.894 29.361 16.595 40.062l91.067 91.068 22.517-93.88-22.517-66.371z" fill="#fd445f"/><path d="m347.068 16.568c-22.091-22.091-58.035-22.089-80.126 0l-10.942 10.942v160.251l91.068-91.068c10.701-10.701 16.595-24.929 16.595-40.063-.001-15.133-5.894-29.361-16.595-40.062z" fill="#e1105a"/></g><g><g><path d="m76.924 512 11.376-62.319-88.3-133.334v-199.907l4.415.094c33.955.722 62.659 28.036 63.492 62.008v117.508l124.219 186.223-4.378 29.727z" fill="#ffdfcf"/><path d="m192.126 482.273 5.469-43.207c3.665-28.954-4.013-58.207-21.425-81.627l-56.688-76.249c-9.541-12.833-27.653-15.538-40.518-6.05-12.783 9.427-15.618 27.384-6.364 40.3z" fill="#ffcebf"/></g><g><path d="m435.076 512-11.376-62.319 88.3-133.334v-199.908l-4.415.094c-33.955.722-62.659 28.036-63.492 62.008v117.509l-124.219 186.223 4.378 29.727z" fill="#f5afaa"/><path d="m319.874 482.273-5.469-43.207c-3.665-28.954 4.013-58.207 21.425-81.627l56.688-76.249c9.541-12.833 27.653-15.538 40.518-6.05 12.783 9.427 15.618 27.384 6.364 40.3z" fill="#ffcebf"/></g></g></g></svg>