<svg id="Capa_1" enable-background="new 0 0 512 512" height="512" viewBox="0 0 512 512" width="512" xmlns="http://www.w3.org/2000/svg"><g><g><g><path d="m355.998 72.345h-16.285l-12.333 73.051 12.333 73.051 26.902-16.355c17.301-10.517 27.862-29.297 27.862-49.544v-41.725c0-21.25-17.228-38.478-38.479-38.478z" fill="#f5afaa"/></g><g><path d="m117.523 119.817v-72.876c0-15.271 12.379-27.65 27.65-27.65h.493c15.271 0 27.65 12.38 27.65 27.65l12.398 55.766-12.398 17.11z" fill="#ffcebf"/></g><g><path d="m299.135 72.216-15.216-44.567c0-15.271-12.38-27.647-27.65-27.647-.128 0-.255-.002-.382 0v119.816h28.033z" fill="#f5afaa"/><path d="m228.618 27.648-14.885 44.499 14.885 47.67h27.268v-119.816c-15.094.205-27.268 12.505-27.268 27.647z" fill="#ffcebf"/></g><g><path d="m147.877 239.072v43.768h111.548l12.274-105.413-15.813-58.92h-27.052l-.216-90.858c0-15.271-12.379-27.648-27.65-27.648s-27.65 12.377-27.65 27.648v90.858h-55.794v55.017c0 21.671 8.352 42.509 23.319 58.182z" fill="#ffdfcf"/></g><path d="m339.713 282.84v-255.192c0-15.271-12.38-27.648-27.65-27.648h-.493c-15.271 0-27.65 12.377-27.65 27.648v90.858h-28.033v164.334z" fill="#ffcebf"/></g><g><path d="m123.468 256v256h132.418l48.93-105.734-48.93-150.266z" fill="#79e1f5"/><path d="m255.886 256v256h124.154.482v-256z" fill="#31c3e7"/></g><g><path d="m245.94 356.393c-20.079-20.079-52.751-20.079-72.83.001-9.727 9.726-15.084 22.659-15.084 36.415s5.357 26.688 15.084 36.415l82.776 82.776 20.467-85.333-20.467-60.328z" fill="#b782d7"/><path d="m338.662 356.393c-20.08-20.08-52.751-20.078-72.831 0l-9.946 9.946v145.661l82.777-82.777c9.727-9.727 15.084-22.66 15.084-36.416 0-13.755-5.357-26.688-15.084-36.414z" fill="#9244c2"/></g></g></svg>