<svg id="Capa_1" enable-background="new 0 0 512 512" height="512" viewBox="0 0 512 512" width="512" xmlns="http://www.w3.org/2000/svg"><g><g><path d="m65.207 85.333 190.793 25 29.018-66.282-29.018-44.051c-75.813 0-143.918 32.966-190.793 85.333z" fill="#fd445f"/><path d="m65.207 426.667 190.793 48.392 22.519-87.884-22.519-87.884-241.413 42.042c11.241 31.799 28.579 60.711 50.62 85.334z" fill="#79e1f5"/><path d="m14.587 170.667c-9.435 26.692-14.587 55.409-14.587 85.333l256 33.212 22.519-75.566-22.519-80.594z" fill="#fff594"/></g><g><path d="m143.521 486.021c33.949 16.637 72.122-24.833 112.479-24.833l17.476-14.862-17.476-19.659h-190.793c21.922 24.49 48.488 44.738 78.314 59.354z" fill="#b782d7"/><path d="m0 256c0 29.924 5.152 58.64 14.587 85.333h241.413l17.476-42.043-17.476-43.29z" fill="#1fc979"/><path d="m65.207 85.333c-22.041 24.623-39.38 53.535-50.62 85.333h241.413l22.519-42.666-22.519-42.667z" fill="#f8b400"/></g><path d="m446.793 426.667c22.041-24.623 39.379-53.535 50.62-85.333l-241.413-50.757v184.482z" fill="#31c3e7"/><path d="m256 0v110.333l190.793-25c-46.875-52.367-114.98-85.333-190.793-85.333z" fill="#e1105a"/><path d="m512 256c0-29.924-5.152-58.641-14.587-85.333l-241.413-42.667v171.291z" fill="#fedd61"/><path d="m343.295 496.725c40.126-14.559 75.578-38.867 103.498-70.058h-190.793v34.521c30.657 0 60.053 45.421 87.295 35.537z" fill="#9244c2"/><path d="m512 256h-256v85.333h241.413c9.435-26.692 14.587-55.409 14.587-85.333z" fill="#19a995"/><path d="m446.793 85.333h-190.793v85.333h241.413c-11.241-31.798-28.579-60.71-50.62-85.333z" fill="#fd9127"/><g><path d="m111.914 299.291v-122.83c0-15.902 12.891-28.794 28.794-28.794h.514c15.903 0 28.794 12.892 28.794 28.794l12.911 58.073-12.911 64.757z" fill="#ffcebf"/></g><g><path d="m301.038 241.007-15.845-63.045v-80.125c0-15.902-12.892-28.794-28.794-28.794-.134 0-.265.008-.398.01v221.524h29.192z" fill="#f5afaa"/><path d="m227.604 97.837v77.839l-15.5 65.26 15.5 49.642h28.396v-221.525c-15.718.214-28.396 13.015-28.396 28.784z" fill="#ffcebf"/></g><g><path d="m227.829 289.212-.225-161.642c0-15.902-12.891-28.794-28.794-28.794s-28.794 12.892-28.794 28.794v161.642h-58.102v77.294c0 22.568 8.697 44.267 24.283 60.588l7.326 7.672v51.249c33.952 16.634 72.12 25.985 112.477 25.985l16.468-141.43-16.468-81.358z" fill="#ffdfcf"/></g><path d="m343.294 330.619v-203.05c0-15.902-12.892-28.794-28.794-28.794h-.514c-15.903 0-28.794 12.892-28.794 28.794v161.642h-29.192v142.251z" fill="#ffcebf"/><g><path d="m371.868 396.258c18.016-10.952 29.014-30.509 29.014-51.593v-86.729c0-15.902-12.891-28.794-28.794-28.794-15.902 0-28.794 12.891-28.794 28.794v64.538c-48.194 0-87.269 39.058-87.29 87.252l-.045 102.275c.014 0 .027.001.041.001 30.656 0 60.051-5.396 87.294-15.278v-83.094z" fill="#f5afaa"/></g></g></svg>