<svg id="Capa_1" enable-background="new 0 0 512 512" height="512" viewBox="0 0 512 512" width="512" xmlns="http://www.w3.org/2000/svg"><g><g><path d="m345.456 96.221c0-20.523-16.697-37.221-37.221-37.221h-48.081v74.441h48.081c20.524 0 37.221-16.697 37.221-37.22z" fill="none"/><path d="m140.902 0v59h61.578v74.441h-61.578v59h61.578v48.694h-61.753v57.674h61.753v104.947l-54.154-54.154-40.782 40.782 123.91 121.615 17.948-343.988-17.948-168.011z" fill="#f8b400"/></g><path d="m308.235 192.441c53.056 0 96.221-43.164 96.221-96.221s-43.165-96.22-96.221-96.22h-76.781v511.999l.001.001 123.634-121.616-40.782-40.782-54.154 54.154v-104.947h62.029v-57.674h-62.029v-48.693h48.082zm-48.081-133.441h48.081c20.523 0 37.221 16.697 37.221 37.221s-16.697 37.221-37.221 37.221h-48.081z" fill="#fd9127"/></g></svg>