<svg id="Capa_1" enable-background="new 0 0 512 512" height="512" viewBox="0 0 512 512" width="512" xmlns="http://www.w3.org/2000/svg"><g><g><path d="m165.272 145.9c0-50.108 40.62-90.728 90.728-90.728l28.933-28.658-28.933-26.514c-80.578 0-145.9 65.322-145.9 145.9 0 70.706 50.297 129.659 117.063 143.045v114.811l-54.154-54.154-40.782 40.782 123.773 121.481 10.847-170.943-10.847-104.294c-50.108 0-90.728-40.62-90.728-90.728z" fill="#fff594"/></g><path d="m401.9 145.9c0-80.578-65.322-145.9-145.9-145.9v55.172c50.108 0 90.728 40.62 90.728 90.728s-40.62 90.728-90.728 90.728v275.236l.138.135h28.699v-62.172h69.797v-57.674h-69.797v-103.208c66.766-13.386 117.063-72.339 117.063-143.045z" fill="#fedd61"/></g></svg>