<svg id="Capa_1" enable-background="new 0 0 512 512" height="512" viewBox="0 0 512 512" width="512" xmlns="http://www.w3.org/2000/svg"><g><g><path d="m191.412 0-147.452 61.828-43.96 206.401h91.056l14.807-10 14.807 10v243.771h135.33l29.018-284.657-29.018-201.629z" fill="#fff594"/><path d="m459.459 62.31-137.51-62.31-64.234 26.396-1.715-.682v486.286h138.696v-243.771l14.942-10 14.942 10h87.42z" fill="#fedd61"/></g><path d="m91.056 134.196h29.614v133.982h-29.614z" fill="#fedd61"/><path d="m394.696 134.196h29.884v133.982h-29.884z" fill="#fed200"/><g><path d="m191.412 0v49.935c0 35.761 28.913 64.883 64.588 65.251l12.483-52.6-12.483-62.586z" fill="#fedd61"/><path d="m321.949 49.935v-49.935h-65.949v115.186c.228.002.452.017.68.017 35.989 0 65.269-29.279 65.269-65.268z" fill="#fed200"/></g><path d="m255.909 294.275c-8.865 0-16.077-7.212-16.077-16.077s7.212-16.078 16.077-16.078c.031 0 .06.004.091.005l9.383-11.6-9.383-18.402c-.031 0-.06-.003-.091-.003-7.282 0-14.172 1.705-20.301 4.726l-31.286-27.501h14.265v-30h-65.775v65.774h30v-14.739l31.608 27.784c-2.938 6.061-4.589 12.858-4.589 20.033 0 20.156 13.014 37.319 31.077 43.557v27.859h-21.66v30h21.66v22.563h15.092l6.825-57.956-6.825-49.949c-.031 0-.06.004-.091.004z" fill="#fd445f"/><path d="m297.252 179.346v30h14.265l-32.806 28.837c-6.704-3.835-14.453-6.043-22.711-6.06v30.002c8.823.05 15.987 7.239 15.987 16.073s-7.164 16.023-15.987 16.073v107.906h14.909v-22.563h21.66v-30h-21.66v-27.859c18.063-6.238 31.078-23.401 31.078-43.557 0-6.19-1.235-12.095-3.458-17.492l34.499-30.324v14.739h30v-65.774h-65.776z" fill="#e1105a"/></g></svg>