<svg id="Capa_1" enable-background="new 0 0 512 512" height="512" viewBox="0 0 512 512" width="512" xmlns="http://www.w3.org/2000/svg"><g><g><path d="m165.272 145.9c0-50.108 40.62-90.728 90.728-90.728l21.367-27.266-21.367-27.906c-80.578 0-145.9 65.322-145.9 145.9 0 70.706 50.297 129.659 117.063 143.045v165.381h-56.513v57.674h85.35l11.415-147.428-11.415-127.944c-50.108 0-90.728-40.62-90.728-90.728z" fill="#b782d7"/></g><path d="m401.9 145.9c0-80.578-65.322-145.9-145.9-145.9v55.172c50.108 0 90.728 40.62 90.728 90.728s-40.62 90.728-90.728 90.728v275.372h85.35v-57.674h-56.513v-165.381c66.766-13.386 117.063-72.339 117.063-143.045z" fill="#9244c2"/></g></svg>