<svg id="Capa_1" enable-background="new 0 0 512 512" height="512" viewBox="0 0 512 512" width="512" xmlns="http://www.w3.org/2000/svg"><g><g><g><g><path d="m241.155 103.708c-7.522 0-14.864-4.688-21.95-3.218-48.83 10.129-85.526 53.375-85.526 105.189v75.935l107.544 24.8 15-92.758-15-109.95c-.023-.001-.046.002-.068.002z" fill="#badb47"/></g><g><path d="m186.305 281.614h-52.626v14.84l43.696 34.759z" fill="#ffdfcf"/></g><g><g><path d="m177.375 184.519h29.535v97.095h-29.535z" fill="#1fc979"/></g></g><path d="m177.375 281.614h63.848v230.386h-63.848z" fill="#79e1f5"/></g></g><path d="m263.242 100.518c-7.107-1.484-14.472 3.159-22.019 3.187v58.38l64.012 169.128 43.396-34.759v-90.776c0-35.326-17.057-66.669-43.388-86.25-4.223-3.141-8.685-.18-13.353-2.683-5.313-2.849-10.893-11.063-16.693-12.998-3.891-1.297-7.881-2.378-11.955-3.229z" fill="#f5afaa"/><g><path d="m186.195 55.006c0 30.33 24.685 55.005 55.028 55.005l11.009-55.005-11.009-55.006c-30.343 0-55.028 24.676-55.028 55.006z" fill="#ffdfcf"/><path d="m241.223 0v110.01c30.342 0 55.028-24.675 55.028-55.005 0-30.329-24.686-55.005-55.028-55.005z" fill="#ffcebf"/></g><path d="m256.223 383.84h43.012v128.16h-43.012z" fill="#f5afaa"/><path d="m305.235 281.614v-162.175c-9.029-6.714-19.15-12.036-30.046-15.67v58.317h-34.244v238.977h137.376z" fill="#fd445f"/></g></svg>