<svg id="Capa_1" enable-background="new 0 0 512 512" height="512" viewBox="0 0 512 512" width="512" xmlns="http://www.w3.org/2000/svg"><g><g><path d="m93.199 58.338c-38.685 37.648-60.755 87.928-62.147 141.577-.756 29.163 4.483 57.479 15.571 84.164 21.334 51.34 32.152 106.963 32.152 165.325v62.596h154.908l38.716-256-38.716-255.968c-52.671.673-102.468 21.308-140.484 58.306z" fill="#ffdfcf"/><path d="m476.501 267.3-47.15-92.244c.104-40.897.083-40.969-.692-43.435-12.299-39.258-37.696-72.599-73.444-96.418-34.048-22.688-76.242-35.189-118.807-35.203-.023 0-.044 0-.067 0-.888 0-1.772.021-2.659.032v511.968h74.097v-71.961h65.678c22.47 0 43.585-9.92 57.93-27.215 14.346-17.295 20.191-39.881 16.037-61.965l-4.155-22.088 10.796-3.989c11.052-4.086 19.849-12.724 24.133-23.7 4.285-10.978 3.666-23.29-1.697-33.782z" fill="#ffcebf"/></g><g><path d="m217.659 253.847c0-8.835 7.188-16.024 16.024-16.024l7.275-14.968-7.275-14.931c-7.175 0-13.969 1.657-20.025 4.604l-12.599-11.414 18.473-20.231-22.08-20.161-18.551 20.317-17.382-15.747h15.033v-29.899h-65.553v65.554h29.899v-13.992l17.842 16.164-16.337 17.892 22.08 20.161 16.415-17.978 11.55 10.464c-2.998 6.097-4.688 12.949-4.688 20.19 0 20.088 12.971 37.193 30.974 43.411v27.765h-21.587v29.899h21.587v22.487h14.949l7.275-69.24-7.275-38.299c-8.836-.002-16.024-7.189-16.024-16.024z" fill="#b782d7"/></g><path d="m294.821 135.391v29.899h15.034l-53.618 48.577c-6.667-3.776-14.36-5.944-22.554-5.944v29.899c8.835 0 16.023 7.189 16.023 16.024s-7.188 16.023-16.023 16.023v107.539h14.95v-22.487h21.587v-29.899h-21.587v-27.765c18.002-6.217 30.973-23.322 30.973-43.411 0-6.239-1.256-12.189-3.519-17.617l54.39-49.276v13.992h29.899v-65.554z" fill="#9244c2"/></g></svg>