<svg id="Capa_1" enable-background="new 0 0 512 512" height="512" viewBox="0 0 512 512" width="512" xmlns="http://www.w3.org/2000/svg"><g><g><g><path d="m256 103.708c-7.522 0-14.864-4.688-21.95-3.218-48.83 10.129-85.526 53.375-85.526 105.189v75.935l107.544 24.8 15-92.758-15-109.95c-.023-.001-.045.002-.068.002z" fill="#badb47"/><path d="m278.087 100.518c-7.107-1.484-14.472 3.159-22.019 3.187v202.708l107.408-24.8v-75.935c0-51.765-36.627-94.978-85.389-105.16z" fill="#1fc979"/></g><g><path d="m309.772 281.614 10.308 49.599 43.396-34.759v-14.84z" fill="#f5afaa"/><path d="m201.15 281.614h-52.626v14.84l43.696 34.759z" fill="#ffdfcf"/></g><g><g><path d="m192.22 184.519h29.535v97.095h-29.535z" fill="#1fc979"/></g><g><path d="m290.381 184.519h29.699v97.095h-29.699z" fill="#19a995"/></g></g><g><path d="m192.22 281.614v230.386h48.848l26.009-124.696-11.009-105.69z" fill="#79e1f5"/></g><path d="m256 98.247c-7.523 0-14.864.776-21.95 2.246v23.805c0 12.155 9.858 22.009 22.018 22.009l7.5-48.059c-.023 0-7.545-.001-7.568-.001z" fill="#ffcebf"/><path d="m320.08 281.614h-64.012v197.376l15 33.01h49.012z" fill="#31c3e7"/><g><path d="m256.068 322.526h15v189.474h-15z" fill="#199de2"/><path d="m241.068 322.526h15v189.474h-15z" fill="#31c3e7"/></g><path d="m278.086 124.298v-23.776c-7.107-1.484-14.471-2.27-22.018-2.275v48.059c12.161.001 22.018-9.852 22.018-22.008z" fill="#f5afaa"/></g><g><path d="m201.04 55.006c0 30.33 24.685 55.005 55.028 55.005l11.009-55.005-11.009-55.006c-30.342 0-55.028 24.676-55.028 55.006z" fill="#ffdfcf"/><path d="m256.068 0v110.01c30.342 0 55.028-24.675 55.028-55.005 0-30.329-24.685-55.005-55.028-55.005z" fill="#ffcebf"/></g></g></svg>