<svg id="Capa_1" enable-background="new 0 0 512 512" height="512" viewBox="0 0 512 512" width="512" xmlns="http://www.w3.org/2000/svg"><g><g><path d="m164.984 186.166 5.895 221.354h25.93v-223.507c0-32.458 26.313-58.771 58.771-58.771.141 0 .28.01.42.011l5.834-13.669-5.834-16.718c-.14-.001-.28-.006-.42-.006-46.779-.001-90.596 44.527-90.596 91.306z" fill="#79e1f5"/><path d="m314.351 184.013v223.507h25.93l7.675-221.354c0-46.639-45.325-91.034-91.956-91.3v30.387c32.264.227 58.351 26.443 58.351 58.76z" fill="#31c3e7"/><path d="m118.02 186.823v220.697h27.93v-220.866c0-60.45 49.18-109.63 109.63-109.63.141 0 .28.005.42.005l5.834-13.714-5.834-14.047c-.14 0-.28-.005-.42-.005-75.851 0-137.56 61.709-137.56 137.56z" fill="#fff594"/><path d="m365.21 186.654v220.866h27.93v-220.697c0-75.711-61.482-137.327-137.14-137.555v27.762c60.258.228 109.21 49.315 109.21 109.624z" fill="#fedd61"/><path d="m255.805 0c-103.985 0-188.311 84.239-188.419 188.224l-4.914 135.946h33.591v-135.198c0-89.74 69.776-157.205 159.516-157.205.141 0 .28.005.42.005l5.834-17.914-5.833-13.856c-.065 0-.13-.002-.195-.002z" fill="#fd445f"/><path d="m256 .002v31.77c89.535.211 158.341 67.6 158.341 157.2l-1.642 135.198h37.159l-5.634-135.557c.108-104.071-84.177-188.505-188.224-188.611z" fill="#e1105a"/></g><g><path d="m255.58 26.483c-89.741 0-162.49 72.749-162.49 162.49v217.547h25.93v-219.697c0-75.42 61.14-136.56 136.56-136.56.141 0 .28.005.42.005l7.022-11.205-7.022-12.575c-.14 0-.28-.005-.42-.005z" fill="#f8b400"/><path d="m256 26.488v23.78c75.226.227 136.14 61.275 136.14 136.555v219.697h25.93v-217.548c-.001-89.599-72.523-162.256-162.07-162.484z" fill="#fd9127"/><path d="m255.579 76.024c-61.099 0-110.63 49.531-110.63 110.63v219.865h25.93v-221.354c0-46.779 37.922-84.701 84.701-84.701.141 0 .279.01.42.011l5.834-12.193-5.834-12.252c-.14-.001-.28-.006-.421-.006z" fill="#1fc979"/></g><path d="m340.281 185.165v221.354h25.929v-219.864c0-60.959-49.304-110.398-110.21-110.625v24.446c46.585.227 84.281 38.051 84.281 84.689z" fill="#19a995"/><g><g><g><path d="m76.924 512 11.376-62.319-88.3-133.334v-199.907l4.415.094c33.955.722 62.659 28.036 63.492 62.008v117.508l124.219 186.223-4.378 29.727z" fill="#ffdfcf"/><path d="m192.126 482.273 5.469-43.207c3.665-28.954-4.013-58.207-21.425-81.627l-56.688-76.249c-9.541-12.833-27.653-15.538-40.518-6.05-12.783 9.427-15.618 27.384-6.364 40.3z" fill="#ffcebf"/></g><g><path d="m435.076 512-11.376-62.319 88.3-133.334v-199.908l-4.415.094c-33.955.722-62.659 28.036-63.492 62.008v117.509l-124.219 186.223 4.378 29.727z" fill="#f5afaa"/><path d="m319.874 482.273-5.469-43.207c-3.665-28.954 4.013-58.207 21.425-81.627l56.688-76.249c9.541-12.833 27.653-15.538 40.518-6.05 12.783 9.427 15.618 27.384 6.364 40.3z" fill="#ffcebf"/></g></g></g></g></svg>