<svg id="Capa_1" enable-background="new 0 0 512 512" height="512" viewBox="0 0 512 512" width="512" xmlns="http://www.w3.org/2000/svg"><g><g><g><g><g><path d="m404.524 103.708c-7.522 0-14.864-4.688-21.95-3.218-48.83 10.129-85.526 53.375-85.526 105.189v75.935l107.544 24.8 15-92.758-15-109.95c-.022-.001-.045.002-.068.002z" fill="#badb47"/><path d="m426.612 100.518c-7.107-1.484-14.472 3.159-22.019 3.187v202.708l107.407-24.799v-75.935c0-51.766-36.627-94.979-85.388-105.161z" fill="#1fc979"/></g><g><path d="m458.296 281.614 10.309 49.599 43.395-34.759v-14.84z" fill="#f5afaa"/></g><g><g><path d="m340.744 184.519h29.535v97.095h-29.535z" fill="#1fc979"/></g><g><path d="m438.906 184.519h29.699v97.095h-29.699z" fill="#19a995"/></g></g><g><path d="m340.744 281.614v230.386h48.848l26.009-124.696-11.009-105.69z" fill="#79e1f5"/></g><path d="m404.524 98.247c-7.523 0-14.864.776-21.95 2.246v23.805c0 12.155 9.858 22.009 22.018 22.009l7.5-48.059c-.022 0-7.545-.001-7.568-.001z" fill="#ffcebf"/><path d="m468.605 281.614h-64.013v197.376l15 33.01h49.013z" fill="#31c3e7"/><g><path d="m404.592 322.526h15v189.474h-15z" fill="#199de2"/><path d="m389.592 322.526h15v189.474h-15z" fill="#31c3e7"/></g><path d="m426.611 124.298v-23.776c-7.107-1.484-14.471-2.27-22.018-2.275v48.059c12.16.001 22.018-9.852 22.018-22.008z" fill="#f5afaa"/></g><g><path d="m349.564 55.006c0 30.33 24.685 55.005 55.028 55.005l11.009-55.005-11.009-55.006c-30.342 0-55.028 24.676-55.028 55.006z" fill="#ffdfcf"/><path d="m404.592 0v110.01c30.342 0 55.028-24.675 55.028-55.005 0-30.329-24.685-55.005-55.028-55.005z" fill="#ffcebf"/></g></g><g><g><g><g><path d="m142.652 213.656-15-109.95c-.023 0-.045.002-.068.002-7.522 0-14.864-4.688-21.95-3.218-4.017.833-7.952 1.891-11.791 3.159-5.249 1.734-10.319 14.625-15.175 17.111-5.218 2.671-10.188-5.01-14.868-1.555-26.503 19.565-43.691 51.013-43.691 86.474v90.776l43.696 34.759 63.848-24.8z" fill="#ffcebf"/><path d="m149.671 100.518c-7.107-1.484-14.472 3.159-22.019 3.187v202.708l64.012 24.8 43.396-34.759v-90.776c0-35.326-17.057-66.669-43.388-86.25-4.223-3.141-8.685-.18-13.353-2.683-5.313-2.849-10.893-11.063-16.693-12.998-3.891-1.297-7.88-2.378-11.955-3.229z" fill="#f5afaa"/></g><g><path d="m69.804 383.84h42.848v128.16h-42.848z" fill="#ffcebf"/><path d="m142.652 383.84h43.012v128.16h-43.012z" fill="#f5afaa"/></g></g><g><path d="m72.624 55.006c0 30.33 24.685 55.005 55.028 55.005l11.009-55.005-11.009-55.006c-30.342 0-55.028 24.676-55.028 55.006z" fill="#ffdfcf"/><path d="m127.652 0v110.01c30.342 0 55.028-24.675 55.028-55.005 0-30.329-24.686-55.005-55.028-55.005z" fill="#ffcebf"/></g></g><g><path d="m93.85 162.085v-58.415c-10.888 3.596-21.01 8.871-30.046 15.541v162.403l-63.804 119.448h127.375l15.277-97.809-15.277-141.168z" fill="#b782d7"/></g><path d="m191.664 281.614v-162.175c-9.029-6.714-19.15-12.036-30.046-15.67v58.317h-34.244v238.977h128.626z" fill="#9244c2"/></g></g><g><path d="m243.292 195.891c-26.475-26.474-69.553-26.474-96.028.001-12.825 12.824-19.888 29.876-19.888 48.014 0 18.137 7.063 35.189 19.888 48.014l109.143 109.143 26.986-112.514-26.986-79.544z" fill="#fd445f"/><path d="m365.549 195.891c-26.475-26.476-69.553-26.473-96.029 0l-13.114 13.114v192.058l109.143-109.143c12.825-12.825 19.888-29.877 19.888-48.015 0-18.137-7.063-35.189-19.888-48.014z" fill="#e1105a"/></g></g></svg>