<svg id="Capa_1" enable-background="new 0 0 512 512" height="512" viewBox="0 0 512 512" width="512" xmlns="http://www.w3.org/2000/svg"><g><g><path d="m256 111.202-36.47-36.469c-24.288-24.289-56.582-37.666-90.933-37.666-34.35 0-66.644 13.376-90.932 37.666-24.288 24.288-37.665 56.582-37.665 90.932s13.377 66.644 37.666 90.933l218.334 218.335 8.541-160.915-8.541-64.334z" fill="#fd445f"/></g><path d="m256 111.202-69.282 69.199 69.282 69.283 18.449-69.262z" fill="#e1105a"/><path d="m343.807 323.421-87.807-73.737v225.249l51.728-51.729z" fill="#e1105a"/><g><path d="m474.334 74.733c-24.288-24.289-56.582-37.666-90.932-37.666-34.351 0-66.645 13.376-90.933 37.666l-36.469 36.469v138.481l67.142 67.142-60.896 60.896 45.483 45.483 166.606-166.606c24.288-24.289 37.665-56.583 37.665-90.933s-13.377-66.644-37.666-90.932z" fill="#b20844"/></g></g></svg>