<svg id="Capa_1" enable-background="new 0 0 512 512" height="512" viewBox="0 0 512 512" width="512" xmlns="http://www.w3.org/2000/svg"><g><path d="m165.272 145.9c0-50.108 40.62-90.728 90.728-90.728l21.367-24.484-21.367-30.688c-80.578 0-145.9 65.322-145.9 145.9 0 70.706 50.297 129.659 117.063 143.045v103.209h-61.891v57.674h61.891v62.172h28.837l21.367-172.469-21.367-102.903c-50.108 0-90.728-40.62-90.728-90.728z" fill="#badb47"/><path d="m256 0v55.172c50.108 0 90.728 40.62 90.728 90.728s-40.62 90.728-90.728 90.728v275.372h28.837v-223.055c66.766-13.386 117.063-72.339 117.063-143.045 0-80.578-65.321-145.9-145.9-145.9z" fill="#1fc979"/></g></svg>