<svg id="Capa_1" enable-background="new 0 0 512 512" height="512" viewBox="0 0 512 512" width="512" xmlns="http://www.w3.org/2000/svg"><g><path d="m165.272 145.9c0-50.108 40.62-90.728 90.728-90.728l16.686-28.249-16.686-26.923c-80.578 0-145.9 65.322-145.9 145.9 0 70.706 50.297 129.659 117.063 143.045v66.314l-61.678-36.342-30.451 48.98 64.177 37.814-64.177 37.814 30.451 48.98 61.678-36.342v55.837h28.837l16.686-138.461-16.686-136.911c-50.108 0-90.728-40.62-90.728-90.728z" fill="#fff594"/><path d="m401.9 145.9c0-80.578-65.322-145.9-145.9-145.9v55.172c50.108 0 90.728 40.62 90.728 90.728s-40.62 90.728-90.728 90.728v275.372h28.837v-55.836l61.678 36.342 30.451-48.98-64.177-37.814 64.177-37.814-30.451-48.98-61.678 36.342v-66.314c66.766-13.387 117.063-72.34 117.063-143.046z" fill="#fedd61"/></g></svg>