<svg height="512" viewBox="0 0 61 60" width="512" xmlns="http://www.w3.org/2000/svg"><g id="Page-1" fill="none" fill-rule="evenodd"><g id="002---Electric-Guitar"><g id="Color" transform="translate(1 1)"><path id="Shape" d="m35.011 28.255c.2762248 1.2492525.8272323 2.4212965 1.613 3.431 1.409 1.8 3.318 1.74 3.875 3.818.929 3.522-3.361 1.388-7.031 4.185-1.881 1.43-.225 17.132-11.757 18.266-10.574 1.064-27.678-16.914-17.773-26.804 7.629-7.63 16.005-2.255 16.589-7.925 1.381-6.242 8.792-6.059 12.385-1.325z" fill="#f44335"/><path id="Shape" d="m40.5 35.5c-.557-2.078-2.466-2.015-3.875-3.818-.7857677-1.0097035-1.3367752-2.1817475-1.613-3.431l-2.1-6.354c-1.837675-2.5591499-4.9790891-3.8391149-8.082-3.293 2.0311061.4616138 3.8321895 1.6297309 5.082 3.296l2.1 6.354c.2762248 1.2492525.8272323 2.4212965 1.613 3.431 1.409 1.8 3.318 1.74 3.875 3.818.929 3.522-3.361 1.388-7.031 4.184-1.851 1.413-.289 16.613-11.208 18.19.8106064.123909 1.6331534.1500962 2.45.078 11.532-1.134 9.876-16.836 11.757-18.267 3.67-2.796 7.96-.662 7.032-4.188z" fill="#c81e1e"/><g fill-rule="nonzero"><path id="Shape" d="m4.959 39.734c-.52895121.0010176-.96720594-.4100654-1-.938-.16870473-2.064493.59722675-4.0958446 2.087-5.535 3.253-3.253 6.618-3.588 9.586-3.884.3554793-.0357266.7030156.1209066.9116953.4108974.2086798.2899908.2467996.6692827.1.9950001-.1467995.3257173-.456216.548376-.8116953.5841025-2.891.288-5.622.561-8.371 3.309-1.08172226 1.0362097-1.63365284 2.5080246-1.5 4 .03419869.5511654-.38483977 1.0257175-.936 1.06-.025-.002-.045-.002-.066-.002z" fill="#f5f5f5"/><rect id="Rectangle-path" fill="#545c60" height="3.985" rx="1.99" transform="matrix(.707 .707 -.707 .707 36.259 4.042)" width="11.955" x="7.273" y="43.797"/><path id="Rectangle-path" d="m8.103 25.563h44.771v5.977h-44.771z" fill="#ffe0b2" transform="matrix(.707 -.707 .707 .707 -11.259 29.921)"/><path id="Shape" d="m57.631 1.409c-1.4333338-1.46940352-3.7418253-1.62740732-5.362-.367-2.335 1.869-5.145 4.016-6.709 5.4-.9317112.919985-1.4481964 2.17998417-1.4302693 3.48923466.0179272 1.30925054.5687179 2.55463574 1.5252693 3.44876534.8936176.9572744 2.1387858 1.5089975 3.448202 1.5278679s2.5699661-.496742 3.490798-1.4278679c1.388-1.565 3.535-4.374 5.4-6.71 1.260997-1.61946434 1.1033953-3.92794185-.366-5.361z" fill="#91562d"/><path id="Shape" d="m57.631 1.409c-1.1494096-1.16191087-2.88346-1.52133222-4.4-.912.5238899.20551602 1.0002901.51585676 1.4.912 1.4698751 1.43246747 1.6287484 3.74065134.369 5.361-1.868 2.336-4.015 5.145-5.4 6.71-.4890348.5424861-1.1122459.9466939-1.807 1.172 1.6928708.5991414 3.5798606.1390723 4.807-1.172 1.388-1.565 3.535-4.374 5.4-6.71 1.2597484-1.62034866 1.1008751-3.92853253-.369-5.361z" fill="#6d4122"/></g></g><g id="Outline" fill="#000" fill-rule="nonzero"><path id="Shape" d="m27.635 47.493c.2875238-.2854155.3744305-.7161091.2200821-1.0906869-.1543484-.3745779-.51945-.6190171-.9245821-.6190171s-.7702337.2444392-.9245821.6190171c-.1543484.3745778-.0674417.8052714.2200821 1.0906869.3899205.3870613 1.0190795.3870613 1.409 0z"/><path id="Shape" d="m25.522 52.425c.2875238-.2854155.3744305-.7161091.2200821-1.0906869-.1543484-.3745779-.51945-.6190171-.9245821-.6190171s-.7702337.2444392-.9245821.6190171c-.1543484.3745778-.0674417.8052714.2200821 1.0906869.3899205.3870613 1.0190795.3870613 1.409 0z"/><path id="Shape" d="m23.408 48.9c.2878158-.2853032.3749815-.7161066.2207162-1.0908573-.1542653-.3747508-.5194559-.6193427-.9247162-.6193427s-.7704509.2445919-.9247162.6193427c-.1542653.3747507-.0670996.8055541.2207162 1.0908573.389803.3864 1.018197.3864 1.408 0z"/><path id="Shape" d="m60.022 8.022c1.3048038-2.0010654 1.0187179-4.6444322-.684-6.32-1.6756744-1.7022967-4.3185127-1.98874356-6.32-.685l-.725-.724c-.3923789-.37897221-1.0160848-.37355237-1.4018186.01218143-.3857338.38573379-.3911536 1.00943968-.0121814 1.40181857l.533.533-.938.74-.631.5-1.072-1.074c-.3923789-.37897221-1.0160848-.37355237-1.4018186.01218142-.3857338.3857338-.3911536 1.00943969-.0121814 1.40181858l.91.91c-.558.446-1.08.871-1.546 1.262l-.768-.768c-.3923789-.37897221-1.0160848-.37355237-1.4018186.01218142-.3857338.3857338-.3911536 1.00943969-.0121814 1.40181858l.737.737c-.7153392.90960856-1.1173402 2.02616095-1.146 3.183-.0053584.2295838.0023207.4592867.023.688l-10.193 10.192c-2.0896386-2.302691-5.2147419-3.3719544-8.277-2.832-2.6459307.595405-4.6719365 2.7272116-5.132 5.4-.0085078.0372242-.0145211.0749748-.018.113-.175 1.7-1.024 1.963-4.292 2.289s-7.751.772-12.01 5.031c-3.7 3.7-4.291 8.807-1.649 14.382 3.646 7.7 12.578 14.179 19.26 14.179.328 0 .651-.016.967-.047 9.116-.9 10.7-10.245 11.546-15.267.1220765-1.0897248.3631817-2.162794.719-3.2 1.2525507-.8677131 2.7084947-1.3962077 4.226-1.534 1.222-.2 2.376-.39 2.978-1.32.405017-.7310568.4732311-1.6017901.187-2.387-.3687269-1.2351945-1.2396491-2.2585281-2.4-2.82-.631-.3471307-1.1926961-.8074707-1.657-1.358-.5851-.7492953-1.0182089-1.6056619-1.275-2.521l12.66-12.66c.17.014.34.026.511.026h.176c1.1569595-.0280162 2.2737089-.4300881 3.183-1.146l.737.737c.2510745.2599566.6228779.3642126.9725073.2726972.3496295-.0915155.6226744-.3645604.7141899-.7141899.0915154-.3496294-.0127406-.7214328-.2726972-.9725073l-.767-.767c.391-.466.815-.988 1.262-1.546l.909.91c.3923789.3789722 1.0160848.3735524 1.4018186-.0121814s.3911536-1.0094397.0121814-1.4018186l-1.071-1.072.5-.631.74-.939.534.533c.3923789.3789722 1.0160848.3735524 1.4018186-.0121814.3857338-.38573382.3911536-1.00943971.0121814-1.4018186zm-42.25 40.885c.3865714.3866109.3865714 1.0133891 0 1.4-.392.3733333-1.008.3733333-1.4 0l-5.639-5.64c-.3453634-.3929055-.3262713-.9864732.0436278-1.3563722.369899-.3698991.9634667-.3889912 1.3563722-.0436278zm0-2.827-2.812-2.813 2.108-2.109 2.813 2.813zm3.528-3.523-2.813-2.813 2.108-2.108 2.805 2.813zm3.522-3.522-2.822-2.813 2.109-2.108 2.812 2.813zm3.523-3.522-2.818-2.813 2.108-2.108 2.813 2.813zm3.522-3.522-2.813-2.813 2.108-2.108 2.813 2.812zm3.522-3.523-2.813-2.812 2.109-2.109 2.812 2.813zm.71-6.335 2.101-2.108 2.812 2.813-2.108 2.108zm3.522-3.522 2.103-2.111 2.813 2.812-2.109 2.109zm-2.785 14.689c.6041811.7334135 1.337623 1.3499251 2.164 1.819.884.555 1.319.857 1.529 1.64.0989458.2494075.1222485.522432.067.785-.5080841.2487232-1.059618.3964555-1.624.435-1.8403064.1875004-3.6010806.8467574-5.112 1.914-.833.633-1.076 2.072-1.48 4.457-.866 5.122-2.175 12.863-9.772 13.609-5.913.6-14.775-5.717-18.222-12.99-1.586-3.363-2.665-8.193 1.259-12.112 3.755-3.757 7.655-4.143 10.794-4.457 2.925-.291 5.689-.567 6.077-4.012.3072237-1.8910781 1.7315451-3.4063978 3.6-3.83 2.3949395-.3751184 4.8169368.4879181 6.435 2.293l-19 19c-1.1829469-1.1325911-3.0480531-1.1325911-4.231 0-.56082636.5605834-.87591576 1.3210435-.87591576 2.114s.3150894 1.5534166.87591576 2.114l5.639 5.64c.7557954.7561526 1.8575817 1.0516544 2.8903267.7751928 1.0327451-.2764617 1.8395503-1.0828857 2.1165-2.1155s-.0180313-2.1345402-.7738267-2.8906928l16.38-16.379c.3165459.7859733.7420454 1.5235281 1.264 2.191zm9.115-15.4-2.813-2.812 1.638-1.638c.599368 1.2237146 1.5890724 2.2130671 2.813 2.812zm10.537-8.572-.351.445-.322-.322c-.3904653-.39074145-1.0237585-.3909653-1.4145-.00049999-.3907414.39046532-.3909653 1.02375849-.0005 1.41449999l.486.486c-.442.553-.868 1.08-1.258 1.549l-.628-.631c-.2525868-.2527654-.6208353-.3515768-.96603-.259213-.3451946.0923639-.6148921.3618707-.7075.707s.0059432.7134476.25853.966213l.653.652c-.5379731.3596682-1.1670667.5590777-1.814.575-1.1450719.0222355-2.2498267-.4227791-3.0597618-1.2325254-.809935-.8097464-1.2552069-1.9143976-1.2332382-3.0594746.015419-.64811135.2144643-1.27853717.574-1.818l.652.652c.3923789.37897221 1.0160848.37355237 1.4018186-.01218142.3857338-.3857338.3911536-1.00943969.0121814-1.40181858l-.631-.631c.468-.39 1-.817 1.549-1.259l.486.486c.3923789.37897221 1.0160848.37355237 1.4018186-.01218142.3857338-.3857338.3911536-1.00943969.0121814-1.40181858l-.322-.32.444-.35 1.125-.888.157.156c.3734761.38621872.9865425.4049221 1.3828676.04218843.3963251-.36273366.4318502-.97505556.0801324-1.38118843.3929146-.19023264.8234609-.29001001 1.26-.292.8298257.0038842 1.6241004.33735007 2.208.927.9244433.90497868 1.1791548 2.29387704.636 3.468-.4068514-.34576427-1.0142883-.30791133-1.3750656.08568836-.3607773.39359968-.3457288 1.0020288.0340656 1.37731164l.156.156z"/></g></g></g></svg>