<svg height="512" viewBox="0 0 38 60" width="512" xmlns="http://www.w3.org/2000/svg"><g id="Page-1" fill="none" fill-rule="evenodd"><g id="012---Microphone" fill-rule="nonzero"><g id="Color" transform="translate(4 1)"><rect id="Rectangle-path" fill="#ffeb3a" height="6" rx="3" width="30" y="22"/><path id="Shape" d="m27 22h-3c1.6568542 0 3 1.3431458 3 3s-1.3431458 3-3 3h3c1.6568542 0 3-1.3431458 3-3s-1.3431458-3-3-3z" fill="#fec108"/><path id="Shape" d="m3 28h24v2c0 6.627417-5.372583 12-12 12s-12-5.372583-12-12z" fill="#e91e63"/><path id="Shape" d="m24 28v2c-.0002965 6.0461996-4.5008895 11.1468716-10.5 11.9 3.4208627.4552119 6.8712041-.5936016 9.4600263-2.8756004 2.5888222-2.2819989 4.0623159-5.5734548 4.0399737-9.0243996v-2z" fill="#ad1457"/><path id="Shape" d="m13 0h4c5.5228475 0 10 4.4771525 10 10v12h-24v-12c0-5.5228475 4.4771525-10 10-10z" fill="#e91e63"/><path id="Shape" d="m17 0h-3c5.5228475 0 10 4.4771525 10 10v12h3v-12c0-5.5228475-4.4771525-10-10-10z" fill="#ad1457"/><path id="Shape" d="m20 48.31v5.69h-10v-5.69c3.2698537.919997 6.7301463.919997 10 0z" fill="#ffeb3a"/><path id="Shape" d="m17 48.881v5.119h3v-5.69c-.982274.2738865-1.9857926.4648896-3 .571z" fill="#fec108"/><path id="Shape" d="m9 54h12c1.1045695 0 2 .8954305 2 2v1c0 .5522847-.4477153 1-1 1h-14c-.55228475 0-1-.4477153-1-1v-1c0-1.1045695.8954305-2 2-2z" fill="#e91e63"/><path id="Shape" d="m21 54h-3c1.1045695 0 2 .8954305 2 2v1c0 .5522847-.4477153 1-1 1h3c.5522847 0 1-.4477153 1-1v-1c0-1.1045695-.8954305-2-2-2z" fill="#ad1457"/></g><g id="Outline" fill="#000"><path id="Shape" d="m32 11c-.0071635-6.07216255-4.9278374-10.9928365-11-11h-4c-6.0721626.0071635-10.9928365 4.92783745-11 11v11.142c-1.39931452.3658904-2.49210961 1.4586855-2.858 2.858h-.142c-1.65685425 0-3 1.3431458-3 3v4.55c.08405454 8.0320205 5.33344163 15.0952727 13 17.492v3.958c-1.6568542 0-3 1.3431458-3 3v1h-1c-.55228475 0-1 .4477153-1 1s.44771525 1 1 1h20c.5522847 0 1-.4477153 1-1s-.4477153-1-1-1h-1v-1c0-1.6568542-1.3431458-3-3-3v-3.958c7.6665584-2.3967273 12.9159455-9.4599795 13-17.492v-4.55c0-1.6568542-1.3431458-3-3-3h-.142c-.3658904-1.3993145-1.4586855-2.4921096-2.858-2.858zm-18-8.475v2.475c0 .55228475.4477153 1 1 1s1-.44771525 1-1v-2.941c.3319677-.03835157.6658256-.05804918 1-.059h1v3c0 .55228475.4477153 1 1 1s1-.44771525 1-1v-3h1c.3341744.00095082.6680323.02064843 1 .059v2.941c0 .55228475.4477153 1 1 1s1-.44771525 1-1v-2.475c3.2457677 1.15205063 5.5513545 4.05295312 5.941 7.475h-1.941c-.5522847 0-1 .4477153-1 1s.4477153 1 1 1h2v2h-2c-.5522847 0-1 .4477153-1 1s.4477153 1 1 1h2v2h-2c-.5522847 0-1 .4477153-1 1s.4477153 1 1 1h2v2h-22v-2h2c.5522847 0 1-.4477153 1-1s-.4477153-1-1-1h-2v-2h2c.5522847 0 1-.4477153 1-1s-.4477153-1-1-1h-2v-2h2c.5522847 0 1-.4477153 1-1s-.4477153-1-1-1h-1.941c.38964547-3.42204688 2.6952323-6.32294937 5.941-7.475zm-12 30.025v-4.55c0-.5522847.44771525-1 1-1h.142c.36589039 1.3993145 1.45868548 2.4921096 2.858 2.858v1.142c.01037392 6.7855209 5.2348741 12.423192 12 12.949v5c-8.83339481-.369285-15.84836396-7.5591899-16-16.399zm17 9.45c-6.0721626-.0071635-10.9928365-4.9278374-11-11v-1h22v1c-.0071635 6.0721626-4.9278374 10.9928365-11 11zm7 15v1h-14v-1c0-.5522847.4477153-1 1-1h12c.5522847 0 1 .4477153 1 1zm-3-3h-8v-3.419c2.6373985.558743 5.3626015.558743 8 0zm11.858-27h.142c.5522847 0 1 .4477153 1 1v4.55c-.1511127 8.8401987-7.1662263 16.0306901-16 16.4v-5c6.7655085-.5258385 11.9901472-6.1640945 12-12.95v-1.142c1.3993145-.3658904 2.4921096-1.4586855 2.858-2.858zm-1.858-1c0 1.1045695-.8954305 2-2 2h-24c-1.1045695 0-2-.8954305-2-2s.8954305-2 2-2h24c1.1045695 0 2 .8954305 2 2z"/><path id="Shape" d="m21 32h-4c-.5522847 0-1 .4477153-1 1s.4477153 1 1 1h4c.5522847 0 1-.4477153 1-1s-.4477153-1-1-1z"/><path id="Shape" d="m14 12h1c.5522847 0 1-.4477153 1-1s-.4477153-1-1-1h-1c-.5522847 0-1 .4477153-1 1s.4477153 1 1 1z"/><path id="Shape" d="m14 16h1c.5522847 0 1-.4477153 1-1s-.4477153-1-1-1h-1c-.5522847 0-1 .4477153-1 1s.4477153 1 1 1z"/><path id="Shape" d="m14 20h1c.5522847 0 1-.4477153 1-1s-.4477153-1-1-1h-1c-.5522847 0-1 .4477153-1 1s.4477153 1 1 1z"/><path id="Shape" d="m23 12h1c.5522847 0 1-.4477153 1-1s-.4477153-1-1-1h-1c-.5522847 0-1 .4477153-1 1s.4477153 1 1 1z"/><path id="Shape" d="m23 16h1c.5522847 0 1-.4477153 1-1s-.4477153-1-1-1h-1c-.5522847 0-1 .4477153-1 1s.4477153 1 1 1z"/><path id="Shape" d="m23 20h1c.5522847 0 1-.4477153 1-1s-.4477153-1-1-1h-1c-.5522847 0-1 .4477153-1 1s.4477153 1 1 1z"/></g></g></g></svg>