<svg height="512" viewBox="0 0 60 60" width="512" xmlns="http://www.w3.org/2000/svg"><g id="Page-1" fill="none" fill-rule="evenodd"><g id="017---Casette" fill-rule="nonzero"><g id="Color" transform="translate(1 1)"><g fill="#783e22"><path id="Shape" d="m28.991 59c-.4401225-.0000102-.8789714-.0472812-1.309-.141-2.3444799-.522173-4.1490198-2.3964211-4.582-4.759-.2640406-1.4436639.0053307-2.9340905.758-4.194.6651193-1.12008.5141573-2.5442493-.371-3.5-.5612662-.6055908-1.21506-1.1182974-1.937-1.519l.9-1.787c.9367025.5076666 1.783646 1.1657623 2.507 1.948 1.4840803 1.610114 1.7341937 4.0038823.615 5.886-.5058024.8439577-.6837518 1.8443895-.5 2.811.3890869 2.0230767 2.2511318 3.4197474 4.3022479 3.2270025s3.6203686-1.9118571 3.6257521-3.9720025c.0000776-.6856478-.175872-1.3598344-.511-1.958-1.136983-1.9065716-.9101262-4.3296122.561-5.992.7215064-.7802568 1.5660372-1.4369639 2.5-1.944l.9 1.788c-.7191548.4001317-1.3705286.9114432-1.93 1.515-.8796185 1.0258001-.9956298 2.5024183-.287 3.653 1.044334 1.8595531 1.0230549 4.1337104-.0558926 5.9733962-1.0789475 1.8396857-3.0533727 2.9683528-5.1861074 2.9646038z"/><path id="Shape" d="m16 55c-1.2286228.0180105-2.3933418-.546273-3.1407067-1.5216109-.747365-.9753379-.9892654-2.2467427-.6522933-3.4283891l.608-2.434c.0694713-.2740435.0196984-.564688-.137-.8l-1.51-2.264 1.664-1.11 1.509 2.264c.4688404.703396.6191668 1.5719489.414 2.392l-.609 2.434c-.1683686.5739913-.0691925 1.1932907.27 1.686.3915727.4703917.9719563.7424155 1.584.7424155s1.1924273-.2720238 1.584-.7424155c.3392271-.493072.4383945-1.1126845.27-1.687l-.609-2.431c-.2051713-.8205038-.0544688-1.689494.415-2.393l1.508-2.263 1.664 1.11-1.509 2.263c-.1570416.2351607-.2071797.5258161-.138.8l.608 2.433c.3369721 1.1816464.0950717 2.4530512-.6522933 3.4283891-.7473649.9753379-1.9120839 1.5396214-3.1407067 1.5216109z"/><path id="Shape" d="m42 55c-1.2286228.0180105-2.3933418-.546273-3.1407067-1.5216109-.747365-.9753379-.9892654-2.2467427-.6522933-3.4283891l.608-2.434c.0694713-.2740435.0196984-.564688-.137-.8l-1.51-2.264 1.664-1.11 1.509 2.264c.4688404.703396.6191668 1.5719489.414 2.392l-.609 2.434c-.1683686.5739913-.0691925 1.1932907.27 1.686.3915727.4703917.9719563.7424155 1.584.7424155s1.1924273-.2720238 1.584-.7424155c.3392271-.493072.4383945-1.1126845.27-1.687l-.609-2.431c-.2051713-.8205038-.0544688-1.689494.415-2.393l1.508-2.263 1.664 1.11-1.509 2.263c-.1570416.2351607-.2071797.5258161-.138.8l.608 2.433c.3369721 1.1816464.0950717 2.4530512-.6522933 3.4283891-.7473649.9753379-1.9120839 1.5396214-3.1407067 1.5216109z"/></g><rect id="Rectangle-path" fill="#00bcd4" height="44" rx="4" width="58"/><path id="Shape" d="m54 0h-3c2.209139 0 4 1.790861 4 4v36c0 2.209139-1.790861 4-4 4h3c2.209139 0 4-1.790861 4-4v-36c0-2.209139-1.790861-4-4-4z" fill="#00838f"/><path id="Shape" d="m50 44-3.447-6.894c-.3386882-.677781-1.0313083-1.1059743-1.789-1.106h-31.528c-.7576917.0000257-1.4503118.428219-1.789 1.106l-3.447 6.894" fill="#02a9f4"/><path id="Shape" d="m46.553 37.106c-.3386882-.677781-1.0313083-1.1059743-1.789-1.106h-3c.7576917.0000257 1.4503118.428219 1.789 1.106l3.447 6.894h3z" fill="#0377bc"/><rect id="Rectangle-path" fill="#009688" height="24" rx="2" width="50" x="4" y="8"/><path id="Shape" d="m52 8h-3c1.1045695 0 2 .8954305 2 2v20c0 1.1045695-.8954305 2-2 2h3c1.1045695 0 2-.8954305 2-2v-20c0-1.1045695-.8954305-2-2-2z" fill="#00695c"/><circle id="Oval" cx="15" cy="20" fill="#607d8b" r="7"/><path id="Shape" d="m15 13c-.5044849.0007873-1.0074065.0561087-1.5.165 3.2064126.7087816 5.4891145 3.5511831 5.4891145 6.835s-2.2827019 6.1262184-5.4891145 6.835c2.6211486.579393 5.3427728-.3912156 7.0057888-2.4984637 1.663016-2.107248 1.9744743-4.9799318.8017312-7.3946348-1.172743-2.4147029-3.6231022-3.9460614-6.30752-3.9419015z" fill="#37474f"/><circle id="Oval" cx="15" cy="20" fill="#9e9e9e" r="2"/><circle id="Oval" cx="43" cy="20" fill="#607d8b" r="7"/><path id="Shape" d="m43 13c-.5044849.0007873-1.0074065.0561087-1.5.165 3.2064126.7087816 5.4891145 3.5511831 5.4891145 6.835s-2.2827019 6.1262184-5.4891145 6.835c2.6211486.579393 5.3427728-.3912156 7.0057888-2.4984637 1.663016-2.107248 1.9744743-4.9799318.8017312-7.3946348-1.172743-2.4147029-3.6231022-3.9460614-6.30752-3.9419015z" fill="#37474f"/><circle id="Oval" cx="43" cy="20" fill="#9e9e9e" r="2"/></g><g id="Outline" fill="#000"><path id="Shape" d="m55 0h-50c-2.76005315.00330612-4.99669388 2.23994685-5 5v36c.00330612 2.7600532 2.23994685 4.9966939 5 5h7.465l1.213 1.819c.1566984.235312.2064713.5259565.137.8l-.608 2.434c-.4459888 1.6033775.1643862 3.3139952 1.5246301 4.2728808 1.360244.9588856 3.1764958.9588856 4.5367398 0 1.3602439-.9588856 1.9706189-2.6695033 1.5246301-4.2728808l-.608-2.433c-.0691797-.2741839-.0190416-.5648393.138-.8l1.212-1.82h1.2c.6455678.3865553 1.2336449.8618643 1.747 1.412.8851573.9557507 1.0361193 2.37992.371 3.5-.7494946 1.258894-1.0170326 2.7468744-.753 4.188.4345759 2.3613161 2.2392894 4.2337605 4.583 4.755.4295563.0949926.8680679.1436044 1.308.145 2.132073.0028368 4.1055054-1.1259763 5.1839009-2.9652169 1.0783955-1.8392407 1.0997516-4.1126079.0560991-5.9717831-.7086298-1.1505817-.5926185-2.6271999.287-3.653.5121637-.5492402 1.0988877-1.0238706 1.743-1.41h1.2l1.213 1.819c.1566984.235312.2064713.5259565.137.8l-.608 2.434c-.4459888 1.6033775.1643862 3.3139952 1.5246301 4.2728808 1.360244.9588856 3.1764958.9588856 4.5367398 0 1.3602439-.9588856 1.9706189-2.6695033 1.5246301-4.2728808l-.608-2.433c-.0691797-.2741839-.0190416-.5648393.138-.8l1.216-1.82h7.465c2.7600532-.0033061 4.9966939-2.2399468 5-5v-36c-.0033061-2.76005315-2.2399468-4.99669388-5-5zm-44.382 44 2.724-5.447c.1692635-.3387294.5153343-.5527978.894-.553h31.528c.3786657.0002022.7247365.2142706.894.553l2.724 5.447zm7.627 5.1.609 2.433c.1683945.5743155.0692271 1.193928-.27 1.687-.3915727.4703917-.9719563.7424155-1.584.7424155s-1.1924273-.2720238-1.584-.7424155c-.3391925-.4927093-.4383686-1.1120087-.27-1.686l.609-2.434c.2051668-.8200511.0548404-1.688604-.414-2.392l-.473-.708h4.264l-.472.708c-.4691838.7032452-.6198752 1.571809-.415 2.392zm15.8-3.051c-1.4711262 1.6623878-1.697983 4.0854284-.561 5.992.7706391 1.3809298.6567668 3.0859899-.2906598 4.3521789-.9474266 1.2661889-2.551081 1.8565187-4.0933402 1.5068211-1.5531066-.3457287-2.7487227-1.5870271-3.036-3.152-.1837518-.9666105-.0058024-1.9670423.5-2.811 1.1191937-1.8821177.8690803-4.275886-.615-5.886-.018-.019-.036-.035-.054-.054h8.2c-.012.021-.029.035-.045.053zm10.2 3.051.609 2.433c.1683945.5743155.0692271 1.193928-.27 1.687-.3915727.4703917-.9719563.7424155-1.584.7424155s-1.1924273-.2720238-1.584-.7424155c-.3391925-.4927093-.4383686-1.1120087-.27-1.686l.609-2.434c.2051668-.8200511.0548404-1.688604-.414-2.392l-.473-.708h4.264l-.472.708c-.4691838.7032452-.6198752 1.571809-.415 2.392zm13.755-8.1c0 1.6568542-1.3431458 3-3 3h-3.382l-3.171-6.342c-.5051529-1.0189304-1.5457301-1.6619706-2.683-1.658h-31.528c-1.1372699-.0039706-2.1778471.6390696-2.683 1.658l-3.171 6.342h-3.382c-1.65685425 0-3-1.3431458-3-3v-36c0-1.65685425 1.34314575-3 3-3h50c1.6568542 0 3 1.34314575 3 3z"/><circle id="Oval" cx="5" cy="5" r="1"/><circle id="Oval" cx="5" cy="41" r="1"/><circle id="Oval" cx="55" cy="5" r="1"/><circle id="Oval" cx="55" cy="41" r="1"/><circle id="Oval" cx="16" cy="41" r="1"/><path id="Shape" d="m23 40h-3c-.5522847 0-1 .4477153-1 1s.4477153 1 1 1h3c.5522847 0 1-.4477153 1-1s-.4477153-1-1-1z"/><circle id="Oval" cx="44" cy="41" r="1"/><path id="Shape" d="m40 40h-3c-.5522847 0-1 .4477153-1 1s.4477153 1 1 1h3c.5522847 0 1-.4477153 1-1s-.4477153-1-1-1z"/><path id="Shape" d="m53 8h-46c-1.65685425 0-3 1.34314575-3 3v20c0 1.6568542 1.34314575 3 3 3h46c1.6568542 0 3-1.3431458 3-3v-20c0-1.65685425-1.3431458-3-3-3zm1 23c0 .5522847-.4477153 1-1 1h-46c-.55228475 0-1-.4477153-1-1v-20c0-.5522847.44771525-1 1-1h46c.5522847 0 1 .4477153 1 1z"/><path id="Shape" d="m28.707 6.707 1.293-1.293 1.293 1.293c.3923789.37897221 1.0160848.37355237 1.4018186-.01218142.3857338-.3857338.3911536-1.00943969.0121814-1.40181858l-2-2c-.3904999-.39038194-1.0235001-.39038194-1.414 0l-2 2c-.3789722.39237889-.3735524 1.01608478.0121814 1.40181858.3857338.38573379 1.0094397.39115363 1.4018186.01218142z"/><path id="Shape" d="m44 13h-28c-4.418278 0-8 3.581722-8 8s3.581722 8 8 8h28c4.418278 0 8-3.581722 8-8s-3.581722-8-8-8zm-11.533 2c-1.9565832 3.7607364-1.9565832 8.2392636 0 12h-4.934c1.9565832-3.7607364 1.9565832-8.2392636 0-12zm-22.467 6c0-3.3137085 2.6862915-6 6-6s6 2.6862915 6 6-2.6862915 6-6 6c-3.3123376-.0033074-5.9966926-2.6876624-6-6zm14 0c-.001299-2.2994431-.9949291-4.48645-2.726-6h3.94c2.3814338 3.6455483 2.3814338 8.3544517 0 12h-3.94c1.7310709-1.51355 2.724701-3.7005569 2.726-6zm10.786 6c-2.3814338-3.6455483-2.3814338-8.3544517 0-12h3.94c-1.7321618 1.5127424-2.7260424 3.7002665-2.7260424 6s.9938806 4.4872576 2.7260424 6zm9.214 0c-2.4267735 0-4.6145912-1.4618531-5.5432772-3.7038994s-.4153515-4.8227533 1.3006365-6.5387413 4.296695-2.2293225 6.5387413-1.3006365 3.7038994 3.1165037 3.7038994 5.5432772c-.0033074 3.3123376-2.6876624 5.9966926-6 6z"/><path id="Shape" d="m17 24v-.184c.3425881-.1226843.6598184-.3070575.936-.544l.162.094c.3095704.1814844.6926495.1831833 1.0038174.0044519.311168-.1787315.5027136-.5104885.5019247-.8693336s-.1937913-.6897567-.5057421-.8671183l-.153-.088c.0733236-.3603074.0733236-.7316926 0-1.092l.153-.088c.3119508-.1773616.5049532-.5082732.5057421-.8671183s-.1907567-.6906021-.5019247-.8693336c-.3111679-.1787314-.694247-.1770325-1.0038174.0044519l-.162.094c-.2761816-.2369425-.5934119-.4213157-.936-.544v-.184c0-.5522847-.4477153-1-1-1s-1 .4477153-1 1v.184c-.3425881.1226843-.6598184.3070575-.936.544l-.162-.094c-.47786-.2716903-1.0854205-.1067416-1.3602745.3693057-.2748541.4760473-.1139391 1.0846885.3602745 1.3626943l.153.088c-.0733236.3603074-.0733236.7316926 0 1.092l-.153.088c-.3119508.1773616-.5049532.5082732-.5057421.8671183s.1907567.6906021.5019247.8693336c.3111679.1787314.694247.1770325 1.0038174-.0044519l.162-.094c.2761816.2369425.5934119.4213157.936.544v.184c0 .5522847.4477153 1 1 1s1-.4477153 1-1zm-2-3c0-.5522847.4477153-1 1-1s1 .4477153 1 1-.4477153 1-1 1-1-.4477153-1-1z"/><path id="Shape" d="m47.464 19c-.2761504-.4782682-.8877197-.6421293-1.366-.366l-.162.094c-.2761816-.2369425-.5934119-.4213157-.936-.544v-.184c0-.5522847-.4477153-1-1-1s-1 .4477153-1 1v.184c-.3425881.1226843-.6598184.3070575-.936.544l-.162-.094c-.3095704-.1814844-.6926495-.1831833-1.0038174-.0044519-.311168.1787315-.5027136.5104885-.5019247.8693336s.1937913.6897567.5057421.8671183l.153.088c-.0733236.3603074-.0733236.7316926 0 1.092l-.153.088c-.3119508.1773616-.5049532.5082732-.5057421.8671183s.1907567.6906021.5019247.8693336c.3111679.1787314.694247.1770325 1.0038174-.0044519l.162-.094c.2761816.2369425.5934119.4213157.936.544v.184c0 .5522847.4477153 1 1 1s1-.4477153 1-1v-.184c.3425881-.1226843.6598184-.3070575.936-.544l.162.094c.47786.2716903 1.0854205.1067416 1.3602745-.3693057.2748541-.4760473.1139391-1.0846885-.3602745-1.3626943l-.153-.088c.0733236-.3603074.0733236-.7316926 0-1.092l.153-.088c.4782682-.2761504.6421293-.8877197.366-1.366zm-4.464 2c0-.5522847.4477153-1 1-1s1 .4477153 1 1-.4477153 1-1 1-1-.4477153-1-1z"/></g></g></g></svg>