<svg height="512" viewBox="0 0 60 60" width="512" xmlns="http://www.w3.org/2000/svg"><g id="Page-1" fill="none" fill-rule="evenodd"><g id="029---CD-Sleeve"><g id="Color" transform="translate(1 1)"><path id="Shape" d="m58 30v27c0 .5522847-.4477153 1-1 1h-56c-.55228475 0-1-.4477153-1-1v-27c0-.5522847.44771525-1 1-1h16.17c.9813349 5.7678708 5.9792435 9.9872655 11.83 9.9872655s10.8486651-4.2193947 11.83-9.9872655h16.17c.5522847 0 1 .4477153 1 1z" fill="#f44335" fill-rule="nonzero"/><path id="Shape" d="m58 30v27c0 .5522847-.4477153 1-1 1h-56c-.55228475 0-1-.4477153-1-1v-27c0-.5522847.44771525-1 1-1h16.17c.9813349 5.7678708 5.9792435 9.9872655 11.83 9.9872655s10.8486651-4.2193947 11.83-9.9872655h16.17c.5522847 0 1 .4477153 1 1z" fill="#f44335" fill-rule="nonzero"/><path id="Shape" d="m26 39c.5015839-.0023646 1.002541-.0357617 1.5-.1-5.2515161-.6572026-9.450244-4.6811528-10.33-9.9h-3c.9719844 5.7751091 5.9736675 10.0030746 11.83 10z" fill="#c81e1e" fill-rule="nonzero"/><path id="Shape" d="m57 29h-3c.5522847 0 1 .4477153 1 1v27c0 .5522847-.4477153 1-1 1h3c.5522847 0 1-.4477153 1-1v-27c0-.5522847-.4477153-1-1-1z" fill="#c81e1e" fill-rule="nonzero"/><circle id="Oval" cx="29" cy="27" r="3" stroke="#000" stroke-linecap="round" stroke-linejoin="round" stroke-width="2"/><circle id="Oval" cx="29" cy="27" r="3" stroke="#000" stroke-linecap="round" stroke-linejoin="round" stroke-width="2"/><circle id="Oval" cx="29" cy="27" r="3" stroke="#000" stroke-linecap="round" stroke-linejoin="round" stroke-width="2"/><g fill-rule="nonzero"><path id="Shape" d="m40.75 24.55c-1.2879055-6.1752347-7.1370695-10.2990628-13.386073-9.4375648-6.2490036.8614979-10.7641497 6.4141669-10.3331135 12.707531.4310361 6.2933642 5.6610789 11.1785796 11.9691865 11.1800338 3.6120907-.0013875 7.0316016-1.62896 9.3104545-4.4314643 2.278853-2.8025043 3.1748406-6.4820767 2.4395455-10.0185357zm-11.75 9.45c-3.8659932 0-7-3.1340068-7-7s3.1340068-7 7-7 7 3.1340068 7 7c-.0044086 3.8641657-3.1358343 6.9955914-7 7z" fill="#00838f"/><path id="Shape" d="m29 20c-3.8659932 0-7 3.1340068-7 7s3.1340068 7 7 7 7-3.1340068 7-7c-.0044086-3.8641657-3.1358343-6.9955914-7-7zm0 10c-1.6568542 0-3-1.3431458-3-3s1.3431458-3 3-3 3 1.3431458 3 3c-.0049422 1.6548028-1.3451972 2.9950578-3 3z" fill="#3f51b5"/><path id="Shape" d="m17 27c.0007135.6702444.057579 1.3392508.17 2h-15.09c-.06-.66-.08-1.33-.08-2 .0000138-12.107943 8.0604855-22.73533981 19.72-26l3.53 14.6c-4.9233081 1.6196494-8.2504262 6.2171218-8.25 11.4z" fill="#00bcd4"/><path id="Shape" d="m36.28 1-3.53 14.6c-2.4360028-.7999825-5.0639972-.7999825-7.5 0l-3.53-14.6c4.7617639-1.33329231 9.7982361-1.33329231 14.56 0z" fill="#9d27b0"/><path id="Shape" d="m47.87 7.7-10.87 10.35c-1.2304771-1.1038813-2.6780955-1.9383907-4.25-2.45l3.53-14.6c4.3680302 1.21663942 8.3558416 3.52193163 11.59 6.7z" fill="#e91e63"/><path id="Shape" d="m55.16 20.3-14.41 4.25c-.5207055-2.5127101-1.8353766-4.7914733-3.75-6.5l10.87-10.35c3.5430656 3.4492242 6.0656442 7.8092365 7.29 12.6z" fill="#9d27b0"/><path id="Shape" d="m56 27c0 .67-.02 1.34-.08 2h-15.09c.112421-.6607492.1692865-1.3297556.17-2-.0014156-.8229605-.085166-1.6437148-.25-2.45l14.41-4.25c.5601611 2.1892135.8423817 4.4402588.84 6.7z" fill="#00bcd4"/><path id="Shape" d="m5 34h-1c-.55228475 0-1-.4477153-1-1s.44771525-1 1-1h1c.55228475 0 1 .4477153 1 1s-.44771525 1-1 1z" fill="#f5f5f5"/><path id="Shape" d="m14 34h-5c-.55228475 0-1-.4477153-1-1s.44771525-1 1-1h5c.5522847 0 1 .4477153 1 1s-.4477153 1-1 1z" fill="#f5f5f5"/><path id="Shape" d="m54 35c-.5522847 0-1-.4477153-1-1v-1c0-.5522847.4477153-1 1-1s1 .4477153 1 1v1c0 .5522847-.4477153 1-1 1z" fill="#f5f5f5"/><path id="Shape" d="m54 55c-.5522847 0-1-.4477153-1-1v-16c0-.5522847.4477153-1 1-1s1 .4477153 1 1v16c0 .5522847-.4477153 1-1 1z" fill="#f5f5f5"/><path id="Shape" d="m47.87 7.7-2.13 2.03c-2.6429132-3.19327189-5.9906942-5.72978081-9.78-7.41l.32-1.32c4.3680302 1.21663942 8.3558416 3.52193163 11.59 6.7z" fill="#ad1457"/><path id="Shape" d="m55.16 20.3-3.75 1.1c-.8983003-4.2981968-2.8461854-8.3073358-5.67-11.67l2.13-2.03c3.5430656 3.4492242 6.0656442 7.8092365 7.29 12.6z" fill="#6a1b9a"/><path id="Shape" d="m56 27c0 .67-.02 1.34-.08 2h-4c.06-.66.08-1.33.08-2 .0030295-1.8823361-.1947563-3.7596248-.59-5.6l3.75-1.1c.5601611 2.1892135.8423817 4.4402588.84 6.7z" fill="#00838f"/></g></g><g id="Outline" fill="#000" fill-rule="nonzero"><path id="Shape" d="m58 29h-.018c.011-.314.018-.64.018-1-.0000002-15.4639728-12.5360272-27.99999958-28-27.99999958s-27.99999977 12.53602678-28 27.99999958c0 .36.007.686.018 1h-.018c-1.1045695 0-2 .8954305-2 2v27c0 1.1045695.8954305 2 2 2h56c1.1045695 0 2-.8954305 2-2v-27c0-1.1045695-.8954305-2-2-2zm-15.051 0c.026-.331.051-.662.051-1-.0042162-.5815969-.0476481-1.1622475-.13-1.738l12.553-3.7c.3829117 1.7873513.576314 3.6100926.577 5.438 0 .362-.006.691-.018 1zm-23.949-1c0-6.0751322 4.9248678-11 11-11s11 4.9248678 11 11-4.9248678 11-11 11c-6.0721626-.0071635-10.9928365-4.9278374-11-11zm18.938-10.272c-.9200184-.7158451-1.9320787-1.3047841-3.009-1.751l3.071-12.711c3.4844462 1.13126243 6.6904902 2.98611971 9.408 5.443zm16.989 2.893-12.471 3.679c-.5853241-1.9558885-1.6233867-3.7462895-3.03-5.226l9.414-8.964c2.8304168 2.9739392 4.9163324 6.5758875 6.087 10.511zm-18.85-17.9-3.058 12.647c-1.9827636-.4906523-4.0552364-.4906523-6.038 0l-3.058-12.644c3.9938291-.96533697 8.1601709-.96533697 12.154 0zm-32.077 25.279c.01459919-11.2714179 7.2792763-21.25389134 18-24.734l3.074 12.711c-4.8784826 2.0019315-8.0668553 6.74974-8.074 12.023 0 .338.025.669.051 1h-13.033c-.012-.309-.018-.638-.018-1zm54 30h-56v-27h15.363c1.3846213 5.859747 6.6158862 9.9989565 12.637 9.9989565s11.2523787-4.1392095 12.637-9.9989565h15.363z"/><path id="Shape" d="m30 36c4.418278 0 8-3.581722 8-8s-3.581722-8-8-8-8 3.581722-8 8c.0049599 4.4162219 3.5837781 7.9950401 8 8zm0-14c3.3137085 0 6 2.6862915 6 6s-2.6862915 6-6 6-6-2.6862915-6-6c.0033074-3.3123376 2.6876624-5.9966926 6-6z"/><path id="Shape" d="m30 32c2.209139 0 4-1.790861 4-4s-1.790861-4-4-4-4 1.790861-4 4 1.790861 4 4 4zm0-6c1.1045695 0 2 .8954305 2 2s-.8954305 2-2 2-2-.8954305-2-2 .8954305-2 2-2z"/></g></g></g></svg>