<svg height="512" viewBox="0 0 60 60" width="512" xmlns="http://www.w3.org/2000/svg"><g id="Page-1" fill="none" fill-rule="evenodd"><g id="030---oscilloscope" fill-rule="nonzero" transform="translate(-1 -1)"><g id="Color" transform="translate(2 2)"><circle id="Oval" cx="29" cy="29" fill="#607d8b" r="29"/><path id="Shape" d="m29 0c-.5033333 0-1.0033333.01266667-1.5.038 15.4192225.79012792 27.5158989 13.5225465 27.5158989 28.962s-12.0966764 28.1718721-27.5158989 28.962c.4973333.0253333.9973333.038 1.5.038 16.0162576-.0000002 28.9999996-12.9837424 28.9999996-29s-12.983742-28.99999976-28.9999996-29z" fill="#37474f"/><circle id="Oval" cx="29" cy="29" fill="#60a917" r="25"/><path id="Shape" d="m29 4c-.5 0-1 .019-1.5.049 13.1671239.83401357 23.4196519 11.7564891 23.4196519 24.95s-10.252528 24.1159864-23.4196519 24.95c.5.03 1 .049 1.5.049 13.7193264-.1227131 24.7763954-11.2791248 24.7763954-24.999s-11.057069-24.87628693-24.7763954-24.999z" fill="#549414"/><path id="Shape" d="m18.7 11.7c-.4547918.0007821-.8528333-.3054183-.9687138-.7452-.1158804-.4397816.0795889-.9023694.4757138-1.1258 3.294246-1.85614256 7.0118204-2.83057209 10.793-2.829.5522847.00000002 1 .44771526 1 1s-.4477153.99999998-1 1c-3.4355748-.00010829-6.8130758.88611545-9.806 2.573-.1507825.0846673-.3210786.1284478-.494.127z" fill="#a4c400"/><path id="Shape" d="m29 51c-.5522847 0-1-.4477153-1-1s.4477153-1 1-1c3.4355748.0001083 6.8130758-.8861155 9.806-2.573.4798597-.2631199 1.0820881-.0916384 1.3513641.3847939.2692759.4764324.105562 1.0808187-.3673641 1.3562061-3.2930766 1.8566898-7.0095701 2.8321401-10.79 2.832z" fill="#a4c400"/><g fill="#607d8b"><circle id="Oval" cx="29" cy="2" r="2"/><circle id="Oval" cx="29" cy="56" r="2"/><circle id="Oval" cx="42.5" cy="5.617" r="2"/><circle id="Oval" cx="15.5" cy="52.383" r="2"/><circle id="Oval" cx="52.383" cy="15.5" r="2"/><circle id="Oval" cx="5.617" cy="42.5" r="2"/><circle id="Oval" cx="56" cy="29" r="2"/><circle id="Oval" cx="2" cy="29" r="2"/><circle id="Oval" cx="52.383" cy="42.5" r="2"/><circle id="Oval" cx="5.617" cy="15.5" r="2"/><circle id="Oval" cx="42.5" cy="52.383" r="2"/><circle id="Oval" cx="15.5" cy="5.617" r="2"/></g><path id="Shape" d="m35.063 45.2h-.02c-.9965931.0065698-1.8402833-.7339693-1.963-1.723l-4.08-29.241-4.08 29.242c-.1231818.9886335-.9667441 1.7286305-1.963 1.722h-.019c-.9892364.0148394-1.8350787-.7084543-1.974-1.688l-4.13-26.156-4.857 21.861c-.1198458.5395822-.6544178.8798458-1.194.76s-.87984579-.6544178-.76-1.194l4.858-21.858c.2070579-.9392393 1.0533313-1.5980911 2.0146673-1.5684852s1.7654632.7392846 1.9143327 1.6894852l4.128 26.154 4.082-29.24c.1404428-.9856166.9844276-1.7178653 1.98-1.7178653s1.8395572.7322487 1.98 1.7178653l4.081 29.24 4.13-26.156c.1499818-.9489999.9535783-1.6572606 1.9139014-1.6868428.960323-.0295823 1.8059897.6278737 2.0140986 1.5658428l4.858 21.858c.1198458.5395822-.2204178 1.0741542-.76 1.194s-1.0741542-.2204178-1.194-.76l-4.857-21.857-4.13 26.155c-.1389149.978993-.9843118 1.7018438-1.973 1.687z" fill="#f5f5f5"/></g><g id="Outline" fill="#000"><path id="Shape" d="m56.98 16c-.024-.042-.057-.076-.083-.116-2.6117641-4.4575664-6.3234028-8.17058234-10.78-10.784-.041-.027-.074-.06-.117-.085s-.09-.038-.135-.06c-9.207398-5.2787589-20.523602-5.2787589-29.731 0-.044.022-.091.035-.134.06s-.076.058-.117.085c-4.4550383 2.6130033-8.16582336 6.3244769-10.778 10.78-.026.041-.061.076-.085.12s-.04.092-.063.137c-5.27738393 9.2070502-5.27738393 20.5219498 0 29.729.022.044.036.091.061.134s.057.076.083.116c2.61232008 4.4578145 6.3246701 8.1708531 10.782 10.784.041.027.074.06.117.085s.07.025.1.043c9.2231702 5.3012872 20.5688298 5.3012872 29.792 0 .034-.018.071-.024.1-.043s.076-.058.117-.085c4.459801-2.6112435 8.1752094-6.3228644 10.791-10.78.026-.041.061-.076.085-.12s.04-.092.063-.137c5.2773839-9.2070502 5.2773839-20.5219498 0-29.729-.029-.044-.043-.091-.068-.134zm1.875 12.139c-.6558669-.2121223-1.3663769-.1794389-2 .092-.2880605-2.6873411-.9967073-5.3127087-2.1-7.78.3960305-.0400393.779795-.1601358 1.128-.353.2456149-.1466704.4688939-.3278531.663-.538 1.2250982 2.7172144 2.0047407 5.6139459 2.309 8.579zm-2.309 14.3c-.4640903-.508839-1.0960478-.8333385-1.78-.914 1.0957047-2.4609594 1.7992288-5.078339 2.085-7.757.6336231.2714389 1.3441331.3041223 2 .092-.3028849 2.9651699-1.0811766 5.8622384-2.305 8.58zm-1.346 2.612c-.1304735.2022236-.3303367.3498093-.562.415-.2562488.0686633-.5292801.0326908-.759-.1-.3918891-.22634-.5829232-.6876564-.4657824-1.124789s.5132543-.7411078.9658103-.7411572c.4525559-.0000495.8487358.3038392.9659721.7409462.0595143.2332039.031405.4801385-.079.694zm-10.15 10.149-.114.066c-.4836498.2389521-1.0696552.0512154-1.3244137-.4242984s-.0864323-1.0673869.3804291-1.337675c.4668614-.2702882 1.0639594-.1215554 1.3494837.3361466.2855243.4577019.1565464 1.0593764-.2914991 1.3598268zm-3.149.678c.144435.2466914.3236029.4713249.532.667-2.7156391 1.2210128-5.6098871 1.9975842-8.572 2.3.2121223-.6558669.1794389-1.3663769-.092-2 2.6786943-.2855927 5.2961013-.9891241 7.757-2.085.0483205.3952609.1754999.776799.374 1.122zm-24.951-.678c-.4480455-.3004504-.5770234-.9021249-.2914991-1.3598268.2855243-.457702.8826223-.6064348 1.3494837-.3361466.4668614.2702881.6351876.8621612.3804291 1.337675s-.8407639.6632505-1.3244137.4242984zm3.149.679c.1980941-.3433052.3255902-.7227337.375-1.116 2.4609594 1.0957047 5.078339 1.7992288 7.757 2.085-.2714389.6336231-.3041223 1.3441331-.092 2-2.9621129-.3024158-5.8563609-1.0789872-8.572-2.3.2085995-.1949949.3881001-.4189497.533-.665zm9.901 2.121c0-.5522847.4477153-1 1-1s1 .4477153 1 1-.4477153 1-1 1-1-.4477153-1-1zm1-3c-13.254834 0-24-10.745166-24-24s10.745166-24 24-24 24 10.745166 24 24c-.0154295 13.2484376-10.7515624 23.9845705-24 24zm-22.883-9.634c-.22971989.1326908-.50275125.1686633-.759.1-.23242941-.0653054-.43277984-.2136999-.563-.417l-.065-.112c-.11144773-.2157007-.13957006-.4648859-.079-.7.11723632-.437107.51341619-.7409957.96597214-.7409462.45255594.0000494.84866941.3040246.96581024.7411572.11714082.4371326-.07389326.898449-.46578238 1.124789zm-2-3.464c-.24561491.1466704-.46889391.3278531-.663.538-1.22509817-2.7172144-2.00474067-5.6139459-2.309-8.579.27662139.0880951.5647181.1349318.855.139.39453613.0000288.78512937-.0784978 1.149-.231.28545519 2.678834.98934344 5.296313 2.086 7.757-.39373473.0494963-.7737372.176617-1.118.374zm-.663-22.342c.19410609.2101469.41738509.3913296.663.538.34815111.1931618.73190879.3135964 1.128.354-1.10341126 2.4668992-1.81206545 5.0919567-2.1 7.779-.36262862-.1519825-.75181054-.2304987-1.145-.231-.2902819.0040682-.57837861.0509049-.855.139.30425933-2.9650541 1.08390183-5.8617856 2.309-8.579zm1.346-2.611c.13047354-.2022236.33033668-.3498093.562-.415.533431-.1429536 1.08175489.1735654 1.22475063.7069851.14299575.5334197-.1734799 1.0817686-.70688831 1.2248064-.53340841.1430379-1.0817823-.1733944-1.22486232-.7067915-.05951431-.2332039-.03140505-.4801385.079-.694zm-2.8 13.051c.55228475 0 1 .4477153 1 1s-.44771525 1-1 1-1-.4477153-1-1 .44771525-1 1-1zm12.95-23.2.115-.066c.4845765-.23687549 1.0696958-.04677108 1.3225127.42968247.2528169.47645356.0822235 1.06755602-.3855829 1.33603619-.4678063.26848017-1.0642416.11758547-1.3480896-.34105895-.283848-.45864441-.152818-1.0597562.2961598-1.35865971zm3.15-.683c-.1467751-.24610209-.3286935-.46945747-.54-.663 2.717569-1.22508641 5.6146273-2.00472601 8.58-2.309-.0884344.27657037-.1356083.56466825-.14.855-.0000288.39453613.0784978.78512937.231 1.149-2.678661.28577121-5.2960406.98929531-7.757 2.085-.0491029-.39350933-.1762532-.77326041-.374-1.117zm24.95.683c.4338871.30323522.5516929.89455389.2671453 1.34091956-.2845476.44636568-.8703338.58916112-1.3283736.3238139-.4580399-.26534723-.6255678-.84454527-.3798991-1.3134339s.8172349-.66084702 1.2961274-.43529956zm-3.15-.682c-.1980941.34330523-.3255902.72273366-.375 1.116-2.4609594-1.09570469-5.078339-1.79922879-7.757-2.085.1528451-.3638003.2317121-.75439616.232-1.149-.0040682-.2902819-.0509049-.57837861-.139-.855 2.9653727.30427399 5.862431 1.08391359 8.58 2.309-.2114474.19405123-.3936725.41770649-.541.664zm-9.9-2.118c0 .55228475-.4477153 1-1 1s-1-.44771525-1-1 .4477153-1 1-1 1 .44771525 1 1zm22.381 12.5c.0881099-.0000883.1758533.0113418.261.034.2324294.0653054.4327798.2136999.563.417l.065.112c.1114477.2157007.1395701.4648859.079.7-.1342173.5005261-.6285638.8155957-1.1389524.7259063s-.8677027-.5544193-.823236-1.0707171c.0444668-.5162978.4759804-.9130889.9941884-.9141892zm3.619 15.5c-.5522847 0-1-.4477153-1-1s.4477153-1 1-1 1 .4477153 1 1-.4477153 1-1 1zm-4.327-17.4c-.6718756.1499558-1.2676414.5360148-1.679 1.088-1.5953983-2.1805299-3.5180709-4.1015159-5.7-5.695.3254384-.23324023.6000094-.53026681.807-.873.1367729-.24785972.2377747-.51383104.3-.79 2.4077639 1.7467187 4.5245135 3.8627933 6.272 6.27zm-39.073-6.273c.0622253.27616896.1632271.54214028.3.79.2069906.34273319.4815616.63975977.807.873-2.1823069 1.5950005-4.1049995 3.5176931-5.7 5.7-.41071129-.5535285-1.00714914-.9405031-1.68-1.09 1.7470584-2.4087665 3.8642335-4.5259416 6.273-6.273zm-6.268 39.08c.6687495-.1571253 1.26116306-.5439281 1.674-1.093 1.5907053 2.17387 3.50685 4.0896774 5.681 5.68-.5534075.4098427-.9395734 1.0063215-1.087 1.679-2.4065445-1.7452337-4.5219984-3.8600126-6.268-6.266zm39.068 6.266c-.1471711-.672785-.5333907-1.2693468-1.087-1.679 2.1736181-1.5906079 4.0893921-3.5063819 5.68-5.68.4128369.5490719 1.0052505.9358747 1.674 1.093-1.7459932 2.4056591-3.8610623 4.5203907-6.267 6.266z"/></g></g></g></svg>