<svg height="512" viewBox="0 0 60 60" width="512" xmlns="http://www.w3.org/2000/svg"><g id="Page-1" fill="none" fill-rule="evenodd"><g id="031---Banjo" transform="translate(-1)"><g id="Color" transform="translate(2)"><g fill-rule="nonzero"><path id="Shape" d="m45.05 19.58-13.71 13.71-7.39 7.39-5.63-5.63 7.39-7.39h.01l13.7-13.71z" fill="#ffe0b2"/><rect id="Rectangle-path" fill="#91562d" height="15.916" rx="2" transform="matrix(.707 .707 -.707 .707 21.895 -30.58)" width="11.937" x="41.893" y="3.181"/><path id="Shape" d="m56.294 8.318-5.612-5.612c-.7809997-.78076388-2.0470003-.78076388-2.828 0l-.086.085 5.526 5.527c.7807639.7809997.7807639 2.0470003 0 2.828l-8.34 8.341.086.086c.7809997.7807639 2.0470003.7807639 2.828 0l8.426-8.427c.7807639-.7809997.7807639-2.0470003 0-2.828z" fill="#783e22"/><path id="Shape" d="m44.9077254 1.05986967h1.984v3.979h-1.984c-.5522847 0-1-.44771525-1-1v-1.979c0-.55228475.4477153-1 1-1z" fill="#cfd8dc" transform="matrix(.707 .707 -.707 .707 15.454 -31.209)"/><path id="Shape" d="m39.2792386 6.68757678h1.984v3.97900002h-1.984c-.5522848 0-1-.4477153-1-1.00000002v-1.979c0-.55228475.4477152-1 1-1z" fill="#cfd8dc" transform="matrix(.707 .707 -.707 .707 17.784 -25.581)"/><path id="Shape" d="m55.4582746 11.611763h1.984v3.979h-1.984c-.5522848 0-1-.4477152-1-1v-1.979c0-.5522847.4477152-1 1-1z" fill="#cfd8dc" transform="matrix(-.707 -.707 .707 -.707 85.896 62.782)"/><path id="Shape" d="m49.8307614 17.2380559h1.984v3.979h-1.984c-.5522847 0-1-.4477152-1-1v-1.979c0-.5522847.4477153-1 1-1z" fill="#cfd8dc" transform="matrix(-.707 -.707 .707 -.707 72.31 68.407)"/><path id="Shape" d="m35.903 17.47 5.627 5.627" fill="#000" stroke="#000" stroke-linejoin="round" stroke-width="2"/><path id="Shape" d="m32.386 20.987 5.627 5.627" fill="#000" stroke="#000" stroke-linejoin="round" stroke-width="2"/><path id="Shape" d="m28.869 24.504 5.627 5.627" fill="#000" stroke="#000" stroke-linejoin="round" stroke-width="2"/></g><path id="Shape" d="m25.352 28.021 5.627 5.627" stroke="#000" stroke-linejoin="round" stroke-width="2"/><path id="Shape" d="m21.835 31.538 5.627 5.627" fill="#000" fill-rule="nonzero" stroke="#000" stroke-linejoin="round" stroke-width="2"/><path id="Shape" d="m25.71 27.66-2.91 2.91c-1.8216912-.937099-3.8414158-1.4240276-5.89-1.42v-3.9600143c3.1049989-.0040307 6.1506153.8508185 8.8 2.4700143z" fill="#7f8e94" fill-rule="nonzero"/><path id="Shape" d="m25.72 27.66h-.01" stroke="#000" stroke-linecap="round" stroke-linejoin="round" stroke-width="2"/><path id="Shape" d="m16.91 25.1899524v3.9600476c-3.4295836-.0030963-6.7189613 1.3608798-9.14 3.79l-2.82-2.81c3.17034995-3.1727471 7.4747654-4.9506579 11.96-4.9400476z" fill="#7f8e94" fill-rule="nonzero"/><path id="Shape" d="m7.77 32.94c-2.43101666 2.4238605-3.79509478 5.7170835-3.79 9.15h-3.97002618c-.00786813-4.4846893 1.76962188-8.7880862 4.94002618-11.96z" fill="#7f8e94" fill-rule="nonzero"/><path id="Shape" d="m5.4 47.98-2.92 2.92c-1.62058711-2.6524499-2.47547413-5.7016623-2.47002613-8.81h3.97002613c.00199592 2.0478699.4885882 4.0661998 1.42 5.89z" fill="#7f8e94" fill-rule="nonzero"/><path id="Shape" d="m11.28 53.34-.26.26-2.92 2.92c-2.29924424-1.3925698-4.22743024-3.3207558-5.62-5.62l2.92-2.92.26-.26c.37171541-.3743464.87745138-.5848746 1.405-.5848746s1.03328459.2105282 1.405.5848746l2.81 2.81c.3743464.3717154.5848746.8774514.5848746 1.405s-.2105282 1.0332846-.5848746 1.405z" fill="#a0522d" fill-rule="nonzero"/><path id="Shape" d="m11.28 50.53-2.81-2.81c-.37171541-.3743464-.87745138-.5848746-1.405-.5848746s-1.03328459.2105282-1.405.5848746l-.095.095 2.715 2.715c.37434637.3717154.58487456.8774514.58487456 1.405s-.21052819 1.0332846-.58487456 1.405l-.26.26-1.68 1.68c.55965833.450396 1.14752252.8645731 1.76 1.24l2.92-2.92.26-.26c.3743464-.3717154.5848746-.8774514.5848746-1.405s-.2105282-1.0332846-.5848746-1.405z" fill="#783e22" fill-rule="nonzero"/><path id="Shape" d="m16.91 55.02v3.9700261c-3.1083377.005448-6.1575501-.849439-8.81-2.4700261l2.92-2.92c1.822099.9360013 3.841553 1.4228645 5.89 1.42z" fill="#7f8e94" fill-rule="nonzero"/><path id="Shape" d="m28.87 54.05c-3.1719138 3.1704043-7.4753107 4.9478943-11.96 4.9400262v-3.9700262c3.4329165.0050948 6.7261395-1.3589833 9.15-3.79z" fill="#7f8e94" fill-rule="nonzero"/><path id="Shape" d="m33.8100476 42.09c.0106103 4.4852346-1.7673005 8.7896501-4.9400476 11.96l-2.81-2.82c2.4291202-2.4210387 3.7930963-5.7104164 3.79-9.14z" fill="#7f8e94" fill-rule="nonzero"/><path id="Shape" d="m33.8100143 42.09h-3.9600143c.0040276-2.0485842-.482901-4.0683088-1.42-5.89l2.91-2.91c1.6191958 2.6493847 2.474045 5.6950011 2.4700143 8.8z" fill="#7f8e94" fill-rule="nonzero"/><path id="Shape" d="m31.34 33.29v-.01" stroke="#000" stroke-linecap="round" stroke-linejoin="round" stroke-width="2"/><path id="Shape" d="m29.85 42.09h-.01" stroke="#000" stroke-linejoin="round" stroke-width="2"/><path id="Shape" d="m16.91 29.16v-.01" stroke="#000" stroke-linejoin="round" stroke-width="2"/><path id="Shape" d="m29.85 42.09c-.0023948 4.5038707-2.3469945 8.6823472-6.1898139 11.0313036-3.8428193 2.3489565-8.630714 2.5302788-12.6401861.4786964l.26-.26c.3743464-.3717154.5848746-.8774514.5848746-1.405s-.2105282-1.0332846-.5848746-1.405l-2.81-2.81c-.37171541-.3743464-.87745138-.5848746-1.405-.5848746s-1.03328459.2105282-1.405.5848746l-.26.26c-2.05096971-4.0095232-1.86935714-8.7970886.4794775-12.6397087 2.34883465-3.84262 6.5268857-6.1873279 11.0305225-6.1902913 2.0485842-.0040276 4.0683088.482901 5.89 1.42l-4.48 4.48 5.63 5.63 4.48-4.48c.937099 1.8216912 1.4240276 3.8414158 1.42 5.89z" fill="#f5f5f5" fill-rule="nonzero"/><path id="Shape" d="m28.43 36.2-2.152 2.152c1.1163992 3.6673827.5438507 7.6413126-1.5624173 10.8443858-2.106268 3.2030733-5.5280292 5.3034258-9.3375827 5.7316142 4.7448604.569764 9.4170898-1.5240976 12.1495369-5.44482 2.732447-3.9207224 3.0794985-9.028906.9024631-13.28318z" fill="#cfd8dc" fill-rule="nonzero"/><path id="Shape" d="m14.7545479 37.2992916h9.961c1.1045695 0 2 .8954305 2 2v1.979h-13.961v-1.979c0-1.1045695.8954305-2 2-2z" fill="#37474f" fill-rule="nonzero" transform="matrix(.707 .707 -.707 .707 33.562 -2.447)"/></g><g id="Outline" fill="#000" fill-rule="nonzero"><path id="Shape" d="m59.583 11.007c.5399495-1.14185643.3068617-2.49960293-.583-3.396l-5.611-5.611c-.8971096-.8916503-2.2570878-1.12484656-3.4-.583l-.824-.829c-.375096-.37524801-.8839266-.58607293-1.4145-.58607293s-1.039404.21082492-1.4145.58607293l-1.4 1.4c-.7800976.78088507-.7800976 2.04611493 0 2.827l.7.7-1.4 1.4-.7-.7c-.375096-.37524801-.8839266-.58607293-1.4145-.58607293s-1.039404.21082492-1.4145.58607293l-1.4 1.4c-.7807639.7809997-.7807639 2.0470003 0 2.828l.827.827c-.3933515.8051949-.3933515 1.7468051 0 2.552l-12.591 12.594c-7.8126147-4.3058333-17.6028966-2.2061996-22.96279439 4.924624s-4.65536922 17.1189025 1.65244932 23.4267211c6.30781857 6.3078185 16.29589747 7.0123471 23.42672107 1.6524493s9.2304573-15.1501797 4.924624-22.9627944l12.594-12.594c.8051949.3933515 1.7468051.3933515 2.552 0l.827.827c.7809997.7807639 2.0470003.7807639 2.828 0l1.4-1.4c.375248-.375096.5860729-.8839266.5860729-1.4145s-.2108249-1.039404-.5860729-1.4145l-.7-.7 1.4-1.4.7.7c.7809997.7807639 2.0470003.7807639 2.828 0l1.4-1.4c.375248-.375096.5860729-.8839266.5860729-1.4145s-.2108249-1.039404-.5860729-1.4145zm-13.232-7.607 1.4-1.4.7.7-1.4 1.4zm-19 47.124c-3.3435026 3.3608151-8.364826 4.4125576-12.776 2.676.5419635-1.135831.3078416-2.49005-.584-3.378l-2.814-2.814c-.9052654-.8585536-2.24008702-1.0838566-3.377-.57-1.71758856-4.3772043-.70237664-9.3550856 2.592155-12.7100952 3.2945317-3.3550095 8.2531243-4.4605941 12.660845-2.8229048l-2.736 2.737c-1.1729778-1.1610724-3.0635237-1.1566041-4.231.01l-1.4 1.4c-.3903819.3904999-.3903819 1.0235001 0 1.414l1.4 1.4-2.807 2.807c-.3949668-.3581283-1.0014399-.3434114-1.3785711.0334529s-.3922775.9833269-.0344289 1.3785471l-.7.7c-.3907415.3915699-.3900699 1.0257585.0015 1.4165s1.0257585.3900699 1.4165-.0015l.7-.7 1.4 1.4-.7.7c-.2531227.252944-.3520737.6217133-.259579.967396.0924946.3456827.3623827.6157614.708.7085.3456173.0927387.7144563-.0059519.967579-.258896l.7-.7 1.4 1.4-.7.7c-.2599566.2510745-.3642126.6228779-.2726972.9725073.0915155.3496295.3645604.6226744.7141899.7141899.3496294.0915154.7214328-.0127406.9725073-.2726972l.7-.7c.3952202.3578486 1.0016828.3427023 1.3785471-.0344289s.3915812-.9836043.0334529-1.3785711l2.807-2.807 1.428 1.427c.3904999.3903819 1.0235001.3903819 1.414 0l1.4-1.4c.562719-.5626237.8788593-1.3257625.8788593-2.1215s-.3161403-1.5588763-.8788593-2.1215l-.013-.013 2.738-2.735c1.6323954 4.3696144.5558815 9.2902061-2.752 12.579zm5.469-7.437h1.974c-.2212527 3.5231662-1.6132759 6.8714131-3.955 9.513l-1.4-1.4c1.9745439-2.2665803 3.1599506-5.1128899 3.378-8.111zm-19.568 11.7c1.47317.6627188 3.0509865 1.0624187 4.662 1.181v1.97c-2.1435001-.130085-4.2383694-.6934341-6.158-1.656zm6.662 1.192c2.9969542-.2164974 5.8426064-1.400168 8.109-3.373l1.4 1.4c-2.6427089 2.3335734-5.9890289 3.7177843-9.508 3.933zm-2-27.8c-2.9993103.2183316-5.8466855 1.4044455-8.114 3.38l-1.4-1.4c2.6425895-2.3403136 5.9909908-3.7311988 9.514-3.952zm-9.53 4.789c-1.97481448 2.2681848-3.1595742 5.1163809-3.376 8.116h-1.953c.2156466-3.5190578 1.60019558-6.8653445 3.934-9.508zm-3.379 10.121c.12284996 1.6157443.52727331 3.1975642 1.195 4.674l-1.488 1.484c-.96252272-1.9197051-1.52619108-4.0144967-1.657-6.158zm13.906 3.211-1.4-1.4 2.807-2.8 1.4 1.4zm-.007-5.62-2.804 2.809-1.4-1.4 2.8-2.806zm-2.1-4.924.692-.692c.1875683-.187777.4420908-.2932867.7075-.2932867s.5199317.1055097.7075.2932867l7.043 7.044c.3897159.3903851.3897159 1.0226149 0 1.413l-.692.693zm4.924-.7 2.1-2.1 4.213 4.213-2.1 2.1zm7.73.7-4.213-4.213 2.1-2.1 4.213 4.213zm3.517-3.517-4.213-4.213 2.1-2.1 4.213 4.213zm-.7-7.73 2.1-2.1 4.225 4.205-2.1 2.1zm3.525-3.522 2.1-2.1 4.216 4.213-2.1 2.1zm3.517-3.517 2.1-2.1 4.213 4.213-2.1 2.1zm2.807-9.841.7.7-1.4 1.4-.7-.7zm-17.539 21.745c-1.4767515-.6660035-3.058559-1.0687315-4.674-1.19v-1.976c2.1465078.1358626 4.2429771.7067609 6.162 1.678zm-18.827 21.654 2.606-2.6c.39260535-.3718169 1.00739465-.3718169 1.4 0l2.814 2.814c.3811429.3888435.3811429 1.0111565 0 1.4l-2.606 2.6c-1.66470231-1.1180373-3.09596271-2.5492977-4.214-4.214zm29.034-9.939h-1.975c-.1215848-1.6155017-.5246519-3.1973116-1.191-4.674l1.488-1.488c.9716839 1.9188519 1.5426075 4.0154141 1.678 6.162zm12.955-22.223-5.613-5.613c-.3903819-.3904999-.3903819-1.0235001 0-1.414l2.807-2.807 2.813-2.813 2.807-2.806c.3904999-.39038194 1.0235001-.39038194 1.414 0l5.612 5.612c.3903819.39049985.3903819 1.0235001 0 1.414l-2.806 2.807-2.813 2.813-2.807 2.807c-.3958895.3771429-1.0181105.3771429-1.414 0zm5.624.01-1.4 1.4-.7-.7 1.4-1.4zm4.229-4.227-.7-.7 1.4-1.4.7.7z"/><path id="Shape" d="m51.971 7.622c.2846098-.28455215.3697747-.7125352.2157794-1.08436596s-.5168211-.61427653-.9192794-.61427653-.7652841.24244577-.9192794.61427653-.0688304.79981381.2157794 1.08436596c.1864626.18680045.439563.29177229.7035.29177229s.5170374-.10497184.7035-.29177229z"/><path id="Shape" d="m54.785 10.436c.2846098-.2845522.3697747-.7125352.2157794-1.08436596s-.5168211-.61427653-.9192794-.61427653-.7652841.24244577-.9192794.61427653-.0688304.79981376.2157794 1.08436596c.3896849.3857397 1.0173151.3857397 1.407 0z"/><circle id="Oval" cx="45.641" cy="12.546" r="1"/><circle id="Oval" cx="48.454" cy="15.359" r="1"/></g></g></g></svg>