<svg height="512" viewBox="0 0 60 60" width="512" xmlns="http://www.w3.org/2000/svg"><g id="Page-1" fill="none" fill-rule="evenodd"><g id="032---Speaker" fill-rule="nonzero" transform="translate(-1 -1)"><g id="Color" transform="translate(1 1)"><path id="Shape" d="m59 30c.0018755 12.6527306-8.1996017 23.8461745-20.2646807 27.6574035-12.0650789 3.8112289-25.2084192-.6396162-32.4753193-10.9974035-9.20106364-13.11124-6.03123957-31.1989358 7.0800002-40.39999965 13.1112399-9.20106383 31.1989358-6.03124004 40.3999998 7.07999965 3.4350343 4.8752467 5.2728513 10.6961652 5.26 16.66z" fill="#9e9e9e"/><path id="Shape" d="m30 1c-.5033333 0-1.0033333.01266667-1.5.038 15.4192225.79012792 27.5158989 13.5225465 27.5158989 28.962s-12.0966764 28.1718721-27.5158989 28.962c.4973333.0253333.9973333.038 1.5.038 16.0162576-.0000002 28.9999996-12.9837424 28.9999996-29s-12.983742-28.99999976-28.9999996-29z" fill="#707070"/><circle id="Oval" cx="30" cy="30" fill="#607d8b" r="25"/><path id="Shape" d="m30 5c-.5 0-1 .019-1.5.049 13.1671239.83401357 23.4196519 11.7564891 23.4196519 24.95s-10.252528 24.1159864-23.4196519 24.95c.5.03 1 .049 1.5.049 13.7193264-.1227131 24.7763954-11.2791248 24.7763954-24.999s-11.057069-24.87628693-24.7763954-24.999z" fill="#37474f"/><path id="Shape" d="m17.1 32.584c-.5048585-.0008344-.9299127-.3778501-.991-.879-.5285113-4.2772551.9444632-8.5593031 3.9924289-11.6062919s7.3304856-4.5185905 11.6075711-3.9887081c.3594637.0374887.6707279.2660198.814155.5977549.1434271.3317352.0966959.7150471-.1222321 1.002606-.2189279.2875588-.5759813.4346124-.9339229.3846391-3.6657101-.4535629-7.3358014.8083138-9.9475182 3.420226s-3.873319 6.2820978-3.4194818 9.947774c.0670503.5481281-.3228841 1.0468502-.871 1.114-.0428075.005073-.0858949.0074111-.129.007z" fill="#37474f"/><path id="Shape" d="m30.027 44c-.5773636-.001644-1.1540936-.0383784-1.727-.11-.3594637-.0374887-.6707279-.2660198-.814155-.5977549-.1434271-.3317352-.0966959-.7150471.1222321-1.002606.2189279-.2875588.5759813-.4346124.9339229-.3846391 3.6650635.4522123 7.3339691-.8102643 9.9447242-3.4219963s3.8718591-6.2811096 3.4182758-9.9460037c-.0540494-.3603972.0922366-.7216628.3818122-.9429171.2895755-.2212543.6765863-.2674616 1.0101129-.1206029s.560755.4635284.5930749.82652c.4904751 3.9746533-.7463125 7.9688933-3.397057 10.9708907-2.6507446 3.0019973-6.4611451 4.7237534-10.465943 4.7291093z" fill="#37474f"/><circle id="Oval" cx="30" cy="30" fill="#009688" r="9"/><path id="Shape" d="m30 21c-.5028835.0032224-1.0046224.0483789-1.5.135 4.3297277.7267089 7.5010833 4.4747098 7.5010833 8.865s-3.1713556 8.1382911-7.5010833 8.865c3.3570875.5877651 6.7581917-.7711782 8.7859125-3.5104942 2.0277208-2.7393161 2.334161-6.389019.7916126-9.4281058-1.5425485-3.0390868-4.6694296-4.9461397-8.0775251-4.9264z" fill="#00695c"/><path id="Shape" d="m28 26.418c-.4739764.0005281-.8832163-.3317555-.9800309-.7957393-.0968145-.4639837.1453939-.9321981.5800309-1.1212607.7565993-.3316311 1.5739128-.5022453 2.4-.501.5522847 0 1 .4477153 1 1s-.4477153 1-1 1c-.5506738-.0013403-1.0955863.1120696-1.6.333-.1258727.0561461-.2621729.0851099-.4.085z" fill="#f5f5f5"/><path id="Shape" d="m25 31c-.5522847 0-1-.4477153-1-1-.0015605-.8260164.1687125-1.643327.5-2.4.135572-.3384517.4446005-.5762964.80648-.6207098.3618795-.0444133.7192515.1116443.9326433.4072679.2133919.2956235.2489805.683956.0928767 1.0134419-.2205868.5044876-.3336555 1.0493971-.332 1.6 0 .5522847-.4477153 1-1 1z" fill="#f5f5f5"/><g fill="#f57c00"><path id="Shape" d="m9.54 2.46c-1.95508801-1.95508801-5.12491199-1.95508801-7.08 0s-1.95508801 5.12491199 0 7.08l3.8 3.8c1.93218845-2.7521964 4.3278036-5.14781155 7.08-7.08zm-3.54 5.54c-1.1045695 0-2-.8954305-2-2s.8954305-2 2-2 2 .8954305 2 2c-.0032948 1.10320187-.89679813 1.9967052-2 2z"/><path id="Shape" d="m57.54 2.46c-1.9572931-1.94975729-5.1227069-1.94975729-7.08 0l-3.8 3.8c2.7521964 1.93218845 5.1478115 4.3278036 7.08 7.08l3.8-3.8c1.9497573-1.95729306 1.9497573-5.12270694 0-7.08zm-3.54 5.54c-1.1045695 0-2-.8954305-2-2s.8954305-2 2-2 2 .8954305 2 2c0 .53043298-.2107137 1.03914081-.5857864 1.41421356-.3750728.37507276-.8837806.58578644-1.4142136.58578644z"/><path id="Shape" d="m6.26 46.66-3.8 3.8c-1.95508801 1.955088-1.95508801 5.124912 0 7.08s5.12491199 1.955088 7.08 0l3.8-3.8c-2.7521964-1.9321885-5.14781155-4.3278036-7.08-7.08zm-.26 9.34c-1.1045695 0-2-.8954305-2-2s.8954305-2 2-2 2 .8954305 2 2c-.0032948 1.1032019-.89679813 1.9967052-2 2z"/><path id="Shape" d="m57.54 50.46-3.8-3.8c-1.9321885 2.7521964-4.3278036 5.1478115-7.08 7.08l3.8 3.8c1.955088 1.9550879 5.1249119 1.9550878 7.0799999-.0000001 1.9550879-1.955088 1.955088-5.1249119.0000001-7.0799999zm-3.54 5.54c-1.1045695 0-2-.8954305-2-2s.8954305-2 2-2 2 .8954305 2 2-.8954305 2-2 2z"/></g></g><g id="Outline" fill="#000"><path id="Shape" d="m56.019 14.472 3.228-3.227c2.345001-2.34721019 2.3432102-6.15099895-.004-8.496s-6.150999-2.34321019-8.496.004l-3.222 3.226c-10.0166791-6.63943819-23.0343209-6.63943819-33.051 0l-3.228-3.228c-2.34721019-2.34527719-6.15122281-2.34371019-8.4965.0035-2.34527719 2.34721019-2.34371019 6.15122281.0035 8.4965l3.227 3.223c-6.63943819 10.0166791-6.63943819 23.0343209 0 33.051l-3.229 3.227c-1.51712833 1.5183788-2.10896729 3.7307969-1.55257688 5.803858.55639042 2.073061 2.17648126 3.6918177 4.25 4.2465s4.28544855-.0389792 5.80257688-1.557358l3.225-3.226c10.0177614 6.6406732 23.0372386 6.6406732 33.055 0l3.225 3.227c2.3472102 2.3452772 6.1512228 2.3437102 8.4965-.0035s2.3437102-6.1512228-.0035-8.4965l-3.229-3.219c6.6406732-10.0177614 6.6406732-23.0372386 0-33.055zm-3.856-10.3c1.0117761-1.01249071 2.4868532-1.40829455 3.869584-1.03831604 1.3827307.3699785 2.4630454 1.44953082 2.834 2.83200002.3709546 1.38246921-.0238078 2.85782534-1.035584 3.87031602l-2.988 2.988c-1.6296795-2.1313538-3.5353586-4.03669665-5.667-5.666zm-47.994 5.662c-1.56489884-1.56407041-1.56557041-4.10060116-.0015-5.6655s4.10060116-1.56557041 5.6655-.0015l2.989 2.989c-2.1313277 1.62932689-4.03667311 3.5346723-5.666 5.666zm5.666 48c-1.56407041 1.565175-4.10082502 1.5660704-5.666.002s-1.56607041-4.100825-.002-5.666l2.988-2.989c1.62930335 2.1316414 3.5346462 4.0373205 5.666 5.667zm-6.835-26.834c0-15.463973 12.536027-28 28-28s28 12.536027 28 28-12.536027 28-28 28c-15.4566626-.0176345-27.98236546-12.5433374-28-28zm54.829 21.163c1.0124907 1.0117762 1.4082945 2.4868532 1.038316 3.8695839-.3699785 1.3827308-1.4495308 2.4630455-2.832 2.834-1.3824692.3709546-2.8578253-.0238077-3.870316-1.0355839l-2.987-2.987c2.1313277-1.6293269 4.0366731-3.5346723 5.666-5.666z"/><path id="Shape" d="m31 5c-14.3594035 0-26 11.6405965-26 26s11.6405965 26 26 26 26-11.6405965 26-26c-.016532-14.3525501-11.6474499-25.98346796-26-26zm0 50c-13.254834 0-24-10.745166-24-24s10.745166-24 24-24 24 10.745166 24 24c-.0154295 13.2484376-10.7515624 23.9845705-24 24z"/><path id="Shape" d="m31 21c-5.5228475 0-10 4.4771525-10 10s4.4771525 10 10 10 10-4.4771525 10-10c-.0060624-5.5203344-4.4796656-9.9939376-10-10zm0 18c-4.418278 0-8-3.581722-8-8s3.581722-8 8-8 8 3.581722 8 8c-.0049599 4.4162219-3.5837781 7.9950401-8 8z"/><path id="Shape" d="m7 4c-1.65685425 0-3 1.34314575-3 3s1.34314575 3 3 3 3-1.34314575 3-3c0-.79564947-.31607052-1.55871121-.87867966-2.12132034-.56260913-.56260914-1.32567087-.87867966-2.12132034-.87867966zm0 4c-.55228475 0-1-.44771525-1-1s.44771525-1 1-1 1 .44771525 1 1-.44771525 1-1 1z"/><path id="Shape" d="m55 10c1.6568542 0 3-1.34314575 3-3s-1.3431458-3-3-3-3 1.34314575-3 3 1.3431458 3 3 3zm0-4c.5522847 0 1 .44771525 1 1s-.4477153 1-1 1-1-.44771525-1-1 .4477153-1 1-1z"/><path id="Shape" d="m7 52c-1.65685425 0-3 1.3431458-3 3s1.34314575 3 3 3 3-1.3431458 3-3-1.34314575-3-3-3zm0 4c-.55228475 0-1-.4477153-1-1s.44771525-1 1-1 1 .4477153 1 1-.44771525 1-1 1z"/><path id="Shape" d="m55 58c1.6568542 0 3-1.3431458 3-3s-1.3431458-3-3-3-3 1.3431458-3 3 1.3431458 3 3 3zm0-4c.5522847 0 1 .4477153 1 1s-.4477153 1-1 1-1-.4477153-1-1 .4477153-1 1-1z"/></g></g></g></svg>