<svg height="512" viewBox="0 0 60 60" width="512" xmlns="http://www.w3.org/2000/svg"><g id="Page-1" fill="none" fill-rule="evenodd"><g id="035---Glockenspiel" fill-rule="nonzero"><g id="Color" transform="translate(1 1)"><path id="Rectangle-path" d="m13 24h32v6h-32z" fill="#cfd8dc"/><path id="Shape" d="m11 0h-6c-1.10320187.0032948-1.9967052.89679813-2 2v51c.0032948 1.1032019.89679813 1.9967052 2 2h6c1.1032019-.0032948 1.9967052-.8967981 2-2v-20.17l-1.42-1.42c-1.2893109.0708383-2.47878434-.6929042-2.95092761-1.894745-.47214327-1.2018409-.12057348-2.5709824.87219853-3.3966605.99277198-.8256781 2.40305578-.9218519 3.49872908-.2385945v-23.88c-.0032948-1.10320187-.8967981-1.9967052-2-2zm-3 9c-1.1045695 0-2-.8954305-2-2s.8954305-2 2-2 2 .8954305 2 2c-.0032948 1.10320187-.89679813 1.9967052-2 2z" fill="#00bcd4"/><path id="Shape" d="m9.3 30.54c-.66592685-.6523025-.98631695-1.5798024-.86498473-2.5040511.12133223-.9242487.67025895-1.7376276 1.48198473-2.1959489-1.1055344-.6446471-2.49870916-.5145181-3.46573559.3237158s-1.29361714 2.1988249-.8124444 3.3846786 1.66348386 1.9341918 2.94117999 1.8616056l1.42 1.42v20.17c-.0032948 1.1032019-.89679813 1.9967052-2 2h3c1.1032019-.0032948 1.9967052-.8967981 2-2v-20.17l-1.42-1.42c-.8491236.0473281-1.67824656-.2690477-2.28-.87z" fill="#00838f"/><path id="Shape" d="m11 0h-3c1.10320187.0032948 1.9967052.89679813 2 2v23.789c.9433971-.5122266 2.0893839-.477465 3 .091v-23.88c-.0032948-1.10320187-.8967981-1.9967052-2-2z" fill="#00838f"/><path id="Shape" d="m3 24v6h-1c-1.10320187-.0032948-1.9967052-.8967981-2-2v-2c.0032948-1.1032019.89679813-1.9967052 2-2z" fill="#cfd8dc"/><path id="Shape" d="m25 0h-6c-1.1032019.0032948-1.9967052.89679813-2 2v29.17l10 10v-10.12c-.2600686-.1298939-.4966485-.3022592-.7-.51-1.1698135-1.1712702-1.1698135-3.0687298 0-4.24.2057301-.2076938.441742-.3830169.7-.52v-23.78c-.0032948-1.10320187-.8967981-1.9967052-2-2zm-3 9c-1.1045695 0-2-.8954305-2-2s.8954305-2 2-2 2 .8954305 2 2c-.0032948 1.10320187-.8967981 1.9967052-2 2z" fill="#00bcd4"/><path id="Shape" d="m27 25.78v-23.78c-.0032948-1.10320187-.8967981-1.9967052-2-2h-3c1.1032019.0032948 1.9967052.89679813 2 2v23.78c-.258258.1369831-.4942699.3123062-.7.52-1.1698135 1.1712702-1.1698135 3.0687298 0 4.24.2033515.2077408.4399314.3801061.7.51v7.12l3 3v-10.12c-.2600686-.1298939-.4966485-.3022592-.7-.51-1.1698135-1.1712702-1.1698135-3.0687298 0-4.24.2057301-.2076938.441742-.3830169.7-.52z" fill="#00838f"/><path id="Shape" d="m26.87 46.7c-.2916493.7805821-1.036714 1.2985415-1.87 1.3h-6c-1.1032019-.0032948-1.9967052-.8967981-2-2v-9.17z" fill="#00bcd4"/><path id="Shape" d="m38.17 41h-5.17c-1.1032019-.0032948-1.9967052-.8967981-2-2v-5.17z" fill="#00bcd4"/><path id="Shape" d="m39 0h-6c-1.1032019.0032948-1.9967052.89679813-2 2v24.91c.3020092.5025585.4449348 1.0847187.41 1.67l9.59 9.59v-36.17c-.0032948-1.10320187-.8967981-1.9967052-2-2zm-3 9c-1.1045695 0-2-.8954305-2-2s.8954305-2 2-2 2 .8954305 2 2c-.0032948 1.10320187-.8967981 1.9967052-2 2z" fill="#00bcd4"/><path id="Shape" d="m39 0h-3c1.1032019.0032948 1.9967052.89679813 2 2v33.17l3 3v-36.17c-.0032948-1.10320187-.8967981-1.9967052-2-2z" fill="#00838f"/><path id="Shape" d="m53 0h-6c-1.1032019.0032948-1.9967052.89679813-2 2v30c.0032948 1.1032019.8967981 1.9967052 2 2h6c1.1032019-.0032948 1.9967052-.8967981 2-2v-30c-.0032948-1.10320187-.8967981-1.9967052-2-2zm-3 9c-1.1045695 0-2-.8954305-2-2s.8954305-2 2-2 2 .8954305 2 2c-.0032948 1.10320187-.8967981 1.9967052-2 2z" fill="#00bcd4"/><path id="Shape" d="m53 0h-3c1.1032019.0032948 1.9967052.89679813 2 2v30c-.0032948 1.1032019-.8967981 1.9967052-2 2h3c1.1032019-.0032948 1.9967052-.8967981 2-2v-30c-.0032948-1.10320187-.8967981-1.9967052-2-2z" fill="#00838f"/><g fill="#cfd8dc"><path id="Rectangle-path" d="m27 4h4v6h-4z"/><path id="Shape" d="m58 6v2c-.0032948 1.10320187-.8967981 1.9967052-2 2h-1v-6h1c1.1032019.0032948 1.9967052.89679813 2 2z"/><path id="Rectangle-path" d="m41 4h4v6h-4z"/><path id="Rectangle-path" d="m13 4h4v6h-4z"/><path id="Shape" d="m3 4v6h-1c-1.10320187-.0032948-1.9967052-.89679813-2-2v-2c.0032948-1.10320187.89679813-1.9967052 2-2z"/><path id="Shape" d="m58 26v2c-.0032948 1.1032019-.8967981 1.9967052-2 2h-1v-6h1c1.1032019.0032948 1.9967052.8967981 2 2z"/><path id="Rectangle-path" d="m41 24h4v6h-4z"/><circle id="Oval" cx="8" cy="7" r="2"/><circle id="Oval" cx="22" cy="7" r="2"/><circle id="Oval" cx="36" cy="7" r="2"/><circle id="Oval" cx="50" cy="7" r="2"/></g><path id="Shape" d="m57.41 57.41c-.3712876.3789438-.8794787.5924878-1.41.5924878s-1.0387124-.213544-1.41-.5924878l-16.42-16.41-7.17-7.17-2.42-2.42c-.5499918.0303817-1.0974568-.0943572-1.58-.36-.2600686-.1298939-.4966485-.3022592-.7-.51-1.1698135-1.1712702-1.1698135-3.0687298 0-4.24.2057301-.2076938.441742-.3830169.7-.52 1.165555-.6263024 2.6037941-.4150357 3.54.52.1820569.1799908.3370075.3854688.46.61.3020092.5025585.4449348 1.0847187.41 1.67l9.59 9.59 16.41 16.42c.3789438.3712876.5924878.8794787.5924878 1.41s-.213544 1.0387124-.5924878 1.41z" fill="#ff9801"/><path id="Shape" d="m40.41 57.41c-.3712876.3789438-.8794787.5924878-1.41.5924878s-1.0387124-.213544-1.41-.5924878l-10.72-10.71-9.87-9.87-5.42-5.42c-1.2893109.0708383-2.47878434-.6929042-2.95092761-1.894745-.47214327-1.2018409-.12057348-2.5709824.87219853-3.3966605.99277198-.8256781 2.40305578-.9218519 3.49872908-.2385945.1975503.1158452.3790915.2570439.54.42.6009523.6017534.9173281 1.4308764.87 2.28l12.59 12.59 13.41 13.42c.3789438.3712876.5924878.8794787.5924878 1.41s-.213544 1.0387124-.5924878 1.41z" fill="#ff9801"/></g><g id="Outline" fill="#000"><path id="Shape" d="m57 4v-1c0-1.65685425-1.3431458-3-3-3h-6c-1.6568542 0-3 1.34314575-3 3v1h-2v-1c0-1.65685425-1.3431458-3-3-3h-6c-1.6568542 0-3 1.34314575-3 3v1h-2v-1c0-1.65685425-1.3431458-3-3-3h-6c-1.6568542 0-3 1.34314575-3 3v1h-2v-1c0-1.65685425-1.3431458-3-3-3h-6c-1.65685425 0-3 1.34314575-3 3v1c-1.65685425 0-3 1.34314575-3 3v2c0 1.6568542 1.34314575 3 3 3v12c-1.65685425 0-3 1.3431458-3 3v2c0 1.6568542 1.34314575 3 3 3v22c0 1.6568542 1.34314575 3 3 3h6c1.6568542 0 3-1.3431458 3-3v-17.757l2 2v8.757c0 1.6568542 1.3431458 3 3 3h6c.7351006-.0027771 1.4435964-.2753576 1.991-.766l9.887 9.887c.7556699.768259 1.8653345 1.0721992 2.9070186.7962405 1.041684-.2759588 1.8553323-1.0894153 2.1315366-2.1310343s-.0274743-2.1513552-.7955552-2.9072062l-13.121-13.121v-8.379c.054.006.107.021.161.025l1.839 1.839v4.757c0 1.6568542 1.3431458 3 3 3h4.758l16.121 16.121c.7532234.7798698 1.8686337 1.0926378 2.917522.8180915 1.0488883-.2745464 1.8680231-1.0936812 2.1425695-2.1425695.2745463-1.0488883-.0382217-2.1642986-.8180915-2.917522l-16.121-16.121v-6.758h2v1c0 1.6568542 1.3431458 3 3 3h6c1.6568542 0 3-1.3431458 3-3v-1c1.6568542 0 3-1.3431458 3-3v-2c0-1.6568542-1.3431458-3-3-3v-12c1.6568542 0 3-1.3431458 3-3v-2c0-1.65685425-1.3431458-3-3-3zm-14 8h2v12h-2zm2-6v4h-2v-4zm-16 6h2v13.774c-.6342065-.2535967-1.3209564-.3476814-2-.274zm2-6v4h-2v-4zm-14.6 23.161c-.0598126-.9647442-.4681503-1.8748859-1.149-2.561-.077-.077-.168-.134-.251-.2v-14.4h2v17.757zm.6-23.161v4h-2v-4zm-15 3v-2c0-.55228475.44771525-1 1-1v4c-.55228475 0-1-.44771525-1-1zm0 20v-2c0-.5522847.44771525-1 1-1v4c-.55228475 0-1-.4477153-1-1zm11 25c0 .5522847-.4477153 1-1 1h-6c-.55228475 0-1-.4477153-1-1v-51c0-.55228475.44771525-1 1-1h6c.5522847 0 1 .44771525 1 1v22.514c-1.2405551-.1865002-2.4972535.214904-3.4 1.086-1.10760535 1.107256-1.46458285 2.7603134-.9125951 4.2259583.55198775 1.465645 1.9107451 2.4725263 3.4735951 2.5740417l.839.839zm13-6h-6c-.5522847 0-1-.4477153-1-1v-6.757l7.574 7.574c-.1679719.1185559-.3684039.1824567-.574.183zm15 9c.0007185.2653486-.1047939.5199469-.293.707-.395481.3781625-1.018519.3781625-1.414 0l-26.006-26.007c-.1874927-.1875494-.4418052-.2929434-.707-.293h-.053c-.8254991.0465059-1.5939118-.4217642-1.9309872-1.1767422-.3370755-.7549779-.1727323-1.6396961.4129872-2.2232578.7909621-.756325 2.0370379-.756325 2.828 0 .3995958.4005187.6079183.9533745.572 1.518-.0148679.2832825.0912769.5595498.292.76l26.006 26.008c.1882061.1870531.2937185.4416514.293.707zm-14-17.242-8-8v-28.758c0-.55228475.4477153-1 1-1h6c.5522847 0 1 .44771525 1 1v23.268c-.1427137.0990844-.2780675.20837-.405.327-.8424034.799537-1.2846283 1.9329266-1.2063194 3.0917064.078309 1.1587798.6690031 2.2223659 1.6113194 2.9012936zm7 1.242c-.5522847 0-1-.4477153-1-1v-2.757l3.757 3.757zm24 16c-.0000863.4043959-.2437275.7689341-.6173454.923678-.373618.1547439-.8036603.0692299-1.0896546-.216678l-26.006-26.007c-.1874927-.1875494-.4418052-.2929434-.707-.293h-.053c-.8254991.0465059-1.5939118-.4217642-1.9309872-1.1767422-.3370755-.7549779-.1727323-1.6396961.4129872-2.2232578.7909621-.756325 2.0370379-.756325 2.828 0 .3995958.4005187.6079183.9533745.572 1.518-.0148679.2832825.0912769.5595498.292.76l26.006 26.008c.1882061.1870531.2937185.4416514.293.707zm-24.6-27.839c-.0348593-.5211984-.1707128-1.030649-.4-1.5v-24.661c0-.55228475.4477153-1 1-1h6c.5522847 0 1 .44771525 1 1v33.757zm9.6.839v-4h2v4zm12 3c0 .5522847-.4477153 1-1 1h-6c-.5522847 0-1-.4477153-1-1v-30c0-.55228475.4477153-1 1-1h6c.5522847 0 1 .44771525 1 1zm3-6v2c0 .5522847-.4477153 1-1 1v-4c.5522847 0 1 .4477153 1 1zm0-18c0 .55228475-.4477153 1-1 1v-4c.5522847 0 1 .44771525 1 1z"/><path id="Shape" d="m12 8c0-1.65685425-1.3431458-3-3-3-1.65685425 0-3 1.34314575-3 3s1.34314575 3 3 3c1.6568542 0 3-1.34314575 3-3zm-4 0c0-.55228475.44771525-1 1-1s1 .44771525 1 1-.44771525 1-1 1-1-.44771525-1-1z"/><path id="Shape" d="m23 5c-1.6568542 0-3 1.34314575-3 3s1.3431458 3 3 3 3-1.34314575 3-3-1.3431458-3-3-3zm0 4c-.5522847 0-1-.44771525-1-1s.4477153-1 1-1 1 .44771525 1 1-.4477153 1-1 1z"/><path id="Shape" d="m37 5c-1.6568542 0-3 1.34314575-3 3s1.3431458 3 3 3 3-1.34314575 3-3-1.3431458-3-3-3zm0 4c-.5522847 0-1-.44771525-1-1s.4477153-1 1-1 1 .44771525 1 1-.4477153 1-1 1z"/><path id="Shape" d="m51 5c-1.6568542 0-3 1.34314575-3 3s1.3431458 3 3 3 3-1.34314575 3-3-1.3431458-3-3-3zm0 4c-.5522847 0-1-.44771525-1-1s.4477153-1 1-1 1 .44771525 1 1-.4477153 1-1 1z"/></g></g></g></svg>