<svg height="512" viewBox="0 0 60 60" width="512" xmlns="http://www.w3.org/2000/svg"><g id="Page-1" fill="none" fill-rule="evenodd"><g id="040---Microphone"><g id="Color" transform="translate(1 1)"><path id="Shape" d="m15.49 3.41-6.08 12.96c-1.37825384-.0280319-2.73484255-.3484323-3.98-.94-4.5-2.11-6.62-7.06-4.75-11.06 1.87-4 7.05-5.53 11.55-3.42 1.2481455.58066514 2.3591823 1.41905487 3.26 2.46z" fill="#673ab7" fill-rule="nonzero"/><path id="Shape" d="m12.23.95c-1.7615766-.83765356-3.73505398-1.12381126-5.662-.821.92123835.14835767 1.81723215.42469535 2.662.821 1.2481455.58066514 2.3591823 1.41905487 3.26 2.46l-5.857 12.49c.89714262.2945526 1.83296034.4546223 2.777.475l6.08-12.965c-.9008177-1.04094513-2.0118545-1.87933486-3.26-2.46z" fill="#4527a0" fill-rule="nonzero"/><path id="Shape" d="m22.34 7.66-.1.2-5.1 10.86-.09.2c-.1992945.4125191-.6491789.6415511-1.1.56l-6.07-1.2c-.30000355-.0604891-.55579112-.2550229-.69421427-.5279699-.13842314-.2729471-.1442395-.594252-.01578573-.8720301l.24-.51 6.08-12.96.24-.51c.1307005-.27972427.3832852-.483389.6843602-.55181514s.6168758.00606008.8556398.20181514l4.79 3.91c.3579675.28815145.4734739.78317887.28 1.2z" fill="#ffeb3a" fill-rule="nonzero"/><path id="Shape" d="m22.06 6.46-4.79-3.91c-.238764-.19575506-.5545648-.27024128-.8556398-.20181514s-.5536597.27209087-.6843602.55181514l-.24.51-.046.1 3.616 2.95c.3579675.28815145.4734739.78317887.28 1.2l-.1.2-5.1 10.86-.09.2c-.0316384.0577231-.0691721.1120129-.112.162l2.012.4c.4508211.0815511.9007055-.1474809 1.1-.56l.09-.2 5.1-10.86.1-.2c.1945327-.41734646.0789371-.91358161-.28-1.202z" fill="#fec108" fill-rule="nonzero"/><path id="Shape" d="m30.19 12.12-4.7 9.99-2.75-.91c-.2652442-.0875811-.481397-.2827249-.5955491-.5376646s-.1157675-.5461449-.0044509-.8023354l4.15-8.85c.1200609-.2615038.3469505-.4586162.6226681-.5409486.2757177-.0823323.5735395-.0419046.8173319.1109486z" fill="#3f51b5" fill-rule="nonzero"/><path id="Shape" d="m25.5 22.11h-.01" stroke="#000" stroke-linecap="round" stroke-linejoin="round" stroke-width="2"/><path id="Shape" d="m47.75 24.12-.05.1v.01l-1.7 3.62-.04.1c-.2222499.4568117-.745329.6822035-1.23.53l-3.93-1.31 3.05-6.52 3.53 2.2c.423072.2716143.5809905.8136588.37 1.27z" fill="#3f51b5" fill-rule="nonzero"/><path id="Shape" d="m46.01 27.85h-.01" stroke="#000" stroke-linejoin="round" stroke-width="2"/><g fill-rule="nonzero"><path id="Shape" d="m50.47 27.73c-.470656.998053-1.6573572 1.4307974-2.66.97l-1.8-.85 1.69-3.62v-.01l1.81.85c.9994808.4695829 1.4292331 1.6603549.96 2.66z" fill="#3f51b5"/><path id="Shape" d="m47.7 24.23-1.69 3.62h-.01z" fill="#3f51b5"/><path id="Shape" d="m36.96 28.43c-.7137677 1.5531205-2.0560685 2.7280884-3.69 3.23-1.5326504.418726-3.1712574-.0428534-4.26-1.2-1.2182119-1.3867431-1.7373487-3.2534264-1.41-5.07z" fill="#00bcd4"/><path id="Shape" d="m27.6 25.39c-.0457535.3149632-.0694777.6327346-.071.951l6.431 2.089c-.6648658 1.4218126-1.8526909 2.5322643-3.316 3.1.108.041.214.086.326.117.7520734.2082606 1.5461441.2117131 2.3.01 1.6339315-.5019116 2.9762323-1.6768795 3.69-3.23z" fill="#00838f"/><path id="Shape" d="m44.12 20.08-.27.57-3.05 6.52-.27.57c-.4258367.9165473-1.4685234 1.3713819-2.43 1.06l-1.14-.37-9.36-3.04-1-.33c-.5469931-.1783599-.9913975-.5824619-1.2207997-1.1100871-.2294022-.5276251-.2218306-1.1282385.0207997-1.6499129l.09-.19 4.7-9.99.09-.2c.2439392-.5195873.6993641-.909319 1.2504052-1.0700394.5510411-.1607203 1.1445751-.0769349 1.6295948.2300394l10.22 6.46c.851405.5392844 1.1685371 1.627819.74 2.54z" fill="#00bcd4"/><path id="Shape" d="m43.38 17.54-10.22-6.46c-.8039049-.5029546-1.8505002-.3722346-2.506.313l9.726 6.147c.851405.5392844 1.1685371 1.627819.74 2.54l-.27.57-3.05 6.52-.27.57c-.1279719.2719645-.3160341.5113165-.55.7l1.12.363c.9614766.3113819 2.0041633-.1434527 2.43-1.06l.27-.57 3.05-6.52.27-.57c.4303261-.912957.1129891-2.0034812-.74-2.543z" fill="#00838f"/><path id="Shape" d="m26.34 10.89-.05.12-4.15 8.85-.04.08-4.96-1.22 5.1-10.86z" fill="#3f51b5"/><path id="Shape" d="m33.27 31.66-3.39 14.76h-.01l-5.63-1.71h-.01l4.78-14.25c1.0887426 1.1571466 2.7273496 1.618726 4.26 1.2z" fill="#00bcd4"/><path id="Shape" d="m30.97 31.65c-.7469279-.2166877-1.4231724-.6272647-1.96-1.19l-.439 1.31c.5683914.0753406 1.1460576.0379622 1.7-.11l-3.196 13.911 2.8.849h.01l3.39-14.76c-.7554328.2026219-1.5513537.1991689-2.305-.01z" fill="#00838f"/><path id="Shape" d="m29.88 46.42-.89 3.87h-.01l-6-1.83 1.25-3.75h.01l5.63 1.71z" fill="#ffeb3a"/><path id="Shape" d="m29.87 46.42-5.63-1.71h-.01l-.275.825 2.915.885h.01l-.694 3.018 2.794.852h.01l.89-3.87z" fill="#fdd834"/><path id="Shape" d="m28.99 50.29-1.59 6.93c-.1032213.4577145-.5107957.7821104-.98.78h-5.25c-.3226006.0008335-.6257891-.154014-.8142345-.4158539-.1884454-.26184-.2389991-.598508-.1357655-.9041461l2.76-8.22 6 1.83z" fill="#00bcd4"/><path id="Shape" d="m28.98 50.29-6-1.83-.279.83 3.279 1h.01l-1.59 6.93c-.1032213.4577145-.5107957.7821104-.98.78h3c.4692043.0021104.8767787-.3222855.98-.78l1.59-6.93z" fill="#00838f"/></g></g><g id="Outline" fill="#000" fill-rule="nonzero"><path id="Shape" d="m57.446 30.722c-1.4603137-1.1328208-3.071934-2.0557663-4.788-2.742.0409256-1.1970709-.6362377-2.3031175-1.721-2.811l-1.1-.517c-.0124585-.6738013-.3650892-1.2955152-.937-1.652l-2.783-1.74c.4893299-1.3238297-.0102685-2.8097188-1.2-3.569l-10.228-6.456c-1.2220508-.7828914-2.8315254-.5639182-3.8.517l-1.638-1.026c-.578244-.3749459-1.3133048-.4104579-1.925-.093l-2.913-2.153c.0865123-.6838097-.1851778-1.36397946-.719-1.8l-4.794-3.903c-.7521386-.61923986-1.8429876-.59930599-2.572.047-.7987766-.7213493-1.6994412-1.32111847-2.673-1.78-4.994-2.344-10.769-.594-12.878 3.899s.239 10.057 5.23 12.396c.97486089.4549429 2.01125321.7642434 3.076.918-.02975367.9739129.6521086 1.8252872 1.609 2.009l6.069 1.192c.1275315.024601.2571174.0369903.387.037.5493231-.0022096 1.073325-.2312795 1.448-.633l3.526.868c.0243164.1066775.0577733.211063.1.312.2256188.5265255.6661747.931036 1.21 1.111l1.83.6c-.2115181 1.4344185.6475063 2.8108051 2.029 3.251l.242.079c-.10128 1.6385409.379308 3.2602156 1.357 4.579l-8.613 25.7c-.2052693.6098572-.1045708 1.2812296.2705846 1.8040295.3751555.5227998.9789399.8331633 1.6224154.8339705h5.254c.9333767.003175 1.7436707-.6424826 1.949-1.553l5.744-25.022c1.3748961-.551536 2.535309-1.5316974 3.309-2.795l.362.118c1.3455261.4364063 2.8128635-.1287564 3.518-1.355l3.114 1.033c.6371029.214439 1.3398556.0826729 1.856-.348l1.112.523c.3970571.1864605.8303408.2830872 1.269.283.8734696-.0013921 1.7034065-.3815214 2.275-1.042 1.5351783.6164947 2.9770256 1.4437731 4.284 2.458.9621438.6521218 1.6087119 1.6759754 1.784 2.825.087 1.948-1.791 3.059-2.916 3.546-1.4037917.5384017-2.8630877.919073-4.351 1.135-1.11797.1870125-2.2252009.4333605-3.317.738-1.1145719.3349128-2.1483307.8955321-3.037 1.647-1.42 1.217-2.179 3.115-2.328 5.809-.1671936 2.5239732.2361153 5.0531987 1.18 7.4.7240976 1.7806155 1.9418965 3.3172626 3.51 4.429.2940296.2031055.6740796.2339198.9969889.0808354.3229093-.1530843.5396203-.4668101.5685-.823.0288797-.3561898-.1344593-.7007299-.4284889-.9038354-1.2572842-.8989804-2.2318021-2.1382036-2.809-3.572-.8213995-2.0632528-1.1702712-4.2842772-1.021-6.5.117-2.144.636-3.54 1.63-4.391.6783657-.5718538 1.4665127-.9989369 2.316-1.255 1.0207882-.2820682 2.0555094-.5110419 3.1-.686 1.6353784-.2412111 3.238449-.6655434 4.779-1.265 2.727-1.186 4.227-3.181 4.127-5.482-.1908443-1.7374567-1.1216466-3.3082311-2.554-4.31zm-47.646-14.395c-1.01840569-.0955427-2.01267286-.3661837-2.939-.8-3.997-1.873-5.912-6.24-4.273-9.735s6.225-4.812 10.217-2.938c.9261709.43584747 1.7702136 1.02819969 2.495 1.751zm1.277 1.973 6.559-13.972 4.8 3.907.045.021-.044-.021-5.291 11.265zm12.553-7.913 2.46 1.818-3.551 7.568-2.971-.731zm2.388 6.679 2.182-4.642 1.7 1.069-3.936 8.388-1.911-.634zm.492 27.983 4-11.945c.3728735.21854.7716413.3895365 1.187.509.4171016.1141722.8466559.1766407 1.279.186l-2.833 12.356zm3.185 3.06-.44 1.914-4-1.222.622-1.856zm-7.525 9.891 2.447-7.3 4.189 1.28-1.382 6.02zm11.835-26.31c-1.1775941.3298045-2.4406805-.0282631-3.27-.927-.7533966-.8310949-1.1825441-1.9055611-1.209-3.027l6.916 2.249c-.6016002.8220216-1.4585732 1.4215862-2.437 1.705zm5.4-2.845-11.5-3.74c-.273542-.0878323-.4960939-.2890716-.6109267-.5524215s-.1108524-.5633678.0109267-.8235785l4.873-10.382c.1197711-.2609921.3477811-.4564815.624-.535.0922034-.0272483.1878546-.041057.284-.041.1878317.0000765.3717256.0538567.53.155l10.227 6.456c.4265964.2694077.5856794.8144064.371 1.271l-3.6 7.666c-.2138683.4528261-.7297159.677628-1.207.526zm3.773-1.27 2.1-4.477 2.562 1.6-.047.1-1.7 3.62v.011l-.045.1zm6.057 1.215-.905-.425.425-.9.425-.905.905.424c.4843449.2233666.7025527.7919488.492 1.282v.012c0 .01 0 .022-.008.032-.1127444.2405019-.3165391.4262679-.5664262.5163173s-.5253332.0769828-.7655738-.0363173z"/><circle id="Oval" cx="8" cy="5" r="1"/><circle id="Oval" cx="5" cy="7" r="1"/><circle id="Oval" cx="10" cy="8" r="1"/><circle id="Oval" cx="12" cy="5" r="1"/></g></g></g></svg>