<?xml version="1.0" encoding="iso-8859-1"?>
<!-- Generator: Adobe Illustrator 19.0.0, SVG Export Plug-In . SVG Version: 6.00 Build 0)  -->
<svg version="1.1" id="Capa_1" xmlns="http://www.w3.org/2000/svg" xmlns:xlink="http://www.w3.org/1999/xlink" x="0px" y="0px"
	 viewBox="0 0 512 512" style="enable-background:new 0 0 512 512;" xml:space="preserve">
<g>
	<g transform="translate(1 1)">
		<path style="fill:#CFD8DC;" d="M425.667,101.4v392.533c-0.014,4.707-3.826,8.52-8.533,8.533H92.867
			c-4.707-0.014-8.52-3.826-8.533-8.533V16.067c0.014-4.707,3.826-8.52,8.533-8.533H331.8L425.667,101.4z"/>
		<path style="fill:#F4F4F4;" d="M400.067,101.4v392.533c-0.014,4.707-3.826,8.52-8.533,8.533H92.867
			c-4.707-0.014-8.52-3.826-8.533-8.533V16.067c0.014-4.707,3.826-8.52,8.533-8.533H306.2L400.067,101.4z"/>
		<path style="fill:#CFD8DC;" d="M425.667,101.4h-85.333c-4.707-0.014-8.52-3.826-8.533-8.533V7.533L425.667,101.4z"/>
		<g>
			<path style="fill:#FFE0B2;" d="M348.867,195.267V229.4c0,23.564-19.103,42.667-42.667,42.667s-42.667-19.103-42.667-42.667
				v-34.133c0-15.243,8.132-29.329,21.333-36.95c13.201-7.622,29.466-7.622,42.667,0S348.867,180.023,348.867,195.267z"/>
			<path style="fill:#FFE0B2;" d="M316.355,327.96c-0.963,4.058-1.507,8.204-1.621,12.373c-8.256,5.577-15.573,12.433-21.675,20.309
				l-18.944-12.885l-7.083-4.778l-3.413,7.765l-2.731,6.144c-1.38,4.227-4.39,7.729-8.363,9.728
				c-4.542,2.347-9.897,2.535-14.592,0.512l-4.523,6.911l-4.267,6.656c-4.076,6.359-11.951,9.136-19.115,6.741l-20.821-7.169
				c-11.053-3.823-20.415-11.402-26.453-21.419L130.669,306.2c0,0-8.277-25.6,0-42.667c4.531-9.842,14.103-16.398,24.917-17.067
				c-0.044-9.212,2.889-18.191,8.363-25.6c8.277-8.533,33.195-8.533,33.195-8.533s8.363-25.6,24.917-34.133
				c12.885-6.656,35.925-2.988,45.483-0.939c-2.64,5.635-4.009,11.782-4.011,18.005V229.4c0.005,11.194,4.384,21.942,12.203,29.952
				l11.861,41.643c0.994,3.405,3.022,6.416,5.803,8.618L316.355,327.96z"/>
			<path style="fill:#FFE0B2;" d="M383,274.115v68.267c0.008,9.22-4.948,17.73-12.971,22.272
				c-19.285,10.923-46.251,31.147-59.477,40.533c-3.01,2.125-7.049,2.056-9.984-0.171c-8.96-6.57-23.723-22.016-7.509-44.373
				c6.102-7.877,13.418-14.732,21.675-20.309c0.115-4.169,0.658-8.315,1.621-12.373L293.4,309.612
				c-2.781-2.201-4.809-5.213-5.803-8.618l-11.861-41.643c12.166,12.329,30.572,16.092,46.601,9.527s26.507-22.158,26.53-39.479
				v-8.533l26.624,35.157C380.282,260.828,382.981,267.33,383,274.115z"/>
		</g>
		<path style="fill:#CFD8DC;" d="M425.667,451.267v42.667c-0.014,4.707-3.826,8.52-8.533,8.533H92.867
			c-4.707-0.014-8.52-3.826-8.533-8.533v-42.667H425.667z"/>
	</g>
	<g>
		<path d="M432.689,96.356L338.844,2.51c-1.608-1.597-3.778-2.498-6.044-2.51H93.867C84.446,0.012,76.812,7.646,76.8,17.067v477.867
			c0.012,9.421,7.646,17.054,17.067,17.067h324.267c9.421-0.012,17.054-7.646,17.067-17.067V102.4
			C435.188,100.134,434.286,97.964,432.689,96.356z M341.333,29.133l64.733,64.733h-64.733V29.133z M324.267,17.067v76.8
			c0.012,9.421,7.646,17.054,17.067,17.067h76.8l0.015,332.8H93.867V17.067H324.267z M93.867,494.933V460.8H418.15v34.133H93.867z"
			/>
		<path d="M124.408,311.642l32.075,52.658c7.083,11.691,18.022,20.544,30.933,25.033l20.917,7.192
			c2.549,0.856,5.22,1.292,7.908,1.292c8.512-0.012,16.441-4.327,21.075-11.467l5.581-8.598c4.55,0.751,9.221,0.063,13.36-1.969
			c6.271-2.772,11.13-7.995,13.442-14.45l2.001-4.534l10.847,7.354c-2.716,5.163-4.191,10.889-4.307,16.722
			c0.516,13.011,7.33,24.958,18.267,32.025c5.911,4.379,13.964,4.473,19.975,0.233c2.85-2.008,6.342-4.533,10.25-7.35
			c14.225-10.275,33.717-24.35,48.467-32.675c10.71-6.05,17.334-17.399,17.333-29.7v-68.275c-0.026-8.829-3.448-17.31-9.558-23.683
			L358.4,219.005v-22.739c0.02-22.75-14.986-42.779-36.825-49.152c-21.839-6.373-45.262,2.442-57.481,21.632
			c-12.112-2.057-31.86-3.876-44.902,2.861c-12.427,7.856-21.915,19.594-26.992,33.392c-9.217,0.575-25.45,2.767-33.375,10.908
			c-5.821,6.841-9.387,15.314-10.209,24.258c-10.857,2.883-19.871,10.444-24.6,20.634c-9.7,19.933-0.825,47.858-0.442,49.033
			C123.781,310.467,124.06,311.074,124.408,311.642z M370.467,263.067c3.189,3.208,4.986,7.543,5,12.067v68.275
			c0.006,6.141-3.296,11.81-8.642,14.833c-15.592,8.8-35.525,23.192-50.083,33.7c-3.85,2.783-7.283,5.258-10.108,7.217
			c-6.415-3.94-10.608-10.664-11.325-18.158c0.075-9.6,8.85-20.908,25.383-32.725c2.243-1.6,3.575-4.186,3.575-6.942
			c0.107-3.335,0.52-6.653,1.232-9.913c0.044-0.146,0.063-0.285,0.099-0.432c1.438-10.765,8.445-19.974,18.436-24.23
			c2.898-0.959,5.062-3.394,5.676-6.384c0.613-2.99-0.418-6.08-2.704-8.103c-2.286-2.023-5.479-2.67-8.372-1.697
			c-11.573,3.981-20.856,12.777-25.454,24.119l-13.471-10.769c-1.388-1.096-2.392-2.604-2.867-4.308l-5.923-20.715
			c13.226,4.482,27.712,3.347,40.079-3.141c12.367-6.487,21.534-17.76,25.365-31.189l13.339,17.613
			C369.933,262.497,370.189,262.792,370.467,263.067L370.467,263.067z M307.2,162.133c18.844,0.019,34.115,15.29,34.133,34.133
			V230.4c0,18.851-15.282,34.133-34.133,34.133s-34.133-15.282-34.133-34.133v-34.133
			C273.086,177.423,288.357,162.152,307.2,162.133z M139.366,268.267c3.108-6.908,9.705-11.599,17.25-12.267
			c4.698-0.012,8.508-3.81,8.533-8.508c-0.091-7.007,1.968-13.874,5.9-19.675c3.758-3.858,18.167-5.933,27.125-5.95
			c3.686-0.009,6.952-2.38,8.1-5.883c2.042-6.208,9.733-23.55,20.733-29.2c9.762-3.251,20.208-3.874,30.288-1.807
			c-0.851,3.704-1.285,7.491-1.296,11.291V230.4c0.004,12.542,4.635,24.641,13.006,33.98l11.428,39.936
			c1.452,5.114,4.472,9.643,8.633,12.95l18.935,15.135c-0.25,1.648-0.436,3.169-0.552,4.431c-5.379,4.017-10.38,8.516-14.942,13.442
			l-44.65-30.266c-1.349-0.917-2.408-2.201-3.05-3.7l-23.633-55.133c-1.864-4.316-6.868-6.31-11.19-4.459
			c-4.321,1.851-6.331,6.849-4.494,11.176l23.625,55.125c1.926,4.511,5.108,8.372,9.167,11.125l19.074,12.933l-3.558,8.117
			c-1.413,4.266-5.937,6.66-10.259,5.429c-0.307-0.144-0.623-0.268-0.945-0.373l-20.521-14.731
			c-2.898-1.996-5.927-3.795-9.067-5.383c-9.933-5.979-16.956-15.794-19.408-27.125l-6.108-24.908
			c-1.126-4.575-5.747-7.373-10.323-6.251c-4.576,1.122-7.378,5.74-6.26,10.317l6.108,24.908
			c3.586,15.935,13.607,29.675,27.683,37.958c0.042,0.025,0.75,0.408,0.792,0.425c2.289,1.165,4.501,2.473,6.625,3.917l15.249,10.95
			L223,377.05c-1.927,3.095-5.724,4.466-9.183,3.317l-20.867-7.175c-9.146-3.197-16.889-9.487-21.892-17.783l-31.533-51.75
			C135.735,292.174,135.679,279.785,139.366,268.267z"/>
		<path d="M296.142,227.925c2.987-3.093,6.843-5.206,11.058-6.059c4.204,0.848,8.051,2.952,11.034,6.033
			c2.149,2.188,5.307,3.055,8.271,2.27c2.965-0.785,5.28-3.1,6.065-6.065s-0.082-6.122-2.27-8.271
			c-6.166-6.275-14.344-10.181-23.1-11.034c-8.756,0.853-16.933,4.759-23.1,11.034c-3.31,3.33-3.307,8.709,0.006,12.035
			S292.798,231.221,296.142,227.925z"/>
	</g>
</g>
<g>
</g>
<g>
</g>
<g>
</g>
<g>
</g>
<g>
</g>
<g>
</g>
<g>
</g>
<g>
</g>
<g>
</g>
<g>
</g>
<g>
</g>
<g>
</g>
<g>
</g>
<g>
</g>
<g>
</g>
</svg>
