<?xml version="1.0" encoding="iso-8859-1"?>
<!-- Generator: Adobe Illustrator 19.0.0, SVG Export Plug-In . SVG Version: 6.00 Build 0)  -->
<svg version="1.1" id="Capa_1" xmlns="http://www.w3.org/2000/svg" xmlns:xlink="http://www.w3.org/1999/xlink" x="0px" y="0px"
	 viewBox="0 0 512.041 512.041" style="enable-background:new 0 0 512.041 512.041;" xml:space="preserve">
<g transform="translate(0 -1)">
	<g transform="translate(0 1)">
		<polygon style="fill:#795548;" points="467.519,95.541 332.351,229.941 309.055,194.016 428.351,74.72 		"/>
		<polygon style="fill:#9E9E9E;" points="352.618,338.784 281.621,225.717 230.421,226.229 159.594,338.869 99.946,337.504 
			225.898,137.141 230.421,129.973 281.621,129.547 286.399,137.141 412.437,337.675 		"/>
		<path style="fill:#795548;" d="M247.487,8.544h17.067c9.426,0,17.067,7.641,17.067,17.067v366.933h-51.2V25.611
			C230.421,16.185,238.062,8.544,247.487,8.544z"/>
		<path style="fill:#9E9E9E;" d="M54.122,375.477H25.621c-9.426,0-17.067,7.641-17.067,17.067v51.2
			c0,9.426,7.641,17.067,17.067,17.067h460.8c9.426,0,17.067-7.641,17.067-17.067v-51.2c0-9.426-7.641-17.067-17.067-17.067H54.122z
			"/>
		<g>
			<circle style="fill:#795548;" cx="128.021" cy="418.144" r="85.333"/>
			<circle style="fill:#795548;" cx="384.021" cy="418.144" r="85.333"/>
		</g>
		<path style="fill:#9E9E9E;" d="M488.491,26.646L470.389,8.544l-72.408,72.408l18.102,18.102
			c19.998,19.975,52.4,19.966,72.387-0.021C508.457,79.046,508.466,46.644,488.491,26.646L488.491,26.646z"/>
		<path style="fill:#607D8B;" d="M118.549,48.907l-2.56,1.45c4.64,24.803-9.486,49.287-33.28,57.685v2.902
			c-0.014,4.707-3.826,8.52-8.533,8.533H57.109c-4.707-0.014-8.52-3.826-8.533-8.533v-2.902
			c-23.642-8.573-37.662-32.937-33.195-57.685l-2.56-1.45c-4.073-2.378-5.479-7.586-3.157-11.691l8.533-14.763
			c1.138-1.963,3.011-3.392,5.206-3.969c2.195-0.577,4.529-0.254,6.485,0.897l2.56,1.45c16.492-14.102,40.077-16.289,58.88-5.46
			c2.727,1.573,5.298,3.402,7.68,5.46l2.475-1.45c1.968-1.136,4.307-1.442,6.501-0.849c2.194,0.592,4.061,2.034,5.19,4.007
			l8.533,14.763c1.121,1.957,1.418,4.28,0.826,6.457S120.507,47.787,118.549,48.907z"/>
	</g>
	<g>
		<path d="M176.292,419.144l6.033-6.033c2.156-2.156,2.997-5.297,2.208-8.242s-3.089-5.244-6.033-6.033
			c-2.944-0.789-6.086,0.053-8.242,2.208l-6.032,6.033l-24.139-24.14l6.034-6.034c2.156-2.156,2.997-5.297,2.208-8.242
			c-0.789-2.945-3.089-5.245-6.033-6.034s-6.086,0.053-8.242,2.208l-6.033,6.033l-6.033-6.033c-3.332-3.332-8.735-3.332-12.067,0
			c-3.332,3.332-3.332,8.735,0,12.067l6.034,6.034l-24.139,24.141l-6.032-6.033c-2.155-2.156-5.297-2.997-8.242-2.208
			c-2.944,0.789-5.244,3.089-6.033,6.033c-0.789,2.944,0.053,6.086,2.208,8.242l6.033,6.033l-6.033,6.033
			c-3.332,3.332-3.332,8.735,0,12.067c3.332,3.332,8.735,3.332,12.067,0l6.032-6.033l24.139,24.141l-6.034,6.034
			c-2.155,2.156-2.997,5.297-2.208,8.242c0.789,2.944,3.089,5.244,6.033,6.033c2.944,0.789,6.086-0.053,8.242-2.208l6.033-6.033
			l6.033,6.033c2.156,2.155,5.297,2.997,8.242,2.208c2.944-0.789,5.244-3.089,6.033-6.033c0.789-2.944-0.053-6.086-2.208-8.242
			l-6.034-6.035l24.139-24.141l6.032,6.033c2.151,2.178,5.304,3.037,8.262,2.251c2.958-0.786,5.269-3.097,6.055-6.055
			s-0.073-6.111-2.251-8.262L176.292,419.144z M128.021,443.285l-24.139-24.141l24.139-24.141l24.139,24.141L128.021,443.285z"/>
		<path d="M432.292,419.144l6.033-6.033c3.332-3.332,3.332-8.735,0-12.067c-3.332-3.332-8.735-3.332-12.067,0l-6.032,6.033
			l-24.139-24.14l6.034-6.034c2.156-2.156,2.997-5.297,2.208-8.242c-0.789-2.945-3.089-5.245-6.033-6.034s-6.086,0.053-8.242,2.208
			l-6.033,6.033l-6.033-6.033c-3.332-3.332-8.735-3.332-12.067,0c-3.332,3.332-3.332,8.735,0,12.067l6.034,6.034l-24.139,24.141
			l-6.032-6.033c-3.332-3.332-8.735-3.332-12.067,0c-3.332,3.332-3.332,8.735,0,12.067l6.033,6.033l-6.033,6.033
			c-2.156,2.156-2.997,5.297-2.208,8.242c0.789,2.944,3.089,5.244,6.033,6.033c2.944,0.789,6.086-0.053,8.242-2.208l6.032-6.033
			l24.139,24.141l-6.034,6.034c-3.332,3.332-3.332,8.735,0,12.067s8.735,3.332,12.067,0l6.033-6.033l6.033,6.033
			c3.332,3.332,8.735,3.332,12.067,0c3.332-3.332,3.332-8.735,0-12.067l-6.034-6.035l24.139-24.141l6.032,6.033
			c3.338,3.296,8.711,3.28,12.029-0.038c3.317-3.317,3.334-8.69,0.038-12.029L432.292,419.144z M384.021,443.285l-24.139-24.141
			l24.139-24.141l24.139,24.141L384.021,443.285z"/>
		<path d="M494.652,105.946c23.208-23.342,23.151-61.063-0.127-84.335l-18.104-18.1c-1.6-1.601-3.77-2.5-6.033-2.5
			c-2.263,0-4.434,0.899-6.033,2.5L391.95,75.919c-1.601,1.6-2.5,3.77-2.5,6.033s0.899,4.433,2.5,6.033l6.035,6.035l-79.36,79.36
			l-28.471-45.297V26.611c-0.015-14.132-11.468-25.585-25.6-25.6h-17.067c-14.132,0.015-25.585,11.468-25.6,25.6v101.91
			L94.165,331.664c-18.395,7.05-34.081,19.752-44.801,36.28H25.621c-14.132,0.015-25.585,11.468-25.6,25.6v51.2
			c0.015,14.132,11.468,25.585,25.6,25.6h23.743c17.301,26.629,46.901,42.697,78.657,42.697s61.356-16.068,78.657-42.697h98.686
			c17.301,26.629,46.901,42.697,78.657,42.697s61.356-16.068,78.657-42.697h23.743c14.132-0.015,25.585-11.468,25.6-25.6v-51.2
			c-0.015-14.132-11.468-25.585-25.6-25.6h-23.743c-2.757-4.172-5.843-8.116-9.229-11.796L494.652,105.946z M418.174,331.767
			l-67.365-107.179l101.73-101.015c7.775-0.016,15.473-1.554,22.658-4.525l-36.836,223.677
			C432.11,338.253,425.329,334.572,418.174,331.767z M470.387,21.611l12.071,12.067c10.779,10.779,14.989,26.49,11.043,41.214
			c-3.945,14.724-15.446,26.225-30.171,30.171s-30.435-0.264-41.214-11.043L410.05,81.952L470.387,21.611z M410.052,106.088
			c6.187,6.18,13.66,10.92,21.889,13.881l-90.442,89.806L327.939,188.2L410.052,106.088z M394.351,325.939
			c-12.81-1.413-25.774-0.188-38.094,3.597l-66.104-105.275v-64.103L394.351,325.939z M317.645,352.769
			c-4.61,4.618-8.726,9.703-12.281,15.175h-15.21V256.357l50.079,79.754C331.909,340.496,324.294,346.112,317.645,352.769
			L317.645,352.769z M238.954,26.611c0.005-4.711,3.822-8.529,8.533-8.533h17.067c4.711,0.005,8.529,3.822,8.533,8.533v341.333
			h-34.133V26.611z M206.677,367.944c-8.674-13.362-20.619-24.285-34.701-31.733l49.91-79.379v111.113H206.677z M221.887,160.58
			v64.188l-65.917,104.835c-12.29-3.812-25.229-5.071-38.022-3.7L221.887,160.58z M25.621,453.277
			c-4.711-0.005-8.529-3.822-8.533-8.533v-51.2c0.005-4.711,3.822-8.529,8.533-8.533H40.64c-8.519,21.958-8.519,46.308,0,68.267
			H25.621z M73.712,473.453c-29.994-29.994-29.994-78.623,0-108.617s78.623-29.994,108.617,0c29.994,29.994,29.994,78.623,0,108.617
			C152.314,503.394,103.727,503.394,73.712,473.453z M215.402,453.277c8.519-21.958,8.519-46.308,0-68.267h81.238
			c-8.519,21.958-8.519,46.308,0,68.267H215.402z M329.712,473.453c-29.994-29.994-29.994-78.623,0-108.617
			c29.994-29.994,78.623-29.994,108.617,0s29.994,78.623,0,108.617C408.314,503.394,359.727,503.394,329.712,473.453
			L329.712,473.453z M486.421,385.011c4.711,0.005,8.529,3.822,8.533,8.533v51.2c-0.005,4.711-3.822,8.529-8.533,8.533h-15.019
			c8.519-21.958,8.519-46.308,0-68.267H486.421z"/>
		<path d="M95.583,8.969C75.493-2.584,50.54-1.503,31.525,11.744c-7.796-2.859-16.521,0.275-20.717,7.442l-8.583,14.85
			C-1.793,41.25-0.133,50.3,6.183,55.619c-2.021,23.078,9.523,45.234,29.596,56.8c1.538,0.883,3.033,1.683,4.504,2.392
			c1.408,8.196,8.509,14.189,16.825,14.2h17.067c8.293-0.012,15.383-5.973,16.817-14.142c22.673-10.623,36.322-34.252,34.196-59.2
			c2.725-2.234,4.678-5.269,5.583-8.675c1.177-4.371,0.573-9.031-1.679-12.958l-8.55-14.8c-4.173-7.144-12.845-10.3-20.634-7.508
			C98.5,10.744,97.062,9.827,95.583,8.969z M114.362,42.478l4.188,7.433l-4.2-7.425L114.362,42.478z M105.783,27.802l8.488,14.725
			l-2.487,1.408c-3.187,1.803-4.867,5.438-4.175,9.033c3.837,20.65-7.923,41.022-27.725,48.025c-3.42,1.198-5.709,4.426-5.709,8.05
			v2.9H57.107v-2.9c0.002-3.617-2.28-6.841-5.692-8.042c-2.472-0.905-4.855-2.035-7.121-3.375
			c-15.647-9.015-23.883-26.939-20.533-44.683c0.678-3.587-1-7.207-4.175-9.008l-2.537-1.45l8.629-14.683l2.558,1.45
			c3.135,1.77,7.043,1.387,9.775-0.958c13.739-11.753,33.394-13.569,49.054-4.534c2.272,1.315,4.414,2.841,6.4,4.558
			c2.763,2.361,6.718,2.712,9.854,0.875L105.783,27.802z"/>
	</g>
</g>
<g>
</g>
<g>
</g>
<g>
</g>
<g>
</g>
<g>
</g>
<g>
</g>
<g>
</g>
<g>
</g>
<g>
</g>
<g>
</g>
<g>
</g>
<g>
</g>
<g>
</g>
<g>
</g>
<g>
</g>
</svg>
