<?xml version="1.0" encoding="iso-8859-1"?>
<!-- Generator: Adobe Illustrator 19.0.0, SVG Export Plug-In . SVG Version: 6.00 Build 0)  -->
<svg version="1.1" id="Capa_1" xmlns="http://www.w3.org/2000/svg" xmlns:xlink="http://www.w3.org/1999/xlink" x="0px" y="0px"
	 viewBox="0 0 512 512" style="enable-background:new 0 0 512 512;" xml:space="preserve">
<g>
	<g transform="translate(1 1)">
		<circle style="fill:#F44335;" cx="255" cy="255" r="42.667"/>
		<path style="fill:#F44335;" d="M53.546,388.208c-6.306,0.009-12.102-3.462-15.071-9.025c-41.256-77.649-41.256-170.717,0-248.367
			c4.465-8.267,14.772-11.371,23.059-6.944c8.287,4.427,11.438,14.72,7.049,23.027c-35.889,67.599-35.889,148.602,0,216.2
			c2.821,5.287,2.663,11.667-0.416,16.808C65.088,385.049,59.539,388.2,53.546,388.208L53.546,388.208z"/>
		<path style="fill:#F44335;" d="M255,502.467c-43.304,0.015-85.949-10.61-124.183-30.942c-8.284-4.457-11.399-14.778-6.964-23.074
			c4.435-8.296,14.747-11.439,23.055-7.026c67.595,35.878,148.588,35.878,216.183,0c8.308-4.413,18.62-1.27,23.055,7.026
			c4.435,8.296,1.32,18.617-6.964,23.074C340.949,491.857,298.304,502.482,255,502.467z"/>
		<path style="fill:#F44335;" d="M456.454,388.208c-5.993-0.009-11.542-3.159-14.622-8.3c-3.079-5.141-3.237-11.521-0.416-16.808
			c35.889-67.599,35.889-148.602,0-216.2c-4.412-8.31-1.266-18.624,7.033-23.057c8.299-4.433,18.621-1.314,23.075,6.974
			c41.256,77.649,41.256,170.717,0,248.367C468.553,384.743,462.759,388.213,456.454,388.208z"/>
		<path style="fill:#F44335;" d="M371.121,70.592c-2.802,0.003-5.561-0.69-8.029-2.017c-67.595-35.878-148.588-35.878-216.183,0
			c-8.307,4.408-18.615,1.265-23.049-7.029s-1.322-18.611,6.958-23.071c77.649-41.256,170.717-41.256,248.367,0
			c6.905,3.693,10.412,11.611,8.505,19.205S378.952,70.599,371.121,70.592L371.121,70.592z"/>
	</g>
	<path d="M464.905,115.358c-9.909-3.004-20.651,0.255-27.22,8.259s-7.671,19.175-2.792,28.308
		c15.651,29.503,24.419,62.167,25.646,95.542h-42.405v-51.2c0-4.713-3.821-8.533-8.533-8.533s-8.533,3.821-8.533,8.533v51.2h-51.2
		v-25.6c0-4.713-3.82-8.533-8.533-8.533s-8.533,3.821-8.533,8.533v25.6h-34.996c-3.45-16.74-16.531-29.82-33.271-33.271V179.2h25.6
		c4.713,0,8.533-3.821,8.533-8.533c0-4.713-3.821-8.533-8.533-8.533h-25.6v-51.2h51.2c4.713,0,8.533-3.821,8.533-8.533
		c0-4.713-3.82-8.533-8.533-8.533h-51.2V51.463c33.368,1.226,66.025,9.988,95.525,25.629c8.067,4.352,17.846,4.057,25.637-0.772
		c7.791-4.829,12.405-13.455,12.097-22.616s-5.491-17.458-13.588-21.753c-80.161-42.6-176.247-42.6-256.408,0
		c-8.092,4.296-13.271,12.59-13.579,21.747c-0.308,9.157,4.301,17.78,12.086,22.611c7.785,4.831,17.558,5.133,25.627,0.791
		c29.503-15.646,62.165-24.411,95.538-25.638v42.404h-51.2c-4.713,0-8.533,3.821-8.533,8.533c0,4.713,3.821,8.533,8.533,8.533h51.2
		v51.2h-25.6c-4.713,0-8.533,3.821-8.533,8.533c0,4.713,3.82,8.533,8.533,8.533h25.6v34.996c-16.74,3.45-29.82,16.531-33.271,33.271
		H179.2v-25.6c0-4.713-3.82-8.533-8.533-8.533s-8.533,3.821-8.533,8.533v25.6h-51.2v-51.2c0-4.713-3.821-8.533-8.533-8.533
		c-4.713,0-8.533,3.821-8.533,8.533v51.2H51.462c1.227-33.375,9.995-66.039,25.646-95.542c6.664-12.47,1.958-27.982-10.513-34.646
		s-27.982-1.958-34.646,10.513c-42.599,80.161-42.6,176.246-0.004,256.408c6.662,12.471,22.172,17.181,34.644,10.519
		c12.471-6.662,17.181-22.172,10.519-34.644c-15.651-29.503-24.419-62.167-25.646-95.542h42.405v51.2
		c0,4.713,3.821,8.533,8.533,8.533c4.713,0,8.533-3.82,8.533-8.533v-51.2h51.2v25.6c0,4.713,3.821,8.533,8.533,8.533
		s8.533-3.821,8.533-8.533v-25.6h34.996c3.45,16.74,16.531,29.82,33.271,33.271V332.8h-25.6c-4.713,0-8.533,3.82-8.533,8.533
		s3.82,8.533,8.533,8.533h25.6v51.2h-51.2c-4.713,0-8.533,3.82-8.533,8.533s3.821,8.533,8.533,8.533h51.2v42.404
		c-33.368-1.226-66.025-9.988-95.525-25.629c-8.067-4.352-17.846-4.057-25.637,0.772c-7.791,4.829-12.405,13.455-12.097,22.616
		c0.308,9.161,5.491,17.458,13.588,21.753c80.161,42.6,176.247,42.6,256.408,0c12.425-6.686,17.096-22.165,10.445-34.608
		c-6.651-12.443-22.117-17.158-34.579-10.542c-29.503,15.646-62.165,24.411-95.537,25.638v-42.404h51.2
		c4.713,0,8.533-3.82,8.533-8.533s-3.82-8.533-8.533-8.533h-51.2v-51.2h25.6c4.713,0,8.533-3.82,8.533-8.533
		s-3.821-8.533-8.533-8.533h-25.6v-34.996c16.74-3.45,29.82-16.531,33.271-33.271H332.8v25.6c0,4.713,3.82,8.533,8.533,8.533
		s8.533-3.821,8.533-8.533v-25.6h51.2v51.2c0,4.713,3.82,8.533,8.533,8.533s8.533-3.82,8.533-8.533v-51.2h42.405
		c-1.227,33.375-9.995,66.039-25.646,95.542c-6.664,12.47-1.958,27.982,10.513,34.646c12.47,6.664,27.982,1.958,34.646-10.513
		c42.599-80.161,42.6-176.246,0.004-256.408C476.873,121.793,471.416,117.311,464.905,115.358z M143.879,62.05
		c-4.154,2.205-9.309,0.633-11.526-3.515s-0.658-9.308,3.484-11.535c75.137-39.911,165.188-39.911,240.325,0
		c1.996,1.067,3.486,2.884,4.142,5.05c0.656,2.166,0.423,4.505-0.646,6.5c-2.275,4.089-7.383,5.637-11.546,3.5
		C298.002,24.828,213.99,24.828,143.879,62.05L143.879,62.05z M62.696,374.617c-0.651,2.17-2.144,3.988-4.146,5.05
		c-4.167,2.129-9.271,0.579-11.55-3.508C7.089,301.024,7.089,210.976,47,135.842c1.068-2.007,2.894-3.504,5.071-4.158
		c0.8-0.241,1.631-0.364,2.467-0.367c2.997,0.006,5.771,1.582,7.311,4.153c1.54,2.571,1.619,5.761,0.21,8.406
		c-37.233,70.113-37.233,154.137,0,224.25C63.129,370.117,63.359,372.454,62.696,374.617z M368.104,449.958
		c1.997-1.069,4.336-1.3,6.504-0.644c2.168,0.656,3.986,2.147,5.054,4.144c1.066,1.995,1.297,4.331,0.64,6.496
		c-0.656,2.164-2.146,3.98-4.14,5.046c-75.137,39.911-165.188,39.911-240.325,0c-3.043-1.632-4.804-4.937-4.461-8.373
		s2.722-6.328,6.028-7.327c0.802-0.241,1.634-0.364,2.471-0.367c1.401,0.002,2.78,0.351,4.013,1.017
		C213.992,487.169,297.997,487.172,368.104,449.958L368.104,449.958z M256,281.6c-14.138,0-25.6-11.462-25.6-25.6
		s11.462-25.6,25.6-25.6s25.6,11.462,25.6,25.6C281.585,270.132,270.132,281.585,256,281.6z M465,376.158
		c-2.272,4.095-7.384,5.648-11.55,3.508c-4.155-2.219-5.726-7.386-3.508-11.542c37.233-70.113,37.233-154.137,0-224.25
		c-1.435-2.69-1.326-5.941,0.286-8.529c1.612-2.588,4.482-4.119,7.529-4.017c3.047,0.102,5.808,1.822,7.243,4.512
		C504.911,210.976,504.911,301.024,465,376.158z"/>
</g>
<g>
</g>
<g>
</g>
<g>
</g>
<g>
</g>
<g>
</g>
<g>
</g>
<g>
</g>
<g>
</g>
<g>
</g>
<g>
</g>
<g>
</g>
<g>
</g>
<g>
</g>
<g>
</g>
<g>
</g>
</svg>
