<?xml version="1.0" encoding="iso-8859-1"?>
<!-- Generator: Adobe Illustrator 19.0.0, SVG Export Plug-In . SVG Version: 6.00 Build 0)  -->
<svg version="1.1" id="Capa_1" xmlns="http://www.w3.org/2000/svg" xmlns:xlink="http://www.w3.org/1999/xlink" x="0px" y="0px"
	 viewBox="0 0 512.004 512.004" style="enable-background:new 0 0 512.004 512.004;" xml:space="preserve">
<g transform="translate(0 -1)">
	<g transform="translate(1 2)">
		<path style="fill:#37474F;" d="M280.602,459.805l-13.909,34.731c-1.903,4.791-6.536,7.935-11.691,7.935s-9.788-3.145-11.691-7.935
			l-13.909-34.731H280.602z"/>
		<g>
			<path style="fill:#607D8B;" d="M263.536,41.671v76.8c0,4.713-3.821,8.533-8.533,8.533c-4.713,0-8.533-3.821-8.533-8.533v-76.8
				c0-4.713,3.821-8.533,8.533-8.533C259.715,33.138,263.536,36.958,263.536,41.671z"/>
			<path style="fill:#607D8B;" d="M502.469,228.807v35.585c0.004,4.361-3.263,8.031-7.595,8.533l-25.259,2.816l-0.341-2.816
				c4.332-0.502,7.599-4.173,7.595-8.533v-35.584c-0.004-4.483-3.465-8.205-7.936-8.533l-213.931-15.871v-36.437
				c0.018-10.021,2.985-19.815,8.533-28.16c5.548-8.345,8.516-18.139,8.533-28.161v-61.44c0-11.32-4.479-22.179-12.459-30.208
				c-1.435-1.423-2.975-2.735-4.608-3.925c-3.85-2.921-8.182-5.145-12.8-6.571c13.111-4.119,27.404-1.674,38.4,6.571
				c1.633,1.19,3.173,2.503,4.608,3.925c7.98,8.029,12.459,18.888,12.459,30.208v61.44c-0.018,10.021-2.985,19.815-8.533,28.16
				c-5.548,8.345-8.516,18.139-8.533,28.16v36.437l188.501,13.995l25.429,1.877C499.004,220.602,502.465,224.323,502.469,228.807z"
				/>
		</g>
		<g>
			<path style="fill:#CFD8DC;" d="M468.933,220.273l-213.931-15.871v-36.437c0.018-10.021,2.985-19.815,8.533-28.16
				c5.548-8.345,8.516-18.139,8.533-28.161v-61.44c0-11.32-4.479-22.179-12.459-30.208c-1.435-1.423-2.975-2.735-4.608-3.925
				c-3.85-2.921-8.182-5.145-12.8-6.571c-4.618,1.425-8.95,3.649-12.8,6.571c-10.734,8.066-17.054,20.707-17.067,34.133v61.44
				c0.018,10.021,2.985,19.815,8.533,28.16c5.548,8.345,8.516,18.139,8.533,28.16v36.437L15.472,220.273
				c-4.471,0.328-7.932,4.05-7.936,8.533v35.585c-0.004,4.361,3.263,8.031,7.595,8.533l214.272,23.808v63.744l-25.6,9.301
				l-59.733,21.76v34.133h85.333v34.133h51.2v-34.133h85.333v-34.133l-85.333-31.061v-63.744l189.013-20.993l-0.341-2.815
				c4.332-0.502,7.599-4.173,7.595-8.533v-35.584C476.866,224.324,473.404,220.602,468.933,220.273z M246.469,118.471v-76.8
				c0-4.713,3.821-8.533,8.533-8.533c4.713,0,8.533,3.821,8.533,8.533v76.8c0,4.713-3.821,8.533-8.533,8.533
				C250.289,127.005,246.469,123.184,246.469,118.471z"/>
			<path style="fill:#CFD8DC;" d="M263.536,41.671v76.8c0,4.713-3.821,8.533-8.533,8.533c-4.713,0-8.533-3.821-8.533-8.533v-76.8
				c0-4.713,3.821-8.533,8.533-8.533C259.715,33.138,263.536,36.958,263.536,41.671z"/>
		</g>
	</g>
	<g>
		<path d="M496.161,213.763l-206.025-15.28v-28.52c0.007-8.344,2.482-16.5,7.113-23.442c6.486-9.738,9.949-21.175,9.954-32.875
			V52.205c0.016-13.586-5.364-26.622-14.958-36.242c-1.706-1.7-3.539-3.269-5.483-4.692c-18.296-13.422-43.184-13.429-61.487-0.017
			c-12.847,9.702-20.421,24.851-20.471,40.95v61.442c0.005,11.7,3.468,23.137,9.954,32.875c4.63,6.942,7.105,15.097,7.113,23.442
			v28.52l-206.037,15.28c-8.905,0.701-15.786,8.11-15.829,17.042v35.583c0.006,8.706,6.538,16.025,15.188,17.017l206.679,22.965
			v50.138l-79.717,29.015c-3.371,1.226-5.615,4.43-5.617,8.017v34.133c-0.001,2.263,0.898,4.434,2.499,6.035
			s3.771,2.499,6.035,2.499h76.8v25.6c0.222,1.052,0.425,2.107,0.608,3.167l13.9,34.75c3.212,8.025,10.986,13.285,19.63,13.283
			c8.644-0.002,16.415-5.266,19.624-13.292l13.896-34.742c0.184-1.059,0.387-2.115,0.608-3.166v-25.6h76.8
			c2.263,0.001,4.434-0.898,6.035-2.499c1.6-1.6,2.499-3.771,2.499-6.035v-34.133c-0.002-3.587-2.246-6.79-5.617-8.017
			l-79.717-29.015v-50.138l206.725-22.973c8.632-1.006,15.142-8.318,15.142-17.008v-35.583
			C511.958,221.868,505.07,214.458,496.161,213.763z M252.223,493.38l-9.216-23.042h25.991l-9.212,23.033
			c-0.717,1.43-2.179,2.333-3.779,2.335C254.407,495.708,252.943,494.808,252.223,493.38z M494.931,266.438l-214.271,23.808
			c-0.4,0.096-0.792,0.222-1.173,0.377c-0.554,0.117-1.095,0.29-1.614,0.517c-0.47,0.254-0.914,0.553-1.325,0.894
			c-0.918,0.582-1.658,1.405-2.14,2.379c-0.303,0.459-0.558,0.947-0.763,1.457c-0.165,0.535-0.276,1.085-0.331,1.642
			c-0.113,0.399-0.196,0.806-0.246,1.218v63.75c0,0.076,0.041,0.14,0.043,0.215c0.053,0.627,0.178,1.247,0.372,1.846
			c0.077,0.476,0.194,0.945,0.35,1.402c0.25,0.458,0.542,0.891,0.872,1.295c0.285,0.488,0.618,0.946,0.994,1.368
			c0.352,0.279,0.725,0.53,1.115,0.751c0.521,0.411,1.09,0.758,1.694,1.033c0.067,0.026,0.108,0.082,0.176,0.107l79.717,29.017
			v19.625h-76.8c-2.263-0.001-4.434,0.898-6.035,2.499c-1.6,1.6-2.499,3.771-2.499,6.035v25.6h-34.133v-25.6
			c0.001-2.263-0.898-4.434-2.499-6.035s-3.771-2.499-6.035-2.499h-76.8v-19.625l79.717-29.017c0.068-0.025,0.109-0.081,0.176-0.107
			c0.604-0.276,1.172-0.623,1.694-1.033c0.391-0.221,0.763-0.472,1.115-0.751c0.376-0.422,0.709-0.88,0.994-1.368
			c0.33-0.404,0.622-0.837,0.872-1.295c0.156-0.457,0.273-0.926,0.35-1.402c0.194-0.599,0.319-1.218,0.372-1.846
			c0.002-0.075,0.043-0.139,0.043-0.215v-63.75c-0.05-0.412-0.133-0.819-0.246-1.218c-0.055-0.557-0.166-1.107-0.331-1.642
			c-0.205-0.51-0.46-0.998-0.763-1.457c-0.482-0.974-1.222-1.797-2.14-2.379c-0.411-0.341-0.855-0.64-1.325-0.894
			c-0.519-0.226-1.06-0.399-1.614-0.517c-0.381-0.155-0.773-0.281-1.173-0.377L17.069,266.388l0.033-35.608l213.929-15.867
			c0.442-0.085,0.875-0.207,1.297-0.364c0.573-0.099,1.134-0.256,1.674-0.47c0.46-0.25,0.896-0.543,1.3-0.876
			c0.959-0.532,1.728-1.352,2.198-2.343c0.324-0.453,0.602-0.938,0.828-1.448c0.164-0.534,0.274-1.082,0.33-1.637
			c0.132-0.448,0.224-0.907,0.277-1.371v-36.442c-0.005-11.7-3.468-23.137-9.954-32.875c-4.63-6.942-7.105-15.097-7.113-23.442
			V52.205c0.001-12.943,7.322-24.772,18.906-30.547c11.584-5.775,25.437-4.501,35.773,3.288c1.273,0.926,2.475,1.945,3.596,3.05
			c6.405,6.428,9.999,15.134,9.992,24.208v61.442c-0.007,8.344-2.482,16.5-7.113,23.442c-6.486,9.738-9.949,21.175-9.954,32.875
			v36.442c0.053,0.464,0.145,0.923,0.277,1.371c0.056,0.555,0.167,1.104,0.33,1.637c0.226,0.51,0.503,0.995,0.828,1.448
			c0.47,0.991,1.239,1.81,2.198,2.343c0.404,0.333,0.84,0.626,1.3,0.876c0.541,0.214,1.102,0.371,1.674,0.47
			c0.422,0.157,0.855,0.278,1.297,0.364l213.962,15.892L494.931,266.438z"/>
		<path d="M256.002,35.138c-2.263-0.001-4.434,0.898-6.035,2.499c-1.6,1.6-2.499,3.771-2.499,6.035v76.8
			c0,4.713,3.821,8.533,8.533,8.533c4.713,0,8.533-3.821,8.533-8.533v-76.8c0.001-2.263-0.898-4.434-2.499-6.035
			S258.266,35.137,256.002,35.138z"/>
		<path d="M359.39,132.93c13.202,7.899,22.133,21.336,24.304,36.567c0.599,4.199,4.192,7.319,8.433,7.325
			c0.408,0.001,0.816-0.027,1.221-0.083c2.241-0.32,4.263-1.518,5.62-3.329c1.357-1.812,1.939-4.088,1.617-6.329
			c-2.886-20.309-14.787-38.229-32.387-48.767c-4.036-2.432-9.28-1.132-11.713,2.904C354.053,125.253,355.353,130.497,359.39,132.93
			z"/>
		<path d="M503.46,176.821c0.142,0,0.283,0,0.429-0.009c4.706-0.233,8.333-4.235,8.104-8.942
			c-3.958-81.773-62.914-150.429-143.15-166.7c-2.989-0.607-6.075,0.426-8.096,2.711s-2.669,5.474-1.7,8.367
			c0.969,2.892,3.407,5.048,6.396,5.656c72.586,14.715,125.922,76.824,129.5,150.8C495.167,173.247,498.912,176.817,503.46,176.821z
			"/>
		<path d="M435.115,168.938c0.34,4.444,4.043,7.879,8.5,7.883c0.217,0,0.438-0.009,0.654-0.025c4.7-0.358,8.22-4.458,7.863-9.158
			c-3.563-48.379-36.163-89.741-82.371-104.508c-4.485-1.437-9.286,1.03-10.729,5.512c-1.444,4.482,1.016,9.287,5.496,10.738
			C404.126,92.033,432.064,127.479,435.115,168.938z"/>
		<path d="M118.656,176.738c0.404,0.057,0.812,0.085,1.221,0.083c4.241-0.006,7.834-3.126,8.433-7.325
			c2.172-15.231,11.102-28.667,24.304-36.566c4.036-2.432,5.337-7.677,2.904-11.713c-2.432-4.036-7.677-5.337-11.713-2.904
			c-17.6,10.537-29.501,28.458-32.387,48.767c-0.322,2.241,0.26,4.518,1.617,6.329C114.393,175.22,116.415,176.418,118.656,176.738z
			"/>
		<path d="M153.223,7.838c-0.965-4.601-5.449-7.572-10.063-6.667C62.925,17.442,3.968,86.098,0.011,167.871
			c-0.229,4.706,3.398,8.708,8.104,8.942c0.146,0.009,0.288,0.009,0.429,0.009c4.548-0.004,8.294-3.574,8.516-8.117
			c3.578-73.976,56.914-136.085,129.5-150.8C151.178,16.961,154.159,12.457,153.223,7.838z"/>
		<path d="M67.736,176.796c0.217,0.017,0.438,0.025,0.654,0.025c4.457-0.005,8.16-3.439,8.5-7.883
			c3.051-41.459,30.989-76.905,70.588-89.558c4.48-1.45,6.939-6.255,5.496-10.738c-1.444-4.482-6.244-6.949-10.729-5.512
			c-46.208,14.767-78.808,56.129-82.371,104.508C59.515,172.338,63.035,176.438,67.736,176.796z"/>
	</g>
</g>
<g>
</g>
<g>
</g>
<g>
</g>
<g>
</g>
<g>
</g>
<g>
</g>
<g>
</g>
<g>
</g>
<g>
</g>
<g>
</g>
<g>
</g>
<g>
</g>
<g>
</g>
<g>
</g>
<g>
</g>
</svg>
