<?xml version="1.0" encoding="iso-8859-1"?>
<!-- Generator: Adobe Illustrator 19.0.0, SVG Export Plug-In . SVG Version: 6.00 Build 0)  -->
<svg version="1.1" id="Capa_1" xmlns="http://www.w3.org/2000/svg" xmlns:xlink="http://www.w3.org/1999/xlink" x="0px" y="0px"
	 viewBox="0 0 512.004 512.004" style="enable-background:new 0 0 512.004 512.004;" xml:space="preserve">
<g>
	<g transform="translate(1 1)">
		<g>
			<path style="fill:#37474F;" d="M144.069,451.268c-0.043,9,2.345,17.845,6.912,25.6H16.069l12.117-51.2h122.795
				C146.413,433.423,144.025,442.268,144.069,451.268z"/>
			<path style="fill:#37474F;" d="M163.183,425.668v51.2h-12.203c-9.216-15.822-9.216-35.378,0-51.2H163.183z"/>
			<rect x="169.669" y="306.201" style="fill:#37474F;" width="51.2" height="117.845"/>
		</g>
		<path style="fill:#607D8B;" d="M246.469,451.268c-0.022,28.268-22.932,51.178-51.2,51.2c-4.317-0.013-8.616-0.558-12.8-1.621
			c-13.272-3.477-24.607-12.109-31.488-23.979c-6.79-11.746-8.635-25.708-5.13-38.814c3.505-13.107,12.072-24.284,23.818-31.073
			c3.976-2.379,8.293-4.134,12.8-5.206c4.172-1.133,8.477-1.707,12.8-1.707c9-0.043,17.845,2.345,25.6,6.913
			C236.713,416.097,246.477,432.987,246.469,451.268z"/>
		<g>
			<path style="fill:#CFD8DC;" d="M220.869,451.268c-0.054,23.33-15.825,43.692-38.4,49.579
				c-13.272-3.477-24.607-12.109-31.488-23.979c-6.79-11.746-8.635-25.708-5.13-38.814c3.505-13.107,12.072-24.284,23.818-31.073
				v-6.913c4.323-0.001,8.628,0.573,12.8,1.707C205.069,407.567,220.873,427.937,220.869,451.268z"/>
			<path style="fill:#CFD8DC;" d="M152.602,272.068h85.333v34.133c0,9.426-7.641,17.067-17.067,17.067h-51.2
				c-9.426,0-17.067-7.641-17.067-17.067V272.068z"/>
			<rect x="161.135" y="144.068" style="fill:#CFD8DC;" width="68.267" height="68.267"/>
		</g>
		<g>
			<rect x="451.269" y="186.734" style="fill:#37474F;" width="51.2" height="102.4"/>
			<rect x="340.335" y="186.734" style="fill:#37474F;" width="34.133" height="102.4"/>
			<path style="fill:#37474F;" d="M255.002,203.801v76.8c-0.014,4.707-3.826,8.52-8.533,8.533h-102.4
				c-4.707-0.014-8.52-3.826-8.533-8.533v-42.667H92.869v-42.667h153.6C251.176,195.281,254.988,199.094,255.002,203.801z"/>
		</g>
		<path style="fill:#607D8B;" d="M229.402,203.801v76.8c-0.014,4.707-3.826,8.52-8.533,8.533h-76.8
			c-4.707-0.014-8.52-3.826-8.533-8.533v-42.667H92.869v-42.667h128C225.576,195.281,229.388,199.094,229.402,203.801z"/>
		<path style="fill:#37474F;" d="M152.602,118.468h85.333c4.713,0,8.533,3.821,8.533,8.533v25.6c0,4.713-3.821,8.533-8.533,8.533
			h-85.333c-4.713,0-8.533-3.821-8.533-8.533v-25.6C144.069,122.288,147.889,118.468,152.602,118.468z"/>
		<path style="fill:#009688;" d="M7.535,502.468c0,0,51.2-85.333,51.2-247.467S7.535,7.534,7.535,7.534V502.468z"/>
	</g>
	<path d="M6.26,511.693c3.695,1.021,7.618-0.547,9.591-3.833c3.931-6.949,7.47-14.113,10.599-21.458h120.87
		c13.631,19.594,37.625,29.182,61.006,24.379c23.381-4.803,41.652-23.074,46.454-46.455s-4.786-47.375-24.38-61.006v-72.092
		c10.199-3.592,17.034-13.214,17.067-24.027v-8.533c9.421-0.012,17.054-7.646,17.067-17.067h68.267
		c-0.001,2.264,0.897,4.435,2.498,6.035c1.601,1.601,3.772,2.499,6.035,2.498h34.133c2.264,0.001,4.435-0.897,6.035-2.498
		c1.601-1.601,2.499-3.772,2.498-6.035h59.733c-0.001,2.264,0.897,4.435,2.498,6.035c1.601,1.601,3.772,2.499,6.035,2.498h51.2
		c2.264,0.001,4.435-0.897,6.035-2.498c1.601-1.601,2.499-3.772,2.498-6.035v-85.333c0.001-2.264-0.897-4.435-2.498-6.035
		c-1.601-1.601-3.772-2.499-6.035-2.498h-51.2c-2.264-0.001-4.435,0.897-6.035,2.498c-1.601,1.601-2.499,3.772-2.498,6.035h-59.733
		c0.001-2.264-0.897-4.435-2.498-6.035c-1.601-1.601-3.772-2.499-6.035-2.498h-34.133c-2.264-0.001-4.435,0.897-6.035,2.498
		c-1.601,1.601-2.499,3.772-2.498,6.035H262.16c-3.025-5.261-8.623-8.512-14.692-8.533h-8.533v-17.067
		c9.421-0.012,17.054-7.646,17.067-17.067v-25.6c-0.012-9.421-7.646-17.054-17.067-17.067h-85.333
		c-9.421,0.012-17.054,7.646-17.067,17.067v25.6c0.012,9.421,7.646,17.054,17.067,17.067v17.067H93.869
		c-2.264-0.001-4.435,0.897-6.035,2.498c-1.601,1.601-2.499,3.772-2.498,6.035v85.333c0,4.713,3.821,8.533,8.533,8.533
		c4.713,0,8.533-3.82,8.533-8.533v-34.133h25.6v34.133c0.012,9.421,7.646,17.054,17.067,17.067v8.533
		c0.033,10.813,6.868,20.435,17.067,24.027v72.092c-5.766,4.034-10.78,9.049-14.815,14.815H49.297
		c13.015-53.05,19.388-107.512,18.971-162.133c0-162.625-50.275-248.292-52.417-251.858c-1.974-3.289-5.899-4.856-9.595-3.832
		S0.002,4.699,0.002,8.534v494.933C0.003,507.304,2.563,510.669,6.26,511.693z M238.935,452.268
		c0,23.564-19.103,42.667-42.667,42.667s-42.667-19.103-42.667-42.667c0-23.564,19.103-42.667,42.667-42.667
		C219.821,409.629,238.908,428.715,238.935,452.268z M264.535,264.534v-17.067h68.267v17.067H264.535z M384.002,264.534v-17.067
		h59.733v17.067H384.002z M494.935,204.801v68.267h-34.133v-68.267H494.935z M443.735,213.334v17.067h-59.733v-17.067H443.735z
		 M366.935,204.801v68.267h-17.067v-68.267H366.935z M332.802,230.401h-68.267v-17.067h68.267V230.401z M153.602,128.001h85.333
		l0.017,25.6h-85.35V128.001z M170.669,170.668h51.2v17.067h-51.2V170.668z M136.535,230.401h-34.133v-25.6l145.067,0.025v76.775
		h-102.4v-42.667c0.001-2.264-0.897-4.435-2.498-6.035S138.799,230.4,136.535,230.401z M230.402,298.668v8.533
		c-0.003,4.712-3.822,8.53-8.533,8.533h-51.2c-4.712-0.003-8.53-3.822-8.533-8.533v-8.533H230.402z M179.202,332.801h34.133v62.25
		c-11.13-3.356-23.003-3.356-34.133,0V332.801z M139.051,435.201c-3.355,11.13-3.355,23.003,0,34.133H33.431
		c3.616-9.556,7.465-21.079,11.251-34.133H139.051z M17.069,48.068C40.828,114.77,52.39,185.203,51.202,256.001
		c1.15,70.751-10.411,141.134-34.133,207.8V48.068z"/>
</g>
<g>
</g>
<g>
</g>
<g>
</g>
<g>
</g>
<g>
</g>
<g>
</g>
<g>
</g>
<g>
</g>
<g>
</g>
<g>
</g>
<g>
</g>
<g>
</g>
<g>
</g>
<g>
</g>
<g>
</g>
</svg>
