<?xml version="1.0" encoding="iso-8859-1"?>
<!-- Generator: Adobe Illustrator 19.0.0, SVG Export Plug-In . SVG Version: 6.00 Build 0)  -->
<svg version="1.1" id="Capa_1" xmlns="http://www.w3.org/2000/svg" xmlns:xlink="http://www.w3.org/1999/xlink" x="0px" y="0px"
	 viewBox="0 0 512 512" style="enable-background:new 0 0 512 512;" xml:space="preserve">
<g>
	<g transform="translate(1 1)">
		<g>
			<polygon style="fill:#F57C00;" points="331.8,162.583 306.2,169.666 306.2,35.095 331.8,7.533 			"/>
			<polygon style="fill:#F57C00;" points="281.283,236.055 255.683,243.138 255.683,171.629 281.283,144.066 			"/>
			<polygon style="fill:#F57C00;" points="344.173,218.562 338.541,227.266 281.283,243.138 281.283,236.055 			"/>
			<polygon style="fill:#F57C00;" points="391.533,272.066 472.088,305.602 468.333,314.733 365.933,272.066 454.168,135.703 
				485.4,126.999 			"/>
		</g>
		<g>
			<path style="fill:#FF9801;" d="M493.933,314.733l-170.667,93.867v17.067H186.733v-16.981c0.68-0.071,1.364-0.1,2.048-0.085
				h32.085v-25.6c0.014-4.707,3.826-8.52,8.533-8.533h34.816l86.955-47.189l-60.928-25.344l48.299-74.667l5.632-8.704
				l-62.891,17.493v-91.989H306.2v25.6l25.6-7.083v7.083l122.368-33.963l-88.235,136.363l102.4,42.667l3.755-9.131L493.933,314.733z
				"/>
			<path style="fill:#FF9801;" d="M306.2,35.095v108.971h-24.917l-25.6,27.563l-23.296,25.002l-17.237-9.045l-71.083-37.205
				l7.168,17.152l50.859,122.198l-45.909,3.498l55.979,41.983l-35.328,20.139l44.715,19.115h7.851
				c-4.707,0.014-8.52,3.826-8.533,8.533v25.6h-32.085c-0.684-0.014-1.368,0.014-2.048,0.085v-0.085l-128-51.2l59.733-34.133
				l-102.4-76.8L127,237.933L48.835,50.285l-7.168-17.152l161.963,84.821l17.237,9.046L306.2,35.095z"/>
			<polygon style="fill:#FF9801;" points="281.283,236.055 255.683,243.138 255.683,171.629 281.283,144.066 			"/>
			<path style="fill:#FF9801;" d="M289.133,408.599h8.533v17.067H169.752c0.939-8.961,8.021-16.042,16.981-16.981
				c0.68-0.071,1.364-0.1,2.048-0.085h32.085v-25.6c0.014-4.707,3.826-8.52,8.533-8.533h34.816l86.955-47.189l-60.928-25.344
				l48.299-74.667l31.232-8.704l-53.931,83.371l60.928,25.344l-86.955,47.189H280.6c4.707,0.014,8.52,3.826,8.533,8.533V408.599z"/>
			<polygon style="fill:#FF9801;" points="344.173,218.562 338.541,227.266 281.283,243.138 281.283,236.055 			"/>
			<polygon style="fill:#FF9801;" points="459.8,126.999 454.168,135.703 331.8,169.666 331.8,162.583 			"/>
		</g>
		<g>
			<polygon style="fill:#FFB301;" points="376.771,327.277 289.816,374.466 264.216,374.466 351.171,327.277 290.243,301.933 
				338.541,227.266 369.773,218.562 315.843,301.933 			"/>
			<polygon style="fill:#FFB301;" points="281.283,236.055 255.683,243.138 255.683,171.629 281.283,144.066 			"/>
		</g>
		<polygon style="fill:#FDD834;" points="351.171,327.277 264.216,374.466 221.549,374.466 176.835,355.351 212.163,335.213 
			156.184,293.229 202.093,289.73 151.235,167.533 144.067,150.381 215.149,187.586 232.387,196.631 255.683,171.629 
			255.683,243.138 281.283,236.055 281.283,243.138 338.541,227.266 290.243,301.933 		"/>
		<polygon style="fill:#FEC108;" points="344.173,218.562 338.541,227.266 281.283,243.138 281.283,236.055 		"/>
		<path style="fill:#FFE0B2;" d="M340.333,427.714l0,40.619H169.667v-40.619c-0.014-0.684,0.014-1.368,0.085-2.048
			c0.939-8.961,8.021-16.042,16.981-16.981c0.68-0.071,1.364-0.1,2.048-0.085h132.437c0.684-0.014,1.368,0.014,2.048,0.085
			C332.992,409.715,340.363,417.934,340.333,427.714z"/>
		<path style="fill:#ECF0F1;" d="M289.133,382.999v25.6h-68.267v-25.6c0.014-4.707,3.826-8.52,8.533-8.533h51.2
			C285.307,374.48,289.12,378.292,289.133,382.999z"/>
		<path style="fill:#4E342E;" d="M16.067,451.266h477.867c4.713,0,8.533,3.821,8.533,8.533v34.133c0,4.713-3.821,8.533-8.533,8.533
			H16.067c-4.713,0-8.533-3.821-8.533-8.533v-34.133C7.533,455.087,11.354,451.266,16.067,451.266z"/>
		<path style="fill:#795548;" d="M16.067,451.266h452.267c4.713,0,8.533,3.821,8.533,8.533v34.133c0,4.713-3.821,8.533-8.533,8.533
			H16.067c-4.713,0-8.533-3.821-8.533-8.533v-34.133C7.533,455.087,11.354,451.266,16.067,451.266z"/>
	</g>
	<path d="M494.933,443.733H349.867v-15.05c-0.007-7.152-2.802-14.019-7.791-19.144l156.966-86.331
		c2.875-1.576,4.593-4.66,4.417-7.935c-0.176-3.274-2.214-6.157-5.242-7.415l-92.967-38.733l88.317-136.491
		c1.921-2.977,1.805-6.831-0.294-9.686c-2.098-2.855-5.742-4.117-9.156-3.172l-142.783,39.666V8.533
		c-0.001-3.508-2.148-6.658-5.413-7.941c-3.265-1.283-6.982-0.437-9.371,2.132l-106.5,114.692L46.625,26.574
		c-3.184-1.669-7.073-1.163-9.724,1.266c-2.651,2.429-3.494,6.258-2.11,9.576l80.792,193.917l-99.175,7.625
		c-3.541,0.275-6.542,2.714-7.533,6.124c-0.992,3.41,0.233,7.078,3.075,9.209l92.008,69.008L55.5,350.991
		c-2.846,1.623-4.511,4.733-4.283,8.002c0.227,3.268,2.307,6.118,5.35,7.332l112.036,44.815c-4.151,4.906-6.441,11.117-6.47,17.544
		v15.05H17.067C7.646,443.745,0.012,451.379,0,460.799v34.133c0.012,9.421,7.646,17.054,17.067,17.067h477.867
		c9.421-0.012,17.054-7.646,17.067-17.067v-34.133C511.988,451.379,504.354,443.745,494.933,443.733z M123.7,331.674
		c2.496-1.425,4.106-4.01,4.284-6.878c0.178-2.868-1.1-5.633-3.4-7.355l-84.267-63.208l88.342-6.792
		c2.729-0.212,5.19-1.719,6.619-4.053c1.429-2.334,1.651-5.212,0.598-7.738l-76.25-183l158.283,82.908
		c3.408,1.784,7.589,1.067,10.208-1.75l96.15-103.542v140.4c0,2.667,1.247,5.18,3.369,6.794s4.878,2.143,7.447,1.431l131.942-36.65
		l-81.658,126.191c-1.372,2.124-1.732,4.747-0.982,7.162c0.75,2.415,2.532,4.373,4.866,5.346l86.042,35.85l-153.217,84.275h-23.408
		v-17.067c-0.002-1.186-0.129-2.368-0.377-3.527l83.277-51.09c2.734-1.674,4.298-4.739,4.051-7.935
		c-0.248-3.196-2.266-5.983-5.226-7.215l-51.442-21.433l48.35-74.733c1.921-2.977,1.805-6.831-0.294-9.686
		c-2.098-2.855-5.742-4.117-9.156-3.172l-77.717,21.592v-87.883c-0.001-3.508-2.148-6.658-5.413-7.941
		c-3.265-1.283-6.982-0.437-9.371,2.132l-44.4,47.817l-82.567-43.25c-3.184-1.669-7.073-1.163-9.723,1.266
		c-2.651,2.429-3.494,6.258-2.11,9.576l53.517,128.442l-34.167,2.625c-3.541,0.275-6.542,2.714-7.533,6.124
		c-0.992,3.41,0.233,7.078,3.075,9.209l45.575,34.175l-24.05,13.742c-2.665,1.524-4.307,4.361-4.3,7.431s1.661,5.9,4.333,7.411
		l40.673,22.969c-0.224,1.105-0.338,2.229-0.34,3.356v17.067h-23.958L79.309,357.041L123.7,331.674z M217.642,323.233
		l-37.833-28.375l23.325-1.792c2.729-0.212,5.19-1.719,6.619-4.053c1.429-2.334,1.651-5.212,0.598-7.738l-48.967-117.525
		l67.425,35.317c3.408,1.787,7.59,1.07,10.208-1.75l34.05-36.667v77.375c0,2.667,1.247,5.18,3.369,6.794
		c2.123,1.614,4.878,2.143,7.447,1.431l66.875-18.575l-41.692,64.433c-1.372,2.124-1.732,4.747-0.982,7.162
		c0.75,2.415,2.532,4.373,4.865,5.346l45.467,18.95l-71.972,44.153c-1.568-0.497-3.2-0.762-4.845-0.787h-51.2
		c-1.655,0.024-3.297,0.292-4.873,0.796l-31.052-17.529l22.283-12.733c2.495-1.425,4.106-4.01,4.284-6.878
		C221.22,327.72,219.941,324.955,217.642,323.233L217.642,323.233z M230.4,383.999h51.2v17.067h-51.2V383.999z M179.2,428.683
		c0.007-5.824,4.726-10.543,10.55-10.55h132.5c5.824,0.007,10.543,4.726,10.55,10.55v15.05H179.2V428.683z M17.067,494.933v-34.133
		h477.867l0.017,34.133H17.067z"/>
</g>
<g>
</g>
<g>
</g>
<g>
</g>
<g>
</g>
<g>
</g>
<g>
</g>
<g>
</g>
<g>
</g>
<g>
</g>
<g>
</g>
<g>
</g>
<g>
</g>
<g>
</g>
<g>
</g>
<g>
</g>
</svg>
