<?xml version="1.0" encoding="iso-8859-1"?>
<!-- Generator: Adobe Illustrator 19.0.0, SVG Export Plug-In . SVG Version: 6.00 Build 0)  -->
<svg version="1.1" id="Capa_1" xmlns="http://www.w3.org/2000/svg" xmlns:xlink="http://www.w3.org/1999/xlink" x="0px" y="0px"
	 viewBox="0 0 512 512" style="enable-background:new 0 0 512 512;" xml:space="preserve">
<g transform="translate(-1)">
	<g transform="translate(1 1)">
		<g>
			<rect x="179.202" y="58.733" style="fill:#37474F;" width="153.6" height="102.4"/>
			<path style="fill:#37474F;" d="M401.068,289.389c0,117.675-65.024,213.077-145.152,213.077c-4.282,0.019-8.559-0.266-12.8-0.854
				c-73.984-9.471-132.181-100.863-132.181-212.223c-0.762-49.185,11.641-97.68,35.925-140.459c1.516-2.399,3.955-4.067,6.741-4.608
				c0.756-0.169,1.529-0.255,2.304-0.256h200.107c3.705-0.084,7.179,1.799,9.131,4.949
				C389.36,191.791,401.76,240.24,401.068,289.389z"/>
			<path style="fill:#37474F;" d="M364.29,18.115l-12.8,51.2c-0.927,3.816-4.35,6.498-8.277,6.485H168.791
				c-3.927,0.013-7.35-2.669-8.277-6.485l-12.8-51.2c-0.638-2.547-0.065-5.246,1.552-7.314s4.099-3.274,6.725-3.267h200.021
				c2.626-0.006,5.107,1.199,6.725,3.267C364.355,12.869,364.928,15.568,364.29,18.115z"/>
		</g>
		<g>
			<polygon style="fill:#607D8B;" points="307.202,58.733 307.202,161.133 153.602,161.133 153.602,144.067 179.202,144.067 
				179.202,75.8 153.602,75.8 153.602,58.733 			"/>
			<path style="fill:#607D8B;" d="M375.468,289.389c0,111.36-58.197,202.752-132.352,212.223
				c-73.984-9.471-132.181-100.863-132.181-212.223c-0.762-49.185,11.641-97.68,35.925-140.459c1.516-2.399,3.955-4.067,6.741-4.608
				v-0.256h176.811c0.803,0.001,1.604,0.086,2.389,0.256c2.795,0.574,5.232,2.271,6.741,4.693
				C363.76,191.791,376.16,240.239,375.468,289.389z"/>
			<path style="fill:#607D8B;" d="M338.69,18.115l-12.8,51.2c-0.927,3.816-4.35,6.498-8.277,6.485H153.602V58.733h4.267
				l-10.155-40.619c-0.638-2.547-0.065-5.246,1.552-7.314s4.099-3.274,6.725-3.267h174.421c2.626-0.006,5.107,1.199,6.725,3.267
				C338.755,12.869,339.328,15.568,338.69,18.115z"/>
		</g>
		<g>
			<circle style="fill:#4CAF50;" cx="256.002" cy="229.4" r="25.6"/>
			<circle style="fill:#4CAF50;" cx="179.193" cy="357.4" r="25.6"/>
			<circle style="fill:#4CAF50;" cx="332.802" cy="357.4" r="25.6"/>
			<circle style="fill:#4CAF50;" cx="256.002" cy="314.733" r="25.6"/>
		</g>
	</g>
	<g>
		<path d="M156.943,136.533c-6.682-0.063-12.91,3.373-16.421,9.058c-24.989,44.114-37.8,94.079-37.121,144.775
			c0,153.1,77.121,221.633,153.55,221.633c76.479,0,153.65-68.533,153.65-221.633c0.635-50.685-12.172-100.632-37.117-144.758
			c-3.508-5.696-9.744-9.14-16.433-9.075h-14.717v-51.2h1.871c7.836,0.008,14.668-5.328,16.558-12.933l12.8-51.2
			c1.273-5.098,0.126-10.498-3.108-14.639S362.26,0,357.006,0H156.997c-5.254,0-10.216,2.42-13.45,6.561s-4.381,9.541-3.108,14.639
			l12.8,51.2c1.89,7.605,8.722,12.941,16.558,12.933h1.871v51.2H156.943z M358.818,154.333
			c23.383,41.483,35.362,88.419,34.717,136.033c0,122.358-54.888,204.567-136.583,204.567c-81.633,0-136.483-82.208-136.483-204.567
			c-0.687-47.616,11.291-94.56,34.708-136.025c0.44-0.51,1.094-0.785,1.767-0.742h200.108
			C357.722,153.558,358.374,153.829,358.818,154.333z M156.997,17.067h23.204v17.067c0,4.713,3.821,8.533,8.533,8.533
			c4.713,0,8.533-3.821,8.533-8.533V17.067h17.067v17.067c0,4.713,3.821,8.533,8.533,8.533s8.533-3.821,8.533-8.533V17.067h17.067
			v17.067c0,4.713,3.82,8.533,8.533,8.533c4.713,0,8.533-3.821,8.533-8.533V17.067h17.067v17.067c0,4.713,3.821,8.533,8.533,8.533
			s8.533-3.821,8.533-8.533V17.067h17.067v17.067c0,4.713,3.82,8.533,8.533,8.533s8.533-3.821,8.533-8.533V17.067h23.204l-12.8,51.2
			h0.004l-0.004,8.533v-8.533H169.797L156.997,17.067z M188.735,85.333h136.533v51.2h-25.6v-25.6c0-4.713-3.82-8.533-8.533-8.533
			s-8.533,3.821-8.533,8.533v25.6h-17.067v-25.6c0-4.713-3.821-8.533-8.533-8.533c-4.713,0-8.533,3.821-8.533,8.533v25.6h-17.067
			v-25.6c0-4.713-3.82-8.533-8.533-8.533s-8.533,3.821-8.533,8.533v25.6h-25.6V85.333z"/>
		<path d="M324.972,325.433c-6.05,1.637-11.527,4.923-15.818,9.491l-19.236-10.643c0.77-2.785,1.179-5.658,1.217-8.548
			c-0.045-15.521-10.568-29.053-25.6-32.921v-19.492c16.643-4.297,27.494-20.299,25.328-37.35s-16.673-29.832-33.861-29.832
			c-17.188,0-31.695,12.781-33.861,29.832s8.685,33.053,25.328,37.35v19.492c-15.032,3.868-25.555,17.4-25.6,32.921
			c0.038,2.89,0.447,5.763,1.217,8.548l-19.236,10.644c-11.98-12.78-31.602-14.638-45.768-4.332
			c-14.165,10.306-18.437,29.547-9.965,44.879c8.473,15.332,27.038,21.953,43.3,15.444s25.132-24.112,20.686-41.055l19.243-10.646
			c6.399,6.798,15.321,10.652,24.657,10.652c9.336,0,18.258-3.854,24.657-10.652L300.9,349.86
			c-4.011,14.823,2.499,30.485,15.835,38.098h0.004c13.379,7.727,30.28,5.505,41.205-5.419
			c10.926-10.924,13.151-27.825,5.426-41.204C355.645,327.955,339.895,321.433,324.972,325.433z M196.681,362.817
			c-1.996,7.464-8.757,12.656-16.483,12.658s-14.49-5.187-16.489-12.65c-2-7.463,1.264-15.338,7.956-19.199h0.004
			c2.581-1.505,5.516-2.299,8.504-2.3c1.5,0.003,2.993,0.202,4.442,0.592c4.372,1.171,8.1,4.031,10.363,7.95
			C197.24,353.787,197.853,358.445,196.681,362.817L196.681,362.817z M239.935,230.4c0-9.426,7.641-17.067,17.067-17.067
			c9.426,0,17.067,7.641,17.067,17.067c0,9.426-7.641,17.067-17.067,17.067C247.58,247.456,239.946,239.821,239.935,230.4z
			 M257.002,332.8c-9.426,0-17.067-7.641-17.067-17.067c0-9.426,7.641-17.067,17.067-17.067c9.426,0,17.067,7.641,17.067,17.067
			C274.057,325.155,266.423,332.789,257.002,332.8z M342.339,343.625c5.29,3.042,8.552,8.678,8.555,14.781
			c0.003,6.102-3.253,11.741-8.539,14.789c-5.287,3.048-11.798,3.04-17.078-0.02h-0.004c-5.979-3.449-9.291-10.161-8.39-17.005
			c0.901-6.844,5.838-12.47,12.507-14.253c1.449-0.39,2.942-0.589,4.442-0.592C336.82,341.326,339.756,342.12,342.339,343.625z"/>
		<path d="M277.143,380.983c-13.521,4.197-28.015,4.06-41.454-0.392c-4.461-1.414-9.229,1.029-10.687,5.476
			c-1.458,4.447,0.938,9.239,5.371,10.74c16.802,5.555,34.92,5.721,51.821,0.475c4.49-1.403,6.998-6.175,5.606-10.669
			C286.408,382.12,281.641,379.602,277.143,380.983L277.143,380.983z"/>
		<path d="M302.968,253.617c-3.2,3.459-2.991,8.857,0.467,12.058c10.395,9.606,17.525,22.223,20.392,36.083
			c0.992,4.584,5.498,7.508,10.089,6.546c4.59-0.962,7.543-5.449,6.611-10.046c-3.586-17.331-12.502-33.106-25.5-45.117
			c-1.661-1.538-3.866-2.352-6.128-2.262C306.637,250.968,304.503,251.953,302.968,253.617z"/>
		<path d="M179.747,315.683c0.311,0.033,0.624,0.05,0.937,0.05c4.35-0.006,8-3.284,8.471-7.608c0.277-2.545,0.702-5.071,1.271-7.567
			c3.122-13.809,10.487-26.296,21.062-35.708c2.272-2.033,3.286-5.124,2.661-8.108c-0.625-2.984-2.795-5.408-5.692-6.358
			c-2.897-0.951-6.081-0.283-8.352,1.75c-15.672,13.981-25.616,33.266-27.917,54.142c-0.246,2.25,0.412,4.506,1.83,6.27
			C175.436,314.31,177.497,315.439,179.747,315.683z"/>
	</g>
</g>
<g>
</g>
<g>
</g>
<g>
</g>
<g>
</g>
<g>
</g>
<g>
</g>
<g>
</g>
<g>
</g>
<g>
</g>
<g>
</g>
<g>
</g>
<g>
</g>
<g>
</g>
<g>
</g>
<g>
</g>
</svg>
