<?xml version="1.0" encoding="iso-8859-1"?>
<!-- Generator: Adobe Illustrator 19.0.0, SVG Export Plug-In . SVG Version: 6.00 Build 0)  -->
<svg version="1.1" id="Capa_1" xmlns="http://www.w3.org/2000/svg" xmlns:xlink="http://www.w3.org/1999/xlink" x="0px" y="0px"
	 viewBox="0 0 512.002 512.002" style="enable-background:new 0 0 512.002 512.002;" xml:space="preserve">
<g>
	<g transform="translate(8 1)">
		<rect x="77.334" y="186.594" style="fill:#00695C;" width="341.333" height="315.733"/>
		<g>
			<rect x="393.067" y="178.061" style="fill:#009688;" width="42.667" height="324.267"/>
			<rect x="60.267" y="178.061" style="fill:#009688;" width="42.667" height="324.267"/>
		</g>
		<path style="fill:#00695C;" d="M435.734,152.461v17.067H60.267v-17.067c85.845-27.221,143.787-87.893,170.667-121.515
			c6.103-7.542,11.8-15.404,17.067-23.552C248.001,7.394,313.707,113.805,435.734,152.461z"/>
		<path style="fill:#009688;" d="M401.601,152.461v17.067H60.267v-17.067c85.845-27.221,143.787-87.893,170.667-121.515
			C257.814,64.567,315.755,125.24,401.601,152.461z"/>
		<rect x="60.267" y="152.461" style="fill:#00695C;" width="375.467" height="51.2"/>
		<rect x="60.267" y="152.461" style="fill:#009688;" width="349.867" height="51.2"/>
		<path style="fill:#424242;" d="M102.934,416.994h110.933c4.713,0,8.533,3.821,8.533,8.533v17.067c0,4.713-3.821,8.533-8.533,8.533
			H102.934V416.994z"/>
		<rect x="154.134" y="451.127" style="fill:#9E9E9E;" width="34.133" height="51.2"/>
		<path style="fill:#424242;" d="M102.934,280.461h110.933c4.713,0,8.533,3.82,8.533,8.533v17.067c0,4.713-3.821,8.533-8.533,8.533
			H102.934V280.461z"/>
		<rect x="154.134" y="314.594" style="fill:#9E9E9E;" width="34.133" height="68.267"/>
		<path style="fill:#F4F4F4;" d="M154.134,246.327h34.133c9.426,0,17.067,7.641,17.067,17.067l0,0
			c0,9.426-7.641,17.067-17.067,17.067h-34.133c-9.426,0-17.067-7.641-17.067-17.067l0,0
			C137.067,253.968,144.708,246.327,154.134,246.327z"/>
		<path style="fill:#424242;" d="M393.067,451.127H282.134c-4.713,0-8.533-3.82-8.533-8.533v-17.067c0-4.713,3.82-8.533,8.533-8.533
			h110.933V451.127z"/>
		<rect x="307.734" y="451.127" style="fill:#9E9E9E;" width="34.133" height="51.2"/>
		<path style="fill:#424242;" d="M393.067,314.594H282.134c-4.713,0-8.533-3.821-8.533-8.533v-17.067
			c0-4.713,3.82-8.533,8.533-8.533h110.933V314.594z"/>
		<rect x="307.734" y="314.594" style="fill:#9E9E9E;" width="34.133" height="68.267"/>
		<g>
			<path style="fill:#F4F4F4;" d="M341.867,280.461h-34.133c-9.426,0-17.067-7.641-17.067-17.067l0,0
				c0-9.426,7.641-17.067,17.067-17.067h34.133c9.426,0,17.067,7.641,17.067,17.067l0,0
				C358.934,272.82,351.293,280.461,341.867,280.461z"/>
			<path style="fill:#F4F4F4;" d="M154.134,382.861h34.133c9.426,0,17.067,7.641,17.067,17.067l0,0
				c0,9.426-7.641,17.067-17.067,17.067h-34.133c-9.426,0-17.067-7.641-17.067-17.067l0,0
				C137.067,390.502,144.708,382.861,154.134,382.861z"/>
			<path style="fill:#F4F4F4;" d="M341.867,416.994h-34.133c-9.426,0-17.067-7.641-17.067-17.067l0,0
				c0-9.426,7.641-17.067,17.067-17.067h34.133c9.426,0,17.067,7.641,17.067,17.067l0,0
				C358.934,409.353,351.293,416.994,341.867,416.994z"/>
		</g>
	</g>
	<path d="M7.096,511.736c2.232,0.387,4.526-0.132,6.374-1.441c1.849-1.309,3.099-3.301,3.476-5.534l42.788-250.612v249.179
		c-0.001,2.263,0.898,4.434,2.499,6.035c1.6,1.6,3.771,2.499,6.035,2.499h375.467c2.263,0.001,4.434-0.898,6.035-2.499
		c1.6-1.6,2.499-3.771,2.499-6.035V254.148l42.788,250.613c0.792,4.646,5.2,7.771,9.846,6.979c4.646-0.792,7.771-5.2,6.979-9.846
		l-59.733-349.867c-0.099-0.315-0.218-0.624-0.355-0.924c-0.096-0.427-0.226-0.846-0.389-1.253c-0.101-0.215-0.21-0.41-0.329-0.614
		c-0.238-0.377-0.507-0.734-0.805-1.067c-0.238-0.33-0.499-0.641-0.782-0.933c-0.171-0.157-0.342-0.296-0.526-0.44
		c-0.363-0.259-0.746-0.489-1.145-0.686c-0.371-0.229-0.76-0.428-1.162-0.594c-0.126-0.047-0.211-0.147-0.341-0.188
		C328.892,108.102,263.901,4.944,263.259,3.902c-1.664-2.359-4.371-3.763-7.258-3.763c-2.887,0-5.594,1.403-7.258,3.763
		c-0.642,1.042-65.633,104.2-183.054,141.425c-0.129,0.042-0.215,0.142-0.341,0.188c-0.403,0.167-0.793,0.366-1.165,0.595
		c-0.396,0.197-0.776,0.424-1.136,0.681c-0.186,0.146-0.361,0.284-0.533,0.444c-0.287,0.296-0.551,0.613-0.792,0.948
		c-0.29,0.327-0.554,0.676-0.789,1.045c-0.119,0.207-0.232,0.404-0.334,0.622c-0.163,0.409-0.293,0.829-0.39,1.258
		c-0.137,0.299-0.255,0.606-0.354,0.919L0.121,501.894c-0.38,2.23,0.141,4.52,1.449,6.365
		C2.879,510.105,4.866,511.356,7.096,511.736z M435.201,196.127h-358.4v-34.133h358.4V196.127z M392.534,443.594h-102.4v-17.067
		h102.4V443.594z M307.201,400.927c0.005-4.711,3.822-8.529,8.533-8.533h34.133c4.713,0,8.533,3.821,8.533,8.533
		c0,4.713-3.82,8.533-8.533,8.533h-34.133C311.023,409.456,307.205,405.638,307.201,400.927z M307.201,264.394
		c0.005-4.711,3.822-8.529,8.533-8.533h34.133c4.713,0,8.533,3.82,8.533,8.533s-3.82,8.533-8.533,8.533h-34.133
		C311.023,272.923,307.205,269.105,307.201,264.394z M315.734,289.994h76.8v17.067h-102.4v-17.067H315.734z M341.334,324.127v51.2
		h-17.067v-51.2H341.334z M373.895,409.461c1.012-2.733,1.544-5.62,1.572-8.533c-0.033-10.813-6.868-20.435-17.067-24.027v-52.773
		h34.133v85.333H373.895z M392.534,272.927h-18.639c1.012-2.733,1.544-5.62,1.572-8.533c-0.015-14.132-11.468-25.585-25.6-25.6
		h-34.133c-14.132,0.015-25.585,11.468-25.6,25.6c0.029,2.914,0.561,5.801,1.573,8.533h-1.573
		c-9.421,0.011-17.056,7.645-17.067,17.067v17.067c0.011,9.421,7.645,17.056,17.067,17.067h17.067V376.9
		c-6.433,2.18-11.71,6.872-14.629,13.005c-2.919,6.134-3.231,13.188-0.865,19.555h-1.573c-9.421,0.011-17.056,7.645-17.067,17.067
		v17.067c0.011,9.421,7.645,17.056,17.067,17.067h17.067v34.133h-102.4v-34.133h17.067c9.421-0.011,17.056-7.645,17.067-17.067
		v-17.067c-0.011-9.421-7.645-17.056-17.067-17.067h-1.572c1.012-2.733,1.544-5.62,1.572-8.533
		c-0.033-10.813-6.868-20.435-17.067-24.027v-52.773h17.067c9.421-0.011,17.056-7.645,17.067-17.067v-17.067
		c-0.011-9.421-7.645-17.056-17.067-17.067h-1.572c1.012-2.733,1.544-5.62,1.572-8.533c-0.015-14.132-11.468-25.585-25.6-25.6
		h-34.133c-14.132,0.015-25.585,11.468-25.6,25.6c0.029,2.914,0.561,5.801,1.573,8.533h-18.64v-59.733h273.067V272.927z
		 M119.467,443.594v-17.067h102.4l0.012,17.067H119.467z M153.601,264.394c0.005-4.711,3.822-8.529,8.533-8.533h34.133
		c4.713,0,8.533,3.82,8.533,8.533s-3.821,8.533-8.533,8.533h-34.133C157.423,272.923,153.605,269.105,153.601,264.394z
		 M162.134,289.994h59.733l0.012,17.067H119.467v-17.067H162.134z M153.601,400.927c0.005-4.711,3.822-8.529,8.533-8.533h34.133
		c4.713,0,8.533,3.821,8.533,8.533c0,4.713-3.821,8.533-8.533,8.533h-34.133C157.423,409.456,153.605,405.638,153.601,400.927z
		 M187.734,375.327h-17.067v-51.2h17.067V375.327z M119.467,324.127h34.133V376.9c-6.433,2.18-11.71,6.872-14.629,13.005
		s-3.231,13.188-0.865,19.555h-18.64V324.127z M102.401,494.794h-25.6v-281.6h25.6V494.794z M119.467,460.661h34.133v34.133h-34.133
		V460.661z M170.667,494.794v-34.133h17.067v34.133H170.667z M324.267,494.794v-34.133h17.067v34.133H324.267z M358.401,494.794
		v-34.133h34.133v34.133H358.401z M435.201,494.794h-25.6v-281.6h25.6V494.794z M256.001,23.611
		c37.265,51.464,86.482,93.098,143.411,121.317H112.589C169.519,116.709,218.735,75.075,256.001,23.611z"/>
</g>
<g>
</g>
<g>
</g>
<g>
</g>
<g>
</g>
<g>
</g>
<g>
</g>
<g>
</g>
<g>
</g>
<g>
</g>
<g>
</g>
<g>
</g>
<g>
</g>
<g>
</g>
<g>
</g>
<g>
</g>
</svg>
