<?xml version="1.0" encoding="iso-8859-1"?>
<!-- Generator: Adobe Illustrator 19.0.0, SVG Export Plug-In . SVG Version: 6.00 Build 0)  -->
<svg version="1.1" id="Capa_1" xmlns="http://www.w3.org/2000/svg" xmlns:xlink="http://www.w3.org/1999/xlink" x="0px" y="0px"
	 viewBox="0 0 512 512" style="enable-background:new 0 0 512 512;" xml:space="preserve">
<g>
	<g transform="translate(1 1)">
		<g>
			<rect x="383" y="50.2" style="fill:#37474F;" width="34.133" height="85.333"/>
			<path style="fill:#37474F;" d="M41.667,127h426.667c18.851,0,34.133,15.282,34.133,34.133v307.2
				c0,18.851-15.282,34.133-34.133,34.133H41.667c-18.851,0-34.133-15.282-34.133-34.133v-307.2
				C7.533,142.282,22.815,127,41.667,127z"/>
		</g>
		<path style="fill:#607D8B;" d="M41.667,127h401.067c18.851,0,34.133,15.282,34.133,34.133v307.2
			c0,18.851-15.282,34.133-34.133,34.133H41.667c-18.851,0-34.133-15.282-34.133-34.133v-307.2C7.533,142.282,22.815,127,41.667,127
			z"/>
		<path style="fill:#37474F;" d="M417.133,24.6l0,34.133H383V24.6c0.027-9.414,7.652-17.039,17.067-17.067
			c4.528-0.024,8.871,1.793,12.032,5.035C415.34,15.729,417.157,20.072,417.133,24.6z"/>
		<path style="fill:#02A9F4;" d="M383,169.667V383c0,0-70.912-8.533-81.067,34.133s-81.067,51.2-81.067,51.2h-85.333
			c-4.707-0.014-8.52-3.826-8.533-8.533V241.261c0,0,45.483,15.957,68.267-8.022c22.784-24.064,34.133-32.085,56.917-40.107
			c22.699-7.935,45.483-15.957,45.483-31.999h76.8C379.174,161.147,382.986,164.96,383,169.667z"/>
		<path style="fill:#4CAF50;" d="M297.667,161.133c0,16.043-22.784,24.065-45.483,32c-22.784,8.021-34.133,16.043-56.917,40.107
			C172.483,257.219,127,241.261,127,241.261v-71.595c0.014-4.707,3.826-8.52,8.533-8.533H297.667z"/>
		<g>
			<circle style="fill:#CFD8DC;" cx="67.267" cy="237.933" r="25.6"/>
			<circle style="fill:#CFD8DC;" cx="442.733" cy="237.933" r="25.6"/>
		</g>
		<path style="fill:#4CAF50;" d="M383,383v76.8c-0.014,4.707-3.826,8.52-8.533,8.533h-153.6c0,0,70.912-8.533,81.067-51.2
			S383,383,383,383z"/>
	</g>
	<g>
		<path d="M469.333,119.467h-42.667V25.6c0-14.138-11.462-25.6-25.6-25.6c-14.138,0-25.6,11.462-25.6,25.6v93.867h-332.8
			C19.114,119.494,0.028,138.581,0,162.133v307.2C0.028,492.886,19.114,511.972,42.667,512h426.667
			c23.553-0.028,42.639-19.114,42.667-42.667v-307.2C511.972,138.581,492.886,119.494,469.333,119.467z M401.067,17.067
			c4.711,0.005,8.529,3.822,8.533,8.533v25.6h-17.067V25.6C392.538,20.889,396.356,17.071,401.067,17.067z M392.533,68.267H409.6
			v51.2h-17.067V68.267z M494.933,469.333c-0.015,14.132-11.468,25.585-25.6,25.6H42.667c-14.132-0.015-25.585-11.468-25.6-25.6
			v-307.2c0.015-14.132,11.468-25.585,25.6-25.6h426.667c14.132,0.015,25.585,11.468,25.6,25.6V469.333z"/>
		<path d="M375.467,153.6H136.533c-9.421,0.011-17.056,7.645-17.067,17.067V460.8c0.011,9.421,7.645,17.056,17.067,17.067h238.933
			c9.421-0.011,17.056-7.645,17.067-17.067V170.667C392.523,161.245,384.888,153.611,375.467,153.6z M284.811,170.667
			c-10.717,6.74-22.327,11.943-34.49,15.458c-24.146,8.5-36.533,17.183-60.25,42.233c-14.43,15.247-41.739,10.456-53.538,7.457
			v-65.149H284.811z M136.533,253.369c7.639,1.693,15.435,2.575,23.258,2.631c15.815,0.85,31.272-4.913,42.671-15.908
			c21.717-22.942,32.225-30.367,53.525-37.867c21.648-7.617,43.881-15.483,49.704-31.558h69.776l0.009,204.204
			c-21.305-0.785-71.428,1.663-80.846,41.287c-8.356,35.191-68.932,44.046-73.361,44.642h-84.734V253.369z M276.338,460.8
			c16.932-7.93,29.642-22.75,34.9-40.692c6.538-27.516,47.241-28.818,64.239-28.135l0.003,68.827H276.338z"/>
		<path d="M68.267,204.8c-18.851,0-34.133,15.282-34.133,34.133s15.282,34.133,34.133,34.133s34.133-15.282,34.133-34.133
			C102.38,220.09,87.11,204.82,68.267,204.8z M68.267,256c-9.426,0-17.067-7.641-17.067-17.067c0-9.426,7.641-17.067,17.067-17.067
			s17.067,7.641,17.067,17.067C85.323,248.355,77.688,255.989,68.267,256z"/>
		<path d="M51.2,307.094c1.109,0.015,2.211-0.189,3.242-0.6c1.04-0.493,1.992-1.155,2.817-1.958
			c1.615-1.564,2.511-3.727,2.475-5.975c0.02-3.467-2.059-6.601-5.261-7.931c-3.202-1.329-6.89-0.59-9.331,1.872
			c-1.559,1.635-2.443,3.799-2.475,6.059c-0.038,2.248,0.858,4.412,2.475,5.975c0.823,0.803,1.773,1.465,2.813,1.958
			C48.986,306.905,50.089,307.109,51.2,307.094z"/>
		<path d="M79.275,292.502c-1.559,1.635-2.443,3.799-2.475,6.059c-0.038,2.248,0.858,4.412,2.475,5.975
			c0.823,0.803,1.773,1.465,2.813,1.958c2.089,0.8,4.399,0.8,6.487,0c1.04-0.493,1.992-1.155,2.817-1.958
			c1.615-1.564,2.511-3.727,2.475-5.975c0.02-3.467-2.059-6.601-5.261-7.931C85.403,289.301,81.715,290.041,79.275,292.502
			L79.275,292.502z"/>
		<path d="M85.333,324.267H51.2c-4.713,0-8.533,3.82-8.533,8.533s3.821,8.533,8.533,8.533h34.133c4.713,0,8.533-3.82,8.533-8.533
			S90.046,324.267,85.333,324.267z"/>
		<path d="M85.333,358.4H51.2c-4.713,0-8.533,3.82-8.533,8.533s3.821,8.533,8.533,8.533h34.133c4.713,0,8.533-3.82,8.533-8.533
			S90.046,358.4,85.333,358.4z"/>
		<path d="M85.333,392.533H51.2c-4.713,0-8.533,3.82-8.533,8.533s3.821,8.533,8.533,8.533h34.133c4.713,0,8.533-3.82,8.533-8.533
			S90.046,392.533,85.333,392.533z"/>
		<path d="M443.733,204.8c-18.851,0-34.133,15.282-34.133,34.133s15.282,34.133,34.133,34.133c18.851,0,34.133-15.282,34.133-34.133
			C477.847,220.09,462.576,204.82,443.733,204.8z M443.733,256c-9.426,0-17.067-7.641-17.067-17.067
			c0-9.426,7.641-17.067,17.067-17.067c9.426,0,17.067,7.641,17.067,17.067C460.789,248.355,453.155,255.989,443.733,256z"/>
		<path d="M426.667,307.094c1.109,0.015,2.211-0.189,3.242-0.6c1.04-0.493,1.992-1.155,2.817-1.958
			c1.615-1.564,2.511-3.727,2.475-5.975c0-4.713-3.821-8.533-8.533-8.533c-4.713,0-8.533,3.82-8.533,8.533
			c-0.038,2.248,0.858,4.412,2.475,5.975c0.823,0.803,1.773,1.465,2.813,1.958C424.452,306.905,425.556,307.109,426.667,307.094z"/>
		<path d="M454.741,292.502c-1.559,1.635-2.443,3.799-2.475,6.059c-0.038,2.248,0.858,4.412,2.475,5.975
			c0.823,0.803,1.773,1.465,2.813,1.958c2.089,0.8,4.399,0.8,6.487,0c1.04-0.493,1.992-1.155,2.817-1.958
			c1.615-1.564,2.511-3.727,2.475-5.975c0.02-3.467-2.059-6.601-5.261-7.931C460.87,289.301,457.182,290.041,454.741,292.502
			L454.741,292.502z"/>
		<path d="M460.8,324.267h-34.133c-4.713,0-8.533,3.82-8.533,8.533s3.82,8.533,8.533,8.533H460.8c4.713,0,8.533-3.82,8.533-8.533
			S465.513,324.267,460.8,324.267z"/>
		<path d="M460.8,358.4h-34.133c-4.713,0-8.533,3.82-8.533,8.533s3.82,8.533,8.533,8.533H460.8c4.713,0,8.533-3.82,8.533-8.533
			S465.513,358.4,460.8,358.4z"/>
		<path d="M460.8,392.533h-34.133c-4.713,0-8.533,3.82-8.533,8.533s3.82,8.533,8.533,8.533H460.8c4.713,0,8.533-3.82,8.533-8.533
			S465.513,392.533,460.8,392.533z"/>
		<path d="M214.104,324.267c3.659,21.441,20.455,38.237,41.896,41.896v9.304c0,4.713,3.821,8.533,8.533,8.533
			s8.533-3.821,8.533-8.533v-9.304c21.441-3.659,38.237-20.455,41.896-41.896h9.304c4.713,0,8.533-3.821,8.533-8.533
			c0-4.713-3.82-8.533-8.533-8.533h-9.304c-3.659-21.441-20.455-38.237-41.896-41.896V256c0-4.713-3.82-8.533-8.533-8.533
			S256,251.287,256,256v9.304c-21.441,3.659-38.236,20.455-41.896,41.896H204.8c-4.713,0-8.533,3.821-8.533,8.533
			c0,4.713,3.821,8.533,8.533,8.533H214.104z M256,282.813v7.321c0,4.713,3.821,8.533,8.533,8.533s8.533-3.821,8.533-8.533v-7.321
			c11.946,3.112,21.276,12.441,24.388,24.388h-7.322c-4.713,0-8.533,3.821-8.533,8.533c0,4.713,3.821,8.533,8.533,8.533h7.322
			c-3.112,11.946-12.442,21.276-24.388,24.387v-7.321c0-4.713-3.82-8.533-8.533-8.533s-8.533,3.82-8.533,8.533v7.321
			c-11.946-3.112-21.276-12.441-24.388-24.387h7.322c4.713,0,8.533-3.821,8.533-8.533c0-4.713-3.821-8.533-8.533-8.533h-7.322
			C234.724,295.254,244.054,285.924,256,282.813z"/>
	</g>
</g>
<g>
</g>
<g>
</g>
<g>
</g>
<g>
</g>
<g>
</g>
<g>
</g>
<g>
</g>
<g>
</g>
<g>
</g>
<g>
</g>
<g>
</g>
<g>
</g>
<g>
</g>
<g>
</g>
<g>
</g>
</svg>
