<?xml version="1.0" encoding="iso-8859-1"?>
<!-- Generator: Adobe Illustrator 19.0.0, SVG Export Plug-In . SVG Version: 6.00 Build 0)  -->
<svg version="1.1" id="Capa_1" xmlns="http://www.w3.org/2000/svg" xmlns:xlink="http://www.w3.org/1999/xlink" x="0px" y="0px"
	 viewBox="0 0 512 512" style="enable-background:new 0 0 512 512;" xml:space="preserve">
<g>
	<g transform="translate(1 1)">
		<path style="fill:#4CAF50;" d="M128.406,7.533h253.189c33.766,0,61.139,27.373,61.139,61.139v297.261H67.267V68.672
			C67.267,34.906,94.64,7.533,128.406,7.533z"/>
		<path style="fill:#9E9E9E;" d="M408.6,68.009v280.858H101.4V68.009c0-14.549,11.794-26.342,26.342-26.342h254.515
			C396.806,41.667,408.6,53.461,408.6,68.009z"/>
		<polygon style="fill:#4CAF50;" points="306.2,383 203.8,383 127,383 127,459.8 144.067,459.8 203.8,442.733 306.2,442.733 
			365.933,459.8 383,459.8 383,383 		"/>
		<rect x="203.8" y="400.067" style="fill:#CDDC39;" width="102.4" height="42.667"/>
		<g>
			<path style="fill:#37474F;" d="M144.067,383v102.4c-0.028,9.414-7.653,17.039-17.067,17.067H92.867
				c-9.414-0.028-17.039-7.653-17.067-17.067V383H144.067z"/>
			<path style="fill:#37474F;" d="M434.2,383v102.4c-0.028,9.414-7.652,17.039-17.067,17.067H383
				c-9.414-0.028-17.039-7.653-17.067-17.067V383H434.2z"/>
		</g>
		<path style="fill:#7F8C8D;" d="M67.267,348.867h375.467c4.713,0,8.533,3.82,8.533,8.533v34.133c0,4.713-3.821,8.533-8.533,8.533
			H67.267c-4.713,0-8.533-3.82-8.533-8.533V357.4C58.733,352.687,62.554,348.867,67.267,348.867z"/>
		<path style="fill:#424242;" d="M144.067,237.933H255v110.933H135.533v-102.4C135.533,241.754,139.354,237.933,144.067,237.933z"/>
		<polygon style="fill:#FFE0B2;" points="212.333,297.667 195.267,289.133 178.2,297.667 178.2,237.933 212.333,237.933 		"/>
		<path style="fill:#795548;" d="M255,237.933h110.933c4.713,0,8.533,3.821,8.533,8.533v102.4H255V237.933z"/>
		<polygon style="fill:#FFE0B2;" points="331.8,297.667 314.733,289.133 297.667,297.667 297.667,237.933 331.8,237.933 		"/>
		<path style="fill:#4E342E;" d="M203.8,127h102.4c4.713,0,8.533,3.821,8.533,8.533v102.4H195.267v-102.4
			C195.267,130.821,199.087,127,203.8,127z"/>
		<polygon style="fill:#FFE0B2;" points="272.067,186.733 255,178.2 237.933,186.733 237.933,127 272.067,127 		"/>
	</g>
	<path d="M305.992,452.267l52.408,14.974V486.4c0.015,14.132,11.468,25.585,25.6,25.6h34.133c14.132-0.015,25.585-11.468,25.6-25.6
		v-76.8c9.421-0.011,17.056-7.645,17.067-17.067V358.4c-0.02-6.069-3.272-11.668-8.533-14.693V69.675
		C452.223,31.214,421.057,0.045,382.596,0H129.404C90.943,0.045,59.777,31.214,59.733,69.675v274.033
		c-5.262,3.025-8.513,8.624-8.533,14.693v34.133c0.011,9.421,7.645,17.056,17.067,17.067v76.8c0.015,14.132,11.468,25.585,25.6,25.6
		H128c14.132-0.015,25.585-11.468,25.6-25.6v-19.159l52.408-14.974H305.992z M298.667,435.2h-85.333v-25.6h85.333V435.2z
		 M315.733,437.293V409.6H358.4v39.883L315.733,437.293z M426.667,426.667h-8.533c-4.713,0-8.533,3.82-8.533,8.533
		s3.82,8.533,8.533,8.533h8.533V460.8h-8.533c-4.713,0-8.533,3.821-8.533,8.533c0,4.713,3.82,8.533,8.533,8.533h8.533v8.533
		c-0.005,4.711-3.822,8.529-8.533,8.533H384c-4.711-0.005-8.529-3.822-8.533-8.533v-8.533H384c4.713,0,8.533-3.821,8.533-8.533
		c0-4.713-3.82-8.533-8.533-8.533h-8.533v-17.067H384c4.713,0,8.533-3.821,8.533-8.533s-3.82-8.533-8.533-8.533h-8.533V409.6h51.2
		V426.667z M435.2,392.533H68.267V358.4h375.467l0.012,34.133H435.2z M110.933,315.733V69.008
		c0.012-9.83,7.978-17.797,17.808-17.808h254.517c9.83,0.012,17.797,7.978,17.808,17.808v272.325H384v-93.867
		c-0.011-9.421-7.645-17.056-17.067-17.067h-42.667v-93.867c-0.011-9.421-7.645-17.056-17.067-17.067H204.8
		c-9.421,0.011-17.056,7.645-17.067,17.067V230.4h-42.667c-9.421,0.011-17.056,7.645-17.067,17.067v93.867h-17.067V315.733z
		 M145.067,341.333v-93.867h25.6v51.2c0,2.958,1.531,5.704,4.047,7.259c2.516,1.555,5.657,1.696,8.303,0.374l13.25-6.625
		l13.25,6.625c2.645,1.322,5.787,1.181,8.303-0.374c2.516-1.555,4.047-4.302,4.047-7.259v-51.2h25.6v93.867H145.067z
		 M247.467,136.533h17.067v37.392l-4.717-2.358c-2.403-1.2-5.23-1.2-7.633,0l-4.717,2.358V136.533z M234.446,194.992
		c2.517,1.554,5.658,1.696,8.304,0.375l13.25-6.625l13.25,6.625c2.645,1.322,5.787,1.181,8.303-0.374
		c2.516-1.555,4.047-4.302,4.047-7.259v-51.2h25.6V230.4H204.8v-93.867h25.6v51.2C230.402,190.69,231.932,193.435,234.446,194.992z
		 M307.2,247.467h17.067v37.392l-4.717-2.358c-2.403-1.2-5.23-1.2-7.633,0l-4.717,2.358V247.467z M196.267,247.467h8.533v37.392
		l-4.717-2.358c-2.403-1.2-5.23-1.2-7.633,0l-4.717,2.358v-37.392H196.267z M264.533,247.467h25.6v51.2
		c0,2.958,1.531,5.704,4.047,7.259c2.516,1.555,5.657,1.696,8.303,0.374l13.25-6.625l13.25,6.625
		c2.645,1.322,5.787,1.181,8.303-0.374c2.516-1.555,4.047-4.302,4.047-7.259v-51.2h25.6v93.867h-102.4V247.467z M76.8,69.675
		c0.033-29.04,23.565-52.573,52.604-52.608h253.192c29.04,0.035,52.572,23.568,52.604,52.608v271.659h-17.067V69.008
		c-0.021-19.252-15.623-34.854-34.875-34.875H128.742c-19.252,0.021-34.854,15.623-34.875,34.875v272.325H76.8V69.675z M128,494.933
		H93.867c-4.711-0.005-8.529-3.822-8.533-8.533v-8.533h8.533c4.713,0,8.533-3.821,8.533-8.533c0-4.713-3.821-8.533-8.533-8.533
		h-8.533v-17.067h8.533c4.713,0,8.533-3.821,8.533-8.533s-3.821-8.533-8.533-8.533h-8.533V409.6h51.2v17.067H128
		c-4.713,0-8.533,3.82-8.533,8.533s3.82,8.533,8.533,8.533h8.533V460.8H128c-4.713,0-8.533,3.821-8.533,8.533
		c0,4.713,3.82,8.533,8.533,8.533h8.533v8.533C136.529,491.111,132.711,494.929,128,494.933z M153.6,409.6h42.667v27.693
		L153.6,449.483V409.6z"/>
</g>
<g>
</g>
<g>
</g>
<g>
</g>
<g>
</g>
<g>
</g>
<g>
</g>
<g>
</g>
<g>
</g>
<g>
</g>
<g>
</g>
<g>
</g>
<g>
</g>
<g>
</g>
<g>
</g>
<g>
</g>
</svg>
