<?xml version="1.0" encoding="iso-8859-1"?>
<!-- Generator: Adobe Illustrator 19.0.0, SVG Export Plug-In . SVG Version: 6.00 Build 0)  -->
<svg version="1.1" id="Capa_1" xmlns="http://www.w3.org/2000/svg" xmlns:xlink="http://www.w3.org/1999/xlink" x="0px" y="0px"
	 viewBox="0 0 512 512" style="enable-background:new 0 0 512 512;" xml:space="preserve">
<g>
	<g transform="translate(1 1)">
		<path style="fill:#795548;" d="M92.895,161.133v324.261c0,5.113,2.292,9.957,6.247,13.198c3.954,3.242,9.153,4.54,14.167,3.537
			l51.2-10.24c7.977-1.595,13.72-8.6,13.72-16.735V16.067c0-4.713-3.821-8.533-8.533-8.533h-68.267
			c-4.713,0-8.533,3.821-8.533,8.533V161.133z"/>
		<path style="fill:#F44335;" d="M382.26,50.2h28.587c3.353,0.017,6.374,2.031,7.679,5.12
			c44.374,107.861-17.236,243.371-37.29,282.539c-1.207,2.494-3.608,4.195-6.361,4.507s-5.474-0.81-7.207-2.971l-13.056-16.128
			L382.26,50.2z"/>
		<path style="fill:#CFD8DC;" d="M354.612,323.267L334.56,298.52c-0.883-1.094-1.497-2.381-1.793-3.755
			c-0.359-2.115,0.034-4.288,1.109-6.144c1.963-3.583,3.84-7.253,5.461-11.008c2.006-4.648,3.66-9.44,4.949-14.335
			c6.965-25.494,3.171-52.729-10.496-75.349c-17.144-32.045-50.441-52.148-86.783-52.395c-5.272,0.062-10.528,0.605-15.702,1.621
			c-12.877,2.39-25.131,7.385-36.011,14.677l-17.066,0.769V50.2H382.26C425.866,148.077,379.018,270.957,354.612,323.267z"/>
		<g>
			<path style="fill:#F5F5F5;" d="M333.877,288.621c1.963-3.583,3.84-7.253,5.461-11.008c-2.219,5.974-4.352,11.777-6.571,17.152
				C332.408,292.65,332.801,290.477,333.877,288.621z"/>
			<path style="fill:#F5F5F5;" d="M344.287,263.277c6.965-25.494,3.171-52.729-10.496-75.349
				c-17.144-32.045-50.441-52.148-86.783-52.395c-5.272,0.062-10.528,0.605-15.702,1.621c-6.069-1.188-12.248-1.732-18.431-1.621
				c-5.909,0.091-11.796,0.748-17.579,1.963c-12.204,2.505-23.8,7.375-34.133,14.335l-17.067,0.769V50.2h204.031
				C379.274,120.088,364.256,202.691,344.287,263.277z"/>
		</g>
		<path style="fill:#CFD8DC;" d="M84.362,41.667h102.4c4.713,0,8.533,3.821,8.533,8.533v102.4c0,4.713-3.82,8.533-8.533,8.533
			h-102.4c-4.713,0-8.533-3.821-8.533-8.533V50.2C75.829,45.487,79.649,41.667,84.362,41.667z"/>
	</g>
	<path d="M85.362,34.133c-9.421,0.012-17.054,7.646-17.067,17.067v102.4c0.012,9.421,7.646,17.054,17.067,17.067v315.725
		c-0.001,14.131,11.444,25.591,25.575,25.608c1.696-0.002,3.387-0.169,5.05-0.5l51.2-10.242c11.947-2.422,20.545-12.91,20.575-25.1
		V170.667c7.643-0.027,14.333-5.138,16.369-12.504c13.249-8.214,28.455-12.73,44.04-13.079c33.232,0.28,63.644,18.726,79.25,48.067
		c16.883,28.424,16.892,63.8,0.025,92.233c-3.602,6.192-3.012,13.964,1.483,19.541l33.1,40.808c3.148,3.918,7.899,6.2,12.925,6.208
		c0.567,0,1.142-0.033,1.725-0.092c5.659-0.606,10.623-4.042,13.183-9.125c20.375-39.85,83.292-178.525,37.525-289.642
		c-2.583-6.303-8.721-10.419-15.533-10.417h-209.4c-3.025-5.261-8.623-8.513-14.692-8.533V17.067
		C187.75,7.646,180.116,0.012,170.695,0h-68.267c-9.421,0.012-17.054,7.646-17.067,17.067V34.133z M170.695,476.158
		c-0.011,4.063-2.876,7.559-6.858,8.367l-51.191,10.242c-2.509,0.5-5.11-0.15-7.088-1.772s-3.126-4.045-3.128-6.603V170.667h68.267
		V476.158z M85.362,153.6V51.2h102.4v101.633l0.017,0.121v0.646H85.362z M342.22,184.642
		c-18.528-34.059-53.815-55.649-92.575-56.642c-0.6,0-1.2,0.009-1.792,0.017c-14.903,0.274-29.573,3.738-43.025,10.158V59.733h172.8
		c35.615,87.145-0.777,194.679-24.022,248.181l-11.311-14.123C362.244,260.136,362.216,218.27,342.22,184.642z M375.287,334.983
		l-9.662-12.062c23.239-51.2,65.807-166.77,30.206-263.312l15.78-0.009C454.595,163.958,394.195,296.742,375.287,334.983z
		 M170.695,17.067v17.067h-68.267V17.067H170.695z"/>
</g>
<g>
</g>
<g>
</g>
<g>
</g>
<g>
</g>
<g>
</g>
<g>
</g>
<g>
</g>
<g>
</g>
<g>
</g>
<g>
</g>
<g>
</g>
<g>
</g>
<g>
</g>
<g>
</g>
<g>
</g>
</svg>
