<?xml version="1.0" encoding="iso-8859-1"?>
<!-- Generator: Adobe Illustrator 19.0.0, SVG Export Plug-In . SVG Version: 6.00 Build 0)  -->
<svg version="1.1" id="Capa_1" xmlns="http://www.w3.org/2000/svg" xmlns:xlink="http://www.w3.org/1999/xlink" x="0px" y="0px"
	 viewBox="0 0 512.001 512.001" style="enable-background:new 0 0 512.001 512.001;" xml:space="preserve">
<g>
	<g transform="translate(1 1)">
		<path style="fill:#CFD8DC;" d="M459.801,331.801h30.464c-33.24,101.796-128.179,170.666-235.264,170.666
			S52.977,433.596,19.737,331.801h30.464c18.107,0.005,35.474-7.186,48.277-19.989c12.804-12.804,19.994-30.17,19.989-48.277
			v-17.067c0.005-18.107-7.186-35.474-19.989-48.277s-30.17-19.994-48.277-19.989H19.737C52.977,76.405,147.915,7.534,255.001,7.534
			s202.024,68.871,235.264,170.666h-30.464c-18.107-0.005-35.474,7.186-48.277,19.989c-12.804,12.804-19.994,30.17-19.989,48.277
			v17.067c-0.005,18.107,7.186,35.474,19.99,48.277C424.327,324.615,441.694,331.805,459.801,331.801z"/>
		<path style="fill:#009688;" d="M438.638,363.715c-9.314,15.869-20.676,30.444-33.792,43.35l-5.035-7.254L285.209,285.209
			c7.98-8.029,12.459-18.888,12.459-30.208h59.733v8.533C357.443,311.915,391.309,353.678,438.638,363.715z"/>
		<path style="fill:#00BCD4;" d="M438.638,146.286c-47.329,10.036-81.195,51.8-81.237,100.181v8.533h-59.733
			c0-11.32-4.479-22.179-12.459-30.208L399.811,110.19l5.035-7.254C417.962,115.842,429.324,130.417,438.638,146.286z"/>
		<path style="fill:#009688;" d="M404.846,102.936l-5.035,7.254L285.209,224.793c-8.029-7.979-18.888-12.458-30.208-12.459V41.667
			l0.085,0C311.127,41.568,364.944,63.585,404.846,102.936z"/>
		<path style="fill:#00BCD4;" d="M255.001,41.667v170.667c-11.32,0-22.179,4.479-30.208,12.459L110.19,110.19l-9.813-2.389
			C140.674,65.494,196.573,41.586,255.001,41.667z"/>
		<path style="fill:#009688;" d="M224.793,224.793c-7.98,8.029-12.459,18.888-12.459,30.208h-59.733v-8.533
			c-0.042-48.381-33.909-90.145-81.237-100.181c8.196-13.877,17.928-26.787,29.013-38.485l9.813,2.389L224.793,224.793z"/>
		<path style="fill:#00BCD4;" d="M224.793,285.209L110.19,399.811l-9.813,2.389c-11.085-11.699-20.818-24.608-29.013-38.485
			c47.329-10.037,81.195-51.8,81.237-100.181v-8.533h59.733C212.334,266.32,216.813,277.18,224.793,285.209z"/>
		<path style="fill:#009688;" d="M255.001,297.667v170.667l-0.085,0c-58.406,0.097-114.284-23.816-154.539-66.133l9.813-2.389
			l114.603-114.603C232.821,293.188,243.681,297.667,255.001,297.667z"/>
		<path style="fill:#00BCD4;" d="M255.001,468.334V297.667c-20.281-0.062-37.698-14.433-41.609-34.334
			c-3.911-19.9,6.771-39.794,25.52-47.527c18.749-7.733,40.35-1.153,51.604,15.718s9.033,39.343-5.308,53.683l114.603,114.603
			l5.035,7.254C364.902,446.404,311.064,468.417,255.001,468.334z"/>
		<g>
			<path style="fill:#FFEB3A;" d="M297.667,255.001c-0.062,20.281-14.433,37.698-34.334,41.609
				c-19.9,3.911-39.794-6.771-47.527-25.52c-7.733-18.749-1.153-40.35,15.718-51.604c16.872-11.255,39.343-9.033,53.683,5.308
				C293.188,232.821,297.667,243.681,297.667,255.001z"/>
			<circle style="fill:#FFEB3A;" cx="203.792" cy="391.534" r="17.067"/>
			<circle style="fill:#FFEB3A;" cx="306.201" cy="391.534" r="17.067"/>
			<circle style="fill:#FFEB3A;" cx="306.201" cy="118.459" r="17.067"/>
			<circle style="fill:#FFEB3A;" cx="203.792" cy="118.459" r="17.067"/>
		</g>
		<path style="fill:#805333;" d="M255.001,263.534c-2.27,0.022-4.453-0.87-6.058-2.475c-1.605-1.605-2.497-3.788-2.475-6.058
			c-0.031-1.119,0.203-2.23,0.683-3.242c0.432-1.035,1.038-1.987,1.792-2.817c3.421-3.158,8.695-3.158,12.117,0
			c0.754,0.829,1.36,1.782,1.792,2.817c1.124,2.624,0.847,5.638-0.737,8.013C260.531,262.147,257.855,263.562,255.001,263.534z"/>
	</g>
	<g>
		<path d="M51.201,324.267H20.734c-2.733-0.002-5.302,1.306-6.909,3.517c-1.606,2.212-2.056,5.059-1.208,7.658
			c34.386,105.31,132.602,176.559,243.383,176.559s208.997-71.249,243.383-176.559c0.848-2.599,0.398-5.446-1.208-7.658
			c-1.606-2.212-4.176-3.519-6.909-3.517h-30.467c-32.973-0.04-59.693-26.76-59.733-59.733v-17.067
			c0.04-32.973,26.76-59.693,59.733-59.733h30.467c2.733,0.002,5.302-1.306,6.909-3.517c1.606-2.212,2.056-5.059,1.208-7.658
			C464.998,71.249,366.782,0,256,0S47.003,71.249,12.617,176.559c-0.848,2.599-0.398,5.446,1.208,7.658
			c1.606,2.212,4.175,3.519,6.909,3.517h30.467c32.973,0.04,59.693,26.76,59.733,59.733v17.067
			C110.894,297.507,84.174,324.227,51.201,324.267z M51.201,170.667H32.792c35.385-92.507,124.165-153.6,223.208-153.6
			s187.823,61.093,223.208,153.6h-18.408c-42.396,0.046-76.754,34.404-76.8,76.8v17.067c0.046,42.396,34.404,76.754,76.8,76.8
			h18.408c-35.385,92.507-124.165,153.6-223.208,153.6s-187.823-61.093-223.208-153.6h18.408c42.396-0.046,76.754-34.404,76.8-76.8
			v-17.067C127.954,205.071,93.597,170.714,51.201,170.667z"/>
		<path d="M145.067,264.534c-0.156,44.318-31.154,82.547-74.483,91.858c-2.689,0.566-4.941,2.393-6.05,4.907
			c-1.109,2.515-0.938,5.409,0.458,7.776c39.998,67.442,112.598,108.792,191.008,108.792s151.01-41.35,191.008-108.792
			c1.396-2.367,1.566-5.262,0.458-7.776c-1.109-2.515-3.36-4.341-6.05-4.907c-43.329-9.311-74.327-47.54-74.483-91.859v-17.067
			c0.156-44.318,31.154-82.547,74.483-91.858c2.689-0.566,4.941-2.393,6.05-4.907c1.109-2.515,0.938-5.409-0.458-7.776
			C407.011,75.484,334.411,34.134,256.001,34.134s-151.01,41.35-191.008,108.792c-1.396,2.367-1.566,5.262-0.458,7.776
			c1.109,2.515,3.36,4.341,6.05,4.907c43.329,9.311,74.327,47.54,74.483,91.858V264.534z M85.701,369.976
			c45.484-15.078,76.253-57.524,76.433-105.442h43.437c1.279,7.6,4.268,14.811,8.743,21.086l-109.04,109.04
			C98.116,386.955,91.571,378.702,85.701,369.976z M256.001,221.867c18.851,0,34.133,15.282,34.133,34.133
			s-15.282,34.133-34.133,34.133s-34.133-15.282-34.133-34.133C221.886,237.157,237.157,221.886,256.001,221.867z M226.381,297.687
			c6.276,4.474,13.486,7.463,21.086,8.743v154.102c-48.354-2.075-94.432-21.12-130.139-53.792L226.381,297.687z M264.534,306.43
			c7.6-1.279,14.811-4.269,21.086-8.743L394.673,406.74c-35.707,32.671-81.785,51.717-130.139,53.792V306.43z M285.62,214.314
			c-6.276-4.474-13.486-7.463-21.086-8.743V51.469c48.354,2.075,94.432,21.12,130.139,53.792L285.62,214.314z M247.467,205.571
			c-7.6,1.279-14.811,4.269-21.086,8.743L117.328,105.261c35.707-32.671,81.785-51.717,130.139-53.792V205.571z M426.3,369.976
			c-5.871,8.726-12.415,16.98-19.574,24.684L297.687,285.62c4.474-6.276,7.464-13.486,8.743-21.086h43.437
			C350.048,312.451,380.816,354.898,426.3,369.976z M426.3,142.026c-45.484,15.078-76.253,57.524-76.433,105.442H306.43
			c-1.279-7.6-4.268-14.811-8.743-21.086l109.04-109.04C413.885,125.046,420.43,133.299,426.3,142.026z M85.7,142.026
			c5.871-8.726,12.415-16.98,19.574-24.684l109.04,109.04c-4.474,6.276-7.464,13.486-8.743,21.086h-43.437
			C161.954,199.55,131.185,157.103,85.7,142.026L85.7,142.026z"/>
		<path d="M194.917,416.159c13.044,5.458,28.042-0.691,33.501-13.734c5.459-13.043-0.688-28.042-13.731-33.503
			c-13.043-5.46-28.042,0.686-33.504,13.728l-0.009,0.009C175.752,395.705,181.895,410.68,194.917,416.159z M196.926,389.242
			c1.821-4.346,6.82-6.394,11.167-4.575c4.347,1.819,6.397,6.818,4.579,11.165s-6.815,6.4-11.163,4.584
			C197.173,398.582,195.127,393.594,196.926,389.242z"/>
		<path d="M330.892,382.834c-5.398-13.025-20.312-19.233-33.358-13.886c-13.046,5.347-19.313,20.236-14.017,33.303l0.009,0.009
			c5.371,13.069,20.316,19.314,33.388,13.953C329.987,410.851,336.244,395.911,330.892,382.834L330.892,382.834z M315.076,395.834
			c-1.571,3.76-5.58,5.885-9.574,5.076c-3.994-0.809-6.859-4.327-6.844-8.402s2.908-7.571,6.908-8.349
			c4-0.778,7.992,1.378,9.534,5.149C315.964,391.4,315.955,393.749,315.076,395.834z"/>
		<path d="M317.084,95.842c-13.042-5.455-28.037,0.694-33.494,13.734c-5.457,13.041,0.689,28.037,13.729,33.497
			c13.04,5.46,28.037-0.684,33.499-13.723l0.009-0.009C336.25,116.297,330.106,101.321,317.084,95.842z M315.076,122.759
			c-1.822,4.345-6.82,6.392-11.165,4.572c-4.346-1.819-6.395-6.816-4.578-11.163c1.817-4.347,6.813-6.399,11.161-4.584
			C314.836,113.412,316.885,118.407,315.076,122.759z"/>
		<path d="M181.109,129.167c5.398,13.025,20.312,19.233,33.358,13.886c13.046-5.347,19.313-20.236,14.017-33.302l-0.009-0.009
			c-5.371-13.069-20.316-19.314-33.388-13.953C182.014,101.151,175.758,116.09,181.109,129.167L181.109,129.167z M196.926,116.167
			c0.868-2.091,2.537-3.747,4.634-4.6c2.094-0.864,4.446-0.855,6.533,0.025c2.089,0.863,3.744,2.529,4.592,4.625
			c1.468,3.572,0.353,7.684-2.717,10.026s-7.331,2.328-10.387-0.033C196.524,123.849,195.435,119.73,196.926,116.167
			L196.926,116.167z"/>
		<path d="M256.001,264.534c2.855,0.03,5.532-1.385,7.115-3.761c1.584-2.376,1.86-5.39,0.735-8.014
			c-0.432-1.035-1.038-1.987-1.792-2.817c-3.421-3.158-8.695-3.158-12.117,0c-0.754,0.829-1.36,1.782-1.792,2.817
			c-0.48,1.012-0.714,2.122-0.683,3.242c-0.022,2.27,0.87,4.453,2.475,6.058C251.547,263.664,253.731,264.556,256.001,264.534z"/>
	</g>
</g>
<g>
</g>
<g>
</g>
<g>
</g>
<g>
</g>
<g>
</g>
<g>
</g>
<g>
</g>
<g>
</g>
<g>
</g>
<g>
</g>
<g>
</g>
<g>
</g>
<g>
</g>
<g>
</g>
<g>
</g>
</svg>
