<?xml version="1.0" encoding="iso-8859-1"?>
<!-- Generator: Adobe Illustrator 19.0.0, SVG Export Plug-In . SVG Version: 6.00 Build 0)  -->
<svg version="1.1" id="Capa_1" xmlns="http://www.w3.org/2000/svg" xmlns:xlink="http://www.w3.org/1999/xlink" x="0px" y="0px"
	 viewBox="0 0 512.054 512.054" style="enable-background:new 0 0 512.054 512.054;" xml:space="preserve">
<g transform="translate(0 -1)">
	<g transform="translate(1 1)">
		<path style="fill:#795548;" d="M485.427,213.387H314.761l-42.667,8.533l-42.667-8.533L33.075,228.491
			c-14.4,1.112-25.517,13.12-25.517,27.563s11.117,26.451,25.517,27.563l196.352,15.104l42.667-8.533l42.667,8.533h170.667
			c9.414-0.028,17.039-7.653,17.067-17.067v-51.2C502.467,221.04,494.842,213.415,485.427,213.387z"/>
		<polygon style="fill:#4E342E;" points="314.761,213.387 314.761,298.721 272.094,290.187 229.427,298.721 229.427,213.387 
			272.094,221.921 		"/>
		<path style="fill:#5E5F62;" d="M337.807,482.021c-2.502,0.004-4.88-1.093-6.5-3L146.132,261.587
			c-2.717-3.189-2.717-7.878,0-11.067L331.39,33.087c3.067-3.542,8.418-3.949,11.985-0.91c3.567,3.039,4.017,8.385,1.007,11.977
			l-180.546,211.9l180.463,211.9c2.16,2.532,2.65,6.089,1.255,9.111S341.135,482.021,337.807,482.021L337.807,482.021z"/>
		<g>
			<path style="fill:#FEC108;" d="M468.373,213.387c0-133.205-106.069-199.509-110.592-202.325
				c-8.059-4.901-18.565-2.342-23.467,5.717c-4.901,8.059-2.342,18.565,5.717,23.467c0.939,0.512,94.208,58.88,94.208,173.141
				H468.373z"/>
			<path style="fill:#FEC108;" d="M468.373,298.721c0,133.205-106.069,199.509-110.592,202.325
				c-2.666,1.644-5.742,2.502-8.875,2.475c-7.633,0.01-14.343-5.053-16.427-12.396c-2.084-7.343,0.966-15.176,7.467-19.177
				c18.475-12.277,34.867-27.43,48.555-44.885c29.624-36.207,45.787-81.56,45.739-128.341H468.373z"/>
		</g>
	</g>
	<path d="M486.427,205.854h-8.72C473.463,77.249,374.773,11.971,363.207,4.771c-9.971-6.123-22.829-4.675-31.187,3.514
		S321.95,29.3,327.868,39.394L182.951,209.48l-149.52,11.499c-18.85,1.451-33.404,17.17-33.404,36.075s14.555,34.624,33.404,36.075
		l149.503,11.498L327.81,474.742c-4.6,7.894-4.621,17.646-0.057,25.561s13.017,12.779,22.153,12.751
		c4.727,0.025,9.367-1.281,13.388-3.767c11.481-7.151,110.169-72.428,114.414-201.033h8.72c14.132-0.015,25.585-11.468,25.6-25.6
		v-51.2C512.012,217.322,500.559,205.87,486.427,205.854z M342.598,22.229c2.446-3.989,7.633-5.289,11.671-2.925
		c10.656,6.643,102.149,67.16,106.372,186.55h-17.08c-4.493-113.986-97.49-171.583-98.079-171.892
		C341.463,31.505,340.176,26.269,342.598,22.229z M340.354,51.054c16.349,11.454,82.224,63.216,86.141,154.8H315.761
		c-0.277,0.041-0.553,0.096-0.824,0.167c-0.283-0.015-0.568-0.015-0.851,0l-40.992,8.2l-40.992-8.2
		c-0.427-0.035-0.856-0.036-1.283-0.001c-0.346-0.067-0.695-0.114-1.046-0.141l-22.831,1.756L340.354,51.054z M307.227,289.312
		l-32.458-6.492c-1.106-0.217-2.244-0.217-3.35,0l-32.458,6.492v-23.725h68.267V289.312z M221.894,248.521h-49.787l19.228-22.567
		l30.56-2.35V248.521z M221.894,265.587v24.917l-30.573-2.351l-19.218-22.566H221.894z M238.961,248.521v-23.725l32.458,6.492
		c1.106,0.222,2.244,0.222,3.35,0l32.458-6.492v23.725H238.961z M34.74,276.112c-9.959-0.766-17.648-9.07-17.648-19.058
		c0-9.988,7.69-18.292,17.648-19.058l132.603-10.197l-20.211,23.722c-0.47,0.808-0.94,1.615-1.41,2.423
		c-0.789,1.999-0.789,4.222,0,6.221c0.47,0.808,0.94,1.615,1.41,2.423l20.202,23.721L34.74,276.112z M229.773,308.229
		c0.217,0.016,0.438,0.025,0.654,0.025c0.294-0.039,0.586-0.094,0.875-0.165c0.267,0.013,0.534,0.012,0.8-0.002l40.992-8.2
		l40.992,8.2c0.549,0.111,1.107,0.167,1.667,0.165l0.008,0.002H426.36c-1.651,41.883-16.934,82.081-43.524,114.483
		c-12.217,15.376-26.526,28.968-42.509,40.38L206.922,306.472L229.773,308.229z M354.252,494.812
		c-4.045,2.205-9.106,0.941-11.638-2.908c-2.452-3.986-1.216-9.204,2.763-11.667c19.334-12.781,36.482-28.595,50.783-46.833
		c28.84-35.526,45.417-79.428,47.255-125.15h17.226C456.418,427.65,364.925,488.161,354.252,494.812z M494.961,282.654
		c-0.003,4.712-3.822,8.53-8.533,8.533H324.294v-25.6h128c4.713,0,8.533-3.82,8.533-8.533c0-4.713-3.821-8.533-8.533-8.533h-128
		v-25.6h162.133c4.712,0.003,8.53,3.822,8.533,8.533V282.654z"/>
</g>
<g>
</g>
<g>
</g>
<g>
</g>
<g>
</g>
<g>
</g>
<g>
</g>
<g>
</g>
<g>
</g>
<g>
</g>
<g>
</g>
<g>
</g>
<g>
</g>
<g>
</g>
<g>
</g>
<g>
</g>
</svg>
