<?xml version="1.0" encoding="iso-8859-1"?>
<!-- Generator: Adobe Illustrator 19.0.0, SVG Export Plug-In . SVG Version: 6.00 Build 0)  -->
<svg version="1.1" id="Capa_1" xmlns="http://www.w3.org/2000/svg" xmlns:xlink="http://www.w3.org/1999/xlink" x="0px" y="0px"
	 viewBox="0 0 512 512" style="enable-background:new 0 0 512 512;" xml:space="preserve">
<g>
	<g transform="translate(1 1)">
		<g>
			<path style="fill:#F44335;" d="M114.371,230.083c5.188,3.658,10.667,6.883,16.384,9.643c-3.252,3.857-6.272,7.903-9.045,12.117
				l-7.765,11.691c0,0-80.811-23.296-80.811-128s80.811-128,80.811-128l7.765,11.691c2.773,4.214,5.794,8.26,9.045,12.117
				c-5.716,2.76-11.196,5.985-16.384,9.642c-30.854,21.373-48.627,57.047-47.104,94.55
				C65.744,173.036,83.516,208.71,114.371,230.083z"/>
			<path style="fill:#F44335;" d="M130.755,31.341c-4.9,4.017-8.15,9.697-9.131,15.957c-2.475-1.963-4.949-4.096-7.253-6.315
				C119.559,37.326,125.038,34.101,130.755,31.341z"/>
			<path style="fill:#F44335;" d="M476.867,135.533c0,104.704-80.811,128-80.811,128l-7.765-11.691
				c-2.773-4.214-5.794-8.26-9.045-12.117c40.2-18.791,65.219-59.85,63.488-104.192c1.731-44.342-23.288-85.4-63.488-104.192
				c3.252-3.857,6.272-7.903,9.045-12.117l7.765-11.691C396.056,7.533,476.867,30.829,476.867,135.533z"/>
		</g>
		<g>
			<path style="fill:#607D8B;" d="M130.755,31.341c-4.9,4.017-8.15,9.697-9.131,15.957c-2.475-1.963-4.949-4.096-7.253-6.315
				C119.559,37.326,125.038,34.101,130.755,31.341z"/>
			<path style="fill:#607D8B;" d="M442.733,135.533c1.731,44.342-23.288,85.401-63.488,104.192h-0.085
				c-2.867-3.377-5.915-6.595-9.131-9.643c7.923-5.534,15.094-12.074,21.333-19.455v-0.085l0.085-0.085
				c17.39-21.019,26.522-47.656,25.685-74.923c0.836-27.267-8.295-53.904-25.685-74.923l-0.085-0.085V60.44
				c-6.239-7.381-13.41-13.921-21.333-19.456c3.265-3.024,6.343-6.244,9.216-9.643C419.446,50.133,444.464,91.192,442.733,135.533z"
				/>
			<rect x="229.4" y="75.8" style="fill:#607D8B;" width="51.2" height="119.467"/>
		</g>
		<g>
			<path style="fill:#CFD8DC;" d="M229.4,75.8v119.467c-37.795-0.406-73.85,15.858-98.56,44.459h-0.085
				c-5.717-2.759-11.196-5.985-16.384-9.643c-30.854-21.372-48.627-57.047-47.104-94.549c-1.523-37.503,16.25-73.177,47.104-94.55
				c2.304,2.219,4.779,4.352,7.253,6.315c0.981-6.26,4.231-11.94,9.131-15.957C155.51,59.93,191.584,76.189,229.4,75.8z"/>
			<path style="fill:#CFD8DC;" d="M417.133,135.533c0.836,27.267-8.295,53.904-25.685,74.923l-0.085,0.085v0.085
				c-6.239,7.381-13.41,13.921-21.333,19.456c-24.249-22.632-56.26-35.095-89.429-34.816V75.8
				c33.169,0.279,65.18-12.184,89.429-34.817c7.923,5.535,15.094,12.075,21.333,19.456v0.085l0.085,0.085
				C408.838,81.629,417.97,108.266,417.133,135.533z"/>
			<path style="fill:#CFD8DC;" d="M280.6,73.325v124.416c-8.434-1.643-17.007-2.471-25.6-2.475h-25.6V75.8H255
				C263.593,75.796,272.166,74.968,280.6,73.325z"/>
		</g>
		<path style="fill:#795548;" d="M280.6,24.6v332.8h-51.2V24.6c0.028-9.414,7.652-17.039,17.067-17.067h17.067
			C272.948,7.561,280.573,15.186,280.6,24.6z"/>
		<path style="fill:#4E342E;" d="M229.4,331.8h51.2c4.713,0,8.533,3.82,8.533,8.533v153.6c0,4.713-3.821,8.533-8.533,8.533h-51.2
			c-4.713,0-8.533-3.821-8.533-8.533v-153.6C220.867,335.621,224.687,331.8,229.4,331.8z"/>
	</g>
	<path d="M264.533,0h-17.067c-14.132,0.015-25.585,11.468-25.6,25.6v42.156c-37.157-2.042-71.217-21.358-92.042-52.198
		l-7.758-11.733c-2.059-3.108-5.896-4.521-9.479-3.492c-0.871,0.25-86.988,26.325-86.988,136.2s86.117,135.95,86.988,136.2
		c3.583,1.032,7.422-0.382,9.479-3.492l7.758-11.733c20.825-30.84,54.885-50.156,92.042-52.198v121.33
		c-5.262,3.025-8.513,8.624-8.533,14.693v153.6c0.011,9.421,7.645,17.056,17.067,17.067h51.2
		c9.421-0.011,17.056-7.645,17.067-17.067v-153.6c-0.02-6.069-3.272-11.668-8.533-14.693V205.31
		c37.157,2.042,71.217,21.358,92.042,52.198l7.758,11.733c2.058,3.11,5.896,4.524,9.479,3.492
		c0.871-0.25,86.988-26.325,86.988-136.2s-86.117-135.95-86.988-136.2c-3.583-1.028-7.419,0.385-9.479,3.492l-7.758,11.733
		c-20.825,30.84-54.885,50.156-92.042,52.198V25.6C290.118,11.468,278.665,0.015,264.533,0z M238.933,25.6
		c0.005-4.711,3.822-8.529,8.533-8.533h17.067c4.711,0.005,8.529,3.822,8.533,8.533v298.667h-34.133V25.6z M111.546,254.208
		c-17.646-7.391-68.879-35.9-68.879-117.675c0-81.792,51.262-110.3,68.879-117.675l4.046,6.117c1.051,1.588,2.177,3.109,3.29,4.643
		C80.777,51.445,57.978,92.656,59.733,136.533c-1.755,43.878,21.044,85.089,59.148,106.916c-1.112,1.534-2.239,3.055-3.29,4.643
		L111.546,254.208z M129.946,230.123c-34.125-18.497-54.744-54.807-53.146-93.59c-1.602-38.783,19.019-75.095,53.148-93.586
		c24.17,25.217,57.038,40.282,91.919,42.13v102.912C186.984,189.838,154.116,204.904,129.946,230.123z M230.4,494.933v-153.6h51.2
		l0.012,153.6H230.4z M400.454,18.859c17.646,7.391,68.879,35.9,68.879,117.675c0,81.792-51.262,110.3-68.879,117.675l-4.046-6.117
		c-1.051-1.587-2.177-3.108-3.29-4.643c38.104-21.827,60.903-63.038,59.148-106.915c1.755-43.878-21.044-85.089-59.148-106.916
		c1.112-1.534,2.239-3.055,3.29-4.643L400.454,18.859z M382.052,42.947c34.129,18.492,54.75,54.803,53.148,93.586
		c1.596,38.782-19.019,75.091-53.139,93.596c-24.171-25.223-57.042-40.291-91.928-42.14V85.077
		C325.014,83.229,357.882,68.164,382.052,42.947z"/>
</g>
<g>
</g>
<g>
</g>
<g>
</g>
<g>
</g>
<g>
</g>
<g>
</g>
<g>
</g>
<g>
</g>
<g>
</g>
<g>
</g>
<g>
</g>
<g>
</g>
<g>
</g>
<g>
</g>
<g>
</g>
</svg>
