<?xml version="1.0" encoding="iso-8859-1"?>
<!-- Generator: Adobe Illustrator 19.0.0, SVG Export Plug-In . SVG Version: 6.00 Build 0)  -->
<svg version="1.1" id="Capa_1" xmlns="http://www.w3.org/2000/svg" xmlns:xlink="http://www.w3.org/1999/xlink" x="0px" y="0px"
	 viewBox="0 0 504.231 504.231" style="enable-background:new 0 0 504.231 504.231;" xml:space="preserve">
<g>
	<g transform="translate(0 1)">
		
			<rect x="407.66" y="357.374" transform="matrix(-0.7071 0.7071 -0.7071 -0.7071 1023.5474 421.6523)" style="fill:#795548;" width="33.574" height="130.871"/>
		<g>
			<polygon style="fill:#607D8B;" points="251.805,191.27 192.379,250.528 186,244.232 14.354,73.006 8.395,7.705 73.696,13.665 
				245.426,184.975 			"/>
			<polygon style="fill:#607D8B;" points="412.035,351.081 394.241,368.875 370.488,392.628 352.694,410.423 338.677,396.406 
				251.805,309.869 245.426,303.49 192.379,250.528 251.805,191.27 304.851,244.232 311.23,250.528 398.018,337.064 			"/>
		</g>
		<circle style="fill:#FFEB3A;" cx="470.034" cy="468.43" r="25.18"/>
		<g>
			<path style="fill:#795548;" d="M123.469,402.365l-5.204,5.204h-0.084l-59.51,59.509c-0.312-6.199-2.914-12.061-7.302-16.451
				c-4.325-4.432-10.18-7.044-16.367-7.303l59.426-59.508l5.288-5.205L123.469,402.365z"/>
			<path style="fill:#795548;" d="M51.369,450.627c4.388,4.39,6.99,10.252,7.302,16.451l-13.933,13.933l-23.67-23.753l13.933-13.934
				C41.189,443.583,47.044,446.195,51.369,450.627z"/>
			<polygon style="fill:#795548;" points="137.318,388.432 136.982,388.768 123.469,402.365 99.716,378.611 113.229,365.014 
				113.565,364.678 			"/>
		</g>
		<polygon style="fill:#607D8B;" points="495.215,7.705 489.255,73.006 311.23,250.528 251.805,309.869 165.016,396.489 
			154.86,406.562 148.481,400.183 136.982,388.768 113.229,365.014 95.435,347.22 105.591,337.148 105.591,337.064 192.379,250.528 
			251.805,191.27 418.75,24.828 429.914,13.665 		"/>
		<path style="fill:#CFD8DC;" d="M470.034,20.128l-5.959,65.301L304.851,244.232l-59.426,59.258l-86.788,86.621l-10.156,10.072
			l-13.597,13.597l-11.415-11.415l-23.753-23.754l-23.753-23.753c-0.164-0.146-0.305-0.316-0.42-0.503l23.67-23.586
			c0.159,0.085,0.302,0.199,0.42,0.336l5.959,5.959l86.788-86.537l59.426-59.257L418.75,24.828L470.034,20.128z"/>
		<g>
			<path style="fill:#FFEB3A;" d="M58.672,467.078c0.437,7.133-2.224,14.108-7.302,19.137c-8.173,8.196-20.882,9.76-30.798,3.791
				c-9.916-5.97-14.482-17.934-11.063-28.992s13.939-18.358,25.494-17.69c6.187,0.259,12.042,2.871,16.367,7.303
				C55.757,455.017,58.359,460.879,58.672,467.078z"/>
			<path style="fill:#FFEB3A;" d="M170.892,426.034c-3.14,3.169-7.416,4.952-11.877,4.952c-4.461,0-8.737-1.783-11.877-4.952
				l-12.254-12.254l-11.415-11.415l-23.753-23.754l-23.753-23.753c-0.164-0.146-0.305-0.316-0.42-0.503
				c-4.523-4.89-5.73-11.991-3.075-18.1c2.655-6.109,8.669-10.073,15.33-10.103c4.263-0.016,8.362,1.642,11.415,4.616
				c0.159,0.085,0.302,0.199,0.42,0.336l5.959,5.959v0.084l53.047,52.963l6.379,6.379l5.875,5.875
				c3.144,3.136,4.911,7.394,4.911,11.835C175.802,418.64,174.036,422.898,170.892,426.034z"/>
			<path style="fill:#FFEB3A;" d="M427.627,354.828l-71.221,71.221c-6.556,6.556-17.185,6.556-23.74,0l0,0
				c-6.556-6.556-6.556-17.185,0-23.74l71.221-71.221c6.556-6.556,17.185-6.556,23.74,0l0,0
				C434.183,337.644,434.183,348.273,427.627,354.828z"/>
		</g>
	</g>
	<path d="M472.628,436.41l-56.821-56.814l17.809-17.809c6.361-6.361,8.844-15.633,6.515-24.322
		c-2.329-8.689-9.116-15.476-17.805-17.803c-8.689-2.328-17.96,0.157-24.321,6.518l-0.01,0.01l-74.872-74.66L495.206,79.935
		c1.394-1.388,2.255-3.222,2.434-5.18l5.934-65.287c0.226-2.482-0.663-4.935-2.426-6.696c-1.755-1.771-4.211-2.661-6.693-2.426
		l-65.287,5.934c-1.952,0.178-3.78,1.033-5.168,2.418L251.8,180.414L79.62,8.722c-1.386-1.384-3.213-2.239-5.164-2.418L9.157,0.344
		C6.675,0.12,4.222,1.009,2.46,2.771S-0.19,6.986,0.034,9.468l5.959,65.303c0.179,1.959,1.041,3.792,2.434,5.18L180.49,251.523
		l-74.878,74.666l-0.008-0.008c-9.832-9.834-25.775-9.834-35.609-0.002c-9.834,9.832-9.834,25.775-0.002,35.609l17.809,17.809
		L30.981,436.41c-7.934,0.451-15.44,3.745-21.143,9.279c-13.11,13.11-13.11,34.365,0,47.475s34.365,13.11,47.475,0
		c5.718-5.745,9.138-13.383,9.615-21.475l56.482-56.486l17.805,17.805c6.359,6.362,15.63,8.849,24.319,6.522
		c8.689-2.326,15.478-9.111,17.808-17.8c2.33-8.688-0.152-17.96-6.511-24.322l74.979-74.766l74.976,74.753l-0.006,0.006
		c-9.832,9.835-9.831,25.778,0.004,35.611c9.835,9.832,25.778,9.831,35.611-0.004l17.805-17.805l56.482,56.486
		c0.838,18.157,15.889,32.399,34.064,32.233c18.176-0.166,32.964-14.68,33.471-32.849
		C504.724,452.903,490.767,437.588,472.628,436.41z M45.444,481.295c-6.641,6.344-17.097,6.344-23.738,0
		c-4.802-4.801-6.239-12.021-3.641-18.295c2.598-6.273,8.719-10.364,15.509-10.364s12.911,4.09,15.509,10.364
		C51.683,469.274,50.246,476.494,45.444,481.295z M62.411,452.467c-1.406-2.466-3.119-4.743-5.098-6.778
		c-2.042-1.98-4.346-3.67-6.847-5.025l49.203-49.197l11.869,11.869L62.411,452.467z M22.436,70.213l-4.766-52.23l52.242,4.762
		l170.002,169.52l-47.538,47.405L22.436,70.213z M198.302,257.463l0.019-0.012l0.012-0.018l59.38-59.213l0.034-0.023l0.022-0.033
		L433.706,22.722l52.238-4.746l-4.746,52.221l-175.876,175.38l-0.034,0.022l-0.022,0.033l-59.382,59.215l-0.022,0.014l-0.014,0.021
		l-80.885,80.657l-17.357-17.357l76.559-76.56c3.227-3.286,3.203-8.558-0.054-11.815c-3.257-3.257-8.529-3.28-11.815-0.054
		l-76.559,76.559l-18.256-18.256L198.302,257.463z M164.956,421.14c-3.28,3.275-8.593,3.275-11.873,0l-71.221-71.221
		c-3.259-3.282-3.25-8.582,0.021-11.852c3.271-3.27,8.571-3.278,11.852-0.017l35.609,35.611l0.392,0.391l0.053,0.08l0.079,0.053
		l29.15,29.152h0.001l5.933,5.934C168.222,412.551,168.224,417.857,164.956,421.14z M263.695,310.791l47.542-47.408l74.889,74.676
		l-18.255,18.253l-34.591-34.591c-3.286-3.227-8.558-3.203-11.815,0.053c-3.257,3.257-3.28,8.529-0.053,11.815l34.591,34.591
		l-17.347,17.345L263.695,310.791z M350.526,421.14c-3.279,3.268-8.585,3.264-11.86-0.009c-3.274-3.273-3.28-8.579-0.013-11.86
		l5.886-5.885l0.073-0.049l29.203-29.201l0.006-0.004l0.004-0.006L403.953,344l0.058-0.086l5.864-5.865
		c3.277-3.279,8.592-3.28,11.871-0.002c3.279,3.277,3.28,8.592,0.002,11.871L350.526,421.14z M403.94,391.467l49.203,49.197
		c-2.501,1.354-4.805,3.045-6.847,5.025c-1.98,2.035-3.693,4.312-5.098,6.779l-49.127-49.131L403.94,391.467z M481.903,481.295
		c-6.641,6.344-17.097,6.344-23.738,0c-4.802-4.801-6.239-12.021-3.641-18.295c2.598-6.273,8.719-10.364,15.509-10.364
		c6.79,0,12.911,4.09,15.509,10.364C488.142,469.274,486.705,476.495,481.903,481.295z"/>
</g>
<g>
</g>
<g>
</g>
<g>
</g>
<g>
</g>
<g>
</g>
<g>
</g>
<g>
</g>
<g>
</g>
<g>
</g>
<g>
</g>
<g>
</g>
<g>
</g>
<g>
</g>
<g>
</g>
<g>
</g>
</svg>
