<?xml version="1.0" encoding="iso-8859-1"?>
<!-- Generator: Adobe Illustrator 19.0.0, SVG Export Plug-In . SVG Version: 6.00 Build 0)  -->
<svg version="1.1" id="Capa_1" xmlns="http://www.w3.org/2000/svg" xmlns:xlink="http://www.w3.org/1999/xlink" x="0px" y="0px"
	 viewBox="0 0 512.001 512.001" style="enable-background:new 0 0 512.001 512.001;" xml:space="preserve">
<g>
	<g transform="translate(1 1)">
		<g>
			
				<rect x="45.016" y="356.801" transform="matrix(-0.7071 0.7071 -0.7071 -0.7071 483.6628 573.5935)" style="fill:#607D8B;" width="156.041" height="60.331"/>
			<polygon style="fill:#607D8B;" points="502.468,7.533 473.284,153.453 225.22,343.149 225.22,343.234 212.334,357.399 
				152.601,297.666 166.766,284.781 166.852,284.781 353.476,40.727 356.548,36.717 			"/>
		</g>
		<polygon style="fill:#CFD8DC;" points="476.868,16.066 447.684,161.986 218.905,336.919 203.545,348.61 199.62,351.682 
			198.852,352.45 188.1,364.482 186.734,365.933 127.001,306.199 128.452,304.834 141.252,293.314 156.014,274.029 166.766,284.781 
			166.852,284.781 353.476,40.727 		"/>
		<g>
			<path style="fill:#FFEB3A;" d="M115.735,467.234l-72.969-72.969c-8.06-8.06-21.128-8.06-29.187,0
				c-8.06,8.06-8.06,21.128,0,29.187l7.297,7.297c-16.102,16.123-16.094,42.244,0.019,58.356
				c16.112,16.112,42.233,16.121,58.356,0.019l7.297,7.297c8.06,8.06,21.127,8.06,29.187,0
				C123.795,488.362,123.795,475.294,115.735,467.234z"/>
			<path style="fill:#FFEB3A;" d="M298.18,445.379c-13.203,13.212-33.635,15.906-49.811,6.568s-24.062-28.378-19.224-46.419
				l-40.96-40.96l-83.712-83.712c-18.044,4.835-37.086-3.052-46.426-19.23s-6.65-36.612,6.559-49.821
				c13.209-13.209,33.643-15.899,49.821-6.559s24.065,28.382,19.23,46.426l22.357,22.357l10.752,10.752l52.139,52.139l39.424,39.424
				c18.041-4.838,37.082,3.047,46.42,19.224C314.087,411.744,311.392,432.176,298.18,445.379L298.18,445.379z"/>
		</g>
	</g>
	<path d="M8.543,430.483l1.779,1.775c-13.936,19.807-11.609,46.767,5.516,63.893s44.084,19.457,63.893,5.523l1.783,1.783
		c11.393,11.392,29.864,11.391,41.256-0.002c11.392-11.393,11.391-29.864-0.002-41.256l-9.117-9.116l75.493-75.49l31.698,31.698
		c-3.362,21.293,7.345,42.335,26.538,52.15c19.193,9.816,42.52,6.181,57.817-9.009l0.017-0.017
		c15.277-15.269,18.969-38.646,9.14-57.88c-9.829-19.234-30.937-29.938-52.261-26.503l-22.984-22.983l240.355-183.808
		c1.646-1.256,2.778-3.069,3.183-5.1l29.188-145.933c0.56-2.798-0.316-5.691-2.333-7.708c-2.018-2.018-4.91-2.893-7.708-2.334
		L355.855,29.349c-2.032,0.406-3.846,1.537-5.104,3.183L166.95,272.897l-22.982-22.981c2.321-14.389-1.778-29.073-11.217-40.178
		c-9.439-11.106-23.27-17.518-37.845-17.547h-0.067c-13.235-0.04-25.936,5.221-35.266,14.608
		c-15.269,15.271-18.953,38.643-9.122,57.871s30.936,29.925,52.256,26.488l31.705,31.704l-75.493,75.487l-9.117-9.117
		c-11.391-11.393-29.861-11.395-41.254-0.004C-2.847,400.619-2.849,419.09,8.543,430.483L8.543,430.483z M362.355,45.449
		l130.233-26.042l-26.046,130.233L226.937,332.88l-17.876-17.874l183.69-183.69c3.332-3.332,3.332-8.735,0-12.067
		c-3.332-3.332-8.735-3.332-12.067,0l-183.69,183.69l-17.869-17.868L362.355,45.449z M105.472,273.324
		c-0.743-0.002-1.483,0.096-2.2,0.292c-14.313,3.841-29.42-2.414-36.829-15.248c-7.409-12.834-5.271-29.045,5.213-39.519
		c6.096-6.251,14.495-9.719,23.225-9.591c10.167,0.022,19.746,4.769,25.922,12.844c6.176,8.076,8.248,18.563,5.607,28.381
		c-0.779,2.941,0.066,6.074,2.217,8.225l124.671,124.667c2.149,2.151,5.281,2.996,8.221,2.217
		c14.311-3.848,29.421,2.4,36.835,15.231c7.414,12.831,5.28,29.043-5.202,39.519c-10.473,10.486-26.685,12.626-39.519,5.216
		c-12.835-7.41-19.088-22.52-15.243-36.832c0.784-2.943-0.059-6.08-2.213-8.233l-40.985-40.983l-0.011-0.017l-0.017-0.01
		l-42.636-42.635l-0.014-0.021l-0.021-0.014l-40.988-40.986C109.906,274.222,107.735,273.323,105.472,273.324z M146.477,334.927
		l30.601,30.599l-75.493,75.49l-30.6-30.6L146.477,334.927z M20.614,401.3c4.732-4.717,12.388-4.717,17.121,0l15.15,15.15
		l42.667,42.667l15.15,15.15c3.07,3.055,4.274,7.518,3.157,11.703s-4.385,7.454-8.569,8.573c-4.184,1.119-8.648-0.083-11.705-3.151
		l-7.296-7.3c-1.601-1.601-3.772-2.5-6.035-2.5s-4.435,0.899-6.035,2.5c-8.27,8.283-20.332,11.522-31.639,8.496
		s-20.138-11.858-23.165-23.165c-3.026-11.307,0.212-23.369,8.496-31.639c3.333-3.331,3.335-8.733,0.004-12.067l-7.3-7.3
		c-2.27-2.27-3.546-5.348-3.546-8.558S18.343,403.569,20.614,401.3L20.614,401.3z"/>
</g>
<g>
</g>
<g>
</g>
<g>
</g>
<g>
</g>
<g>
</g>
<g>
</g>
<g>
</g>
<g>
</g>
<g>
</g>
<g>
</g>
<g>
</g>
<g>
</g>
<g>
</g>
<g>
</g>
<g>
</g>
</svg>
