<?xml version="1.0" encoding="iso-8859-1"?>
<!-- Generator: Adobe Illustrator 19.0.0, SVG Export Plug-In . SVG Version: 6.00 Build 0)  -->
<svg version="1.1" id="Capa_1" xmlns="http://www.w3.org/2000/svg" xmlns:xlink="http://www.w3.org/1999/xlink" x="0px" y="0px"
	 viewBox="0 0 512 512" style="enable-background:new 0 0 512 512;" xml:space="preserve">
<g>
	<g transform="translate(1 1)">
		<g>
			<path style="fill:#C52828;" d="M135.533,75.8v358.4H50.2c-23.561-0.009-42.658-19.106-42.667-42.667V357.4
				c0.009-23.561,19.106-42.658,42.667-42.667c-23.561-0.009-42.658-19.106-42.667-42.667v-34.133
				c0.009-23.561,19.106-42.658,42.667-42.667C26.639,195.258,7.542,176.161,7.533,152.6v-34.133
				C7.542,94.906,26.639,75.809,50.2,75.8H135.533z"/>
			<path style="fill:#C52828;" d="M459.8,195.267c23.561,0.009,42.658,19.106,42.667,42.667v34.133
				c-0.009,23.561-19.106,42.658-42.667,42.667c23.561,0.009,42.658,19.106,42.667,42.667v34.133
				c-0.009,23.561-19.106,42.658-42.667,42.667h-68.267V314.733h-42.667v59.733c-0.028,9.414-7.653,17.039-17.067,17.067H195.267
				c-9.414-0.028-17.039-7.652-17.067-17.067V135.533c0.027-9.414,7.652-17.039,17.067-17.067H331.8
				c9.414,0.028,17.039,7.652,17.067,17.067v59.733h42.667V75.8H459.8c23.561,0.009,42.658,19.106,42.667,42.667V152.6
				C502.458,176.161,483.361,195.258,459.8,195.267z"/>
		</g>
		<g>
			<path style="fill:#F44335;" d="M391.533,314.733V434.2h-256V314.733H178.2v59.733c0.028,9.414,7.653,17.039,17.067,17.067H331.8
				c9.414-0.028,17.039-7.652,17.067-17.067v-59.733H391.533z"/>
			<path style="fill:#F44335;" d="M391.533,75.8v119.467h-42.667v-59.733c-0.028-9.414-7.652-17.039-17.067-17.067H195.267
				c-9.414,0.028-17.039,7.652-17.067,17.067v59.733h-42.667V75.8H391.533z"/>
			<path style="fill:#F44335;" d="M135.533,75.8v358.4H50.2c-23.561-0.009-42.658-19.106-42.667-42.667V357.4
				c0.009-23.561,19.106-42.658,42.667-42.667c-23.561-0.009-42.658-19.106-42.667-42.667v-34.133
				c0.009-23.561,19.106-42.658,42.667-42.667C26.639,195.258,7.542,176.161,7.533,152.6v-34.133
				C7.542,94.906,26.639,75.809,50.2,75.8H135.533z"/>
			<path style="fill:#F44335;" d="M442.733,194.413c-2.806,0.588-5.667,0.874-8.533,0.853c2.867-0.021,5.727,0.265,8.533,0.853
				c19.868,4.057,34.136,21.536,34.133,41.813v34.133c0.003,20.278-14.266,37.757-34.133,41.813
				c-2.806,0.588-5.667,0.874-8.533,0.853c2.867-0.021,5.727,0.265,8.533,0.853c19.868,4.057,34.136,21.536,34.133,41.813v34.133
				c0.003,20.278-14.266,37.757-34.133,41.813c-2.806,0.588-5.667,0.874-8.533,0.853h-42.667V314.733h-42.667v59.733
				c-0.028,9.414-7.653,17.039-17.067,17.067H195.267c-9.414-0.028-17.039-7.652-17.067-17.067V135.533
				c0.027-9.414,7.652-17.039,17.067-17.067H331.8c9.414,0.028,17.039,7.652,17.067,17.067v59.733h42.667V75.8H434.2
				c2.867-0.021,5.727,0.265,8.533,0.853c19.868,4.057,34.136,21.536,34.133,41.813V152.6
				C476.87,172.878,462.601,190.357,442.733,194.413z"/>
		</g>
		<g>
			<path style="fill:#C52828;" d="M135.533,195.267v119.467H50.2c-23.561-0.009-42.658-19.106-42.667-42.667v-34.133
				c0.009-23.561,19.106-42.658,42.667-42.667H135.533z"/>
			<path style="fill:#C52828;" d="M502.467,237.933v34.133c-0.009,23.561-19.106,42.658-42.667,42.667H178.2V195.267h281.6
				C483.361,195.275,502.458,214.373,502.467,237.933z"/>
		</g>
		<g>
			<rect x="135.533" y="195.267" style="fill:#F44335;" width="42.667" height="119.467"/>
			<path style="fill:#F44335;" d="M135.533,195.267v119.467H50.2c-23.561-0.009-42.658-19.106-42.667-42.667v-34.133
				c0.009-23.561,19.106-42.658,42.667-42.667H135.533z"/>
			<path style="fill:#F44335;" d="M476.867,237.933v34.133c0.003,20.278-14.266,37.757-34.133,41.813
				c-2.806,0.588-5.667,0.874-8.533,0.853l-256,0.001V195.266l256,0.001c2.867-0.021,5.727,0.265,8.533,0.853
				C462.601,200.177,476.869,217.656,476.867,237.933z"/>
		</g>
		<path style="fill:#37474F;" d="M195.267,118.467H331.8c9.426,0,17.067,7.641,17.067,17.067v238.933
			c0,9.426-7.641,17.067-17.067,17.067H195.267c-9.426,0-17.067-7.641-17.067-17.067V135.533
			C178.2,126.108,185.841,118.467,195.267,118.467z"/>
		<path style="fill:#607D8B;" d="M195.267,118.467H306.2c9.426,0,17.067,7.641,17.067,17.067v238.933
			c0,9.426-7.641,17.067-17.067,17.067H195.267c-9.426,0-17.067-7.641-17.067-17.067V135.533
			C178.2,126.108,185.841,118.467,195.267,118.467z"/>
		<path style="fill:#02A9F4;" d="M220.867,152.6H306.2c4.713,0,8.533,3.82,8.533,8.533v51.2c0,4.713-3.82,8.533-8.533,8.533h-85.333
			c-4.713,0-8.533-3.821-8.533-8.533v-51.2C212.333,156.421,216.154,152.6,220.867,152.6z"/>
		<g>
			<circle style="fill:#CFD8DC;" cx="229.4" cy="348.867" r="17.067"/>
			<circle style="fill:#CFD8DC;" cx="297.667" cy="348.867" r="17.067"/>
		</g>
		<g>
			<path style="fill:#9E9E9E;" d="M92.867,58.733H127c4.713,0,8.533,3.821,8.533,8.533v375.467c0,4.713-3.82,8.533-8.533,8.533
				H92.867c-4.713,0-8.533-3.821-8.533-8.533V67.267C84.333,62.554,88.154,58.733,92.867,58.733z"/>
			<path style="fill:#9E9E9E;" d="M400.067,58.733H434.2c4.713,0,8.533,3.821,8.533,8.533v375.467c0,4.713-3.821,8.533-8.533,8.533
				h-34.133c-4.713,0-8.533-3.821-8.533-8.533V67.267C391.533,62.554,395.354,58.733,400.067,58.733z"/>
		</g>
	</g>
	<g>
		<path d="M307.2,145.067h-85.333c-9.421,0.012-17.054,7.646-17.067,17.067v51.2c0.012,9.421,7.646,17.054,17.067,17.067H307.2
			c9.421-0.012,17.054-7.646,17.067-17.067v-51.2C324.254,152.713,316.621,145.079,307.2,145.067z M221.867,213.333v-51.2H307.2
			l0.017,51.2H221.867z"/>
		<path d="M256,179.2h-8.533c-4.713,0-8.533,3.821-8.533,8.533c0,4.713,3.821,8.533,8.533,8.533H256
			c4.713,0,8.533-3.821,8.533-8.533C264.533,183.021,260.713,179.2,256,179.2z"/>
		<path d="M289.45,184.492c-0.188-0.545-0.445-1.063-0.767-1.542l-1.025-1.275c-3.4-3.212-8.716-3.212-12.117,0
			c-1.561,1.634-2.446,3.799-2.475,6.059c-0.03,2.855,1.385,5.532,3.761,7.115c2.376,1.584,5.39,1.86,8.014,0.735
			c1.034-0.434,1.986-1.04,2.817-1.792c1.603-1.607,2.494-3.789,2.475-6.058c-0.013-0.546-0.072-1.089-0.175-1.625
			C289.882,185.545,289.71,184.998,289.45,184.492z"/>
		<path d="M213.333,256H230.4c4.713,0,8.533-3.82,8.533-8.533c0-4.713-3.821-8.533-8.533-8.533h-17.067
			c-4.713,0-8.533,3.821-8.533,8.533C204.8,252.18,208.621,256,213.333,256z"/>
		<path d="M256,256h17.067c4.713,0,8.533-3.82,8.533-8.533c0-4.713-3.82-8.533-8.533-8.533H256c-4.713,0-8.533,3.821-8.533,8.533
			C247.467,252.18,251.287,256,256,256z"/>
		<path d="M315.733,238.933h-17.067c-4.713,0-8.533,3.821-8.533,8.533c0,4.713,3.82,8.533,8.533,8.533h17.067
			c4.713,0,8.533-3.82,8.533-8.533C324.267,242.754,320.446,238.933,315.733,238.933z"/>
		<path d="M213.333,281.6H230.4c4.713,0,8.533-3.82,8.533-8.533s-3.821-8.533-8.533-8.533h-17.067c-4.713,0-8.533,3.82-8.533,8.533
			S208.621,281.6,213.333,281.6z"/>
		<path d="M256,281.6h17.067c4.713,0,8.533-3.82,8.533-8.533s-3.82-8.533-8.533-8.533H256c-4.713,0-8.533,3.82-8.533,8.533
			S251.287,281.6,256,281.6z"/>
		<path d="M315.733,264.533h-17.067c-4.713,0-8.533,3.82-8.533,8.533s3.82,8.533,8.533,8.533h17.067c4.713,0,8.533-3.82,8.533-8.533
			S320.446,264.533,315.733,264.533z"/>
		<path d="M213.333,307.2H230.4c4.713,0,8.533-3.82,8.533-8.533s-3.821-8.533-8.533-8.533h-17.067c-4.713,0-8.533,3.82-8.533,8.533
			S208.621,307.2,213.333,307.2z"/>
		<path d="M281.6,298.667c0.001-2.264-0.897-4.435-2.498-6.035c-1.601-1.601-3.772-2.499-6.035-2.498H256
			c-4.713,0-8.533,3.82-8.533,8.533s3.821,8.533,8.533,8.533h17.067c2.264,0.001,4.435-0.897,6.035-2.498
			C280.703,303.102,281.601,300.93,281.6,298.667z"/>
		<path d="M315.733,290.133h-17.067c-4.713,0-8.533,3.82-8.533,8.533s3.82,8.533,8.533,8.533h17.067c4.713,0,8.533-3.82,8.533-8.533
			S320.446,290.133,315.733,290.133z"/>
		<path d="M230.4,324.267c-14.138,0-25.6,11.462-25.6,25.6c0,14.138,11.462,25.6,25.6,25.6c14.139,0,25.6-11.462,25.6-25.6
			C255.985,335.735,244.532,324.282,230.4,324.267z M230.4,358.4c-4.713,0-8.533-3.821-8.533-8.533c0-4.713,3.82-8.533,8.533-8.533
			s8.533,3.821,8.533,8.533C238.93,354.578,235.112,358.397,230.4,358.4z"/>
		<path d="M298.667,324.267c-14.138,0-25.6,11.462-25.6,25.6c0,14.138,11.462,25.6,25.6,25.6c14.138,0,25.6-11.462,25.6-25.6
			C324.251,335.735,312.799,324.282,298.667,324.267z M298.667,358.4c-4.713,0-8.533-3.821-8.533-8.533
			c0-4.713,3.82-8.533,8.533-8.533s8.533,3.821,8.533,8.533C307.197,354.578,303.378,358.397,298.667,358.4z"/>
		<path d="M51.2,443.733h25.6c0.012,9.421,7.646,17.054,17.067,17.067H128c9.421-0.012,17.054-7.646,17.067-17.067H384
			c0.012,9.421,7.646,17.054,17.067,17.067H435.2c9.421-0.012,17.054-7.646,17.067-17.067h8.533
			c28.264-0.031,51.169-22.936,51.2-51.2V358.4c-0.009-17.174-8.631-33.198-22.958-42.667c14.327-9.469,22.949-25.493,22.958-42.667
			v-34.133c-0.009-17.174-8.631-33.198-22.958-42.667c14.327-9.469,22.949-25.493,22.958-42.667v-34.133
			c-0.031-28.264-22.936-51.169-51.2-51.2h-8.533c-0.012-9.421-7.646-17.054-17.067-17.067h-34.133
			c-9.421,0.012-17.054,7.646-17.067,17.067H145.067C145.054,58.846,137.421,51.212,128,51.2H93.867
			c-9.421,0.012-17.054,7.646-17.067,17.067H51.2C22.936,68.298,0.031,91.202,0,119.467V153.6
			c0.009,17.174,8.631,33.198,22.958,42.667C8.631,205.736,0.009,221.76,0,238.933v34.133c0.009,17.174,8.631,33.198,22.958,42.667
			C8.631,325.202,0.009,341.227,0,358.4v34.133C0.031,420.798,22.936,443.702,51.2,443.733z M384,307.2h-25.6V204.8H384V307.2z
			 M341.333,375.467c-0.003,4.712-3.822,8.53-8.533,8.533H196.267c-4.712-0.003-8.53-3.822-8.533-8.533V136.533
			c0.003-4.712,3.822-8.53,8.533-8.533H332.8c4.712,0.003,8.53,3.822,8.533,8.533V375.467z M170.667,307.2h-25.6V204.8h25.6V307.2z
			 M145.067,426.667v-102.4h25.6v51.2c0.015,14.132,11.468,25.585,25.6,25.6H332.8c14.132-0.015,25.585-11.468,25.6-25.6v-51.2H384
			v102.4H145.067z M494.933,358.4v34.133c-0.019,18.844-15.29,34.115-34.133,34.133h-8.533v-102.4h8.533
			C479.644,324.285,494.915,339.556,494.933,358.4z M494.933,238.933v34.133c-0.019,18.844-15.29,34.115-34.133,34.133h-8.533V204.8
			h8.533C479.644,204.819,494.915,220.09,494.933,238.933z M460.8,85.333c18.844,0.019,34.115,15.29,34.133,34.133V153.6
			c-0.019,18.844-15.29,34.115-34.133,34.133h-8.533v-102.4H460.8z M401.067,68.267H435.2l0.001,8.531L435.2,76.8l0.001,0.002
			l0.005,119.436l-0.006,0.028l0.006,0.028l0.005,119.384l-0.011,0.055l0.011,0.055l0.005,119.331L435.2,435.2l0.016,0.081
			l0.001,8.453h-34.15V68.267z M384,85.333v102.4h-25.6v-51.2c-0.015-14.132-11.468-25.585-25.6-25.6H196.267
			c-14.132,0.015-25.585,11.468-25.6,25.6v51.2h-25.6v-102.4H384z M93.867,68.267H128l0.001,8.531L128,76.8l0.001,0.002
			l0.005,119.436L128,196.267l0.006,0.028l0.005,119.384L128,315.733l0.011,0.055l0.005,119.331L128,435.2l0.016,0.081l0.001,8.453
			h-34.15V68.267z M17.067,153.6v-34.133c0.019-18.844,15.29-34.115,34.133-34.133h25.6v102.4H51.2
			C32.356,187.715,17.085,172.444,17.067,153.6z M17.067,273.067v-34.133c0.019-18.844,15.29-34.115,34.133-34.133h25.6v102.4H51.2
			C32.356,307.181,17.085,291.91,17.067,273.067z M17.067,358.4c0.019-18.844,15.29-34.115,34.133-34.133h25.6v102.4H51.2
			c-18.844-0.019-34.115-15.29-34.133-34.133V358.4z"/>
	</g>
</g>
<g>
</g>
<g>
</g>
<g>
</g>
<g>
</g>
<g>
</g>
<g>
</g>
<g>
</g>
<g>
</g>
<g>
</g>
<g>
</g>
<g>
</g>
<g>
</g>
<g>
</g>
<g>
</g>
<g>
</g>
</svg>
