<?xml version="1.0" encoding="iso-8859-1"?>
<!-- Generator: Adobe Illustrator 19.0.0, SVG Export Plug-In . SVG Version: 6.00 Build 0)  -->
<svg version="1.1" id="Capa_1" xmlns="http://www.w3.org/2000/svg" xmlns:xlink="http://www.w3.org/1999/xlink" x="0px" y="0px"
	 viewBox="0 0 512 512" style="enable-background:new 0 0 512 512;" xml:space="preserve">
<g>
	<g transform="translate(1 1)">
		<rect x="101.4" y="92.867" style="fill:#2E7D32;" width="307.2" height="332.8"/>
		<polygon style="fill:#4CAF50;" points="383,92.867 383,425.667 101.4,425.667 101.4,144.067 75.8,144.067 75.8,92.867 		"/>
		<path style="fill:#00695C;" d="M75.8,7.533h358.4c4.713,0,8.533,3.821,8.533,8.533v119.467c0,4.713-3.82,8.533-8.533,8.533H75.8
			c-4.713,0-8.533-3.821-8.533-8.533V16.067C67.267,11.354,71.087,7.533,75.8,7.533z"/>
		<path style="fill:#009688;" d="M75.8,7.533h332.8c4.713,0,8.533,3.821,8.533,8.533v119.467c0,4.713-3.82,8.533-8.533,8.533H75.8
			c-4.713,0-8.533-3.821-8.533-8.533V16.067C67.267,11.354,71.087,7.533,75.8,7.533z"/>
		<polygon style="fill:#FFEB3A;" points="255,41.667 265.547,64.135 289.133,67.745 272.067,85.238 276.095,109.933 255,98.268 
			233.906,109.933 237.933,85.238 220.867,67.745 244.453,64.135 		"/>
		<path style="fill:#0377BC;" d="M323.267,195.267v102.4c-0.014,4.707-3.826,8.519-8.533,8.533H101.4V186.733h213.333
			C319.44,186.747,323.253,190.56,323.267,195.267z"/>
		<path style="fill:#795548;" d="M127,374.467l0,25.6H67.267c-14.138,0-25.6-11.461-25.6-25.6s11.462-25.6,25.6-25.6H101.4
			c6.792-0.009,13.309,2.685,18.112,7.488C124.315,361.158,127.009,367.674,127,374.467z"/>
		<path style="fill:#4E342E;" d="M212.333,374.467l0,25.6H127l0-25.6c-0.009-6.792,2.685-13.309,7.488-18.112
			c4.803-4.803,11.32-7.497,18.112-7.488h34.133c6.792-0.009,13.309,2.685,18.112,7.488
			C209.648,361.158,212.343,367.674,212.333,374.467z"/>
		<path style="fill:#795548;" d="M297.667,374.467l0,25.6h-85.333l0-25.6c-0.009-6.792,2.685-13.309,7.488-18.112
			c4.803-4.803,11.32-7.497,18.112-7.488h34.133c6.792-0.009,13.309,2.685,18.112,7.488S297.676,367.674,297.667,374.467z"/>
		<path style="fill:#4E342E;" d="M383,374.467v25.6h-85.333l0-25.6c-0.009-6.792,2.685-13.309,7.488-18.112
			c4.803-4.803,11.32-7.497,18.112-7.488H357.4c6.792-0.009,13.309,2.685,18.112,7.488C380.315,361.158,383.009,367.674,383,374.467
			z"/>
		<path style="fill:#795548;" d="M468.333,374.467c-0.021,14.13-11.47,25.579-25.6,25.6H383l0-25.6
			c-0.009-6.792,2.685-13.309,7.488-18.112s11.32-7.497,18.112-7.488h34.133c6.792-0.009,13.309,2.685,18.112,7.488
			C465.648,361.158,468.343,367.674,468.333,374.467z"/>
		<path style="fill:#4E342E;" d="M127,400.067v51.2H67.267c-14.138,0-25.6-11.462-25.6-25.6s11.462-25.6,25.6-25.6H127z"/>
		<rect x="127" y="400.067" style="fill:#795548;" width="85.333" height="51.2"/>
		<rect x="212.333" y="400.067" style="fill:#4E342E;" width="85.333" height="51.2"/>
		<rect x="297.667" y="400.067" style="fill:#795548;" width="85.333" height="51.2"/>
		<path style="fill:#4E342E;" d="M468.333,425.667c-0.021,14.13-11.47,25.579-25.6,25.6H383v-51.2l59.733,0
			c6.792-0.009,13.309,2.685,18.112,7.488C465.648,412.358,468.343,418.874,468.333,425.667z"/>
		<path style="fill:#795548;" d="M127,451.267l0,25.6c0.009,6.792-2.685,13.309-7.488,18.112c-4.803,4.803-11.32,7.497-18.112,7.488
			H67.267c-14.138,0-25.6-11.462-25.6-25.6c0-14.139,11.462-25.6,25.6-25.6H127z"/>
		<path style="fill:#4E342E;" d="M212.333,451.267l0,25.6c0.009,6.792-2.685,13.309-7.488,18.112
			c-4.803,4.803-11.32,7.497-18.112,7.488H152.6c-6.792,0.009-13.309-2.685-18.112-7.488c-4.803-4.803-7.497-11.32-7.488-18.112
			l0-25.6H212.333z"/>
		<path style="fill:#795548;" d="M297.667,451.267l0,25.6c0.009,6.792-2.685,13.309-7.488,18.112s-11.32,7.497-18.112,7.488h-34.133
			c-6.792,0.009-13.309-2.685-18.112-7.488c-4.803-4.803-7.497-11.32-7.488-18.112l0-25.6H297.667z"/>
		<path style="fill:#4E342E;" d="M383,451.267v25.6c0.009,6.792-2.685,13.309-7.488,18.112c-4.803,4.803-11.32,7.497-18.112,7.488
			h-34.133c-6.792,0.009-13.309-2.685-18.112-7.488c-4.803-4.803-7.497-11.32-7.488-18.112l0-25.6H383z"/>
		<path style="fill:#795548;" d="M468.333,476.867c-0.021,14.13-11.47,25.579-25.6,25.6H408.6
			c-6.792,0.009-13.309-2.685-18.112-7.488s-7.497-11.32-7.488-18.112l0-25.6l59.733,0c6.792-0.009,13.309,2.685,18.112,7.488
			C465.648,463.558,468.343,470.074,468.333,476.867z"/>
		<polygon style="fill:#00BCD4;" points="203.8,306.2 255,186.733 203.8,186.733 152.6,306.2 		"/>
	</g>
	<g>
		<path d="M229.817,89.108l-3.333,20.45c-0.526,3.225,0.836,6.467,3.507,8.349c2.671,1.882,6.183,2.073,9.042,0.493L256,109.025
			l16.967,9.375c2.859,1.583,6.371,1.392,9.042-0.492c2.669-1.884,4.031-5.125,3.508-8.35l-3.333-20.45L296.242,74.7
			c2.233-2.289,2.998-5.634,1.984-8.666c-1.015-3.032-3.64-5.242-6.8-5.726l-19.084-2.917l-8.616-18.35
			c-1.406-2.995-4.416-4.908-7.725-4.908s-6.319,1.913-7.725,4.908l-8.616,18.35l-19.083,2.917c-3.161,0.484-5.786,2.694-6.8,5.726
			c-1.015,3.032-0.249,6.377,1.984,8.666L229.817,89.108z M246.742,73.575c2.812-0.429,5.225-2.233,6.433-4.808L256,62.75
			l2.825,6.017c1.208,2.576,3.621,4.379,6.433,4.808l7.167,1.092l-5.467,5.608c-1.892,1.938-2.752,4.66-2.317,7.333l1.2,7.358
			l-5.717-3.158c-2.566-1.422-5.684-1.422-8.25,0l-5.717,3.158l1.2-7.358c0.435-2.674-0.425-5.395-2.317-7.333l-5.467-5.608
			L246.742,73.575z"/>
		<path d="M110.933,51.2H179.2c4.713,0,8.533-3.821,8.533-8.533s-3.821-8.533-8.533-8.533h-68.267c-4.713,0-8.533,3.821-8.533,8.533
			S106.221,51.2,110.933,51.2z"/>
		<path d="M179.2,68.267H128c-4.713,0-8.533,3.821-8.533,8.533c0,4.713,3.821,8.533,8.533,8.533h51.2
			c4.713,0,8.533-3.82,8.533-8.533C187.733,72.087,183.913,68.267,179.2,68.267z"/>
		<path d="M179.2,102.4h-34.133c-4.713,0-8.533,3.821-8.533,8.533c0,4.713,3.821,8.533,8.533,8.533H179.2
			c4.713,0,8.533-3.821,8.533-8.533C187.733,106.221,183.913,102.4,179.2,102.4z"/>
		<path d="M332.8,51.2h68.267c4.713,0,8.533-3.821,8.533-8.533s-3.82-8.533-8.533-8.533H332.8c-4.713,0-8.533,3.821-8.533,8.533
			S328.087,51.2,332.8,51.2z"/>
		<path d="M332.8,85.333H384c4.713,0,8.533-3.82,8.533-8.533c0-4.713-3.821-8.533-8.533-8.533h-51.2
			c-4.713,0-8.533,3.821-8.533,8.533C324.267,81.513,328.087,85.333,332.8,85.333z"/>
		<path d="M332.8,119.467h34.133c4.713,0,8.533-3.821,8.533-8.533c0-4.713-3.82-8.533-8.533-8.533H332.8
			c-4.713,0-8.533,3.821-8.533,8.533C324.267,115.646,328.087,119.467,332.8,119.467z"/>
		<path d="M34.133,477.867c0.019,18.844,15.29,34.115,34.133,34.133H102.4c9.84-0.031,19.181-4.335,25.6-11.793
			c6.419,7.459,15.76,11.762,25.6,11.793h34.133c9.84-0.031,19.181-4.335,25.6-11.793c6.419,7.459,15.76,11.762,25.6,11.793h34.133
			c9.84-0.031,19.181-4.335,25.6-11.793c6.419,7.459,15.76,11.762,25.6,11.793H358.4c9.84-0.031,19.181-4.335,25.6-11.793
			c6.419,7.459,15.76,11.762,25.6,11.793h34.133c14.232,0.06,26.994-8.753,31.98-22.084s1.139-28.355-9.64-37.65
			c7.484-6.399,11.793-15.753,11.793-25.6s-4.309-19.201-11.793-25.6c10.778-9.294,14.625-24.319,9.64-37.65
			c-4.986-13.33-17.748-22.143-31.98-22.084h-25.6V153.6H435.2c9.421-0.012,17.054-7.646,17.067-17.067V17.067
			C452.255,7.646,444.621,0.012,435.2,0H76.8C67.38,0.012,59.746,7.646,59.733,17.067v119.467
			c0.012,9.421,7.646,17.054,17.067,17.067h17.067v187.733h-25.6c-14.232-0.06-26.994,8.753-31.98,22.084
			c-4.986,13.33-1.139,28.355,9.64,37.65c-7.484,6.399-11.793,15.753-11.793,25.6s4.309,19.201,11.793,25.6
			C38.468,458.685,34.165,468.027,34.133,477.867z M136.533,375.467c0.012-9.421,7.646-17.054,17.067-17.067h34.133
			c9.421,0.012,17.054,7.646,17.067,17.067v17.067h-68.267V375.467z M221.867,375.467c0.012-9.421,7.646-17.054,17.067-17.067
			h34.133c9.421,0.012,17.054,7.646,17.067,17.067v17.067h-68.267V375.467z M307.2,375.467c0.012-9.421,7.646-17.054,17.067-17.067
			H358.4c9.421,0.012,17.054,7.646,17.067,17.067v17.067H307.2V375.467z M136.533,409.6H204.8v34.133h-68.267V409.6z M221.867,409.6
			h68.267v34.133h-68.267V409.6z M307.2,409.6h68.267v34.133H307.2V409.6z M187.733,494.933H153.6
			c-9.421-0.012-17.054-7.646-17.067-17.067V460.8H204.8v17.067C204.788,487.287,197.154,494.921,187.733,494.933z M273.067,494.933
			h-34.133c-9.421-0.012-17.054-7.646-17.067-17.067V460.8h68.267v17.067C290.121,487.287,282.487,494.921,273.067,494.933z
			 M358.4,494.933h-34.133c-9.421-0.012-17.054-7.646-17.067-17.067V460.8h68.267v17.067
			C375.455,487.287,367.821,494.921,358.4,494.933z M460.8,477.867c-0.012,9.421-7.646,17.054-17.067,17.067H409.6
			c-9.421-0.012-17.054-7.646-17.067-17.067V460.8h51.2C453.154,460.812,460.788,468.446,460.8,477.867z M460.8,426.667
			c-0.012,9.421-7.646,17.054-17.067,17.067h-51.2V409.6h51.2C453.154,409.612,460.788,417.246,460.8,426.667z M460.8,375.467
			c-0.012,9.421-7.646,17.054-17.067,17.067h-51.2v-17.067c0.012-9.421,7.646-17.054,17.067-17.067h34.133
			C453.154,358.412,460.788,366.046,460.8,375.467z M76.8,17.067h358.4l0.017,119.467H76.8V17.067z M401.067,153.6v188.945
			c-6.625,1.727-12.574,5.415-17.067,10.581c-6.419-7.459-15.76-11.762-25.6-11.793h-34.133c-9.84,0.031-19.181,4.335-25.6,11.793
			c-6.419-7.459-15.76-11.762-25.6-11.793h-34.133c-9.84,0.031-19.181,4.335-25.6,11.793c-6.419-7.459-15.76-11.762-25.6-11.793
			H153.6c-9.84,0.031-19.181,4.335-25.6,11.793c-4.493-5.166-10.442-8.854-17.067-10.581v-26.812h204.8
			c9.421-0.012,17.054-7.646,17.067-17.067v-102.4c-0.012-9.421-7.646-17.054-17.067-17.067h-204.8v-25.6H401.067z M243.062,196.267
			l-43.886,102.4h-32.638l43.886-102.4H243.062z M315.733,196.267l0.017,102.4h-98.012l43.886-102.4H315.733z M147.976,298.667
			h-37.043v-102.4h80.929L147.976,298.667z M51.2,375.467c0.012-9.421,7.646-17.054,17.067-17.067H102.4
			c9.421,0.012,17.054,7.646,17.067,17.067v17.067h-51.2C58.846,392.521,51.212,384.887,51.2,375.467z M51.2,426.667
			c0.012-9.421,7.646-17.054,17.067-17.067h51.2v34.133h-51.2C58.846,443.721,51.212,436.087,51.2,426.667z M119.467,460.8v17.067
			c-0.012,9.421-7.646,17.054-17.067,17.067H68.267c-9.426,0-17.067-7.641-17.067-17.067c0-9.426,7.641-17.067,17.067-17.067
			H119.467z"/>
	</g>
</g>
<g>
</g>
<g>
</g>
<g>
</g>
<g>
</g>
<g>
</g>
<g>
</g>
<g>
</g>
<g>
</g>
<g>
</g>
<g>
</g>
<g>
</g>
<g>
</g>
<g>
</g>
<g>
</g>
<g>
</g>
</svg>
