<?xml version="1.0" encoding="iso-8859-1"?>
<!-- Generator: Adobe Illustrator 19.0.0, SVG Export Plug-In . SVG Version: 6.00 Build 0)  -->
<svg version="1.1" id="Capa_1" xmlns="http://www.w3.org/2000/svg" xmlns:xlink="http://www.w3.org/1999/xlink" x="0px" y="0px"
	 viewBox="0 0 512 512" style="enable-background:new 0 0 512 512;" xml:space="preserve">
<g>
	<g transform="translate(1 1)">
		<g>
			<circle style="fill:#37474F;" cx="101.4" cy="255.004" r="51.2"/>
			<g>
				<path id="SVGCleanerId_0" style="fill:#37474F;" d="M222.573,413.639c-10.354,17.947-30.5,27.89-51.044,25.192
					c-20.544-2.698-37.439-17.505-42.808-37.518c-5.369-20.012,1.845-41.288,18.28-53.907c16.434-12.619,38.852-14.095,56.799-3.741
					c11.774,6.785,20.368,17.971,23.889,31.096C231.21,387.886,229.37,401.872,222.573,413.639z"/>
			</g>
			<circle style="fill:#37474F;" cx="255" cy="255.004" r="34.133"/>
			<path style="fill:#37474F;" d="M502.467,255.004c0.034,26.085-4.085,52.01-12.203,76.8c-10.137,0.197-20.059,2.956-28.843,8.021
				c-27.979,16.375-37.85,52.039-22.272,80.469c-35.039,39.126-81.641,66.059-133.035,76.885c-1.181-1.943-2.463-3.823-3.84-5.632
				c42.886-13.179,81.361-37.816,111.275-71.253c-9.763-17.754-9.86-39.247-0.258-57.089c9.602-17.842,27.593-29.6,47.789-31.231
				c1.195-0.085,2.389-0.171,3.584-0.171c16.27-49.907,16.27-103.693,0-153.6c-1.195,0-2.389-0.085-3.584-0.171
				c-20.196-1.632-38.187-13.389-47.789-31.231c-9.602-17.842-9.505-39.335,0.258-57.089
				c-29.914-33.437-68.389-58.074-111.275-71.253c1.377-1.809,2.659-3.689,3.84-5.632c51.394,10.826,97.996,37.76,133.035,76.885
				c-10.136,18.305-9.935,40.583,0.531,58.701c10.466,18.118,29.663,29.424,50.584,29.789
				C498.382,202.994,502.501,228.919,502.467,255.004z"/>
			<g>
				<path id="SVGCleanerId_1" style="fill:#37474F;" d="M357.4,432.327c-17.937,10.351-40.343,8.875-56.767-3.739
					c-16.424-12.614-23.631-33.88-18.258-53.88c5.372-20,22.265-34.793,42.799-37.479c20.534-2.686,40.664,7.264,50.999,25.21
					C390.269,386.924,381.868,418.2,357.4,432.327z"/>
			</g>
			<path style="fill:#37474F;" d="M376.173,147.569c-10.334,17.972-30.48,27.944-51.036,25.262
				c-20.557-2.681-37.471-17.487-42.849-37.508s1.84-41.31,18.286-53.931c16.446-12.621,38.877-14.086,56.825-3.711
				C381.82,91.845,390.209,123.076,376.173,147.569z"/>
			<circle style="fill:#37474F;" cx="408.6" cy="255.004" r="51.2"/>
		</g>
		<g>
			<path style="fill:#607D8B;" d="M464.664,178.204c-1.195,0-2.389-0.085-3.584-0.171c-20.196-1.632-38.187-13.389-47.789-31.231
				c-9.602-17.842-9.505-39.335,0.258-57.089c-29.914-33.437-68.389-58.074-111.275-71.253
				C290.967,33.108,273.505,41.681,255,41.671c-4.302-0.014-8.592-0.471-12.8-1.365c-15.992-3.533-29.839-13.463-38.315-27.477
				c-7.424,1.536-14.677,3.413-21.76,5.632c-42.886,13.179-81.361,37.816-111.275,71.253c9.763,17.754,9.86,39.247,0.258,57.089
				c-9.602,17.842-27.593,29.6-47.789,31.231c-1.195,0.085-2.389,0.171-3.584,0.171c-16.27,49.907-16.27,103.693,0,153.6
				c1.195,0,2.389,0.085,3.584,0.171c20.195,1.632,38.187,13.39,47.789,31.231c9.602,17.842,9.505,39.334-0.258,57.089
				c29.914,33.437,68.389,58.074,111.275,71.253c7.082,2.219,14.336,4.096,21.76,5.632c8.476-14.014,22.323-23.944,38.315-27.477
				c4.208-0.894,8.498-1.351,12.8-1.365c18.504-0.011,35.967,8.563,47.275,23.211c42.886-13.179,81.361-37.816,111.275-71.253
				c-9.763-17.754-9.86-39.247-0.258-57.089c9.602-17.842,27.593-29.6,47.789-31.231c1.195-0.085,2.389-0.171,3.584-0.171
				C480.934,281.897,480.934,228.111,464.664,178.204z M287.427,96.369c10.354-17.947,30.5-27.89,51.044-25.192
				s37.439,17.505,42.808,37.518s-1.846,41.288-18.28,53.907c-16.434,12.619-38.852,14.095-56.799,3.741
				c-11.774-6.785-20.368-17.971-23.889-31.096C278.79,122.122,280.63,108.136,287.427,96.369z M152.6,77.681
				c17.937-10.351,40.343-8.875,56.767,3.739s23.631,33.88,18.258,53.88c-5.372,20-22.265,34.793-42.799,37.479
				c-20.534,2.686-40.664-7.264-50.999-25.21C119.731,123.084,128.132,91.808,152.6,77.681z M50.2,255.004
				c0-28.277,22.923-51.2,51.2-51.2s51.2,22.923,51.2,51.2s-22.923,51.2-51.2,51.2C73.132,306.182,50.222,283.272,50.2,255.004z
				 M222.573,413.639c-10.354,17.947-30.5,27.89-51.044,25.192c-20.544-2.698-37.439-17.505-42.808-37.518
				c-5.369-20.012,1.845-41.288,18.28-53.907c16.434-12.619,38.852-14.095,56.799-3.741c11.774,6.785,20.368,17.971,23.889,31.096
				C231.21,387.886,229.37,401.872,222.573,413.639z M255,289.137c-18.851,0-34.133-15.282-34.133-34.133
				s15.282-34.133,34.133-34.133s34.133,15.282,34.133,34.133c0.002,9.053-3.593,17.737-9.995,24.139
				C272.737,285.544,264.053,289.14,255,289.137z M357.4,432.327c-17.937,10.351-40.343,8.875-56.767-3.739
				c-16.424-12.614-23.631-33.88-18.258-53.88c5.372-20,22.265-34.793,42.799-37.479c20.534-2.686,40.664,7.264,50.999,25.21
				C390.269,386.924,381.868,418.2,357.4,432.327z M408.6,306.204c-28.277,0-51.2-22.923-51.2-51.2s22.923-51.2,51.2-51.2
				c28.277,0,51.2,22.923,51.2,51.2C459.778,283.272,436.868,306.182,408.6,306.204z"/>
			<circle style="fill:#607D8B;" cx="101.4" cy="255.004" r="51.2"/>
			<g>
				<path id="SVGCleanerId_0_1_" style="fill:#607D8B;" d="M222.573,413.639c-10.354,17.947-30.5,27.89-51.044,25.192
					c-20.544-2.698-37.439-17.505-42.808-37.518c-5.369-20.012,1.845-41.288,18.28-53.907c16.434-12.619,38.852-14.095,56.799-3.741
					c11.774,6.785,20.368,17.971,23.889,31.096C231.21,387.886,229.37,401.872,222.573,413.639z"/>
			</g>
			<circle style="fill:#607D8B;" cx="255" cy="255.004" r="34.133"/>
			<g>
				<path id="SVGCleanerId_1_1_" style="fill:#607D8B;" d="M357.4,432.327c-17.937,10.351-40.343,8.875-56.767-3.739
					c-16.424-12.614-23.631-33.88-18.258-53.88c5.372-20,22.265-34.793,42.799-37.479c20.534-2.686,40.664,7.264,50.999,25.21
					C390.269,386.924,381.868,418.2,357.4,432.327z"/>
			</g>
			<path style="fill:#607D8B;" d="M376.173,147.569c-10.334,17.972-30.48,27.944-51.036,25.262
				c-20.557-2.681-37.471-17.487-42.849-37.508s1.84-41.31,18.286-53.931c16.446-12.621,38.877-14.086,56.825-3.711
				C381.82,91.845,390.209,123.076,376.173,147.569z"/>
			<circle style="fill:#607D8B;" cx="408.6" cy="255.004" r="51.2"/>
		</g>
		<circle style="fill:#FEC108;" cx="408.6" cy="255.004" r="51.2"/>
		<circle style="fill:#607D8B;" cx="408.6" cy="255.004" r="17.067"/>
		<path style="fill:#FEC108;" d="M376.173,147.569c-10.334,17.972-30.48,27.944-51.036,25.262
			c-20.557-2.681-37.471-17.487-42.849-37.508s1.84-41.31,18.286-53.931c16.446-12.621,38.877-14.086,56.825-3.711
			C381.82,91.845,390.209,123.076,376.173,147.569z"/>
		<circle style="fill:#607D8B;" cx="331.8" cy="121.986" r="17.067"/>
		<path style="fill:#FEC108;" d="M222.573,96.369c-10.354-17.947-30.5-27.89-51.044-25.192s-37.439,17.505-42.808,37.518
			c-5.369,20.012,1.845,41.288,18.28,53.907c16.434,12.619,38.852,14.095,56.799,3.741c11.774-6.785,20.368-17.971,23.889-31.096
			C231.21,122.122,229.37,108.136,222.573,96.369z M186.733,136.732c-5.971,3.451-13.433,2.966-18.907-1.229
			s-7.881-11.275-6.099-17.938c1.782-6.663,7.401-11.596,14.238-12.5c6.837-0.904,13.546,2.4,16.997,8.371
			c2.266,3.915,2.883,8.57,1.714,12.939C193.508,130.745,190.651,134.471,186.733,136.732z"/>
		<path style="fill:#607D8B;stroke:#000000;stroke-width:2;stroke-linecap:round;stroke-linejoin:round;" d="M186.733,136.732
			c-5.971,3.451-13.433,2.966-18.907-1.229s-7.881-11.275-6.099-17.938c1.782-6.663,7.401-11.596,14.238-12.5
			c6.837-0.904,13.546,2.4,16.997,8.371c2.266,3.915,2.883,8.57,1.714,12.939C193.508,130.745,190.651,134.471,186.733,136.732z"/>
		<circle style="fill:#FEC108;" cx="101.4" cy="255.004" r="51.2"/>
		<circle style="fill:#607D8B;" cx="101.4" cy="255.004" r="17.067"/>
		<g>
			<path id="SVGCleanerId_0_2_" style="fill:#FEC108;" d="M222.573,413.639c-10.354,17.947-30.5,27.89-51.044,25.192
				c-20.544-2.698-37.439-17.505-42.808-37.518c-5.369-20.012,1.845-41.288,18.28-53.907c16.434-12.619,38.852-14.095,56.799-3.741
				c11.774,6.785,20.368,17.971,23.889,31.096C231.21,387.886,229.37,401.872,222.573,413.639z"/>
		</g>
		<circle style="fill:#607D8B;" cx="178.2" cy="388.022" r="17.067"/>
		<g>
			<path id="SVGCleanerId_1_2_" style="fill:#FEC108;" d="M357.4,432.327c-17.937,10.351-40.343,8.875-56.767-3.739
				c-16.424-12.614-23.631-33.88-18.258-53.88c5.372-20,22.265-34.793,42.799-37.479c20.534-2.686,40.664,7.264,50.999,25.21
				C390.269,386.924,381.868,418.2,357.4,432.327z"/>
		</g>
		<circle style="fill:#607D8B;" cx="331.8" cy="388.022" r="17.067"/>
		<circle style="fill:#CFD8DC;" cx="255" cy="255.004" r="34.133"/>
	</g>
	<g>
		<path d="M491.45,170.671c-17.91-0.361-34.327-10.058-43.29-25.568c-8.962-15.51-9.165-34.576-0.535-50.274
			c1.749-3.175,1.301-7.108-1.117-9.808c-36.327-40.383-84.507-68.227-137.633-79.542c-3.547-0.765-7.188,0.814-9.054,3.925
			C290.599,24.801,273.947,34.2,256,34.137c-17.947,0.062-34.599-9.337-43.821-24.733c-1.874-3.103-5.508-4.679-9.054-3.925
			C149.999,16.792,101.818,44.637,65.492,85.021c-2.418,2.7-2.865,6.634-1.116,9.808c8.634,15.696,8.434,34.763-0.527,50.274
			s-25.38,25.208-43.29,25.568c-3.619,0.078-6.796,2.429-7.929,5.867c-16.839,51.64-16.839,107.294,0,158.933
			c1.133,3.438,4.31,5.788,7.929,5.867c17.909,0.362,34.326,10.059,43.287,25.57s9.162,34.576,0.53,50.272
			c-1.749,3.175-1.301,7.108,1.117,9.808c36.326,40.383,84.506,68.228,137.633,79.542c3.544,0.738,7.169-0.834,9.054-3.925
			c9.267-15.351,25.89-24.733,43.821-24.733s34.554,9.383,43.821,24.733c1.547,2.55,4.313,4.108,7.296,4.108
			c0.591,0.001,1.18-0.061,1.758-0.183c53.126-11.314,101.306-39.159,137.634-79.541c2.418-2.7,2.866-6.634,1.117-9.808
			c-8.63-15.697-8.426-34.764,0.536-50.273c8.962-15.51,25.38-25.207,43.289-25.568c3.618-0.08,6.793-2.43,7.925-5.867
			c16.833-51.641,16.833-107.293,0-158.933C498.243,173.101,495.068,170.75,491.45,170.671z M484.883,324.671
			c-21.546,2.42-40.662,14.928-51.507,33.702c-10.845,18.774-12.129,41.583-3.46,61.456c-32.117,34.007-73.462,57.901-118.962,68.75
			c-12.864-17.465-33.263-27.775-54.954-27.775s-42.09,10.31-54.954,27.775c-45.501-10.849-86.845-34.743-118.963-68.75
			c8.671-19.871,7.388-42.679-3.457-61.453c-10.844-18.773-29.961-31.28-51.506-33.697c-13.406-44.802-13.406-92.548,0-137.35
			c21.546-2.416,40.664-14.922,51.508-33.696s12.127-41.583,3.454-61.454c32.117-34.007,73.462-57.901,118.963-68.75
			C213.853,40.96,234.289,51.289,256,51.204c21.711,0.085,42.147-10.244,54.954-27.775c45.501,10.849,86.845,34.743,118.962,68.75
			c-8.671,19.872-7.388,42.681,3.458,61.454c10.845,18.774,29.963,31.28,51.509,33.696
			C498.283,232.129,498.283,279.871,484.883,324.671z"/>
		<path d="M409.6,196.271c-32.99,0-59.733,26.744-59.733,59.733s26.743,59.733,59.733,59.733s59.733-26.744,59.733-59.733
			C469.295,223.03,442.574,196.309,409.6,196.271z M409.6,298.671c-23.564,0-42.667-19.103-42.667-42.667
			s19.103-42.667,42.667-42.667c23.564,0,42.667,19.103,42.667,42.667C452.239,279.557,433.153,298.643,409.6,298.671z"/>
		<path d="M409.6,230.404c-14.138,0-25.6,11.462-25.6,25.6s11.462,25.6,25.6,25.6c14.138,0,25.6-11.462,25.6-25.6
			C435.185,241.872,423.732,230.419,409.6,230.404z M409.6,264.537c-4.713,0-8.533-3.82-8.533-8.533s3.821-8.533,8.533-8.533
			c4.713,0,8.533,3.821,8.533,8.533C418.13,260.716,414.312,264.534,409.6,264.537z"/>
		<path d="M302.933,174.712c24.683,14.254,55.997,9.086,74.791-12.343s19.833-53.15,2.481-75.762s-48.261-29.818-73.823-17.21
			c-25.562,12.608-38.658,41.518-31.278,69.049C279.166,153.766,289.186,166.824,302.933,174.712z M295.846,101.646
			c10.176-17.629,31.388-25.615,50.664-19.075c19.276,6.541,31.247,25.786,28.594,45.968c-2.654,20.182-19.194,35.678-39.505,37.014
			c-20.311,1.335-38.738-11.863-44.01-31.524C288.66,123.097,290.191,111.449,295.846,101.646z"/>
		<path d="M319.996,145.154c3.872,2.248,8.269,3.432,12.746,3.433c2.257-0.002,4.504-0.299,6.683-0.883
			c11.773-3.168,19.67-14.209,18.863-26.374s-10.092-22.067-22.179-23.654c-12.088-1.586-23.614,5.585-27.532,17.129
			C304.659,126.35,309.439,139.055,319.996,145.154z M325.408,118.712c1.131-1.961,2.998-3.39,5.188-3.967
			c0.729-0.192,1.48-0.29,2.233-0.292c3.039,0.015,5.842,1.645,7.358,4.28c1.516,2.634,1.518,5.876,0.005,8.512h-0.004
			c-2.362,4.07-7.572,5.46-11.647,3.107C324.465,128,323.064,122.792,325.408,118.712L325.408,118.712z"/>
		<path d="M163.742,180.679c27.523,7.371,56.419-5.726,69.019-31.281c12.6-25.555,5.394-56.452-17.211-73.797
			s-54.314-16.306-75.737,2.48c-21.422,18.786-26.592,50.088-12.347,74.764C135.398,166.558,148.443,176.567,163.742,180.679z
			 M137.988,111.937c5.268-19.665,23.693-32.87,44.008-31.54s36.86,16.827,39.518,37.011c2.657,20.184-9.314,39.435-28.592,45.978
			c-19.278,6.543-40.494-1.443-50.672-19.074C136.559,134.524,135.024,122.865,137.988,111.937z"/>
		<path d="M172.575,147.704c2.181,0.585,4.429,0.882,6.687,0.883c9.132-0.032,17.557-4.924,22.113-12.839s4.554-17.657-0.005-25.57
			h-0.004c-5.793-10.035-17.604-14.928-28.796-11.929s-18.974,13.142-18.973,24.729
			C153.599,134.565,161.383,144.707,172.575,147.704L172.575,147.704z M170.967,120.779c0.991-3.72,4.354-6.313,8.204-6.325
			c0.754,0.002,1.504,0.1,2.233,0.292c3.338,0.888,5.812,3.701,6.267,7.125c0.455,3.424-1.199,6.785-4.19,8.514
			c-2.991,1.729-6.728,1.484-9.468-0.619C171.273,127.662,170.07,124.115,170.967,120.779L170.967,120.779z"/>
		<path d="M162.133,256.004c0-32.99-26.744-59.733-59.733-59.733s-59.733,26.744-59.733,59.733s26.744,59.733,59.733,59.733
			C135.374,315.699,162.095,288.978,162.133,256.004z M102.4,298.671c-23.564,0-42.667-19.103-42.667-42.667
			s19.103-42.667,42.667-42.667s42.667,19.103,42.667,42.667C145.039,279.557,125.953,298.643,102.4,298.671z"/>
		<path d="M102.4,230.404c-14.138,0-25.6,11.462-25.6,25.6s11.462,25.6,25.6,25.6s25.6-11.462,25.6-25.6
			C127.985,241.872,116.532,230.419,102.4,230.404z M102.4,264.537c-4.713,0-8.533-3.82-8.533-8.533s3.821-8.533,8.533-8.533
			c4.713,0,8.533,3.821,8.533,8.533C110.929,260.715,107.111,264.533,102.4,264.537z"/>
		<path d="M209.067,337.296c-24.683-14.254-55.997-9.086-74.791,12.343c-18.794,21.429-19.833,53.15-2.481,75.762
			s48.261,29.818,73.823,17.21c25.562-12.608,38.658-41.518,31.278-69.049C232.844,358.238,222.821,345.175,209.067,337.296z
			 M216.154,410.362c-10.176,17.629-31.388,25.615-50.664,19.075s-31.247-25.786-28.594-45.968
			c2.654-20.182,19.194-35.678,39.505-37.014c20.311-1.335,38.738,11.863,44.01,31.523
			C223.341,388.911,221.81,400.559,216.154,410.362z"/>
		<path d="M192.004,366.854c-9.315-5.378-20.998-4.36-29.243,2.547c-8.245,6.907-11.294,18.231-7.631,28.344
			c3.663,10.113,13.255,16.859,24.011,16.884c2.255-0.001,4.501-0.298,6.679-0.883c9.995-2.684,17.392-11.121,18.745-21.382
			C205.918,382.103,200.962,372.037,192.004,366.854z M186.592,393.296c-2.358,4.08-7.575,5.477-11.656,3.121
			c-4.081-2.356-5.481-7.573-3.127-11.655h0.004c1.127-1.964,2.994-3.396,5.183-3.975c0.729-0.191,1.48-0.289,2.233-0.292
			c3.041,0.017,5.843,1.648,7.36,4.284S188.106,390.659,186.592,393.296z"/>
		<path d="M348.258,331.329c-27.523-7.371-56.419,5.726-69.019,31.281c-12.6,25.555-5.394,56.452,17.211,73.797
			c22.605,17.345,54.314,16.306,75.736-2.48c21.422-18.786,26.592-50.088,12.347-74.764
			C376.651,345.406,363.586,335.381,348.258,331.329z M374.013,400.071c-5.745,21.329-26.827,34.74-48.581,30.903
			c-21.754-3.836-36.976-23.65-35.079-45.658c1.898-22.008,20.287-38.923,42.376-38.979c3.753,0.004,7.489,0.5,11.113,1.475
			C366.603,353.913,380.11,377.309,374.013,400.071L374.013,400.071z"/>
		<path d="M339.425,364.304c-9.999-2.672-20.624,0.938-26.925,9.149c-6.301,8.211-7.039,19.408-1.871,28.376h0.004
			c3.382,5.89,8.98,10.181,15.546,11.917c2.178,0.585,4.424,0.882,6.679,0.883c12.836-0.027,23.667-9.558,25.328-22.286
			C359.847,379.615,351.824,367.624,339.425,364.304z M341.033,391.229c-0.576,2.19-2.007,4.057-3.971,5.183
			c-1.96,1.123-4.283,1.428-6.467,0.85c-3.33-0.895-5.795-3.706-6.245-7.125s1.202-6.773,4.187-8.5
			c1.96-1.123,4.283-1.429,6.467-0.85c2.187,0.581,4.052,2.009,5.184,3.968C341.319,386.715,341.623,389.045,341.033,391.229z"/>
		<path d="M298.667,256.004c0-23.564-19.103-42.667-42.667-42.667c-23.564,0-42.667,19.103-42.667,42.667
			s19.103,42.667,42.667,42.667C279.553,298.643,298.639,279.557,298.667,256.004z M256,281.604c-14.138,0-25.6-11.462-25.6-25.6
			s11.462-25.6,25.6-25.6c14.139,0,25.6,11.462,25.6,25.6C281.585,270.136,270.132,281.589,256,281.604z"/>
	</g>
</g>
<g>
</g>
<g>
</g>
<g>
</g>
<g>
</g>
<g>
</g>
<g>
</g>
<g>
</g>
<g>
</g>
<g>
</g>
<g>
</g>
<g>
</g>
<g>
</g>
<g>
</g>
<g>
</g>
<g>
</g>
</svg>
