<?xml version="1.0" encoding="iso-8859-1"?>
<!-- Generator: Adobe Illustrator 19.0.0, SVG Export Plug-In . SVG Version: 6.00 Build 0)  -->
<svg version="1.1" id="Capa_1" xmlns="http://www.w3.org/2000/svg" xmlns:xlink="http://www.w3.org/1999/xlink" x="0px" y="0px"
	 viewBox="0 0 512 512" style="enable-background:new 0 0 512 512;" xml:space="preserve">
<g>
	<g transform="translate(1 7)">
		<path style="fill:#607D8B;" d="M41.667,227.512l-7.68,69.205c-0.502,4.332-4.173,7.598-8.533,7.595h-9.387
			c-4.707-0.014-8.519-3.826-8.533-8.533v-68.267H41.667z"/>
		<g>
			<path style="fill:#009688;" d="M41.667,227.512l-7.68,69.205c-0.502,4.332-4.173,7.598-8.533,7.595h-9.387
				c-4.707-0.014-8.519-3.826-8.533-8.533v-68.267H41.667z"/>
			<path style="fill:#009688;" d="M159.566,313.955L54.521,435.213c-2.673,3.151-6.406,5.214-10.496,5.803
				c-4.886,0.633-9.812-0.823-13.568-4.011c-7.083-6.191-7.845-16.936-1.707-24.064L152.6,270.179L159.566,313.955z"/>
			<path style="fill:#009688;" d="M220.867,270.179l123.136,142.763c6.138,7.128,5.376,17.873-1.707,24.064
				c-3.756,3.187-8.682,4.643-13.568,4.011c-4.09-0.588-7.823-2.652-10.496-5.803L213.187,313.955L220.867,270.179z"/>
			<path style="fill:#009688;" d="M203.086,304.312v119.467c0,9.426-7.641,17.067-17.067,17.067
				c-9.426,0-17.067-7.641-17.067-17.067V304.312H203.086z"/>
		</g>
		<g>
			<path style="fill:#607D8B;" d="M237.933,253.112l-0.427,11.093l-0.256,5.973c0.031,5.452-0.834,10.871-2.56,16.043
				c-3.775,11.301-11.342,20.949-21.419,27.307c-8.151,5.134-17.588,7.856-27.221,7.851c-9.34,0.057-18.507-2.516-26.453-7.424
				c-10.156-6.082-17.856-15.534-21.76-26.709c-1.991-5.469-3.002-11.246-2.987-17.067l0.683-17.067H237.933z"/>
			<path style="fill:#607D8B;" d="M144.067,133.645l0,34.133H84.333v-59.733l34.133,0c6.792-0.009,13.309,2.685,18.112,7.488
				C141.382,120.336,144.076,126.853,144.067,133.645z"/>
			<path style="fill:#607D8B;" d="M502.467,193.379v34.133c-0.014,4.707-3.826,8.519-8.533,8.533H246.467v-51.2h247.467
				C498.64,184.859,502.453,188.672,502.467,193.379z"/>
		</g>
		<g>
			<rect x="84.333" y="150.712" style="fill:#37474F;" width="59.733" height="17.067"/>
			<circle style="fill:#37474F;" cx="199.533" cy="206.179" r="21.333"/>
			<path style="fill:#37474F;" d="M263.533,150.712v110.933c-0.014,4.707-3.826,8.519-8.533,8.533H134.851l0.683-17.067h102.4
				v-102.4H263.533z"/>
		</g>
		<g>
			<path style="fill:#607D8B;" d="M144.067,150.712v17.067H84.333v25.6H24.6c-9.414,0.028-17.039,7.652-17.067,17.067v17.067h76.8
				v34.133c0.014,4.707,3.826,8.519,8.533,8.533h41.984l0.683-17.067h102.4v-102.4H144.067z M199.533,227.512
				c-11.782,0-21.333-9.551-21.333-21.333s9.551-21.333,21.333-21.333c11.782,0,21.333,9.551,21.333,21.333
				C220.862,217.959,211.314,227.508,199.533,227.512z"/>
			<rect x="84.333" y="150.712" style="fill:#607D8B;" width="59.733" height="17.067"/>
			<circle style="fill:#607D8B;" cx="199.533" cy="206.179" r="21.333"/>
			<path style="fill:#607D8B;" d="M237.933,253.112v8.533c-0.069,4.684-3.849,8.464-8.533,8.533h-94.549l0.683-17.067H237.933z"/>
		</g>
		<circle style="fill:#CFD8DC;" cx="199.533" cy="206.179" r="21.333"/>
	</g>
	<g>
		<path d="M494.933,183.312H273.067v-76.8c0-4.713-3.82-8.533-8.533-8.533S256,101.799,256,106.512v42.667H153.6v-8.533
			c-0.02-18.843-15.29-34.113-34.133-34.133h-25.6V63.845c0-4.713-3.821-8.533-8.533-8.533S76.8,59.132,76.8,63.845v128H25.6
			c-14.132,0.015-25.585,11.468-25.6,25.6v85.333c0.011,9.421,7.645,17.056,17.067,17.067h9.429c8.7,0.01,16.01-6.535,16.958-15.183
			l6.848-61.617H76.8v25.6c0.011,9.421,7.645,17.056,17.067,17.067h34.103c0.308,2.14,0.733,4.261,1.273,6.355L23.308,414.345
			c-5.917,6.883-7.722,16.395-4.738,24.967H8.533c-4.713,0-8.533,3.82-8.533,8.533s3.821,8.533,8.533,8.533h30.97
			c1.108,0.168,2.226,0.266,3.346,0.292c1.152-0.002,2.303-0.074,3.446-0.217c0.106-0.016,0.203-0.058,0.308-0.075h281.627
			c0.142,0.024,0.272,0.079,0.415,0.1c2.25,0.31,4.534,0.276,6.775-0.1h65.646c4.713,0,8.533-3.82,8.533-8.533
			s-3.821-8.533-8.533-8.533h-44.864c2.968-8.572,1.16-18.075-4.748-24.958L244.963,291.433c0.461-1.875,0.831-3.782,1.109-5.721
			H256c9.421-0.011,17.056-7.645,17.067-17.067v-17.067h221.867c9.421-0.011,17.056-7.645,17.067-17.067v-34.133
			C511.989,190.957,504.355,183.323,494.933,183.312z M136.533,140.645v8.533H93.867v-25.6h25.6
			C128.888,123.589,136.523,131.224,136.533,140.645z M26.496,302.779h-9.429v-59.733h16.067L26.496,302.779z M42.667,225.979h-25.6
			v-8.533c0.005-4.711,3.822-8.529,8.533-8.533h51.2v17.067H42.667z M187.021,319.845c-20.265-0.028-37.724-14.283-41.804-34.133
			h83.608C224.745,305.562,207.286,319.817,187.021,319.845z M178.487,430.779V336.23c5.653,0.909,11.414,0.909,17.067,0v94.548
			c0,4.713-3.82,8.533-8.533,8.533S178.487,435.491,178.487,430.779z M162.994,439.312H69.32l92.101-106.316v97.782
			C161.45,433.692,161.982,436.579,162.994,439.312z M212.621,430.779v-98.605l92.812,107.138h-94.384
			C212.06,436.579,212.592,433.692,212.621,430.779z M37.092,437.595c-3.554-3.095-3.952-8.475-0.892-12.058l100.605-116.134
			c3.114,4.835,6.905,9.198,11.258,12.956L49.004,436.704c-1.116,1.321-2.636,2.237-4.325,2.608h-3.843
			C39.465,439.059,38.178,438.469,37.092,437.595z M338.558,425.537c3.038,3.535,2.688,8.852-0.787,11.958
			c-1.031,0.863-2.243,1.484-3.546,1.817h-4.408c-1.615-0.462-3.054-1.397-4.133-2.683l-99.305-114.632
			c4.325-3.802,8.081-8.206,11.153-13.077L338.558,425.537z M93.867,268.645v-102.4H256l0.003,25.584L256,191.845v51.2l0.009,0.046
			l0.003,25.554H93.867z M477.867,234.512c0-4.713-3.821-8.533-8.533-8.533c-4.713,0-8.533,3.82-8.533,8.533h-17.067
			c0-4.713-3.821-8.533-8.533-8.533s-8.533,3.82-8.533,8.533H409.6c0-4.713-3.821-8.533-8.533-8.533s-8.533,3.82-8.533,8.533
			h-17.067c0-4.713-3.82-8.533-8.533-8.533s-8.533,3.82-8.533,8.533h-17.067c0-4.713-3.82-8.533-8.533-8.533
			s-8.533,3.82-8.533,8.533H307.2c0-4.713-3.82-8.533-8.533-8.533s-8.533,3.82-8.533,8.533h-17.067v-34.133h17.067
			c0,4.713,3.82,8.533,8.533,8.533s8.533-3.82,8.533-8.533h17.067c0,4.713,3.82,8.533,8.533,8.533s8.533-3.82,8.533-8.533H358.4
			c0,4.713,3.82,8.533,8.533,8.533s8.533-3.82,8.533-8.533h17.067c0,4.713,3.82,8.533,8.533,8.533s8.533-3.82,8.533-8.533h17.067
			c0,4.713,3.82,8.533,8.533,8.533s8.533-3.82,8.533-8.533H460.8c0,4.713,3.821,8.533,8.533,8.533c4.713,0,8.533-3.82,8.533-8.533
			h17.067l0.012,34.133H477.867z"/>
		<path d="M200.533,183.312c-16.495,0-29.867,13.372-29.867,29.867s13.372,29.867,29.867,29.867s29.867-13.372,29.867-29.867
			C230.38,196.692,217.02,183.332,200.533,183.312z M200.533,225.979c-5.177,0-9.844-3.119-11.826-7.902
			c-1.981-4.783-0.886-10.289,2.775-13.949c3.661-3.661,9.166-4.756,13.949-2.775c4.783,1.981,7.902,6.649,7.902,11.826
			C213.326,220.245,207.599,225.971,200.533,225.979z"/>
		<path d="M503.467,439.312H435.2c-4.713,0-8.533,3.82-8.533,8.533s3.82,8.533,8.533,8.533h68.267c4.713,0,8.533-3.82,8.533-8.533
			S508.18,439.312,503.467,439.312z"/>
	</g>
</g>
<g>
</g>
<g>
</g>
<g>
</g>
<g>
</g>
<g>
</g>
<g>
</g>
<g>
</g>
<g>
</g>
<g>
</g>
<g>
</g>
<g>
</g>
<g>
</g>
<g>
</g>
<g>
</g>
<g>
</g>
</svg>
