<?xml version="1.0" encoding="iso-8859-1"?>
<!-- Generator: Adobe Illustrator 19.0.0, SVG Export Plug-In . SVG Version: 6.00 Build 0)  -->
<svg version="1.1" id="Capa_1" xmlns="http://www.w3.org/2000/svg" xmlns:xlink="http://www.w3.org/1999/xlink" x="0px" y="0px"
	 viewBox="0 0 512.008 512.008" style="enable-background:new 0 0 512.008 512.008;" xml:space="preserve">
<g transform="translate(-1)">
	<g transform="translate(2 1)">
		<g>
			<path style="fill:#607D8B;" d="M206.027,67.271c-7.043,9.984-10.802,21.915-10.752,34.133v13.141
				c-7.149-6.526-16.045-10.825-25.6-12.373l-8.533-0.768c-4.352-0.001-8.684,0.573-12.885,1.707h-0.085
				c-7.877,2.039-15.14,5.963-21.163,11.435v-13.141c0.05-12.219-3.709-24.149-10.752-34.133H206.027z"/>
			<path style="fill:#607D8B;" d="M280.608,16.071v31.403h-51.2V16.071c0.014-4.707,3.826-8.519,8.533-8.533h34.133
				C276.781,7.551,280.594,11.364,280.608,16.071z"/>
		</g>
		<g>
			<path style="fill:#C52828;" d="M209.781,136.561c1.685,5.181,2.549,10.594,2.56,16.043v68.267
				c0.028,14.546-6.186,28.405-17.067,38.059V114.545c0.683,0.597,1.365,1.195,2.048,1.877c5.684,5.586,9.93,12.467,12.373,20.053
				h0.085V136.561z"/>
			<path style="fill:#C52828;" d="M314.741,101.404v179.2c-0.028,9.414-7.653,17.039-17.067,17.067h-25.6
				c9.414-0.028,17.039-7.652,17.067-17.067v-179.2c0.04-15.85-6.258-31.059-17.493-42.24c-4.823-4.837-10.454-8.793-16.64-11.691
				h-25.6c4.079-1.972,8.375-3.462,12.8-4.437c4.208-0.894,8.498-1.351,12.8-1.365c15.833,0.049,31.009,6.334,42.24,17.493
				C308.483,70.345,314.781,85.553,314.741,101.404z"/>
		</g>
		<g>
			<path style="fill:#F44335;" d="M289.141,101.404v179.2c-0.028,9.414-7.652,17.039-17.067,17.067h-59.733
				c-9.414-0.028-17.039-7.652-17.067-17.067v-21.675c10.88-9.654,17.095-23.513,17.067-38.059v-68.267
				c-0.011-5.448-0.875-10.861-2.56-16.043v-0.085h-0.085c-2.443-7.586-6.689-14.467-12.373-20.053
				c-0.683-0.683-1.365-1.28-2.048-1.877v-13.141c0.028-23.054,13.309-44.038,34.133-53.931h25.6
				c6.186,2.897,11.817,6.854,16.64,11.691C282.883,70.345,289.181,85.553,289.141,101.404z"/>
			<path style="fill:#F44335;" d="M255.008,47.473h-25.6v-5.803c4.302,0.014,8.592,0.472,12.8,1.365
				C246.633,44.012,250.928,45.501,255.008,47.473z"/>
		</g>
		<path style="fill:#607D8B;" d="M92.874,16.071v31.403h-51.2V16.071c0.014-4.707,3.826-8.519,8.533-8.533h34.133
			C89.048,7.551,92.86,11.364,92.874,16.071z"/>
		<path style="fill:#C52828;" d="M109.941,152.604v68.267c-0.028,14.546,6.186,28.405,17.067,38.059v21.675
			c-0.028,9.414-7.653,17.039-17.067,17.067h-25.6c9.414-0.028,17.039-7.652,17.067-17.067v-179.2
			c0.04-15.85-6.258-31.059-17.493-42.24c-4.823-4.837-10.454-8.793-16.64-11.691c-4.079-1.972-8.375-3.462-12.8-4.437
			c4.208-0.894,8.498-1.351,12.8-1.365c15.833,0.049,31.009,6.334,42.24,17.493c2.498,2.483,4.756,5.197,6.741,8.107
			c7.043,9.984,10.802,21.915,10.752,34.133v13.141c-6.66,5.908-11.636,13.475-14.421,21.931h-0.085v0.085
			C110.816,141.742,109.952,147.156,109.941,152.604z"/>
		<path style="fill:#F44335;" d="M101.408,101.404v179.2c-0.028,9.414-7.653,17.039-17.067,17.067H24.608
			c-9.414-0.028-17.039-7.652-17.067-17.067v-179.2C7.494,78.328,20.799,57.307,41.674,47.473c4.079-1.972,8.375-3.462,12.8-4.437
			c4.425,0.976,8.721,2.465,12.8,4.437c6.186,2.897,11.817,6.854,16.64,11.691C95.15,70.345,101.448,85.553,101.408,101.404z"/>
		<path style="fill:#FF5722;" d="M186.741,152.604v68.267c0.028,14.546-6.186,28.405-17.067,38.059
			c-6.03,5.554-13.37,9.488-21.333,11.435c-7.963-1.947-15.303-5.881-21.333-11.435c-10.88-9.654-17.095-23.513-17.067-38.059
			v-68.267c0.011-5.448,0.875-10.861,2.56-16.043v-0.085h0.085c5.503-16.394,18.87-28.928,35.584-33.365h0.085
			c7.989,1.946,15.357,5.879,21.419,11.435c0.683,0.597,1.365,1.195,2.048,1.877c1.339,1.282,2.593,2.651,3.755,4.096
			c3.825,4.747,6.746,10.156,8.619,15.957h0.085v0.085C185.867,141.742,186.73,147.156,186.741,152.604z"/>
		<path style="fill:#D84315;" d="M212.341,152.604v68.267c0.028,14.546-6.186,28.405-17.067,38.059
			c-7.149,6.526-16.045,10.826-25.6,12.373c-5.643,1.024-11.424,1.024-17.067,0c-1.439-0.231-2.864-0.545-4.267-0.939
			c7.963-1.947,15.303-5.881,21.333-11.435c10.88-9.654,17.095-23.513,17.067-38.059v-68.267c-0.011-5.448-0.875-10.861-2.56-16.043
			v-0.085h-0.085c-1.872-5.802-4.794-11.21-8.619-15.957c-1.161-1.445-2.415-2.814-3.755-4.096c-0.683-0.683-1.365-1.28-2.048-1.877
			c-6.062-5.555-13.43-9.489-21.419-11.435c4.201-1.134,8.534-1.708,12.885-1.707l8.533,0.768c9.555,1.548,18.451,5.848,25.6,12.373
			c0.683,0.597,1.365,1.195,2.048,1.877c5.684,5.586,9.93,12.467,12.373,20.053h0.085v0.085
			C211.467,141.742,212.33,147.156,212.341,152.604z"/>
		<path style="fill:#FF5722;" d="M148.341,270.364c-1.403,0.394-2.828,0.708-4.267,0.939c-5.643,1.024-11.424,1.024-17.067,0
			v-12.373C133.038,264.483,140.378,268.417,148.341,270.364z"/>
		<path style="fill:#607D8B;" d="M495.468,364.663l-76.8-13.964c-2.489-0.453-5.051,0.223-6.994,1.844
			c-1.943,1.621-3.066,4.021-3.066,6.551v-1.691h-59.733c0-4.713-3.82-8.533-8.533-8.533h-17.067c-4.713,0-8.533,3.82-8.533,8.533
			v8.533h-102.4c-4.713,0-8.533,3.821-8.533,8.533h-153.6c-4.713,0-8.533,3.82-8.533,8.533v17.067c0,4.713,3.821,8.533,8.533,8.533
			h8.533l0.01,0.011c10.489,11.937,13.767,28.584,8.587,43.607l-17.13,50.249h42.667l34.133-93.867h76.8
			c0,4.713,3.821,8.533,8.533,8.533l0.01,0.01c10.388,10.388,13.745,25.888,8.587,39.643l-17.13,45.681h42.667l34.133-85.333h34.133
			v8.533c0,4.713,3.82,8.533,8.533,8.533h17.067c4.713,0,8.533-3.821,8.533-8.533h59.733v-1.692c0,2.53,1.123,4.93,3.066,6.552
			c1.943,1.621,4.505,2.297,6.994,1.844l76.8-13.964c4.057-0.738,7.007-4.272,7.007-8.396v-36.957
			C502.474,368.935,499.525,365.401,495.468,364.663z"/>
		<g>
			<path style="fill:#37474F;" d="M323.275,348.871h17.067c4.713,0,8.533,3.82,8.533,8.533v68.267c0,4.713-3.82,8.533-8.533,8.533
				h-17.067c-4.713,0-8.533-3.821-8.533-8.533v-68.267C314.741,352.691,318.562,348.871,323.275,348.871z"/>
			<path style="fill:#37474F;" d="M495.468,418.411l-76.8,13.964c-2.49,0.453-5.052-0.223-6.994-1.844
				c-1.943-1.621-3.066-4.021-3.066-6.552v-64.884c0-2.53,1.123-4.93,3.066-6.551c1.943-1.621,4.505-2.297,6.994-1.844l76.8,13.964
				c4.058,0.738,7.007,4.272,7.007,8.396v36.957C502.475,414.14,499.525,417.673,495.468,418.411z"/>
		</g>
		<path style="fill:#607D8B;" d="M469.868,418.411l-76.8,13.964c-2.49,0.453-5.052-0.223-6.994-1.844
			c-1.943-1.621-3.066-4.021-3.066-6.552v-64.884c0-2.53,1.123-4.93,3.066-6.551c1.943-1.621,4.505-2.297,6.994-1.844l76.8,13.964
			c4.058,0.738,7.007,4.272,7.007,8.396v36.957C476.875,414.14,473.925,417.673,469.868,418.411z"/>
		<g>
			<path style="fill:#37474F;" d="M212.341,417.137l0.01,0.01c10.388,10.388,13.745,25.888,8.587,39.643l-17.13,45.681h42.667
				l34.133-85.333H212.341z"/>
			<path style="fill:#37474F;" d="M58.741,408.604l0.01,0.011c10.489,11.937,13.767,28.584,8.587,43.607l-17.13,50.249h42.667
				l34.133-93.867H58.741z"/>
		</g>
		<path style="fill:#607D8B;" d="M50.208,374.471h153.6v34.133h-153.6c-4.713,0-8.533-3.821-8.533-8.533v-17.067
			C41.674,378.291,45.495,374.471,50.208,374.471z"/>
	</g>
	<path d="M506,358.546l-93.867-17.067c-2.489-0.453-5.05,0.222-6.993,1.842c-1.942,1.621-3.065,4.02-3.066,6.549h-45.041
		c-3.024-5.262-8.623-8.514-14.692-8.533h-17.067c-9.421,0.011-17.056,7.645-17.067,17.067h-93.867
		c-6.069,0.02-11.668,3.272-14.692,8.533H52.208c-9.245,0.019-16.794,7.397-17.023,16.64c-10.743-2.169-18.094-12.126-17.004-23.031
		c1.09-10.905,10.267-19.21,21.227-19.209h89.6c23.553-0.028,42.639-19.114,42.667-42.667v-17.748
		c5.917-0.849,11.671-2.591,17.067-5.165v5.846c0.015,14.132,11.468,25.585,25.6,25.6h85.333c14.132-0.015,25.585-11.468,25.6-25.6
		v-179.2c0.048-18.115-7.15-35.498-19.992-48.275c-4.225-4.198-8.979-7.827-14.142-10.795V17.071
		c-0.011-9.421-7.645-17.056-17.067-17.067h-34.133c-9.421,0.011-17.056,7.645-17.067,17.067v26.304
		c-7.309,4.235-13.775,9.783-19.072,16.363H122.54c-1.561-1.958-3.226-3.83-4.99-5.608c-4.225-4.198-8.979-7.827-14.142-10.795
		V17.071c-0.011-9.421-7.645-17.056-17.067-17.067H52.208c-9.421,0.011-17.056,7.645-17.067,17.067v26.304
		C14.045,55.55,1.037,78.046,1.008,102.404v179.2c0.015,14.132,11.468,25.585,25.6,25.6h85.333
		c14.132-0.015,25.585-11.468,25.6-25.6v-5.846c5.395,2.574,11.149,4.315,17.067,5.165v17.748
		c-0.015,14.132-11.468,25.585-25.6,25.6h-89.6C19.044,324.212,2.196,340.1,1.061,360.432
		c-1.136,20.332,13.838,37.997,34.081,40.208v0.431c0.011,9.421,7.645,17.056,17.067,17.067h4.412
		c6.639,9.411,8.365,21.434,4.642,32.333l-17.13,50.25c-0.888,2.605-0.464,5.479,1.138,7.717s4.185,3.566,6.937,3.566h42.667
		c3.589,0,6.794-2.244,8.021-5.617l32.091-88.25h64.663c2.249,3.868,5.93,6.696,10.247,7.872c6.759,7.976,8.689,18.978,5.05,28.778
		l-17.129,45.683c-0.981,2.621-0.616,5.557,0.978,7.857c1.594,2.301,4.214,3.674,7.013,3.676h42.667
		c3.49-0.002,6.628-2.127,7.925-5.367l31.986-79.967h19.822c0.011,9.421,7.645,17.056,17.067,17.067h17.067
		c6.069-0.02,11.668-3.272,14.692-8.533h45.041c0.002,4.712,3.822,8.531,8.533,8.533c0.512,0.003,1.022-0.045,1.525-0.142
		L506,426.529c4.058-0.734,7.009-4.268,7.008-8.392v-51.2C513.009,362.813,510.058,359.279,506,358.546z M120.474,221.871v-68.267
		c0-23.564,19.103-42.667,42.667-42.667s42.667,19.103,42.667,42.667v68.267c0,23.564-19.103,42.667-42.667,42.667
		S120.474,245.435,120.474,221.871z M239.941,17.071h34.133v19.289c-11.185-2.971-22.953-2.962-34.133,0.025V17.071z
		 M257.008,51.204c13.58-0.004,26.606,5.389,36.208,14.992c9.603,9.603,14.996,22.628,14.992,36.208v179.2
		c-0.005,4.711-3.822,8.529-8.533,8.533h-85.333c-4.711-0.005-8.529-3.822-8.533-8.533v-18.01
		c10.94-11.132,17.069-26.116,17.067-41.723v-68.267c0.003-15.608-6.126-30.592-17.067-41.723v-9.477
		C205.839,74.14,228.744,51.235,257.008,51.204z M193.767,76.804c-2.956,7.316-4.611,15.092-4.893,22.977
		c-16.249-7.88-35.212-7.881-51.461-0.003c-0.27-7.881-1.908-15.655-4.841-22.974H193.767z M52.208,17.071h34.133v19.289
		c-11.185-2.971-22.953-2.962-34.133,0.025V17.071z M111.941,290.137H26.608c-4.711-0.005-8.529-3.822-8.533-8.533v-179.2
		c0-18.292,9.759-35.195,25.6-44.341s35.359-9.146,51.2,0s25.6,26.049,25.6,44.341v9.477c-10.94,11.132-17.069,26.116-17.067,41.723
		v68.267c-0.003,15.608,6.126,30.592,17.067,41.723v18.01C120.47,286.315,116.652,290.133,111.941,290.137z M52.208,384.004h145.067
		v17.067H52.208V384.004z M88.899,494.937H64.133l13.279-38.958c4.141-12.369,3.63-25.823-1.437-37.842h40.849L88.899,494.937z
		 M242.696,494.937H218.12l12.809-34.15c4.103-11.061,3.796-23.276-0.857-34.116h39.931L242.696,494.937z M282.467,409.604h-68.126
		v-34.133h93.867v34.133H282.467z M325.275,426.671v-68.267h17.067v68.267H325.275z M359.408,418.137v-51.2h42.667v51.2H359.408z
		 M495.941,411.012l-76.8,13.967v-64.883l76.8,13.967V411.012z"/>
</g>
<g>
</g>
<g>
</g>
<g>
</g>
<g>
</g>
<g>
</g>
<g>
</g>
<g>
</g>
<g>
</g>
<g>
</g>
<g>
</g>
<g>
</g>
<g>
</g>
<g>
</g>
<g>
</g>
<g>
</g>
</svg>
