<?xml version="1.0" encoding="iso-8859-1"?>
<!-- Generator: Adobe Illustrator 19.0.0, SVG Export Plug-In . SVG Version: 6.00 Build 0)  -->
<svg version="1.1" id="Capa_1" xmlns="http://www.w3.org/2000/svg" xmlns:xlink="http://www.w3.org/1999/xlink" x="0px" y="0px"
	 viewBox="0 0 512.013 512.013" style="enable-background:new 0 0 512.013 512.013;" xml:space="preserve">
<g transform="translate(-1)">
	<g transform="translate(0 1)">
		<path style="fill:#00695C;" d="M495.941,203.805v127.659c-0.024,5.561-2.723,10.77-7.253,13.995l-91.307,64.512l-8.789,6.144
			c-10.186-3.354-21.074-3.972-31.573-1.792c-1.621,0.256-3.242,0.683-4.864,1.109c-1.707,0.512-3.499,1.024-5.205,1.707h-0.085
			c-12.649,4.761-26.481,5.388-39.509,1.792h-0.085c-1.792-0.512-3.584-1.109-5.376-1.792h-0.085
			c-12.619-4.763-26.425-5.39-39.424-1.792h-0.171c-1.792,0.512-3.499,1.109-5.291,1.792h-0.085
			c-12.619,4.763-26.425,5.39-39.424,1.792h-0.171c-1.793-0.508-3.559-1.106-5.291-1.792h-0.085
			c-12.619-4.763-26.425-5.39-39.424-1.792h-0.171c-1.793,0.507-3.559,1.105-5.291,1.792h-0.085
			c-12.649,4.762-26.482,5.389-39.509,1.792h-0.085c-1.792-0.512-3.584-1.109-5.376-1.792c-12.649-4.762-26.482-5.389-39.509-1.792
			h-0.085c-1.792,0.512-3.584,1.109-5.376,1.792c-12.619,4.763-26.425,5.39-39.424,1.792H37.36
			c-1.793-0.508-3.559-1.106-5.291-1.792l-5.461-2.048V212.338c0.014-4.707,3.826-8.519,8.533-8.533h8.533V92.871
			c0.014-4.707,3.826-8.519,8.533-8.533h85.333c4.707,0.014,8.519,3.826,8.533,8.533v110.933h8.533
			c4.707,0.014,8.519,3.826,8.533,8.533v59.733h34.133v-68.267c0.014-4.707,3.826-8.519,8.533-8.533h281.6
			C492.115,195.285,495.927,199.098,495.941,203.805z"/>
		<path style="fill:#009688;" d="M461.808,203.805v127.659c-0.024,5.561-2.724,10.77-7.253,13.995l-83.627,59.051l-13.909,9.813
			l-2.56,1.792c-0.756-0.267-1.525-0.494-2.304-0.683c-12.951-3.712-26.758-3.113-39.339,1.707h-0.085
			c-1.792,0.682-3.584,1.28-5.376,1.792h-0.085c-7.441,2.036-15.185,2.729-22.869,2.048c-1.451-0.085-2.816-0.341-4.181-0.512
			c-4.257-0.676-8.432-1.792-12.459-3.328h-0.085c-1.792-0.683-3.499-1.28-5.291-1.792h-0.171
			c-5.804-1.619-11.81-2.395-17.835-2.304c-1.826-0.014-3.651,0.1-5.461,0.341c-5.519,0.529-10.943,1.792-16.128,3.755h-0.085
			c-1.732,0.686-3.498,1.285-5.291,1.792h-0.171c-7.44,2.043-15.185,2.737-22.87,2.048c-1.365-0.085-2.816-0.341-4.181-0.512
			c-4.226-0.687-8.372-1.802-12.373-3.328h-0.085c-1.792-0.683-3.499-1.28-5.291-1.792h-0.171
			c-7.469-2.039-15.242-2.733-22.955-2.048c-1.365,0.085-2.816,0.341-4.181,0.512c-4.199,0.687-8.316,1.803-12.288,3.328h-0.085
			c-1.792,0.682-3.584,1.28-5.376,1.792h-0.085c-5.56,1.53-11.3,2.305-17.067,2.304c-0.344,0.014-0.688-0.015-1.024-0.085
			c-1.792,0-3.584-0.085-5.461-0.256c-5.462-0.54-10.828-1.802-15.957-3.755c-1.792-0.683-3.584-1.28-5.376-1.792h-0.085
			c-13.028-3.597-26.861-2.97-39.509,1.792c-1.732,0.686-3.498,1.284-5.291,1.792H37.36c-6.104,1.713-12.438,2.462-18.773,2.219
			l-12.032-4.608c-2.858-1.05-4.934-3.553-5.438-6.556s0.641-6.046,3-7.972s5.569-2.439,8.411-1.344l14.08,5.376V212.338
			c0.014-4.707,3.826-8.519,8.533-8.533h8.533V92.871c0.014-4.707,3.826-8.519,8.533-8.533h51.2
			c4.707,0.014,8.519,3.826,8.533,8.533v110.933h8.533c4.707,0.014,8.519,3.826,8.533,8.533v59.733h68.267v-68.267
			c0.014-4.707,3.826-8.519,8.533-8.533h247.467C457.982,195.285,461.794,199.098,461.808,203.805z"/>
		<path style="fill:#607D8B;" d="M163.141,212.338v59.733H26.608v-59.733c0.014-4.707,3.826-8.519,8.533-8.533h119.467
			C159.315,203.819,163.127,207.631,163.141,212.338z"/>
		<path style="fill:#00838F;" d="M257.008,195.271v76.8h-59.733v-68.267c0.014-4.707,3.826-8.519,8.533-8.533H257.008z"/>
		<rect x="257.008" y="195.271" style="fill:#009688;" width="59.733" height="76.8"/>
		<rect x="316.741" y="195.271" style="fill:#00838F;" width="59.733" height="76.8"/>
		<rect x="376.475" y="195.271" style="fill:#009688;" width="59.733" height="76.8"/>
		<path style="fill:#00838F;" d="M495.941,203.805v68.267h-59.733v-76.8h51.2C492.115,195.285,495.927,199.098,495.941,203.805z"/>
		<path style="fill:#02A9F4;" d="M103.408,118.471h42.667v42.667h-42.667c-4.713,0-8.533-3.82-8.533-8.533v-25.6
			C94.875,122.292,98.695,118.471,103.408,118.471z"/>
	</g>
	<path d="M154.608,119.471v-25.6c-0.011-9.421-7.645-17.056-17.067-17.067H52.208c-9.421,0.011-17.056,7.645-17.067,17.067v102.4
		c-9.421,0.011-17.056,7.645-17.067,17.067v190.381l-5.504-2.09c-2.849-1.082-6.059-0.562-8.421,1.364s-3.517,4.966-3.029,7.975
		c0.487,3.009,2.543,5.529,5.392,6.611l16.759,6.361l0.04,0.016l5.705,2.165c16.428,6.247,34.578,6.244,51.004-0.009
		c12.254-4.705,25.795-4.823,38.129-0.333c0.258,0.125,0.521,0.242,0.787,0.341c16.443,6.244,34.607,6.238,51.046-0.017
		c12.544-4.764,26.402-4.752,38.938,0.033c16.446,6.231,34.604,6.219,51.042-0.033c12.547-4.764,26.407-4.752,38.946,0.033
		c16.443,6.231,34.599,6.219,51.033-0.033c12.558-4.768,26.43-4.757,38.979,0.033c16.463,6.242,34.645,6.224,51.096-0.05
		c12.504-4.75,26.316-4.75,38.821,0l22.612,8.567c2.852,1.081,6.064,0.558,8.426-1.372s3.515-4.973,3.025-7.983
		c-0.49-3.01-2.549-5.531-5.401-6.611l-22.617-8.567c-16.46-6.233-34.635-6.209-51.079,0.067c-7.957,2.945-16.492,3.99-24.924,3.051
		l84.779-59.851c6.76-4.83,10.785-12.616,10.816-20.924V204.805c-0.011-9.421-7.645-17.056-17.067-17.067h-281.6
		c-9.421,0.011-17.056,7.645-17.067,17.067v59.733h-17.067v-51.2c-0.011-9.421-7.645-17.056-17.067-17.067V119.471z
		 M137.541,153.605h-34.133v-25.6h34.133V153.605z M487.408,332.463c-0.019,2.787-1.373,5.397-3.642,7.017l-96.699,68.26
		c-14.322-3.659-29.425-2.81-43.247,2.431c-12.547,4.764-26.407,4.752-38.946-0.033c-16.444-6.231-34.602-6.219-51.038,0.033
		c-12.544,4.764-26.402,4.752-38.938-0.033c-16.444-6.231-34.602-6.219-51.038,0.033c-12.251,4.694-25.784,4.809-38.113,0.325
		c-0.258-0.125-0.521-0.242-0.792-0.341c-16.428-6.247-34.578-6.244-51.004,0.009c-12.5,4.749-26.305,4.759-38.812,0.028V281.605
		h452.267V332.463z M385.008,264.538v-59.733h42.667v59.733H385.008z M367.941,264.538h-42.667v-59.733h42.667V264.538z
		 M308.208,264.538h-42.667v-59.733h42.667V264.538z M487.408,264.538h-42.667v-59.733h42.667V264.538z M205.808,204.805h42.667
		v59.733h-42.667V204.805z M35.141,264.538v-51.2h119.467v51.2H35.141z M52.208,196.271v-102.4h85.333v17.067h-34.133
		c-9.421,0.011-17.056,7.645-17.067,17.067v25.6c0.011,9.421,7.645,17.056,17.067,17.067h34.133v25.6H52.208z"/>
</g>
<g>
</g>
<g>
</g>
<g>
</g>
<g>
</g>
<g>
</g>
<g>
</g>
<g>
</g>
<g>
</g>
<g>
</g>
<g>
</g>
<g>
</g>
<g>
</g>
<g>
</g>
<g>
</g>
<g>
</g>
</svg>
