<?xml version="1.0" encoding="iso-8859-1"?>
<!-- Generator: Adobe Illustrator 19.0.0, SVG Export Plug-In . SVG Version: 6.00 Build 0)  -->
<svg version="1.1" id="Capa_1" xmlns="http://www.w3.org/2000/svg" xmlns:xlink="http://www.w3.org/1999/xlink" x="0px" y="0px"
	 viewBox="0 0 512 512" style="enable-background:new 0 0 512 512;" xml:space="preserve">
<g>
	<g transform="translate(0 7)">
		<g>
			<rect x="102.4" y="163.667" style="fill:#795548;" width="307.2" height="76.8"/>
			<path style="fill:#795548;" d="M503.467,172.2v59.733c-0.014,4.707-3.826,8.52-8.533,8.533H460.8v-76.8h34.133
				C499.641,163.68,503.453,167.493,503.467,172.2z"/>
			<path style="fill:#795548;" d="M51.2,163.667v76.8H17.067c-4.707-0.014-8.52-3.826-8.533-8.533V172.2
				c0.014-4.707,3.826-8.52,8.533-8.533H51.2z"/>
			<rect x="102.4" y="325.8" style="fill:#795548;" width="307.2" height="85.333"/>
			<path style="fill:#795548;" d="M17.067,325.8c-4.958,0.288-8.763,4.511-8.533,9.472v66.389c-0.229,4.961,3.575,9.184,8.533,9.472
				H51.2V325.8H17.067z M494.933,411.133H460.8v85.333h34.133c4.958-0.288,8.763-4.511,8.533-9.472v-66.389
				C503.696,415.644,499.892,411.421,494.933,411.133z M494.933,240.467H460.8V325.8h34.133c4.958-0.288,8.763-4.511,8.533-9.472
				v-66.389C503.696,244.977,499.892,240.755,494.933,240.467z"/>
			<path style="fill:#795548;" d="M503.467,335.272v66.389c0.229,4.961-3.575,9.184-8.533,9.472H460.8V325.8h34.133
				C499.892,326.088,503.696,330.311,503.467,335.272z"/>
			<rect x="102.4" y="240.467" style="fill:#795548;" width="307.2" height="85.333"/>
			<path style="fill:#795548;" d="M51.2,240.467V325.8H17.067c-4.958-0.288-8.763-4.511-8.533-9.472v-66.389
				c-0.229-4.961,3.575-9.184,8.533-9.472H51.2z"/>
			<path style="fill:#795548;" d="M503.467,249.939v66.389c0.229,4.961-3.575,9.184-8.533,9.472H460.8v-85.333h34.133
				C499.892,240.755,503.696,244.977,503.467,249.939z"/>
			<path style="fill:#795548;" d="M51.2,411.133v85.333H17.067c-4.958-0.288-8.763-4.511-8.533-9.472v-66.389
				c-0.229-4.961,3.575-9.184,8.533-9.472H51.2z"/>
			<rect x="102.4" y="411.133" style="fill:#795548;" width="307.2" height="85.333"/>
			<path style="fill:#795548;" d="M503.467,420.605v66.389c0.229,4.961-3.575,9.184-8.533,9.472H460.8v-85.333h34.133
				C499.892,411.421,503.696,415.644,503.467,420.605z"/>
		</g>
		<g>
			<rect x="51.2" y="163.667" style="fill:#4E342E;" width="51.2" height="332.8"/>
			<path style="fill:#4E342E;" d="M102.4,163.667H51.2c0.014-4.707,3.826-8.52,8.533-8.533h34.133
				C98.574,155.147,102.386,158.96,102.4,163.667z"/>
			<rect x="409.6" y="163.667" style="fill:#4E342E;" width="51.2" height="332.8"/>
			<path style="fill:#4E342E;" d="M460.8,163.667h-51.2c0.014-4.707,3.826-8.52,8.533-8.533h34.133
				C456.974,155.147,460.786,158.96,460.8,163.667z"/>
		</g>
		<path style="fill:#7F8C8D;" d="M503.467,69.8H8.533C3.821,69.8,0,65.979,0,61.267s3.821-8.533,8.533-8.533h494.933
			c4.713,0,8.533,3.821,8.533,8.533S508.18,69.8,503.467,69.8z"/>
	</g>
	<g>
		<path d="M494.933,162.133h-27.975c-3.025-5.261-8.623-8.513-14.692-8.533h-34.133c-6.069,0.02-11.667,3.272-14.692,8.533H108.558
			c-3.025-5.261-8.623-8.513-14.692-8.533H59.733c-6.069,0.02-11.667,3.272-14.692,8.533H17.067
			C7.646,162.146,0.012,169.779,0,179.2v59.733c0.017,3.005,0.837,5.951,2.375,8.533C0.837,250.049,0.017,252.995,0,256v68.267
			c0.017,3.005,0.837,5.951,2.375,8.533c-1.538,2.582-2.358,5.528-2.375,8.533V409.6c0.017,3.005,0.837,5.951,2.375,8.533
			c-1.538,2.582-2.358,5.528-2.375,8.533v68.267c0.012,9.421,7.646,17.054,17.067,17.067h477.867
			c9.421-0.012,17.054-7.646,17.067-17.067v-68.267c-0.017-3.005-0.837-5.951-2.375-8.533c1.538-2.582,2.358-5.528,2.375-8.533
			v-68.267c-0.017-3.005-0.837-5.951-2.375-8.533c1.538-2.582,2.358-5.528,2.375-8.533V256c-0.017-3.005-0.837-5.951-2.375-8.533
			c1.538-2.582,2.358-5.528,2.375-8.533V179.2C511.988,169.779,504.354,162.146,494.933,162.133z M494.933,238.933h-25.6V179.2h25.6
			V238.933z M494.933,324.267h-25.6V256h25.6V324.267z M494.933,409.6h-25.6v-68.267h25.6V409.6z M110.933,256h290.133v68.267
			H110.933V256z M110.933,341.333h290.133V409.6H110.933V341.333z M401.067,238.933H110.933V179.2h290.133V238.933z
			 M110.933,426.667h290.133v68.267H110.933V426.667z M17.067,341.333h25.6V409.6h-25.6V341.333z M17.067,256h25.6v68.267h-25.6V256
			z M17.067,179.2h25.6v59.733h-25.6V179.2z M17.067,426.667h25.6v68.267h-25.6V426.667z M59.733,494.933V170.667h34.133v324.267
			H59.733z M418.133,494.933V170.667h34.133v324.267H418.133z M494.933,494.933h-25.6v-68.267h25.6V494.933z"/>
		<path d="M503.467,59.733H384.642c0.786-5.731,2.428-11.311,4.871-16.554l5.521,5.52c2.15,2.184,5.305,3.047,8.267,2.261
			c2.962-0.785,5.275-3.099,6.06-6.061c0.785-2.962-0.078-6.117-2.261-8.267l-7.702-7.703c5.134-5.261,11.615-9.008,18.736-10.832
			V25.6c0,4.713,3.82,8.533,8.533,8.533s8.533-3.821,8.533-8.533v-7.468c8.119,2.061,15.385,6.624,20.767,13.043
			c3.082,3.553,8.459,3.941,12.019,0.867c3.561-3.074,3.962-8.449,0.897-12.017C458.456,7.447,443.005,0.117,426.667,0
			c-30.4,0-55.522,26.113-59.215,59.733h-93.744c0.786-5.731,2.428-11.311,4.871-16.554l5.521,5.52
			c2.15,2.184,5.305,3.047,8.267,2.261s5.275-3.099,6.06-6.061s-0.078-6.117-2.261-8.267l-7.702-7.703
			c5.134-5.261,11.615-9.008,18.736-10.832V25.6c0,4.713,3.821,8.533,8.533,8.533c4.713,0,8.533-3.821,8.533-8.533v-7.468
			c8.119,2.061,15.385,6.624,20.767,13.043c3.082,3.553,8.459,3.941,12.019,0.867c3.561-3.074,3.962-8.449,0.897-12.017
			C347.523,7.447,332.071,0.117,315.733,0c-30.4,0-55.522,26.113-59.215,59.733h-93.744c0.786-5.731,2.428-11.311,4.871-16.554
			l5.521,5.52c3.34,3.288,8.706,3.267,12.019-0.047c3.314-3.314,3.335-8.68,0.047-12.019l-7.702-7.703
			c5.134-5.261,11.615-9.008,18.736-10.832V25.6c0,4.713,3.821,8.533,8.533,8.533c4.713,0,8.533-3.821,8.533-8.533v-7.468
			c8.119,2.061,15.385,6.624,20.767,13.043c3.082,3.553,8.459,3.941,12.019,0.867c3.561-3.074,3.962-8.449,0.897-12.017
			C236.59,7.447,221.138,0.117,204.8,0c-30.4,0-55.522,26.113-59.215,59.733H51.842c0.786-5.731,2.428-11.311,4.871-16.554
			l5.521,5.52c3.34,3.288,8.706,3.267,12.019-0.047s3.335-8.68,0.047-12.019l-7.702-7.703c5.134-5.261,11.615-9.008,18.736-10.832
			V25.6c0,4.713,3.821,8.533,8.533,8.533c4.713,0,8.533-3.821,8.533-8.533v-7.468c8.119,2.061,15.385,6.624,20.767,13.043
			c3.082,3.553,8.459,3.941,12.019,0.867c3.561-3.074,3.962-8.449,0.897-12.017C125.656,7.447,110.205,0.117,93.867,0
			c-30.4,0-55.522,26.113-59.215,59.733H8.533C3.821,59.733,0,63.554,0,68.267C0,72.98,3.821,76.8,8.533,76.8h26.119
			c3.693,33.621,28.815,59.733,59.215,59.733c16.338-0.117,31.79-7.447,42.217-20.025c3.065-3.568,2.663-8.944-0.897-12.017
			c-3.561-3.074-8.937-2.686-12.019,0.867c-5.382,6.419-12.647,10.982-20.767,13.042v-7.467c0-4.713-3.821-8.533-8.533-8.533
			c-4.713,0-8.533,3.821-8.533,8.533v7.501c-7.12-1.824-13.602-5.571-18.735-10.832L74.3,99.9c3.281-3.341,3.256-8.701-0.054-12.012
			s-8.671-3.335-12.012-0.054l-5.521,5.52c-2.443-5.243-4.085-10.823-4.871-16.554h93.744c3.693,33.621,28.815,59.733,59.215,59.733
			c16.338-0.117,31.79-7.447,42.217-20.025c3.065-3.568,2.663-8.944-0.897-12.017c-3.561-3.074-8.937-2.686-12.019,0.867
			c-5.382,6.419-12.647,10.982-20.767,13.042v-7.467c0-4.713-3.821-8.533-8.533-8.533c-4.713,0-8.533,3.821-8.533,8.533v7.501
			c-7.12-1.824-13.602-5.571-18.735-10.832l7.702-7.703c3.281-3.341,3.256-8.701-0.054-12.012
			c-3.311-3.311-8.671-3.335-12.012-0.054l-5.521,5.52c-2.443-5.243-4.085-10.823-4.871-16.554h93.744
			c3.693,33.621,28.815,59.733,59.215,59.733c16.338-0.117,31.79-7.447,42.217-20.025c2.001-2.306,2.617-5.506,1.615-8.39
			c-1.002-2.884-3.468-5.013-6.468-5.583c-3-0.57-6.075,0.507-8.064,2.823c-5.382,6.419-12.647,10.982-20.767,13.042v-7.467
			c0-4.713-3.821-8.533-8.533-8.533c-4.713,0-8.533,3.821-8.533,8.533v7.501c-7.12-1.824-13.602-5.571-18.735-10.832l7.702-7.703
			c2.188-2.149,3.055-5.307,2.27-8.271c-0.785-2.965-3.1-5.28-6.065-6.065c-2.965-0.785-6.122,0.082-8.271,2.27l-5.521,5.52
			c-2.443-5.243-4.085-10.823-4.871-16.554h93.744c3.693,33.621,28.815,59.733,59.215,59.733
			c16.338-0.117,31.79-7.447,42.217-20.025c2.001-2.306,2.617-5.506,1.615-8.39c-1.002-2.884-3.468-5.013-6.468-5.583
			c-3-0.57-6.075,0.507-8.064,2.823c-5.382,6.419-12.647,10.982-20.767,13.042v-7.467c0-4.713-3.82-8.533-8.533-8.533
			s-8.533,3.821-8.533,8.533v7.501c-7.12-1.824-13.602-5.571-18.735-10.832L407.1,99.9c2.188-2.149,3.055-5.307,2.27-8.271
			c-0.785-2.965-3.1-5.28-6.065-6.065c-2.965-0.785-6.122,0.082-8.271,2.27l-5.521,5.52c-2.443-5.243-4.085-10.823-4.871-16.554
			h118.825c4.713,0,8.533-3.82,8.533-8.533C512,63.554,508.18,59.733,503.467,59.733z"/>
	</g>
</g>
<g>
</g>
<g>
</g>
<g>
</g>
<g>
</g>
<g>
</g>
<g>
</g>
<g>
</g>
<g>
</g>
<g>
</g>
<g>
</g>
<g>
</g>
<g>
</g>
<g>
</g>
<g>
</g>
<g>
</g>
</svg>
