<?xml version="1.0" encoding="iso-8859-1"?>
<!-- Generator: Adobe Illustrator 19.0.0, SVG Export Plug-In . SVG Version: 6.00 Build 0)  -->
<svg version="1.1" id="Capa_1" xmlns="http://www.w3.org/2000/svg" xmlns:xlink="http://www.w3.org/1999/xlink" x="0px" y="0px"
	 viewBox="0 0 504.688 504.688" style="enable-background:new 0 0 504.688 504.688;" xml:space="preserve">
<g transform="translate(-1)">
	<g transform="translate(1 1)">
		<g>
			<polygon style="fill:#37474F;" points="235.563,200.443 235.563,131.365 269.137,131.365 269.137,184.403 			"/>
			<path style="fill:#37474F;" d="M235.563,7.393h16.787c9.271,0,16.787,7.516,16.787,16.787v50.361h-33.574V7.393z"/>
		</g>
		<path style="fill:#795548;" d="M193.512,418.672l-160.818,74.03c-2.19,0.988-4.564,1.503-6.967,1.511
			c-7.899,0.001-14.73-5.504-16.407-13.223s2.254-15.563,9.441-18.84l158.049-72.687L193.512,418.672z"/>
		<path style="fill:#4E342E;" d="M302.711,175.262c-88.076,0-159.475,71.4-159.475,159.475s71.4,159.475,159.475,159.475
			s159.475-71.4,159.475-159.475C462.166,246.67,390.778,175.283,302.711,175.262z M302.711,460.639
			c-69.534,0-125.902-56.368-125.902-125.902s56.368-125.902,125.902-125.902s125.902,56.368,125.902,125.902
			C428.528,404.236,372.209,460.555,302.711,460.639z"/>
		<path style="fill:#607D8B;" d="M210.383,57.754h92.328v83.934H185.202V82.934C185.202,69.028,196.476,57.754,210.383,57.754z"/>
	</g>
	<g>
		<path d="M208.528,241.114c-52.15,52.304-52.15,136.943,0,189.247c0.094,0.102,0.125,0.237,0.223,0.336
			c0.098,0.099,0.234,0.13,0.336,0.223c52.303,52.151,136.942,52.151,189.246,0c0.102-0.093,0.238-0.124,0.336-0.223
			c0.098-0.099,0.129-0.233,0.223-0.336c52.15-52.304,52.15-136.943,0-189.247c-0.094-0.102-0.125-0.237-0.223-0.336
			c-0.098-0.099-0.234-0.13-0.336-0.223c-52.303-52.151-136.942-52.151-189.246,0c-0.102,0.093-0.238,0.124-0.336,0.223
			C208.654,240.877,208.623,241.012,208.528,241.114z M420.794,327.344h-84.701c-0.783-3.004-1.983-5.884-3.565-8.555l59.886-59.886
			C409.047,278.034,419.008,302.056,420.794,327.344z M392.415,412.573l-59.886-59.886c1.582-2.671,2.782-5.551,3.564-8.555h84.701
			C419.008,369.419,409.047,393.441,392.415,412.573z M186.628,344.131h84.701c0.783,3.004,1.983,5.884,3.565,8.555l-59.886,59.886
			C198.374,393.441,188.413,369.419,186.628,344.131z M303.711,318.951c9.271,0,16.787,7.516,16.787,16.787
			c0,9.271-7.516,16.787-16.787,16.787c-9.271,0-16.787-7.516-16.787-16.787C286.936,326.472,294.444,318.963,303.711,318.951z
			 M286.762,364.555c2.671,1.582,5.551,2.782,8.555,3.564v84.701c-25.288-1.786-49.31-11.746-68.442-28.379L286.762,364.555z
			 M312.104,368.12c3.004-0.783,5.884-1.982,8.555-3.565l59.886,59.886c-19.132,16.633-43.153,26.593-68.442,28.379V368.12z
			 M320.659,306.92c-2.671-1.582-5.551-2.782-8.555-3.564v-84.701c25.288,1.786,49.31,11.746,68.442,28.379L320.659,306.92z
			 M295.317,303.356c-3.004,0.783-5.884,1.982-8.555,3.565l-59.886-59.886c19.132-16.633,43.153-26.593,68.442-28.379V303.356z
			 M274.893,318.789c-1.582,2.671-2.782,5.551-3.564,8.555h-84.701c1.786-25.288,11.746-49.31,28.379-68.442L274.893,318.789z"/>
		<path d="M496.76,75.541c4.636,0,8.393-3.758,8.393-8.393c0-4.636-3.758-8.393-8.393-8.393H312.104
			c0.001-2.226-0.883-4.362-2.457-5.936c-1.574-1.574-3.71-2.458-5.936-2.457h-25.18V25.18C278.515,11.28,267.25,0.015,253.35,0
			h-16.787c-2.226-0.001-4.362,0.883-5.936,2.457s-2.458,3.71-2.457,5.936v41.967h-16.787
			c-18.535,0.019-33.555,15.039-33.574,33.574v83.934h-16.787c-4.636,0-8.393,3.758-8.393,8.393c0,4.636,3.758,8.393,8.393,8.393
			h25.18c2.226,0.001,4.362-0.883,5.936-2.457c1.574-1.574,2.458-3.71,2.457-5.936v-25.18h33.574v34.949
			c-76.974,38.474-112.106,129.144-81.15,209.437L16.284,455.508c-6.086,2.768-10.821,7.843-13.16,14.106
			c-2.339,6.263-2.09,13.2,0.693,19.279c4.119,8.948,13.059,14.69,22.91,14.713c3.614-0.011,7.184-0.788,10.475-2.279l134.723-61.94
			c50.339,64.997,140.251,84.148,212.708,45.307s106.28-124.322,80.017-202.225c-26.263-77.903-104.936-125.458-186.12-112.502
			v-18.886h25.18c2.226,0.001,4.362-0.883,5.936-2.457c1.574-1.574,2.458-3.71,2.457-5.936H496.76c4.636,0,8.393-3.758,8.393-8.393
			c0-4.636-3.758-8.393-8.393-8.393h-25.18v-16.787h25.18c4.636,0,8.393-3.758,8.393-8.393s-3.758-8.393-8.393-8.393h-25.18V75.541
			H496.76z M244.957,16.787h8.393c4.634,0.003,8.39,3.759,8.393,8.393v25.18h-16.787V16.787z M30.284,486.033
			c-2.036,0.944-4.364,1.037-6.469,0.259c-2.105-0.779-3.812-2.364-4.744-4.406c-0.924-2.027-1.001-4.339-0.215-6.424
			c0.786-2.085,2.371-3.77,4.403-4.682l130.531-59.943c2.513,5.006,5.275,9.883,8.277,14.612L30.284,486.033z M454.793,335.738
			c0,83.44-67.642,151.082-151.082,151.082s-151.082-67.642-151.082-151.082s67.642-151.082,151.082-151.082
			C387.111,184.753,454.696,252.338,454.793,335.738z M261.743,173.393c-5.685,1.467-11.289,3.234-16.787,5.295v-27.606h16.787
			V173.393z M270.137,134.295h-75.541V83.934c0.012-9.266,7.521-16.775,16.787-16.787h83.934v67.148H270.137z M454.793,125.902
			H312.104v-16.787h142.689V125.902z M454.793,92.328H312.104V75.541h142.689V92.328z"/>
	</g>
</g>
<g>
</g>
<g>
</g>
<g>
</g>
<g>
</g>
<g>
</g>
<g>
</g>
<g>
</g>
<g>
</g>
<g>
</g>
<g>
</g>
<g>
</g>
<g>
</g>
<g>
</g>
<g>
</g>
<g>
</g>
</svg>
