<?xml version="1.0" encoding="iso-8859-1"?>
<!-- Generator: Adobe Illustrator 19.0.0, SVG Export Plug-In . SVG Version: 6.00 Build 0)  -->
<svg version="1.1" id="Capa_1" xmlns="http://www.w3.org/2000/svg" xmlns:xlink="http://www.w3.org/1999/xlink" x="0px" y="0px"
	 viewBox="0 0 512 512" style="enable-background:new 0 0 512 512;" xml:space="preserve">
<g>
	<g transform="translate(1 1)">
		<g>
			<path style="fill:#FFB301;" d="M434.2,41.666v51.201l-22.101,0c-1.219,0.012-2.422-0.282-3.499-0.853
				c-0.932-0.356-1.776-0.909-2.475-1.621l-3.584-3.584c-1.594-1.57-3.736-2.457-5.973-2.475h-30.635
				c-0.014,4.707-3.826,8.519-8.533,8.533H195.267c-4.707-0.014-8.519-3.826-8.533-8.533c0,0-14.933,0-36.267-2.133
				c-25.352-2.289-50.384-7.296-74.667-14.933c36.01-10.796,73.344-16.54,110.933-17.067c0.014-4.707,3.826-8.519,8.533-8.533H357.4
				c4.707,0.014,8.519,3.826,8.533,8.533h30.635c2.237-0.017,4.38-0.905,5.973-2.475l3.584-3.584
				c0.699-0.712,1.543-1.265,2.475-1.621c1.077-0.572,2.28-0.865,3.499-0.853L434.2,41.666z"/>
			<path style="fill:#FFB301;" d="M434.2,127V178.2l-22.101,0c-1.219,0.012-2.422-0.282-3.499-0.853
				c-0.932-0.356-1.776-0.909-2.475-1.621l-3.584-3.584c-1.594-1.57-3.736-2.457-5.973-2.475h-30.635
				c-0.014,4.707-3.826,8.519-8.533,8.533H195.267c-4.707-0.014-8.519-3.826-8.533-8.533c0,0-14.933,0-36.267-2.133
				c-25.352-2.289-50.384-7.296-74.667-14.933c36.01-10.796,73.344-16.54,110.933-17.067c0.014-4.707,3.826-8.519,8.533-8.533H357.4
				c4.707,0.014,8.519,3.826,8.533,8.533h30.635c2.237-0.017,4.38-0.905,5.973-2.475l3.584-3.584
				c0.699-0.712,1.543-1.265,2.475-1.621c1.077-0.572,2.28-0.865,3.499-0.853L434.2,127z"/>
		</g>
		<g>
			<path style="fill:#FEC108;" d="M408.6,41.667v51.2h-22.101c-2.237-0.017-4.38-0.905-5.973-2.475l-3.584-3.584
				c-1.594-1.57-3.736-2.457-5.973-2.475h-30.635c-0.014,4.707-3.826,8.519-8.533,8.533H195.267
				c-4.707-0.014-8.519-3.826-8.533-8.533c0,0-14.933,0-36.267-2.133c-25.352-2.289-50.384-7.296-74.667-14.933
				c36.01-10.796,73.344-16.54,110.933-17.067c0.014-4.707,3.826-8.519,8.533-8.533H331.8c4.707,0.014,8.519,3.826,8.533,8.533
				h30.635c2.237-0.017,4.38-0.905,5.973-2.475l3.584-3.584c1.594-1.57,3.736-2.457,5.973-2.475H408.6z"/>
			<path style="fill:#FEC108;" d="M408.6,127v51.2h-22.101c-2.237-0.017-4.38-0.905-5.973-2.475l-3.584-3.584
				c-1.594-1.57-3.736-2.457-5.973-2.475h-30.635c-0.014,4.707-3.826,8.519-8.533,8.533H195.267
				c-4.707-0.014-8.519-3.826-8.533-8.533c0,0-14.933,0-36.267-2.133c-25.352-2.289-50.384-7.296-74.667-14.933
				c36.01-10.796,73.344-16.54,110.933-17.067c0.014-4.707,3.826-8.519,8.533-8.533H331.8c4.707,0.014,8.519,3.826,8.533,8.533
				h30.635c2.237-0.017,4.38-0.905,5.973-2.475l3.584-3.584c1.594-1.57,3.736-2.457,5.973-2.475H408.6z"/>
		</g>
		<path style="fill:#607D8B;" d="M314.733,16.067v196.267h-93.867V16.067c0.014-4.707,3.826-8.519,8.533-8.533h76.8
			C310.907,7.547,314.719,11.36,314.733,16.067z"/>
		<polygon style="fill:#558B30;" points="485.4,263.533 485.4,374.467 24.6,263.533 		"/>
		<polygon style="fill:#8BC34A;" points="451.267,263.533 451.267,374.467 24.6,271.725 24.6,263.533 		"/>
		<g>
			<path style="fill:#2E7D32;" d="M485.4,374.467V485.4c-0.028,9.414-7.652,17.039-17.067,17.067H41.667
				c-9.414-0.028-17.039-7.653-17.067-17.067V263.533l426.667,102.741L485.4,374.467z"/>
			<path style="fill:#2E7D32;" d="M16.067,212.333h477.867c4.713,0,8.533,3.821,8.533,8.533V255c0,4.713-3.821,8.533-8.533,8.533
				H16.067c-4.713,0-8.533-3.821-8.533-8.533v-34.133C7.533,216.154,11.354,212.333,16.067,212.333z"/>
		</g>
		<g>
			<path style="fill:#4CAF50;" d="M451.267,374.467V485.4c-0.028,9.414-7.652,17.039-17.067,17.067H41.667
				c-9.414-0.028-17.039-7.653-17.067-17.067V271.725L451.267,374.467z"/>
			<path style="fill:#4CAF50;" d="M16.067,212.333H459.8c4.713,0,8.533,3.821,8.533,8.533V255c0,4.713-3.82,8.533-8.533,8.533
				H16.067c-4.713,0-8.533-3.821-8.533-8.533v-34.133C7.533,216.154,11.354,212.333,16.067,212.333z"/>
		</g>
	</g>
	<g>
		<path d="M494.933,204.8H324.267v-17.067H358.4c6.097-0.003,11.73-3.26,14.775-8.542l24.333-0.017l3.583,3.583
			c3.193,3.173,7.507,4.961,12.008,4.976h22.1c2.264,0.001,4.435-0.897,6.035-2.498c1.601-1.601,2.499-3.772,2.498-6.035V128
			c0.001-2.264-0.897-4.435-2.498-6.035c-1.601-1.601-3.772-2.499-6.035-2.498h-22.1c-4.501,0.015-8.816,1.802-12.008,4.975
			L397.567,128h-24.392c-3.046-5.28-8.679-8.533-14.775-8.533h-34.133V102.4H358.4c6.097-0.003,11.73-3.26,14.775-8.542
			l24.333-0.017l3.583,3.583c3.193,3.173,7.507,4.96,12.008,4.975h22.1c2.264,0.001,4.435-0.897,6.035-2.498
			c1.601-1.601,2.499-3.772,2.498-6.035v-51.2c0.001-2.264-0.897-4.435-2.498-6.035c-1.601-1.601-3.772-2.499-6.035-2.498h-22.1
			c-4.501,0.015-8.816,1.802-12.008,4.975l-3.525,3.558h-24.392c-3.046-5.28-8.679-8.533-14.775-8.533h-34.133V17.067
			C324.254,7.646,316.621,0.012,307.2,0h-76.8c-9.421,0.012-17.054,7.646-17.067,17.067v17.067h-17.067
			c-6.143,0.003-11.811,3.306-14.842,8.65C145.03,43.716,108.927,49.566,74.1,60.175c-3.483,1.16-5.833,4.42-5.833,8.092
			c0,3.672,2.35,6.931,5.833,8.092c24.889,7.812,50.539,12.952,76.517,15.333c13.467,1.35,24.375,1.858,30.808,2.058
			c3.032,5.343,8.699,8.645,14.842,8.65h17.067v17.067h-17.067c-6.143,0.003-11.811,3.306-14.842,8.65
			c-36.395,0.933-72.498,6.783-107.325,17.392c-3.483,1.16-5.833,4.42-5.833,8.092s2.35,6.931,5.833,8.092
			c24.889,7.812,50.539,12.952,76.517,15.333c13.467,1.35,24.375,1.858,30.808,2.058c3.032,5.343,8.699,8.645,14.842,8.65h17.067
			V204.8H17.067C7.646,204.812,0.012,212.446,0,221.867V256c0.012,9.421,7.646,17.054,17.067,17.067V486.4
			c0.015,14.132,11.468,25.585,25.6,25.6h426.667c14.132-0.015,25.585-11.468,25.6-25.6V273.067
			c9.421-0.012,17.054-7.646,17.067-17.067v-34.133C511.988,212.446,504.354,204.812,494.933,204.8z M358.4,136.533
			c-0.001,2.264,0.897,4.435,2.498,6.035c1.601,1.601,3.772,2.499,6.035,2.498h30.633c4.501-0.015,8.816-1.802,12.008-4.975
			l3.525-3.558h13.567v34.142l-13.508,0.017l-3.583-3.583c-3.193-3.173-7.507-4.961-12.008-4.976h-30.633
			c-2.264-0.001-4.435,0.897-6.035,2.498c-1.601,1.601-2.499,3.772-2.498,6.035h-34.133v-34.133H358.4z M358.4,51.2
			c-0.001,2.264,0.897,4.435,2.498,6.035c1.601,1.601,3.772,2.499,6.035,2.498h30.633c4.501-0.015,8.816-1.802,12.008-4.975
			L413.1,51.2h13.567v34.142l-13.508,0.017l-3.583-3.584c-3.193-3.173-7.507-4.96-12.008-4.975h-30.633
			c-2.264-0.001-4.435,0.897-6.035,2.498c-1.601,1.601-2.499,3.772-2.498,6.035h-34.133V51.2H358.4z M196.267,85.333
			c0-4.713-3.821-8.533-8.533-8.533c-0.142,0-14.817-0.033-35.417-2.092c-14.24-1.399-28.396-3.549-42.408-6.442
			c25.631-5.189,51.679-8.045,77.825-8.533c4.713,0,8.533-3.821,8.533-8.533h17.067v34.133H196.267z M196.267,170.667
			c0-4.713-3.821-8.533-8.533-8.533c-0.142,0-14.817-0.033-35.417-2.092c-14.24-1.399-28.396-3.549-42.408-6.442
			c25.631-5.189,51.679-8.045,77.825-8.533c4.713,0,8.533-3.821,8.533-8.533h17.067v34.133H196.267z M230.4,17.067h76.8V204.8h-76.8
			V17.067z M469.333,494.933H42.667c-4.712-0.003-8.53-3.822-8.533-8.533V275.369l443.733,106.824V486.4
			C477.864,491.112,474.045,494.93,469.333,494.933z M477.867,364.631L97.523,273.067h380.344V364.631z M486.4,256H17.067v-34.133
			h477.867L494.95,256H486.4z"/>
		<path d="M281.6,170.667H256c-4.713,0-8.533,3.821-8.533,8.533s3.821,8.533,8.533,8.533h25.6c4.713,0,8.533-3.82,8.533-8.533
			S286.313,170.667,281.6,170.667z"/>
		<path d="M281.6,119.467H256c-4.713,0-8.533,3.821-8.533,8.533c0,4.713,3.821,8.533,8.533,8.533h25.6
			c4.713,0,8.533-3.821,8.533-8.533C290.133,123.287,286.313,119.467,281.6,119.467z"/>
		<path d="M281.6,85.333H256c-4.713,0-8.533,3.821-8.533,8.533c0,4.713,3.821,8.533,8.533,8.533h25.6
			c4.713,0,8.533-3.821,8.533-8.533C290.133,89.154,286.313,85.333,281.6,85.333z"/>
		<path d="M281.6,34.133H256c-4.713,0-8.533,3.821-8.533,8.533S251.287,51.2,256,51.2h25.6c4.713,0,8.533-3.821,8.533-8.533
			S286.313,34.133,281.6,34.133z"/>
	</g>
</g>
<g>
</g>
<g>
</g>
<g>
</g>
<g>
</g>
<g>
</g>
<g>
</g>
<g>
</g>
<g>
</g>
<g>
</g>
<g>
</g>
<g>
</g>
<g>
</g>
<g>
</g>
<g>
</g>
<g>
</g>
</svg>
