<?xml version="1.0" encoding="iso-8859-1"?>
<!-- Generator: Adobe Illustrator 19.0.0, SVG Export Plug-In . SVG Version: 6.00 Build 0)  -->
<svg version="1.1" id="Capa_1" xmlns="http://www.w3.org/2000/svg" xmlns:xlink="http://www.w3.org/1999/xlink" x="0px" y="0px"
	 viewBox="0 0 512 512" style="enable-background:new 0 0 512 512;" xml:space="preserve">
<g>
	<g transform="translate(1 1)">
		<g>
			<path style="fill:#37474F;" d="M58.733,11.8h25.6c4.713,0,8.533,3.821,8.533,8.533V63H33.133V37.4
				C33.133,23.262,44.595,11.8,58.733,11.8z"/>
			<path style="fill:#37474F;" d="M404.636,11.8h13.819c1.913,0,3.747,0.76,5.1,2.112c1.353,1.353,2.112,3.187,2.112,5.1V63H383
				V33.436C383,21.487,392.687,11.8,404.636,11.8z"/>
			<path style="fill:#37474F;" d="M451.267,97.133h42.667c4.713,0,8.533,3.821,8.533,8.533v17.067c0,4.713-3.821,8.533-8.533,8.533
				h-42.667V97.133z"/>
			<path style="fill:#37474F;" d="M417.133,71.533H459.8c4.713,0,8.533,3.821,8.533,8.533v68.267c0,4.713-3.82,8.533-8.533,8.533
				h-42.667V71.533z"/>
		</g>
		<path style="fill:#CFD8DC;" d="M161.133,404.333h85.333v84.917c0,4.943-4.007,8.95-8.95,8.95h-67.434
			c-4.943,0-8.95-4.007-8.95-8.95V404.333z"/>
		<g>
			<path style="fill:#37474F;" d="M434.2,54.467v102.4H84.333l-76.8-25.6v-76.8c0.014-4.707,3.826-8.519,8.533-8.533h409.6
				C430.374,45.947,434.186,49.76,434.2,54.467z"/>
			<path style="fill:#37474F;" d="M434.2,131.267v42.667c-0.014,4.707-3.826,8.519-8.533,8.533H280.6
				c-9.414,0.028-17.039,7.652-17.067,17.067v204.8c-0.014,4.707-3.826,8.519-8.533,8.533H144.067c-2.483-0.012-4.84-1.1-6.46-2.982
				c-1.62-1.882-2.345-4.374-1.988-6.832l28.501-177.408c3.234-20.134-8.249-39.737-27.392-46.763l-59.733-22.016l-69.461-25.6
				H434.2z"/>
		</g>
		<g>
			<path style="fill:#607D8B;" d="M408.6,54.467v102.4H76.995l-69.461-25.6v-76.8c0.014-4.707,3.826-8.519,8.533-8.533h384
				C404.774,45.947,408.586,49.76,408.6,54.467z"/>
			<path style="fill:#607D8B;" d="M408.6,131.267v42.667c-0.014,4.707-3.826,8.519-8.533,8.533H255
				c-9.414,0.028-17.039,7.652-17.067,17.067v204.8c-0.014,4.707-3.826,8.519-8.533,8.533h-85.333c-2.483-0.012-4.84-1.1-6.46-2.982
				c-1.62-1.882-2.345-4.374-1.988-6.832l28.501-177.408c3.234-20.134-8.249-39.737-27.392-46.763l-59.733-22.016l-69.461-25.6
				H408.6z"/>
		</g>
		<path style="fill:#C52828;" d="M280.6,80.067c-10.849-0.053-20.526,6.811-24.064,17.067h-61.269
			c-9.414,0.028-17.039,7.652-17.067,17.067v17.067h102.4c14.138,0,25.6-11.462,25.6-25.6S294.738,80.067,280.6,80.067z"/>
		<path style="fill:#F44335;" d="M306.2,105.667c0,14.138-11.462,25.6-25.6,25.6s-25.6-11.462-25.6-25.6
			c-0.018-2.915,0.503-5.808,1.536-8.533c4.14-11.753,16.153-18.808,28.434-16.697C297.251,82.546,306.22,93.206,306.2,105.667z"/>
	</g>
	<path d="M1.017,136.105c0.315,0.623,0.707,1.205,1.166,1.731c0.209,0.248,0.433,0.484,0.67,0.706
		c0.557,0.494,1.177,0.912,1.843,1.242c0.237,0.122,0.438,0.282,0.687,0.381c0.072,0.029,0.126,0.084,0.199,0.11l129.192,47.6
		c15.291,5.661,24.458,21.33,21.9,37.433L128.2,402.758c-0.753,4.919,0.679,9.921,3.92,13.696c3.242,3.775,7.97,5.947,12.946,5.946
		h8.533v68.267c0.012,9.421,7.646,17.054,17.067,17.067h68.267c9.421-0.012,17.054-7.646,17.067-17.067V422.4
		c9.421-0.012,17.054-7.646,17.067-17.067V268.8h76.8c18.844-0.019,34.115-15.29,34.133-34.133V192h42.667
		c9.421-0.012,17.054-7.646,17.067-17.067V166.4H460.8c9.421-0.012,17.054-7.646,17.067-17.067V140.8h17.067
		c9.421-0.012,17.054-7.646,17.067-17.067v-17.067c-0.012-9.421-7.646-17.054-17.067-17.067h-17.067v-8.533
		C477.854,71.646,470.221,64.012,460.8,64h-17.067v-8.533c-0.021-6.069-3.272-11.667-8.533-14.692V20.008
		c-0.007-8.691-7.051-15.734-15.742-15.742h-13.825c-16.653,0.019-30.147,13.514-30.167,30.167V38.4H102.4V21.333
		c-0.012-9.421-7.646-17.054-17.067-17.067h-25.6C40.89,4.285,25.619,19.556,25.6,38.4h-8.533C7.646,38.412,0.012,46.046,0,55.467
		v76.8c0.017,1.03,0.222,2.048,0.606,3.004C0.727,135.556,0.864,135.835,1.017,136.105z M238.95,490.667h-68.284V422.4h68.267
		L238.95,490.667z M366.933,234.667c-0.012,9.421-7.646,17.054-17.067,17.067h-76.8v-51.2c0-0.158,0.082-0.29,0.09-0.445
		l46.152,32.987c2.48,1.771,5.717,2.085,8.491,0.823c2.774-1.262,4.664-3.908,4.958-6.942s-1.053-5.994-3.533-7.765L291.181,192
		h75.752V234.667z M426.667,174.933H281.6c-5.648,0.022-11.127,1.929-15.567,5.42c-0.139,0.083-0.242,0.219-0.377,0.311
		c-6.075,4.808-9.629,12.122-9.657,19.869V268.8h-17.067c-4.713,0-8.533,3.82-8.533,8.533s3.821,8.533,8.533,8.533H256v17.067
		h-17.067c-4.713,0-8.533,3.82-8.533,8.533s3.821,8.533,8.533,8.533H256v17.067h-17.067c-4.713,0-8.533,3.821-8.533,8.533
		c0,4.713,3.821,8.533,8.533,8.533H256V371.2h-17.067c-4.713,0-8.533,3.821-8.533,8.533c0,4.713,3.821,8.533,8.533,8.533H256v17.067
		l-8.508,0.005l-0.026-0.005h-85.333c-0.1,0-0.182,0.053-0.281,0.057l-16.794,0.01l28.467-177.392
		c3.839-24.155-9.913-47.66-32.85-56.15L56.377,140.8h370.29V174.933z M281.6,123.733c-9.426,0-17.067-7.641-17.067-17.067
		S272.174,89.6,281.6,89.6s17.067,7.641,17.067,17.067C298.654,116.087,291.021,123.721,281.6,123.733z M252.213,123.733h-64.48
		V115.2c0.003-4.712,3.822-8.53,8.533-8.533h51.2C247.501,112.677,249.139,118.569,252.213,123.733z M494.933,106.667l0.017,17.067
		h-17.084v-17.067H494.933z M460.8,81.067l0.004,17.046l-0.004,0.021v34.133l0.012,0.062l0.005,17.005h-17.084V81.067H460.8z
		 M392.533,34.433c0.007-7.232,5.868-13.093,13.1-13.1h12.5V38.4h-25.6V34.433z M59.733,21.333h25.6V38.4H42.667
		C42.679,28.979,50.313,21.346,59.733,21.333z M34.133,55.467h392.533v68.267h-115.68c3.074-5.165,4.712-11.057,4.746-17.067
		c0.05-15.431-10.292-28.964-25.195-32.968s-30.635,2.523-38.325,15.902h-55.946c-14.132,0.015-25.585,11.468-25.6,25.6v8.533
		h-153.6V55.467H34.133z"/>
</g>
<g>
</g>
<g>
</g>
<g>
</g>
<g>
</g>
<g>
</g>
<g>
</g>
<g>
</g>
<g>
</g>
<g>
</g>
<g>
</g>
<g>
</g>
<g>
</g>
<g>
</g>
<g>
</g>
<g>
</g>
</svg>
