<?xml version="1.0" encoding="iso-8859-1"?>
<!-- Generator: Adobe Illustrator 19.0.0, SVG Export Plug-In . SVG Version: 6.00 Build 0)  -->
<svg version="1.1" id="Capa_1" xmlns="http://www.w3.org/2000/svg" xmlns:xlink="http://www.w3.org/1999/xlink" x="0px" y="0px"
	 viewBox="0 0 512 512" style="enable-background:new 0 0 512 512;" xml:space="preserve">
<g>
	<g transform="translate(1 2)">
		<rect x="289.134" y="117.467" style="fill:#2E7D32;" width="34.133" height="59.733"/>
		<path style="fill:#558B30;" d="M340.334,178.48v24.32h-68.267v-24.32c0.031-5.407,4.406-9.783,9.813-9.813h48.64
			C335.927,168.698,340.303,173.073,340.334,178.48z"/>
		<path style="fill:#2E7D32;" d="M357.4,202.8h-25.6c4.707,0.014,8.519,3.826,8.533,8.533v136.533l-17.067,25.6h25.6l17.067-25.6
			V211.333C365.919,206.626,362.107,202.814,357.4,202.8z"/>
		<g>
			<polygon style="fill:#4CAF50;" points="237.934,202.8 237.934,373.467 263.534,373.467 263.534,202.8 			"/>
			<path style="fill:#4CAF50;" d="M331.8,202.8h-68.267v170.667h59.733l17.067-25.6V211.333
				C340.319,206.626,336.507,202.814,331.8,202.8z M331.8,271.067h-42.667v-34.133H331.8V271.067z"/>
			<path style="fill:#4CAF50;" d="M161.134,202.8l-17.067,6.656v138.411l17.067,25.6h85.333V202.8H161.134z M220.867,271.067H178.2
				v-34.133h42.667V271.067z"/>
		</g>
		<g>
			<path style="fill:#2E7D32;" d="M18.456,258.267l125.611-48.811v138.411h-128c-4.707-0.014-8.519-3.826-8.533-8.533v-65.109
				C7.535,267.161,11.873,260.824,18.456,258.267z"/>
			<rect x="178.2" y="236.933" style="fill:#2E7D32;" width="42.667" height="34.133"/>
		</g>
		<rect id="SVGCleanerId_0" x="246.467" y="202.8" style="fill:#2E7D32;" width="17.067" height="170.667"/>
		<path style="fill:#2E7D32;" d="M502.467,287.109v52.224c-0.014,4.707-3.826,8.519-8.533,8.533h-128v-85.333l32.256,4.011
			l1.877,0.256l94.891,11.861C499.229,279.189,502.444,282.806,502.467,287.109z"/>
		<path style="fill:#8BC34A;" d="M144.067,209.456v138.411h-128c-4.707-0.014-8.519-3.826-8.533-8.533v-65.109
			c0.001-7.063,4.339-13.4,10.923-15.957L144.067,209.456z"/>
		<path style="fill:#558B30;" d="M502.467,287.109v52.224c-0.014,4.707-3.826,8.519-8.533,8.533h-128v-85.333l32.256,4.011
			l1.877,0.256l94.891,11.861C499.229,279.189,502.444,282.806,502.467,287.109z"/>
		<path style="fill:#8BC34A;" d="M476.867,287.109v52.224c-0.002,1.478-0.415,2.926-1.195,4.181v0.085
			c-1.494,2.645-4.301,4.277-7.339,4.267l-102.4,0v-85.333h8.533l23.723,4.011l71.168,12.117
			C473.629,279.189,476.844,282.806,476.867,287.109z"/>
		<circle style="fill:#37474F;" cx="75.8" cy="373.467" r="51.2"/>
		<circle style="fill:#BDC3C7;" cx="75.8" cy="373.467" r="17.067"/>
		<circle style="fill:#37474F;" cx="434.2" cy="373.467" r="51.2"/>
		<circle style="fill:#BDC3C7;" cx="434.2" cy="373.467" r="17.067"/>
		<g>
			<rect id="SVGCleanerId_0_1_" x="246.467" y="202.8" style="fill:#2E7D32;" width="17.067" height="170.667"/>
		</g>
		<g>
			<rect x="289.134" y="236.933" style="fill:#00BCD4;" width="42.667" height="34.133"/>
			<rect x="178.2" y="236.933" style="fill:#00BCD4;" width="42.667" height="34.133"/>
		</g>
		<path style="fill:#558B30;" d="M237.934,91.867h102.4c4.713,0,8.533,3.821,8.533,8.533v17.067c0,4.713-3.82,8.533-8.533,8.533
			h-102.4V91.867z"/>
	</g>
	<g>
		<path d="M497.017,272.192L375.467,257v-43.667c-0.012-9.421-7.646-17.054-17.067-17.067h-8.533v-15.75
			c-0.031-9.614-7.476-17.576-17.067-18.25v-25.733h8.533c9.421-0.012,17.054-7.646,17.067-17.067h42.667
			c4.713,0,8.533-3.821,8.533-8.533s-3.82-8.533-8.533-8.533H358.4c-0.012-9.421-7.646-17.054-17.067-17.067h-93.867
			c0-4.713-3.821-8.533-8.533-8.533s-8.533,3.821-8.533,8.533v51.2c0,4.713,3.821,8.533,8.533,8.533s8.533-3.82,8.533-8.533H281.6
			v25.733c-9.591,0.674-17.036,8.636-17.067,18.25v15.75h-102.4c-1.058,0.001-2.106,0.199-3.092,0.583L16.367,252.317
			C6.474,256.112-0.042,265.629,0,276.225v65.108c0.012,9.421,7.646,17.054,17.067,17.067h2.516
			c-6.386,21.243-0.411,44.273,15.495,59.733H8.534c-4.713,0-8.533,3.82-8.533,8.533s3.821,8.533,8.533,8.533h290.133
			c4.713,0,8.533-3.821,8.533-8.533s-3.821-8.533-8.533-8.533H118.522c15.907-15.46,21.881-38.491,15.495-59.733h6.483l14.534,21.8
			c1.583,2.374,4.247,3.799,7.1,3.8h187.733c2.853-0.001,5.517-1.426,7.1-3.8l14.534-21.8h6.483
			c-6.386,21.243-0.411,44.273,15.495,59.733H332.8c-4.713,0-8.533,3.82-8.533,8.533s3.821,8.533,8.533,8.533h170.667
			c4.713,0,8.533-3.821,8.533-8.533s-3.821-8.533-8.533-8.533h-26.545c15.907-15.46,21.881-38.491,15.495-59.733h2.516
			c9.421-0.012,17.054-7.646,17.067-17.067v-52.225C511.99,280.497,505.564,273.242,497.017,272.192z M247.467,102.4h93.867
			l0.009,8.492l-0.009,0.041l0.009,0.042l0.009,8.492h-93.884V102.4z M315.734,136.533v25.6h-17.067v-25.6H315.734z M281.6,180.517
			c0.002-0.727,0.59-1.315,1.317-1.317h48.567c0.727,0.002,1.315,0.59,1.317,1.317v15.75h-51.2V180.517z M22.55,268.217
			l113.983-44.31V281.6H17.067l0-5.375C17.054,272.676,19.237,269.489,22.55,268.217z M76.8,418.133
			c-23.564,0-42.667-19.103-42.667-42.667c0-23.564,19.103-42.667,42.667-42.667s42.667,19.103,42.667,42.667
			C119.439,399.02,100.353,418.106,76.8,418.133z M76.8,315.733c-19.521,0.014-37.801,9.575-48.948,25.6H17.067v-42.667h119.467
			v42.667h-10.785C114.601,325.308,96.321,315.748,76.8,315.733z M153.6,347.283V217.273l10.133-3.939h83.733v153.6H166.7
			L153.6,347.283z M345.3,366.933h-80.767v-153.6H358.4v133.95L345.3,366.933z M435.2,418.133
			c-23.564,0-42.667-19.103-42.667-42.667c0-23.564,19.103-42.667,42.667-42.667s42.667,19.103,42.667,42.667
			C477.839,399.02,458.753,418.106,435.2,418.133z M494.934,341.333h-10.785c-11.137-16.036-29.423-25.6-48.948-25.6
			s-37.811,9.564-48.948,25.6h-10.785v-67.136l119.467,14.911V341.333z"/>
		<path d="M76.8,349.867c-14.138,0-25.6,11.462-25.6,25.6c0,14.138,11.462,25.6,25.6,25.6s25.6-11.462,25.6-25.6
			C102.385,361.335,90.932,349.882,76.8,349.867z M76.8,384c-4.713,0-8.533-3.82-8.533-8.533s3.821-8.533,8.533-8.533
			c4.713,0,8.533,3.821,8.533,8.533C85.33,380.178,81.512,383.997,76.8,384z"/>
		<path d="M435.2,349.867c-14.138,0-25.6,11.462-25.6,25.6c0,14.138,11.462,25.6,25.6,25.6s25.6-11.462,25.6-25.6
			C460.785,361.335,449.332,349.882,435.2,349.867z M435.2,384c-4.713,0-8.533-3.82-8.533-8.533s3.82-8.533,8.533-8.533
			s8.533,3.821,8.533,8.533C443.73,380.178,439.912,383.997,435.2,384z"/>
		<path d="M332.8,230.4h-42.667c-2.264-0.001-4.435,0.897-6.035,2.498c-1.601,1.601-2.499,3.772-2.498,6.035v34.133
			c-0.001,2.264,0.897,4.435,2.498,6.035c1.601,1.601,3.772,2.499,6.035,2.498H332.8c2.264,0.001,4.435-0.897,6.035-2.498
			c1.601-1.601,2.499-3.772,2.498-6.035v-34.133c0.001-2.264-0.897-4.435-2.498-6.035C337.235,231.297,335.064,230.399,332.8,230.4z
			 M324.267,264.533h-25.6v-17.067h25.6V264.533z"/>
		<path d="M221.867,230.4H179.2c-2.264-0.001-4.435,0.897-6.035,2.498s-2.499,3.772-2.498,6.035v34.133
			c-0.001,2.264,0.897,4.435,2.498,6.035s3.772,2.499,6.035,2.498h42.667c2.264,0.001,4.435-0.897,6.035-2.498
			s2.499-3.772,2.498-6.035v-34.133c0.001-2.264-0.897-4.435-2.498-6.035S224.13,230.399,221.867,230.4z M213.334,264.533h-25.6
			v-17.067h25.6V264.533z"/>
		<path d="M228.534,301.867c-2.946-3.681-8.318-4.278-12-1.333l-16,12.8l-16-12.8c-2.381-1.912-5.603-2.407-8.448-1.298
			c-2.845,1.11-4.881,3.655-5.339,6.674s0.732,6.054,3.12,7.957l13,10.4l-13,10.4c-3.671,2.949-4.262,8.313-1.321,11.99
			c2.942,3.677,8.305,4.278,11.987,1.344l16-12.8l16,12.8c3.683,2.934,9.046,2.333,11.987-1.344
			c2.942-3.677,2.351-9.041-1.321-11.99l-13-10.4l13-10.4C230.877,310.918,231.473,305.55,228.534,301.867z"/>
		<path d="M339.467,301.867c-2.946-3.681-8.318-4.278-12-1.333l-16,12.8l-16-12.8c-2.381-1.912-5.603-2.407-8.448-1.298
			c-2.845,1.11-4.881,3.655-5.339,6.674s0.732,6.054,3.12,7.957l13,10.4l-13,10.4c-3.671,2.949-4.262,8.313-1.321,11.99
			c2.942,3.677,8.305,4.278,11.987,1.344l16-12.8l16,12.8c3.683,2.934,9.046,2.333,11.987-1.344
			c2.942-3.677,2.351-9.041-1.321-11.99l-13-10.4l13-10.4C341.81,310.918,342.407,305.55,339.467,301.867z"/>
	</g>
</g>
<g>
</g>
<g>
</g>
<g>
</g>
<g>
</g>
<g>
</g>
<g>
</g>
<g>
</g>
<g>
</g>
<g>
</g>
<g>
</g>
<g>
</g>
<g>
</g>
<g>
</g>
<g>
</g>
<g>
</g>
</svg>
