<?xml version="1.0" encoding="iso-8859-1"?>
<!-- Generator: Adobe Illustrator 19.0.0, SVG Export Plug-In . SVG Version: 6.00 Build 0)  -->
<svg version="1.1" id="Capa_1" xmlns="http://www.w3.org/2000/svg" xmlns:xlink="http://www.w3.org/1999/xlink" x="0px" y="0px"
	 viewBox="0 0 512 512" style="enable-background:new 0 0 512 512;" xml:space="preserve">
<g>
	<g transform="translate(0 1)">
		<path style="fill:#009688;" d="M349.867,425.666l-51.2,25.6c-14.119-20.32-24.84-42.8-31.744-66.56
			c-7.098-23.792-10.776-48.473-10.923-73.301V280.6h59.733v25.6C315.701,348.432,327.527,389.826,349.867,425.666z"/>
		<path style="fill:#37474F;" d="M469.333,101.4v42.667H25.6v-34.133c0.014-4.707,3.826-8.519,8.533-8.533H469.333z"/>
		<g>
			<path style="fill:#607D8B;" d="M435.2,101.4v42.667H25.6v-34.133c0.014-4.707,3.826-8.519,8.533-8.533H435.2z"/>
			<path style="fill:#607D8B;" d="M119.467,101.4H51.2V75.8c0.011-5.259,2.442-10.221,6.591-13.454
				c4.149-3.232,9.554-4.376,14.657-3.101L112.981,69.4c3.816,0.927,6.499,4.35,6.485,8.277L119.467,101.4z"/>
		</g>
		<g>
			<path style="fill:#37474F;" d="M349.867,203.8c-6.792-0.009-13.309,2.685-18.112,7.488c-4.803,4.803-7.497,11.32-7.488,18.112
				v59.733h-76.8V280.6h-96.683c-3.454-0.012-6.566,2.085-7.851,5.291L86.443,423.277c-1.764,4.604-5.437,8.216-10.07,9.902
				c-4.633,1.686-9.769,1.28-14.079-1.113l-44.971-25.003c-8.189-4.529-11.198-14.811-6.741-23.04l45.227-81.067
				c8.181-14.659,12.471-31.17,12.459-47.957c-0.068-9.397-7.669-16.999-17.067-17.067H34.133c-4.707-0.014-8.519-3.826-8.533-8.533
				v-25.6L349.867,203.8z"/>
			<path style="fill:#37474F;" d="M503.467,58.733V255c0.003,2.963-1.534,5.714-4.059,7.263c-2.525,1.55-5.674,1.675-8.314,0.331
				l-13.312-6.656c0.075-0.307,0.103-0.623,0.085-0.939v-85.333c-4.707-0.014-8.519-3.826-8.533-8.533v-102.4
				c0.014-4.707,3.826-8.519,8.533-8.533h17.067C499.64,50.214,503.453,54.026,503.467,58.733z"/>
			<path style="fill:#37474F;" d="M247.467,203.8v76.8h-96.683c-3.454-0.012-6.566,2.085-7.851,5.291L86.443,423.277
				c-1.764,4.604-5.437,8.216-10.07,9.902c-4.633,1.686-9.769,1.28-14.079-1.113l-44.971-25.003
				c-8.189-4.529-11.198-14.811-6.741-23.04l45.227-81.067c8.181-14.659,12.471-31.17,12.459-47.957
				c-0.068-9.397-7.669-16.999-17.067-17.067H34.133c-4.707-0.014-8.519-3.826-8.533-8.533v-25.6H247.467z"/>
		</g>
		<path style="fill:#009688;" d="M443.733,203.8c-4.491,0.005-8.903,1.182-12.8,3.413c-1.92,1.151-3.696,2.526-5.291,4.096
			c-4.808,4.793-7.51,11.302-7.509,18.091v98.133c0,11.782-9.551,21.333-21.333,21.333s-21.333-9.551-21.333-21.333V229.4
			c0.009-6.792-2.685-13.309-7.488-18.112c-4.803-4.803-11.32-7.497-18.112-7.488H443.733z"/>
		<path style="fill:#37474F;" d="M503.467,169.666V255c0.003,2.963-1.534,5.714-4.059,7.263c-2.525,1.55-5.674,1.675-8.314,0.331
			l-13.312-6.656c0.075-0.307,0.103-0.623,0.085-0.939v-85.333H503.467z"/>
		<path style="fill:#607D8B;" d="M477.867,169.666V255c0.018,0.315-0.011,0.632-0.085,0.939l-3.755-1.877
			c-2.886-1.428-4.708-4.375-4.693-7.595V229.4c0.009-6.792-2.685-13.309-7.488-18.112c-4.803-4.803-11.32-7.497-18.112-7.488H25.6
			c-9.443-0.038-17.076-7.709-17.067-17.152v-25.429c-0.009-9.443,7.623-17.114,17.067-17.152h443.733v17.067
			C469.347,165.84,473.16,169.652,477.867,169.666z"/>
		<path style="fill:#F4F4F4;" d="M443.733,203.8c-4.491,0.005-8.903,1.182-12.8,3.413c-3.897-2.232-8.309-3.408-12.8-3.413H443.733z
			"/>
		<g>
			<path style="fill:#37474F;" d="M503.467,58.733v110.933h-25.6c-4.707-0.014-8.519-3.826-8.533-8.533v-102.4
				c0.014-4.707,3.826-8.519,8.533-8.533h17.067C499.64,50.214,503.453,54.026,503.467,58.733z"/>
			<path style="fill:#37474F;" d="M119.467,77.677l0,23.723H51.2V75.8c0.011-5.259,2.442-10.221,6.591-13.454
				c4.149-3.232,9.554-4.376,14.657-3.101L112.981,69.4C116.798,70.326,119.48,73.75,119.467,77.677z"/>
		</g>
	</g>
	<path d="M494.933,42.666h-17.067c-9.421,0.012-17.054,7.646-17.067,17.067v34.133H128.004V78.675
		c0.01-7.832-5.324-14.662-12.925-16.55l-40.6-10.15c-7.647-1.911-15.748-0.193-21.962,4.658
		c-6.213,4.851-9.845,12.293-9.846,20.176v17.058h-8.538c-9.421,0.011-17.056,7.645-17.067,17.067v27.223
		C6.883,141.787,0.061,151.405,0,162.216v25.433c0.034,10.828,6.866,20.469,17.071,24.09v18.66
		c0.011,9.421,7.645,17.056,17.067,17.067h17.067c4.711,0.005,8.529,3.822,8.533,8.533c-0.007,15.332-3.928,30.408-11.392,43.8
		L3.067,380.991c-6.59,12.346-2.093,27.695,10.117,34.533l44.963,25c6.441,3.58,14.114,4.203,21.049,1.711
		c6.935-2.492,12.455-7.858,15.143-14.719l31.905-77.65h61.494c18.843-0.02,34.113-15.29,34.133-34.133v-25.6h17.067
		c-0.001,2.263,0.898,4.434,2.499,6.035c1.6,1.6,3.771,2.499,6.035,2.499v22.267c-0.092,51.618,15.324,102.073,44.25,144.825
		c2.441,3.418,7.005,4.552,10.763,2.675l51.2-25.6c2.188-1.096,3.802-3.078,4.43-5.443c0.628-2.365,0.211-4.887-1.146-6.924
		c-21.375-34.452-32.7-74.19-32.7-114.733v-17.067c2.263,0.001,4.434-0.898,6.035-2.499c1.6-1.6,2.499-3.771,2.499-6.035V230.4
		c0-9.426,7.641-17.067,17.067-17.067c9.426,0,17.067,7.641,17.067,17.067v98.133c0,16.495,13.372,29.867,29.867,29.867
		c16.495,0,29.867-13.372,29.867-29.867V230.4c0-9.426,7.641-17.067,17.067-17.067c9.426,0,17.067,7.641,17.067,17.067v17.067
		c-0.022,6.453,3.627,12.358,9.408,15.225l17.017,8.508c5.285,2.693,11.591,2.444,16.647-0.658c5.056-3.102,8.135-8.61,8.128-14.542
		V59.733C511.988,50.312,504.354,42.678,494.933,42.666z M477.867,59.733h17.067v102.4h-17.067V59.733z M59.738,76.808
		c-0.008-2.63,1.205-5.114,3.283-6.725c2.071-1.613,4.768-2.188,7.317-1.558l40.6,10.15v15.191h-51.2L59.738,76.808z
		 M34.133,110.933H460.8v25.6H34.133V110.933z M204.804,315.733c-0.011,9.421-7.645,17.056-17.067,17.067h-54.481l13.604-33.108
		l8.182,12.25c1.684,2.56,4.61,4.02,7.668,3.827c3.058-0.193,5.777-2.01,7.126-4.762c1.348-2.751,1.118-6.014-0.602-8.549
		l-8.232-12.325h43.803V315.733z M150.788,273.066c-3.378-0.005-6.682,0.995-9.49,2.872l-0.027,0.011l-0.073,0.074
		c-2.768,1.879-4.922,4.531-6.193,7.626L78.471,421.241c-0.883,2.29-2.714,4.085-5.02,4.922c-2.307,0.837-4.863,0.635-7.009-0.556
		l-44.988-25.008c-4.084-2.219-5.609-7.32-3.412-11.417l45.208-81.067C72.129,292.18,76.794,274.242,76.804,256
		c-0.015-14.132-11.468-25.585-25.6-25.6H34.138v-17.067h204.8v59.733H150.788z M337.65,431.766l-36.146,18.067
		c-24.189-38.64-37.001-83.313-36.966-128.9l0-22.267H307.2v17.067C307.191,356.387,317.68,396.355,337.65,431.766z M315.733,230.4
		v51.2h-59.729v-68.267h64.477C317.406,218.497,315.767,224.389,315.733,230.4z M409.6,290.133H384v-25.6h25.6V290.133z
		 M396.8,341.333c-7.066-0.008-12.792-5.734-12.8-12.8V307.2h25.6v21.333C409.592,335.599,403.866,341.325,396.8,341.333z
		 M409.6,230.4v17.067H384V230.4c-0.034-6.01-1.673-11.902-4.747-17.067h35.094C411.273,218.498,409.634,224.39,409.6,230.4z
		 M494.908,255.958l-17.042-8.492V230.4c-0.019-18.844-15.29-34.115-34.133-34.133H25.683c-4.756-0.006-8.61-3.86-8.617-8.617
		v-25.433c-0.011-2.289,0.893-4.487,2.511-6.105c1.618-1.618,3.817-2.523,6.105-2.511H460.8v8.533
		c0.012,9.421,7.646,17.054,17.067,17.067h17.067v25.6L494.908,255.958z"/>
</g>
<g>
</g>
<g>
</g>
<g>
</g>
<g>
</g>
<g>
</g>
<g>
</g>
<g>
</g>
<g>
</g>
<g>
</g>
<g>
</g>
<g>
</g>
<g>
</g>
<g>
</g>
<g>
</g>
<g>
</g>
</svg>
