<?xml version="1.0" encoding="iso-8859-1"?>
<!-- Generator: Adobe Illustrator 19.0.0, SVG Export Plug-In . SVG Version: 6.00 Build 0)  -->
<svg version="1.1" id="Capa_1" xmlns="http://www.w3.org/2000/svg" xmlns:xlink="http://www.w3.org/1999/xlink" x="0px" y="0px"
	 viewBox="0 0 512 512" style="enable-background:new 0 0 512 512;" xml:space="preserve">
<g>
	<g transform="translate(0 3)">
		<path style="fill:#2E7D32;" d="M349.867,398.035v8.533H307.2v-68.267c0.014-4.707,3.826-8.519,8.533-8.533h25.6v68.267H349.867z"
			/>
		<path style="fill:#8BC34A;" d="M401.067,295.635v102.4h-59.733v-93.867c0.014-4.707,3.826-8.519,8.533-8.533H401.067z"/>
		<polygon style="fill:#558B30;" points="418.133,295.635 418.133,406.568 341.333,406.568 341.333,398.035 401.067,398.035 
			401.067,295.635 		"/>
		<g>
			<path style="fill:#CFD8DC;" d="M136.533,398.035c-17.567,0.01-33.9,9.03-43.264,23.893c-5.199,8.158-7.953,17.633-7.936,27.307
				c-0.006,2.862,0.251,5.718,0.768,8.533H55.808c-2.88-0.005-5.568-1.445-7.168-3.84l-11.947-17.92
				c-1.6-2.395-4.288-3.835-7.168-3.84H17.067c-4.707-0.014-8.519-3.826-8.533-8.533v-17.067c0.014-4.707,3.826-8.519,8.533-8.533
				H136.533z"/>
			<path style="fill:#CFD8DC;" d="M401.067,398.035v59.733H86.101c-0.517-2.815-0.774-5.671-0.768-8.533
				c-0.017-9.673,2.737-19.149,7.936-27.307c9.364-14.863,25.697-23.883,43.264-23.893H401.067z"/>
		</g>
		<g>
			<path style="fill:#C52828;" d="M313.173,73.512l13.995-14.08c4.314-4.314,5.999-10.601,4.42-16.494
				c-1.579-5.893-6.182-10.496-12.075-12.075c-5.893-1.579-12.18,0.106-16.494,4.42l-13.995,14.08L313.173,73.512z"/>
			<path style="fill:#C52828;" d="M356.949,116.989l13.995-14.08c6.669-6.669,6.669-17.481,0-24.149
				c-6.669-6.669-17.481-6.669-24.149,0L332.8,92.84L356.949,116.989z"/>
		</g>
		<path style="fill:#558B30;" d="M382.635,132.563l-25.6,25.6l-78.421,78.421l-72.363,72.448l-1.451,1.365v-6.229
			c-0.014-4.707-3.826-8.519-8.533-8.533H128c-4.707,0.014-8.519,3.826-8.533,8.533v91.563l-2.304,2.304L11.008,295.464
			c-2.813-2.819-3.308-7.206-1.195-10.581c0.085-0.085,0.085-0.085,0.085-0.171c0.322-0.492,0.694-0.949,1.109-1.365l38.229-37.717
			l72.875-71.936l72.96-71.851l78.933-77.909L382.635,132.563z"/>
		<path style="fill:#4CAF50;" d="M136.533,398.035H179.2v25.6H93.867v-2.304l-0.597,0.597
			C102.633,407.065,118.967,398.045,136.533,398.035z"/>
		<path style="fill:#8BC34A;" d="M357.035,158.163l-78.421,78.421l-72.363,72.448l-1.451,1.365v-6.229
			c-0.014-4.707-3.826-8.519-8.533-8.533H128c-4.707,0.014-8.519,3.826-8.533,8.533v93.867h-2.304L11.008,295.464
			c-2.813-2.819-3.308-7.206-1.195-10.581c0.085-0.085,0.085-0.085,0.085-0.171l13.739-13.483L49.408,245.8l47.104-46.507
			l72.96-71.851l78.933-77.909L357.035,158.163z"/>
		<path style="fill:#71C285;" d="M370.552,120.479L286.08,36.008"/>
		<g>
			<path style="fill:#2E7D32;" d="M119.467,315.859v79.872l-2.304,2.304L11.008,295.464c-2.813-2.819-3.308-7.206-1.195-10.581
				c0.085-0.085,0.085-0.085,0.085-0.171c0.322-0.492,0.694-0.949,1.109-1.365l38.229-37.717L119.467,315.859z"/>
			<polygon style="fill:#2E7D32;" points="304.213,210.984 231.851,283.432 231.765,283.347 123.221,174.803 122.112,173.693 
				195.072,101.843 195.584,102.355 			"/>
			<path style="fill:#2E7D32;" d="M503.467,295.635v145.067c-0.014,4.707-3.826,8.519-8.533,8.533h-93.867V278.568
				c0.014-4.707,3.826-8.519,8.533-8.533h64.768c2.237,0.017,4.379,0.905,5.973,2.475L503.467,295.635z"/>
		</g>
		<path style="fill:#4CAF50;" d="M477.867,295.635v145.067c-0.014,4.707-3.826,8.519-8.533,8.533h-93.867v-51.2h25.6V278.568
			c0.014-4.707,3.826-8.519,8.533-8.533h39.168c2.237,0.017,4.379,0.905,5.973,2.475L477.867,295.635z"/>
		<circle style="fill:#37474F;" cx="418.133" cy="449.235" r="51.2"/>
		<circle style="fill:#E6E7E8;" cx="418.133" cy="449.235" r="17.067"/>
		<path style="fill:#37474F;" d="M187.733,449.235c0.006,2.862-0.251,5.718-0.768,8.533c-4.136,24.629-25.458,42.668-50.432,42.668
			s-46.296-18.039-50.432-42.668c-0.517-2.815-0.774-5.671-0.768-8.533c-0.017-9.673,2.737-19.149,7.936-27.307
			c9.253-14.703,25.339-23.7,42.709-23.89c17.371-0.19,33.649,8.455,43.221,22.952C184.803,429.34,187.775,439.178,187.733,449.235z
			"/>
		<circle style="fill:#E6E7E8;" cx="136.533" cy="449.235" r="17.067"/>
		<path style="fill:#00BCD4;" d="M469.333,304.168v42.667h-25.6c-4.707-0.014-8.519-3.826-8.533-8.533v-25.6
			c0.014-4.707,3.826-8.519,8.533-8.533H469.333z"/>
		<rect x="469.333" y="304.168" style="fill:#02A9F4;" width="34.133" height="42.667"/>
		<path style="fill:#607D8B;" d="M247.467,380.968h17.067c4.713,0,8.533,3.821,8.533,8.533v110.933h-34.133V389.501
			C238.933,384.788,242.754,380.968,247.467,380.968z"/>
		<path style="fill:#CFD8DC;" d="M204.8,304.168v93.867h-85.333v-93.867c0.014-4.707,3.826-8.519,8.533-8.533h68.267
			C200.974,295.649,204.786,299.461,204.8,304.168z"/>
	</g>
	<g>
		<path d="M418.133,426.635c-14.138,0-25.6,11.462-25.6,25.6c0,14.138,11.462,25.6,25.6,25.6c14.138,0,25.6-11.462,25.6-25.6
			C443.718,438.103,432.265,426.65,418.133,426.635z M418.133,460.768c-4.713,0-8.533-3.821-8.533-8.533
			c0-4.713,3.82-8.533,8.533-8.533s8.533,3.821,8.533,8.533C426.662,456.945,422.844,460.763,418.133,460.768z"/>
		<path d="M136.533,426.635c-14.138,0-25.6,11.462-25.6,25.6c0,14.138,11.462,25.6,25.6,25.6s25.6-11.462,25.6-25.6
			C162.118,438.103,150.665,426.65,136.533,426.635z M136.533,460.768c-4.713,0-8.533-3.821-8.533-8.533
			c0-4.713,3.821-8.533,8.533-8.533s8.533,3.821,8.533,8.533C145.062,456.945,141.244,460.763,136.533,460.768z"/>
		<path d="M509.493,292.594L486.4,269.501c-3.193-3.212-7.538-5.012-12.067-5H409.6c-9.421,0.011-17.056,7.645-17.067,17.067
			h-42.667c-9.421,0.011-17.056,7.645-17.067,17.067v17.067h-17.067c-9.421,0.011-17.056,7.645-17.067,17.067v59.733H281.6
			c-0.011-9.421-7.645-17.056-17.067-17.067h-17.067c-9.421,0.011-17.056,7.645-17.067,17.067h-17.067v-75.567l175.284-175.292
			l0.074-0.049l18.417-18.425c3.296-3.338,3.28-8.711-0.038-12.029c-3.317-3.317-8.69-3.334-12.029-0.038l-12.397,12.403
			l-8.097-8.097l7.978-8.031c9.933-10.029,9.933-26.188,0-36.217c-10.143-9.679-26.104-9.671-36.238,0.017l-7.962,8.011
			l-7.897-7.897l7.979-8.031c4.822-4.792,7.533-11.31,7.533-18.108s-2.711-13.316-7.533-18.108
			c-10.143-9.679-26.103-9.671-36.238,0.017l-7.962,8.012l-8.129-8.129l12.399-12.4c3.281-3.341,3.256-8.701-0.054-12.012
			c-3.311-3.311-8.671-3.335-12.012-0.054l-18.352,18.351l-0.048,0.032L5,280.335c-3.219,3.219-5.019,7.59-5,12.143
			s1.857,8.908,5.104,12.099l90.957,87.925H17.067C7.645,392.512,0.011,400.147,0,409.568v17.067
			c0.011,9.421,7.645,17.056,17.067,17.067l12.525,0.042l11.988,17.967c3.186,4.739,8.519,7.584,14.229,7.592h23.508
			c2.91,9.709,8.242,18.518,15.494,25.6H8.533c-4.713,0-8.533,3.82-8.533,8.533s3.821,8.533,8.533,8.533H307.2
			c4.713,0,8.533-3.82,8.533-8.533s-3.82-8.533-8.533-8.533h-25.6v-25.6h79.316c2.91,9.709,8.242,18.518,15.494,25.6h-35.077
			c-4.713,0-8.533,3.82-8.533,8.533s3.82,8.533,8.533,8.533h162.133c4.713,0,8.533-3.82,8.533-8.533s-3.82-8.533-8.533-8.533h-43.61
			c9.373-9.162,15.464-21.159,17.328-34.133h17.748c9.421-0.011,17.056-7.645,17.067-17.067V298.635
			C511.988,296.37,511.087,294.202,509.493,292.594z M443.733,341.301v-25.6H460.8v25.6H443.733z M477.867,315.701h17.067v25.6
			h-17.067V315.701z M349.867,298.635h42.667v93.867h-42.667V298.635z M315.733,332.768H332.8v59.733h-17.067V332.768z
			 M230.4,452.235h-34.133c0.002-16.07-6.494-31.458-18.01-42.667H230.4V452.235z M128,392.501v-85.333h68.267v85.333H128z
			 M122.108,188.772l97.624,97.629l-10.183,10.184c-3.205-4.077-8.097-6.465-13.283-6.483H128
			c-6.602,0.018-12.601,3.847-15.396,9.829l-51.235-51.235L122.108,188.772z M195.007,116.854l97.133,97.136l-60.34,60.343
			l-97.543-97.546L195.007,116.854z M304.206,201.924l-97.051-97.055l66.807-65.909l14.249,14.248l0.001,0.002l0.002,0.001
			l24.145,24.144l0.003,0.005l0.005,0.003l19.957,19.956l0.005,0.008l0.007,0.005l24.135,24.135l0.007,0.011l0.01,0.007
			l14.077,14.077L304.206,201.924z M358.379,83.226c3.382-3.211,8.685-3.214,12.071-0.009c3.283,3.371,3.277,8.745-0.013,12.108
			l-7.961,8.011l-12.079-12.079L358.379,83.226z M314.263,39.11c3.384-3.217,8.695-3.217,12.079,0
			c1.623,1.608,2.535,3.799,2.533,6.083c-0.011,2.267-0.931,4.434-2.554,6.017l-7.962,8.012L306.28,47.142L314.263,39.11z
			 M49.221,260.68l61.712,61.712v60.756l-93.908-90.706L49.221,260.68z M55.742,452.193l-11.988-17.967
			c-3.186-4.739-8.519-7.584-14.229-7.592H17.067v-17.067H94.81c-11.513,11.205-18.008,26.588-18.009,42.654L55.742,452.193z
			 M93.867,452.235c0-23.564,19.103-42.667,42.667-42.667S179.2,428.67,179.2,452.235c0,23.564-19.103,42.667-42.667,42.667
			C112.981,494.874,93.894,475.787,93.867,452.235z M193.751,469.301H230.4v25.6h-52.143
			C185.509,487.82,190.84,479.01,193.751,469.301z M247.467,494.901v-102.4h17.067v102.4H247.467z M281.6,452.235v-42.667h94.81
			c-11.516,11.208-18.012,26.597-18.01,42.667H281.6z M418.133,494.901c-23.564,0-42.667-19.103-42.667-42.667
			c0-23.564,19.103-42.667,42.667-42.667c23.564,0,42.667,19.103,42.667,42.667C460.772,475.787,441.686,494.874,418.133,494.901z
			 M477.185,443.701c-4.255-29.354-29.391-51.147-59.052-51.2H409.6V281.568h64.733l17.067,17.067h-47.667
			c-9.421,0.011-17.056,7.645-17.067,17.067v25.6c0.011,9.421,7.645,17.056,17.067,17.067h51.2v85.333H477.185z"/>
	</g>
</g>
<g>
</g>
<g>
</g>
<g>
</g>
<g>
</g>
<g>
</g>
<g>
</g>
<g>
</g>
<g>
</g>
<g>
</g>
<g>
</g>
<g>
</g>
<g>
</g>
<g>
</g>
<g>
</g>
<g>
</g>
</svg>
