<?xml version="1.0" encoding="iso-8859-1"?>
<!-- Generator: Adobe Illustrator 19.0.0, SVG Export Plug-In . SVG Version: 6.00 Build 0)  -->
<svg version="1.1" id="Capa_1" xmlns="http://www.w3.org/2000/svg" xmlns:xlink="http://www.w3.org/1999/xlink" x="0px" y="0px"
	 viewBox="0 0 512 512" style="enable-background:new 0 0 512 512;" xml:space="preserve">
<g>
	<g transform="translate(1 1)">
		<polygon style="fill:#CFD8DC;" points="237.933,101.4 186.733,101.4 135.533,101.4 135.533,67.267 237.933,67.267 		"/>
		<rect x="246.467" y="152.6" style="fill:#607D8B;" width="256" height="68.267"/>
		<rect x="272.067" y="152.6" style="fill:#CFD8DC;" width="204.8" height="68.267"/>
		<g>
			<path style="fill:#607D8B;" d="M271.043,373.528c0.25,2.417-0.536,4.827-2.162,6.632c-1.626,1.805-3.941,2.837-6.371,2.84H229.4
				c-4.707-0.014-8.519-3.826-8.533-8.533v-85.333h-51.2V229.4h86.272L271.043,373.528z"/>
			<path style="fill:#607D8B;" d="M127,229.4v42.667c-0.014,4.707-3.826,8.519-8.533,8.533v93.867
				c-0.014,4.707-3.826,8.519-8.533,8.533H92.867c-4.707-0.014-8.519-3.826-8.533-8.533V229.4H127z"/>
		</g>
		<rect x="7.533" y="144.067" style="fill:#CFD8DC;" width="93.867" height="85.333"/>
		<path style="fill:#2E7D32;" d="M297.667,152.6v68.267c-0.014,4.707-3.826,8.519-8.533,8.533h-25.6
			c4.707-0.014,8.519-3.826,8.533-8.533V152.6c-0.014-4.707-3.826-8.519-8.533-8.533h25.6
			C293.84,144.081,297.653,147.893,297.667,152.6z"/>
		<g>
			<path style="fill:#4CAF50;" d="M272.067,152.6v68.267c-0.014,4.707-3.826,8.519-8.533,8.533H101.4v-85.333h162.133
				C268.24,144.081,272.053,147.893,272.067,152.6z"/>
			<path style="fill:#4CAF50;" d="M229.4,58.734h34.133c4.713,0,8.533,3.821,8.533,8.533V101.4c0,4.713-3.82,8.533-8.533,8.533
				H229.4c-4.713,0-8.533-3.821-8.533-8.533V67.267C220.867,62.554,224.687,58.734,229.4,58.734z"/>
			<path style="fill:#4CAF50;" d="M109.933,58.734h34.133c4.713,0,8.533,3.821,8.533,8.533V101.4c0,4.713-3.821,8.533-8.533,8.533
				h-34.133c-4.713,0-8.533-3.821-8.533-8.533V67.267C101.4,62.554,105.221,58.734,109.933,58.734z"/>
		</g>
	</g>
	<path d="M503.467,119.467c-2.263-0.001-4.434,0.898-6.035,2.499s-2.499,3.771-2.499,6.035v17.067H307.2
		c0.001-2.263-0.898-4.434-2.499-6.035c-1.6-1.6-3.771-2.499-6.035-2.499H256v-17.067h8.533c9.421-0.011,17.056-7.645,17.067-17.067
		V68.267c-0.011-9.421-7.645-17.056-17.067-17.067H230.4c-6.069,0.02-11.668,3.272-14.692,8.533h-55.949
		c-3.024-5.262-8.623-8.514-14.692-8.533h-34.133c-9.421,0.011-17.056,7.645-17.067,17.067V102.4
		c0.011,9.421,7.645,17.056,17.067,17.067h8.533v17.067h-102.4v-17.067c0-4.713-3.821-8.533-8.533-8.533S0,114.754,0,119.467V256
		c0,4.713,3.821,8.533,8.533,8.533s8.533-3.821,8.533-8.533v-17.067H76.8v136.533c0.011,9.421,7.645,17.056,17.067,17.067h17.067
		c9.421-0.011,17.056-7.645,17.067-17.067v-87.625c5.279-3.048,8.532-8.68,8.533-14.775v-34.133h25.6V307.2
		c0.015,14.132,11.468,25.585,25.6,25.6h25.6v42.667c0.011,9.421,7.645,17.056,17.067,17.067h9.037
		c4.522,40.5,39.896,70.413,80.584,68.145c40.689-2.268,72.519-35.927,72.512-76.679v-59.733
		c0.011-9.421,7.645-17.056,17.067-17.067c18.836-0.014,34.105-15.273,34.133-34.108V230.4h51.2v17.067
		c0,4.713,3.821,8.533,8.533,8.533c4.713,0,8.533-3.821,8.533-8.533V128c0.001-2.263-0.898-4.434-2.499-6.035
		C507.901,120.365,505.73,119.466,503.467,119.467z M290.133,221.867h-179.2V153.6h179.2V221.867z M264.533,68.267l0.012,34.133
		H230.4V68.267H264.533z M213.333,93.867h-51.2V76.8h51.2V93.867z M110.933,68.267h34.133V102.4h-34.133V68.267z M136.533,119.467
		h8.533c6.069-0.02,11.668-3.272,14.692-8.533h55.949c3.024,5.262,8.623,8.514,14.692,8.533h8.533v17.067h-102.4V119.467z
		 M17.067,153.6h76.8v68.267h-76.8V153.6z M119.467,273.067c-2.263-0.001-4.434,0.898-6.035,2.499c-1.6,1.6-2.499,3.771-2.499,6.035
		v93.867H93.867V238.934h25.6V273.067z M187.733,315.734c-4.711-0.005-8.529-3.822-8.533-8.533v-8.533h34.133v17.067H187.733z
		 M230.4,290.134c0.001-2.263-0.898-4.434-2.499-6.035c-1.6-1.6-3.771-2.499-6.035-2.499H179.2v-42.667h69.163l15.171,136.533H230.4
		V290.134z M426.667,273.092c-0.016,9.415-7.652,17.04-17.067,17.042c-18.843,0.02-34.113,15.29-34.133,34.133V384
		c0.019,31.324-24.176,57.335-55.419,59.58c-31.243,2.244-58.908-20.042-63.366-51.046h6.852c4.854,0.001,9.479-2.066,12.716-5.683
		c3.237-3.617,4.78-8.442,4.242-13.267l-14.96-134.65h33.135c2.263,0.001,4.434-0.898,6.035-2.499c1.6-1.6,2.499-3.771,2.499-6.035
		h119.467V273.092z M307.2,213.334v-51.2h187.733v51.2H307.2z"/>
</g>
<g>
</g>
<g>
</g>
<g>
</g>
<g>
</g>
<g>
</g>
<g>
</g>
<g>
</g>
<g>
</g>
<g>
</g>
<g>
</g>
<g>
</g>
<g>
</g>
<g>
</g>
<g>
</g>
<g>
</g>
</svg>
