<?xml version="1.0" encoding="iso-8859-1"?>
<!-- Generator: Adobe Illustrator 19.0.0, SVG Export Plug-In . SVG Version: 6.00 Build 0)  -->
<svg version="1.1" id="Capa_1" xmlns="http://www.w3.org/2000/svg" xmlns:xlink="http://www.w3.org/1999/xlink" x="0px" y="0px"
	 viewBox="0 0 512.22 512.22" style="enable-background:new 0 0 512.22 512.22;" xml:space="preserve">
<g>
	<g transform="translate(1 4)">
		<path style="fill:#607D8B;" d="M272.176,64.267h34.133c9.426,0,17.067,7.641,17.067,17.067v8.533
			c0,9.426-7.641,17.067-17.067,17.067h-102.4c-9.426,0-17.067-7.641-17.067-17.067v-8.533c0-9.426,7.641-17.067,17.067-17.067
			H272.176z"/>
		<g>
			<path style="fill:#00695C;" d="M84.443,311.733h17.067c4.713,0,8.533,3.821,8.533,8.533v17.067c0,4.713-3.82,8.533-8.533,8.533
				H84.443c-4.713,0-8.533-3.821-8.533-8.533v-17.067C75.909,315.554,79.73,311.733,84.443,311.733z"/>
			<path style="fill:#00695C;" d="M425.776,345.867h-17.067c-4.713,0-8.533-3.821-8.533-8.533v-17.067
				c0-4.713,3.82-8.533,8.533-8.533h17.067c4.713,0,8.533,3.821,8.533,8.533v17.067
				C434.309,342.046,430.489,345.867,425.776,345.867z"/>
		</g>
		<rect x="238.043" y="371.467" style="fill:#95A5A5;" width="34.133" height="72.363"/>
		<g>
			<path style="fill:#558B30;" d="M201.008,183.733l-11.349,34.133l-2.816,8.533h-29.867c-11.782,0-21.333-9.551-21.333-21.333
				c0-11.782,9.551-21.333,21.333-21.333H201.008z"/>
			<path style="fill:#558B30;" d="M374.576,205.067c0.017,5.663-2.225,11.099-6.229,15.104c-4.004,4.005-9.441,6.247-15.104,6.229
				l-166.4,0l2.816-8.533l11.349-34.133h152.235C365.023,183.738,374.572,193.286,374.576,205.067z"/>
		</g>
		<path style="fill:#2E7D32;" d="M366.043,317.024v45.909c-0.014,4.707-3.826,8.519-8.533,8.533h-51.2
			c-2.816,0.597-5.717,1.195-8.533,1.792c-8.533,1.707-17.067,3.072-25.6,4.011v2.133c1.451,0,2.901-0.085,4.267-0.171
			c-1.365,0.085-2.816,0.171-4.267,0.256h-0.597c-0.278,0.086-0.575,0.086-0.853,0c-0.219,0.076-0.452,0.105-0.683,0.085
			c-0.451,0.085-0.914,0.085-1.365,0c-1.536,0.085-3.072,0.171-4.523,0.171c-2.987,0.171-6.059,0.171-9.045,0.171
			c-4.096,0-8.192-0.085-12.203-0.256h-0.939c-1.024,0-2.048-0.085-3.072-0.171h-0.853c-1.451-0.085-2.901-0.171-4.267-0.256
			c-7.168-0.427-14.251-1.109-21.333-1.963c-11.435-1.365-22.869-3.328-34.133-5.803h-25.6c-4.707-0.014-8.519-3.826-8.533-8.533
			v-45.909c-0.017-3.242,1.8-6.216,4.693-7.68l29.44-14.677V252l8.533-25.6l2.816-8.533l11.349-34.133h0.085l9.387-28.331
			c1.203-3.454,4.449-5.777,8.107-5.803h73.131c3.637,0.029,6.856,2.358,8.021,5.803l9.387,28.331h0.085l11.349,34.133l2.816,8.533
			l8.533,25.6v42.667l29.44,14.677C364.242,310.808,366.059,313.782,366.043,317.024z"/>
		<path style="fill:#4CAF50;" d="M340.443,317.024v45.909c-0.014,4.707-3.826,8.519-8.533,8.533h-25.6
			c-2.816,0.597-5.717,1.195-8.533,1.792c-8.533,1.707-17.067,3.072-25.6,4.011c-9.728,1.28-19.456,2.048-29.269,2.389h-0.939
			c-1.28,0.085-2.56,0.085-3.925,0.085v-0.256c-1.451-0.085-2.901-0.171-4.267-0.256c-7.168-0.427-14.251-1.109-21.333-1.963
			c-11.435-1.365-22.869-3.328-34.133-5.803h-25.6c-4.707-0.014-8.519-3.826-8.533-8.533v-45.909c-0.017-3.242,1.8-6.216,4.693-7.68
			l29.44-14.677V252l8.533-25.6l2.816-8.533l11.349-34.133h0.085l9.387-28.331c1.203-3.454,4.449-5.777,8.107-5.803h47.531
			c3.637,0.029,6.856,2.358,8.021,5.803l9.387,28.331h0.085l11.349,34.133l2.816,8.533l8.533,25.6v42.667l25.6,12.8l3.84,1.877
			C338.642,310.808,340.459,313.782,340.443,317.024z"/>
		<polygon style="fill:#02A9F4;" points="331.909,252 178.309,252 186.843,226.4 189.659,217.867 320.56,217.867 323.376,226.4 		
			"/>
		<g>
			<path style="fill:#558B30;" d="M178.309,294.667v76.8h-25.6c-4.707-0.014-8.519-3.826-8.533-8.533v-45.909
				c-0.017-3.242,1.8-6.216,4.693-7.68L178.309,294.667z"/>
			<path style="fill:#558B30;" d="M366.043,317.024v45.909c-0.014,4.707-3.826,8.519-8.533,8.533h-25.6v-76.8l29.44,14.677
				C364.242,310.808,366.059,313.782,366.043,317.024z"/>
		</g>
		<g>
			<path style="fill:#37474F;" d="M169.776,405.6L169.776,405.6c9.426,0,17.067,7.641,17.067,17.067v25.6
				c0,9.426-7.641,17.067-17.067,17.067l0,0c-9.426,0-17.067-7.641-17.067-17.067v-25.6C152.709,413.241,160.35,405.6,169.776,405.6
				z"/>
			<path style="fill:#37474F;" d="M340.443,405.6L340.443,405.6c9.426,0,17.067,7.641,17.067,17.067v25.6
				c0,9.426-7.641,17.067-17.067,17.067l0,0c-9.426,0-17.067-7.641-17.067-17.067v-25.6
				C323.376,413.241,331.017,405.6,340.443,405.6z"/>
		</g>
		<polygon style="fill:#00BCD4;" points="263.643,252 289.243,217.867 246.576,217.867 220.976,252 		"/>
		<circle style="fill:#607D8B;" cx="255.109" cy="465.333" r="34.133"/>
		<path style="fill:#95A5A5;" d="M272.176,47.2v102.4h-34.133V47.2c0.068-9.397,7.669-16.999,17.067-17.067
			C264.524,30.161,272.149,37.786,272.176,47.2z"/>
		<path style="fill:#71C285;" d="M297.776,294.667v78.592c-8.533,1.707-17.067,3.072-25.6,4.011v2.133
			c-0.189,0.076-0.394,0.105-0.597,0.085c-0.278,0.086-0.575,0.086-0.853,0c-0.219,0.076-0.452,0.105-0.683,0.085
			c-0.451,0.085-0.914,0.085-1.365,0c-1.536,0.085-3.072,0.171-4.523,0.171c-2.987,0.171-6.059,0.171-9.045,0.171
			c-4.096,0-8.192-0.085-12.203-0.256h-0.939c-1.024,0-2.048-0.085-3.072-0.171c-0.287,0.018-0.575-0.01-0.853-0.085
			c-1.451,0-2.901-0.085-4.267-0.171c-7.168-0.427-14.251-1.109-21.333-1.963v-82.603c0.028-9.414,7.652-17.039,17.067-17.067h51.2
			C290.124,277.628,297.749,285.252,297.776,294.667z"/>
		<g>
			<circle style="fill:#00695C;" cx="24.709" cy="328.8" r="17.067"/>
			<circle style="fill:#00695C;" cx="485.509" cy="328.8" r="17.067"/>
		</g>
	</g>
	<path d="M307.309,119.467c14.132-0.015,25.585-11.468,25.6-25.6h170.667c4.713,0,8.533-3.821,8.533-8.533s-3.821-8.533-8.533-8.533
		H331.337c-3.592-10.199-13.214-17.033-24.028-17.067h-25.6V51.2c-0.013-10.846-6.846-20.511-17.067-24.142V8.533
		c0-4.713-3.82-8.533-8.533-8.533s-8.533,3.821-8.533,8.533v18.639c-10.199,3.592-17.033,13.214-17.067,24.028v8.533h-25.6
		c-10.813,0.033-20.435,6.868-24.028,17.067H8.643c-4.713,0-8.533,3.821-8.533,8.533s3.821,8.533,8.533,8.533h170.667
		c0.015,14.132,11.468,25.585,25.6,25.6h25.6v25.6h-10.921c-7.332,0.037-13.837,4.712-16.208,11.65l-7.447,22.483h-37.957
		c-7.929-0.031-15.54,3.114-21.133,8.733c-8.533,8.55-11.081,21.395-6.457,32.554c4.624,11.159,15.511,18.438,27.59,18.446h18.015
		l-4.777,14.367c-0.29,0.871-0.438,1.782-0.438,2.7h-115.7c-11.021-0.008-20.807,7.043-24.288,17.5l-11.54,34.628
		c-12.019,3.137-20.051,14.449-19.051,26.83c1,12.381,10.745,22.257,23.111,23.423c12.366,1.166,23.785-6.714,27.082-18.69
		s-2.479-24.59-13.7-29.918L46.98,278.9c1.158-3.487,4.422-5.838,8.096-5.833h30.367V307.2c-9.421,0.011-17.056,7.645-17.067,17.067
		v17.067c0.011,9.421,7.645,17.056,17.067,17.067h17.067c9.421-0.011,17.056-7.645,17.067-17.067v-17.067
		c-0.011-9.421-7.645-17.056-17.067-17.067v-34.133h68.267v20.326l-24.692,12.349c-5.805,2.868-9.468,8.792-9.442,15.267v45.925
		c0.011,9.421,7.645,17.056,17.067,17.067h8.533v18.639c-10.199,3.592-17.033,13.214-17.067,24.028v25.6
		c0,14.138,11.462,25.6,25.6,25.6s25.6-11.462,25.6-25.6v-25.6c-0.033-10.813-6.868-20.435-17.067-24.028v-18.462
		c16.873,3.619,33.983,6.023,51.2,7.192v44.049c-14.692,11.019-20.685,30.203-14.878,47.626
		c5.808,17.423,22.112,29.175,40.478,29.175s34.67-11.752,40.478-29.175c5.808-17.423-0.185-36.607-14.878-47.626v-44.049
		c17.217-1.17,34.327-3.573,51.2-7.192v18.462c-10.199,3.592-17.033,13.214-17.067,24.028v25.6c0,14.138,11.462,25.6,25.6,25.6
		c14.138,0,25.6-11.462,25.6-25.6v-25.6c-0.033-10.813-6.868-20.435-17.067-24.028V384h8.533
		c9.421-0.011,17.056-7.645,17.067-17.067v-45.925c0.027-6.472-3.633-12.395-9.433-15.267l-24.7-12.35v-20.325h68.267V307.2
		c-9.421,0.011-17.056,7.645-17.067,17.067v17.067c0.011,9.421,7.645,17.056,17.067,17.067h17.067
		c9.421-0.011,17.056-7.645,17.067-17.067v-17.067c-0.011-9.421-7.645-17.056-17.067-17.067v-34.133h30.367
		c3.674-0.005,6.938,2.346,8.096,5.833l10.288,30.872c-11.223,5.328-17.002,17.945-13.704,29.924s14.719,19.861,27.088,18.694
		c12.369-1.166,22.116-11.045,23.116-23.428c1-12.384-7.035-23.698-19.056-26.834L481.43,273.5
		c-3.48-10.456-13.267-17.508-24.288-17.5h-115.7c0.001-0.918-0.147-1.829-0.438-2.7l-4.777-14.367h18.015
		c7.929,0.031,15.54-3.114,21.133-8.733c8.533-8.55,11.081-21.395,6.457-32.554c-4.624-11.159-15.511-18.438-27.59-18.446h-37.952
		l-7.498-22.625c-2.404-6.874-8.88-11.486-16.162-11.508h-10.921v-25.6H307.309z M25.709,341.333c-4.713,0-8.533-3.82-8.533-8.533
		s3.821-8.533,8.533-8.533s8.533,3.82,8.533,8.533C34.238,337.511,30.42,341.329,25.709,341.333z M102.522,341.333H85.443v-17.067
		h17.067L102.522,341.333z M426.776,341.333h-17.067v-17.067h17.067V341.333z M486.509,341.333c-4.713,0-8.533-3.82-8.533-8.533
		s3.821-8.533,8.533-8.533c4.713,0,8.533,3.82,8.533,8.533C495.038,337.511,491.22,341.329,486.509,341.333z M307.309,76.8
		c4.711,0.005,8.529,3.822,8.533,8.533v8.533c-0.005,4.711-3.822,8.529-8.533,8.533h-25.6V76.8H307.309z M204.909,102.4
		c-4.711-0.005-8.529-3.822-8.533-8.533v-8.533c0.005-4.711,3.822-8.529,8.533-8.533h25.6v25.6H204.909z M256.109,162.133h36.546
		l9.371,28.283c0.12,0.366,0.266,0.722,0.438,1.067l7.266,21.85H202.491l7.26-21.833c0.171-0.351,0.319-0.713,0.442-1.084
		l9.396-28.283H256.109z M324.376,368.425c-5.661,1.14-11.35,2.14-17.067,3.001v-72.759c-0.015-14.132-11.468-25.585-25.6-25.6
		h-51.2c-14.132,0.015-25.585,11.468-25.6,25.6v72.759c-5.72-0.852-11.409-1.852-17.067-3.001V264.533h136.533V368.425z
		 M221.976,373.558v-74.891c0.005-4.711,3.822-8.529,8.533-8.533h51.2c4.711,0.005,8.529,3.822,8.533,8.533v74.891
		C267.542,375.786,244.677,375.786,221.976,373.558z M196.816,230.4h33.698l-12.8,17.067H191.14L196.816,230.4z M239.039,247.467
		l12.8-17.067h21.342l-12.8,17.067H239.039z M281.705,247.467l12.8-17.067h20.898l5.675,17.067H281.705z M157.976,221.867
		c-7.069,0-12.8-5.731-12.8-12.8c0-7.069,5.731-12.8,12.8-12.8h32.201l-8.512,25.6H157.976z M153.709,321.008l17.067-8.533v54.458
		h-17.067V321.008z M179.309,452.267c0,4.713-3.821,8.533-8.533,8.533s-8.533-3.82-8.533-8.533v-25.6
		c0-4.713,3.82-8.533,8.533-8.533s8.533,3.82,8.533,8.533V452.267z M256.109,494.933c-14.139,0-25.6-11.462-25.6-25.6
		c0-14.138,11.462-25.6,25.6-25.6c14.138,0,25.6,11.462,25.6,25.6C281.694,483.465,270.241,494.918,256.109,494.933z
		 M264.643,427.529c-5.631-1.15-11.436-1.15-17.067,0v-35.382c2.845,0.066,5.687,0.228,8.533,0.228c2.846,0,5.688-0.162,8.533-0.228
		V427.529z M349.976,452.267c0,4.713-3.82,8.533-8.533,8.533s-8.533-3.82-8.533-8.533v-25.6c0-4.713,3.821-8.533,8.533-8.533
		s8.533,3.82,8.533,8.533V452.267z M358.509,321.008v45.925h-17.067v-54.458L358.509,321.008z M367.043,209.067
		c0.016,3.4-1.327,6.665-3.731,9.069c-2.404,2.404-5.669,3.747-9.069,3.731h-23.689l-8.512-25.6h32.201
		C361.309,196.274,367.035,202.001,367.043,209.067z M256.109,145.067h-8.533V51.2c0-4.713,3.821-8.533,8.533-8.533
		s8.533,3.821,8.533,8.533v93.867H256.109z"/>
</g>
<g>
</g>
<g>
</g>
<g>
</g>
<g>
</g>
<g>
</g>
<g>
</g>
<g>
</g>
<g>
</g>
<g>
</g>
<g>
</g>
<g>
</g>
<g>
</g>
<g>
</g>
<g>
</g>
<g>
</g>
</svg>
