<?xml version="1.0" encoding="iso-8859-1"?>
<!-- Generator: Adobe Illustrator 19.0.0, SVG Export Plug-In . SVG Version: 6.00 Build 0)  -->
<svg version="1.1" id="Capa_1" xmlns="http://www.w3.org/2000/svg" xmlns:xlink="http://www.w3.org/1999/xlink" x="0px" y="0px"
	 viewBox="0 0 512 512" style="enable-background:new 0 0 512 512;" xml:space="preserve">
<g>
	<g transform="translate(1 1)">
		<g>
			<g>
				<path id="SVGCleanerId_0" style="fill:#558B30;" d="M68.547,84.333h31.573c5.42,0,9.813,4.394,9.813,9.813v48.64
					c0,5.42-4.394,9.813-9.813,9.813H68.547c-2.603,0-5.099-1.034-6.939-2.874c-1.84-1.84-2.874-4.336-2.874-6.939v-48.64
					c0-2.603,1.034-5.099,2.874-6.939C63.448,85.367,65.944,84.333,68.547,84.333z"/>
			</g>
			<path style="fill:#558B30;" d="M153.88,84.333h31.573c5.42,0,9.813,4.394,9.813,9.813v48.64c0,5.42-4.394,9.813-9.813,9.813
				H153.88c-2.603,0-5.099-1.034-6.939-2.874c-1.84-1.84-2.874-4.336-2.874-6.939v-48.64
				C144.067,88.727,148.46,84.333,153.88,84.333z"/>
			<g>
				<path id="SVGCleanerId_1" style="fill:#558B30;" d="M239.213,84.333h31.573c5.42,0,9.813,4.394,9.813,9.813v48.64
					c0,5.42-4.394,9.813-9.813,9.813h-31.573c-5.42,0-9.813-4.394-9.813-9.813v-48.64C229.4,88.727,233.794,84.333,239.213,84.333z"
					/>
			</g>
			<path style="fill:#558B30;" d="M331.8,67.267l0,247.467H24.6c-9.414-0.028-17.039-7.652-17.067-17.067v-102.4H306.2v-128
				c0.009-6.792-2.685-13.309-7.488-18.112c-4.803-4.803-11.32-7.497-18.112-7.488h25.6c6.792-0.009,13.309,2.685,18.112,7.488
				S331.809,60.474,331.8,67.267z"/>
		</g>
		<g>
			<g>
				<path id="SVGCleanerId_0_1_" style="fill:#8BC34A;" d="M68.547,84.333h31.573c5.42,0,9.813,4.394,9.813,9.813v48.64
					c0,5.42-4.394,9.813-9.813,9.813H68.547c-2.603,0-5.099-1.034-6.939-2.874c-1.84-1.84-2.874-4.336-2.874-6.939v-48.64
					c0-2.603,1.034-5.099,2.874-6.939C63.448,85.367,65.944,84.333,68.547,84.333z"/>
			</g>
			<g>
				<path id="SVGCleanerId_2" style="fill:#8BC34A;" d="M153.88,84.333h31.573c5.42,0,9.813,4.394,9.813,9.813v48.64
					c0,5.42-4.394,9.813-9.813,9.813H153.88c-2.603,0-5.099-1.034-6.939-2.874c-1.84-1.84-2.874-4.336-2.874-6.939v-48.64
					C144.067,88.727,148.46,84.333,153.88,84.333z"/>
			</g>
			<g>
				<path id="SVGCleanerId_1_1_" style="fill:#8BC34A;" d="M239.213,84.333h31.573c5.42,0,9.813,4.394,9.813,9.813v48.64
					c0,5.42-4.394,9.813-9.813,9.813h-31.573c-5.42,0-9.813-4.394-9.813-9.813v-48.64C229.4,88.727,233.794,84.333,239.213,84.333z"
					/>
			</g>
			<path style="fill:#8BC34A;" d="M306.2,195.267v119.467H24.6c-9.414-0.028-17.039-7.652-17.067-17.067v-102.4H306.2z"/>
			<path style="fill:#8BC34A;" d="M331.8,314.733v51.201H152.6c-9.045-25.719-15.739-45.093-38.774-49.98
				c-2.061-0.337-4.083-0.794-6.197-0.964c-2.048-0.171-4.181-0.256-6.229-0.256H331.8z"/>
		</g>
		<path style="fill:#95A5A5;" d="M348.867,356.461v9.472h-4.096C345.871,362.668,347.241,359.5,348.867,356.461z"/>
		<path style="fill:#607D8B;" d="M502.467,196.803V357.4c-0.014,4.707-3.826,8.519-8.533,8.533H344.771
			c1.101-3.265,2.471-6.434,4.096-9.472c9.982-19.488,27.818-33.78,49.013-39.274c21.195-5.494,43.728-1.667,61.92,10.517v-64.171
			c0.014-4.707,3.826-8.519,8.533-8.533h8.533v-34.133H408.6c-4.707-0.014-8.519-3.826-8.533-8.533v-68.267
			c0.014-4.707,3.826-8.519,8.533-8.533h46.592l-10.411-28.501c-1.205-3.391-4.422-5.65-8.021-5.632h25.6
			c3.599-0.018,6.816,2.241,8.021,5.632l10.411,28.501l21.163,58.283C502.297,194.774,502.47,195.785,502.467,196.803z"/>
		<path style="fill:#CFD8DC;" d="M476.867,220.867V255h-8.533c-4.707,0.014-8.519,3.826-8.533,8.533v64.171
			c-18.192-12.184-40.725-16.011-61.92-10.517c-21.195,5.494-39.031,19.786-49.013,39.274c-1.625,3.038-2.995,6.207-4.096,9.472
			H331.8V101.4l104.96,0c3.599-0.018,6.816,2.241,8.021,5.632l10.411,28.501H408.6c-4.707,0.014-8.519,3.826-8.533,8.533v68.267
			c0.014,4.707,3.826,8.519,8.533,8.533H476.867z"/>
		<rect x="306.2" y="101.4" style="fill:#558B30;" width="25.6" height="264.533"/>
		<g>
			<path style="fill:#CFD8DC;" d="M476.867,196.803l0,24.064H408.6c-4.707-0.014-8.519-3.826-8.533-8.533v-68.267
				c0.014-4.707,3.826-8.519,8.533-8.533h46.592l21.163,58.283C476.697,194.774,476.87,195.785,476.867,196.803z"/>
			<path style="fill:#CFD8DC;" d="M468.333,255h8.533v102.4c-0.014,4.707-3.826,8.519-8.533,8.533H344.771
				c1.101-3.265,2.471-6.434,4.096-9.472c9.982-19.488,27.818-33.78,49.013-39.274c21.195-5.494,43.728-1.667,61.92,10.517v-64.171
				C459.814,258.826,463.626,255.014,468.333,255z"/>
		</g>
		<path style="fill:#37474F;" d="M178.2,391.533c0.08,39.974-30.459,73.353-70.282,76.819s-75.67-24.135-82.497-63.522
			s17.639-77.442,56.306-87.581s78.658,11.015,92.036,48.684C176.718,374.144,178.22,382.807,178.2,391.533z"/>
		<circle style="fill:#E6E7E8;" cx="101.4" cy="391.533" r="34.133"/>
		<path style="fill:#02A9F4;" d="M502.467,196.803l0,24.064h-59.733v-85.333h38.059l21.163,58.283
			C502.297,194.774,502.47,195.785,502.467,196.803z"/>
		<path style="fill:#00BCD4;" d="M442.733,135.533v85.333H408.6c-4.707-0.014-8.519-3.826-8.533-8.533v-68.267
			c0.014-4.707,3.826-8.519,8.533-8.533H442.733z"/>
		<g>
			<path style="fill:#CFD8DC;" d="M502.467,323.267V357.4c-0.014,4.707-3.826,8.519-8.533,8.533H459.8v-42.667H502.467z"/>
			<rect x="459.8" y="289.133" style="fill:#CFD8DC;" width="42.667" height="34.133"/>
			<path style="fill:#CFD8DC;" d="M502.467,255v34.133H459.8v-25.6c0.014-4.707,3.826-8.519,8.533-8.533H502.467z"/>
		</g>
		<g>
			<g>
				<path id="SVGCleanerId_0_2_" style="fill:#2E7D32;" d="M68.547,84.333h31.573c5.42,0,9.813,4.394,9.813,9.813v48.64
					c0,5.42-4.394,9.813-9.813,9.813H68.547c-2.603,0-5.099-1.034-6.939-2.874c-1.84-1.84-2.874-4.336-2.874-6.939v-48.64
					c0-2.603,1.034-5.099,2.874-6.939C63.448,85.367,65.944,84.333,68.547,84.333z"/>
			</g>
			<g>
				<path id="SVGCleanerId_2_1_" style="fill:#2E7D32;" d="M153.88,84.333h31.573c5.42,0,9.813,4.394,9.813,9.813v48.64
					c0,5.42-4.394,9.813-9.813,9.813H153.88c-2.603,0-5.099-1.034-6.939-2.874c-1.84-1.84-2.874-4.336-2.874-6.939v-48.64
					C144.067,88.727,148.46,84.333,153.88,84.333z"/>
			</g>
			<g>
				<path id="SVGCleanerId_1_2_" style="fill:#2E7D32;" d="M239.213,84.333h31.573c5.42,0,9.813,4.394,9.813,9.813v48.64
					c0,5.42-4.394,9.813-9.813,9.813h-31.573c-5.42,0-9.813-4.394-9.813-9.813v-48.64C229.4,88.727,233.794,84.333,239.213,84.333z"
					/>
			</g>
			<path style="fill:#2E7D32;" d="M331.8,67.267l0,128h-25.6v-128c0.009-6.792-2.685-13.309-7.488-18.112
				c-4.803-4.803-11.32-7.497-18.112-7.488l25.6,0c6.792-0.009,13.309,2.685,18.112,7.488
				C329.115,53.958,331.809,60.474,331.8,67.267z"/>
		</g>
		<g>
			<path style="fill:#4CAF50;" d="M280.6,41.667H33.133c-6.792-0.009-13.309,2.685-18.112,7.488s-7.497,11.32-7.488,18.112l0,128
				H306.2v-128c0.009-6.792-2.685-13.309-7.488-18.112C293.909,44.352,287.392,41.658,280.6,41.667z M109.933,142.787
				c-0.031,5.407-4.406,9.782-9.813,9.813H68.547c-5.407-0.031-9.782-4.406-9.813-9.813v-48.64c0.031-5.407,4.406-9.783,9.813-9.813
				h31.573c5.407,0.031,9.783,4.406,9.813,9.813V142.787z M195.267,142.787c-0.031,5.407-4.406,9.782-9.813,9.813H153.88
				c-5.407-0.031-9.782-4.406-9.813-9.813v-48.64c0.031-5.407,4.406-9.783,9.813-9.813h31.573c5.407,0.031,9.783,4.406,9.813,9.813
				V142.787z M280.6,142.787c-0.031,5.407-4.406,9.782-9.813,9.813h-31.573c-5.407-0.031-9.782-4.406-9.813-9.813v-48.64
				c0.031-5.407,4.406-9.783,9.813-9.813h31.573c5.407,0.031,9.783,4.406,9.813,9.813V142.787z"/>
			<g>
				<path id="SVGCleanerId_0_3_" style="fill:#4CAF50;" d="M68.547,84.333h31.573c5.42,0,9.813,4.394,9.813,9.813v48.64
					c0,5.42-4.394,9.813-9.813,9.813H68.547c-2.603,0-5.099-1.034-6.939-2.874c-1.84-1.84-2.874-4.336-2.874-6.939v-48.64
					c0-2.603,1.034-5.099,2.874-6.939C63.448,85.367,65.944,84.333,68.547,84.333z"/>
			</g>
			<g>
				<path id="SVGCleanerId_2_2_" style="fill:#4CAF50;" d="M153.88,84.333h31.573c5.42,0,9.813,4.394,9.813,9.813v48.64
					c0,5.42-4.394,9.813-9.813,9.813H153.88c-2.603,0-5.099-1.034-6.939-2.874c-1.84-1.84-2.874-4.336-2.874-6.939v-48.64
					C144.067,88.727,148.46,84.333,153.88,84.333z"/>
			</g>
			<g>
				<path id="SVGCleanerId_1_3_" style="fill:#4CAF50;" d="M239.213,84.333h31.573c5.42,0,9.813,4.394,9.813,9.813v48.64
					c0,5.42-4.394,9.813-9.813,9.813h-31.573c-5.42,0-9.813-4.394-9.813-9.813v-48.64C229.4,88.727,233.794,84.333,239.213,84.333z"
					/>
			</g>
		</g>
		<g>
			<g>
				<path id="SVGCleanerId_0_4_" style="fill:#009688;" d="M68.547,84.333h31.573c5.42,0,9.813,4.394,9.813,9.813v48.64
					c0,5.42-4.394,9.813-9.813,9.813H68.547c-2.603,0-5.099-1.034-6.939-2.874c-1.84-1.84-2.874-4.336-2.874-6.939v-48.64
					c0-2.603,1.034-5.099,2.874-6.939C63.448,85.367,65.944,84.333,68.547,84.333z"/>
			</g>
			<g>
				<path id="SVGCleanerId_2_3_" style="fill:#009688;" d="M153.88,84.333h31.573c5.42,0,9.813,4.394,9.813,9.813v48.64
					c0,5.42-4.394,9.813-9.813,9.813H153.88c-2.603,0-5.099-1.034-6.939-2.874c-1.84-1.84-2.874-4.336-2.874-6.939v-48.64
					C144.067,88.727,148.46,84.333,153.88,84.333z"/>
			</g>
			<g>
				<path id="SVGCleanerId_1_4_" style="fill:#009688;" d="M239.213,84.333h31.573c5.42,0,9.813,4.394,9.813,9.813v48.64
					c0,5.42-4.394,9.813-9.813,9.813h-31.573c-5.42,0-9.813-4.394-9.813-9.813v-48.64C229.4,88.727,233.794,84.333,239.213,84.333z"
					/>
			</g>
		</g>
		<path style="fill:#37474F;" d="M493.933,391.533c0,42.415-34.385,76.8-76.8,76.8s-76.8-34.385-76.8-76.8
			c-0.02-8.726,1.482-17.389,4.437-25.6c1.101-3.265,2.471-6.434,4.096-9.472c9.982-19.488,27.818-33.78,49.013-39.274
			c21.195-5.494,43.728-1.667,61.92,10.517c6.471,4.315,12.229,9.612,17.067,15.701c5.497,6.711,9.772,14.337,12.629,22.528
			C492.452,374.144,493.953,382.807,493.933,391.533z"/>
		<circle style="fill:#E6E7E8;" cx="417.133" cy="391.533" r="34.133"/>
	</g>
	<g>
		<path d="M489.703,133.447c-0.047-0.121-0.079-0.243-0.131-0.361L479.4,105.108c-2.463-6.739-8.867-11.226-16.042-11.242H341.333
			v-25.6c-0.019-18.844-15.29-34.115-34.133-34.133H34.133C15.29,34.152,0.019,49.423,0,68.267v230.4
			c0.015,14.132,11.468,25.585,25.6,25.6h25.82c-21.611,16.035-34.353,41.356-34.353,68.267c0,26.91,12.742,52.231,34.353,68.267
			H8.533C3.821,460.8,0,464.621,0,469.333c0,4.713,3.821,8.533,8.533,8.533h281.6c4.713,0,8.533-3.821,8.533-8.533
			c0-4.713-3.821-8.533-8.533-8.533H153.38c26.52-19.698,39.242-52.966,32.633-85.333H334.52
			c-6.609,32.367,6.113,65.635,32.633,85.333h-42.886c-4.713,0-8.533,3.821-8.533,8.533c0,4.713,3.821,8.533,8.533,8.533h179.2
			c4.713,0,8.533-3.821,8.533-8.533c0-4.713-3.82-8.533-8.533-8.533h-34.353c26.963-19.94,39.63-53.905,32.309-86.632
			c6.391-2.632,10.566-8.856,10.577-15.768V197.767c-0.002-1.99-0.352-3.964-1.033-5.833L489.703,133.447z M469.333,315.733v-17.067
			h25.6v17.067H469.333z M469.333,281.6v-17.067h25.6V281.6H469.333z M494.933,213.333h-42.667v-68.267h23.504l19.163,52.7V213.333z
			 M463.358,110.933L469.564,128H409.6c-9.421,0.012-17.054,7.646-17.067,17.067v68.267c0.012,9.421,7.646,17.054,17.067,17.067
			h85.333v17.067h-25.6c-9.421,0.012-17.054,7.646-17.067,17.067v49.842c-42.04-18.458-91.141-0.217-110.933,41.211V110.933H463.358
			z M409.6,213.333v-68.267h25.6v68.267H409.6z M34.133,51.2H307.2c9.421,0.012,17.054,7.646,17.067,17.067v119.467h-307.2V68.267
			C17.079,58.846,24.713,51.212,34.133,51.2z M25.6,307.2c-4.712-0.003-8.53-3.822-8.533-8.533V204.8H76.8v25.6
			c0,4.713,3.821,8.533,8.533,8.533s8.533-3.821,8.533-8.533v-25.6h68.267v25.6c0,4.713,3.821,8.533,8.533,8.533
			c4.713,0,8.533-3.821,8.533-8.533v-25.6h68.267v25.6c0,4.713,3.821,8.533,8.533,8.533c4.713,0,8.533-3.821,8.533-8.533v-25.6
			h59.733v102.4H25.6z M102.4,460.8c-37.703,0-68.267-30.564-68.267-68.267s30.564-68.267,68.267-68.267
			s68.267,30.564,68.267,68.267C170.624,430.218,140.085,460.757,102.4,460.8z M153.38,324.267h170.887V358.4H180.558
			C174.594,344.869,165.231,333.11,153.38,324.267z M418.133,460.8c-37.703,0-68.267-30.564-68.267-68.267
			s30.564-68.267,68.267-68.267s68.267,30.564,68.267,68.267C486.357,430.218,455.818,460.757,418.133,460.8z M478.968,332.8h15.965
			v22.786C490.889,347.171,485.496,339.474,478.968,332.8z"/>
		<path d="M418.133,349.867c-23.564,0-42.667,19.102-42.667,42.667c0,23.564,19.103,42.667,42.667,42.667
			c23.564,0,42.667-19.103,42.667-42.667C460.772,368.981,441.686,349.894,418.133,349.867z M418.133,418.133
			c-14.138,0-25.6-11.462-25.6-25.6s11.462-25.6,25.6-25.6c14.138,0,25.6,11.462,25.6,25.6
			C443.718,406.665,432.265,418.118,418.133,418.133z"/>
		<path d="M102.4,349.867c-23.564,0-42.667,19.102-42.667,42.667c0,23.564,19.103,42.667,42.667,42.667s42.667-19.103,42.667-42.667
			C145.039,368.981,125.953,349.894,102.4,349.867z M102.4,418.133c-14.138,0-25.6-11.462-25.6-25.6s11.462-25.6,25.6-25.6
			s25.6,11.462,25.6,25.6C127.985,406.665,116.532,418.118,102.4,418.133z"/>
		<path d="M69.583,162.133h31.5c10.147-0.014,18.37-8.236,18.383-18.383V95.183c-0.014-10.147-8.236-18.37-18.383-18.383h-31.5
			c-10.147,0.014-18.37,8.236-18.383,18.383v48.567C51.214,153.897,59.436,162.12,69.583,162.133z M68.267,95.183
			c0.002-0.727,0.59-1.315,1.317-1.317h31.5c0.727,0.002,1.315,0.59,1.317,1.317v48.567c-0.002,0.727-0.59,1.315-1.317,1.317h-31.5
			c-0.727-0.002-1.315-0.59-1.317-1.317V95.183z"/>
		<path d="M154.917,162.133h31.5c10.147-0.014,18.37-8.236,18.383-18.383V95.183c-0.014-10.147-8.236-18.37-18.383-18.383h-31.5
			c-10.147,0.014-18.37,8.236-18.383,18.383v48.567C136.547,153.897,144.77,162.12,154.917,162.133z M153.6,95.183
			c0.002-0.727,0.59-1.315,1.317-1.317h31.5c0.727,0.002,1.315,0.59,1.317,1.317v48.567c-0.002,0.727-0.59,1.315-1.317,1.317h-31.5
			c-0.727-0.002-1.315-0.59-1.317-1.317V95.183z"/>
		<path d="M240.25,162.133h31.5c10.147-0.014,18.37-8.236,18.383-18.383V95.183c-0.014-10.147-8.236-18.37-18.383-18.383h-31.5
			c-10.147,0.014-18.37,8.236-18.383,18.383v48.567C221.88,153.897,230.103,162.12,240.25,162.133z M238.933,95.183
			c0.002-0.727,0.59-1.315,1.317-1.317h31.5c0.727,0.002,1.315,0.59,1.317,1.317v48.567c-0.002,0.727-0.59,1.315-1.317,1.317h-31.5
			c-0.727-0.002-1.315-0.59-1.317-1.317V95.183z"/>
	</g>
</g>
<g>
</g>
<g>
</g>
<g>
</g>
<g>
</g>
<g>
</g>
<g>
</g>
<g>
</g>
<g>
</g>
<g>
</g>
<g>
</g>
<g>
</g>
<g>
</g>
<g>
</g>
<g>
</g>
<g>
</g>
</svg>
