<?xml version="1.0" encoding="iso-8859-1"?>
<!-- Generator: Adobe Illustrator 19.0.0, SVG Export Plug-In . SVG Version: 6.00 Build 0)  -->
<svg version="1.1" id="Capa_1" xmlns="http://www.w3.org/2000/svg" xmlns:xlink="http://www.w3.org/1999/xlink" x="0px" y="0px"
	 viewBox="0 0 512 512" style="enable-background:new 0 0 512 512;" xml:space="preserve">
<g>
	<g transform="translate(1 1)">
		<polygon style="fill:#607D8B;" points="340.333,289.133 169.667,289.133 92.867,289.133 109.933,391.533 169.667,357.4 
			340.333,357.4 400.067,391.533 417.133,289.133 		"/>
		<path style="fill:#2E7D32;" d="M459.8,203.8H50.2l2.133-34.475l2.048-32.683l3.84-61.355c0.264-4.515,4.01-8.037,8.533-8.021
			h376.491c4.523-0.016,8.269,3.506,8.533,8.021l3.84,61.355l2.048,32.683L459.8,203.8z"/>
		<path style="fill:#4CAF50;" d="M50.2,203.8l2.133-34.475c-0.684,0.244-1.407,0.36-2.133,0.341H26.733v-0.341l2.048-32.683
			l0.085-1.109H50.2c1.466,0.002,2.907,0.384,4.181,1.109l3.84-61.355c0.264-4.515,4.01-8.037,8.533-8.021h350.891
			c4.523-0.016,8.269,3.506,8.533,8.021l3.84,61.355l2.048,32.683L434.2,203.8H50.2z"/>
		<g>
			<path style="fill:#02A9F4;" d="M229.4,109.933v51.2c0,4.713-3.82,8.533-8.533,8.533H101.4c-4.713,0-8.533-3.821-8.533-8.533
				v-51.2c0-4.713,3.82-8.533,8.533-8.533h119.467C225.58,101.4,229.4,105.221,229.4,109.933z"/>
			<path style="fill:#02A9F4;" d="M417.133,109.933v51.2c0,4.713-3.82,8.533-8.533,8.533H289.133c-4.713,0-8.533-3.821-8.533-8.533
				v-51.2c0-4.713,3.82-8.533,8.533-8.533H408.6C413.313,101.4,417.133,105.221,417.133,109.933z"/>
		</g>
		<path style="fill:#558B30;" d="M41.667,203.8h426.667c9.426,0,17.067,7.641,17.067,17.067v51.2
			c0,9.426-7.641,17.067-17.067,17.067H41.667c-9.426,0-17.067-7.641-17.067-17.067v-51.2C24.6,211.441,32.241,203.8,41.667,203.8z"
			/>
		<path style="fill:#8BC34A;" d="M41.667,203.8H434.2c9.426,0,17.067,7.641,17.067,17.067v51.2c0,9.426-7.641,17.067-17.067,17.067
			H41.667c-9.426,0-17.067-7.641-17.067-17.067v-51.2C24.6,211.441,32.241,203.8,41.667,203.8z"/>
		<g>
			<path style="fill:#37474F;" d="M109.933,289.133v136.533c-0.028,9.414-7.653,17.039-17.067,17.067H58.733
				c-9.414-0.028-17.039-7.652-17.067-17.067V289.133H109.933z"/>
			<path style="fill:#37474F;" d="M468.333,289.133v136.533c-0.028,9.414-7.653,17.039-17.067,17.067h-34.133
				c-9.414-0.028-17.039-7.652-17.067-17.067V289.133H468.333z"/>
		</g>
		<rect x="169.667" y="289.133" style="fill:#00695C;" width="170.667" height="68.267"/>
		<path style="fill:#8BC34A;" d="M58.733,144.067v17.067c0.006,3.878-2.636,7.259-6.4,8.192c-0.684,0.244-1.407,0.36-2.133,0.341
			H16.067c-4.707-0.014-8.519-3.826-8.533-8.533v-17.067c0.014-4.707,3.826-8.519,8.533-8.533H50.2
			c1.466,0.002,2.907,0.384,4.181,1.109C57.053,138.163,58.712,140.993,58.733,144.067z"/>
		<path style="fill:#558B30;" d="M459.8,135.533h34.133c4.713,0,8.533,3.821,8.533,8.533v17.067c0,4.713-3.821,8.533-8.533,8.533
			H459.8c-4.713,0-8.533-3.821-8.533-8.533v-17.067C451.267,139.354,455.087,135.533,459.8,135.533z"/>
		<g>
			<polygon style="fill:#00BCD4;" points="161.133,169.667 195.267,101.4 152.6,101.4 118.467,169.667 			"/>
			<polygon style="fill:#00BCD4;" points="348.867,169.667 383,101.4 340.333,101.4 306.2,169.667 			"/>
		</g>
	</g>
	<g>
		<path d="M221.867,179.2c9.421-0.012,17.054-7.646,17.067-17.067v-51.2c-0.012-9.421-7.646-17.054-17.067-17.067H102.4
			c-9.421,0.012-17.054,7.646-17.067,17.067v51.2c0.012,9.421,7.646,17.054,17.067,17.067H221.867z M133.269,162.146l25.606-51.212
			h23.583l-25.605,51.209L133.269,162.146z M221.867,162.133l-45.928,0.006l25.603-51.206h20.325V162.133z M102.4,110.933h37.392
			l-25.607,51.215L102.4,162.15V110.933z"/>
		<path d="M290.133,179.2H409.6c9.421-0.012,17.054-7.646,17.067-17.067v-51.2c-0.012-9.421-7.646-17.054-17.067-17.067H290.133
			c-9.421,0.012-17.054,7.646-17.067,17.067v51.2C273.079,171.554,280.713,179.188,290.133,179.2z M370.192,110.933l-25.605,51.209
			l-23.585,0.004l25.606-51.212H370.192z M409.6,162.133l-45.928,0.006l25.603-51.206H409.6V162.133z M290.133,110.933h37.392
			l-25.607,51.215l-11.785,0.002V110.933z"/>
		<path d="M68.267,256c2.27,0.022,4.453-0.87,6.058-2.475c1.605-1.605,2.497-3.788,2.475-6.058
			c-0.033-2.259-0.917-4.422-2.475-6.059c-0.831-0.752-1.783-1.358-2.817-1.792c-2.067-0.9-4.416-0.9-6.483,0
			c-2.143,0.777-3.831,2.465-4.608,4.608c-1.124,2.624-0.847,5.638,0.736,8.013C62.737,254.613,65.412,256.028,68.267,256z"/>
		<path d="M446.975,239.617c-2.067-0.9-4.416-0.9-6.483,0c-2.143,0.777-3.831,2.465-4.608,4.608
			c-1.337,3.189-0.615,6.87,1.829,9.317c2.443,2.447,6.123,3.175,9.315,1.843c3.191-1.332,5.261-4.461,5.24-7.919
			c-0.033-2.259-0.917-4.422-2.475-6.059C448.961,240.656,448.009,240.05,446.975,239.617z"/>
		<path d="M0,443.733c-0.001,2.264,0.897,4.435,2.498,6.035s3.772,2.499,6.035,2.498H307.2c4.713,0,8.533-3.82,8.533-8.533
			s-3.82-8.533-8.533-8.533H117.894c1.012-2.733,1.544-5.62,1.572-8.533v-29.182l53.465-30.551h166.138l53.465,30.551v29.182
			c0.029,2.914,0.561,5.801,1.573,8.533h-52.773c-4.713,0-8.533,3.82-8.533,8.533s3.82,8.533,8.533,8.533h162.133
			c4.713,0,8.533-3.82,8.533-8.533s-3.82-8.533-8.533-8.533h-27.172c1.012-2.733,1.544-5.62,1.572-8.533V297.094
			c10.199-3.592,17.033-13.215,17.067-24.028v-51.2c-0.015-14.132-11.468-25.585-25.6-25.6h-0.512l-1.056-17.067h27.168
			c9.421-0.012,17.054-7.646,17.067-17.067v-17.067c-0.012-9.421-7.646-17.054-17.067-17.067h-30.371l-3.271-52.175
			c-0.51-9.04-7.996-16.105-17.05-16.092H67.758c-9.032-0.02-16.51,7.009-17.05,16.025L47.437,128h-30.37
			C7.646,128.012,0.012,135.646,0,145.067v17.067c0.012,9.421,7.646,17.054,17.067,17.067h27.168l-1.056,17.067h-0.512
			c-14.132,0.015-25.585,11.468-25.6,25.6v51.2c0.033,10.813,6.868,20.435,17.067,24.027v129.573
			c0.029,2.914,0.561,5.801,1.573,8.533H8.533c-2.264-0.001-4.435,0.897-6.035,2.498S-0.001,441.47,0,443.733z M375.467,213.333
			V281.6H332.8v-42.667c0-4.713-3.82-8.533-8.533-8.533s-8.533,3.82-8.533,8.533V281.6h-17.067v-42.667
			c0-4.713-3.821-8.533-8.533-8.533c-4.713,0-8.533,3.82-8.533,8.533V281.6h-17.067v-42.667c0-4.713-3.821-8.533-8.533-8.533
			c-4.713,0-8.533,3.82-8.533,8.533V281.6H230.4v-42.667c0-4.713-3.821-8.533-8.533-8.533c-4.713,0-8.533,3.82-8.533,8.533V281.6
			h-17.067v-42.667c0-4.713-3.821-8.533-8.533-8.533c-4.713,0-8.533,3.82-8.533,8.533V281.6h-42.667v-68.267H375.467z
			 M119.467,298.667h42.667v54.782l-42.667,24.381V298.667z M332.8,349.867H179.2v-51.2h153.6V349.867z M349.867,353.449v-54.782
			h42.667v79.163L349.867,353.449z M418.133,435.2c-4.712-0.003-8.53-3.822-8.533-8.533V409.6h8.533
			c4.713,0,8.533-3.821,8.533-8.533c0-4.713-3.82-8.533-8.533-8.533H409.6v-17.067h8.533c4.713,0,8.533-3.821,8.533-8.533
			s-3.82-8.533-8.533-8.533H409.6v-17.067h8.533c4.713,0,8.533-3.82,8.533-8.533s-3.82-8.533-8.533-8.533H409.6v-25.6h51.2v25.6
			h-8.533c-4.713,0-8.533,3.82-8.533,8.533s3.82,8.533,8.533,8.533h8.533V358.4h-8.533c-4.713,0-8.533,3.82-8.533,8.533
			s3.82,8.533,8.533,8.533h8.533v17.067h-8.533c-4.713,0-8.533,3.821-8.533,8.533c0,4.713,3.82,8.533,8.533,8.533h8.533v17.067
			c-0.003,4.712-3.822,8.53-8.533,8.533H418.133z M477.867,221.867v51.2c-0.003,4.712-3.822,8.53-8.533,8.533h-76.8v-68.267h76.8
			C474.045,213.337,477.864,217.155,477.867,221.867z M494.933,162.133H460.8v-17.067h34.133V162.133z M17.067,145.067H51.2v17.067
			H17.067V145.067z M61.556,175.603c4.212-3.2,6.693-8.18,6.711-13.47v-17.067c-0.017-4.032-1.475-7.925-4.11-10.977l3.602-57.29
			l376.5,0.025l3.586,57.264c-2.636,3.052-4.094,6.946-4.111,10.978v17.067c0.018,5.29,2.499,10.27,6.711,13.47l1.281,20.664H60.275
			L61.556,175.603z M34.133,221.867c0.003-4.712,3.822-8.53,8.533-8.533h76.8V281.6h-76.8c-4.712-0.003-8.53-3.822-8.533-8.533
			V221.867z M51.2,426.667V409.6h8.533c4.713,0,8.533-3.821,8.533-8.533c0-4.713-3.821-8.533-8.533-8.533H51.2v-17.067h8.533
			c4.713,0,8.533-3.821,8.533-8.533s-3.821-8.533-8.533-8.533H51.2v-17.067h8.533c4.713,0,8.533-3.82,8.533-8.533
			s-3.821-8.533-8.533-8.533H51.2v-25.6h51.2v25.6h-8.533c-4.713,0-8.533,3.82-8.533,8.533s3.821,8.533,8.533,8.533h8.533V358.4
			h-8.533c-4.713,0-8.533,3.82-8.533,8.533s3.821,8.533,8.533,8.533h8.533v17.067h-8.533c-4.713,0-8.533,3.821-8.533,8.533
			c0,4.713,3.821,8.533,8.533,8.533h8.533v17.067c-0.003,4.712-3.822,8.53-8.533,8.533H59.733
			C55.022,435.197,51.203,431.378,51.2,426.667z"/>
	</g>
</g>
<g>
</g>
<g>
</g>
<g>
</g>
<g>
</g>
<g>
</g>
<g>
</g>
<g>
</g>
<g>
</g>
<g>
</g>
<g>
</g>
<g>
</g>
<g>
</g>
<g>
</g>
<g>
</g>
<g>
</g>
</svg>
