<?xml version="1.0" encoding="iso-8859-1"?>
<!-- Generator: Adobe Illustrator 19.0.0, SVG Export Plug-In . SVG Version: 6.00 Build 0)  -->
<svg version="1.1" id="Capa_1" xmlns="http://www.w3.org/2000/svg" xmlns:xlink="http://www.w3.org/1999/xlink" x="0px" y="0px"
	 viewBox="0 0 512 512" style="enable-background:new 0 0 512 512;" xml:space="preserve">
<g transform="translate(-1)">
	<g transform="translate(1)">
		<g>
			<rect x="179.202" y="59.733" style="fill:#3F5C6C;" width="153.6" height="102.4"/>
			<g>
				<polygon style="fill:#607D8B;" points="307.202,59.733 307.202,162.133 153.602,162.133 153.602,145.067 179.202,145.067 
					179.202,76.8 153.602,76.8 153.602,59.733 				"/>
				<path style="fill:#607D8B;" d="M392.535,290.389c0,117.675-61.184,213.077-136.619,213.077c-4.284-0.009-8.561-0.323-12.8-0.939
					c-69.291-10.069-123.648-101.205-123.648-212.139c-0.77-48.921,10.855-97.241,33.792-140.459
					c0.086-0.162,0.202-0.307,0.341-0.427c1.77-2.806,4.875-4.487,8.192-4.437h188.331c3.557-0.033,6.854,1.861,8.619,4.949
					C381.65,193.214,393.274,241.499,392.535,290.389z"/>
				<path style="fill:#607D8B;" d="M364.29,19.115l-12.8,51.2c-0.927,3.816-4.35,6.498-8.277,6.485H168.791
					c-3.927,0.013-7.351-2.669-8.277-6.485l-12.8-51.2c-0.638-2.547-0.065-5.246,1.552-7.314c1.618-2.068,4.099-3.274,6.725-3.267
					h200.021c2.626-0.006,5.107,1.199,6.725,3.267C364.355,13.869,364.928,16.568,364.29,19.115z"/>
			</g>
			<g>
				<path style="fill:#CFD8DC;" d="M366.935,290.389c0,110.933-54.357,202.069-123.819,212.139
					c-69.291-10.069-123.648-101.205-123.648-212.139c-0.77-48.921,10.855-97.241,33.792-140.459
					c0.086-0.162,0.202-0.307,0.341-0.427v-4.437h170.923c3.331-0.014,6.445,1.655,8.277,4.437c0.143,0.15,0.258,0.323,0.341,0.512
					C356.05,193.214,367.674,241.499,366.935,290.389z"/>
				<path style="fill:#CFD8DC;" d="M338.69,19.115l-12.8,51.2c-0.927,3.816-4.35,6.498-8.277,6.485H153.602V59.733h4.267
					l-10.155-40.619c-0.638-2.547-0.065-5.246,1.552-7.314c1.618-2.068,4.099-3.274,6.725-3.267h174.421
					c0.818-0.032,1.633,0.113,2.389,0.427C337.203,10.176,339.821,14.691,338.69,19.115z"/>
			</g>
		</g>
		<path style="fill:#FF9801;" d="M256.002,213.333c-38.4,25.829-76.8,78.055-76.8,128.229c0,42.415,34.385,76.8,76.8,76.8
			s76.8-34.385,76.8-76.8C332.802,291.389,240.642,277.447,256.002,213.333z"/>
		<path style="fill:#FEC108;" d="M256.002,307.2c21.333,13.991,42.667,42.28,42.667,69.457
			c-0.653,23.094-19.563,41.477-42.667,41.477s-42.013-18.383-42.667-41.477C213.335,349.48,264.535,341.928,256.002,307.2z"/>
	</g>
	<g>
		<path d="M301.827,281.7c-22.517-18.567-43.775-36.1-36.525-66.375c0.819-3.419-0.542-6.991-3.43-8.997
			c-2.887-2.007-6.709-2.037-9.629-0.078c-40.042,26.933-80.575,82.05-80.575,135.308c0.13,44.968,35.168,82.102,80.053,84.842
			c3.512,0.356,7.05,0.356,10.562,0c44.885-2.74,79.922-39.874,80.053-84.842C342.335,315.108,321.743,298.125,301.827,281.7z
			 M222.868,376.658c0-8.058,8.158-14.617,17.6-22.208c11.022-7.204,19.613-17.567,24.65-29.733
			c14.092,13.717,26.017,33.45,26.017,51.942c-0.654,18.379-15.743,32.941-34.133,32.941S223.522,395.037,222.868,376.658z
			 M306.851,387.893c0.885-3.68,1.338-7.45,1.35-11.235c0-31.659-24.117-61.9-46.517-76.592c-2.932-1.925-6.743-1.859-9.607,0.165
			c-2.864,2.025-4.197,5.595-3.36,9.001c3.25,13.25-5.083,20.758-18.95,31.917c-11.233,9.033-23.967,19.275-23.967,35.508
			c0.013,3.785,0.466,7.555,1.35,11.235c-11.819-12.534-18.407-29.107-18.417-46.335c0-40.783,27.325-83.167,58.117-109.717
			c2.058,28.342,24.175,46.583,44.117,63.025c17.633,14.55,34.3,28.292,34.3,46.692C325.258,358.786,318.67,375.36,306.851,387.893z
			"/>
		<path d="M162.827,136.533c-6.613-0.034-12.73,3.502-16,9.25c-23.596,44.496-35.596,94.222-34.892,144.583
			C111.935,412.575,176.993,512,256.952,512c80.017,0,145.117-99.425,145.117-221.633c0.663-50.354-11.338-100.068-34.9-144.575
			c-3.273-5.746-9.387-9.284-16-9.259h-8.833v-51.2h1.867c7.837,0.011,14.671-5.327,16.558-12.933l12.809-51.2
			c1.27-5.099,0.121-10.499-3.115-14.639C367.218,2.42,362.256,0,357.002,0h-200c-5.255-0.001-10.217,2.419-13.451,6.56
			c-3.235,4.141-4.381,9.542-3.107,14.64l12.8,51.2c1.888,7.606,8.721,12.944,16.558,12.933h1.867v51.2H162.827z M352.285,154.142
			c22.141,41.952,33.391,88.793,32.717,136.225c0,112.8-57.442,204.567-128.05,204.567c-70.55,0-127.95-91.767-127.95-204.567
			c-0.713-47.439,10.539-94.292,32.717-136.233c0.253-0.356,0.672-0.557,1.108-0.533h188.342
			C351.608,153.579,352.029,153.783,352.285,154.142z M169.793,68.267l-12.791-51.2h23.2v17.067c0,4.713,3.82,8.533,8.533,8.533
			s8.533-3.821,8.533-8.533V17.067h17.067v17.067c0,4.713,3.821,8.533,8.533,8.533c4.713,0,8.533-3.821,8.533-8.533V17.067h17.067
			v17.067c0,4.713,3.821,8.533,8.533,8.533s8.533-3.821,8.533-8.533V17.067h17.067v17.067c0,4.713,3.82,8.533,8.533,8.533
			s8.533-3.821,8.533-8.533V17.067h17.067v17.067c0,4.713,3.82,8.533,8.533,8.533s8.533-3.821,8.533-8.533V17.067h23.208
			l-12.8,51.191l-0.009,0.009H169.793z M188.735,85.333h136.533v51.2h-25.6v-25.6c0-4.713-3.82-8.533-8.533-8.533
			s-8.533,3.821-8.533,8.533v25.6h-17.067v-25.6c0-4.713-3.82-8.533-8.533-8.533s-8.533,3.821-8.533,8.533v25.6h-17.067v-25.6
			c0-4.713-3.821-8.533-8.533-8.533c-4.713,0-8.533,3.821-8.533,8.533v25.6h-25.6V85.333z"/>
	</g>
</g>
<g>
</g>
<g>
</g>
<g>
</g>
<g>
</g>
<g>
</g>
<g>
</g>
<g>
</g>
<g>
</g>
<g>
</g>
<g>
</g>
<g>
</g>
<g>
</g>
<g>
</g>
<g>
</g>
<g>
</g>
</svg>
