<?xml version="1.0" encoding="iso-8859-1"?>
<!-- Generator: Adobe Illustrator 19.0.0, SVG Export Plug-In . SVG Version: 6.00 Build 0)  -->
<svg version="1.1" id="Capa_1" xmlns="http://www.w3.org/2000/svg" xmlns:xlink="http://www.w3.org/1999/xlink" x="0px" y="0px"
	 viewBox="0 0 512.002 512.002" style="enable-background:new 0 0 512.002 512.002;" xml:space="preserve">
<g>
	<g transform="translate(1 12)">
		<path style="fill:#607D8B;" d="M356.075,281.077l81.536-81.451c3.112-3.077,4.864-7.271,4.864-11.648s-1.752-8.571-4.864-11.648
			l-0.085-0.085c-6.413-6.4-16.797-6.4-23.211,0l-80.811,80.555L356.075,281.077z"/>
		<path style="fill:#37474F;" d="M382.998,307.999v17.067H263.531v-51.2c0.027-9.414,7.652-17.039,17.067-17.067h66.219
			c6.476,0.003,12.393,3.672,15.275,9.472l2.987,5.888L382.998,307.999z"/>
		<g>
			<path style="fill:#607D8B;" d="M357.398,307.999v17.067H237.931v-17.067h25.6v-34.133c0.027-9.414,7.652-17.039,17.067-17.067
				h40.619c6.476,0.003,12.393,3.672,15.275,9.472L357.398,307.999z"/>
			<path style="fill:#607D8B;" d="M135.531,128.799h17.067c14.138,0,25.6,11.462,25.6,25.6v68.267h-68.267v-68.267
				C109.931,140.261,121.393,128.799,135.531,128.799z"/>
		</g>
		<path style="fill:#37474F;" d="M212.331,231.199l0,93.867H75.798l0-93.867c-0.009-6.792,2.685-13.309,7.488-18.112
			c4.803-4.803,11.32-7.497,18.112-7.488h85.333c6.792-0.009,13.309,2.685,18.112,7.488
			C209.646,217.89,212.34,224.407,212.331,231.199z"/>
		<g>
			<path style="fill:#607D8B;" d="M186.731,231.199v93.867H50.198v-17.067h25.6v-76.8c-0.009-6.792,2.685-13.309,7.488-18.112
				c4.803-4.803,11.32-7.497,18.112-7.488h59.733C175.248,205.651,186.68,217.082,186.731,231.199z"/>
			<path style="fill:#607D8B;" d="M502.465,307.999c0,0-88.747,23.381-101.205,129.877c-0.085,0.341-0.085,0.683-0.171,1.024
				c-0.499,2.907-1.733,5.639-3.584,7.936c-2.58-0.599-5.117-1.369-7.595-2.304h-0.085c-7.394-2.871-15.28-4.263-23.211-4.096
				c-5.48,0.084-10.927,0.858-16.213,2.304h-0.171c-1.792,0.512-3.499,1.109-5.291,1.792h-0.085
				c-12.649,4.761-26.481,5.388-39.509,1.792h-0.085c-1.792-0.512-3.584-1.109-5.376-1.792h-0.085
				c-12.619-4.763-26.425-5.39-39.424-1.792h-0.171c-1.792,0.512-3.499,1.109-5.291,1.792h-0.085
				c-12.619,4.763-26.425,5.39-39.424,1.792h-0.171c-1.793-0.508-3.559-1.106-5.291-1.792h-0.085
				c-12.619-4.763-26.425-5.39-39.424-1.792h-0.171c-1.793,0.507-3.559,1.105-5.291,1.792h-0.085
				c-12.649,4.762-26.482,5.389-39.509,1.792h-0.085c-1.792-0.512-3.584-1.109-5.376-1.792c-12.649-4.762-26.482-5.389-39.509-1.792
				H80.32c-1.792,0.512-3.584,1.109-5.376,1.792c-4.079,1.538-8.314,2.626-12.629,3.243c-1.554-1.491-2.775-3.294-3.584-5.291
				l-0.768-1.792l-0.341-0.853L8.214,319.775c-1.09-2.625-0.797-5.621,0.779-7.985s4.229-3.787,7.071-3.791H502.465z"/>
		</g>
		<path style="fill:#CFD8DC;" d="M468.331,307.999c0,0-85.333,22.528-100.352,123.819c-0.341,1.963-0.597,4.011-0.853,6.059
			c-0.088,0.868-0.26,1.725-0.512,2.56c-0.644,2.328-1.746,4.504-3.243,6.4c-2.58-0.599-5.117-1.369-7.595-2.304h-0.085
			c-1.792-0.683-3.499-1.28-5.291-1.792h-0.171c-12.994-3.641-26.814-3.013-39.424,1.792h-0.085
			c-1.792,0.682-3.584,1.28-5.376,1.792h-0.085c-7.302,1.997-14.9,2.69-22.443,2.048h-0.512c-1.365-0.085-2.816-0.341-4.181-0.512
			c-4.227-0.687-8.372-1.802-12.373-3.328h-0.085c-1.792-0.683-3.499-1.28-5.291-1.792h-0.171
			c-5.804-1.619-11.81-2.395-17.835-2.304c-0.853,0-1.792,0-2.731,0.085c-0.914,0.039-1.825,0.124-2.731,0.256
			c-5.519,0.53-10.943,1.792-16.128,3.755h-0.085c-1.732,0.686-3.498,1.284-5.291,1.792h-0.171
			c-7.273,2.001-14.843,2.694-22.358,2.048h-0.512c-1.365-0.085-2.816-0.341-4.181-0.512c-4.226-0.687-8.372-1.802-12.373-3.328
			h-0.085c-1.792-0.683-3.499-1.28-5.291-1.792h-0.171c-7.469-2.039-15.242-2.733-22.955-2.048
			c-1.365,0.085-2.816,0.341-4.181,0.512c-4.199,0.687-8.316,1.803-12.288,3.328h-0.085c-1.792,0.682-3.584,1.28-5.376,1.792h-0.085
			c-5.56,1.53-11.3,2.305-17.067,2.304c-0.344,0.014-0.688-0.015-1.024-0.085c-1.792,0-3.584-0.085-5.461-0.256
			c-5.462-0.54-10.828-1.802-15.957-3.755c-1.792-0.683-3.584-1.28-5.376-1.792H80.32c-5.531-1.53-11.243-2.305-16.981-2.304
			c-1.792,0-3.584,0.085-5.376,0.256c-5.87,0.465-11.644,1.758-17.152,3.84c-4.079,1.538-8.314,2.626-12.629,3.243
			c-1.554-1.491-2.775-3.294-3.584-5.291l-4.437-10.752l12.885,4.864c7.839,2.934,16.244,4.043,24.576,3.243L8.214,319.775
			c-1.09-2.625-0.797-5.621,0.779-7.985s4.229-3.787,7.071-3.791H468.331z"/>
		<g>
			<path style="fill:#F44335;" d="M101.398,350.666h17.067c4.713,0,8.533,3.82,8.533,8.533v34.133c0,4.713-3.82,8.533-8.533,8.533
				h-17.067c-4.713,0-8.533-3.82-8.533-8.533v-34.133C92.864,354.487,96.685,350.666,101.398,350.666z"/>
			<path style="fill:#F44335;" d="M169.664,350.666h17.067c4.713,0,8.533,3.82,8.533,8.533v34.133c0,4.713-3.821,8.533-8.533,8.533
				h-17.067c-4.713,0-8.533-3.82-8.533-8.533v-34.133C161.131,354.487,164.952,350.666,169.664,350.666z"/>
			<path style="fill:#F44335;" d="M237.931,350.666h17.067c4.713,0,8.533,3.82,8.533,8.533v34.133c0,4.713-3.82,8.533-8.533,8.533
				h-17.067c-4.713,0-8.533-3.82-8.533-8.533v-34.133C229.398,354.487,233.218,350.666,237.931,350.666z"/>
			<path style="fill:#F44335;" d="M306.198,350.666h17.067c4.713,0,8.533,3.82,8.533,8.533v34.133c0,4.713-3.82,8.533-8.533,8.533
				h-17.067c-4.713,0-8.533-3.82-8.533-8.533v-34.133C297.664,354.487,301.485,350.666,306.198,350.666z"/>
		</g>
	</g>
	<g>
		<path d="M102.398,422.399h17.067c9.421-0.011,17.056-7.645,17.067-17.067v-34.133c-0.011-9.421-7.645-17.056-17.067-17.067
			h-17.067c-9.421,0.011-17.056,7.645-17.067,17.067v34.133C85.342,414.754,92.977,422.389,102.398,422.399z M102.398,371.199
			h17.067l0.012,34.133h-17.079V371.199z"/>
		<path d="M170.664,422.399h17.067c9.421-0.011,17.056-7.645,17.067-17.067v-34.133c-0.011-9.421-7.645-17.056-17.067-17.067
			h-17.067c-9.421,0.011-17.056,7.645-17.067,17.067v34.133C153.609,414.754,161.243,422.389,170.664,422.399z M170.664,371.199
			h17.067l0.012,34.133h-17.079V371.199z"/>
		<path d="M238.931,422.399h17.067c9.421-0.011,17.056-7.645,17.067-17.067v-34.133c-0.011-9.421-7.645-17.056-17.067-17.067
			h-17.067c-9.421,0.011-17.056,7.645-17.067,17.067v34.133C221.875,414.754,229.51,422.389,238.931,422.399z M238.931,371.199
			h17.067l0.012,34.133h-17.079V371.199z"/>
		<path d="M307.198,422.399h17.067c9.421-0.011,17.056-7.645,17.067-17.067v-34.133c-0.011-9.421-7.645-17.056-17.067-17.067
			h-17.067c-9.421,0.011-17.056,7.645-17.067,17.067v34.133C290.142,414.754,297.777,422.389,307.198,422.399z M307.198,371.199
			h17.067l0.012,34.133h-17.079V371.199z"/>
		<path d="M11.56,440.024c-2.849-1.082-6.059-0.562-8.421,1.364s-3.517,4.966-3.029,7.975c0.487,3.009,2.543,5.529,5.392,6.611
			l22.504,8.542c16.428,6.247,34.578,6.244,51.004-0.009c12.255-4.701,25.794-4.819,38.129-0.333
			c0.258,0.125,0.521,0.242,0.787,0.341c16.443,6.245,34.607,6.238,51.046-0.017c12.544-4.764,26.402-4.752,38.938,0.033
			c16.446,6.231,34.604,6.219,51.042-0.033c12.547-4.764,26.407-4.752,38.946,0.033c16.443,6.231,34.599,6.219,51.033-0.033
			c12.558-4.768,26.43-4.756,38.979,0.033c16.467,6.238,34.65,6.22,51.104-0.05c12.501-4.746,26.307-4.746,38.808,0l22.617,8.567
			c2.852,1.081,6.064,0.558,8.426-1.372s3.515-4.973,3.025-7.983c-0.49-3.01-2.549-5.531-5.401-6.611l-22.617-8.567
			c-16.462-6.228-34.637-6.205-51.083,0.067c-7.108,2.634-14.688,3.756-22.254,3.296c0.055-0.341,0.153-0.669,0.196-1.012
			c11.6-99.142,91.533-121.708,94.908-122.617c4.148-1.092,6.841-5.094,6.289-9.348c-0.551-4.254-4.175-7.437-8.465-7.435H389.273
			l-12.837-25.674l68.17-68.092c9.792-9.754,9.827-25.598,0.08-35.396c-9.748-9.798-25.591-9.845-35.396-0.104l-78.309,78.067
			h-49.383c-14.132,0.015-25.585,11.468-25.6,25.6v25.6h-34.133v-68.267c-0.02-18.843-15.29-34.113-34.133-34.133v-42.667
			c-0.02-18.843-15.29-34.113-34.133-34.133v-17.067h34.133c4.713,0,8.533-3.821,8.533-8.533s-3.821-8.533-8.533-8.533h-34.133
			V81.066h17.067c4.713,0,8.533-3.821,8.533-8.533s-3.82-8.533-8.533-8.533h-17.067V46.933c0-4.713-3.821-8.533-8.533-8.533
			s-8.533,3.821-8.533,8.533v17.067h-17.067c-4.713,0-8.533,3.821-8.533,8.533s3.821,8.533,8.533,8.533h17.067v17.067h-34.133
			c-4.713,0-8.533,3.821-8.533,8.533s3.821,8.533,8.533,8.533h34.133v17.067c-18.843,0.02-34.113,15.29-34.133,34.133v42.667
			c-18.843,0.02-34.113,15.29-34.133,34.133v68.267h-51.2c-5.689,0.003-11.002,2.845-14.163,7.575
			c-3.161,4.73-3.753,10.726-1.579,15.983l48.06,116.733c-5.234-0.323-10.394-1.398-15.322-3.191L11.56,440.024z M421.348,194.274
			c1.508-1.486,3.548-2.308,5.665-2.283c2.117,0.025,4.137,0.895,5.61,2.416c1.495,1.478,2.333,3.494,2.325,5.596
			c-0.008,2.102-0.861,4.112-2.367,5.579L367.97,270.12c-3.434-4.433-8.242-7.6-13.67-9.004L421.348,194.274z M273.064,285.866
			c0.005-4.711,3.822-8.529,8.533-8.533h66.254c3.234-0.01,6.192,1.819,7.629,4.717l14.709,29.417h-97.125V285.866z
			 M119.464,166.399c0.011-9.421,7.645-17.056,17.067-17.067h17.067c9.421,0.011,17.056,7.645,17.067,17.067v42.667h-51.2V166.399z
			 M85.331,243.199c0.011-9.421,7.645-17.056,17.067-17.067h85.333c9.421,0.011,17.056,7.645,17.067,17.067v68.267H85.331V243.199z
			 M76.798,328.533h389.4c-41.334,26.705-68.036,70.985-72.366,120.004c-16.437-6.238-34.591-6.227-51.021,0.029
			c-12.547,4.764-26.407,4.752-38.946-0.033c-16.444-6.231-34.602-6.219-51.038,0.033c-12.544,4.764-26.402,4.752-38.938-0.033
			c-16.444-6.231-34.602-6.219-51.038,0.033c-12.251,4.69-25.783,4.805-38.113,0.325c-0.258-0.125-0.521-0.242-0.792-0.341
			c-16.428-6.247-34.578-6.244-51.004,0.009c-1.889,0.642-3.812,1.178-5.76,1.608L17.064,328.533H76.798z"/>
	</g>
</g>
<g>
</g>
<g>
</g>
<g>
</g>
<g>
</g>
<g>
</g>
<g>
</g>
<g>
</g>
<g>
</g>
<g>
</g>
<g>
</g>
<g>
</g>
<g>
</g>
<g>
</g>
<g>
</g>
<g>
</g>
</svg>
