<?xml version="1.0" encoding="iso-8859-1"?>
<!-- Generator: Adobe Illustrator 19.0.0, SVG Export Plug-In . SVG Version: 6.00 Build 0)  -->
<svg version="1.1" id="Capa_1" xmlns="http://www.w3.org/2000/svg" xmlns:xlink="http://www.w3.org/1999/xlink" x="0px" y="0px"
	 viewBox="0 0 512 512" style="enable-background:new 0 0 512 512;" xml:space="preserve">
<g>
	<g transform="translate(1 1)">
		<g>
			<path style="fill:#37474F;" d="M391.533,67.267v17.067h-25.6V67.267c0-31.147-54.272-56.661-123.733-59.477
				c4.181-0.171,8.448-0.256,12.8-0.256C330.435,7.533,391.533,34.243,391.533,67.267z"/>
			<path style="fill:#37474F;" d="M391.533,219.331v197.803H184.003c17.71-10.307,37.715-16.027,58.197-16.64
				c-4.181-0.256-8.448-0.427-12.8-0.427c-24.792-1.022-49.378,4.888-70.997,17.067h-39.936c0-23.637,31.317-44.032,76.8-53.76
				h119.467c17.991,3.461,35.289,9.862,51.2,18.944V233.24l-17.067,4.693v-6.997l17.067-4.608L391.533,219.331z"/>
		</g>
		<g>
			<path style="fill:#607D8B;" d="M348.867,237.933l17.067-4.693v149.077c-15.911-9.082-33.209-15.483-51.2-18.944V229.4
				c-0.027-9.414-7.652-17.039-17.067-17.067h-85.333c-9.414,0.028-17.039,7.652-17.067,17.067v133.973
				c-45.483,9.728-76.8,30.123-76.8,53.76V226.328l42.667,11.605v-153.6h-42.667V67.267c0-31.147,54.272-56.661,123.733-59.477
				c69.461,2.816,123.733,28.331,123.733,59.477v17.067h-17.067V237.933z"/>
			<path style="fill:#607D8B;" d="M365.933,382.317v34.816H184.003c17.71-10.307,37.715-16.027,58.197-16.64
				c-4.181-0.256-8.448-0.427-12.8-0.427c-24.792-1.022-49.378,4.888-70.997,17.067h-39.936c0-23.637,31.317-44.032,76.8-53.76
				h119.467C332.724,366.835,350.022,373.235,365.933,382.317z"/>
			<polygon style="fill:#607D8B;" points="365.933,226.328 365.933,233.24 348.867,237.933 348.867,230.936 			"/>
		</g>
		<path style="fill:#F4F4F4;" d="M161.133,84.333v153.6l-42.667-11.605l-25.6-6.997l-13.056-3.584
			c-7.411-2.041-12.546-8.782-12.544-16.469V101.4c0.028-9.414,7.652-17.039,17.067-17.067H161.133z"/>
		<path style="fill:#9E9E9E;" d="M442.733,101.4v97.877c0.002,7.687-5.133,14.428-12.544,16.469l-38.656,10.581l-25.6,6.912
			l-17.067,4.693v-6.997l17.067-4.608l25.6-6.997l13.056-3.584c7.411-2.041,12.546-8.782,12.544-16.469V101.4
			c-0.028-9.414-7.652-17.039-17.067-17.067h25.6C435.081,84.361,442.706,91.986,442.733,101.4z"/>
		<g>
			<path style="fill:#F4F4F4;" d="M417.133,101.4v97.877c0.002,7.687-5.133,14.428-12.544,16.469l-13.056,3.584l-25.6,6.997
				l-17.067,4.608V84.333h51.2C409.481,84.361,417.106,91.986,417.133,101.4z"/>
			<path style="fill:#F4F4F4;" d="M314.733,229.4v133.973H195.267V229.4c0.028-9.414,7.652-17.039,17.067-17.067h85.333
				C307.081,212.361,314.706,219.986,314.733,229.4z"/>
		</g>
		<g>
			<path style="fill:#4E342E;" d="M365.933,382.317c-15.911-9.082-33.209-15.483-51.2-18.944H195.267
				c-45.483,9.728-76.8,30.123-76.8,53.76c0,16.213,14.677,30.891,38.571,41.643c-7.382-4.244-12.225-11.827-12.971-20.309
				c0.933-9.053,6.306-17.049,14.336-21.333c21.619-12.179,46.205-18.089,70.997-17.067c4.352,0,8.619,0.171,12.8,0.427
				c-20.482,0.613-40.487,6.333-58.197,16.64c-8.03,4.284-13.403,12.28-14.336,21.333c0,15.701,21.077,29.269,51.2,35.157v-22.357
				c0-9.387,15.275-17.067,34.133-17.067s34.133,7.68,34.133,17.067v14.677c15.787-6.997,25.6-16.725,25.6-27.477
				c-0.933-9.053-6.306-17.049-14.336-21.333h25.6c8.03,4.284,13.403,12.28,14.336,21.333c-0.701,8.249-5.298,15.668-12.373,19.968
				c-0.085,0-0.085,0.085-0.171,0.085c-10.908,7.281-23.193,12.247-36.096,14.592v0.085l-2.56,0.512h-9.387
				c0.805,0.357,1.576,0.785,2.304,1.28h7.083c1.963-0.256,3.925-0.427,5.803-0.768c55.893-7.424,96.597-30.123,96.597-57.088
				C391.533,404.077,382.061,392.045,365.933,382.317z"/>
			<path style="fill:#4E342E;" d="M340.333,438.467c-0.701,8.249-5.298,15.668-12.373,19.968c-0.085,0-0.085,0.085-0.171,0.085
				c-10.908,7.281-23.193,12.247-36.096,14.592v0.085l-2.56,0.512h-9.387c-0.494-0.29-1.008-0.547-1.536-0.768h-0.085
				c-1.306-0.701-2.678-1.273-4.096-1.707c5.147-1.425,10.193-3.192,15.104-5.291c15.787-6.997,25.6-16.725,25.6-27.477
				c-0.933-9.053-6.306-17.049-14.336-21.333h25.6C334.027,421.417,339.4,429.414,340.333,438.467z"/>
		</g>
		<path style="fill:#795548;" d="M220.867,473.624v1.365c-3.413-0.427-6.741-0.853-10.069-1.365
			c-18.504-2.519-36.586-7.513-53.76-14.848c-7.382-4.244-12.225-11.827-12.971-20.309c0.933-9.053,6.306-17.049,14.336-21.333
			c21.619-12.179,46.205-18.089,70.997-17.067c4.352,0,8.619,0.171,12.8,0.427c-20.482,0.613-40.487,6.333-58.197,16.64
			c-8.03,4.284-13.403,12.28-14.336,21.333C169.667,454.168,190.744,467.736,220.867,473.624z"/>
		<path style="fill:#4E342E;" d="M314.733,438.467c0,10.752-9.813,20.48-25.6,27.477v-14.677c0-9.387-15.275-17.067-34.133-17.067
			s-34.133,7.68-34.133,17.067v22.357c-30.123-5.888-51.2-19.456-51.2-35.157c0.933-9.053,6.306-17.049,14.336-21.333
			c17.71-10.307,37.715-16.027,58.197-16.64h0.341c4.096-0.256,8.192-0.427,12.459-0.427c24.792-1.022,49.378,4.888,70.997,17.067
			h-25.6C308.427,421.417,313.8,429.414,314.733,438.467z"/>
		<g>
			<path style="fill:#795548;" d="M365.933,417.133c0,16.043-14.421,30.635-37.973,41.301c7.075-4.3,11.672-11.719,12.373-19.968
				c-0.933-9.053-6.306-17.049-14.336-21.333h-25.6c8.03,4.284,13.403,12.28,14.336,21.333c0,10.752-9.813,20.48-25.6,27.477
				v-14.677c0-9.387-15.275-17.067-34.133-17.067s-34.133,7.68-34.133,17.067v22.357c-30.123-5.888-51.2-19.456-51.2-35.157
				c0.933-9.053,6.306-17.049,14.336-21.333c17.71-10.307,37.715-16.027,58.197-16.64c-4.181-0.256-8.448-0.427-12.8-0.427
				c-24.792-1.022-49.378,4.888-70.997,17.067c-8.03,4.284-13.403,12.28-14.336,21.333c0.745,8.482,5.588,16.066,12.971,20.309
				c-23.893-10.752-38.571-25.429-38.571-41.643c0-23.637,31.317-44.032,76.8-53.76h93.781
				C334.531,373.016,365.933,393.496,365.933,417.133z"/>
			<path style="fill:#795548;" d="M314.733,438.467c0,10.752-9.813,20.48-25.6,27.477v-14.677c0-9.387-15.275-17.067-34.133-17.067
				s-34.133,7.68-34.133,17.067v22.357c-30.123-5.888-51.2-19.456-51.2-35.157c0.933-9.053,6.306-17.049,14.336-21.333
				c17.71-10.307,37.715-16.027,58.197-16.64h0.341c20.369,0.648,40.255,6.367,57.856,16.64
				C308.427,421.417,313.8,429.414,314.733,438.467z"/>
		</g>
		<g>
			<path style="fill:#C52828;" d="M289.133,451.267v14.677c-4.911,2.099-9.957,3.866-15.104,5.291h-0.171
				c-6.083-2.002-12.455-2.982-18.859-2.901c-8.52-0.182-16.965,1.63-24.661,5.291c-0.023,0-0.045,0.008-0.061,0.024
				c-0.016,0.016-0.025,0.038-0.024,0.061c-0.853,0.427-1.621,0.853-2.304,1.28c-3.978,2.04-6.646,5.962-7.083,10.411v-34.133
				c0-9.387,15.275-17.067,34.133-17.067S289.133,441.88,289.133,451.267z"/>
			<path style="fill:#C52828;" d="M279.747,473.709h9.387V485.4c-0.436-4.449-3.105-8.371-7.083-10.411
				C281.323,474.495,280.551,474.066,279.747,473.709z"/>
		</g>
		<path style="fill:#F44335;" d="M289.133,485.4c0,9.387-15.275,17.067-34.133,17.067s-34.133-7.68-34.133-17.067
			c0.436-4.449,3.105-8.371,7.083-10.411c0.682-0.427,1.45-0.853,2.304-1.28c0-0.023,0.008-0.045,0.024-0.061
			c0.016-0.016,0.038-0.025,0.061-0.024c7.696-3.661,16.141-5.473,24.661-5.291c6.403-0.081,12.776,0.899,18.859,2.901h0.171
			c1.418,0.434,2.79,1.006,4.096,1.707h0.085c0.529,0.221,1.042,0.478,1.536,0.768c0.805,0.357,1.576,0.785,2.304,1.28
			C286.029,477.029,288.697,480.951,289.133,485.4z"/>
	</g>
	<path d="M256,512c24.325,0,42.667-11.008,42.667-25.6v-2.963c62.247-8.616,102.4-34.151,102.4-65.304V233.818L433.404,225
		c11.125-3.056,18.843-13.162,18.863-24.7v-97.9c-0.015-14.132-11.468-25.585-25.6-25.6h-25.6v-8.533
		C401.067,29.983,337.346,0,256,0S110.933,29.983,110.933,68.267V76.8h-25.6c-14.132,0.015-25.585,11.468-25.6,25.6v97.9
		c0.02,11.538,7.737,21.643,18.863,24.7l32.338,8.818v184.316c0,30.978,40.859,56.749,102.4,65.327v2.94
		C213.333,500.992,231.675,512,256,512z M230.4,452.267c0-2.125,9.079-8.533,25.6-8.533c16.521,0,25.6,6.409,25.6,8.533v13.478
		c-16.43-6.593-34.77-6.593-51.2,0V452.267z M298.667,463.823v-11.556c0-14.592-18.342-25.6-42.667-25.6s-42.667,11.008-42.667,25.6
		v11.587c-22.451-6.248-34.133-16.503-34.133-24.388c0-14.1,32.846-29.867,76.8-29.867s76.8,15.767,76.8,29.867
		C332.8,448.568,319.089,458.113,298.667,463.823z M256,494.933c-16.521,0-25.6-6.409-25.6-8.533s9.079-8.533,25.6-8.533
		c16.521,0,25.6,6.409,25.6,8.533S272.521,494.933,256,494.933z M435.2,102.4v97.9c-0.004,3.847-2.577,7.217-6.288,8.233
		L358.4,227.758V93.867h68.267C431.378,93.871,435.195,97.689,435.2,102.4z M76.8,200.3v-97.9c0.005-4.711,3.822-8.529,8.533-8.533
		H153.6v133.892l-70.512-19.225C79.377,207.517,76.804,204.147,76.8,200.3z M159.888,247.167c0.732,0.198,1.487,0.299,2.246,0.3
		c2.263,0.001,4.434-0.898,6.035-2.499c1.6-1.6,2.499-3.771,2.499-6.035v-153.6c0.001-2.263-0.898-4.434-2.499-6.035
		c-1.6-1.6-3.771-2.499-6.035-2.499H128v-8.533c0-24.217,52.567-51.2,128-51.2s128,26.983,128,51.2V76.8h-34.133
		c-2.263-0.001-4.434,0.898-6.035,2.499c-1.6,1.6-2.499,3.771-2.499,6.035v153.6c0.001,2.659,1.241,5.167,3.355,6.781
		c2.113,1.614,4.859,2.151,7.425,1.452L384,238.471v147.058c-17.466-13.818-37.922-23.358-59.733-27.858V230.4
		c-0.015-14.132-11.468-25.585-25.6-25.6h-85.333c-14.132,0.015-25.585,11.468-25.6,25.6v127.271
		c-21.811,4.5-42.267,14.041-59.733,27.858V238.471L159.888,247.167z M307.2,354.172c-33.892-5.74-68.508-5.74-102.4,0V230.4
		c0.005-4.711,3.822-8.529,8.533-8.533h85.333c4.711,0.005,8.529,3.822,8.533,8.533V354.172z M128,418.133
		c0-24.217,52.567-51.2,128-51.2s128,26.983,128,51.2c0,13.33-14.668,26.321-38.395,35.88c2.731-4.365,4.205-9.398,4.261-14.546
		c0-26.758-40.354-46.933-93.867-46.933s-93.867,20.175-93.867,46.933c0.039,5.097,1.488,10.084,4.187,14.408
		C142.81,444.318,128,431.383,128,418.133z"/>
</g>
<g>
</g>
<g>
</g>
<g>
</g>
<g>
</g>
<g>
</g>
<g>
</g>
<g>
</g>
<g>
</g>
<g>
</g>
<g>
</g>
<g>
</g>
<g>
</g>
<g>
</g>
<g>
</g>
<g>
</g>
</svg>
