<?xml version="1.0" encoding="iso-8859-1"?>
<!-- Generator: Adobe Illustrator 19.0.0, SVG Export Plug-In . SVG Version: 6.00 Build 0)  -->
<svg version="1.1" id="Capa_1" xmlns="http://www.w3.org/2000/svg" xmlns:xlink="http://www.w3.org/1999/xlink" x="0px" y="0px"
	 viewBox="0 0 512 512" style="enable-background:new 0 0 512 512;" xml:space="preserve">
<g>
	<g transform="translate(1 1)">
		<path style="fill:#4E342E;" d="M434.2,41.667v179.2c0.002,9.053-3.593,17.737-9.995,24.139
			c-6.402,6.402-15.085,9.997-24.139,9.995c9.054-0.003,17.737,3.593,24.139,9.995c6.402,6.402,9.997,15.085,9.995,24.139v179.2
			c0.002,9.053-3.593,17.737-9.995,24.139c-6.402,6.402-15.085,9.997-24.139,9.995h-25.6c9.053,0.002,17.737-3.593,24.139-9.995
			c6.402-6.402,9.997-15.085,9.995-24.139V357.4h-92.075c-37.861,22.755-85.19,22.755-123.051,0H75.8v-68.267
			c-0.003-9.054,3.593-17.737,9.995-24.139c6.402-6.402,15.085-9.997,24.139-9.995c-9.053,0.002-17.737-3.593-24.139-9.995
			c-6.402-6.402-9.997-15.085-9.995-24.139V152.6h117.675c37.861-22.755,85.19-22.755,123.051,0H408.6V41.667
			c0.003-9.054-3.593-17.737-9.995-24.139c-6.402-6.402-15.085-9.997-24.139-9.995h25.6c9.054-0.003,17.737,3.593,24.139,9.995
			C430.607,23.93,434.203,32.613,434.2,41.667z"/>
		<g>
			<path style="fill:#795548;" d="M408.6,357.4v110.933c0.002,9.053-3.593,17.737-9.995,24.139
				c-6.402,6.402-15.085,9.997-24.139,9.995h-85.333c-9.053,0.002-17.737-3.593-24.139-9.995
				c-6.402-6.402-9.997-15.085-9.995-24.139c-0.023,18.842-15.291,34.111-34.133,34.133H109.933
				c-9.053,0.002-17.737-3.593-24.139-9.995s-9.997-15.085-9.995-24.139V357.4h117.675c37.861,22.755,85.19,22.755,123.051,0H408.6z
				"/>
			<path style="fill:#795548;" d="M408.6,41.667V152.6h-92.075c-37.861-22.755-85.19-22.755-123.051,0H75.8V41.667
				c-0.003-9.054,3.593-17.737,9.995-24.139s15.085-9.997,24.139-9.995h110.933C239.709,7.556,254.977,22.825,255,41.667
				c-0.003-9.054,3.593-17.737,9.995-24.139c6.402-6.402,15.085-9.997,24.139-9.995h85.333c9.054-0.003,17.737,3.593,24.139,9.995
				C405.007,23.93,408.603,32.613,408.6,41.667z"/>
			<path style="fill:#795548;" d="M408.6,152.6v68.267c0.002,9.053-3.593,17.737-9.995,24.139
				c-6.402,6.402-15.085,9.997-24.139,9.995c9.054-0.003,17.737,3.593,24.139,9.995c6.402,6.402,9.997,15.085,9.995,24.139V357.4
				h-92.075c-37.861,22.755-85.19,22.755-123.051,0H67.267c-4.707-0.014-8.519-3.826-8.533-8.533v-25.6
				c0.014-4.707,3.826-8.519,8.533-8.533H75.8v-25.6c-0.003-9.054,3.593-17.737,9.995-24.139c6.402-6.402,15.085-9.997,24.139-9.995
				c-9.053,0.002-17.737-3.593-24.139-9.995c-6.402-6.402-9.997-15.085-9.995-24.139v-25.6h-8.533
				c-4.707-0.014-8.519-3.826-8.533-8.533v-25.6c0.014-4.707,3.826-8.519,8.533-8.533h126.208c37.861-22.755,85.19-22.755,123.051,0
				H408.6z"/>
		</g>
		<g>
			<path style="fill:#CFD8DC;" d="M67.267,152.6h375.467c4.713,0,8.533,3.821,8.533,8.533v25.6c0,4.713-3.821,8.533-8.533,8.533
				H67.267c-4.713,0-8.533-3.821-8.533-8.533v-25.6C58.733,156.421,62.554,152.6,67.267,152.6z"/>
			<path style="fill:#CFD8DC;" d="M67.267,314.733h375.467c4.713,0,8.533,3.821,8.533,8.533v25.6c0,4.713-3.821,8.533-8.533,8.533
				H67.267c-4.713,0-8.533-3.821-8.533-8.533v-25.6C58.733,318.554,62.554,314.733,67.267,314.733z"/>
		</g>
		<path style="fill:#F4F4F4;" d="M374.467,255c0.059,60.061-44.412,110.86-103.952,118.746s-115.703-29.585-131.281-87.59
			s14.253-118.572,69.733-141.577s119.418-1.321,149.457,50.687C368.978,213.401,374.515,234.018,374.467,255z"/>
		<circle style="fill:#F44335;" cx="255" cy="255" r="25.6"/>
	</g>
	<g>
		<path d="M68.267,290.133V307.2c-9.421,0.011-17.056,7.645-17.067,17.067v25.6c0.011,9.421,7.645,17.056,17.067,17.067v102.4
			c0.028,23.553,19.114,42.639,42.667,42.667h110.933c13.482-0.037,26.148-6.468,34.133-17.331
			c7.986,10.863,20.651,17.294,34.133,17.331h110.933c23.553-0.028,42.639-19.114,42.667-42.667v-102.4
			c9.421-0.011,17.056-7.645,17.067-17.067v-25.6c-0.011-9.421-7.645-17.056-17.067-17.067v-17.067
			c-0.037-13.482-6.468-26.148-17.331-34.133c10.863-7.985,17.294-20.651,17.331-34.133V204.8
			c9.421-0.011,17.056-7.645,17.067-17.067v-25.6c-0.011-9.421-7.645-17.056-17.067-17.067v-102.4
			C443.706,19.114,424.619,0.028,401.067,0H290.133C276.651,0.037,263.986,6.468,256,17.331C248.015,6.468,235.349,0.037,221.867,0
			H110.933C87.381,0.028,68.294,19.114,68.267,42.667v102.4c-9.421,0.011-17.056,7.645-17.067,17.067v25.6
			c0.011,9.421,7.645,17.056,17.067,17.067v17.067c0.037,13.482,6.468,26.148,17.331,34.133
			C74.734,263.986,68.304,276.651,68.267,290.133z M68.267,324.267h79.646c5.98,9.423,13.159,18.029,21.358,25.6H68.267V324.267z
			 M256,145.067c61.267,0,110.933,49.667,110.933,110.933S317.267,366.933,256,366.933S145.067,317.267,145.067,256
			C145.136,194.762,194.762,145.136,256,145.067z M426.667,469.333c-0.015,14.132-11.468,25.585-25.6,25.6H290.133
			c-14.132-0.015-25.585-11.468-25.6-25.6v-25.6c0-4.713-3.821-8.533-8.533-8.533c-4.713,0-8.533,3.821-8.533,8.533v25.6
			c-0.015,14.132-11.468,25.585-25.6,25.6H110.933c-14.132-0.015-25.585-11.468-25.6-25.6v-102.4h107.081
			c39.337,22.756,87.835,22.756,127.172,0h107.08V469.333z M443.733,349.867H342.729c8.199-7.571,15.379-16.177,21.358-25.6h79.646
			V349.867z M426.667,290.133V307.2h-53.428c5.893-13.515,9.389-27.953,10.329-42.667h17.499
			C415.199,264.549,426.651,276.001,426.667,290.133z M426.667,221.867c-0.015,14.132-11.468,25.585-25.6,25.6h-17.499
			c-0.94-14.714-4.435-29.152-10.329-42.667h53.428V221.867z M443.733,187.733h-79.646c-5.98-9.423-13.159-18.029-21.358-25.6
			h101.004V187.733z M85.333,42.667c0.015-14.132,11.468-25.585,25.6-25.6h110.933c14.132,0.015,25.585,11.468,25.6,25.6v25.6
			c0,4.713,3.821,8.533,8.533,8.533c4.713,0,8.533-3.82,8.533-8.533v-25.6c0.015-14.132,11.468-25.585,25.6-25.6h110.933
			c14.132,0.015,25.585,11.468,25.6,25.6v102.4H319.586c-39.337-22.756-87.835-22.756-127.172,0H85.333V42.667z M68.267,162.133
			h101.004c-8.199,7.571-15.379,16.177-21.358,25.6H68.267V162.133z M85.333,221.867V204.8h53.428
			c-5.894,13.515-9.389,27.953-10.329,42.667h-17.499C96.801,247.451,85.349,235.999,85.333,221.867z M110.933,264.533h17.499
			c0.94,14.714,4.436,29.152,10.329,42.667H85.333v-17.067C85.349,276.001,96.801,264.549,110.933,264.533z"/>
		<path d="M256,196.267c2.263,0.001,4.434-0.898,6.035-2.499s2.499-3.771,2.499-6.035v-17.067c0-4.713-3.821-8.533-8.533-8.533
			c-4.713,0-8.533,3.821-8.533,8.533v17.067c-0.001,2.263,0.898,4.434,2.499,6.035C251.566,195.368,253.737,196.267,256,196.267z"/>
		<path d="M170.667,264.533h17.067c4.713,0,8.533-3.821,8.533-8.533c0-4.713-3.821-8.533-8.533-8.533h-17.067
			c-4.713,0-8.533,3.821-8.533,8.533C162.133,260.713,165.954,264.533,170.667,264.533z"/>
		<path d="M256,315.733c-2.263-0.001-4.434,0.898-6.035,2.499c-1.6,1.6-2.499,3.771-2.499,6.035v17.067
			c0,4.713,3.821,8.533,8.533,8.533c4.713,0,8.533-3.821,8.533-8.533v-17.067c0.001-2.263-0.898-4.434-2.499-6.035
			S258.263,315.733,256,315.733z"/>
		<path d="M324.267,264.533h17.067c4.713,0,8.533-3.821,8.533-8.533c0-4.713-3.821-8.533-8.533-8.533h-17.067
			c-4.713,0-8.533,3.821-8.533,8.533C315.733,260.713,319.554,264.533,324.267,264.533z"/>
		<path d="M256,290.133c18.843-0.02,34.113-15.29,34.133-34.133c-0.032-6.074-1.703-12.027-4.836-17.231l27.936-27.936
			c2.188-2.149,3.055-5.307,2.27-8.271c-0.785-2.965-3.1-5.28-6.065-6.065c-2.965-0.785-6.122,0.082-8.271,2.27l-27.936,27.936
			c-5.204-3.133-11.156-4.804-17.231-4.837c-18.851,0-34.133,15.282-34.133,34.133C221.867,274.851,237.149,290.133,256,290.133z
			 M256,238.933c4.52-0.003,8.855,1.794,12.048,4.993l0.01,0.016l0.016,0.011c5.741,5.764,6.613,14.78,2.083,21.536
			c-4.531,6.757-13.202,9.374-20.714,6.251c-7.512-3.123-11.773-11.116-10.179-19.093C240.859,244.67,247.865,238.929,256,238.933z"
			/>
	</g>
</g>
<g>
</g>
<g>
</g>
<g>
</g>
<g>
</g>
<g>
</g>
<g>
</g>
<g>
</g>
<g>
</g>
<g>
</g>
<g>
</g>
<g>
</g>
<g>
</g>
<g>
</g>
<g>
</g>
<g>
</g>
</svg>
