<?xml version="1.0" encoding="iso-8859-1"?>
<!-- Generator: Adobe Illustrator 19.0.0, SVG Export Plug-In . SVG Version: 6.00 Build 0)  -->
<svg version="1.1" id="Capa_1" xmlns="http://www.w3.org/2000/svg" xmlns:xlink="http://www.w3.org/1999/xlink" x="0px" y="0px"
	 viewBox="0 0 511.996 511.996" style="enable-background:new 0 0 511.996 511.996;" xml:space="preserve">
<g>
	<g transform="translate(1 1)">
		<g>
			<path style="fill:#37474F;" d="M336.064,178.2H221.888c-2.968,0.01-5.73-1.52-7.295-4.042s-1.711-5.676-0.385-8.331l5.292-10.496
				c0.511-0.939,0.938-1.877,1.45-2.731h132.181v8.533C353.103,170.548,345.479,178.172,336.064,178.2z"/>
			<path style="fill:#37474F;" d="M387.777,237.933H225.131l0-9.045c-0.024-4.494,3.452-8.231,7.935-8.533l112.044-7.509
				c5.224-0.322,10.424,0.927,14.933,3.584l23.552,14.165C386.194,232.125,387.785,234.918,387.777,237.933z"/>
			<path style="fill:#37474F;" d="M498.198,203.715c-0.01,5.603-2.831,10.827-7.509,13.909
				c-30.293,20.309-52.224,20.309-52.224,20.309h-42.667c0,0,21.931,0,52.224-20.309c4.679-3.083,7.499-8.307,7.509-13.909
				c0.06-6.245-3.407-11.99-8.96-14.848c-2.511-1.303-5.28-2.032-8.107-2.133c-12.228-21.388-35.099-34.456-59.733-34.133h42.667
				c24.635-0.323,47.505,12.746,59.733,34.133c2.827,0.102,5.596,0.83,8.107,2.133C494.791,191.724,498.258,197.469,498.198,203.715
				z"/>
		</g>
		<g>
			<path style="fill:#607D8B;" d="M455.531,203.715c-0.01,5.603-2.831,10.827-7.509,13.909
				c-30.293,20.309-52.224,20.309-52.224,20.309h-8.021c0.008-3.015-1.583-5.809-4.181-7.339l-23.552-14.165
				c-4.509-2.657-9.71-3.906-14.933-3.584l-112.044,7.509c-4.484,0.302-7.959,4.039-7.935,8.533v9.045l-119.467-51.2h-76.8
				c-9.414-0.028-17.039-7.652-17.067-17.067V152.6L27.072,22.893l0.853-7.424c0.4-4.403,4.029-7.812,8.448-7.936h15.701
				c6.803,0.1,12.901,4.221,15.531,10.496l42.667,98.389c2.537,5.793,7.127,10.443,12.885,13.056l50.773,23.125h47.019
				c-0.513,0.853-0.939,1.792-1.45,2.731l-5.291,10.496c-1.326,2.656-1.181,5.809,0.385,8.331s4.327,4.052,7.295,4.042h114.176
				c9.414-0.028,17.039-7.653,17.067-17.067V152.6h25.6c24.635-0.323,47.505,12.746,59.733,34.133
				c2.827,0.102,5.596,0.83,8.107,2.133C452.124,191.724,455.591,197.469,455.531,203.715z"/>
			<path style="fill:#607D8B;" d="M336.064,178.2H221.888c-2.968,0.01-5.73-1.52-7.295-4.042s-1.711-5.676-0.385-8.331l5.292-10.496
				c0.511-0.939,0.938-1.877,1.45-2.731h132.181v8.533C353.103,170.548,345.479,178.172,336.064,178.2z"/>
			<path style="fill:#607D8B;" d="M387.777,237.933H225.131l0-9.045c-0.024-4.494,3.452-8.231,7.935-8.533l112.044-7.509
				c5.224-0.322,10.424,0.927,14.933,3.584l23.552,14.165C386.194,232.125,387.785,234.918,387.777,237.933z"/>
		</g>
		<g>
			<path style="fill:#9E9E9E;" d="M387.777,237.933c0.008,3.015-1.583,5.808-4.181,7.339l-23.552,14.165
				c-4.509,2.657-9.71,3.905-14.933,3.584l-112.044-7.509c-4.484-0.302-7.959-4.04-7.935-8.533v-18.091
				c-0.024-4.494,3.452-8.231,7.935-8.533l112.044-7.509c5.224-0.322,10.424,0.927,14.933,3.584l23.552,14.165
				C386.194,232.125,387.785,234.918,387.777,237.933z"/>
			<path style="fill:#9E9E9E;" d="M230.983,333.943l82.308,6.342c3.886,0.278,7.748-0.799,10.927-3.05l17.336-12.022
				c1.92-1.49,3.044-3.783,3.044-6.213c0-2.43-1.124-4.724-3.044-6.214l-17.336-12.022c-3.18-2.25-7.042-3.328-10.927-3.05
				l-82.308,6.342c-3.527,0.533-6.066,3.669-5.852,7.23v15.426C224.917,330.274,227.455,333.41,230.983,333.943z"/>
			<path style="fill:#9E9E9E;" d="M179.783,419.276l82.308,6.342c3.886,0.278,7.748-0.799,10.927-3.05l17.336-12.022
				c1.92-1.49,3.044-3.783,3.044-6.214c0-2.43-1.124-4.724-3.044-6.214l-17.336-12.022c-3.18-2.25-7.042-3.328-10.927-3.05
				l-82.308,6.342c-3.528,0.533-6.066,3.669-5.852,7.23v15.426C173.717,415.607,176.256,418.743,179.783,419.276z"/>
			<path style="fill:#9E9E9E;" d="M111.516,496.076l82.308,6.342c3.886,0.278,7.748-0.799,10.927-3.05l17.336-12.022
				c1.92-1.49,3.044-3.783,3.044-6.213c0-2.43-1.124-4.724-3.044-6.214l-17.336-12.022c-3.18-2.25-7.042-3.328-10.927-3.05
				l-82.308,6.342c-3.528,0.533-6.066,3.669-5.852,7.23v15.426C105.451,492.407,107.989,495.543,111.516,496.076z"/>
		</g>
		<path style="fill:#37474F;" d="M353.131,144.067v17.067c-0.028,9.414-7.653,17.039-17.067,17.067H221.888
			c-2.968,0.01-5.73-1.52-7.295-4.042s-1.711-5.676-0.385-8.331l5.292-10.496c0.511-0.939,0.938-1.877,1.45-2.731
			c9.18-15.823,26.08-25.573,44.373-25.6h70.741C345.479,127.028,353.104,134.652,353.131,144.067z"/>
	</g>
	<g>
		<path d="M493.948,182.183c-2.099-1.033-4.307-1.827-6.583-2.367c-14.227-21.997-38.772-35.126-64.967-34.75h-25.6v-25.6
			c0-4.713-3.82-8.533-8.533-8.533s-8.533,3.821-8.533,8.533v25.6h-17.067c-0.015-14.132-11.468-25.585-25.6-25.6h-70.758
			c-19.558-0.064-37.892,9.512-49.015,25.6h-40.51l-49.084-22.354c-3.845-1.731-6.91-4.828-8.6-8.692L76.414,15.592
			C72.41,6.229,63.255,0.114,53.073,0h-15.7c-8.754,0.109-16.034,6.766-16.925,15.475L4.323,152.604
			c-0.021,0.174,0.051,0.329,0.042,0.502c-0.01,0.172-0.1,0.319-0.1,0.494v17.067c0.015,14.132,11.468,25.585,25.6,25.6h75.05
			l112.683,48.291v3.459c0.021,8.977,6.978,16.41,15.933,17.025l112.033,7.471c0.767,0.054,1.533,0.079,2.3,0.079
			c6.178,0.003,12.24-1.68,17.533-4.867l23.6-14.158c2.486-1.49,4.551-3.589,5.999-6.1h44.468
			c11.854-0.783,23.445-3.853,34.133-9.04v9.04c0,4.713,3.82,8.533,8.533,8.533s8.533-3.82,8.533-8.533v-18.053
			c1.869-1.145,3.769-2.356,5.7-3.651c7.511-4.943,11.826-13.507,11.328-22.485C507.195,194.3,501.959,186.265,493.948,182.183
			L493.948,182.183z M266.306,136.533h70.758c4.711,0.005,8.529,3.822,8.533,8.533v17.067c-0.005,4.711-3.822,8.529-8.533,8.533
			H222.873l5.275-10.546C235.332,145.628,250.131,136.481,266.306,136.533z M356.614,253.092c-2.984,1.792-6.444,2.628-9.917,2.396
			l-112.033-7.471V229.85l112.033-7.471c3.474-0.245,6.938,0.592,9.917,2.396l23.6,14.158L356.614,253.092z M486.939,211.538
			c-13.897,10.343-30.269,16.848-47.475,18.863h-44.468c-1.448-2.511-3.513-4.61-5.999-6.1l-23.6-14.158
			c-5.964-3.592-12.888-5.263-19.833-4.787l-112.025,7.467c-7.559,0.525-13.87,5.963-15.508,13.36l-108.008-46.29
			c-1.06-0.458-2.203-0.693-3.358-0.692h-76.8c-4.711-0.005-8.529-3.822-8.533-8.533v-8.533h68.267c4.713,0,8.533-3.821,8.533-8.533
			s-3.821-8.533-8.533-8.533H22.388l14.985-128h15.7c3.401,0.11,6.42,2.208,7.708,5.358l42.684,98.433
			c3.391,7.705,9.498,13.892,17.158,17.383l50.775,23.125l0.101,0.022c0.974,0.414,2.018,0.642,3.076,0.673
			c0.117,0.005,0.231,0.076,0.348,0.076l0.029-0.005h33.106l-0.452,0.905c-2.644,5.29-2.36,11.572,0.75,16.603
			s8.603,8.092,14.517,8.092h114.192c14.132-0.015,25.585-11.468,25.6-25.6h17.067v25.6c0,4.713,3.82,8.533,8.533,8.533
			s8.533-3.821,8.533-8.533v-25.6h25.6c21.425-0.401,41.377,10.865,52.1,29.417c1.446,2.89,4.401,4.716,7.633,4.717
			c1.522,0.094,3.004,0.523,4.342,1.254c2.624,1.435,4.238,4.205,4.192,7.196C490.644,207.471,489.245,210.031,486.939,211.538
			L486.939,211.538z"/>
		<path d="M313.631,349.792c0.625,0.05,1.25,0.071,1.875,0.071c5.212-0.02,10.293-1.629,14.566-4.613l17.342-12.025
			c4.22-3.084,6.715-7.996,6.717-13.223c0.002-5.227-2.49-10.141-6.708-13.227l-17.342-12.021c-4.797-3.364-10.606-4.971-16.45-4.55
			l-82.308,6.342c-7.963,0.898-13.92,7.731-13.725,15.742v15.425c-0.193,8.009,5.764,14.84,13.725,15.738L313.631,349.792z
			 M234.664,313.404l80.275-6.183c1.928-0.121,3.839,0.428,5.408,1.554L336.539,320l-16.192,11.229
			c-1.557,1.146-3.473,1.694-5.4,1.546l-80.283-6.183V313.404z"/>
		<path d="M166.398,397.621v15.425c-0.193,8.009,5.764,14.84,13.725,15.738l82.308,6.342c0.625,0.05,1.25,0.071,1.875,0.071
			c5.212-0.02,10.293-1.629,14.566-4.613l17.342-12.025c4.22-3.084,6.715-7.996,6.717-13.223c0.002-5.227-2.49-10.141-6.708-13.227
			l-17.342-12.021c-4.803-3.351-10.608-4.957-16.45-4.55l-82.308,6.342C172.16,382.778,166.203,389.61,166.398,397.621z
			 M183.464,398.738l80.275-6.183c1.93-0.138,3.846,0.413,5.408,1.554l16.192,11.225l-16.192,11.229
			c-1.554,1.151-3.472,1.7-5.4,1.546l-80.283-6.183V398.738z"/>
		<path d="M98.131,474.421v15.425c-0.193,8.009,5.764,14.84,13.725,15.738l82.308,6.342c0.625,0.05,1.25,0.071,1.875,0.071
			c5.212-0.02,10.293-1.629,14.566-4.613l17.342-12.025c4.22-3.084,6.715-7.996,6.717-13.223c0.002-5.227-2.49-10.14-6.708-13.227
			l-17.342-12.021c-4.803-3.351-10.608-4.957-16.45-4.55l-82.308,6.342C103.893,459.578,97.936,466.41,98.131,474.421z
			 M115.198,475.538l80.275-6.183c1.93-0.137,3.846,0.413,5.408,1.554l16.192,11.225l-16.192,11.229
			c-1.552,1.155-3.472,1.704-5.4,1.546l-80.283-6.183V475.538z"/>
	</g>
</g>
<g>
</g>
<g>
</g>
<g>
</g>
<g>
</g>
<g>
</g>
<g>
</g>
<g>
</g>
<g>
</g>
<g>
</g>
<g>
</g>
<g>
</g>
<g>
</g>
<g>
</g>
<g>
</g>
<g>
</g>
</svg>
