<?xml version="1.0" encoding="iso-8859-1"?>
<!-- Generator: Adobe Illustrator 19.0.0, SVG Export Plug-In . SVG Version: 6.00 Build 0)  -->
<svg version="1.1" id="Capa_1" xmlns="http://www.w3.org/2000/svg" xmlns:xlink="http://www.w3.org/1999/xlink" x="0px" y="0px"
	 viewBox="0 0 512 512" style="enable-background:new 0 0 512 512;" xml:space="preserve">
<g>
	<g transform="translate(1 1)">
		<path style="fill:#FFB301;" d="M348.867,434.2v34.133h8.533c4.707,0.014,8.519,3.826,8.533,8.533v17.067
			c-0.014,4.707-3.826,8.519-8.533,8.533H152.6c-4.707-0.014-8.519-3.826-8.533-8.533v-17.067c0.014-4.707,3.826-8.519,8.533-8.533
			h8.533V434.2H152.6c-4.707-0.014-8.519-3.826-8.533-8.533V186.733c0.014-4.707,3.826-8.519,8.533-8.533h8.533v-59.733
			c0-47.531,35.243-101.12,81.067-109.653c4.213-0.856,8.501-1.285,12.8-1.28c51.883,0,93.867,59.051,93.867,110.933V178.2h8.533
			c4.707,0.014,8.519,3.826,8.533,8.533v238.933c-0.014,4.707-3.826,8.519-8.533,8.533H348.867z"/>
		<path style="fill:#FFEB3A;" d="M323.267,434.2v34.133h8.533c4.707,0.014,8.519,3.826,8.533,8.533v17.067
			c-0.014,4.707-3.826,8.519-8.533,8.533H152.6c-4.707-0.014-8.519-3.826-8.533-8.533v-17.067c0.014-4.707,3.826-8.519,8.533-8.533
			h8.533V434.2H152.6c-4.707-0.014-8.519-3.826-8.533-8.533V186.733c0.014-4.707,3.826-8.519,8.533-8.533h8.533v-59.733
			c0-47.531,35.243-101.12,81.067-109.653c45.824,8.533,81.067,62.123,81.067,109.653V178.2h8.533
			c4.707,0.014,8.519,3.826,8.533,8.533v238.933c-0.014,4.707-3.826,8.519-8.533,8.533H323.267z"/>
		<g>
			<path style="fill:#FFB301;" d="M152.6,178.2h204.8c4.713,0,8.533,3.821,8.533,8.533v238.933c0,4.713-3.82,8.533-8.533,8.533
				H152.6c-4.713,0-8.533-3.82-8.533-8.533V186.733C144.067,182.021,147.887,178.2,152.6,178.2z"/>
			<path style="fill:#FFB301;" d="M152.6,468.333h204.8c4.713,0,8.533,3.821,8.533,8.533v17.067c0,4.713-3.82,8.533-8.533,8.533
				H152.6c-4.713,0-8.533-3.821-8.533-8.533v-17.067C144.067,472.154,147.887,468.333,152.6,468.333z"/>
		</g>
		<g>
			<path style="fill:#FFEB3A;" d="M152.6,178.2h179.2c4.713,0,8.533,3.821,8.533,8.533v238.933c0,4.713-3.82,8.533-8.533,8.533
				H152.6c-4.713,0-8.533-3.82-8.533-8.533V186.733C144.067,182.021,147.887,178.2,152.6,178.2z"/>
			<path style="fill:#FFEB3A;" d="M152.6,468.333h179.2c4.713,0,8.533,3.821,8.533,8.533v17.067c0,4.713-3.82,8.533-8.533,8.533
				H152.6c-4.713,0-8.533-3.821-8.533-8.533v-17.067C144.067,472.154,147.887,468.333,152.6,468.333z"/>
		</g>
	</g>
	<g>
		<path d="M375.467,426.667V187.733c-0.011-9.421-7.645-17.056-17.067-17.067v-51.2C358.4,64.221,313.667,0,256,0
			S153.6,64.221,153.6,119.467v51.2c-9.421,0.011-17.056,7.645-17.067,17.067v238.933c0.011,9.421,7.645,17.056,17.067,17.067V460.8
			c-9.421,0.011-17.056,7.645-17.067,17.067v17.067c0.011,9.421,7.645,17.056,17.067,17.067h204.8
			c9.421-0.011,17.056-7.645,17.067-17.067v-17.067c-0.011-9.421-7.645-17.056-17.067-17.067v-17.067
			C367.821,443.723,375.456,436.088,375.467,426.667z M170.667,119.467c0-46.379,38.067-102.4,85.333-102.4
			s85.333,56.021,85.333,102.4v51.2H170.667V119.467z M153.6,187.733h204.8l0.009,238.933H153.6V187.733z M358.409,494.933H153.6
			v-17.067h204.8L358.409,494.933z M341.333,460.8H170.667v-17.067h170.667V460.8z"/>
		<path d="M235.242,39.071c-26.192,12.567-47.508,48.633-47.508,80.396V128c0,4.713,3.821,8.533,8.533,8.533
			s8.533-3.821,8.533-8.533v-8.533c0-24.962,17.675-55.342,37.825-65.004c4.25-2.039,6.043-7.137,4.004-11.388
			S239.492,37.032,235.242,39.071z"/>
		<path d="M179.2,401.067c2.263,0.001,4.434-0.898,6.035-2.499c1.6-1.6,2.499-3.771,2.499-6.035V221.867
			c0-4.713-3.82-8.533-8.533-8.533s-8.533,3.821-8.533,8.533v170.667c-0.001,2.263,0.898,4.434,2.499,6.035
			C174.766,400.168,176.937,401.067,179.2,401.067z"/>
	</g>
</g>
<g>
</g>
<g>
</g>
<g>
</g>
<g>
</g>
<g>
</g>
<g>
</g>
<g>
</g>
<g>
</g>
<g>
</g>
<g>
</g>
<g>
</g>
<g>
</g>
<g>
</g>
<g>
</g>
<g>
</g>
</svg>
