<?xml version="1.0" encoding="iso-8859-1"?>
<!-- Generator: Adobe Illustrator 19.0.0, SVG Export Plug-In . SVG Version: 6.00 Build 0)  -->
<svg version="1.1" id="Capa_1" xmlns="http://www.w3.org/2000/svg" xmlns:xlink="http://www.w3.org/1999/xlink" x="0px" y="0px"
	 viewBox="0 0 511.968 511.968" style="enable-background:new 0 0 511.968 511.968;" xml:space="preserve">
<g>
	<g transform="translate(1 1)">
		<path style="fill:#3F5C6C;" d="M57.417,267.362l-27.051,9.813c-8.856,3.122-18.579-1.436-21.845-10.24
			c-1.542-4.255-1.329-8.948,0.592-13.045c1.921-4.097,5.392-7.263,9.648-8.8l26.112-9.472l0.085,0.085v0.171
			c0.332,5.195,1.424,10.312,3.243,15.189c1.886,5.39,4.782,10.372,8.533,14.677l0.085,0.085L57.417,267.362z"/>
		<g>
			<path style="fill:#607D8B;" d="M176.884,246.029l-87.125,40.704c-0.341-0.171-0.768-0.341-1.109-0.512l17.749-8.107
				L176.884,246.029z"/>
			<g>
				<path id="SVGCleanerId_0" style="fill:#607D8B;" d="M387.913,149.602l-6.997,3.328l-19.968,9.301l-184.064,83.797
					l200.192-93.355c0.554-0.264,1.124-0.492,1.707-0.683h0.085C381.751,150.761,384.798,149.956,387.913,149.602z"/>
			</g>
		</g>
		<g>
			<path style="fill:#CFD8DC;" d="M425.63,147.042l-37.632,2.56h-0.085c-3.115,0.353-6.162,1.158-9.045,2.389h-0.085
				c-0.583,0.191-1.153,0.419-1.707,0.683l-200.192,93.355l-70.485,32.085l-17.749,8.107c-4.015-1.621-7.945-3.444-11.776-5.461
				c-7.577-3.65-14.385-8.72-20.053-14.933l-0.085-0.085c-3.751-4.306-6.647-9.287-8.533-14.677
				c-1.819-4.877-2.911-9.995-3.243-15.189v-0.171c-1.72-25.706,14.405-49.24,38.997-56.917l33.792-11.093l89.259-29.269
				l192.171-62.976l11.52,31.744L425.63,147.042z"/>
			<path style="fill:#CFD8DC;" d="M57.417,267.362l-27.051,9.813c-8.856,3.122-18.579-1.436-21.845-10.24
				c-1.542-4.255-1.329-8.948,0.592-13.045c1.921-4.097,5.392-7.263,9.648-8.8l26.112-9.472l0.085,0.085v0.171
				c0.332,5.195,1.424,10.312,3.243,15.189c1.886,5.39,4.782,10.372,8.533,14.677l0.085,0.085L57.417,267.362z"/>
			<g>
				<path id="SVGCleanerId_0_1_" style="fill:#CFD8DC;" d="M387.913,149.602l-6.997,3.328l-19.968,9.301l-184.064,83.797
					l200.192-93.355c0.554-0.264,1.124-0.492,1.707-0.683h0.085C381.751,150.761,384.798,149.956,387.913,149.602z"/>
			</g>
		</g>
		<g>
			<path style="fill:#4E342E;" d="M195.23,420.109H75.764c0-32.99,26.744-59.733,59.733-59.733S195.23,387.119,195.23,420.109z"/>
			<path style="fill:#4E342E;" d="M382.964,420.109H263.497c0-32.99,26.744-59.733,59.733-59.733S382.964,387.119,382.964,420.109z"
				/>
			<circle style="fill:#4E342E;" cx="365.897" cy="223.842" r="25.6"/>
		</g>
		<polyline style="fill:#607D8B;" points="422.473,138.509 412.574,111.288 401.054,79.544 445.001,65.122 468.297,129.293 		"/>
		<g>
			<g>
				<path id="SVGCleanerId_0_2_" style="fill:#4E342E;" d="M387.913,149.602l-6.997,3.328l-19.968,9.301l-184.064,83.797
					l200.192-93.355c0.554-0.264,1.124-0.492,1.707-0.683h0.085C381.751,150.761,384.798,149.956,387.913,149.602z"/>
			</g>
			<path style="fill:#4E342E;" d="M425.63,183.565v219.477c-0.028,9.414-7.652,17.039-17.067,17.067h-25.6
				c9.414-0.028,17.039-7.653,17.067-17.067V183.565c0.034-8.661-3.266-17.003-9.216-23.296l15.957-7.253
				C418.371,158.767,425.687,170.618,425.63,183.565z"/>
		</g>
		<g>
			<path style="fill:#795548;" d="M391.497,147.042c-2.816-3.072-6.827,7.68-10.581,5.888l-19.968,9.301l-184.064,83.797
				l-87.125,40.704L61.342,299.96c-12.033,5.616-19.721,17.697-19.712,30.976v72.107c0.028,9.414,7.653,17.039,17.067,17.067h17.067
				c0-32.99,26.744-59.733,59.733-59.733s59.733,26.744,59.733,59.733h68.267c0-32.99,26.744-59.733,59.733-59.733
				s59.733,26.744,59.733,59.733c9.414-0.028,17.039-7.653,17.067-17.067V183.565C400.03,174.349,397.129,153.016,391.497,147.042z
				 M365.897,249.442c-14.138,0-25.6-11.462-25.6-25.6c0-14.139,11.462-25.6,25.6-25.6c14.138,0,25.6,11.462,25.6,25.6
				c0.009,6.792-2.685,13.309-7.488,18.112C379.206,246.757,372.689,249.452,365.897,249.442z"/>
			<path style="fill:#795548;" d="M176.884,246.029l-87.125,40.704c-0.341-0.171-0.768-0.341-1.109-0.512l17.749-8.107
				L176.884,246.029z"/>
			<path style="fill:#795548;" d="M380.916,152.93l-19.968,9.301l-184.064,83.797l200.192-93.355
				c0.554-0.264,1.124-0.492,1.707-0.683h0.085C379.566,152.269,380.25,152.583,380.916,152.93z"/>
			<path style="fill:#795548;" d="M195.23,420.109H75.764c0-32.99,26.744-59.733,59.733-59.733S195.23,387.119,195.23,420.109z"/>
			<path style="fill:#795548;" d="M382.964,420.109H263.497c0-32.99,26.744-59.733,59.733-59.733S382.964,387.119,382.964,420.109z"
				/>
			<circle style="fill:#795548;" cx="365.897" cy="223.842" r="25.6"/>
		</g>
		<circle style="fill:#FF9801;" cx="135.497" cy="420.109" r="59.733"/>
		<circle style="fill:#CBB292;" cx="135.497" cy="420.109" r="17.067"/>
		<circle style="fill:#FF9801;" cx="323.23" cy="420.109" r="59.733"/>
		<circle style="fill:#CBB292;" cx="323.23" cy="420.109" r="17.067"/>
		<g>
			<path style="fill:#FF9801;" d="M491.166,143.458c-4.254,1.548-8.95,1.339-13.049-0.583c-4.099-1.922-7.265-5.397-8.796-9.657
				l-2.901-8.021l-23.296-64.171l-2.901-8.021c-1.565-4.243-1.373-8.934,0.533-13.035c1.906-4.101,5.369-7.272,9.621-8.81
				c1.863-0.663,3.825-1.009,5.803-1.024c7.2,0.022,13.629,4.512,16.128,11.264l29.099,80.213c1.548,4.254,1.339,8.95-0.583,13.049
				S495.427,141.927,491.166,143.458z"/>
			<circle style="fill:#FF9801;" cx="365.897" cy="223.842" r="25.6"/>
		</g>
	</g>
	<g>
		<path d="M136.497,395.509c-14.138,0-25.6,11.462-25.6,25.6c0,14.138,11.462,25.6,25.6,25.6c14.139,0,25.6-11.462,25.6-25.6
			C162.082,406.977,150.629,395.525,136.497,395.509z M136.497,429.642c-4.713,0-8.533-3.82-8.533-8.533s3.821-8.533,8.533-8.533
			c4.713,0,8.533,3.82,8.533,8.533C145.026,425.82,141.208,429.638,136.497,429.642z"/>
		<path d="M324.23,395.509c-14.138,0-25.6,11.462-25.6,25.6c0,14.138,11.462,25.6,25.6,25.6c14.138,0,25.6-11.462,25.6-25.6
			C349.815,406.977,338.362,395.525,324.23,395.509z M324.23,429.642c-4.713,0-8.533-3.82-8.533-8.533s3.82-8.533,8.533-8.533
			s8.533,3.82,8.533,8.533C332.759,425.82,328.941,429.638,324.23,429.642z"/>
		<path d="M43.889,204.638c-3.999,8.096-6.236,16.949-6.565,25.973l-20.494,7.444c-13.233,4.884-20.068,19.511-15.325,32.795
			c2.315,6.386,7.073,11.59,13.227,14.465c6.154,2.875,13.198,3.186,19.582,0.864l22.585-8.204c4.295,3.679,8.956,6.907,13.91,9.634
			l-12.088,5.641c-14.995,7.04-24.585,22.097-24.625,38.663v72.129c0.015,14.132,11.468,25.585,25.6,25.6h9.126
			c4.27,34.126,33.282,59.733,67.674,59.733s63.404-25.607,67.674-59.733h52.385c4.27,34.126,33.282,59.733,67.674,59.733
			s63.404-25.607,67.674-59.733h17.659c14.132-0.015,25.585-11.468,25.6-25.6V184.572c0.018-10.63-3.955-20.88-11.132-28.721
			l38.583-17.995c5.081,12.866,19.482,19.348,32.482,14.621h0.009c13.286-4.831,20.143-19.516,15.317-32.804l-29.133-80.212
			c-4.802-13.235-19.395-20.105-32.655-15.372s-20.205,19.29-15.542,32.575L82.397,171.647
			C65.56,176.863,51.626,188.801,43.889,204.638z M28.489,270.138c-4.434,1.585-9.318-0.7-10.942-5.121
			c-0.791-2.158-0.649-4.547,0.392-6.596c0.919-2.026,2.626-3.589,4.725-4.325l16.449-5.975c0.561,2.318,1.248,4.603,2.059,6.846
			c1.157,3.123,2.586,6.138,4.272,9.01L28.489,270.138z M136.497,472.309c-28.277,0-51.2-22.923-51.2-51.2
			c0-28.277,22.923-51.2,51.2-51.2s51.2,22.923,51.2,51.2C187.666,449.373,164.761,472.278,136.497,472.309z M324.23,472.309
			c-28.277,0-51.2-22.923-51.2-51.2c0-28.277,22.923-51.2,51.2-51.2s51.2,22.923,51.2,51.2
			C375.399,449.373,352.494,472.278,324.23,472.309z M418.097,404.042c-0.005,4.711-3.822,8.529-8.533,8.533h-17.659
			c-4.27-34.126-33.282-59.733-67.674-59.733s-63.404,25.607-67.674,59.733h-52.385c-4.27-34.126-33.282-59.733-67.674-59.733
			s-63.404,25.607-67.674,59.733h-9.126c-4.711-0.005-8.529-3.822-8.533-8.533v-72.129c0.023-9.939,5.777-18.973,14.775-23.196
			l315.733-147.342c7.928-3.7,17.197-3.094,24.576,1.605c7.38,4.699,11.848,12.842,11.849,21.591V404.042z M454.305,40.184
			c4.432-1.609,9.329,0.678,10.942,5.108l29.133,80.208c1.057,2.869,0.497,6.085-1.467,8.429c-1.964,2.344-5.032,3.458-8.042,2.92
			s-5.502-2.645-6.533-5.524l-2.869-7.9l-0.023-0.142l-23.3-64.171c-0.018-0.049-0.059-0.08-0.078-0.129l-2.855-7.863
			C447.609,46.696,449.885,41.806,454.305,40.184z M438.893,72.719l17.819,49.061l-49.179,22.933
			c-10.732-4.105-22.671-3.673-33.078,1.196L90.65,278.351c-22.259-9.75-29.663-18.781-33.436-29.217
			c-4.421-12.14-3.672-25.563,2.073-37.135c5.745-11.573,15.984-20.284,28.327-24.102L438.893,72.719z"/>
		<path d="M89.872,259.176c4.176,2.18,9.328,0.565,11.513-3.608c2.185-4.174,0.575-9.328-3.596-11.517
			c-7.542-3.942-8.242-5.879-8.516-6.638c-1.227-3.312-1.031-6.984,0.542-10.146c1.702-3.409,4.775-5.934,8.45-6.942l247.75-81.242
			c2.924-0.928,5.124-3.355,5.764-6.355c0.639-3-0.381-6.113-2.673-8.153s-5.501-2.692-8.407-1.709L93.039,204.08
			c-8.068,2.436-14.771,8.096-18.525,15.642c-3.661,7.337-4.122,15.861-1.275,23.55C75.18,248.609,78.755,253.355,89.872,259.176z"
			/>
		<path d="M375.43,129.001c0.903,0,1.801-0.145,2.658-0.429l17.067-5.596c2.925-0.927,5.128-3.354,5.768-6.355
			c0.64-3.001-0.381-6.115-2.673-8.155c-2.293-2.04-5.504-2.692-8.41-1.707l-17.067,5.596c-3.984,1.308-6.428,5.315-5.767,9.456
			C367.666,125.952,371.237,128.999,375.43,129.001z"/>
		<path d="M366.897,190.709c-18.851,0-34.133,15.282-34.133,34.133s15.282,34.133,34.133,34.133
			c18.851,0,34.133-15.282,34.133-34.133C401.01,205.999,385.74,190.729,366.897,190.709z M366.897,241.909
			c-9.426,0-17.067-7.641-17.067-17.067c0-9.426,7.641-17.067,17.067-17.067c9.426,0,17.067,7.641,17.067,17.067
			C383.953,234.264,376.318,241.898,366.897,241.909z"/>
	</g>
</g>
<g>
</g>
<g>
</g>
<g>
</g>
<g>
</g>
<g>
</g>
<g>
</g>
<g>
</g>
<g>
</g>
<g>
</g>
<g>
</g>
<g>
</g>
<g>
</g>
<g>
</g>
<g>
</g>
<g>
</g>
</svg>
