<?xml version="1.0" encoding="iso-8859-1"?>
<!-- Generator: Adobe Illustrator 19.0.0, SVG Export Plug-In . SVG Version: 6.00 Build 0)  -->
<svg version="1.1" id="Capa_1" xmlns="http://www.w3.org/2000/svg" xmlns:xlink="http://www.w3.org/1999/xlink" x="0px" y="0px"
	 viewBox="0 0 512 512" style="enable-background:new 0 0 512 512;" xml:space="preserve">
<g>
	<g transform="translate(1 1)">
		<path style="fill:#607D8B;" d="M282.383,67.204l49.408-0.112c28.245-0.064,51.182-7.797,51.161-17.183
			c-0.021-9.387-22.994-17.014-51.239-16.95L269.59,33.1l-29.355,0.067l-62.123,0.141c-28.245,0.064-51.182,7.796-51.161,17.183
			c0.021,9.387,22.994,17.014,51.239,16.95l49.408-0.112L282.383,67.204z"/>
		<path style="fill:#2E7D32;" d="M496.067,172.483c-31.744,46.336-119.552,82.005-208.555,90.453h-65.024
			c-89.003-8.448-176.811-44.117-208.555-90.453c-7.324-10.482-8.218-24.164-2.321-35.51s17.609-18.476,30.396-18.506h425.984
			c12.787,0.029,24.499,7.16,30.396,18.506C504.285,148.318,503.391,162.001,496.067,172.483z"/>
		<path style="fill:#4CAF50;" d="M461.678,172.483c-27.648,40.363-97.707,72.619-174.08,85.76
			c-11.435,2.048-22.955,3.584-34.475,4.693h-30.635c-89.003-8.448-176.811-44.117-208.555-90.453
			c-7.324-10.482-8.218-24.164-2.321-35.51s17.609-18.476,30.396-18.506h391.595c12.787,0.029,24.499,7.159,30.396,18.506
			C469.896,148.318,469.002,162.001,461.678,172.483z"/>
		<circle style="fill:#009688;" cx="391.534" cy="178.2" r="25.6"/>
		<path style="fill:#2E7D32;" d="M278.126,418.584c20.958,2.311,41.134,9.279,59.051,20.395
			c22.101,14.507,10.752,46.421-16.384,46.421H189.208c-27.136,0-38.485-31.915-16.384-46.421
			c17.917-11.115,38.093-18.084,59.051-20.395H278.126z"/>
		<path style="fill:#4CAF50;" d="M289.279,135.456l-0.039-17.067c-0.089-38.949-11.704-77-33.383-109.359l-1.003-1.497l-0.996,1.501
			c-21.531,32.457-32.974,70.56-32.885,109.509l0.039,17.067l1.476,127.325l14.165,222.549c0.542,7.048,5.076,13.162,11.663,15.727
			c6.587,2.566,14.061,1.129,19.228-3.695c3.423-3.105,5.504-7.42,5.803-12.032l14.165-222.549L289.279,135.456z"/>
		<circle style="fill:#009688;" cx="118.467" cy="178.2" r="25.6"/>
		<g>
			<path style="fill:#02A9F4;" d="M272.067,169.24l0,34.56h-34.134l0-34.56c-0.021-6.905,4.133-13.137,10.514-15.775
				c6.381-2.638,13.723-1.159,18.585,3.743C270.274,160.369,272.091,164.712,272.067,169.24z"/>
			<path style="fill:#02A9F4;" d="M272.067,203.8v25.771c-0.014,4.707-3.826,8.52-8.533,8.533h-17.067
				c-4.707-0.014-8.52-3.826-8.533-8.533V203.8H272.067z"/>
		</g>
		<path style="fill:#424242;" d="M284.355,75.715l-58.795,0.171c5.22-23.836,14.827-46.493,28.331-66.816l0.939-1.536l1.024,1.536
			c10.759,16.104,19.097,33.699,24.747,52.224C282.051,66.072,283.331,70.851,284.355,75.715z"/>
	</g>
	<g>
		<path d="M504.1,178.313c9.131-13.215,10.164-30.408,2.679-44.621c-7.283-14.117-21.903-22.923-37.787-22.758H298.447
			c-0.471-11.507-1.907-22.954-4.293-34.22l38.659-0.088c13.167,0.173,26.281-1.697,38.875-5.542
			c17.212-5.787,20.808-14.175,20.796-20.196c-0.037-17.608-29.808-25.463-59.421-25.463h-0.371l-56.925,0.13
			c-3.554-6.978-7.503-13.749-11.825-20.28l-1.004-1.496C261.354,1.417,258.698,0,255.855,0h-0.021
			c-2.851,0.006-5.511,1.437-7.088,3.813l-1,1.504c-4.291,6.549-8.206,13.336-11.727,20.329l-56.928,0.13
			c-13.168-0.172-26.283,1.697-38.879,5.542C123,37.104,119.405,45.492,119.417,51.512c0.046,17.608,29.817,25.463,59.425,25.463
			h0.371l38.654-0.088c-2.322,11.214-3.703,22.602-4.129,34.046H43.008c-15.884-0.164-30.504,8.641-37.787,22.758
			c-7.484,14.211-6.453,31.402,2.675,44.617c31.498,45.976,114.327,82.994,207.529,93.297l8.966,140.839
			c-19.613,2.968-38.413,9.911-55.248,20.402c-12.551,7.723-18.355,22.909-14.154,37.034c4.855,15.259,19.213,25.472,35.22,25.054
			h40.841c3.226,8.264,10.329,14.398,18.975,16.385c8.646,1.987,17.715-0.43,24.225-6.456c2.99-2.736,5.294-6.137,6.726-9.929
			h40.816c16.008,0.419,30.365-9.794,35.221-25.054c4.201-14.123-1.601-29.307-14.15-37.029
			c-16.836-10.493-35.638-17.437-55.253-20.406l8.966-140.839C389.777,261.303,472.606,224.284,504.1,178.313z M332.734,42.492
			h0.337c23.308,0,37.504,5.3,41.546,8.438c-4.046,3.175-18.338,8.579-41.846,8.629l-42.964,0.098
			c-1.766-5.778-3.872-11.445-6.146-17.053L332.734,42.492z M255.892,24.542c8.018,13.717,14.265,28.395,18.592,43.683
			l-36.984,0.083C241.758,53.001,247.938,38.296,255.892,24.542z M179.171,59.908h-0.338c-23.308,0-37.508-5.3-41.55-8.438
			c4.05-3.175,18.338-8.579,41.85-8.629l49.071-0.112c-2.248,5.617-4.328,11.295-6.068,17.081L179.171,59.908z M171.338,464.992
			c-2.062-6.905,0.912-14.319,7.175-17.883c14.34-8.902,30.304-14.868,46.967-17.552l3.076,48.31h-38.347
			C181.729,478.343,173.987,473.061,171.338,464.992L171.338,464.992z M333.492,447.113c6.26,3.564,9.233,10.977,7.171,17.879
			c-2.649,8.069-10.391,13.351-18.871,12.875h-38.347l3.075-48.31C303.186,432.241,319.152,438.209,333.492,447.113z
			 M287.705,255.442c-0.878,0.266-1.756,0.532-2.634,0.798c-0.469,0.218-0.917,0.48-1.336,0.782
			c-1.868,1.229-3.129,3.19-3.473,5.399c-0.109,0.319-0.197,0.644-0.265,0.974l-14.163,222.479
			c-0.148,2.445-1.253,4.734-3.075,6.371c-1.834,1.715-4.247,2.675-6.758,2.688c-5.117,0.017-9.392-3.893-9.829-8.992
			l-14.167-222.546c-0.068-0.328-0.156-0.652-0.265-0.969c-0.309-1.646-1.085-3.168-2.235-4.386
			c-0.378-0.378-0.792-0.718-1.235-1.016c-0.422-0.304-0.871-0.567-1.343-0.785c-0.877-0.265-1.754-0.531-2.631-0.797
			C134.33,246.9,51.13,211.217,21.967,168.655c-5.608-7.97-6.245-18.421-1.646-27.013c4.377-8.469,13.154-13.747,22.687-13.642
			h170.452l0.019,8.629c0.009,4.706,3.827,8.516,8.533,8.516h0.017c2.263-0.004,4.432-0.907,6.03-2.511s2.492-3.776,2.487-6.04
			l-0.037-17.071c-0.005-11.45,1.029-22.877,3.091-34.141l44.86-0.101c2.084,11.12,3.166,22.405,3.234,33.719
			c-0.009,0.163-0.094,0.301-0.094,0.466c0,0.193,0.097,0.353,0.11,0.543l0.036,16.466c0.011,4.705,3.828,8.513,8.533,8.512h0.016
			c2.264-0.004,4.434-0.908,6.031-2.512c1.597-1.604,2.492-3.778,2.486-6.042L298.794,128h170.198
			c9.533-0.105,18.31,5.173,22.688,13.642c4.6,8.594,3.961,19.046-1.65,27.017C460.871,211.217,377.671,246.9,287.705,255.442z"/>
		<path d="M119.467,145.067c-18.851,0-34.133,15.282-34.133,34.133s15.282,34.133,34.133,34.133S153.6,198.051,153.6,179.2
			C153.579,160.358,138.309,145.088,119.467,145.067z M119.467,196.267c-9.426,0-17.067-7.641-17.067-17.067
			c0-9.426,7.641-17.067,17.067-17.067s17.067,7.641,17.067,17.067C136.524,188.622,128.889,196.257,119.467,196.267z"/>
		<path d="M392.534,145.067c-18.851,0-34.133,15.282-34.133,34.133s15.282,34.133,34.133,34.133s34.133-15.282,34.133-34.133
			C426.646,160.358,411.376,145.088,392.534,145.067z M392.534,196.267c-9.426,0-17.067-7.641-17.067-17.067
			c0-9.426,7.641-17.067,17.067-17.067S409.6,169.774,409.6,179.2C409.591,188.622,401.955,196.257,392.534,196.267z"/>
		<path d="M256,144.683c-14.132,0.015-25.585,11.468-25.6,25.6v60.258c0.009,9.422,7.645,17.057,17.067,17.067h17.067
			c9.422-0.009,17.057-7.645,17.067-17.067v-60.258C281.585,156.151,270.132,144.699,256,144.683z M256,161.75
			c4.71,0.006,8.527,3.823,8.533,8.533l0.005,25.983h-17.072v-25.983C247.473,165.573,251.29,161.756,256,161.75z M247.467,230.542
			v-17.208h17.075l0.004,17.208H247.467z"/>
	</g>
</g>
<g>
</g>
<g>
</g>
<g>
</g>
<g>
</g>
<g>
</g>
<g>
</g>
<g>
</g>
<g>
</g>
<g>
</g>
<g>
</g>
<g>
</g>
<g>
</g>
<g>
</g>
<g>
</g>
<g>
</g>
</svg>
