<?xml version="1.0" encoding="iso-8859-1"?>
<!-- Generator: Adobe Illustrator 19.0.0, SVG Export Plug-In . SVG Version: 6.00 Build 0)  -->
<svg version="1.1" id="Capa_1" xmlns="http://www.w3.org/2000/svg" xmlns:xlink="http://www.w3.org/1999/xlink" x="0px" y="0px"
	 viewBox="0 0 512.001 512.001" style="enable-background:new 0 0 512.001 512.001;" xml:space="preserve">
<g>
	<g transform="translate(1 1)">
		<path style="fill:#795548;" d="M284.867,84.334v-12.8c0-35.346-28.654-64-64-64s-64,28.654-64,64v106.667l42.667-51.2V67.267
			c0-14.138,11.462-25.6,25.6-25.6c14.139,0,25.6,11.462,25.6,25.6v17.067H284.867z"/>
		<path style="fill:#1566C0;" d="M353.133,306.201v170.667c0.009,6.792-2.685,13.309-7.488,18.112
			c-4.803,4.803-11.32,7.497-18.112,7.488H208.067c-6.792,0.009-13.309-2.685-18.112-7.488c-4.803-4.803-7.497-11.32-7.488-18.112
			V306.201c-0.009-19.33,7.666-37.872,21.333-51.541c6.153-6.157,13.384-11.131,21.333-14.677L242.2,109.934v-8.533h51.2v8.533
			l17.067,130.048c7.949,3.546,15.18,8.521,21.333,14.677c6.756,6.772,12.12,14.802,15.787,23.637
			C351.272,287.137,353.158,296.623,353.133,306.201z"/>
		<path style="fill:#2296F3;" d="M327.533,306.201v170.667c0.009,6.792-2.685,13.309-7.488,18.112
			c-4.803,4.803-11.32,7.497-18.112,7.488h-93.867c-6.792,0.009-13.309-2.685-18.112-7.488c-4.803-4.803-7.497-11.32-7.488-18.112
			V306.201c-0.009-19.33,7.666-37.872,21.333-51.541c6.153-6.157,13.384-11.131,21.333-14.677L242.2,109.934v-8.533h25.6v8.533
			l17.067,130.048c7.949,3.546,15.18,8.521,21.333,14.677c6.756,6.772,12.12,14.802,15.787,23.637
			C325.672,287.137,327.558,296.623,327.533,306.201z"/>
		<path style="fill:#3F51B5;" d="M242.2,75.801h51.2c9.426,0,17.067,7.641,17.067,17.067l0,0c0,9.426-7.641,17.067-17.067,17.067
			h-51.2c-9.426,0-17.067-7.641-17.067-17.067l0,0C225.133,83.442,232.774,75.801,242.2,75.801z"/>
		<rect x="182.467" y="314.734" style="fill:#BBD1B5;" width="170.667" height="136.533"/>
		<rect x="182.467" y="314.734" style="fill:#F5F5F5;" width="145.067" height="136.533"/>
		<polygon style="fill:#FFEB3A;" points="267.8,348.867 278.347,371.335 301.934,374.945 284.867,392.438 288.895,417.134 
			267.8,405.469 246.706,417.134 250.733,392.438 233.667,374.945 257.253,371.335 		"/>
	</g>
	<g>
		<path d="M198.767,249.626c-15.316,15.238-23.899,35.97-23.834,57.575v170.667c0.022,18.842,15.291,34.112,34.133,34.133h119.467
			c18.842-0.022,34.112-15.291,34.133-34.133V307.201c0.027-10.706-2.082-21.311-6.204-31.192
			c-4.093-9.864-10.083-18.828-17.629-26.383c-5.732-5.742-12.309-10.572-19.504-14.321L303.883,117.6
			c11.403-4.538,17.974-16.536,15.657-28.587c-2.317-12.052-12.868-20.758-25.14-20.745h-0.216
			c-2.283-39.154-35.295-69.39-74.498-68.235s-70.378,33.282-70.353,72.502v106.667c0,3.593,2.25,6.801,5.628,8.024
			c3.378,1.223,7.16,0.199,9.46-2.561l42.667-51.2c1.279-1.533,1.979-3.466,1.979-5.463V68.267c0-9.426,7.641-17.067,17.067-17.067
			S243.2,58.842,243.2,68.267c-12.272-0.014-22.824,8.693-25.14,20.745c-2.317,12.052,4.255,24.05,15.657,28.587l-15.446,117.706
			C211.076,239.054,204.499,243.883,198.767,249.626z M345.6,443.734H192V324.267h153.6V443.734z M328.533,494.934H209.067
			c-9.422-0.009-17.057-7.645-17.067-17.067v-17.067h153.6v17.067C345.591,487.289,337.955,494.924,328.533,494.934z
			 M226.133,34.134C207.291,34.155,192.022,49.425,192,68.267v56.646l-25.6,30.717V72.534
			c-0.014-29.798,23.529-54.278,53.305-55.425s55.133,21.448,57.412,51.159h-16.851C260.245,49.425,244.976,34.155,226.133,34.134z
			 M243.2,85.334h51.2c4.713,0,8.533,3.821,8.533,8.533c0,4.713-3.821,8.533-8.533,8.533h-51.2c-4.713,0-8.533-3.821-8.533-8.533
			C234.667,89.154,238.487,85.334,243.2,85.334z M234.596,242.092l16.092-122.625h36.225l16.092,122.625
			c0.388,2.946,2.278,5.478,4.992,6.688c6.997,3.115,13.36,7.492,18.771,12.913c5.972,5.983,10.71,13.082,13.946,20.892
			c3.249,7.799,4.911,16.168,4.887,24.617H192c-0.052-17.076,6.73-33.463,18.833-45.508c5.411-5.421,11.774-9.798,18.771-12.912
			C232.318,247.57,234.208,245.038,234.596,242.092z"/>
		<path d="M242.617,396.309l-3.333,20.45c-0.528,3.225,0.834,6.469,3.506,8.351c2.672,1.882,6.184,2.073,9.044,0.49l16.967-9.379
			l16.967,9.379c2.86,1.582,6.372,1.392,9.044-0.49c2.672-1.882,4.033-5.126,3.506-8.351l-3.333-20.45l14.058-14.408
			c2.233-2.289,2.999-5.635,1.983-8.668c-1.016-3.032-3.642-5.242-6.804-5.724l-19.083-2.917l-8.613-18.35
			c-1.406-2.995-4.416-4.908-7.725-4.908c-3.309,0-6.319,1.913-7.725,4.908l-8.613,18.35l-19.083,2.917
			c-3.162,0.482-5.788,2.692-6.804,5.724c-1.016,3.033-0.25,6.378,1.983,8.668L242.617,396.309z M259.542,380.776
			c2.814-0.431,5.228-2.236,6.437-4.813l2.821-6.012l2.821,6.012c1.21,2.577,3.624,4.381,6.437,4.813l7.171,1.092l-5.471,5.608
			c-1.892,1.938-2.75,4.66-2.313,7.333l1.2,7.354l-5.717-3.158c-2.569-1.422-5.689-1.422-8.258,0l-5.717,3.158l1.2-7.354
			c0.438-2.673-0.42-5.395-2.313-7.333l-5.471-5.609L259.542,380.776z"/>
	</g>
</g>
<g>
</g>
<g>
</g>
<g>
</g>
<g>
</g>
<g>
</g>
<g>
</g>
<g>
</g>
<g>
</g>
<g>
</g>
<g>
</g>
<g>
</g>
<g>
</g>
<g>
</g>
<g>
</g>
<g>
</g>
</svg>
