<?xml version="1.0" encoding="iso-8859-1"?>
<!-- Generator: Adobe Illustrator 19.0.0, SVG Export Plug-In . SVG Version: 6.00 Build 0)  -->
<svg version="1.1" id="Capa_1" xmlns="http://www.w3.org/2000/svg" xmlns:xlink="http://www.w3.org/1999/xlink" x="0px" y="0px"
	 viewBox="0 0 512.001 512.001" style="enable-background:new 0 0 512.001 512.001;" xml:space="preserve">
<g>
	<g transform="translate(1 1)">
		<rect x="127.001" y="33.134" style="fill:#4E342E;" width="68.267" height="136.533"/>
		<path style="fill:#558B30;" d="M425.667,24.601v196.267h-102.4V24.601c0.027-9.414,7.652-17.039,17.067-17.067h68.267
			C418.015,7.562,425.64,15.186,425.667,24.601z"/>
		<path style="fill:#8BC34A;" d="M400.067,24.601v196.267h-93.867v-8.533c0.014-4.707,3.826-8.519,8.533-8.533h8.533v-93.867h-8.533
			c-4.707-0.014-8.519-3.826-8.533-8.533V84.334c0.014-4.707,3.826-8.519,8.533-8.533h8.533v-51.2
			c0.027-9.414,7.652-17.039,17.067-17.067h42.667C392.415,7.562,400.04,15.186,400.067,24.601z"/>
		<path style="fill:#607D8B;" d="M212.334,178.201v238.933c0,0-25.6,17.067-25.6,85.333c-9.025-4.036-17.487-9.228-25.173-15.445
			c-12.051-9.726-22.279-21.514-30.208-34.816c-14.193-23.87-21.599-51.163-21.419-78.933V178.201H212.334z"/>
		<path style="fill:#CFD8DC;" d="M186.734,178.201v238.933c0,0-21.675,14.421-25.173,69.888
			c-12.051-9.726-22.279-21.514-30.208-34.816c-14.193-23.87-21.599-51.163-21.419-78.933V195.267h-25.6v-17.067H186.734z"/>
		<path style="fill:#4CAF50;" d="M255.001,178.201c-0.068,9.397-7.669,16.998-17.067,17.067h-153.6
			c-9.414-0.028-17.039-7.653-17.067-17.067c0.068-9.397,7.669-16.999,17.067-17.067h153.6
			C247.348,161.162,254.973,168.786,255.001,178.201z"/>
		<path style="fill:#2E7D32;" d="M442.734,203.801l0,273.067c0.009,6.792-2.685,13.309-7.488,18.112
			c-4.803,4.803-11.32,7.497-18.112,7.488h-102.4c-4.707-0.014-8.519-3.826-8.533-8.533v-281.6c0.014-4.707,3.826-8.519,8.533-8.533
			H442.734z"/>
		<g>
			<path style="fill:#4CAF50;" d="M417.134,203.801l0,273.067c0.009,6.792-2.685,13.309-7.488,18.112
				c-4.803,4.803-11.32,7.497-18.112,7.488h-76.8c-4.707-0.014-8.519-3.826-8.533-8.533v-281.6c0.014-4.707,3.826-8.519,8.533-8.533
				H417.134z"/>
			<path style="fill:#4CAF50;" d="M442.734,84.334v17.067c-0.014,4.707-3.826,8.519-8.533,8.533h-59.733
				c9.426,0,17.067-7.641,17.067-17.067s-7.641-17.067-17.067-17.067h59.733C438.908,75.815,442.72,79.627,442.734,84.334z"/>
			<path style="fill:#4CAF50;" d="M212.334,24.601c0.024,4.528-1.793,8.871-5.035,12.032c-3.161,3.241-7.504,5.059-12.032,5.035
				h-68.267c-9.414-0.028-17.039-7.653-17.067-17.067c-0.024-4.528,1.793-8.871,5.035-12.032c3.161-3.241,7.504-5.059,12.032-5.035
				h68.267C204.681,7.562,212.306,15.186,212.334,24.601z"/>
			<path style="fill:#4CAF50;" d="M391.534,92.867c-0.028,9.414-7.652,17.039-17.067,17.067h-59.733
				c-4.707-0.014-8.519-3.826-8.533-8.533V84.334c0.014-4.707,3.826-8.519,8.533-8.533h59.733
				C383.881,75.828,391.506,83.453,391.534,92.867z"/>
		</g>
	</g>
	<g>
		<path d="M145.067,247.467c4.713,0,8.533-3.821,8.533-8.533v-8.533c0-4.713-3.82-8.533-8.533-8.533s-8.533,3.821-8.533,8.533v8.533
			C136.534,243.647,140.354,247.467,145.067,247.467z"/>
		<path d="M145.067,375.467c4.713,0,8.533-3.82,8.533-8.533v-93.867c0-4.713-3.82-8.533-8.533-8.533s-8.533,3.82-8.533,8.533v93.867
			C136.534,371.647,140.354,375.467,145.067,375.467z"/>
		<path d="M85.334,153.601c-14.138,0-25.6,11.462-25.6,25.6c0,14.138,11.462,25.6,25.6,25.6H102.4v169.471
			c0,61.021,32.129,114.792,81.854,136.988c2.64,1.179,5.697,0.941,8.123-0.632c2.426-1.573,3.89-4.268,3.889-7.16
			c0-61.617,21.725-78.171,21.8-78.234c2.374-1.582,3.8-4.247,3.8-7.1V204.801h17.067c14.138,0,25.6-11.462,25.6-25.6
			c0-14.139-11.462-25.6-25.6-25.6h-34.133V49.655c3.565-1.215,6.8-3.237,9.454-5.908c4.901-4.761,7.65-11.313,7.613-18.146
			c-0.015-14.132-11.468-25.585-25.6-25.6h-68.267c-6.757-0.052-13.247,2.638-17.988,7.454c-4.901,4.761-7.65,11.313-7.613,18.146
			c0.033,10.813,6.868,20.435,17.067,24.027v103.973H85.334z M204.801,414.213c-7.446,7.258-22.717,27.771-25.242,75.379
			c-36.883-22.217-60.092-66.033-60.092-115.321V204.801h85.333V414.213z M247.467,179.201c-0.006,4.71-3.823,8.527-8.533,8.533
			h-153.6c-4.713,0-8.533-3.821-8.533-8.533c0-4.713,3.821-8.533,8.533-8.533h153.6C243.644,170.674,247.461,174.49,247.467,179.201
			z M122.08,19.522c1.557-1.59,3.695-2.476,5.921-2.454h68.267c4.71,0.006,8.527,3.823,8.533,8.533
			c0.007,2.298-0.937,4.497-2.608,6.075c-1.558,1.592-3.698,2.479-5.925,2.458h-68.267c-4.71-0.006-8.527-3.823-8.533-8.533
			C119.46,23.3,120.406,21.1,122.08,19.522z M136.534,51.201h51.2v102.4h-51.2V51.201z"/>
		<path d="M341.334,426.667c-4.713,0-8.533,3.82-8.533,8.533v25.6c0,4.713,3.821,8.533,8.533,8.533c4.713,0,8.533-3.82,8.533-8.533
			v-25.6C349.867,430.488,346.047,426.667,341.334,426.667z"/>
		<path d="M341.334,366.934c-4.713,0-8.533,3.82-8.533,8.533v25.6c0,4.713,3.821,8.533,8.533,8.533c4.713,0,8.533-3.82,8.533-8.533
			v-25.6C349.867,370.755,346.047,366.934,341.334,366.934z"/>
		<path d="M341.334,307.201c-4.713,0-8.533,3.82-8.533,8.533v25.6c0,4.713,3.821,8.533,8.533,8.533c4.713,0,8.533-3.82,8.533-8.533
			v-25.6C349.867,311.021,346.047,307.201,341.334,307.201z"/>
		<path d="M341.334,247.467c-4.713,0-8.533,3.821-8.533,8.533v25.6c0,4.713,3.821,8.533,8.533,8.533c4.713,0,8.533-3.82,8.533-8.533
			v-25.6C349.867,251.288,346.047,247.467,341.334,247.467z"/>
		<path d="M452.267,102.401V85.334c-0.009-9.422-7.645-17.057-17.067-17.067V25.601c-0.015-14.132-11.468-25.585-25.6-25.6h-68.267
			c-14.132,0.015-25.585,11.468-25.6,25.6v42.667c-9.422,0.009-17.057,7.645-17.067,17.067v17.067
			c0.009,9.422,7.645,17.057,17.067,17.067v76.8c-9.422,0.009-17.057,7.645-17.067,17.067v281.6
			c0.009,9.422,7.645,17.057,17.067,17.067h102.4c18.842-0.022,34.112-15.291,34.133-34.133V204.801c0-4.713-3.82-8.533-8.533-8.533
			h-8.533v-76.8C444.622,119.458,452.258,111.822,452.267,102.401z M435.213,102.401h-35.718c2.097-5.496,2.097-11.571,0-17.067
			h35.706L435.213,102.401z M332.801,25.601c0.006-4.71,3.823-8.527,8.533-8.533h8.533v17.067c0,4.713,3.82,8.533,8.533,8.533
			s8.533-3.821,8.533-8.533V17.067h42.667c4.71,0.006,8.527,3.823,8.533,8.533v42.667h-85.333V25.601z M315.734,85.334h59.733
			c4.713,0,8.533,3.821,8.533,8.533c0,4.713-3.821,8.533-8.533,8.533h-59.733V85.334z M435.201,477.867
			c-0.009,9.422-7.645,17.057-17.067,17.067h-68.267c0-4.713-3.821-8.533-8.533-8.533c-4.713,0-8.533,3.82-8.533,8.533h-17.067
			v-281.6h17.067v8.533c0,4.713,3.821,8.533,8.533,8.533c4.713,0,8.533-3.821,8.533-8.533v-8.533h85.333V477.867z M418.134,196.267
			h-51.2v-17.067c0-4.713-3.82-8.533-8.533-8.533s-8.533,3.821-8.533,8.533v17.067h-17.067v-76.8h17.067v17.067
			c0,4.713,3.82,8.533,8.533,8.533s8.533-3.82,8.533-8.533v-17.067h51.2V196.267z"/>
	</g>
</g>
<g>
</g>
<g>
</g>
<g>
</g>
<g>
</g>
<g>
</g>
<g>
</g>
<g>
</g>
<g>
</g>
<g>
</g>
<g>
</g>
<g>
</g>
<g>
</g>
<g>
</g>
<g>
</g>
<g>
</g>
</svg>
