<?xml version="1.0" encoding="iso-8859-1"?>
<!-- Generator: Adobe Illustrator 19.0.0, SVG Export Plug-In . SVG Version: 6.00 Build 0)  -->
<svg version="1.1" id="Capa_1" xmlns="http://www.w3.org/2000/svg" xmlns:xlink="http://www.w3.org/1999/xlink" x="0px" y="0px"
	 viewBox="0 0 511.977 511.977" style="enable-background:new 0 0 511.977 511.977;" xml:space="preserve">
<g>
	<g transform="translate(1 1)">
		<path style="fill:#607D8B;" d="M363.689,385.184l-0.085-0.085c-14.507-12.885-35.669-31.915-57.344-51.371l-0.256,0.256h-39.851
			c21.589,19.371,42.667,38.315,57.088,51.115v0.085h-281.6c-9.414-0.028-17.039-7.652-17.067-17.067v-17.067
			c0.028-9.414,7.652-17.039,17.067-17.067h34.133l-8.533-8.533L363.689,385.184z"/>
		<path style="fill:#CFD8DC;" d="M67.241,325.451h-6.997c4.268,3.101,8.712,5.95,13.312,8.533H41.641
			c-9.414,0.028-17.039,7.652-17.067,17.067v17.067c0.028,9.414,7.652,17.039,17.067,17.067h281.6v-0.085
			c-3.499-3.157-7.424-6.656-11.691-10.411c-13.056-11.691-29.099-26.112-45.397-40.704l-0.256-0.256l-0.256,0.256l-2.133-8.533
			H67.241z"/>
		<path style="fill:#2E7D32;" d="M502.441,337.653c0.061,23.482-10.595,45.709-28.941,60.366s-42.378,20.142-65.267,14.898
			c-9.229-1.982-18.001-5.688-25.856-10.923c0,0-7.253-6.485-18.688-16.811l-0.085-0.085
			c-14.507-12.885-35.669-31.915-57.344-51.371l-0.256,0.256H73.555c-4.6-2.583-9.044-5.432-13.312-8.533
			c-30.459-21.758-49.66-55.938-52.395-93.269c-2.49-35.43,9.836-70.304,34.037-96.3s58.105-40.783,93.622-40.831H239.87
			c88.108-0.004,169.06,48.508,210.603,126.208l42.837,79.957C499.299,312.428,502.435,324.942,502.441,337.653z"/>
		<path style="fill:#607D8B;" d="M363.689,385.184h-40.448v-0.085c-14.421-12.8-35.499-31.744-57.088-51.115h39.851l0.256-0.256
			c21.675,19.456,42.837,38.485,57.344,51.371L363.689,385.184z"/>
		<path style="fill:#4CAF50;" d="M468.307,337.653c-0.158,29.555-17.008,56.483-43.52,69.547
			c-5.269,2.562-10.827,4.481-16.555,5.717c-9.229-1.982-18.001-5.688-25.856-10.923c0,0-7.253-6.485-18.688-16.811l-0.085-0.085
			c-14.507-12.885-35.669-31.915-57.344-51.371l-0.256,0.256h-33.621l-0.256-0.256l-0.256,0.256H73.555
			c-4.6-2.583-9.044-5.432-13.312-8.533c-30.459-21.758-49.66-55.938-52.395-93.269c-2.49-35.43,9.836-70.304,34.037-96.3
			s58.105-40.783,93.622-40.831h70.229c88.108-0.004,169.06,48.508,210.603,126.208l42.837,79.957
			C465.166,312.428,468.301,324.942,468.307,337.653z"/>
		<path style="fill:#FFEB3A;" d="M126.974,299.851c64.615-37.664,59.645-117.701,59.645-117.701
			c-44.734,9.416-59.645-18.832-59.645-18.832s-14.911,28.248-59.645,18.832C67.329,182.149,62.359,262.186,126.974,299.851z"/>
	</g>
	<g>
		<path d="M458.999,218.234C416.04,137.692,332.152,87.421,240.87,87.517H136.507c-37.883,0.046-74.048,15.814-99.863,43.54
			S-2.319,195.981,0.337,233.771c2.651,35.984,19.673,69.387,47.23,92.679h-4.926c-14.132,0.015-25.585,11.468-25.6,25.6v17.067
			c0.015,14.132,11.468,25.585,25.6,25.6h318.718l16.324,14.633c0.306,0.276,0.632,0.528,0.975,0.754
			c32.747,21.776,76.107,18.502,105.213-7.944c29.107-26.446,36.509-69.294,17.962-103.973L458.999,218.234z M42.641,377.651
			c-4.71-0.006-8.527-3.823-8.533-8.533v-17.067c0.006-4.71,3.823-8.527,8.533-8.533h261.606l38.075,34.133H42.641z
			 M456.228,400.501c-21.778,10.305-47.325,8.687-67.629-4.283L275.132,294.496c-2.27-2.035-5.453-2.704-8.351-1.756
			c-2.897,0.948-5.069,3.371-5.696,6.354c-0.627,2.983,0.385,6.075,2.655,8.11l21.469,19.246H77.04
			c-46.659-26.877-69.423-81.763-55.482-133.774s61.103-88.154,114.949-88.093H240.87c84.986-0.088,163.088,46.717,203.083,121.704
			l42.829,79.946c8.815,16.486,10.538,35.849,4.774,53.632C485.792,377.65,473.037,392.32,456.228,400.501L456.228,400.501z"/>
		<path d="M192.787,176.359c-1.969-1.507-4.5-2.077-6.925-1.558c-37.383,7.862-49.871-13.633-50.342-14.467
			c-1.476-2.758-4.343-4.487-7.471-4.504h-0.096c-3.108,0.017-5.966,1.706-7.479,4.421c-0.517,0.912-13.033,22.4-50.387,14.55
			c-2.425-0.523-4.957,0.047-6.925,1.558c-1.973,1.502-3.196,3.787-3.35,6.263c-0.217,3.483-4.513,85.746,63.867,125.6
			c2.654,1.55,5.938,1.55,8.592,0c68.379-39.854,64.083-122.117,63.867-125.6C195.983,180.146,194.76,177.861,192.787,176.359z
			 M127.974,290.834c-42.696-27.716-49.912-77.042-51.008-97.679c18.451,2.988,37.253-2.656,51.008-15.312
			c13.754,12.658,32.557,18.302,51.008,15.312C177.887,213.792,170.67,263.117,127.974,290.834z"/>
	</g>
</g>
<g>
</g>
<g>
</g>
<g>
</g>
<g>
</g>
<g>
</g>
<g>
</g>
<g>
</g>
<g>
</g>
<g>
</g>
<g>
</g>
<g>
</g>
<g>
</g>
<g>
</g>
<g>
</g>
<g>
</g>
</svg>
