<?xml version="1.0" encoding="iso-8859-1"?>
<!-- Generator: Adobe Illustrator 19.0.0, SVG Export Plug-In . SVG Version: 6.00 Build 0)  -->
<svg version="1.1" id="Capa_1" xmlns="http://www.w3.org/2000/svg" xmlns:xlink="http://www.w3.org/1999/xlink" x="0px" y="0px"
	 viewBox="0 0 512 512" style="enable-background:new 0 0 512 512;" xml:space="preserve">
<g>
	<g transform="translate(0 1)">
		<rect x="162.135" y="33.133" style="fill:#37474F;" width="102.4" height="119.467"/>
		<g>
			<path style="fill:#607D8B;" d="M146.211,127h134.248c2.566,0,5.027,1.019,6.842,2.834s2.834,4.276,2.834,6.842v58.591h-153.6
				v-58.591C136.535,131.332,140.867,127,146.211,127z"/>
			<path style="fill:#607D8B;" d="M443.735,122.001v167.132c0,4.713-3.821,8.533-8.533,8.533h-34.133
				c-4.713,0-8.533-3.821-8.533-8.533V144.816c0-2.281-0.914-4.468-2.537-6.071l-78.512-77.549
				c-1.597-1.578-3.752-2.462-5.997-2.462H153.602c-4.713,0-8.533-3.821-8.533-8.533V16.067c0-4.713,3.82-8.533,8.533-8.533h175.665
				c2.263,0,4.434,0.899,6.034,2.499l105.935,105.935C442.836,117.568,443.735,119.738,443.735,122.001z"/>
		</g>
		<path style="fill:#2E7D32;" d="M358.317,289.133c-0.634-34.268-5.945-68.289-15.787-101.12c-1.747-5.732-6.98-9.691-12.971-9.813
			H97.111c-5.991,0.123-11.224,4.082-12.971,9.813c-9.842,32.831-15.153,66.852-15.787,101.12c-0.085,2.475-0.085,4.864-0.085,7.168
			c-0.226,35.54,6.469,70.784,19.712,103.765c23.125,56.32,64.427,95.659,112.555,101.632c3.453,0.443,6.93,0.671,10.411,0.683
			c0.794,0.07,1.592,0.098,2.389,0.085c53.504,0,100.181-41.131,125.355-102.4c13.242-32.981,19.938-68.225,19.712-103.765
			C358.402,293.997,358.402,291.608,358.317,289.133z M145.069,296.301c0-2.389,0-4.779,0.085-7.168h136.363
			c0.085,2.475,0.085,4.864,0.085,7.168c0.161,34.804-2.953,69.545-9.301,103.765H154.37
			C148.022,365.847,144.908,331.105,145.069,296.301z"/>
		<g>
			<path style="fill:#4CAF50;" d="M281.602,296.301c0.161,34.804-2.953,69.545-9.301,103.765H154.37
				c-6.348-34.22-9.462-68.962-9.301-103.765c0-2.389,0-4.779,0.085-7.168h136.363C281.602,291.608,281.602,293.997,281.602,296.301
				z"/>
			<path style="fill:#4CAF50;" d="M332.717,289.133c-0.634-34.268-5.945-68.289-15.787-101.12c-1.747-5.732-6.98-9.691-12.971-9.813
				H97.111c-5.991,0.123-11.224,4.082-12.971,9.813c-9.842,32.831-15.153,66.852-15.787,101.12
				c-0.085,2.475-0.085,4.864-0.085,7.168c-0.226,35.54,6.469,70.784,19.712,103.765c23.125,56.32,64.427,95.659,112.555,101.632
				c1.536-0.171,3.072-0.427,4.608-0.683c10.76-1.861,21.175-5.342,30.891-10.325h0.085c32.597-16.384,59.819-48.811,76.971-90.624
				c13.243-32.981,19.938-68.225,19.712-103.765C332.802,293.997,332.802,291.608,332.717,289.133z M154.37,400.067
				c-6.348-34.22-9.462-68.962-9.301-103.765c0-2.389,0-4.779,0.085-7.168h136.363c0.085,2.475,0.085,4.864,0.085,7.168
				c0.161,34.804-2.953,69.545-9.301,103.765H154.37z"/>
		</g>
		<path style="fill:#558B30;" d="M358.402,296.301c0.226,35.54-6.47,70.784-19.712,103.765h-66.389
			c6.348-34.22,9.462-68.962,9.301-103.765c0-2.304,0-4.693-0.085-7.168h76.8C358.402,291.608,358.402,293.997,358.402,296.301z"/>
		<g>
			<path style="fill:#8BC34A;" d="M332.802,296.301c0.226,35.54-6.469,70.784-19.712,103.765h-40.789
				c6.348-34.22,9.462-68.962,9.301-103.765c0-2.304,0-4.693-0.085-7.168h51.2C332.802,291.608,332.802,293.997,332.802,296.301z"/>
			<path style="fill:#8BC34A;" d="M281.517,289.133H145.154c0.235-31.389,2.372-62.736,6.4-93.867
				c0.853-6.144,1.707-11.947,2.731-17.067h118.101c1.024,5.12,1.877,10.923,2.731,17.067
				C279.144,226.398,281.282,257.744,281.517,289.133z"/>
			<path style="fill:#8BC34A;" d="M272.301,400.067c-8.021,41.813-20.821,74.24-36.181,90.624h-0.085
				c-5.529,6.997-13.794,11.286-22.699,11.776c-0.797,0.013-1.595-0.016-2.389-0.085c-1.978-0.242-3.924-0.7-5.803-1.365
				c-21.675-7.851-40.277-46.421-50.773-100.949H272.301z"/>
			<path style="fill:#8BC34A;" d="M154.37,400.067H87.981c-13.243-32.981-19.938-68.225-19.712-103.765c0-2.304,0-4.693,0.085-7.168
				h76.8c-0.085,2.389-0.085,4.779-0.085,7.168C144.908,331.105,148.022,365.847,154.37,400.067z"/>
		</g>
	</g>
	<path d="M401.069,307.2h34.133c9.421-0.011,17.056-7.645,17.067-17.067V123c0.012-4.529-1.788-8.874-5-12.067L341.335,5
		c-3.207-3.191-7.543-4.988-12.067-5H153.602c-9.421,0.011-17.056,7.645-17.067,17.067V51.2c0.011,9.421,7.645,17.056,17.067,17.067
		v51.2h-7.392c-10.052,0.01-18.198,8.156-18.208,18.208v32.992H97.144c-9.668,0.129-18.163,6.443-21.075,15.663
		C66.03,219.913,60.59,254.703,59.896,289.748c-0.006,0.135-0.078,0.249-0.078,0.385c0,0.11,0.059,0.202,0.063,0.312
		c-0.048,2.299-0.146,4.648-0.146,6.896c-0.195,36.386,6.671,72.465,20.215,106.236c0.153,0.505,0.354,0.994,0.602,1.46
		C107.19,468.932,156.718,512,213.335,512s106.145-43.067,132.783-106.96c0.248-0.467,0.449-0.957,0.603-1.463
		c13.544-33.771,20.409-69.849,20.215-106.235c0-2.248-0.098-4.597-0.146-6.896c0.004-0.11,0.063-0.201,0.063-0.312
		c0-0.137-0.071-0.25-0.078-0.385c-0.693-35.045-6.134-69.835-16.172-103.419c-2.912-9.22-11.407-15.533-21.075-15.663h-30.858
		v-32.992c-0.01-10.052-8.156-18.198-18.208-18.208h-7.392v-51.2h32.417l78.517,77.55v144.317
		C384.013,299.555,391.647,307.189,401.069,307.2z M92.269,191.713c0.606-2.233,2.566-3.833,4.875-3.979h47.014
		c-4.393,31.108-6.872,62.455-7.425,93.867H77.218C78.44,251.124,83.497,220.924,92.269,191.713z M349.845,298.667
		c0.025,32.049-5.703,63.842-16.912,93.867h-50.451c5.077-31.031,7.632-62.423,7.642-93.867H349.845z M265.264,392.533H161.407
		c-5.259-31.011-7.863-62.413-7.782-93.867h119.422C273.127,330.12,270.523,361.523,265.264,392.533z M213.335,494.933
		c-17.811,0-36.891-32.308-48.572-85.333h97.143C250.226,462.625,231.147,494.933,213.335,494.933z M76.825,298.667h59.72
		c0.009,31.444,2.565,62.835,7.642,93.867H93.737C82.528,362.508,76.8,330.715,76.825,298.667z M153.811,281.6
		c0.553-31.417,3.088-62.769,7.591-93.867h103.867c4.503,31.098,7.038,62.449,7.591,93.867H153.811z M101.066,409.6h46.337
		c4.723,27.496,14.481,53.884,28.783,77.839C145.336,474.793,118.901,446.841,101.066,409.6z M250.485,487.439
		c14.302-23.954,24.06-50.342,28.783-77.839h46.337C307.77,446.841,281.334,474.793,250.485,487.439z M334.402,191.713
		c8.772,29.212,13.829,59.412,15.05,89.887h-59.515c-0.553-31.411-3.033-62.759-7.425-93.867h47.014
		C331.836,187.88,333.796,189.479,334.402,191.713z M281.602,137.675v32.992H145.069v-32.992c0-0.303,0.12-0.593,0.334-0.808
		c0.214-0.214,0.505-0.334,0.808-0.334h134.25c0.303,0,0.593,0.12,0.808,0.334C281.482,137.082,281.602,137.372,281.602,137.675z
		 M256.002,119.467h-85.333v-51.2h85.333V119.467z M317.493,56.137c-3.185-3.175-7.503-4.951-12-4.937H153.602V17.067h175.667
		L435.202,123v167.133h-34.133V145.817c-0.014-4.559-1.836-8.925-5.067-12.142L317.493,56.137z"/>
</g>
<g>
</g>
<g>
</g>
<g>
</g>
<g>
</g>
<g>
</g>
<g>
</g>
<g>
</g>
<g>
</g>
<g>
</g>
<g>
</g>
<g>
</g>
<g>
</g>
<g>
</g>
<g>
</g>
<g>
</g>
</svg>
