<?xml version="1.0" encoding="iso-8859-1"?>
<!-- Generator: Adobe Illustrator 19.0.0, SVG Export Plug-In . SVG Version: 6.00 Build 0)  -->
<svg version="1.1" id="Capa_1" xmlns="http://www.w3.org/2000/svg" xmlns:xlink="http://www.w3.org/1999/xlink" x="0px" y="0px"
	 viewBox="0 0 512 512" style="enable-background:new 0 0 512 512;" xml:space="preserve">
<g>
	<g transform="translate(1 1)">
		<rect x="152.6" y="16.067" style="fill:#37474F;" width="102.4" height="119.467"/>
		<g>
			<path style="fill:#607D8B;" d="M136.676,109.933h134.248c5.344,0,9.676,4.332,9.676,9.676V178.2H127v-58.591
				C127,114.265,131.332,109.933,136.676,109.933z"/>
			<path style="fill:#607D8B;" d="M434.2,122.001v167.132c0,4.713-3.82,8.533-8.533,8.533h-34.133c-4.713,0-8.533-3.821-8.533-8.533
				V144.816c0-2.281-0.914-4.468-2.537-6.071l-78.512-77.549c-1.597-1.578-3.752-2.462-5.997-2.462H144.067
				c-4.713,0-8.533-3.821-8.533-8.533V16.067c0-4.713,3.821-8.533,8.533-8.533h175.665c2.263,0,4.434,0.899,6.034,2.499
				l105.935,105.935C433.301,117.568,434.2,119.738,434.2,122.001z"/>
		</g>
		<path style="fill:#2E7D32;" d="M100.291,144.067h207.019c8.813,0,15.957,7.144,15.957,15.957v326.485
			c0,8.813-7.144,15.957-15.957,15.957H100.291c-8.813,0-15.957-7.144-15.957-15.957V160.024
			C84.333,151.211,91.478,144.067,100.291,144.067z"/>
		<path style="fill:#4CAF50;" d="M100.291,144.067h181.419c8.813,0,15.957,7.144,15.957,15.957v326.485
			c0,8.813-7.144,15.957-15.957,15.957H100.291c-8.813,0-15.957-7.144-15.957-15.957V160.024
			C84.333,151.211,91.478,144.067,100.291,144.067z"/>
		<rect x="84.333" y="314.733" style="fill:#607D8B;" width="238.933" height="51.2"/>
		<rect x="84.333" y="314.733" style="fill:#CFD8DC;" width="213.333" height="51.2"/>
	</g>
	<g>
		<path d="M384,307.2h34.133c9.421-0.011,17.056-7.645,17.067-17.067V123c0.012-4.529-1.788-8.874-5-12.067L324.267,5
			c-3.207-3.191-7.543-4.988-12.067-5H145.067C135.645,0.011,128.011,7.645,128,17.067V51.2c0.011,9.421,7.645,17.056,17.067,17.067
			V102.4h-7.392c-10.052,0.01-18.198,8.156-18.208,18.208v15.925H101.3c-13.524,0.014-24.484,10.972-24.5,24.496v326.475
			c0.016,13.524,10.976,24.482,24.5,24.496h207c13.524-0.014,24.484-10.972,24.5-24.496V161.029
			c-0.016-13.524-10.976-24.482-24.5-24.496h-18.167v-15.925c-0.01-10.052-8.156-18.198-18.208-18.208h-7.392V68.267h23.883
			l78.517,77.55v144.317C366.944,299.555,374.579,307.189,384,307.2z M136.533,120.608c0-0.303,0.12-0.593,0.334-0.808
			c0.214-0.214,0.505-0.334,0.808-0.334h25.402c-5.025,4.931-9.142,10.708-12.163,17.067h-14.38V120.608z M238.715,136.533h-67.83
			c7.966-10.736,20.546-17.067,33.915-17.067C218.169,119.467,230.749,125.797,238.715,136.533z M247.467,162.133
			c0.001,16.272-9.253,31.127-23.859,38.3c-14.605,7.173-32.019,5.414-44.895-4.535c-12.876-9.949-18.972-26.355-15.717-42.298
			h83.608C247.178,156.408,247.467,159.267,247.467,162.133z M315.733,324.267V358.4H93.867v-34.133H315.733z M308.3,494.933h-207
			c-4.102-0.003-7.428-3.327-7.433-7.429V375.467h17.067V409.6c0,4.713,3.821,8.533,8.533,8.533S128,414.313,128,409.6v-34.133
			h187.733v112.037C315.728,491.607,312.402,494.93,308.3,494.933z M315.733,161.029V307.2H128V196.267
			c0-4.713-3.82-8.533-8.533-8.533s-8.533,3.821-8.533,8.533V307.2H93.867V161.029c0.006-4.102,3.331-7.426,7.433-7.429h44.449
			c-3.545,23.241,6.872,46.401,26.613,59.168c19.742,12.767,45.136,12.767,64.878,0c19.742-12.767,30.158-35.927,26.613-59.168
			H308.3C312.402,153.603,315.728,156.927,315.733,161.029z M273.067,120.608v15.925h-14.38
			c-3.021-6.359-7.139-12.136-12.163-17.067h25.402c0.303,0,0.593,0.12,0.808,0.334
			C272.947,120.015,273.067,120.305,273.067,120.608z M247.467,102.4h-85.333V68.267h85.333V102.4z M300.425,56.137
			c-3.185-3.175-7.503-4.951-12-4.937H145.067V17.067H312.2L418.133,123v167.133H384V145.817c-0.014-4.559-1.836-8.925-5.067-12.142
			L300.425,56.137z"/>
		<path d="M119.467,435.2c-2.263-0.001-4.434,0.898-6.035,2.499c-1.6,1.6-2.499,3.771-2.499,6.035v8.533
			c0,4.713,3.821,8.533,8.533,8.533s8.533-3.82,8.533-8.533v-8.533c0.001-2.263-0.898-4.434-2.499-6.035
			C123.901,436.098,121.73,435.199,119.467,435.2z"/>
	</g>
</g>
<g>
</g>
<g>
</g>
<g>
</g>
<g>
</g>
<g>
</g>
<g>
</g>
<g>
</g>
<g>
</g>
<g>
</g>
<g>
</g>
<g>
</g>
<g>
</g>
<g>
</g>
<g>
</g>
<g>
</g>
</svg>
