<?xml version="1.0" encoding="iso-8859-1"?>
<!-- Generator: Adobe Illustrator 19.0.0, SVG Export Plug-In . SVG Version: 6.00 Build 0)  -->
<svg version="1.1" id="Capa_1" xmlns="http://www.w3.org/2000/svg" xmlns:xlink="http://www.w3.org/1999/xlink" x="0px" y="0px"
	 viewBox="0 0 512.005 512.005" style="enable-background:new 0 0 512.005 512.005;" xml:space="preserve">
<g transform="translate(-1)">
	<g transform="translate(2 7)">
		<path style="fill:#37474F;" d="M217.116,134.826c-2.047-17.217-16.377-30.35-33.707-30.891h-34.133
			c17.33,0.541,31.659,13.673,33.707,30.891l11.008,71.509h34.133L217.116,134.826z M468.338,138.069v307.2h34.133v-307.2H468.338z"
			/>
		<path style="fill:#607D8B;" d="M467.058,138.069c-9.69,0.012-18.543,5.495-22.869,14.165l-32.256,64.512
			c-8.31-6.423-18.431-10.065-28.928-10.411H193.991l-11.008-71.509c-2.047-17.217-16.377-30.35-33.707-30.891h-5.205
			c-9.815,0.426-17.441,8.701-17.067,18.517v83.883H92.871c-23.696,0.002-46.323,9.86-62.46,27.211S6.08,274.179,7.794,297.813
			c4.058,45.263,42.282,79.769,87.723,79.189h287.488c10.497-0.346,20.618-3.988,28.928-10.411l32.256,64.512
			c4.327,8.671,13.179,14.154,22.869,14.165h1.28v-307.2H467.058z M84.338,300.202c-1.602-0.011-3.2-0.154-4.779-0.427
			c-0.959-0.176-1.901-0.433-2.816-0.768c-0.826-0.194-1.627-0.481-2.389-0.853c-0.506-0.176-0.993-0.405-1.451-0.683
			c-0.682-0.319-1.338-0.69-1.963-1.109h-0.085c-0.597-0.427-1.195-0.768-1.792-1.28c-0.654-0.409-1.256-0.896-1.792-1.451
			c-0.508-0.337-0.943-0.772-1.28-1.28c-0.511-0.368-0.945-0.832-1.28-1.365c-1.643-1.909-2.969-4.07-3.925-6.4
			c-0.373-0.762-0.659-1.564-0.853-2.389c-0.249-0.572-0.421-1.175-0.512-1.792c-0.148-0.619-0.262-1.246-0.341-1.877
			c-0.455-2.597-0.455-5.254,0-7.851c0.08-0.632,0.194-1.258,0.341-1.877c0.091-0.617,0.263-1.22,0.512-1.792
			c0.194-0.826,0.481-1.627,0.853-2.389c0.431-1.175,1.004-2.293,1.707-3.328l1.024-1.536c0.343-0.504,0.713-0.988,1.109-1.451
			c0.512-0.597,1.024-1.195,1.621-1.792c0.32-0.336,0.662-0.649,1.024-0.939c0.537-0.554,1.138-1.041,1.792-1.451
			c0.446-0.416,0.932-0.788,1.451-1.109c0.171-0.085,0.256-0.171,0.427-0.171c0.625-0.42,1.281-0.791,1.963-1.109
			c0.458-0.278,0.944-0.507,1.451-0.683c0.762-0.373,1.563-0.659,2.389-0.853c2.454-0.79,5.016-1.193,7.595-1.195
			c14.138,0,25.6,11.462,25.6,25.6S98.476,300.202,84.338,300.202z M169.671,300.202c-1.602-0.011-3.2-0.154-4.779-0.427
			c-0.959-0.176-1.901-0.433-2.816-0.768c-0.826-0.194-1.627-0.481-2.389-0.853c-0.506-0.176-0.993-0.405-1.451-0.683
			c-0.682-0.319-1.338-0.69-1.963-1.109h-0.085c-0.597-0.427-1.194-0.768-1.792-1.28c-0.654-0.409-1.256-0.896-1.792-1.451
			c-0.508-0.337-0.943-0.772-1.28-1.28c-0.511-0.368-0.945-0.832-1.28-1.365c-1.643-1.909-2.969-4.07-3.925-6.4
			c-0.373-0.762-0.659-1.564-0.853-2.389c-0.249-0.572-0.421-1.175-0.512-1.792c-0.148-0.619-0.262-1.246-0.341-1.877
			c-0.455-2.597-0.455-5.254,0-7.851c0.08-0.632,0.194-1.258,0.341-1.877c0.091-0.617,0.263-1.22,0.512-1.792
			c0.194-0.826,0.481-1.627,0.853-2.389c0.431-1.175,1.004-2.293,1.707-3.328l1.024-1.536c0.343-0.504,0.713-0.988,1.109-1.451
			c0.512-0.597,1.024-1.195,1.621-1.792c0.32-0.336,0.662-0.649,1.024-0.939c0.537-0.554,1.138-1.041,1.792-1.451
			c0.446-0.416,0.932-0.788,1.451-1.109c0.171-0.085,0.256-0.171,0.427-0.171c0.625-0.42,1.281-0.791,1.963-1.109
			c0.458-0.278,0.944-0.507,1.451-0.683c0.762-0.373,1.563-0.659,2.389-0.853c2.454-0.79,5.016-1.193,7.595-1.195
			c14.138,0,25.6,11.462,25.6,25.6S183.81,300.202,169.671,300.202z M315.079,270.677c0.08-0.632,0.194-1.258,0.341-1.877
			c0.091-0.617,0.263-1.22,0.512-1.792c0.194-0.826,0.481-1.627,0.853-2.389c0.431-1.175,1.004-2.293,1.707-3.328l1.024-1.536
			c0.342-0.504,0.713-0.988,1.109-1.451c0.512-0.597,1.024-1.195,1.621-1.792c0.32-0.336,0.662-0.649,1.024-0.939
			c0.537-0.554,1.138-1.041,1.792-1.451c0.491-0.397,1.004-0.768,1.536-1.109c0.094-0.09,0.213-0.149,0.341-0.171
			c0.625-0.42,1.281-0.791,1.963-1.109c0.458-0.278,0.944-0.507,1.451-0.683c0.762-0.373,1.563-0.659,2.389-0.853
			c2.454-0.79,5.016-1.193,7.595-1.195c14.138,0,25.6,11.462,25.6,25.6s-11.462,25.6-25.6,25.6c-1.602-0.011-3.2-0.154-4.779-0.427
			c-0.959-0.176-1.901-0.433-2.816-0.768c-0.826-0.194-1.627-0.481-2.389-0.853c-0.506-0.176-0.993-0.405-1.451-0.683
			c-0.682-0.319-1.338-0.69-1.963-1.109h-0.085c-0.597-0.427-1.195-0.768-1.792-1.28c-0.654-0.409-1.256-0.896-1.792-1.451
			c-0.508-0.337-0.943-0.772-1.28-1.28c-0.511-0.368-0.945-0.832-1.28-1.365c-1.643-1.909-2.969-4.07-3.925-6.4
			c-0.373-0.762-0.659-1.564-0.853-2.389c-0.249-0.572-0.421-1.175-0.512-1.792c-0.148-0.619-0.262-1.246-0.341-1.877
			C314.624,275.93,314.624,273.274,315.079,270.677z M247.41,299.007c-0.826-0.194-1.627-0.481-2.389-0.853
			c-0.506-0.176-0.993-0.405-1.451-0.683c-0.682-0.319-1.338-0.69-1.963-1.109h-0.085c-0.597-0.427-1.194-0.768-1.792-1.28
			c-0.654-0.409-1.256-0.896-1.792-1.451c-0.508-0.337-0.943-0.772-1.28-1.28c-0.511-0.368-0.945-0.832-1.28-1.365
			c-1.643-1.909-2.969-4.07-3.925-6.4c-0.373-0.762-0.659-1.564-0.853-2.389c-0.249-0.572-0.421-1.175-0.512-1.792
			c-0.148-0.619-0.262-1.246-0.341-1.877c-0.455-2.597-0.455-5.254,0-7.851c0.08-0.632,0.194-1.258,0.341-1.877
			c0.091-0.617,0.263-1.22,0.512-1.792c0.194-0.826,0.481-1.627,0.853-2.389c0.431-1.175,1.004-2.293,1.707-3.328l1.024-1.536
			c0.343-0.504,0.713-0.988,1.109-1.451c0.512-0.597,1.024-1.195,1.621-1.792c0.32-0.336,0.662-0.649,1.024-0.939
			c0.537-0.554,1.138-1.041,1.792-1.451c0.491-0.397,1.004-0.768,1.536-1.109c0.094-0.09,0.213-0.149,0.341-0.171
			c0.625-0.42,1.281-0.791,1.963-1.109c0.458-0.278,0.944-0.507,1.451-0.683c0.762-0.373,1.563-0.659,2.389-0.853
			c2.454-0.79,5.016-1.193,7.595-1.195c14.138,0,25.6,11.462,25.6,25.6s-11.462,25.6-25.6,25.6c-1.602-0.011-3.2-0.154-4.779-0.427
			C249.267,299.599,248.325,299.342,247.41,299.007z M280.604,351.402h-17.067c-4.713,0-8.533-3.821-8.533-8.533
			s3.821-8.533,8.533-8.533h17.067c4.713,0,8.533,3.82,8.533,8.533S285.317,351.402,280.604,351.402z M405.788,336.127
			c-10.937,9.845-25.135,15.287-39.851,15.275h-51.2c-4.713,0-8.533-3.821-8.533-8.533s3.82-8.533,8.533-8.533h51.2
			c2.546-0.012,5.087-0.24,7.595-0.683c7.763-1.393,14.979-4.941,20.821-10.24c3.511-3.158,8.917-2.871,12.075,0.64
			C409.586,327.564,409.3,332.97,405.788,336.127z"/>
		<g>
			<path style="fill:#37474F;" d="M405.788,336.127c-10.937,9.845-25.135,15.287-39.851,15.275h-51.2
				c-4.713,0-8.533-3.821-8.533-8.533s3.82-8.533,8.533-8.533h51.2c2.546-0.012,5.087-0.24,7.595-0.683
				c7.763-1.393,14.979-4.941,20.821-10.24c3.511-3.158,8.917-2.871,12.075,0.64C409.586,327.564,409.3,332.97,405.788,336.127z"/>
			<path style="fill:#37474F;" d="M289.138,342.869c-0.014,4.707-3.826,8.519-8.533,8.533h-17.067c-4.713,0-8.533-3.821-8.533-8.533
				s3.821-8.533,8.533-8.533h17.067C285.311,334.35,289.124,338.162,289.138,342.869z"/>
		</g>
		<g>
			<path style="fill:#02A9F4;" d="M109.938,274.602c0.009,6.792-2.685,13.309-7.488,18.112c-4.803,4.803-11.32,7.497-18.112,7.488
				c-1.602-0.011-3.2-0.154-4.779-0.427c-0.959-0.176-1.901-0.433-2.816-0.768c-0.814-0.233-1.612-0.518-2.389-0.853
				c-0.506-0.176-0.993-0.405-1.451-0.683c-0.682-0.319-1.338-0.69-1.963-1.109h-0.085c-0.597-0.427-1.195-0.768-1.792-1.28
				c-0.654-0.409-1.256-0.896-1.792-1.451c-0.508-0.337-0.943-0.772-1.28-1.28c-0.471-0.411-0.9-0.869-1.28-1.365
				c-1.643-1.909-2.969-4.07-3.925-6.4c-0.336-0.777-0.621-1.575-0.853-2.389c-0.249-0.572-0.421-1.175-0.512-1.792
				c-0.148-0.619-0.262-1.246-0.341-1.877c-0.455-2.597-0.455-5.254,0-7.851c0.08-0.632,0.194-1.258,0.341-1.877
				c0.091-0.617,0.263-1.22,0.512-1.792c0.194-0.826,0.481-1.627,0.853-2.389c0.431-1.175,1.004-2.293,1.707-3.328l1.024-1.536
				c0.343-0.504,0.713-0.988,1.109-1.451c0.512-0.597,1.024-1.195,1.621-1.792c0.32-0.336,0.662-0.649,1.024-0.939
				c0.537-0.554,1.138-1.041,1.792-1.451c0.446-0.416,0.932-0.788,1.451-1.109c0.171-0.085,0.256-0.171,0.427-0.171
				c0.625-0.42,1.281-0.791,1.963-1.109c0.458-0.278,0.944-0.507,1.451-0.683c0.777-0.336,1.575-0.621,2.389-0.853
				c2.454-0.79,5.016-1.193,7.595-1.195c6.792-0.009,13.309,2.685,18.112,7.488C107.253,261.293,109.947,267.81,109.938,274.602z"/>
			<path style="fill:#02A9F4;" d="M195.271,274.602c0.009,6.792-2.685,13.309-7.488,18.112c-4.803,4.803-11.32,7.497-18.112,7.488
				c-1.602-0.011-3.2-0.154-4.779-0.427c-0.959-0.176-1.901-0.433-2.816-0.768c-0.814-0.233-1.612-0.518-2.389-0.853
				c-0.506-0.176-0.993-0.405-1.451-0.683c-0.682-0.319-1.338-0.69-1.963-1.109h-0.085c-0.597-0.427-1.194-0.768-1.792-1.28
				c-0.654-0.409-1.256-0.896-1.792-1.451c-0.508-0.337-0.943-0.772-1.28-1.28c-0.471-0.411-0.9-0.869-1.28-1.365
				c-1.643-1.909-2.969-4.07-3.925-6.4c-0.336-0.777-0.621-1.575-0.853-2.389c-0.249-0.572-0.421-1.175-0.512-1.792
				c-0.148-0.619-0.262-1.246-0.341-1.877c-0.455-2.597-0.455-5.254,0-7.851c0.08-0.632,0.194-1.258,0.341-1.877
				c0.091-0.617,0.263-1.22,0.512-1.792c0.194-0.826,0.481-1.627,0.853-2.389c0.431-1.175,1.004-2.293,1.707-3.328l1.024-1.536
				c0.343-0.504,0.713-0.988,1.109-1.451c0.512-0.597,1.024-1.195,1.621-1.792c0.32-0.336,0.662-0.649,1.024-0.939
				c0.537-0.554,1.138-1.041,1.792-1.451c0.446-0.416,0.932-0.788,1.451-1.109c0.171-0.085,0.256-0.171,0.427-0.171
				c0.625-0.42,1.281-0.791,1.963-1.109c0.458-0.278,0.944-0.507,1.451-0.683c0.777-0.336,1.575-0.621,2.389-0.853
				c2.454-0.79,5.016-1.193,7.595-1.195c6.792-0.009,13.309,2.685,18.112,7.488C192.586,261.293,195.28,267.81,195.271,274.602z"/>
			<path style="fill:#02A9F4;" d="M280.604,274.602c0.009,6.792-2.685,13.309-7.488,18.112c-4.803,4.803-11.32,7.497-18.112,7.488
				c-1.602-0.011-3.2-0.154-4.779-0.427c-0.959-0.176-1.901-0.433-2.816-0.768c-0.814-0.233-1.612-0.518-2.389-0.853
				c-0.506-0.176-0.993-0.405-1.451-0.683c-0.682-0.319-1.338-0.69-1.963-1.109h-0.085c-0.597-0.427-1.194-0.768-1.792-1.28
				c-0.654-0.409-1.256-0.896-1.792-1.451c-0.508-0.337-0.943-0.772-1.28-1.28c-0.471-0.411-0.9-0.869-1.28-1.365
				c-1.643-1.909-2.969-4.07-3.925-6.4c-0.336-0.777-0.621-1.575-0.853-2.389c-0.249-0.572-0.421-1.175-0.512-1.792
				c-0.148-0.619-0.262-1.246-0.341-1.877c-0.455-2.597-0.455-5.254,0-7.851c0.08-0.632,0.194-1.258,0.341-1.877
				c0.091-0.617,0.263-1.22,0.512-1.792c0.194-0.826,0.481-1.627,0.853-2.389c0.431-1.175,1.004-2.293,1.707-3.328l1.024-1.536
				c0.343-0.504,0.713-0.988,1.109-1.451c0.512-0.597,1.024-1.195,1.621-1.792c0.32-0.336,0.662-0.649,1.024-0.939
				c0.537-0.554,1.138-1.041,1.792-1.451c0.491-0.397,1.004-0.768,1.536-1.109c0.094-0.09,0.213-0.149,0.341-0.171
				c0.625-0.42,1.281-0.791,1.963-1.109c0.458-0.278,0.944-0.507,1.451-0.683c0.777-0.336,1.575-0.621,2.389-0.853
				c2.454-0.79,5.016-1.193,7.595-1.195c6.792-0.009,13.309,2.685,18.112,7.488C277.919,261.293,280.614,267.81,280.604,274.602z"/>
			<path style="fill:#02A9F4;" d="M365.938,274.602c0.009,6.792-2.685,13.309-7.488,18.112c-4.803,4.803-11.32,7.497-18.112,7.488
				c-1.602-0.011-3.2-0.154-4.779-0.427c-0.959-0.176-1.901-0.433-2.816-0.768c-0.814-0.233-1.612-0.518-2.389-0.853
				c-0.506-0.176-0.993-0.405-1.451-0.683c-0.682-0.319-1.338-0.69-1.963-1.109h-0.085c-0.597-0.427-1.195-0.768-1.792-1.28
				c-0.654-0.409-1.256-0.896-1.792-1.451c-0.508-0.337-0.943-0.772-1.28-1.28c-0.471-0.411-0.9-0.869-1.28-1.365
				c-1.643-1.909-2.969-4.07-3.925-6.4c-0.336-0.777-0.621-1.575-0.853-2.389c-0.249-0.572-0.421-1.175-0.512-1.792
				c-0.148-0.619-0.262-1.246-0.341-1.877c-0.455-2.597-0.455-5.254,0-7.851c0.08-0.632,0.194-1.258,0.341-1.877
				c0.091-0.617,0.263-1.22,0.512-1.792c0.194-0.826,0.481-1.627,0.853-2.389c0.431-1.175,1.004-2.293,1.707-3.328l1.024-1.536
				c0.342-0.504,0.713-0.988,1.109-1.451c0.512-0.597,1.024-1.195,1.621-1.792c0.32-0.336,0.662-0.649,1.024-0.939
				c0.537-0.554,1.138-1.041,1.792-1.451c0.491-0.397,1.004-0.768,1.536-1.109c0.094-0.09,0.213-0.149,0.341-0.171
				c0.625-0.42,1.281-0.791,1.963-1.109c0.458-0.278,0.944-0.507,1.451-0.683c0.777-0.336,1.575-0.621,2.389-0.853
				c2.454-0.79,5.016-1.193,7.595-1.195c6.792-0.009,13.309,2.685,18.112,7.488C363.253,261.293,365.947,267.81,365.938,274.602z"/>
		</g>
	</g>
	<g>
		<path d="M504.471,136.535h-35.375c-12.942-0.046-24.784,7.271-30.533,18.867l-28.05,56.092
			c-7.852-4.221-16.595-6.514-25.508-6.692h-146.37l-11.126-66.75c-3.378-20.602-21.21-35.706-42.088-35.65h-5.217V59.735
			c0-4.713-3.821-8.533-8.533-8.533c-4.713,0-8.533,3.821-8.533,8.533v42.667h-17.067c-14.132,0.015-25.585,11.468-25.6,25.6v76.8
			h-25.6c-26.06,0.011-50.943,10.851-68.698,29.925S-0.615,279.396,1.238,305.39c4.389,49.748,46.349,87.725,96.287,87.146h287.479
			c8.913-0.177,17.656-2.471,25.508-6.692l28.05,56.092c5.749,11.595,17.591,18.913,30.533,18.867h35.375
			c2.263,0.001,4.434-0.898,6.035-2.499c1.6-1.6,2.499-3.771,2.499-6.035v-307.2c0.001-2.263-0.898-4.434-2.499-6.035
			C508.905,137.434,506.735,136.535,504.471,136.535z M495.938,443.736l-26.842,0c-6.471,0.024-12.393-3.635-15.267-9.433
			l-32.267-64.529c-1.139-2.277-3.235-3.927-5.716-4.5c-2.481-0.572-5.088-0.007-7.109,1.541
			c-6.817,5.286-15.114,8.312-23.733,8.654H97.525c-40.986,0.606-75.525-30.451-79.263-71.27
			c-1.523-21.272,5.863-42.221,20.391-57.834c14.528-15.613,34.891-24.486,56.218-24.496h25.6v8.533
			c0,4.713,3.821,8.533,8.533,8.533s8.533-3.821,8.533-8.533v-102.4c0.006-4.71,3.823-8.527,8.533-8.533h39.35
			c12.527-0.034,23.227,9.03,25.254,21.392l15.158,90.946c0.477,3.03,2.543,5.572,5.413,6.656c2.869,1.085,6.1,0.546,8.462-1.412
			c2.362-1.957,3.492-5.032,2.959-8.053l-1.188-7.129h143.526c8.619,0.343,16.917,3.368,23.733,8.654
			c2.021,1.548,4.628,2.114,7.109,1.541c2.481-0.572,4.577-2.222,5.716-4.5l32.267-64.529c2.874-5.798,8.795-9.457,15.267-9.433
			h26.842V443.736z"/>
		<path d="M396.375,330.444c-7.812,7.015-17.942,10.894-28.442,10.892h-51.2c-4.713,0-8.533,3.82-8.533,8.533
			s3.82,8.533,8.533,8.533h51.2c14.703,0.003,28.888-5.428,39.829-15.25c2.277-2.032,3.295-5.126,2.669-8.114
			s-2.799-5.413-5.7-6.361C401.831,327.729,398.645,328.403,396.375,330.444L396.375,330.444z"/>
		<path d="M282.6,341.335h-17.067c-4.713,0-8.533,3.82-8.533,8.533s3.82,8.533,8.533,8.533H282.6c4.713,0,8.533-3.821,8.533-8.533
			S287.313,341.335,282.6,341.335z"/>
		<path d="M86.338,247.469c-18.851,0-34.133,15.282-34.133,34.133s15.282,34.133,34.133,34.133s34.133-15.282,34.133-34.133
			C120.45,262.76,105.18,247.49,86.338,247.469z M86.338,298.669c-9.426,0-17.067-7.641-17.067-17.067s7.641-17.067,17.067-17.067
			s17.067,7.641,17.067,17.067C103.395,291.024,95.76,298.659,86.338,298.669z"/>
		<path d="M171.671,247.469c-18.851,0-34.133,15.282-34.133,34.133s15.282,34.133,34.133,34.133s34.133-15.282,34.133-34.133
			C205.783,262.76,190.514,247.49,171.671,247.469z M171.671,298.669c-9.426,0-17.067-7.641-17.067-17.067
			s7.641-17.067,17.067-17.067c9.426,0,17.067,7.641,17.067,17.067C188.728,291.024,181.093,298.659,171.671,298.669z"/>
		<path d="M257.004,247.469c-18.851,0-34.133,15.282-34.133,34.133s15.282,34.133,34.133,34.133
			c18.851,0,34.133-15.282,34.133-34.133C291.116,262.76,275.847,247.49,257.004,247.469z M257.004,298.669
			c-9.426,0-17.067-7.641-17.067-17.067s7.641-17.067,17.067-17.067s17.067,7.641,17.067,17.067
			C274.062,291.024,266.426,298.659,257.004,298.669z"/>
		<path d="M342.338,315.735c18.851,0,34.133-15.282,34.133-34.133s-15.282-34.133-34.133-34.133
			c-18.851,0-34.133,15.282-34.133,34.133C308.226,300.445,323.495,315.714,342.338,315.735z M342.338,264.535
			c9.426,0,17.067,7.641,17.067,17.067s-7.641,17.067-17.067,17.067s-17.067-7.641-17.067-17.067
			C325.281,272.18,332.916,264.545,342.338,264.535z"/>
	</g>
</g>
<g>
</g>
<g>
</g>
<g>
</g>
<g>
</g>
<g>
</g>
<g>
</g>
<g>
</g>
<g>
</g>
<g>
</g>
<g>
</g>
<g>
</g>
<g>
</g>
<g>
</g>
<g>
</g>
<g>
</g>
</svg>
