<?xml version="1.0" encoding="iso-8859-1"?>
<!-- Generator: Adobe Illustrator 19.0.0, SVG Export Plug-In . SVG Version: 6.00 Build 0)  -->
<svg version="1.1" id="Capa_1" xmlns="http://www.w3.org/2000/svg" xmlns:xlink="http://www.w3.org/1999/xlink" x="0px" y="0px"
	 viewBox="0 0 512 512" style="enable-background:new 0 0 512 512;" xml:space="preserve">
<g>
	<g transform="translate(1 1)">
		<path style="fill:#FEC108;" d="M357.827,214.04l-2.304,2.304c8.419,8.576,8.419,22.315,0,30.891l-185.6,185.6
			c-4.096,4.098-9.652,6.4-15.446,6.4c-5.794,0-11.35-2.302-15.446-6.4l-3.328-3.243l-4.437-4.437l-23.211,23.211l15.445,30.891
			l-23.125,23.211L7.533,409.624l20.395-20.309l2.816-2.816l8.107,4.096l22.784,11.349l23.211-23.211l-7.68-7.765
			c-4.098-4.096-6.4-9.652-6.4-15.445c0-5.794,2.302-11.35,6.4-15.445l185.6-185.6c1.992-2.02,4.372-3.616,6.997-4.693
			c2.671-1.126,5.549-1.679,8.448-1.621c5.794-0.087,11.372,2.193,15.446,6.315l2.304-2.304
			c49.316-49.312,105.472-91.271,166.741-124.587c12.971-7.083,26.283-13.739,39.765-20.053
			c-17.867,38.301-39.053,74.964-63.317,109.568C414.931,151.732,387.719,184.17,357.827,214.04z"/>
		<path style="fill:#FDD834;" d="M332.227,205.507l-2.304,2.304c8.419,8.576,8.419,22.315,0,30.891l-185.6,185.6
			c-2.416,2.418-5.369,4.231-8.619,5.291c-7.831,2.506-16.405,0.469-22.272-5.291l-7.765-7.68l-23.211,23.211l15.445,30.891
			L83.309,485.4L7.533,409.624l20.395-20.309l8.107,4.096l2.816-2.816l22.784,11.349l23.211-23.211l-7.68-7.765
			c-4.098-4.096-6.4-9.652-6.4-15.445c0-5.794,2.302-11.35,6.4-15.445l185.6-185.6c1.992-2.02,4.372-3.616,6.997-4.693
			c2.671-1.126,5.549-1.679,8.448-1.621c5.794-0.087,11.372,2.193,15.446,6.315l2.304-2.304
			c49.316-49.312,105.472-91.271,166.741-124.587c-14.564,28.057-30.985,55.111-49.152,80.981
			C389.331,143.199,362.119,175.636,332.227,205.507z"/>
	</g>
	<g>
		<path d="M25.7,381.433l-23.2,23.2c-1.601,1.6-2.5,3.77-2.5,6.033s0.899,4.434,2.5,6.033L95.3,509.5c1.6,1.601,3.77,2.5,6.033,2.5
			c2.263,0,4.433-0.899,6.033-2.5l23.2-23.2c2.597-2.596,3.241-6.562,1.6-9.846l-12.704-25.45l12.804-12.804l1.7,1.7
			c11.881,11.858,31.119,11.858,43,0l185.6-185.6c9.462-9.603,11.562-24.251,5.179-36.125
			C427.057,158.258,475.587,88.558,511.2,12.142c1.516-3.252,0.837-7.105-1.7-9.642c-2.537-2.537-6.39-3.216-9.642-1.7
			c-76.415,35.612-146.114,84.14-206.029,143.45c-4.441-2.447-9.438-3.707-14.508-3.658c-8.108-0.106-15.911,3.085-21.621,8.842
			l-185.6,185.6c-11.854,11.882-11.854,31.118,0,43l1.7,1.7l-12.804,12.804l-25.45-12.704
			C32.261,378.192,28.296,378.837,25.7,381.433z M84.167,347.1l185.6-185.6c2.48-2.602,5.964-4.003,9.554-3.842
			c3.499-0.047,6.864,1.342,9.313,3.842l15.467,15.467c2.155,2.156,5.297,2.997,8.242,2.208c2.944-0.789,5.244-3.089,6.033-6.033
			s-0.053-6.086-2.208-8.242l-9.36-9.36c52.413-51.741,112.501-95.08,178.139-128.486C451.54,92.692,408.201,152.78,356.46,205.193
			l-9.36-9.36c-3.332-3.332-8.735-3.332-12.067,0c-3.332,3.332-3.332,8.735,0,12.067l15.467,15.467
			c2.541,2.52,3.93,5.977,3.842,9.554c0.041,3.498-1.347,6.861-3.842,9.313l-185.6,185.6c-5.292,5.008-13.575,5.008-18.867,0
			L138.3,420.1c-1.6-1.601-3.77-2.5-6.033-2.5c-2.263,0-4.433,0.899-6.033,2.5l-14.851,14.851
			c-2.208-4.092-7.293-5.653-11.416-3.504c-4.123,2.149-5.756,7.212-3.666,11.365l17.854,35.767L101.333,491.4L20.6,410.667
			l12.821-12.821L69.187,415.7c4.154,2.09,9.216,0.457,11.365-3.666c2.149-4.123,0.589-9.209-3.504-11.416L91.9,385.766
			c1.601-1.6,2.5-3.77,2.5-6.033c0-2.263-0.899-4.434-2.5-6.033l-7.733-7.733C78.989,360.743,78.989,352.323,84.167,347.1
			L84.167,347.1z"/>
		<path d="M164,313.867c2.264,0.003,4.435-0.897,6.033-2.5l100.533-100.533c3.281-3.341,3.256-8.701-0.054-12.012
			c-3.311-3.311-8.671-3.335-12.012-0.054L157.967,299.3c-2.44,2.441-3.169,6.11-1.849,9.298
			C157.438,311.786,160.549,313.866,164,313.867L164,313.867z"/>
		<path d="M125.333,352.533c2.264,0.003,4.435-0.897,6.033-2.5l7.733-7.733c2.155-2.155,2.997-5.297,2.208-8.242
			s-3.089-5.244-6.033-6.033s-6.086,0.053-8.242,2.208l-7.733,7.733c-2.44,2.44-3.169,6.11-1.849,9.298
			C118.771,350.453,121.882,352.532,125.333,352.533L125.333,352.533z"/>
		<path d="M344.133,165.067c2.264,0.003,4.435-0.897,6.033-2.5l25.667-25.666c3.332-3.332,3.332-8.735,0-12.067
			c-3.332-3.332-8.735-3.332-12.067,0L338.1,150.5c-2.44,2.44-3.169,6.11-1.849,9.298
			C337.572,162.987,340.682,165.066,344.133,165.067L344.133,165.067z"/>
	</g>
</g>
<g>
</g>
<g>
</g>
<g>
</g>
<g>
</g>
<g>
</g>
<g>
</g>
<g>
</g>
<g>
</g>
<g>
</g>
<g>
</g>
<g>
</g>
<g>
</g>
<g>
</g>
<g>
</g>
<g>
</g>
</svg>
