<?xml version="1.0" encoding="iso-8859-1"?>
<!-- Generator: Adobe Illustrator 19.0.0, SVG Export Plug-In . SVG Version: 6.00 Build 0)  -->
<svg version="1.1" id="Capa_1" xmlns="http://www.w3.org/2000/svg" xmlns:xlink="http://www.w3.org/1999/xlink" x="0px" y="0px"
	 viewBox="0 0 511.972 511.972" style="enable-background:new 0 0 511.972 511.972;" xml:space="preserve">
<g>
	<g transform="translate(0 1)">
		<polygon style="fill:#607D8B;" points="104.448,437.073 102.912,440.572 89.173,469.926 41.045,421.798 62.208,411.9 
			73.898,406.524 77.141,409.766 101.205,433.83 		"/>
		<polygon style="fill:#9E9E9E;" points="110.165,424.87 104.448,437.073 101.205,433.83 77.141,409.766 73.898,406.524 
			86.101,400.806 		"/>
		<path style="fill:#37474F;" d="M502.784,19.281l-33.536,79.104c-1.709,4.035-4.203,7.69-7.339,10.752l-57.003,57.088h-0.085
			l8.448,58.88c0.416,2.661-0.473,5.36-2.389,7.253l-17.323,17.323c-2.09,2.071-5.1,2.918-7.963,2.241s-5.175-2.782-6.117-5.569
			l-4.181-12.544l-9.472-28.501L175.36,395.772l37.376,74.667c1.598,3.284,0.948,7.218-1.621,9.813l-19.712,19.712
			c-1.594,1.598-3.759,2.496-6.016,2.496s-4.422-0.898-6.016-2.496l-11.008-11.008l-43.093-43.093
			c-3.355,3.243-8.677,3.243-12.032,0l-12.032-12.032l-24.064-24.064l-3.243-3.243l-8.789-8.789c-3.243-3.355-3.243-8.677,0-12.032
			l-54.101-54.101c-1.598-1.594-2.496-3.759-2.496-6.016c0-2.257,0.898-4.422,2.496-6.016l19.712-19.712
			c0.543-0.522,1.145-0.98,1.792-1.365c2.468-1.403,5.469-1.499,8.021-0.256l51.883,26.027l22.784,11.349L293.632,157.18
			l12.032-12.032l-25.6-8.533l-15.701-5.205c-2.711-1.014-4.723-3.334-5.343-6.162c-0.621-2.827,0.235-5.776,2.271-7.833
			l17.323-17.323c1.893-1.916,4.592-2.806,7.253-2.389l58.88,8.448v-0.085l57.088-57.003c3.061-3.136,6.717-5.63,10.752-7.339
			l62.72-26.624l16.384-6.912c3.175-1.35,6.851-0.637,9.291,1.803C503.42,12.43,504.134,16.106,502.784,19.281z"/>
		<path style="fill:#607D8B;" d="M475.306,15.1l-31.659,74.752c-1.709,4.035-4.203,7.69-7.339,10.752l-57.003,57.088h-0.085
			l8.448,58.88c0.416,2.661-0.473,5.36-2.389,7.253l-9.984,9.984l-9.472-28.501l-17.067,17.067l-8.533-25.6L149.76,387.238
			l37.376,74.667c1.598,3.284,0.948,7.218-1.621,9.813l-17.152,17.237l-43.093-43.093c-3.355,3.243-8.677,3.243-12.032,0
			l-12.032-12.032l-24.064-24.064l-3.243-3.243l-8.789-8.789c-3.243-3.355-3.243-8.677,0-12.032l-54.101-54.101
			c-1.598-1.594-2.496-3.759-2.496-6.016c0-2.257,0.898-4.422,2.496-6.016l19.712-19.712c0.543-0.522,1.145-0.98,1.792-1.365
			L89.6,327.078l2.816-2.816l22.784,11.349L293.632,157.18l12.032-12.032l-25.6-8.533l-15.701-5.205
			c-2.711-1.014-4.723-3.334-5.343-6.162c-0.621-2.827,0.235-5.776,2.271-7.833l17.323-17.323c1.893-1.916,4.592-2.806,7.253-2.389
			l58.88,8.448v-0.085l57.088-57.003c3.061-3.136,6.717-5.63,10.752-7.339L475.306,15.1z"/>
	</g>
	<g>
		<path d="M54.748,388.399c-1.572,5.844,0.086,12.083,4.352,16.377l2.261,2.261l-22.974,7.655c-2.806,0.934-4.929,3.255-5.608,6.134
			c-0.68,2.879,0.179,5.904,2.271,7.995l24.05,24.05l24.05,24.05c2.091,2.092,5.117,2.951,7.995,2.271s5.2-2.802,6.134-5.608
			l7.655-22.974l2.261,2.261c4.248,4.344,10.534,6.014,16.378,4.353l49.755,49.755c3.194,3.196,7.527,4.992,12.046,4.992
			s8.852-1.796,12.046-4.992l19.717-19.712c5.192-5.182,6.479-13.109,3.191-19.667l-34.59-69.177l176.317-176.317l9.318,27.96
			c1.851,5.612,6.494,9.854,12.25,11.192c1.297,0.306,2.626,0.461,3.958,0.462c4.507-0.001,8.826-1.801,12-5l17.321-17.317
			c3.784-3.801,5.57-9.155,4.825-14.467l-7.814-54.69l54.052-54.056c3.873-3.858,6.962-8.43,9.096-13.462l33.533-79.079
			c2.734-6.368,1.319-13.76-3.576-18.667c-4.894-4.907-12.282-6.342-18.658-3.625l-79.121,33.55
			c-5.033,2.134-9.604,5.223-13.463,9.096l-54.055,54.051l-54.704-7.818c-5.305-0.745-10.653,1.041-14.446,4.825l-17.325,17.325
			c-4.176,4.174-5.893,10.213-4.537,15.959c1.356,5.747,5.59,10.381,11.191,12.249l27.96,9.318L113.547,326.233l-69.177-34.59
			c-6.56-3.278-14.48-1.992-19.667,3.191L4.992,314.551C1.796,317.745,0,322.078,0,326.597c0,4.518,1.796,8.852,4.992,12.046
			L54.748,388.399z M85.454,455.089l-14.288-14.283l-14.283-14.288l17.97-5.988l16.589,16.589L85.454,455.089z M36.737,306.909
			l90.712,45.358c4.216,2.108,9.342,0.399,11.45-3.817c2.108-4.216,0.399-9.342-3.817-11.45l-5.447-2.723l178.33-178.33L321,160.292
			c4.461,1.458,9.262-0.96,10.746-5.412c1.485-4.452-0.904-9.267-5.347-10.779l-59.083-19.646l17.3-17.321l79.962,11.425
			c3.017,0.432,6.036-0.779,7.918-3.176c1.883-2.397,2.343-5.617,1.208-8.446c-1.135-2.829-3.693-4.838-6.71-5.269l-4.155-0.594
			l45.005-45.002c2.31-2.322,5.048-4.174,8.063-5.454l78.996-33.675l-33.55,79.121c-1.28,3.014-3.133,5.752-5.454,8.063
			l-45.002,45.005l-0.594-4.155c-0.432-3.017-2.44-5.575-5.269-6.71c-2.829-1.135-6.049-0.674-8.446,1.208
			c-2.397,1.883-3.608,4.901-3.177,7.918l11.429,79.937l-17.274,17.338l-19.696-59.096c-1.491-4.471-6.325-6.887-10.796-5.396
			c-4.471,1.491-6.887,6.325-5.396,10.796l4.344,13.035L177.694,382.336l-2.723-5.447c-2.108-4.216-7.234-5.925-11.45-3.817
			c-4.216,2.108-5.925,7.234-3.817,11.45l7.723,15.437l0.017,0.033l37.627,75.209l-19.675,19.712l-54.046-54.046l-0.041-0.062
			c-3.332-3.323-8.722-3.33-12.063-0.017l-35.665-35.633l-0.06-0.061l-12.354-12.343c1.601-1.6,2.5-3.77,2.5-6.033
			c0-2.263-0.899-4.434-2.5-6.033l-54.109-54.067L36.737,306.909z"/>
		<path d="M197.4,311.08c2.264,0.003,4.435-0.897,6.033-2.5L323.72,188.293c3.296-3.338,3.28-8.711-0.038-12.029
			c-3.317-3.317-8.69-3.334-12.029-0.038L191.366,296.514c-2.44,2.44-3.169,6.11-1.849,9.298
			C190.838,309,193.949,311.079,197.4,311.08L197.4,311.08z"/>
		<path d="M167.337,341.143c2.264,0.003,4.435-0.897,6.033-2.5l6.012-6.013c3.332-3.332,3.332-8.735,0-12.067
			c-3.332-3.332-8.735-3.332-12.067,0l-6.012,6.013c-2.44,2.44-3.169,6.11-1.849,9.298
			C160.775,339.063,163.886,341.142,167.337,341.143L167.337,341.143z"/>
	</g>
</g>
<g>
</g>
<g>
</g>
<g>
</g>
<g>
</g>
<g>
</g>
<g>
</g>
<g>
</g>
<g>
</g>
<g>
</g>
<g>
</g>
<g>
</g>
<g>
</g>
<g>
</g>
<g>
</g>
<g>
</g>
</svg>
