<?xml version="1.0" encoding="iso-8859-1"?>
<!-- Generator: Adobe Illustrator 19.0.0, SVG Export Plug-In . SVG Version: 6.00 Build 0)  -->
<svg version="1.1" id="Capa_1" xmlns="http://www.w3.org/2000/svg" xmlns:xlink="http://www.w3.org/1999/xlink" x="0px" y="0px"
	 viewBox="0 0 512.005 512.005" style="enable-background:new 0 0 512.005 512.005;" xml:space="preserve">
<g>
	<g transform="translate(1 1)">
		<path style="fill:#37474F;" d="M255.003,28.869l-17.067,17.067l-230.4,230.4l27.135,32.597l15.531,18.603l76.8-76.8l59.733,59.733
			l17.067-17.067v-42.667c0.014-4.707,3.826-8.52,8.533-8.533h17.067c4.707,0.014,8.52,3.826,8.533,8.533v42.667l17.067,17.067
			l17.067-17.067v-42.667c0.014-4.707,3.826-8.52,8.533-8.533h17.067c4.707,0.014,8.52,3.826,8.533,8.533v42.667l17.067,17.067
			l59.733-59.733l58.198,58.197l18.602,18.603l42.667-51.2L255.003,28.869z"/>
		<path style="fill:#607D8B;" d="M237.936,45.936l-230.4,230.4l27.135,32.597l15.531,18.603l76.8-76.8l59.733,59.733l17.067-17.067
			v-42.667c0.014-4.707,3.826-8.52,8.533-8.533h17.067c4.707,0.014,8.52,3.826,8.533,8.533v42.667l17.067,17.067l17.067-17.067
			v-42.667c0.014-4.707,3.826-8.52,8.533-8.533h17.067c4.707,0.014,8.52,3.826,8.533,8.533v42.667l17.067,17.067l59.733-59.733
			l58.198,58.197l27.135-32.597L237.936,45.936z M272.07,191.003h-34.134l0-92.245c-0.009-1.081,0.194-2.154,0.598-3.157
			l8.533-21.333c1.296-3.247,4.44-5.376,7.935-5.376c3.496,0,6.639,2.13,7.935,5.376l8.533,21.333
			c0.404,1.003,0.607,2.076,0.598,3.157L272.07,191.003z"/>
		<g>
			<g>
				<path id="SVGCleanerId_0" style="fill:#37474F;" d="M237.936,250.736v42.667l-17.067-17.067l-17.067,17.067v-42.667
					c0.014-4.707,3.826-8.52,8.533-8.533h17.067C234.11,242.216,237.923,246.029,237.936,250.736z"/>
			</g>
			<path style="fill:#37474F;" d="M272.07,98.757l0,92.245h-34.134l0-92.245c-0.009-1.081,0.194-2.154,0.598-3.157l8.533-21.333
				c1.296-3.247,4.44-5.376,7.935-5.376c3.496,0,6.639,2.13,7.935,5.376l8.533,21.333C271.875,96.603,272.078,97.676,272.07,98.757z
				"/>
			<g>
				<path id="SVGCleanerId_1" style="fill:#37474F;" d="M306.203,250.736v42.667l-17.067-17.067l-17.067,17.067v-42.667
					c0.014-4.707,3.826-8.52,8.533-8.533h17.067C302.377,242.216,306.189,246.029,306.203,250.736z"/>
			</g>
		</g>
		<g>
			<path id="SVGCleanerId_0_1_" style="fill:#607D8B;" d="M237.936,250.736v42.667l-17.067-17.067l-17.067,17.067v-42.667
				c0.014-4.707,3.826-8.52,8.533-8.533h17.067C234.11,242.216,237.923,246.029,237.936,250.736z"/>
		</g>
		<path style="fill:#02A9F4;" d="M272.07,98.757l0,92.245h-34.134l0-92.245c-0.009-1.081,0.194-2.154,0.598-3.157l8.533-21.333
			c1.296-3.247,4.44-5.376,7.935-5.376c3.496,0,6.639,2.13,7.935,5.376l8.533,21.333C271.875,96.603,272.078,97.676,272.07,98.757z"
			/>
		<g>
			<path id="SVGCleanerId_1_1_" style="fill:#607D8B;" d="M306.203,250.736v42.667l-17.067-17.067l-17.067,17.067v-42.667
				c0.014-4.707,3.826-8.52,8.533-8.533h17.067C302.377,242.216,306.189,246.029,306.203,250.736z"/>
		</g>
		<g>
			<g>
				<path id="SVGCleanerId_0_2_" style="fill:#FF9801;" d="M237.936,250.736v42.667l-17.067-17.067l-17.067,17.067v-42.667
					c0.014-4.707,3.826-8.52,8.533-8.533h17.067C234.11,242.216,237.923,246.029,237.936,250.736z"/>
			</g>
			<g>
				<path id="SVGCleanerId_1_2_" style="fill:#FF9801;" d="M306.203,250.736v42.667l-17.067-17.067l-17.067,17.067v-42.667
					c0.014-4.707,3.826-8.52,8.533-8.533h17.067C302.377,242.216,306.189,246.029,306.203,250.736z"/>
			</g>
		</g>
	</g>
	<g>
		<path d="M238.936,200.536h34.133c2.263,0.001,4.434-0.898,6.035-2.499c1.6-1.6,2.499-3.771,2.499-6.035V99.777
			c-0.001-2.17-0.414-4.321-1.217-6.337l-8.533-21.338c-2.595-6.479-8.872-10.726-15.851-10.725s-13.255,4.25-15.849,10.729
			l-8.542,21.358c-0.798,2.009-1.208,4.151-1.208,6.312v92.225c-0.001,2.263,0.898,4.434,2.499,6.035
			C234.502,199.638,236.673,200.536,238.936,200.536z M247.47,183.469v-51.2h17.067v51.2H247.47z M256.003,78.448l8.533,21.329
			v15.425H247.47V99.782L256.003,78.448z"/>
		<path d="M179.203,217.603c2.263,0.001,4.434-0.898,6.035-2.499c1.6-1.6,2.499-3.771,2.499-6.035v-51.2
			c0-4.713-3.82-8.533-8.533-8.533s-8.533,3.821-8.533,8.533v51.2c-0.001,2.263,0.898,4.434,2.499,6.035
			C174.769,216.704,176.94,217.603,179.203,217.603z"/>
		<path d="M204.803,217.603c2.263,0.001,4.434-0.898,6.035-2.499c1.6-1.6,2.499-3.771,2.499-6.035v-59.733
			c0-4.713-3.821-8.533-8.533-8.533c-4.713,0-8.533,3.82-8.533,8.533v59.733c-0.001,2.263,0.898,4.434,2.499,6.035
			C200.369,216.704,202.54,217.603,204.803,217.603z"/>
		<path d="M44.645,333.998c1.535,1.842,3.774,2.953,6.17,3.062c2.395,0.109,4.726-0.796,6.421-2.491l70.767-70.766l53.7,53.7
			c1.6,1.601,3.77,2.5,6.033,2.5c2.263,0,4.433-0.899,6.033-2.5l17.06-17.061l0.014-0.013l11.026-11.026l11.026,11.026l0.014,0.013
			l17.061,17.061c1.6,1.601,3.77,2.5,6.033,2.5c2.263,0,4.433-0.899,6.033-2.5l17.06-17.061l0.014-0.013l11.026-11.026
			l11.026,11.026l0.014,0.013l17.061,17.061c1.6,1.601,3.77,2.5,6.033,2.5s4.434-0.899,6.033-2.5l53.7-53.7l70.767,70.767
			c1.599,1.601,3.77,2.5,6.033,2.5l0.383-0.009c2.397-0.109,4.638-1.22,6.175-3.062l42.667-51.2
			c2.826-3.39,2.598-8.377-0.525-11.495L262.036,23.836c-1.6-1.601-3.77-2.5-6.033-2.5s-4.433,0.899-6.033,2.5L2.503,271.303
			c-3.124,3.119-3.351,8.105-0.525,11.496L44.645,333.998z M215.837,271.303l-2.5,2.5v-22.067h17.067v22.067l-2.5-2.5
			c-1.6-1.6-3.77-2.5-6.033-2.5C219.606,268.803,217.436,269.702,215.837,271.303z M284.103,271.303l-2.5,2.5v-22.067h17.067v22.067
			l-2.5-2.5c-1.6-1.6-3.77-2.5-6.033-2.5C287.873,268.803,285.703,269.702,284.103,271.303z M256.003,41.936l235.925,235.925
			l-31.7,38.033l-70.192-70.191c-1.6-1.601-3.77-2.5-6.033-2.5s-4.433,0.899-6.033,2.5l-53.7,53.7l-8.533-8.533v-39.133
			c-0.011-9.421-7.645-17.056-17.067-17.067h-17.067c-9.421,0.011-17.056,7.645-17.067,17.067v39.133l-8.533,8.533l-8.533-8.533
			v-39.133c-0.011-9.421-7.645-17.056-17.067-17.067h-17.067c-9.421,0.011-17.056,7.645-17.067,17.067v39.133l-8.533,8.533
			l-53.7-53.7c-1.6-1.601-3.77-2.5-6.033-2.5c-2.263,0-4.433,0.899-6.033,2.5l-70.191,70.192l-31.7-38.033L256.003,41.936z"/>
		<path d="M332.803,217.603c2.263,0.001,4.434-0.898,6.035-2.499c1.6-1.6,2.499-3.771,2.499-6.035v-51.2
			c0-4.713-3.82-8.533-8.533-8.533s-8.533,3.821-8.533,8.533v51.2c-0.001,2.263,0.898,4.434,2.499,6.035
			C328.369,216.704,330.54,217.603,332.803,217.603z"/>
		<path d="M307.203,217.603c2.263,0.001,4.434-0.898,6.035-2.499c1.6-1.6,2.499-3.771,2.499-6.035v-59.733
			c0-4.713-3.82-8.533-8.533-8.533s-8.533,3.82-8.533,8.533v59.733c-0.001,2.263,0.898,4.434,2.499,6.035
			C302.769,216.704,304.94,217.603,307.203,217.603z"/>
		<path d="M204.803,405.336c2.263,0.001,4.434-0.898,6.035-2.499c1.6-1.6,2.499-3.771,2.499-6.035v-59.733
			c0-4.713-3.821-8.533-8.533-8.533c-4.713,0-8.533,3.82-8.533,8.533v59.733c-0.001,2.263,0.898,4.434,2.499,6.035
			C200.369,404.438,202.54,405.336,204.803,405.336z"/>
		<path d="M196.27,456.536c0,4.713,3.821,8.533,8.533,8.533c4.713,0,8.533-3.821,8.533-8.533v-25.6c0-4.713-3.821-8.533-8.533-8.533
			c-4.713,0-8.533,3.821-8.533,8.533V456.536z"/>
		<path d="M238.936,430.936c2.263,0.001,4.434-0.898,6.035-2.499c1.6-1.6,2.499-3.771,2.499-6.035v-68.267
			c0-4.713-3.82-8.533-8.533-8.533s-8.533,3.82-8.533,8.533v68.267c-0.001,2.263,0.898,4.434,2.499,6.035
			C234.502,430.038,236.673,430.936,238.936,430.936z"/>
		<path d="M230.403,482.136c0,4.713,3.821,8.533,8.533,8.533s8.533-3.82,8.533-8.533v-25.6c0-4.713-3.82-8.533-8.533-8.533
			s-8.533,3.82-8.533,8.533V482.136z"/>
		<path d="M315.736,405.336c2.263,0.001,4.434-0.898,6.035-2.499c1.6-1.6,2.499-3.771,2.499-6.035v-59.733
			c0-4.713-3.821-8.533-8.533-8.533c-4.713,0-8.533,3.82-8.533,8.533v59.733c-0.001,2.263,0.898,4.434,2.499,6.035
			C311.302,404.438,313.473,405.336,315.736,405.336z"/>
		<path d="M307.203,456.536c0,4.713,3.821,8.533,8.533,8.533c4.713,0,8.533-3.821,8.533-8.533v-25.6
			c0-4.713-3.821-8.533-8.533-8.533c-4.713,0-8.533,3.821-8.533,8.533V456.536z"/>
		<path d="M281.603,430.936c2.263,0.001,4.434-0.898,6.035-2.499c1.6-1.6,2.499-3.771,2.499-6.035v-68.267
			c0-4.713-3.821-8.533-8.533-8.533s-8.533,3.82-8.533,8.533v68.267c-0.001,2.263,0.898,4.434,2.499,6.035
			C277.169,430.038,279.34,430.936,281.603,430.936z"/>
		<path d="M273.07,482.136c0,4.713,3.82,8.533,8.533,8.533s8.533-3.82,8.533-8.533v-25.6c0-4.713-3.821-8.533-8.533-8.533
			s-8.533,3.82-8.533,8.533V482.136z"/>
	</g>
</g>
<g>
</g>
<g>
</g>
<g>
</g>
<g>
</g>
<g>
</g>
<g>
</g>
<g>
</g>
<g>
</g>
<g>
</g>
<g>
</g>
<g>
</g>
<g>
</g>
<g>
</g>
<g>
</g>
<g>
</g>
</svg>
