<?xml version="1.0" encoding="iso-8859-1"?>
<!-- Generator: Adobe Illustrator 19.0.0, SVG Export Plug-In . SVG Version: 6.00 Build 0)  -->
<svg version="1.1" id="Capa_1" xmlns="http://www.w3.org/2000/svg" xmlns:xlink="http://www.w3.org/1999/xlink" x="0px" y="0px"
	 viewBox="0 0 512 512" style="enable-background:new 0 0 512 512;" xml:space="preserve">
<g>
	<g transform="translate(1 1)">
		<path style="fill:#37474F;" d="M186.734,41.667v153.6H92.867v-153.6c-0.003-9.054,3.593-17.737,9.995-24.139
			c6.402-6.402,15.085-9.997,24.139-9.995h25.6c9.053-0.003,17.737,3.593,24.139,9.995C183.141,23.93,186.736,32.613,186.734,41.667
			z"/>
		<path style="fill:#607D8B;" d="M161.134,41.667v153.6H92.867v-153.6c0-18.851,15.282-34.133,34.133-34.133
			S161.134,22.815,161.134,41.667z"/>
		<path style="fill:#FF9801;" d="M280.6,169.667h-51.2c-0.009-6.792,2.685-13.309,7.488-18.112
			c4.803-4.803,11.32-7.497,18.112-7.488c6.107-0.029,12.017,2.154,16.64,6.144C277.321,155.079,280.594,162.185,280.6,169.667z"/>
		<rect x="229.4" y="169.667" style="fill:#37474F;" width="51.2" height="8.533"/>
		<path style="fill:#FF9801;" d="M280.601,297.667c0.028,9.225-4.934,17.744-12.971,22.272c-3.843,2.203-8.2,3.352-12.629,3.328
			c-6.792,0.009-13.309-2.685-18.112-7.488s-7.497-11.32-7.488-18.112H280.601z"/>
		<rect x="229.4" y="289.133" style="fill:#37474F;" width="51.2" height="8.533"/>
		<polygon style="fill:#607D8B;" points="306.2,169.667 306.2,297.667 280.6,297.667 280.6,289.133 229.4,289.133 229.4,297.667 
			203.8,297.667 203.8,169.667 229.4,169.667 229.4,178.2 280.6,178.2 280.6,169.667 		"/>
		<g>
			<rect x="169.667" y="169.667" style="fill:#1566C0;" width="34.133" height="128"/>
			<rect x="229.4" y="169.667" style="fill:#1566C0;" width="51.2" height="8.533"/>
		</g>
		<rect x="229.4" y="289.133" style="fill:#F44335;" width="51.2" height="8.533"/>
		<rect x="306.2" y="169.667" style="fill:#1566C0;" width="34.133" height="128"/>
		<path style="fill:#37474F;" d="M417.134,41.667v153.6h-93.867v-153.6c-0.003-9.054,3.593-17.737,9.995-24.139
			c6.402-6.402,15.085-9.997,24.139-9.995H383c9.053-0.003,17.737,3.593,24.139,9.995S417.136,32.613,417.134,41.667z"/>
		<path style="fill:#607D8B;" d="M391.534,41.667v153.6H306.2v-34.133c0.027-9.414,7.652-17.039,17.067-17.067v-34.133h-8.533
			c-4.707-0.014-8.519-3.826-8.533-8.533V84.333c0.014-4.707,3.826-8.519,8.533-8.533h8.533V41.667
			c0-18.851,15.282-34.133,34.133-34.133C376.252,7.533,391.534,22.815,391.534,41.667z"/>
		<path style="fill:#283593;" d="M203.8,161.133v162.133c-0.028,9.414-7.652,17.039-17.067,17.067H45.763
			c-5.148-0.011-10.016-2.347-13.247-6.356c-3.23-4.009-4.477-9.262-3.393-14.295l35.243-162.133
			c1.685-7.849,8.612-13.462,16.64-13.483h105.728C196.148,144.094,203.773,151.719,203.8,161.133z"/>
		<path style="fill:#3F51B5;" d="M174.104,161.133v162.133c-0.028,9.414-7.652,17.039-17.067,17.067H45.763
			c-5.148-0.011-10.016-2.347-13.247-6.356c-3.23-4.009-4.477-9.262-3.393-14.295l35.243-162.133
			c1.685-7.849,8.612-13.462,16.64-13.483h76.032C166.452,144.094,174.077,151.719,174.104,161.133z"/>
		<g>
			<path style="fill:#37474F;" d="M195.267,457.581v35.925c0.108,4.827-3.707,8.833-8.533,8.96H41.667
				c-4.826-0.127-8.641-4.133-8.533-8.96v-35.925C33.134,412.611,50.2,331.8,50.2,331.8h128
				C178.2,331.8,195.267,412.611,195.267,457.581z"/>
			<path style="fill:#37474F;" d="M476.867,457.581v36.352c0.033,0.462-0.025,0.926-0.171,1.365c-0.4,2.123-1.551,4.032-3.243,5.376
				c-0.565,0.419-1.165,0.79-1.792,1.109c-1.053,0.447-2.184,0.679-3.328,0.683H323.267c-1.144-0.004-2.275-0.236-3.328-0.683
				c-0.627-0.319-1.227-0.69-1.792-1.109h-0.085c-1.634-1.38-2.747-3.277-3.157-5.376c-0.146-0.44-0.204-0.903-0.171-1.365v-36.352
				c0-36.096,11.008-95.317,15.36-117.248c1.024-5.376,1.707-8.533,1.707-8.533h128c0,0,0.683,3.157,1.707,8.533
				C465.859,362.264,476.867,421.485,476.867,457.581z"/>
		</g>
		<path style="fill:#607D8B;" d="M451.267,457.581v36.352c0.033,0.462-0.025,0.926-0.171,1.365c-0.102,0.55-0.245,1.092-0.427,1.621
			c-0.587,1.48-1.559,2.776-2.816,3.755c-0.565,0.419-1.165,0.79-1.792,1.109c-1.053,0.447-2.184,0.679-3.328,0.683H323.267
			c-1.144-0.004-2.275-0.236-3.328-0.683c-0.627-0.319-1.227-0.69-1.792-1.109h-0.085c-0.451-0.279-0.83-0.659-1.109-1.109
			c-1.176-1.128-1.903-2.644-2.048-4.267c-0.146-0.44-0.204-0.903-0.171-1.365v-36.352c0-36.096,11.008-95.317,15.36-117.248h-6.827
			c-6.093,0.001-11.722-3.253-14.763-8.533H434.2c0,0,0.427,1.963,1.109,5.461c0.171,0.939,0.427,1.963,0.597,3.072
			C440.259,362.264,451.267,421.485,451.267,457.581z"/>
		<path style="fill:#283593;" d="M464.238,340.333H323.267c-9.416-0.023-17.044-7.651-17.067-17.067V161.133
			c0.027-9.414,7.652-17.039,17.067-17.067h105.728c8.028,0.021,14.955,5.634,16.64,13.483l35.242,162.133
			c1.084,5.033-0.163,10.286-3.393,14.295C474.254,337.986,469.386,340.322,464.238,340.333z"/>
		<g>
			<rect x="267.63" y="169.667" style="fill:#3F51B5;" width="12.971" height="8.533"/>
			<rect x="267.63" y="289.133" style="fill:#3F51B5;" width="12.971" height="8.533"/>
			<path style="fill:#3F51B5;" d="M440.43,331.8c-3.107,5.213-8.694,8.443-14.763,8.533h-102.4
				c-9.416-0.023-17.044-7.651-17.067-17.067V161.133c0.027-9.414,7.652-17.039,17.067-17.067h67.157
				c0.372-0.014,0.744,0.015,1.109,0.085c7.598,0.473,13.948,5.951,15.531,13.397l8.192,37.717l27.051,124.416
				C443.22,323.814,442.55,328.138,440.43,331.8z"/>
		</g>
		<path style="fill:#283593;" d="M195.267,459.8v34.133c-0.014,4.707-3.826,8.519-8.533,8.533H41.667
			c-4.707-0.014-8.519-3.826-8.533-8.533V459.8H195.267z"/>
		<path style="fill:#607D8B;" d="M169.667,457.581v35.925c0.108,4.827-3.707,8.833-8.533,8.96H41.667
			c-4.826-0.127-8.641-4.133-8.533-8.96v-35.925C33.134,412.611,50.2,331.8,50.2,331.8h102.4
			C152.6,331.8,169.667,412.611,169.667,457.581z"/>
		<path style="fill:#3F51B5;" d="M169.667,459.8v34.133c-0.014,4.707-3.826,8.519-8.533,8.533H41.667
			c-4.707-0.014-8.519-3.826-8.533-8.533V459.8H169.667z"/>
		<path style="fill:#283593;" d="M476.867,459.8v34.133c0.033,0.462-0.025,0.926-0.171,1.365c-0.309,2.157-1.479,4.096-3.243,5.376
			c-0.565,0.419-1.165,0.79-1.792,1.109c-1.053,0.447-2.184,0.679-3.328,0.683H323.267c-1.144-0.004-2.275-0.236-3.328-0.683
			c-0.651-0.275-1.256-0.649-1.792-1.109h-0.085c-1.752-1.277-2.895-3.224-3.157-5.376c-0.146-0.44-0.204-0.903-0.171-1.365V459.8
			H476.867z"/>
		<g>
			<path style="fill:#3F51B5;" d="M451.267,459.8v34.133c0.033,0.462-0.025,0.926-0.171,1.365c-0.102,0.55-0.245,1.092-0.427,1.621
				c-0.527,1.513-1.511,2.825-2.816,3.755c-0.565,0.419-1.165,0.79-1.792,1.109c-1.053,0.447-2.184,0.679-3.328,0.683H323.267
				c-1.144-0.004-2.275-0.236-3.328-0.683c-0.651-0.275-1.256-0.649-1.792-1.109h-0.085c-1.752-1.277-2.895-3.224-3.157-5.376
				c-0.146-0.44-0.204-0.903-0.171-1.365V459.8H451.267z"/>
			<path style="fill:#3F51B5;" d="M84.334,75.8h110.933c4.713,0,8.533,3.821,8.533,8.533V101.4c0,4.713-3.82,8.533-8.533,8.533
				H84.334c-4.713,0-8.533-3.821-8.533-8.533V84.333C75.8,79.621,79.621,75.8,84.334,75.8z"/>
		</g>
		<path style="fill:#283593;" d="M314.734,75.8h110.933c4.713,0,8.533,3.821,8.533,8.533V101.4c0,4.713-3.82,8.533-8.533,8.533
			H314.734c-4.713,0-8.533-3.821-8.533-8.533V84.333C306.2,79.621,310.021,75.8,314.734,75.8z"/>
	</g>
	<g>
		<path d="M490.242,318.829L455,156.692c-2.616-11.736-13.001-20.102-25.025-20.158h-3.308v-17.067
			c9.421-0.011,17.056-7.645,17.067-17.067V85.333c-0.011-9.421-7.645-17.056-17.067-17.067v-25.6
			C426.639,19.114,407.553,0.028,384,0h-25.6c-23.553,0.028-42.639,19.114-42.667,42.667v25.6
			c-9.421,0.011-17.056,7.645-17.067,17.067V102.4c0.011,9.421,7.645,17.056,17.067,17.067v18.639
			c-10.199,3.592-17.033,13.214-17.067,24.028h-8.533C290.134,143.282,274.852,128,256,128s-34.133,15.282-34.133,34.133h-8.533
			c-0.033-10.813-6.868-20.435-17.067-24.028v-18.639c9.421-0.011,17.056-7.645,17.067-17.067V85.333
			c-0.011-9.421-7.645-17.056-17.067-17.067v-25.6C196.239,19.114,177.153,0.028,153.6,0H128
			c-23.553,0.028-42.639,19.114-42.667,42.667v25.6c-9.421,0.011-17.056,7.645-17.067,17.067V102.4
			c0.011,9.421,7.645,17.056,17.067,17.067v17.067h-3.308C70,136.59,59.614,144.958,57,156.696L21.759,318.825
			c-2.966,13.608,5.506,27.087,19.054,30.316C36.227,371.272,25.6,426.249,25.6,460.8v34.133
			c0.011,9.421,7.645,17.056,17.067,17.067h145.067c9.421-0.011,17.056-7.645,17.067-17.067V460.8
			c-1.941-37.399-6.993-74.571-15.104-111.132c13.302-0.998,23.598-12.062,23.637-25.402V307.2h8.533
			c0,18.851,15.282,34.133,34.133,34.133s34.133-15.282,34.133-34.133h8.533v17.067c0.04,13.339,10.335,24.403,23.637,25.402
			c-8.111,36.56-13.163,73.733-15.104,111.132v34.133c0.011,9.421,7.645,17.056,17.067,17.067h145.067
			c9.421-0.011,17.056-7.645,17.067-17.067V460.8c0-34.551-10.627-89.528-15.212-111.659
			C484.735,345.913,493.206,332.436,490.242,318.829z M332.8,42.667c0.015-14.132,11.468-25.585,25.6-25.6H384
			c14.132,0.015,25.585,11.468,25.6,25.6v25.6h-76.8V42.667z M315.734,85.333h110.933V102.4H315.734V85.333z M409.6,119.467v17.067
			h-76.8v-17.067H409.6z M256,145.067c9.421,0.011,17.056,7.645,17.067,17.067h-34.133C238.944,152.712,246.579,145.077,256,145.067
			z M102.4,42.667c0.015-14.132,11.468-25.585,25.6-25.6h25.6c14.132,0.015,25.585,11.468,25.6,25.6l0.009,25.6H102.4V42.667z
			 M85.334,85.333h110.933l0.009,17.067H85.334V85.333z M102.4,119.467h76.8v17.067h-76.8V119.467z M58.1,349.867h114.2
			c7.363,33.753,12.443,67.964,15.206,102.4H42.894C45.657,417.831,50.737,383.62,58.1,349.867z M128,494.933H42.667v-25.6h145.067
			v25.6H128z M196.267,324.267c-0.005,4.711-3.822,8.529-8.533,8.533H46.775c-2.581,0-5.023-1.169-6.642-3.179
			c-1.619-2.01-2.241-4.645-1.692-7.167l35.242-162.129c0.869-3.915,4.332-6.707,8.342-6.725h105.708
			c4.711,0.005,8.529,3.822,8.533,8.533V324.267z M256,324.267c-9.421-0.011-17.056-7.645-17.067-17.067h34.133
			C273.056,316.621,265.421,324.256,256,324.267z M281.6,290.133h-68.267V179.2h85.333v110.933H281.6z M339.7,349.867h114.2
			c7.363,33.753,12.443,67.964,15.206,102.4H324.494C327.257,417.831,332.337,383.62,339.7,349.867z M384,494.933h-59.733v-25.6
			h145.067v25.6H384z M471.867,329.621c-1.615,2.015-4.059,3.185-6.642,3.179H324.267c-4.711-0.005-8.529-3.822-8.533-8.533V162.133
			c0.005-4.711,3.822-8.529,8.533-8.533h105.708c4.009,0.018,7.471,2.808,8.342,6.721l35.242,162.138
			C474.12,324.979,473.496,327.618,471.867,329.621z"/>
		<path d="M273.067,196.267h-34.133c-4.713,0-8.533,3.821-8.533,8.533c0,4.713,3.821,8.533,8.533,8.533h34.133
			c4.713,0,8.533-3.821,8.533-8.533C281.6,200.087,277.78,196.267,273.067,196.267z"/>
		<path d="M273.067,221.867h-34.133c-4.713,0-8.533,3.82-8.533,8.533s3.821,8.533,8.533,8.533h34.133
			c4.713,0,8.533-3.821,8.533-8.533S277.78,221.867,273.067,221.867z"/>
		<path d="M273.067,247.467h-34.133c-4.713,0-8.533,3.821-8.533,8.533c0,4.713,3.821,8.533,8.533,8.533h34.133
			c4.713,0,8.533-3.821,8.533-8.533C281.6,251.287,277.78,247.467,273.067,247.467z"/>
	</g>
</g>
<g>
</g>
<g>
</g>
<g>
</g>
<g>
</g>
<g>
</g>
<g>
</g>
<g>
</g>
<g>
</g>
<g>
</g>
<g>
</g>
<g>
</g>
<g>
</g>
<g>
</g>
<g>
</g>
<g>
</g>
</svg>
