<?xml version="1.0" encoding="iso-8859-1"?>
<!-- Generator: Adobe Illustrator 19.0.0, SVG Export Plug-In . SVG Version: 6.00 Build 0)  -->
<svg version="1.1" id="Capa_1" xmlns="http://www.w3.org/2000/svg" xmlns:xlink="http://www.w3.org/1999/xlink" x="0px" y="0px"
	 viewBox="0 0 512 512" style="enable-background:new 0 0 512 512;" xml:space="preserve">
<g transform="translate(-1)">
	<g transform="translate(1 1)">
		<rect x="179.202" y="58.733" style="fill:#424242;" width="153.6" height="102.4"/>
		<polygon style="fill:#9E9E9E;" points="307.202,58.733 307.202,161.133 153.602,161.133 153.602,144.067 179.202,144.067 
			179.202,75.8 153.602,75.8 153.602,58.733 		"/>
		<path style="fill:#37474F;" d="M392.535,289.389c0,117.675-61.184,213.077-136.619,213.077c-4.284-0.009-8.561-0.323-12.8-0.939
			c-69.291-10.069-123.648-101.205-123.648-212.139c-0.77-48.921,10.855-97.241,33.792-140.459c0.086-0.162,0.202-0.307,0.341-0.427
			c1.77-2.806,4.875-4.487,8.192-4.437h188.331c3.557-0.033,6.854,1.861,8.619,4.949
			C381.65,192.214,393.274,240.499,392.535,289.389z"/>
		<path style="fill:#607D8B;" d="M366.935,289.389c0,110.933-54.357,202.069-123.819,212.139
			c-69.291-10.069-123.648-101.205-123.648-212.139c-0.77-48.921,10.855-97.241,33.792-140.459c0.086-0.162,0.202-0.307,0.341-0.427
			v-4.437h170.923c3.332-0.014,6.445,1.655,8.277,4.437c0.143,0.15,0.258,0.323,0.341,0.512
			C356.05,192.214,367.674,240.499,366.935,289.389z"/>
		<path style="fill:#37474F;" d="M364.29,18.115l-12.8,51.2c-0.927,3.816-4.35,6.498-8.277,6.485H168.791
			c-3.927,0.013-7.351-2.669-8.277-6.485l-12.8-51.2c-0.638-2.547-0.065-5.246,1.552-7.314c1.618-2.068,4.099-3.274,6.725-3.267
			h200.021c2.626-0.006,5.107,1.199,6.725,3.267C364.355,12.869,364.928,15.568,364.29,18.115z"/>
		<path style="fill:#607D8B;" d="M327.767,18.115l-12.8,51.2c-0.916,3.612-4.048,6.228-7.765,6.485h-153.6V58.733h4.267
			l-10.155-40.619c-0.638-2.547-0.065-5.246,1.552-7.314c1.618-2.068,4.099-3.274,6.725-3.267H319.49
			c2.626-0.007,5.108,1.199,6.725,3.267S328.405,15.568,327.767,18.115z"/>
		<circle style="fill:#CFD8DC;" cx="256.002" cy="297.667" r="93.867"/>
		<g>
			<path style="fill:#4CAF50;" d="M315.735,297.667c-0.056,21.994-12.138,42.196-31.488,52.651l-22.101-36.779
				c6.577-2.517,10.921-8.83,10.923-15.872H315.735z"/>
			<path style="fill:#4CAF50;" d="M249.858,313.539l-22.101,36.779c-19.35-10.455-31.432-30.657-31.488-52.651h42.667
				C238.936,304.709,243.28,311.022,249.858,313.539z"/>
		</g>
		<g>
			<path style="fill:#8BC34A;" d="M244.908,284.781c-3.795,3.203-5.981,7.919-5.973,12.885h-42.667
				c0.029-19.94,9.978-38.558,26.539-49.664L244.908,284.781z"/>
			<path style="fill:#8BC34A;" d="M284.247,350.317c-17.646,9.444-38.844,9.444-56.491,0l22.101-36.779
				c3.941,1.593,8.347,1.593,12.287,0L284.247,350.317z"/>
			<path style="fill:#8BC34A;" d="M315.735,297.667h-42.667c0.008-4.966-2.178-9.682-5.973-12.885l22.101-36.779
				C305.757,259.109,315.706,277.727,315.735,297.667z"/>
		</g>
		<path style="fill:#4CAF50;" d="M289.196,248.003l-22.101,36.779c-6.345-5.575-15.842-5.575-22.187,0l-22.101-36.779
			C242.9,234.577,269.103,234.577,289.196,248.003z"/>
		<path style="fill:#7F8C8D;" d="M273.068,297.667c-0.001,7.042-4.345,13.355-10.923,15.872c-3.941,1.593-8.347,1.593-12.287,0
			c-6.577-2.517-10.922-8.829-10.923-15.872c-0.008-4.966,2.178-9.682,5.973-12.885c6.345-5.575,15.842-5.575,22.187,0
			C270.89,287.985,273.076,292.701,273.068,297.667z"/>
	</g>
	<g>
		<path d="M162.827,136.533c-6.611-0.029-12.724,3.506-15.996,9.25c-23.598,44.494-35.6,94.219-34.896,144.579
			C111.935,412.575,176.989,512,256.952,512c80.017,0,145.117-99.425,145.117-221.637c0.664-50.345-11.333-100.05-34.888-144.55
			c-3.267-5.763-9.392-9.312-16.017-9.279h-8.829v-51.2h1.871c7.834,0.01,14.666-5.323,16.558-12.925l12.8-51.204
			c1.273-5.098,0.127-10.499-3.108-14.641c-3.234-4.142-8.196-6.563-13.451-6.564H156.997c-5.256,0.001-10.218,2.423-13.452,6.565
			s-4.38,9.544-3.106,14.643l12.8,51.2c1.892,7.602,8.724,12.935,16.558,12.925h1.871v51.2H162.827z M352.285,154.142
			c22.139,41.952,33.388,88.791,32.717,136.221c0,112.8-57.442,204.571-128.05,204.571c-70.55,0-127.95-91.771-127.95-204.571
			c-0.711-47.433,10.537-94.281,32.704-136.221c0.256-0.361,0.679-0.566,1.121-0.542h188.338
			C351.606,153.576,352.029,153.781,352.285,154.142z M156.997,17.067h23.204v17.067c0,4.713,3.82,8.533,8.533,8.533
			s8.533-3.821,8.533-8.533V17.067h17.067v17.067c0,4.713,3.821,8.533,8.533,8.533c4.713,0,8.533-3.821,8.533-8.533V17.067h17.067
			v17.067c0,4.713,3.821,8.533,8.533,8.533c4.713,0,8.533-3.821,8.533-8.533V17.067h17.067v17.067c0,4.713,3.821,8.533,8.533,8.533
			c4.713,0,8.533-3.821,8.533-8.533V17.067h17.067v17.067c0,4.713,3.821,8.533,8.533,8.533s8.533-3.821,8.533-8.533V17.067h23.204
			l-12.8,51.2H169.797L156.997,17.067z M188.735,85.333h136.533v51.2h-25.6v-25.6c0-4.713-3.821-8.533-8.533-8.533
			c-4.713,0-8.533,3.821-8.533,8.533v25.6h-17.067v-25.6c0-4.713-3.821-8.533-8.533-8.533c-4.713,0-8.533,3.821-8.533,8.533v25.6
			h-17.067v-25.6c0-4.713-3.821-8.533-8.533-8.533c-4.713,0-8.533,3.821-8.533,8.533v25.6h-25.6V85.333z"/>
		<path d="M257.002,196.267c-56.554,0-102.4,45.846-102.4,102.4s45.846,102.4,102.4,102.4s102.4-45.846,102.4-102.4
			C359.337,242.14,313.529,196.331,257.002,196.267z M257.002,384c-47.128,0-85.333-38.205-85.333-85.333
			s38.205-85.333,85.333-85.333s85.333,38.205,85.333,85.333C342.283,345.773,304.108,383.948,257.002,384z"/>
		<path d="M294.753,241.837c-0.063-0.04-0.095-0.107-0.16-0.146c-0.061-0.037-0.132-0.034-0.194-0.069
			c-22.686-14.963-52.108-14.963-74.795,0c-0.062,0.035-0.133,0.032-0.194,0.069c-0.065,0.039-0.097,0.106-0.16,0.146
			c-19.927,13.211-31.481,35.891-30.452,59.777c1.029,23.886,14.49,45.489,35.478,56.938l0.084,0.077
			c0.056,0.034,0.119,0.043,0.177,0.076c20.253,10.971,44.677,10.971,64.93,0c0.057-0.033,0.12-0.042,0.177-0.076l0.084-0.077
			c20.989-11.449,34.449-33.052,35.478-56.938C326.234,277.729,314.68,255.048,294.753,241.837L294.753,241.837z M281.029,290.133
			c-0.63-1.814-1.463-3.552-2.484-5.179l13.909-23.143c7.9,7.59,13.151,17.519,14.976,28.322H281.029z M265.535,298.667
			c0,4.713-3.821,8.533-8.533,8.533c-4.713,0-8.533-3.82-8.533-8.533s3.821-8.533,8.533-8.533
			C261.712,290.139,265.529,293.956,265.535,298.667z M278.333,252.182l-13.387,22.274c-5.135-1.852-10.755-1.852-15.89,0
			l-13.387-22.274C249.196,245.895,264.807,245.895,278.333,252.182z M221.548,261.811l13.909,23.143
			c-1.021,1.627-1.854,3.364-2.484,5.179h-26.402C208.398,279.331,213.648,269.401,221.548,261.811z M206.572,307.2h26.402
			c1.322,3.76,3.504,7.158,6.373,9.923l-13.341,22.202C215.692,331.467,208.745,319.984,206.572,307.2z M241.115,347.313
			l13.965-23.24c0.646,0.049,1.264,0.194,1.922,0.194c0.658,0,1.276-0.145,1.921-0.194l13.965,23.24
			C262.571,350.718,251.433,350.718,241.115,347.313L241.115,347.313z M287.996,339.325l-13.34-22.202
			c2.869-2.766,5.052-6.164,6.374-9.923h26.402C305.258,319.984,298.311,331.467,287.996,339.325L287.996,339.325z"/>
	</g>
</g>
<g>
</g>
<g>
</g>
<g>
</g>
<g>
</g>
<g>
</g>
<g>
</g>
<g>
</g>
<g>
</g>
<g>
</g>
<g>
</g>
<g>
</g>
<g>
</g>
<g>
</g>
<g>
</g>
<g>
</g>
</svg>
