<?xml version="1.0" encoding="iso-8859-1"?>
<!-- Generator: Adobe Illustrator 19.0.0, SVG Export Plug-In . SVG Version: 6.00 Build 0)  -->
<svg version="1.1" id="Capa_1" xmlns="http://www.w3.org/2000/svg" xmlns:xlink="http://www.w3.org/1999/xlink" x="0px" y="0px"
	 viewBox="0 0 512 512" style="enable-background:new 0 0 512 512;" xml:space="preserve">
<g>
	<g transform="translate(15 1)">
		<g>
			<path style="fill:#2E7D32;" d="M113.171,235.276c6.536,1.395,13.146,2.42,19.797,3.072c-6.595,0.806-13.241,1.119-19.883,0.939
				C113.085,236.726,113.171,235.276,113.171,235.276z"/>
			<path style="fill:#2E7D32;" d="M241,485.388c-5.973-3.413-11.605-7.083-17.067-10.837
				c109.141-75.605,111.445-210.432,110.848-235.264c11.45-0.272,22.849-1.614,34.048-4.011
				C368.829,235.276,379.496,405.345,241,485.388z"/>
			<polygon style="fill:#2E7D32;" points="204.051,387.254 211.133,343.99 181.267,313.441 222.568,307.126 241,267.788 
				259.432,307.126 300.733,313.441 270.867,343.99 277.949,387.254 241,366.86 			"/>
		</g>
		<g>
			<path style="fill:#4CAF50;" d="M334.781,239.286c-6.642,0.181-13.288-0.133-19.883-0.939
				c-54.357-6.4-73.899-43.093-73.899-43.093c-4.523,7.446-10.297,14.057-17.067,19.541c-16.043,13.568-44.8,28.501-90.965,23.552
				c-6.595,0.806-13.241,1.119-19.883,0.939c-0.597,25.003,1.792,159.659,110.848,235.264
				C333.075,398.945,335.379,264.118,334.781,239.286z M277.949,387.254L241,366.86l-36.949,20.395l7.083-43.264l-29.867-30.549
				l41.301-6.315L241,267.788l18.432,39.339l41.301,6.315l-29.867,30.549L277.949,387.254z"/>
			<polygon style="fill:#4CAF50;" points="300.733,313.441 270.867,343.99 277.949,387.254 241,366.86 204.051,387.254 
				211.133,343.99 181.267,313.441 222.568,307.126 241,267.788 259.432,307.126 			"/>
			<path style="fill:#4CAF50;" d="M334.781,239.286c-6.642,0.181-13.288-0.133-19.883-0.939c6.652-0.652,13.261-1.677,19.797-3.072
				C334.696,235.276,334.781,236.726,334.781,239.286z"/>
		</g>
		<polygon style="fill:#FFEB3A;" points="270.867,343.99 277.949,387.254 241,366.86 204.051,387.254 211.133,343.99 
			181.267,313.441 222.568,307.126 241,267.788 259.432,307.126 300.733,313.441 		"/>
		<g>
			<path style="fill:#FF9801;" d="M273.085,101.387h71.851c3.911-0.058,7.299-2.724,8.276-6.511s-0.7-7.76-4.095-9.702
				L245.181,25.697c-2.599-1.451-5.764-1.451-8.363,0L132.883,85.174c-3.395,1.942-5.072,5.915-4.095,9.702
				c0.977,3.787,4.366,6.453,8.276,6.511H273.085z"/>
			<path style="fill:#FF9801;" d="M245.183,85.435l103.957,59.449c3.389,1.951,5.06,5.923,4.084,9.71
				c-0.976,3.787-4.358,6.457-8.268,6.527H137.042c-3.91-0.07-7.292-2.74-8.268-6.527c-0.976-3.787,0.695-7.759,4.084-9.71
				l103.957-59.449C239.407,83.949,242.592,83.949,245.183,85.435z"/>
		</g>
	</g>
	<g>
		<path d="M251.733,493.775c2.639,1.528,5.894,1.528,8.533,0c141.4-81.737,132.167-256.283,132.058-258.037
			c-0.154-2.471-1.373-4.753-3.342-6.254c-1.969-1.501-4.493-2.073-6.916-1.566c-87.883,18.358-117.35-33.496-118.533-35.671
			c-1.624-2.597-4.47-4.175-7.533-4.175c-3.063,0-5.91,1.578-7.533,4.175c-0.292,0.542-29.9,54.163-118.533,35.671
			c-2.423-0.506-4.947,0.065-6.916,1.566c-1.969,1.501-3.188,3.783-3.342,6.254C119.567,237.492,110.333,412.038,251.733,493.775z
			 M256,210.946c14.208,16.933,49.967,46.738,119.425,35.55C375.042,282.542,365.65,410.004,256,476.471
			C146.558,410.108,137.017,282.567,136.583,246.5C206.1,257.658,241.783,227.875,256,210.946L256,210.946z"/>
		<path d="M8.533,319.988H102.4c4.713,0,8.533-3.821,8.533-8.533s-3.821-8.533-8.533-8.533H8.533c-4.713,0-8.533,3.82-8.533,8.533
			S3.821,319.988,8.533,319.988z"/>
		<path d="M17.067,337.054c-4.713,0-8.533,3.821-8.533,8.533c0,4.713,3.821,8.533,8.533,8.533h93.867
			c4.713,0,8.533-3.821,8.533-8.533c0-4.713-3.821-8.533-8.533-8.533H17.067z"/>
		<path d="M128,379.721c0.001-2.263-0.898-4.434-2.499-6.035c-1.6-1.6-3.771-2.499-6.035-2.499H25.6
			c-4.713,0-8.533,3.821-8.533,8.533c0,4.713,3.821,8.533,8.533,8.533h93.867c2.263,0.001,4.434-0.898,6.035-2.499
			C127.102,384.155,128.001,381.984,128,379.721z"/>
		<path d="M42.667,422.388h93.867c4.713,0,8.533-3.82,8.533-8.533s-3.821-8.533-8.533-8.533H42.667
			c-4.713,0-8.533,3.821-8.533,8.533S37.954,422.388,42.667,422.388z"/>
		<path d="M503.467,302.921H409.6c-4.713,0-8.533,3.82-8.533,8.533s3.821,8.533,8.533,8.533h93.867c4.713,0,8.533-3.821,8.533-8.533
			S508.18,302.921,503.467,302.921z"/>
		<path d="M401.067,354.121h93.867c4.713,0,8.533-3.821,8.533-8.533c0-4.713-3.821-8.533-8.533-8.533h-93.867
			c-4.713,0-8.533,3.821-8.533,8.533C392.533,350.3,396.354,354.121,401.067,354.121z"/>
		<path d="M384,379.721c-0.001,2.263,0.898,4.434,2.499,6.035c1.6,1.6,3.771,2.499,6.035,2.499H486.4
			c4.713,0,8.533-3.821,8.533-8.533c0-4.713-3.82-8.533-8.533-8.533h-93.867c-2.263-0.001-4.434,0.898-6.035,2.499
			C384.898,375.287,383.999,377.457,384,379.721z"/>
		<path d="M375.467,405.321c-4.713,0-8.533,3.821-8.533,8.533s3.821,8.533,8.533,8.533h93.867c4.713,0,8.533-3.82,8.533-8.533
			s-3.821-8.533-8.533-8.533H375.467z"/>
		<path d="M214.167,395.229c2.67,1.885,6.183,2.076,9.042,0.492L256,377.596l32.792,18.125c2.86,1.581,6.371,1.389,9.043-0.492
			c2.671-1.882,4.033-5.124,3.507-8.349l-6.358-38.975l26.858-27.525c2.233-2.289,2.998-5.634,1.984-8.666
			c-1.015-3.032-3.64-5.242-6.8-5.726l-36.775-5.621l-16.525-35.204c-1.406-2.995-4.416-4.908-7.725-4.908
			c-3.309,0-6.319,1.913-7.725,4.908l-16.525,35.204l-36.775,5.621c-3.161,0.484-5.785,2.694-6.8,5.726
			c-1.015,3.032-0.249,6.377,1.984,8.666l26.858,27.525l-6.358,38.975C210.135,390.104,211.497,393.346,214.167,395.229z
			 M213.975,320.346l24.858-3.8c2.812-0.431,5.224-2.234,6.433-4.808L256,288.871l10.733,22.867
			c1.209,2.575,3.622,4.378,6.433,4.808l24.858,3.8l-18.267,18.725c-1.891,1.939-2.751,4.66-2.317,7.333l4.225,25.879
			l-21.542-11.904c-2.566-1.422-5.684-1.422-8.25,0l-21.542,11.904l4.225-25.879c0.434-2.673-0.425-5.395-2.317-7.333
			L213.975,320.346z"/>
		<path d="M135.558,157.904c1.908,7.535,8.711,12.797,16.483,12.75h207.917c7.779-0.07,14.547-5.344,16.515-12.871
			c1.969-7.526-1.35-15.438-8.099-19.309l-48.183-27.554h39.742c7.779-0.058,14.552-5.326,16.524-12.851
			c1.972-7.525-1.348-15.438-8.099-19.303L264.392,19.271c-5.225-2.928-11.598-2.922-16.817,0.017l-103.9,59.463
			c-6.765,3.854-10.102,11.768-8.137,19.302c1.965,7.534,8.743,12.811,16.528,12.868h39.742l-48.183,27.554
			C136.79,142.328,133.462,150.344,135.558,157.904z M152.125,93.583l103.817-59.479l103.992,59.75h-69.585l-25.931-14.829
			l-0.009-0.004c-5.218-2.961-11.609-2.96-16.825,0.004l-25.917,14.821L152.125,93.583z M256,93.871l103.958,59.716l-207.867-0.296
			L256,93.871z"/>
	</g>
</g>
<g>
</g>
<g>
</g>
<g>
</g>
<g>
</g>
<g>
</g>
<g>
</g>
<g>
</g>
<g>
</g>
<g>
</g>
<g>
</g>
<g>
</g>
<g>
</g>
<g>
</g>
<g>
</g>
<g>
</g>
</svg>
