<?xml version="1.0" encoding="iso-8859-1"?>
<!-- Generator: Adobe Illustrator 19.0.0, SVG Export Plug-In . SVG Version: 6.00 Build 0)  -->
<svg version="1.1" id="Capa_1" xmlns="http://www.w3.org/2000/svg" xmlns:xlink="http://www.w3.org/1999/xlink" x="0px" y="0px"
	 viewBox="0 0 512 512" style="enable-background:new 0 0 512 512;" xml:space="preserve">
<g>
	<g transform="translate(15 1)">
		<g>
			<path style="fill:#2E7D32;" d="M113.171,149.78c6.536,1.395,13.146,2.42,19.797,3.072c-6.595,0.806-13.241,1.119-19.883,0.939
				C113.085,151.23,113.171,149.78,113.171,149.78z"/>
			<path style="fill:#2E7D32;" d="M241,399.892c-5.973-3.413-11.605-7.083-17.067-10.837
				c109.141-75.605,111.445-210.432,110.848-235.264c11.45-0.272,22.849-1.614,34.048-4.011
				C368.829,149.78,379.496,319.849,241,399.892z"/>
			<polygon style="fill:#2E7D32;" points="204.051,301.758 211.133,258.494 181.267,227.945 222.568,221.63 241,182.292 
				259.432,221.63 300.733,227.945 270.867,258.494 277.949,301.758 241,281.364 			"/>
		</g>
		<g>
			<path style="fill:#4CAF50;" d="M334.781,153.79c-6.642,0.181-13.288-0.133-19.883-0.939c-54.357-6.4-73.899-43.093-73.899-43.093
				c-4.523,7.446-10.297,14.057-17.067,19.541c-16.043,13.568-44.8,28.501-90.965,23.552c-6.595,0.806-13.241,1.119-19.883,0.939
				c-0.597,25.003,1.792,159.659,110.848,235.264C333.075,313.449,335.379,178.622,334.781,153.79z M277.949,301.758L241,281.364
				l-36.949,20.395l7.083-43.264l-29.867-30.549l41.301-6.315L241,182.292l18.432,39.339l41.301,6.315l-29.867,30.549
				L277.949,301.758z"/>
			<polygon style="fill:#4CAF50;" points="300.733,227.945 270.867,258.494 277.949,301.758 241,281.364 204.051,301.758 
				211.133,258.494 181.267,227.945 222.568,221.63 241,182.292 259.432,221.63 			"/>
			<path style="fill:#4CAF50;" d="M334.781,153.79c-6.642,0.181-13.288-0.133-19.883-0.939c6.652-0.652,13.261-1.677,19.797-3.072
				C334.696,149.78,334.781,151.23,334.781,153.79z"/>
		</g>
		<polygon style="fill:#FFEB3A;" points="270.867,258.494 277.949,301.758 241,281.364 204.051,301.758 211.133,258.494 
			181.267,227.945 222.568,221.63 241,182.292 259.432,221.63 300.733,227.945 		"/>
	</g>
	<g>
		<path d="M251.729,408.279c2.642,1.528,5.9,1.528,8.542,0c141.404-81.737,132.167-256.283,132.058-258.038
			c-0.155-2.471-1.376-4.753-3.345-6.254c-1.969-1.501-4.493-2.073-6.917-1.567c-87.942,18.354-117.35-33.5-118.533-35.671
			c-1.624-2.597-4.47-4.175-7.533-4.175s-5.91,1.578-7.533,4.175c-0.287,0.542-29.971,54.167-118.533,35.671
			c-2.424-0.506-4.948,0.066-6.917,1.567c-1.969,1.501-3.19,3.783-3.345,6.254C119.563,151.996,110.325,326.542,251.729,408.279z
			 M256,125.45c14.213,16.925,49.883,46.733,119.417,35.554c-0.429,36.067-9.975,163.608-119.417,229.971
			c-109.442-66.363-118.988-193.904-119.417-229.971C206.1,172.162,241.787,142.371,256,125.45z"/>
		<path d="M8.533,234.492H102.4c4.713,0,8.533-3.821,8.533-8.533c0-4.713-3.821-8.533-8.533-8.533H8.533
			c-4.713,0-8.533,3.821-8.533,8.533C0,230.671,3.821,234.492,8.533,234.492z"/>
		<path d="M17.067,251.558c-4.713,0-8.533,3.821-8.533,8.533c0,4.713,3.821,8.533,8.533,8.533h93.867
			c4.713,0,8.533-3.821,8.533-8.533c0-4.713-3.821-8.533-8.533-8.533H17.067z"/>
		<path d="M128,294.225c0-4.713-3.821-8.533-8.533-8.533H25.6c-4.713,0-8.533,3.821-8.533,8.533c0,4.713,3.821,8.533,8.533,8.533
			h93.867C124.179,302.758,128,298.938,128,294.225z"/>
		<path d="M42.667,336.892h93.867c4.713,0,8.533-3.82,8.533-8.533s-3.821-8.533-8.533-8.533H42.667
			c-4.713,0-8.533,3.821-8.533,8.533S37.954,336.892,42.667,336.892z"/>
		<path d="M503.467,217.425H409.6c-4.713,0-8.533,3.821-8.533,8.533c0,4.713,3.821,8.533,8.533,8.533h93.867
			c4.713,0,8.533-3.821,8.533-8.533C512,221.245,508.18,217.425,503.467,217.425z"/>
		<path d="M401.067,268.625h93.867c4.713,0,8.533-3.821,8.533-8.533c0-4.713-3.821-8.533-8.533-8.533h-93.867
			c-4.713,0-8.533,3.821-8.533,8.533C392.533,264.804,396.354,268.625,401.067,268.625z"/>
		<path d="M384,294.225c0,4.713,3.82,8.533,8.533,8.533H486.4c4.713,0,8.533-3.821,8.533-8.533c0-4.713-3.82-8.533-8.533-8.533
			h-93.867C387.821,285.692,384,289.512,384,294.225z"/>
		<path d="M477.867,328.358c0.001-2.263-0.898-4.434-2.499-6.035s-3.771-2.499-6.035-2.499h-93.867
			c-4.713,0-8.533,3.821-8.533,8.533s3.821,8.533,8.533,8.533h93.867c2.263,0.001,4.434-0.898,6.035-2.499
			C476.968,332.793,477.867,330.622,477.867,328.358z"/>
		<path d="M214.167,309.733c2.673,1.879,6.184,2.07,9.046,0.492L256,292.1l32.788,18.125c2.86,1.582,6.372,1.392,9.044-0.49
			c2.672-1.882,4.033-5.126,3.506-8.351l-6.354-38.975l26.858-27.525c2.233-2.289,2.999-5.635,1.983-8.667
			c-1.016-3.032-3.642-5.242-6.804-5.724l-36.771-5.621l-16.525-35.204c-1.406-2.995-4.416-4.908-7.725-4.908
			c-3.309,0-6.319,1.913-7.725,4.908l-16.525,35.204l-36.771,5.621c-3.162,0.482-5.788,2.692-6.804,5.724
			c-1.016,3.032-0.25,6.378,1.983,8.667l26.858,27.525l-6.354,38.975C210.133,304.608,211.495,307.852,214.167,309.733z
			 M213.97,234.85l24.858-3.8c2.814-0.428,5.229-2.232,6.438-4.808L256,203.375l10.733,22.867c1.209,2.577,3.624,4.38,6.438,4.808
			l24.858,3.8l-18.271,18.725c-1.892,1.938-2.75,4.66-2.313,7.333l4.221,25.879l-21.537-11.904c-2.569-1.422-5.689-1.422-8.258,0
			l-21.537,11.904l4.221-25.879c0.438-2.673-0.42-5.395-2.313-7.333L213.97,234.85z"/>
	</g>
</g>
<g>
</g>
<g>
</g>
<g>
</g>
<g>
</g>
<g>
</g>
<g>
</g>
<g>
</g>
<g>
</g>
<g>
</g>
<g>
</g>
<g>
</g>
<g>
</g>
<g>
</g>
<g>
</g>
<g>
</g>
</svg>
