<?xml version="1.0" encoding="iso-8859-1"?>
<!-- Generator: Adobe Illustrator 19.0.0, SVG Export Plug-In . SVG Version: 6.00 Build 0)  -->
<svg version="1.1" id="Capa_1" xmlns="http://www.w3.org/2000/svg" xmlns:xlink="http://www.w3.org/1999/xlink" x="0px" y="0px"
	 viewBox="0 0 512 512" style="enable-background:new 0 0 512 512;" xml:space="preserve">
<g>
	<g transform="translate(0 1)">
		<g>
			<path style="fill:#37474F;" d="M222.464,222.147c-15.957,18.944-53.163,58.453-85.419,58.453
				c-42.411,0-33.963-42.667-33.963-85.333s59.392-42.667,59.392-42.667c20.978,0.393,41.104,8.365,56.661,22.443
				C232.752,187.285,234.223,208.112,222.464,222.147z"/>
			<g>
				<path id="SVGCleanerId_0" style="fill:#37474F;" d="M298.667,413.379c0,30.379-19.115,54.955-42.667,54.955
					s-42.667-24.576-42.667-54.955c0-18.261,15.445-58.197,27.733-87.211c1.812-6.758,7.937-11.456,14.933-11.456
					c6.996,0,13.121,4.698,14.933,11.456c11.03,24.549,19.882,50.019,26.453,76.117c0.56,2.791,0.959,5.611,1.195,8.448
					C298.667,411.672,298.667,412.525,298.667,413.379z"/>
			</g>
			<g>
				<path style="fill:#37474F;" d="M353.109,444.696c-5.547,6.315-10.837,12.629-16.213,18.603
					c-19.627,21.589-41.131,39.168-80.896,39.168c-5.71,0.012-11.414-0.388-17.067-1.195c38.827-5.717,57.771-30.976,80.043-56.576
					l15.616-26.283c1.426,4.443,3.465,8.665,6.059,12.544c2.015,3.062,4.425,5.846,7.168,8.277l0.341,0.341L353.109,444.696z"/>
				<path style="fill:#37474F;" d="M432.725,306.2c-1.792,4.267-3.499,8.619-5.12,12.885l-12.117,20.48l-13.824,23.211
					l-34.816,58.795l-13.739,23.125l-4.949-5.12l-0.341-0.341c-2.743-2.432-5.153-5.215-7.168-8.277
					c-2.593-3.879-4.632-8.101-6.059-12.544c-6.179-21.66-2.958-44.92,8.875-64.085c9.7-17.552,25.389-31.03,44.203-37.973
					c2.56-0.768,5.12-1.451,7.68-1.963c1.024-2.731,2.133-5.461,3.243-8.192c6.077-17.999,9.385-36.816,9.813-55.808
					c-2.56,17.92-10.752,30.208-33.451,30.208c-4.269-0.057-8.513-0.659-12.629-1.792c-28.843-8.021-58.88-40.192-72.789-56.661
					c-11.759-14.035-10.288-34.862,3.328-47.104c12.296-10.987,27.385-18.368,43.605-21.333c4.315-0.723,8.681-1.094,13.056-1.109
					c0,0,59.392,0,59.392,42.667c0,9.045,0.341,18.261,0.597,26.965c0.597-41.728-2.133-84.736-2.133-103.765
					c-0.051-9.514-1.342-18.98-3.84-28.16c-4.696-17.783-14.238-33.913-27.563-46.592v-0.085
					c-8.829-8.253-19.174-14.716-30.464-19.029C314.112,12.483,264.789,8.984,238.933,7.875C249.429,7.533,256,7.533,256,7.533
					s79.531,0,123.648,17.067c1.118,0.396,2.202,0.881,3.243,1.451c7.134,2.998,13.869,6.868,20.053,11.52
					c1.451,1.109,2.901,2.219,4.267,3.413c7.617,6.634,14.127,14.441,19.285,23.125c1.271,1.971,2.411,4.024,3.413,6.144
					c0.132,0.188,0.246,0.388,0.341,0.597c0.427,0.853,0.853,1.707,1.195,2.56c0.256,0.597,0.512,1.195,0.768,1.707
					c0.597,1.28,1.109,2.56,1.621,3.925c1.246,3.07,2.328,6.203,3.242,9.387c2.933,9.743,4.428,19.862,4.438,30.037
					C441.515,152.6,450.389,263.533,432.725,306.2z"/>
			</g>
		</g>
		<g>
			<g>
				<path style="fill:#607D8B;" d="M407.381,118.467c-0.051-9.514-1.342-18.98-3.84-28.16
					c-4.696-17.783-14.238-33.913-27.563-46.592v-0.085c-8.829-8.253-19.174-14.716-30.464-19.029
					C314.112,12.483,264.789,8.984,238.933,7.875c-25.856,1.109-75.179,4.608-106.581,16.725c-1.118,0.396-2.202,0.881-3.243,1.451
					c-7.134,2.998-13.869,6.868-20.053,11.52c-1.451,1.109-2.901,2.219-4.267,3.413c-7.617,6.634-14.127,14.441-19.285,23.125
					c-1.271,1.971-2.411,4.024-3.413,6.144c-0.132,0.188-0.246,0.388-0.341,0.597c-0.427,0.853-0.853,1.707-1.195,2.56
					c-0.256,0.597-0.512,1.195-0.768,1.707c-0.597,1.28-1.109,2.56-1.621,3.925c-1.246,3.069-2.328,6.203-3.243,9.387
					c-2.932,9.743-4.427,19.862-4.437,30.037c0,34.133-8.875,145.067,8.789,187.733c1.792,4.267,3.499,8.619,5.12,12.885
					l25.941,43.691l34.816,58.795l13.739,23.125c22.272,25.6,41.216,50.859,80.043,56.576c38.827-5.717,57.771-30.976,80.043-56.576
					l15.616-26.283c-6.179-21.66-2.958-44.92,8.875-64.085c9.7-17.552,25.389-31.03,44.203-37.973c2.56-0.768,5.12-1.451,7.68-1.963
					c1.024-2.731,2.133-5.461,3.243-8.192c6.077-17.999,9.385-36.816,9.813-55.808c-2.56,17.92-10.752,30.208-33.451,30.208
					c-4.269-0.057-8.513-0.659-12.629-1.792c-28.843-8.021-58.88-40.192-72.789-56.661c-11.759-14.035-10.288-34.862,3.328-47.104
					c12.296-10.987,27.385-18.368,43.605-21.333c4.315-0.723,8.681-1.094,13.056-1.109c0,0,59.392,0,59.392,42.667
					c0,9.045,0.341,18.261,0.597,26.965C410.112,180.504,407.381,137.496,407.381,118.467z M137.045,280.6
					c-42.411,0-33.963-42.667-33.963-85.333s59.392-42.667,59.392-42.667c20.978,0.393,41.104,8.365,56.661,22.443
					c13.616,12.242,15.087,33.069,3.328,47.104C206.507,241.091,169.301,280.6,137.045,280.6z M297.387,402.285
					c0.56,2.791,0.959,5.611,1.195,8.448c0.085,0.939,0.085,1.792,0.085,2.645c0,30.379-19.115,54.955-42.667,54.955
					s-42.667-24.576-42.667-54.955c0-18.261,15.445-58.197,27.733-87.211c1.812-6.758,7.937-11.456,14.933-11.456
					c6.996,0,13.121,4.698,14.933,11.456C281.963,350.717,290.815,376.187,297.387,402.285z"/>
				<path style="fill:#607D8B;" d="M145.152,421.571l13.739,23.125l-17.92,18.603c-0.427-0.512-0.939-1.024-1.365-1.536
					c-4.949-5.547-9.813-11.264-14.848-17.067l-14.677-24.747l-15.019-25.259v-0.085l-27.051-45.568l-5.547-9.472l9.899-10.325
					l0.512-0.512c3.146-3.817,6.964-7.027,11.264-9.472c0.085-0.085,0.171-0.085,0.256-0.171l25.941,43.691L145.152,421.571z"/>
				<path style="fill:#607D8B;" d="M222.464,222.147c-15.957,18.944-53.163,58.453-85.419,58.453
					c-42.411,0-33.963-42.667-33.963-85.333s59.392-42.667,59.392-42.667c20.978,0.393,41.104,8.365,56.661,22.443
					C232.752,187.285,234.223,208.112,222.464,222.147z"/>
			</g>
			<g>
				<path id="SVGCleanerId_0_1_" style="fill:#607D8B;" d="M298.667,413.379c0,30.379-19.115,54.955-42.667,54.955
					s-42.667-24.576-42.667-54.955c0-18.261,15.445-58.197,27.733-87.211c1.812-6.758,7.937-11.456,14.933-11.456
					c6.996,0,13.121,4.698,14.933,11.456c11.03,24.549,19.882,50.019,26.453,76.117c0.56,2.791,0.959,5.611,1.195,8.448
					C298.667,411.672,298.667,412.525,298.667,413.379z"/>
			</g>
			<g>
				<path style="fill:#607D8B;" d="M395.349,314.392c-0.683,1.536-1.28,3.157-1.877,4.693l-58.88,99.328
					c-6.179-21.66-2.958-44.92,8.875-64.085c9.7-17.552,25.389-31.03,44.203-37.973
					C390.229,315.587,392.789,314.904,395.349,314.392z"/>
				<path style="fill:#607D8B;" d="M409.515,222.232v1.195c-0.171,8.875-0.512,17.664-1.024,26.197
					c0.014,0.259-0.015,0.518-0.085,0.768c-2.56,17.92-10.752,30.208-33.451,30.208c-4.269-0.057-8.513-0.659-12.629-1.792
					c-28.843-8.021-58.88-40.192-72.789-56.661c-11.759-14.035-10.288-34.862,3.328-47.104
					c12.296-10.987,27.385-18.368,43.605-21.333c4.315-0.723,8.681-1.094,13.056-1.109c0,0,59.392,0,59.392,42.667
					C408.917,204.312,409.259,213.528,409.515,222.232z"/>
			</g>
		</g>
		<g>
			<path style="fill:#3F51B5;" d="M230.4,200.387c-0.001,7.961-2.812,15.667-7.936,21.76
				c-15.957,18.944-53.163,58.453-85.419,58.453c-42.411,0-33.963-42.667-33.963-85.333s59.392-42.667,59.392-42.667
				c20.978,0.393,41.104,8.365,56.661,22.443C226.376,181.466,230.484,190.708,230.4,200.387z"/>
			<path style="fill:#8BC34A;" d="M171.349,430.957c-2.015,3.062-4.425,5.846-7.168,8.277l-0.341,0.341l-4.949,5.12l-17.92,18.603
				l-8.192,8.448c-3.076,3.42-6.677,6.329-10.667,8.619c-26.539,15.36-64.341-0.341-84.395-34.987
				c-18.517-32.171-15.36-69.291,6.315-86.869l0.171-0.085l0.085-0.085l18.091-18.773h0.085l9.899-10.325l0.512-0.512
				c3.146-3.817,6.964-7.027,11.264-9.472c0.085-0.085,0.171-0.085,0.256-0.171c5.569-3.182,11.779-5.077,18.176-5.547
				c23.552-1.963,50.261,13.568,65.963,40.789C184.064,381.123,184.32,411.501,171.349,430.957z"/>
			<path style="fill:#009688;" d="M132.779,471.747c-3.076,3.42-6.677,6.329-10.667,8.619c-26.539,15.36-64.341-0.341-84.395-34.987
				c-18.517-32.171-15.36-69.291,6.315-86.869l0.171-0.085c1.703-1.349,3.5-2.575,5.376-3.669
				c26.624-15.36,64.427,0.341,84.395,34.987C150.955,419.181,149.76,452.888,132.779,471.747z"/>
			<path style="fill:#8BC34A;" d="M99.6,452.142c-14.055-2.099-26.155-11.032-32.3-23.846c-5.679-9.31-8.224-20.195-7.263-31.058
				c0.305-5.044,2.711-9.73,6.633-12.917c1.672-0.922,3.562-1.378,5.471-1.321c14.057,2.103,26.157,11.038,32.304,23.854
				c5.676,9.31,8.22,20.193,7.258,31.054c-0.305,5.044-2.711,9.73-6.633,12.917C103.398,451.746,101.509,452.201,99.6,452.142z"/>
			<path style="fill:#283593;" d="M409.515,222.232v1.195c0.329,8.746-0.013,17.504-1.024,26.197
				c0.014,0.259-0.015,0.518-0.085,0.768c-2.56,17.92-10.752,30.208-33.451,30.208c-4.269-0.057-8.513-0.659-12.629-1.792
				c-28.843-8.021-58.88-40.192-72.789-56.661c-11.759-14.035-10.288-34.862,3.328-47.104
				c12.296-10.987,27.385-18.368,43.605-21.333c4.315-0.723,8.681-1.094,13.056-1.109c0,0,59.392,0,59.392,42.667
				C408.917,204.312,409.259,213.528,409.515,222.232z"/>
			<path style="fill:#3F51B5;" d="M362.325,278.808c-28.843-8.021-58.88-40.192-72.789-56.661
				c-11.759-14.035-10.288-34.862,3.328-47.104c12.296-10.987,27.385-18.368,43.605-21.333c17.408,2.645,46.848,11.52,46.848,41.557
				C383.317,232.899,389.888,270.531,362.325,278.808z"/>
			<path style="fill:#558B30;" d="M474.283,445.379c-2.734,4.682-5.845,9.134-9.301,13.312c-2.206,2.645-4.571,5.153-7.083,7.509
				c-13.494,13.963-32.525,21.163-51.883,19.627c-1.792-0.256-3.499-0.597-5.291-1.024c-1.621-0.427-3.243-0.939-4.864-1.536
				c-2.048-0.846-4.042-1.815-5.973-2.901c-3.99-2.289-7.59-5.199-10.667-8.619l-26.112-27.051l-4.949-5.12l-0.341-0.341
				c-2.743-2.432-5.153-5.215-7.168-8.277c-2.593-3.879-4.632-8.101-6.059-12.544c-6.179-21.66-2.958-44.92,8.875-64.085
				c9.7-17.552,25.389-31.03,44.203-37.973c2.56-0.768,5.12-1.451,7.68-1.963c4.628-0.958,9.37-1.245,14.08-0.853
				c6.397,0.469,12.607,2.365,18.176,5.547c0.085,0.085,0.171,0.085,0.256,0.171c4.3,2.445,8.118,5.655,11.264,9.472l0.512,0.512
				l28.16,29.184l0.171,0.085C489.643,376.088,492.8,413.208,474.283,445.379z"/>
			<g>
				<path style="fill:#8BC34A;" d="M297.387,402.285c0.56,2.791,0.959,5.611,1.195,8.448
					C297.921,407.961,297.521,405.132,297.387,402.285z"/>
				<path style="fill:#8BC34A;" d="M452.181,399.64c0.085,1.877,0.085,3.925,0,5.973c-0.783,14.025-4.909,27.659-12.032,39.765
					c-9.688,17.575-25.425,31.038-44.288,37.888c-2.048-0.846-4.042-1.815-5.973-2.901c-3.99-2.289-7.59-5.199-10.667-8.619
					l-26.112-27.051l-4.949-5.12l-0.341-0.341c-2.743-2.432-5.153-5.215-7.168-8.277c-2.593-3.879-4.632-8.101-6.059-12.544
					c-6.179-21.66-2.958-44.92,8.875-64.085c9.7-17.552,25.389-31.03,44.203-37.973c2.012,0.736,3.954,1.65,5.803,2.731
					c0.085,0.085,0.171,0.085,0.256,0.171c4.3,2.445,8.118,5.655,11.264,9.472l0.512,0.512l9.984,10.325l10.667,11.093l7.509,7.765
					l0.171,0.085C445.639,368.9,452.337,383.914,452.181,399.64z"/>
			</g>
			<path style="fill:#009688;" d="M474.283,445.379c-2.734,4.682-5.845,9.134-9.301,13.312c-2.206,2.645-4.571,5.153-7.083,7.509
				c-13.494,13.963-32.525,21.163-51.883,19.627c-1.792-0.256-3.499-0.597-5.291-1.024c-1.621-0.427-3.243-0.939-4.864-1.536
				c-2.048-0.846-4.042-1.815-5.973-2.901c-3.99-2.289-7.59-5.199-10.667-8.619c-11.379-14.054-15.914-32.443-12.373-50.176
				c3.593-23.353,16.066-44.417,34.816-58.795c7.298-5.594,15.617-9.71,24.491-12.117c12.153-3.503,25.201-2.03,36.267,4.096
				c1.876,1.095,3.673,2.321,5.376,3.669l0.171,0.085C489.643,376.088,492.8,413.208,474.283,445.379z"/>
			<path style="fill:#8BC34A;" d="M412.4,452.142c14.055-2.099,26.155-11.032,32.3-23.846c5.679-9.31,8.224-20.195,7.263-31.058
				c-0.305-5.044-2.711-9.73-6.633-12.917c-1.672-0.922-3.562-1.379-5.471-1.321c-14.057,2.103-26.157,11.038-32.304,23.854
				c-5.676,9.31-8.22,20.193-7.258,31.054c0.305,5.044,2.711,9.73,6.633,12.917C408.602,451.746,410.491,452.201,412.4,452.142z"/>
		</g>
		<g>
			<g>
				<path id="SVGCleanerId_0_2_" style="fill:#3F51B5;" d="M298.667,413.379c0,30.379-19.115,54.955-42.667,54.955
					s-42.667-24.576-42.667-54.955c0-18.261,15.445-58.197,27.733-87.211c1.812-6.758,7.937-11.456,14.933-11.456
					c6.996,0,13.121,4.698,14.933,11.456c11.03,24.549,19.882,50.019,26.453,76.117c0.56,2.791,0.959,5.611,1.195,8.448
					C298.667,411.672,298.667,412.525,298.667,413.379z"/>
			</g>
			<g>
				<path style="fill:#3F51B5;" d="M136.533,50.2c0.001,14.76-7.628,28.473-20.17,36.255c-12.542,7.782-28.216,8.529-41.441,1.974
					c0.915-3.184,1.997-6.317,3.243-9.387c0.512-1.365,1.025-2.645,1.621-3.925c0.256-0.512,0.512-1.109,0.768-1.707
					c0.341-0.853,0.768-1.707,1.195-2.56c0.095-0.209,0.209-0.409,0.341-0.597c1.002-2.12,2.143-4.173,3.413-6.144
					c5.158-8.685,11.668-16.491,19.285-23.125c1.365-1.195,2.816-2.304,4.267-3.413c6.184-4.652,12.919-8.522,20.053-11.52
					C133.96,33.169,136.547,41.586,136.533,50.2z"/>
				<path style="fill:#3F51B5;" d="M437.077,88.429c-17.407,8.584-38.414,4.354-51.142-10.299
					c-12.728-14.653-13.979-36.044-3.044-52.08C409.544,37.46,429.508,60.442,437.077,88.429z"/>
			</g>
		</g>
	</g>
	<g>
		<path d="M94.558,196.267c0,6.142-0.179,12.283-0.354,18.295c-0.75,25.875-1.458,50.317,12.35,64.533
			c8.197,7.741,19.235,11.737,30.487,11.038c34.9,0,72.6-38.508,91.967-61.463c6.421-7.651,9.936-17.324,9.925-27.312
			c0.074-12.138-5.112-23.714-14.221-31.738c-17.072-15.458-39.181-24.184-62.208-24.554
			C139.004,145.067,94.558,155.767,94.558,196.267z M111.262,215.058c0.179-6.175,0.362-12.483,0.362-18.792
			c0-33.583,48.817-34.125,50.879-34.133c18.903,0.394,37.022,7.627,51,20.358c5.386,4.782,8.437,11.664,8.363,18.867
			c0.012,5.962-2.078,11.736-5.904,16.308c-29.267,34.692-58.771,55.4-78.921,55.4c-6.628,0.625-13.223-1.493-18.246-5.862
			C110.012,258.163,110.621,237.225,111.262,215.058z"/>
		<path d="M99.779,495.746c9.335,0.073,18.522-2.331,26.625-6.967c4.572-2.674,8.711-6.03,12.273-9.95
			c0.085-0.081,0.198-0.107,0.281-0.192l19.59-20.291C181.458,484.925,205.5,512,256,512s74.542-27.075,97.452-53.654l19.59,20.291
			c0.082,0.085,0.196,0.111,0.281,0.192c3.562,3.92,7.701,7.275,12.273,9.95c8.103,4.635,17.29,7.039,26.625,6.967
			c25.571,0,53.063-16.767,69.433-45.117c10.411-17.419,14.841-37.764,12.617-57.934c-1.547-15.001-8.684-28.87-19.992-38.848
			l-29.021-30.085c-0.076-0.079-0.181-0.104-0.259-0.179c-2.103-2.425-4.442-4.633-6.984-6.593c0.862-2.181,1.679-4.352,2.593-6.528
			c14.804-35.758,12.05-111.962,10.229-162.387c-0.425-11.85-0.788-21.783-0.788-28.608c0.789-44.601-25.974-85.081-67.321-101.825
			C337.642,0.2,259.312,0,256,0c-3.312,0-81.642,0.2-126.725,17.637C87.927,34.382,61.162,74.864,61.95,119.467
			c0,6.825-0.362,16.758-0.788,28.608c-1.821,50.425-4.575,126.629,10.246,162.429c0.902,2.146,1.717,4.313,2.574,6.48
			c-2.602,1.991-4.997,4.24-7.146,6.713l-0.095,0.065l-29.021,30.085c-11.308,9.978-18.445,23.847-19.992,38.848
			c-2.225,20.17,2.206,40.515,12.617,57.933C46.717,478.979,74.208,495.746,99.779,495.746z M141.396,386.517
			c-13.506-25.646-39.172-42.619-68.058-45.008l5.031-5.215l0.028-0.018c0.2-0.2,0.905-0.925,1.083-1.142
			c2.496-3.017,5.52-5.554,8.925-7.488c0.158-0.092,0.312-0.188,0.467-0.292c4.429-2.477,9.347-3.949,14.408-4.313
			c20.966-1.75,44.242,12.937,57.871,36.567c13.4,23.121,14.646,50.292,3.104,67.613c-1.717,2.586-3.77,4.933-6.104,6.979
			l-0.341,0.341l-0.015,0.023l-3.228,3.344C155.154,419.874,150.585,402.045,141.396,386.517L141.396,386.517z M423.13,327.354
			c0.154,0.104,0.308,0.2,0.467,0.292c3.634,2.103,6.853,4.854,9.496,8.117l0.513,0.513l0.028,0.019l5.033,5.217
			c-28.884,2.395-54.548,19.365-68.06,45.006c-9.189,15.529-13.758,33.357-13.169,51.392l-3.228-3.344l-0.015-0.022l-0.13-0.128
			l-0.066-0.068l-0.012-0.009c-0.197-0.194-0.445-0.435-0.55-0.525c-2.174-1.938-4.085-4.153-5.683-6.588
			c-11.546-17.325-10.3-44.496,3.108-67.633c13.617-23.617,36.854-38.25,57.892-36.55
			C413.801,323.409,418.71,324.882,423.13,327.354L423.13,327.354z M466.871,442.096c-17.638,30.558-50.275,44.879-72.742,31.9
			c-11.065-6.956-18.19-18.733-19.217-31.763c-1.743-16.449,1.935-33.017,10.475-47.183c17.642-30.558,50.267-44.892,72.742-31.9
			c1.475,0.864,2.885,1.837,4.216,2.909l0.746,0.774c0.185,0.192,0.434,0.261,0.631,0.431c7.753,7.252,12.597,17.082,13.623,27.648
			C479.089,411.362,475.41,427.93,466.871,442.096L466.871,442.096z M426.377,84.268c-10.192,2.616-21.022,0.357-29.318-6.117
			C388.764,71.678,383.94,61.723,384,51.2c0.025-4.443,0.914-8.838,2.617-12.941C405.023,48.251,419.158,64.608,426.377,84.268z
			 M370.94,31.61c-7.554,17.934-4.242,38.604,8.536,53.281c12.778,14.677,32.795,20.802,51.599,15.789
			c1.241,6.186,1.88,12.478,1.908,18.788c0,6.975,0.362,17.117,0.8,29.221c1.663,45.975,4.437,122.921-8.925,155.208
			c-0.67,1.597-1.27,3.211-1.918,4.822c-4.14-1.423-8.44-2.325-12.803-2.685c-27.479-2.279-57.208,15.808-74.054,45.017
			c-16.846,29.062-17.842,62.679-2.529,85.646c2.276,3.421,4.959,6.552,7.991,9.326l-0.028,0.033
			c-22.596,26.229-42.108,48.879-85.517,48.879s-62.921-22.65-85.517-48.879l-0.041-0.047c3.04-2.766,5.729-5.895,8.007-9.316
			c15.308-22.962,14.313-56.579-2.525-85.625c-16.85-29.217-46.621-47.358-74.033-45.033c-4.372,0.359-8.683,1.261-12.832,2.686
			c-0.642-1.597-1.241-3.209-1.902-4.782c-13.379-32.329-10.604-109.275-8.942-155.25c0.438-12.104,0.8-22.246,0.8-29.221
			c0.028-6.309,0.667-12.601,1.908-18.788c18.805,5.024,38.83-1.099,51.611-15.779c12.781-14.68,16.088-35.357,8.523-53.292
			C184.076,17.293,255.254,17.067,256,17.067C256.746,17.067,327.887,17.278,370.94,31.61z M125.383,38.257
			c4.384,10.515,3.209,22.527-3.129,31.993S105.259,85.38,93.867,85.333c-2.781-0.015-5.55-0.373-8.243-1.065
			C92.843,64.608,106.978,48.252,125.383,38.257z M34.654,394.913c1.026-10.567,5.87-20.398,13.625-27.649
			c0.197-0.17,0.445-0.239,0.629-0.43l0.746-0.774c1.332-1.073,2.741-2.045,4.216-2.909c5.598-3.197,11.945-4.849,18.392-4.787
			c19.471,0,41.125,13.779,54.35,36.687c8.54,14.166,12.218,30.734,10.475,47.183c-1.027,13.029-8.152,24.806-19.217,31.763
			c-22.467,12.975-55.1-1.342-72.742-31.9C36.589,427.93,32.911,411.362,34.654,394.913z"/>
		<path d="M99.6,461.675c3.405,0.06,6.765-0.789,9.733-2.458c6.321-4.44,10.301-11.494,10.833-19.2
			c1.196-12.722-1.724-25.491-8.329-36.429c-7.586-15.516-22.542-26.111-39.696-28.121c-3.405-0.057-6.765,0.793-9.733,2.462
			c-6.321,4.44-10.301,11.494-10.833,19.2c-1.196,12.724,1.725,25.495,8.333,36.433C67.493,449.077,82.448,459.669,99.6,461.675z
			 M68.5,399.337c0.101-2.409,0.953-4.725,2.438-6.625c0.384-0.145,0.795-0.206,1.204-0.179c10.939,2.213,20.181,9.48,24.913,19.587
			c4.747,7.684,6.915,16.684,6.187,25.687c-0.099,2.412-0.955,4.731-2.446,6.629c-0.382,0.141-0.79,0.199-1.196,0.171
			c-10.937-2.21-20.178-9.474-24.909-19.579C69.943,417.344,67.774,408.342,68.5,399.337z"/>
		<path d="M374.958,290.133c11.252,0.699,22.291-3.297,30.487-11.038c13.808-14.217,13.1-38.658,12.35-64.533
			c-0.175-6.013-0.354-12.154-0.354-18.295c0-40.5-44.446-51.2-67.946-51.2c-23.027,0.371-45.134,9.095-62.208,24.55
			c-9.108,8.026-14.294,19.602-14.221,31.741c-0.011,9.991,3.506,19.665,9.929,27.317
			C302.358,251.625,340.058,290.133,374.958,290.133z M298.496,182.492c13.978-12.732,32.097-19.964,51-20.358
			c0.508,0,50.879,0.392,50.879,34.133c0,6.308,0.183,12.617,0.362,18.792c0.642,22.167,1.25,43.104-7.533,52.146
			c-5.023,4.369-11.618,6.488-18.246,5.862c-20.15,0-49.654-20.708-78.916-55.396c-3.828-4.572-5.921-10.349-5.909-16.313
			C290.059,194.156,293.11,187.274,298.496,182.492z"/>
		<path d="M449.596,377.929c-2.97-1.669-6.331-2.519-9.737-2.462c-17.154,2.01-32.11,12.604-39.696,28.121
			c-6.604,10.935-9.524,23.702-8.329,36.421c0.529,7.704,4.504,14.758,10.821,19.2c2.971,1.675,6.336,2.526,9.746,2.467
			c17.152-2.006,32.107-12.598,39.692-28.112c6.607-10.936,9.528-23.704,8.333-36.425
			C459.895,389.43,455.916,382.373,449.596,377.929z M437.308,425.029c-4.731,10.105-13.972,17.369-24.908,19.579
			c-0.409,0.029-0.82-0.031-1.204-0.175c-1.486-1.902-2.338-4.222-2.437-6.633c-0.727-9,1.441-17.998,6.187-25.679
			c4.732-10.108,13.974-17.374,24.913-19.587c0.41-0.027,0.82,0.034,1.204,0.179c1.485,1.902,2.338,4.222,2.438,6.633
			C444.225,408.348,442.056,417.346,437.308,425.029L437.308,425.029z"/>
		<path d="M204.8,414.383c0,35.004,22.967,63.483,51.2,63.483s51.2-28.479,51.2-63.483c0-15.671-9.55-46.138-28.383-90.546
			C275.633,313.924,266.412,307.2,256,307.2c-10.412,0-19.633,6.724-22.817,16.638C214.35,368.246,204.8,398.713,204.8,414.383z
			 M248.892,330.505c1.658-3.908,4.313-6.238,7.108-6.238s5.45,2.33,7.108,6.238c17.425,41.096,27.025,70.887,27.025,83.879
			c0,25.596-15.312,46.417-34.133,46.417s-34.133-20.821-34.133-46.417C221.867,401.392,231.467,371.6,248.892,330.505z"/>
		<path d="M247.467,401.067h17.067c4.713,0,8.533-3.82,8.533-8.533s-3.82-8.533-8.533-8.533h-17.067
			c-4.713,0-8.533,3.82-8.533,8.533S242.754,401.067,247.467,401.067z"/>
		<path d="M247.467,435.2h17.067c4.713,0,8.533-3.82,8.533-8.533s-3.82-8.533-8.533-8.533h-17.067c-4.713,0-8.533,3.82-8.533,8.533
			S242.754,435.2,247.467,435.2z"/>
	</g>
</g>
<g>
</g>
<g>
</g>
<g>
</g>
<g>
</g>
<g>
</g>
<g>
</g>
<g>
</g>
<g>
</g>
<g>
</g>
<g>
</g>
<g>
</g>
<g>
</g>
<g>
</g>
<g>
</g>
<g>
</g>
</svg>
