<svg id="Capa_1" enable-background="new 0 0 512 512" height="512" viewBox="0 0 512 512" width="512" xmlns="http://www.w3.org/2000/svg"><g><g><g><path d="m76.924 512 11.376-62.319-88.3-133.334v-199.907l4.415.094c33.955.722 62.659 28.036 63.492 62.008v117.508l124.219 186.223-4.378 29.727z" fill="#ffdfcf"/><path d="m192.126 482.273 5.469-43.207c3.665-28.954-4.013-58.207-21.425-81.627l-56.688-76.249c-9.541-12.833-27.653-15.538-40.518-6.05-12.783 9.427-15.618 27.384-6.364 40.3z" fill="#ffcebf"/></g><g><path d="m435.076 512-11.376-62.319 88.3-133.334v-199.908l-4.415.094c-33.955.722-62.659 28.036-63.492 62.008v117.509l-124.219 186.223 4.378 29.727z" fill="#f5afaa"/><path d="m319.874 482.273-5.469-43.207c-3.665-28.954 4.013-58.207 21.425-81.627l56.688-76.249c9.541-12.833 27.653-15.538 40.518-6.05 12.783 9.427 15.618 27.384 6.364 40.3z" fill="#ffcebf"/></g></g><g><path d="m198.49 91.91c0-34.137 27.773-61.91 61.91-61.91l10.6-15.343-10.6-14.657c-20.085 0-38.681 6.481-53.82 17.454l-.013-.019-118.42 78.083 16.515 25.045 64.918-42.805c-.716 4.614-1.09 9.34-1.09 14.151 0 50.679 41.23 91.91 91.91 91.91l10.6-14.264-10.6-15.736c-34.137 0-61.91-27.772-61.91-61.909z" fill="#b782d7"/><path d="m245.399 76.91v30h15.001l7.501-15-7.501-15z" fill="#b782d7"/><path d="m260.4 76.91h15.001v30h-15.001z" fill="#9244c2"/></g><path d="m407.338 68.887-56.086 36.982c.697-4.553 1.058-9.215 1.058-13.959 0-50.68-41.23-91.91-91.91-91.91v30c34.137 0 61.91 27.772 61.91 61.91s-27.772 61.91-61.91 61.91v30c16.353 0 31.719-4.298 45.037-11.816l-.005.013.103-.068c3.633-2.057 118.318-78.016 118.318-78.016z" fill="#9244c2"/></g></svg>