<svg id="Capa_1" enable-background="new 0 0 512 512" height="512" viewBox="0 0 512 512" width="512" xmlns="http://www.w3.org/2000/svg"><g><g><path d="m199.466 283.883c-33.921 0-61.419-27.498-61.419-61.419s27.498-61.419 61.419-61.419l16.703-30-16.703-18.863c-60.907 0-110.282 49.375-110.282 110.282 0 50.929 34.525 93.786 81.445 106.465v63.224h-61.891v57.674h61.891v62.173h28.837l13.779-109.388z" fill="#badb47"/></g><path d="m247.776 0v57.674h76.585l-69.447 69.447c-16.291-9.495-35.232-14.939-55.448-14.939v48.863c33.921 0 61.419 27.498 61.419 61.419s-27.498 61.419-61.419 61.419v228.117h28.837v-62.172h61.891v-57.674h-61.891v-63.224c46.92-12.678 81.445-55.536 81.445-106.465 0-19.752-5.198-38.287-14.292-54.323l69.686-69.686v76.585h57.674v-175.041z" fill="#1fc979"/></g></svg>