<svg id="Capa_1" enable-background="new 0 0 512 512" height="512" viewBox="0 0 512 512" width="512" xmlns="http://www.w3.org/2000/svg"><g><g><path d="m47.894 221.153c0-34.279 27.788-62.067 62.067-62.067 19.263 0 36.476 8.776 47.86 22.547l98.179-70.44 83.633-111.193h-155.039v57.674h56.584l-71.282 71.281c-17.241-11.231-37.824-17.763-59.935-17.763-60.73.001-109.961 49.232-109.961 109.961 0 32.487 14.092 61.679 36.492 81.809l31.061-3.193 2.888-30.756c-13.771-11.384-22.547-28.596-22.547-47.86z" fill="#79e1f5"/><path d="m157.82 181.634c8.874 10.735 14.207 24.504 14.207 39.52 0 34.279-27.788 62.067-62.067 62.067-15.016 0-28.785-5.333-39.52-14.207l-33.949 33.949c19.474 17.5 45.226 28.152 73.469 28.152 60.73 0 109.961-49.231 109.961-109.961 0-17.649-4.165-34.324-11.555-49.104l73.593-73.593v56.584h57.674v-155.041z" fill="#31c3e7"/></g><g><path d="m211.513 402.04c0-34.279 27.788-62.067 62.067-62.067 18.619 0 35.31 8.209 46.686 21.193l93.414-70.239 98.32-121.496v-.179h-155.04v57.674h56.583l-81.792 81.792c-16.875-10.541-36.81-16.639-58.172-16.639-60.73 0-109.961 49.231-109.961 109.961 0 31.843 13.541 60.52 35.172 80.6l26.785-2.136 7.129-31.778c-12.982-11.376-21.191-28.068-21.191-46.686z" fill="#79e1f5"/></g><path d="m320.266 361.165c9.569 10.92 15.381 25.214 15.381 40.875 0 34.279-27.788 62.067-62.067 62.067-15.66 0-29.954-5.812-40.874-15.381l-26.387 3.705-7.527 30.21c19.622 18.215 45.902 29.359 74.788 29.359 60.73 0 109.961-49.231 109.961-109.96 0-18.414-4.533-35.766-12.533-51.013l83.318-83.318v56.583h57.674v-155.04z" fill="#31c3e7"/><g><path d="m150.882 244.939c-34.46-34.46-90.533-34.46-124.995.001-16.693 16.693-25.887 38.889-25.887 62.498 0 23.608 9.194 45.803 25.888 62.497l142.065 142.065 35.127-146.453-35.127-103.538z" fill="#fd445f"/><path d="m310.017 244.939c-34.461-34.463-90.534-34.458-124.995 0l-17.07 17.07v249.991l142.065-142.065c16.694-16.694 25.888-38.889 25.888-62.498 0-23.608-9.194-45.804-25.888-62.498z" fill="#e1105a"/></g></g></svg>