<svg id="Capa_1" enable-background="new 0 0 512 512" height="512" viewBox="0 0 512 512" width="512" xmlns="http://www.w3.org/2000/svg"><g><g><path d="m93.199 58.338c-38.685 37.648-60.755 87.928-62.147 141.577-.756 29.163 4.483 57.479 15.571 84.164 21.334 51.34 32.152 106.963 32.152 165.325v62.596h143.705l47.738-186.054-47.738-325.472c-48.498 3.25-93.972 23.5-129.281 57.864z" fill="#ffdfcf"/><path d="m476.501 267.3-47.15-92.244c.104-40.897.083-40.969-.692-43.435-12.299-39.258-37.696-72.599-73.444-96.418-34.048-22.688-76.242-35.189-118.807-35.203-.023 0-.044 0-.067 0-4.644 0-9.265.166-13.861.474v511.526h85.3v-71.961h65.678c22.47 0 43.584-9.92 57.93-27.215s20.191-39.881 16.037-61.965l-4.155-22.088 10.796-3.989c11.053-4.086 19.849-12.724 24.134-23.7 4.283-10.978 3.664-23.29-1.699-33.782z" fill="#ffcebf"/></g><g><circle cx="223.451" cy="242.647" fill="none" r="23.553"/><path d="m199.898 242.647c0-12.662 10.044-23.017 22.582-23.528l5.628-39.673-5.628-68.253h-14.956v80.346c-21.771 6.8-37.626 27.126-37.626 51.108 0 29.204 23.5 53.006 52.582 53.528l5.628-14.667-5.628-15.333c-12.538-.511-22.582-10.866-22.582-23.528z" fill="#79e1f5"/></g><path d="m238.451 191.248v-80.055h-15.971v107.926c.323-.013.645-.025.971-.025 12.987 0 23.553 10.565 23.553 23.553s-10.566 23.553-23.553 23.553c-.326 0-.648-.011-.971-.025v30c.324.006.645.025.971.025 29.529 0 53.553-24.023 53.553-53.553 0-24.322-16.304-44.895-38.553-51.399z" fill="#31c3e7"/></g></svg>