<svg id="Capa_1" enable-background="new 0 0 512 512" height="512" viewBox="0 0 512 512" width="512" xmlns="http://www.w3.org/2000/svg"><g><g><g><g><path d="m271.277 213.656-15-109.95c-.023 0-.045.002-.068.002-7.522 0-14.864-4.688-21.95-3.218-4.017.833-7.952 1.891-11.791 3.159-5.249 1.734-10.319 14.625-15.175 17.111-5.218 2.671-10.188-5.01-14.868-1.555-26.503 19.565-43.691 51.013-43.691 86.474v90.776l43.696 34.759 63.848-24.8z" fill="#ffcebf"/><path d="m278.296 100.518c-7.107-1.484-14.472 3.159-22.019 3.187v202.708l64.012 24.8 43.396-34.759v-90.776c0-35.326-17.057-66.669-43.388-86.25-4.223-3.141-8.685-.18-13.353-2.683-5.313-2.849-10.893-11.063-16.693-12.998-3.891-1.297-7.88-2.378-11.955-3.229z" fill="#f5afaa"/></g><g><path d="m198.429 383.84h42.848v128.16h-42.848z" fill="#ffcebf"/><path d="m271.277 383.84h43.012v128.16h-43.012z" fill="#f5afaa"/></g></g><g><path d="m201.249 55.006c0 30.33 24.685 55.005 55.028 55.005l11.009-55.005-11.009-55.006c-30.342 0-55.028 24.676-55.028 55.006z" fill="#ffdfcf"/><path d="m256.277 0v110.01c30.342 0 55.028-24.675 55.028-55.005 0-30.329-24.686-55.005-55.028-55.005z" fill="#ffcebf"/></g></g><g><path d="m222.475 162.085v-58.415c-10.888 3.596-21.01 8.871-30.046 15.541v162.403l-73.805 119.449h137.376l15.277-97.809-15.277-141.169z" fill="#b782d7"/></g><path d="m320.289 281.614v-162.175c-9.029-6.714-19.15-12.036-30.046-15.67v58.317h-34.243v238.977h137.376z" fill="#9244c2"/></g></svg>