<svg id="Capa_1" enable-background="new 0 0 512 512" height="512" viewBox="0 0 512 512" width="512" xmlns="http://www.w3.org/2000/svg"><g><path d="m166.031 377.868h89.969l18.116-13.838-18.116-16.134h-88.9c8.429-41.384 45.028-72.525 88.9-72.525l11.042-143.859-11.042-131.512h-28.837v223.055c-66.766 13.386-117.063 72.339-117.063 143.045 0 80.578 65.322 145.9 145.9 145.9l18.116-27.82-18.116-27.352c-46.119 0-84.199-34.412-89.969-78.96z" fill="#badb47"/><path d="m284.837 223.055v-223.055h-28.837v275.372c43.873 0 80.472 31.141 88.9 72.525h-88.9v29.972h89.969c-5.77 44.548-43.85 78.959-89.969 78.959v55.172c80.579 0 145.9-65.322 145.9-145.9 0-70.706-50.297-129.659-117.063-143.045z" fill="#1fc979"/></g></svg>