<?xml version="1.0" encoding="iso-8859-1"?>
<!-- Generator: Adobe Illustrator 19.0.0, SVG Export Plug-In . SVG Version: 6.00 Build 0)  -->
<svg version="1.1" id="Layer_1" xmlns="http://www.w3.org/2000/svg" xmlns:xlink="http://www.w3.org/1999/xlink" x="0px" y="0px"
	 viewBox="0 0 341.895 341.895" style="enable-background:new 0 0 341.895 341.895;" xml:space="preserve">
<g id="XMLID_1098_">
	<g id="XMLID_1099_">
		<path id="XMLID_1100_" style="fill:#B3404A;" d="M212.499,341.895c-6.495,0-12.711-0.428-18.476-1.271l-0.118-0.018
			c-1.454-0.215-2.894-0.458-4.278-0.722l-0.155-0.031c-6.477-1.253-13.353-4.01-17.988-6.107c-0.065-0.007-0.13,0-0.222,0.046
			c-7.45,3.696-20.766,8.103-41.882,8.103c-27.817,0-47.913-14.277-61.436-43.648c-11.57-25.133-17.476-59.32-22.986-95.088
			c-3.9-25.319,1.799-47.75,16.481-64.867c18.177-21.191,47.241-30.676,67.982-30.676c6.515,0,12.005,0.92,16.319,2.735
			c9.036,3.802,20.105,6.78,25.198,6.78s16.162-2.978,25.2-6.78c4.881-2.054,11.26-2.973,18.959-2.684
			c1.372,0.052,2.799,0.145,4.243,0.277c2.377,0.218,4.845,0.552,7.339,0.993c0.517,0.091,1.041,0.188,1.568,0.291
			c0.828,0.16,1.662,0.333,2.504,0.52c0.597,0.132,1.193,0.271,1.795,0.415c2.901,0.7,5.811,1.54,8.655,2.5
			c4.336,1.464,8.558,3.214,12.548,5.201l0.191,0.095c2.795,1.4,5.552,2.96,8.195,4.638c0.319,0.203,0.63,0.402,0.938,0.604
			c1.832,1.195,3.643,2.476,5.375,3.803c0.308,0.236,0.608,0.469,0.908,0.705c10.435,8.226,18.171,18.292,22.999,29.92
			c0.823,1.982,1.585,4.099,2.266,6.291c0.563,1.808,1.032,3.527,1.434,5.249c0.952,4.095,1.584,8.383,1.879,12.749
			c0.074,1.111,0.128,2.229,0.161,3.361c0.032,1.14,0.043,2.284,0.032,3.442l-0.005,0.211c-0.054,4.605-0.459,9.392-1.205,14.229
			c-7.566,49.117-15.51,91.785-36.144,116.488c-0.523,0.627-1.056,1.243-1.596,1.846
			C247.076,335.029,231.368,341.895,212.499,341.895z M196.984,320.843c4.785,0.697,10.008,1.051,15.516,1.051
			c13.298,0,23.396-4.365,31.777-13.738c0.392-0.438,0.773-0.88,1.15-1.331c17.333-20.752,24.623-60.606,31.727-106.714
			c0.607-3.941,0.936-7.812,0.975-11.505l0.003-0.189c0.007-0.867-0.002-1.724-0.025-2.57c-0.025-0.869-0.067-1.737-0.124-2.594
			c-0.223-3.289-0.694-6.506-1.404-9.557c-0.288-1.241-0.633-2.498-1.051-3.842c-0.501-1.614-1.052-3.146-1.64-4.561
			c-3.502-8.435-9.189-15.796-16.905-21.879c-0.229-0.181-0.464-0.362-0.698-0.542c-1.327-1.016-2.722-2.002-4.139-2.927
			c-0.246-0.161-0.488-0.315-0.73-0.47c-2.063-1.309-4.223-2.531-6.411-3.628l-0.178-0.089c-3.176-1.581-6.546-2.977-10.02-4.149
			c-2.284-0.771-4.617-1.445-6.936-2.004c-0.477-0.115-0.958-0.226-1.438-0.333c-0.667-0.147-1.331-0.286-1.989-0.413
			c-0.414-0.081-0.825-0.157-1.234-0.229c-1.956-0.346-3.87-0.605-5.694-0.773c-1.085-0.1-2.15-0.169-3.164-0.207
			c-0.644-0.024-1.276-0.037-1.895-0.037c-5.365,0-7.909,0.895-8.561,1.169c-9.875,4.153-23.894,8.344-32.955,8.344
			c-9.063,0-23.081-4.191-32.954-8.344c-0.652-0.275-3.198-1.17-8.563-1.17c-15.642,0-38.836,7.416-52.802,23.697
			c-10.92,12.731-14.922,29.15-11.895,48.801c10.985,71.307,22.054,121.782,64.654,121.782c18.149,0,28.462-3.772,32.994-6.02
			c2.816-1.396,5.953-2.135,9.073-2.135c2.878,0,5.663,0.6,8.279,1.784c5.188,2.347,10.014,4.017,13.587,4.702l0.137,0.027
			c1.103,0.209,2.255,0.402,3.426,0.575L196.984,320.843z"/>
	</g>
	<g id="XMLID_1103_">
		<path id="XMLID_1104_" style="fill:#B3404A;" d="M82.601,210.042c-3.064-19.891,3.331-37.154,18.008-48.608
			c15.198-11.862,36.682-15.085,47.209-10.659l-7.756,18.436l0.013,0.005c-2.717-1.047-16.628-0.504-27.564,8.305
			c-8.668,6.982-12.08,16.899-10.142,29.477L82.601,210.042z"/>
	</g>
	<g id="XMLID_1105_">
		<path id="XMLID_37_" style="fill:#F4B2B0;" d="M253.338,13.419C231.586,5.886,206.48,10.8,189.11,28.17
			s-22.285,42.476-14.751,64.228c21.752,7.533,46.858,2.619,64.228-14.751S260.872,35.171,253.338,13.419z"/>
		<path id="XMLID_1106_" style="fill:#B3404A;" d="M194.719,105.818c-0.002,0-0.001,0-0.002,0c-8.075,0-16.025-1.336-23.631-3.97
			l-4.588-1.589l-1.589-4.588c-8.977-25.918-2.253-55.189,17.13-74.572C195.646,7.493,213.737,0,232.98,0
			c8.074,0,16.025,1.335,23.631,3.97l4.588,1.589l1.589,4.588c8.977,25.918,2.253,55.19-17.129,74.572
			C232.052,98.324,213.96,105.818,194.719,105.818z M182.398,84.35c4.021,0.976,8.146,1.468,12.319,1.468
			c13.901,0,26.97-5.413,36.799-15.242c13.036-13.035,18.105-31.474,13.783-49.108C241.279,20.492,237.154,20,232.98,20
			c-13.9,0-26.97,5.413-36.798,15.242C183.146,48.277,178.075,66.716,182.398,84.35z"/>
	</g>
	<g id="XMLID_1109_">
		<rect id="XMLID_1110_" x="160.94" y="72.909" style="fill:#B3404A;" width="20" height="60"/>
	</g>
</g>
<g>
</g>
<g>
</g>
<g>
</g>
<g>
</g>
<g>
</g>
<g>
</g>
<g>
</g>
<g>
</g>
<g>
</g>
<g>
</g>
<g>
</g>
<g>
</g>
<g>
</g>
<g>
</g>
<g>
</g>
</svg>
