<?xml version="1.0" encoding="iso-8859-1"?>
<!-- Generator: Adobe Illustrator 19.0.0, SVG Export Plug-In . SVG Version: 6.00 Build 0)  -->
<svg version="1.1" id="Layer_1" xmlns="http://www.w3.org/2000/svg" xmlns:xlink="http://www.w3.org/1999/xlink" x="0px" y="0px"
	 viewBox="0 0 395 395" style="enable-background:new 0 0 395 395;" xml:space="preserve">
<g id="XMLID_2_">
	<g id="XMLID_4_">
		<path id="XMLID_5_" style="fill:#B3404A;" d="M247.501,100h-100V29c0-15.991,13.01-29,29-29h42c15.99,0,29,13.009,29,29V100z
			 M167.501,80h60V29c0-4.962-4.037-9-9-9h-42c-4.963,0-9,4.038-9,9V80z"/>
	</g>
	<g id="XMLID_8_">
		<g id="XMLID_9_">
			<path id="XMLID_10_" style="fill:#B3404A;" d="M306.5,395h-218c-28.121,0-51-22.878-51-51v-94.484
				c0-20.948,11.202-40.102,29.032-50.472v-38.725c0-9.901,1.176-19.757,3.496-29.295c1.742-7.186,4.155-14.272,7.17-21.054
				c19.894-44.758,64.392-73.68,113.363-73.68h13.877c48.972,0,93.47,28.921,113.364,73.68c3.015,6.784,5.427,13.869,7.171,21.061
				c2.318,9.531,3.494,19.387,3.494,29.288v38.725c17.83,10.37,29.032,29.523,29.032,50.472V344
				C357.5,372.122,334.621,395,306.5,395z M190.563,56.291c-41.076,0-78.4,24.259-95.088,61.803
				c-2.527,5.685-4.549,11.623-6.01,17.649c-1.946,8-2.932,16.266-2.932,24.576v51.391l-5.995,2.62
				c-13.994,6.116-23.037,19.928-23.037,35.186V344c0,17.093,13.906,31,31,31h218c17.094,0,31-13.907,31-31v-94.484
				c0-15.258-9.043-29.07-23.037-35.186l-5.995-2.62v-51.391c0-8.31-0.985-16.576-2.93-24.569
				c-1.463-6.032-3.484-11.971-6.012-17.657C282.839,80.55,245.515,56.29,204.439,56.29L190.563,56.291L190.563,56.291z"/>
		</g>
		<g id="XMLID_13_">
			<path id="XMLID_14_" style="fill:#F4B2B0;" d="M308.665,123.71c-17.739,45.611-57.736,77.419-104.226,77.419h-13.877
				c-46.49,0-86.487-31.808-104.226-77.419c17.739-45.611,57.736-77.419,104.226-77.419h13.877
				C250.93,46.29,290.926,78.099,308.665,123.71z"/>
			<path id="XMLID_15_" style="fill:#B3404A;" d="M204.439,211.129h-13.877c-49.18,0-93.749-32.892-113.547-83.795l-1.409-3.625
				l1.409-3.625C96.813,69.181,141.382,36.29,190.562,36.29h13.877c49.18,0,93.749,32.891,113.547,83.794l1.409,3.625l-1.409,3.625
				C298.188,178.237,253.618,211.129,204.439,211.129z M97.129,123.709c17.422,41.09,53.72,67.419,93.434,67.419h13.877
				c39.714,0,76.012-26.33,93.434-67.419c-17.422-41.089-53.72-67.419-93.434-67.419h-13.877
				C150.849,56.291,114.551,82.62,97.129,123.709z"/>
		</g>
		<g id="XMLID_18_">
			<path id="XMLID_19_" style="fill:#B3404A;" d="M280.081,395H114.92v-95.161c0-17.253,14.037-31.291,31.291-31.291h102.58
				c17.254,0,31.291,14.037,31.291,31.291V395z M134.92,375h125.162v-75.161c0-6.226-5.065-11.291-11.291-11.291h-102.58
				c-6.226,0-11.291,5.065-11.291,11.291V375z"/>
		</g>
		<g id="XMLID_22_">
			<path id="XMLID_40_" style="fill:#F4B2B0;" d="M203.307,239.839h-11.613c-7.483,0-13.548-6.066-13.548-13.548v-40.645
				c0-7.483,6.066-13.548,13.548-13.548h11.613c7.483,0,13.548,6.066,13.548,13.548v40.645
				C216.855,233.773,210.79,239.839,203.307,239.839z"/>
			<path id="XMLID_23_" style="fill:#B3404A;" d="M203.308,249.839h-11.613c-12.984,0-23.548-10.564-23.548-23.548v-40.646
				c0-12.984,10.563-23.548,23.548-23.548h11.613c12.984,0,23.548,10.564,23.548,23.548v40.646
				C226.855,239.275,216.292,249.839,203.308,249.839z M191.693,182.097c-1.956,0-3.548,1.592-3.548,3.548v40.646
				c0,1.957,1.592,3.548,3.548,3.548h11.613c1.956,0,3.548-1.592,3.548-3.548v-40.646c0-1.957-1.592-3.548-3.548-3.548H191.693z"/>
		</g>
		<g id="XMLID_26_">
			<rect id="XMLID_27_" x="66.533" y="205.167" style="fill:#B3404A;" width="20" height="112.091"/>
		</g>
		<g id="XMLID_28_">
			<rect id="XMLID_29_" x="308.468" y="205.167" style="fill:#B3404A;" width="20" height="112.091"/>
		</g>
	</g>
</g>
<g>
</g>
<g>
</g>
<g>
</g>
<g>
</g>
<g>
</g>
<g>
</g>
<g>
</g>
<g>
</g>
<g>
</g>
<g>
</g>
<g>
</g>
<g>
</g>
<g>
</g>
<g>
</g>
<g>
</g>
</svg>
