<?xml version="1.0" encoding="iso-8859-1"?>
<!-- Generator: Adobe Illustrator 19.0.0, SVG Export Plug-In . SVG Version: 6.00 Build 0)  -->
<svg version="1.1" id="Layer_1" xmlns="http://www.w3.org/2000/svg" xmlns:xlink="http://www.w3.org/1999/xlink" x="0px" y="0px"
	 viewBox="0 0 360.699 360.699" style="enable-background:new 0 0 360.699 360.699;" xml:space="preserve">
<g id="XMLID_2049_">
	<g id="XMLID_2050_">
		<g id="XMLID_2051_">
			<path id="XMLID_2052_" style="fill:#B3404A;" d="M100.083,175.811c-2.996,0-5.782-0.481-8.355-1.441
				c-2.574-0.96-4.782-2.305-6.627-4.034c-1.843-1.728-3.304-3.762-4.379-6.107c-1.077-2.343-1.612-4.898-1.612-7.664
				c0-2.996,0.633-5.723,1.901-8.182c1.268-2.459,3.054-4.571,5.359-6.338c2.305-1.766,5.032-3.15,8.182-4.149
				c3.15-0.997,6.645-1.498,10.488-1.498c2.535,0,4.993,0.213,7.375,0.634c2.38,0.423,4.455,1.057,6.223,1.902v-2.766
				c0-6.991-4.034-10.488-12.1-10.488c-3.304,0-6.454,0.558-9.45,1.672c-2.996,1.114-6.147,2.784-9.45,5.012l-5.416-11.523
				c3.994-2.612,8.142-4.571,12.446-5.877c4.302-1.307,8.874-1.959,13.714-1.959c9.143,0,16.209,2.15,21.204,6.453
				c4.993,4.304,7.491,10.602,7.491,18.9v15.558c0,1.843,0.288,3.131,0.865,3.86c0.575,0.731,1.594,1.172,3.053,1.325v15.558
				c-1.612,0.384-3.073,0.634-4.378,0.75c-1.308,0.114-2.497,0.173-3.573,0.173c-3.458,0-6.07-0.674-7.836-2.018
				c-1.769-1.342-2.882-3.244-3.343-5.704l-0.346-2.766c-2.69,3.458-5.897,6.109-9.623,7.952
				C108.168,174.888,104.233,175.811,100.083,175.811z M105.501,162.558c1.996,0,3.935-0.346,5.819-1.038
				c1.882-0.691,3.438-1.614,4.668-2.766c1.766-1.382,2.65-2.842,2.65-4.379v-5.762c-1.614-0.614-3.361-1.095-5.243-1.441
				c-1.883-0.346-3.63-0.518-5.243-0.518c-3.381,0-6.166,0.77-8.355,2.305c-2.19,1.538-3.286,3.535-3.286,5.993
				c0,2.229,0.845,4.054,2.536,5.475C100.736,161.849,102.888,162.558,105.501,162.558z"/>
		</g>
		<g id="XMLID_2055_">
			<path id="XMLID_2056_" style="fill:#B3404A;" d="M186.745,175.811c-4.611,0-8.643-0.98-12.101-2.939
				c-3.457-1.959-6.184-4.705-8.182-8.24v10.027h-16.018V90.533h18.438v33.534c1.998-3.457,4.668-6.164,8.009-8.123
				c3.343-1.959,7.278-2.939,11.813-2.939c3.841,0,7.375,0.825,10.602,2.477s5.993,3.9,8.298,6.741
				c2.305,2.843,4.109,6.206,5.416,10.084c1.305,3.881,1.959,8.009,1.959,12.388s-0.711,8.47-2.132,12.273
				c-1.422,3.804-3.4,7.108-5.934,9.911c-2.536,2.806-5.532,4.995-8.99,6.57C194.466,175.023,190.739,175.811,186.745,175.811z
				 M181.559,160.254c2.15,0,4.109-0.404,5.877-1.211c1.766-0.807,3.284-1.902,4.552-3.284c1.268-1.384,2.265-3.014,2.996-4.898
				c0.73-1.882,1.095-3.937,1.095-6.166c0-2.15-0.346-4.207-1.037-6.166c-0.693-1.959-1.634-3.668-2.824-5.128
				c-1.191-1.459-2.632-2.612-4.321-3.457c-1.691-0.845-3.497-1.268-5.416-1.268c-2.921,0-5.59,1-8.01,2.996
				c-2.419,1.999-4.284,4.495-5.589,7.491v12.677c1.228,2.613,3.014,4.668,5.359,6.166
				C176.584,159.504,179.023,160.254,181.559,160.254z"/>
		</g>
		<g id="XMLID_2059_">
			<path id="XMLID_2060_" style="fill:#B3404A;" d="M220.626,144.35c0-4.149,0.73-8.125,2.189-11.927
				c1.459-3.804,3.573-7.145,6.338-10.027s6.166-5.166,10.199-6.857c4.034-1.689,8.623-2.535,13.771-2.535
				c6.991,0,12.868,1.479,17.633,4.436c4.762,2.959,8.335,6.818,10.718,11.582l-17.979,5.416c-2.382-3.841-5.877-5.762-10.486-5.762
				c-3.842,0-7.05,1.422-9.623,4.264c-2.576,2.843-3.861,6.645-3.861,11.409c0,2.382,0.346,4.552,1.037,6.511
				c0.693,1.959,1.652,3.63,2.881,5.013c1.228,1.382,2.669,2.459,4.322,3.226c1.651,0.77,3.398,1.154,5.243,1.154
				c2.305,0,4.417-0.557,6.338-1.672c1.919-1.112,3.341-2.553,4.264-4.321l17.977,5.532c-2.229,4.686-5.782,8.527-10.659,11.523
				c-4.881,2.997-10.815,4.495-17.806,4.495c-5.07,0-9.623-0.864-13.655-2.593c-4.034-1.728-7.454-4.034-10.257-6.914
				c-2.806-2.881-4.938-6.223-6.397-10.027C221.356,152.475,220.626,148.498,220.626,144.35z"/>
		</g>
	</g>
	<g id="XMLID_2062_">
		<g id="XMLID_2063_">
			<path id="XMLID_2064_" style="fill:#B3404A;" d="M337.129,270.272H23.57V45.53c0-19.573,15.925-35.498,35.499-35.498H301.63
				c19.574,0,35.499,15.925,35.499,35.498V270.272z M43.57,250.272h273.559V45.53c0-8.546-6.953-15.498-15.499-15.498H59.069
				c-8.546,0-15.499,6.952-15.499,15.498V250.272z"/>
		</g>
		<g id="XMLID_2067_">
			<g id="XMLID_2068_">
				<path id="XMLID_2069_" style="fill:#F4B2B0;" d="M77.842,259.933l-42.749,64.945c-5.016,7.156,1.818,15.789,12.5,15.789h26.94
					c5.235,0,10.042-2.191,12.5-5.698l49.758-75.036H77.842z"/>
				<path id="XMLID_2070_" style="fill:#B3404A;" d="M74.533,350.667h-26.94c-9.688,0-18.142-4.679-22.06-12.212
					c-3.22-6.19-2.742-13.346,1.273-19.176l45.646-69.346h82.969l-60.199,90.774C90.852,346.944,83.117,350.667,74.533,350.667z
					 M43.869,329.733c0.662,0.428,1.872,0.934,3.724,0.934h26.94c2.269,0,3.867-0.885,4.278-1.395l39.35-59.339h-34.93
					L43.869,329.733z"/>
			</g>
			<g id="XMLID_2073_">
				<path id="XMLID_2074_" style="fill:#F4B2B0;" d="M282.857,259.933h-58.949l49.758,75.036c2.458,3.507,7.266,5.698,12.5,5.698
					h26.94c10.682,0,17.517-8.633,12.5-15.789L282.857,259.933z"/>
				<path id="XMLID_2075_" style="fill:#B3404A;" d="M313.106,350.667h-26.94c-8.584,0-16.318-3.723-20.688-9.959l-0.146-0.213
					l-60.054-90.562h82.969l45.646,69.346c4.016,5.83,4.493,12.985,1.273,19.176C331.248,345.988,322.795,350.667,313.106,350.667z
					 M281.888,329.272c0.411,0.51,2.01,1.395,4.278,1.395h26.94c1.852,0,3.062-0.506,3.724-0.934l-39.362-59.8h-34.93
					L281.888,329.272z"/>
			</g>
		</g>
		<g id="XMLID_2078_">
			<rect id="XMLID_2079_" y="250.272" style="fill:#B3404A;" width="360.699" height="20"/>
		</g>
	</g>
</g>
<g>
</g>
<g>
</g>
<g>
</g>
<g>
</g>
<g>
</g>
<g>
</g>
<g>
</g>
<g>
</g>
<g>
</g>
<g>
</g>
<g>
</g>
<g>
</g>
<g>
</g>
<g>
</g>
<g>
</g>
</svg>
