<?xml version="1.0" encoding="iso-8859-1"?>
<!-- Generator: Adobe Illustrator 19.0.0, SVG Export Plug-In . SVG Version: 6.00 Build 0)  -->
<svg version="1.1" id="Layer_1" xmlns="http://www.w3.org/2000/svg" xmlns:xlink="http://www.w3.org/1999/xlink" x="0px" y="0px"
	 viewBox="0 0 360 360" style="enable-background:new 0 0 360 360;" xml:space="preserve">
<g id="XMLID_470_">
	<g id="XMLID_472_">
		<path id="XMLID_473_" style="fill:#B3404A;" d="M288.25,360H71.75c-18.886,0-34.25-15.364-34.25-34.25V34.25
			C37.5,15.364,52.864,0,71.75,0h216.5c18.886,0,34.25,15.364,34.25,34.25v291.5C322.5,344.636,307.136,360,288.25,360z M71.75,20
			c-7.857,0-14.25,6.393-14.25,14.25v291.5c0,7.857,6.393,14.25,14.25,14.25h216.5c7.857,0,14.25-6.393,14.25-14.25V34.25
			c0-7.857-6.393-14.25-14.25-14.25H71.75z"/>
	</g>
	<g id="XMLID_476_">
		<path id="XMLID_53_" style="fill:#F4B2B0;" d="M259,110H101c-6.075,0-11-4.925-11-11V61c0-6.075,4.925-11,11-11h158
			c6.075,0,11,4.925,11,11v38C270,105.075,265.075,110,259,110z"/>
		<path id="XMLID_477_" style="fill:#B3404A;" d="M259,120H101c-11.58,0-21-9.42-21-21V61c0-11.58,9.42-21,21-21h158
			c11.58,0,21,9.42,21,21v38C280,110.58,270.58,120,259,120z M101,60c-0.551,0-1,0.449-1,1v38c0,0.551,0.449,1,1,1h158
			c0.551,0,1-0.449,1-1V61c0-0.551-0.449-1-1-1H101z"/>
	</g>
	<g id="XMLID_481_">
		<g id="XMLID_482_">
			<path id="XMLID_48_" style="fill:#F4B2B0;" d="M260,310H100c-5.523,0-10-4.477-10-10V170c0-5.523,4.477-10,10-10h160
				c5.523,0,10,4.477,10,10v130C270,305.523,265.523,310,260,310z"/>
			<path id="XMLID_483_" style="fill:#B3404A;" d="M260,320H100c-11.028,0-20-8.972-20-20V170c0-11.028,8.972-20,20-20h160
				c11.028,0,20,8.972,20,20v130C280,311.028,271.028,320,260,320z M100,170v130h160c0.009,0,0.013,0,0.013,0L260,170H100z"/>
		</g>
		<g id="XMLID_487_">
			<rect id="XMLID_489_" x="140" y="160" style="fill:#B3404A;" width="20" height="153.001"/>
		</g>
		<g id="XMLID_490_">
			<rect id="XMLID_493_" x="200" y="160" style="fill:#B3404A;" width="20" height="153.001"/>
		</g>
		<g id="XMLID_494_">
			<rect id="XMLID_496_" x="90" y="200" style="fill:#B3404A;" width="180" height="20"/>
		</g>
		<g id="XMLID_497_">
			<rect id="XMLID_500_" x="90" y="250" style="fill:#B3404A;" width="120" height="20"/>
		</g>
	</g>
</g>
<g>
</g>
<g>
</g>
<g>
</g>
<g>
</g>
<g>
</g>
<g>
</g>
<g>
</g>
<g>
</g>
<g>
</g>
<g>
</g>
<g>
</g>
<g>
</g>
<g>
</g>
<g>
</g>
<g>
</g>
</svg>
