<?xml version="1.0" encoding="iso-8859-1"?>
<!-- Generator: Adobe Illustrator 19.0.0, SVG Export Plug-In . SVG Version: 6.00 Build 0)  -->
<svg version="1.1" id="Layer_1" xmlns="http://www.w3.org/2000/svg" xmlns:xlink="http://www.w3.org/1999/xlink" x="0px" y="0px"
	 viewBox="0 0 344.656 344.656" style="enable-background:new 0 0 344.656 344.656;" xml:space="preserve">
<g id="XMLID_1111_">
	<g id="XMLID_1112_">
		<path id="XMLID_1113_" style="fill:#B3404A;" d="M303.376,329.639H41.279C18.518,329.639,0,311.122,0,288.36V95.29
			c0-22.761,18.518-41.279,41.279-41.279h262.098c22.761,0,41.279,18.518,41.279,41.279v193.07
			C344.655,311.122,326.138,329.639,303.376,329.639z M41.279,74.011C29.545,74.011,20,83.556,20,95.29v193.07
			c0,11.733,9.545,21.279,21.279,21.279h262.098c11.733,0,21.279-9.545,21.279-21.279V95.29c0-11.733-9.545-21.279-21.279-21.279
			H41.279z"/>
	</g>
	<g id="XMLID_1116_">
		<g id="XMLID_1117_">
			<path id="XMLID_69_" style="fill:#F4B2B0;" d="M72.457,92.758H60.844c-7.483,0-13.548-6.066-13.548-13.548V38.564
				c0-7.483,6.066-13.548,13.548-13.548h11.613c7.483,0,13.548,6.066,13.548,13.548V79.21
				C86.005,86.692,79.939,92.758,72.457,92.758z"/>
			<path id="XMLID_1118_" style="fill:#B3404A;" d="M72.457,102.758H60.844c-12.984,0-23.548-10.564-23.548-23.548V38.564
				c0-12.984,10.564-23.548,23.548-23.548h11.613c12.984,0,23.548,10.564,23.548,23.548v40.645
				C96.005,92.194,85.441,102.758,72.457,102.758z M60.844,35.016c-1.957,0-3.548,1.592-3.548,3.548v40.645
				c0,1.957,1.592,3.548,3.548,3.548h11.613c1.957,0,3.548-1.592,3.548-3.548V38.564c0-1.957-1.592-3.548-3.548-3.548H60.844z"/>
		</g>
		<g id="XMLID_1121_">
			<path id="XMLID_64_" style="fill:#F4B2B0;" d="M283.811,92.758h-11.613c-7.483,0-13.548-6.066-13.548-13.548V38.564
				c0-7.483,6.066-13.548,13.548-13.548h11.613c7.483,0,13.548,6.066,13.548,13.548V79.21
				C297.36,86.692,291.294,92.758,283.811,92.758z"/>
			<path id="XMLID_1122_" style="fill:#B3404A;" d="M283.812,102.758h-11.613c-12.984,0-23.548-10.564-23.548-23.548V38.564
				c0-12.984,10.564-23.548,23.548-23.548h11.613c12.984,0,23.548,10.564,23.548,23.548v40.645
				C307.36,92.194,296.796,102.758,283.812,102.758z M272.199,35.016c-1.957,0-3.548,1.592-3.548,3.548v40.645
				c0,1.957,1.592,3.548,3.548,3.548h11.613c1.957,0,3.548-1.592,3.548-3.548V38.564c0-1.957-1.592-3.548-3.548-3.548H272.199z"/>
		</g>
		<g id="XMLID_1125_">
			<path id="XMLID_59_" style="fill:#F4B2B0;" d="M178.134,92.758h-11.613c-7.483,0-13.548-6.066-13.548-13.548V38.564
				c0-7.483,6.066-13.548,13.548-13.548h11.613c7.483,0,13.548,6.066,13.548,13.548V79.21
				C191.682,86.692,185.617,92.758,178.134,92.758z"/>
			<path id="XMLID_1126_" style="fill:#B3404A;" d="M178.134,102.758h-11.613c-12.984,0-23.548-10.564-23.548-23.548V38.564
				c0-12.984,10.564-23.548,23.548-23.548h11.613c12.984,0,23.548,10.564,23.548,23.548v40.645
				C201.683,92.194,191.119,102.758,178.134,102.758z M166.521,35.016c-1.957,0-3.548,1.592-3.548,3.548v40.645
				c0,1.957,1.592,3.548,3.548,3.548h11.613c1.957,0,3.548-1.592,3.548-3.548V38.564c0-1.957-1.592-3.548-3.548-3.548H166.521z"/>
		</g>
	</g>
	<g id="XMLID_1129_">
		<path id="XMLID_1130_" style="fill:#F4B2B0;" d="M334.655,133.763V95.289c0-17.275-14.004-31.279-31.279-31.279H41.279
			C24.004,64.011,10,78.015,10,95.289v38.474H334.655z"/>
		<path id="XMLID_1131_" style="fill:#B3404A;" d="M344.655,143.763H0V95.29c0-22.761,18.518-41.279,41.279-41.279h262.098
			c22.761,0,41.279,18.518,41.279,41.279L344.655,143.763L344.655,143.763z M20,123.763h304.655V95.29
			c0-11.733-9.545-21.279-21.279-21.279H41.279C29.545,74.011,20,83.556,20,95.29V123.763z"/>
	</g>
	<g id="XMLID_1134_">
		<g id="XMLID_1135_">
			<path id="XMLID_1136_" style="fill:#B3404A;" d="M63.328,211.387h-20v-29.113c0-8.484,6.903-15.387,15.387-15.387h34.613v20h-30
				C63.328,186.887,63.328,211.387,63.328,211.387z"/>
		</g>
		<g id="XMLID_1137_">
			<path id="XMLID_1138_" style="fill:#B3404A;" d="M132.994,211.387h-20v-29.113c0-8.484,6.903-15.387,15.387-15.387h34.613v20h-30
				L132.994,211.387L132.994,211.387z"/>
		</g>
		<g id="XMLID_1139_">
			<path id="XMLID_1140_" style="fill:#B3404A;" d="M202.661,211.387h-20v-29.113c0-8.484,6.902-15.387,15.387-15.387h34.613v20h-30
				L202.661,211.387L202.661,211.387z"/>
		</g>
		<g id="XMLID_1141_">
			<path id="XMLID_1142_" style="fill:#B3404A;" d="M272.328,211.387h-20v-29.113c0-8.484,6.903-15.387,15.387-15.387h34.613v20h-30
				V211.387z"/>
		</g>
	</g>
	<g id="XMLID_1143_">
		<g id="XMLID_1144_">
			<path id="XMLID_1145_" style="fill:#B3404A;" d="M63.328,283.387h-20v-29.113c0-8.484,6.903-15.387,15.387-15.387h34.613v20h-30
				C63.328,258.887,63.328,283.387,63.328,283.387z"/>
		</g>
		<g id="XMLID_1146_">
			<path id="XMLID_1147_" style="fill:#B3404A;" d="M132.994,283.387h-20v-29.113c0-8.484,6.903-15.387,15.387-15.387h34.613v20h-30
				L132.994,283.387L132.994,283.387z"/>
		</g>
		<g id="XMLID_1148_">
			<path id="XMLID_1149_" style="fill:#B3404A;" d="M202.661,283.387h-20v-29.113c0-8.484,6.902-15.387,15.387-15.387h34.613v20h-30
				L202.661,283.387L202.661,283.387z"/>
		</g>
		<g id="XMLID_1150_">
			<path id="XMLID_1151_" style="fill:#B3404A;" d="M272.328,283.387h-20v-29.113c0-8.484,6.903-15.387,15.387-15.387h34.613v20h-30
				V283.387z"/>
		</g>
	</g>
</g>
<g>
</g>
<g>
</g>
<g>
</g>
<g>
</g>
<g>
</g>
<g>
</g>
<g>
</g>
<g>
</g>
<g>
</g>
<g>
</g>
<g>
</g>
<g>
</g>
<g>
</g>
<g>
</g>
<g>
</g>
</svg>
