<?xml version="1.0" encoding="iso-8859-1"?>
<!-- Generator: Adobe Illustrator 19.0.0, SVG Export Plug-In . SVG Version: 6.00 Build 0)  -->
<svg version="1.1" id="Layer_1" xmlns="http://www.w3.org/2000/svg" xmlns:xlink="http://www.w3.org/1999/xlink" x="0px" y="0px"
	 viewBox="0 0 340 340" style="enable-background:new 0 0 340 340;" xml:space="preserve">
<g id="XMLID_2302_">
	<g id="XMLID_2303_">
		<path id="XMLID_2304_" style="fill:#B3404A;" d="M170,340c-25.027,0-49.137-5.317-71.661-15.805
			c-29.305-13.63-54.041-35.253-71.528-62.528C9.271,234.32,0,202.622,0,170c0-1.562,0.021-3.134,0.064-4.685
			c0.833-30.614,9.913-60.427,26.26-86.21C49.379,42.725,84.906,16.642,126.36,5.663C140.513,1.906,155.198,0,170,0
			s29.487,1.906,43.646,5.665c41.448,10.977,76.975,37.06,100.031,73.442c16.346,25.781,25.427,55.594,26.259,86.211
			c0.042,1.548,0.064,3.12,0.064,4.682c0,33.59-9.79,66.079-28.311,93.954c-17.673,26.628-42.361,47.678-71.392,60.87
			C218.162,334.894,194.509,340,170,340z M170,20c-13.07,0-26.028,1.681-38.514,4.995c-36.573,9.686-67.919,32.704-88.269,64.817
			c-14.417,22.74-22.426,49.037-23.16,76.049C20.019,167.233,20,168.622,20,170c0,28.786,8.177,56.751,23.647,80.871
			c15.437,24.078,37.267,43.162,63.13,55.191C126.641,315.312,147.911,320,170,320c21.632,0,42.499-4.503,62.02-13.383
			c25.62-11.642,47.407-30.22,63.008-53.728C311.366,228.301,320,199.64,320,170c0-1.378-0.019-2.767-0.056-4.136
			c-0.735-27.015-8.743-53.312-23.16-76.05c-20.351-32.115-51.697-55.134-88.264-64.817C196.028,21.681,183.07,20,170,20z"/>
	</g>
	<g id="XMLID_2307_">
		<path id="XMLID_2308_" style="fill:#F4B2B0;" d="M126.411,205.372l-10.798-33.233c-3.676-11.315,0.351-23.71,9.976-30.703
			l28.27-20.539c9.625-6.993,22.658-6.993,32.283,0l28.27,20.539c9.625,6.993,13.653,19.388,9.976,30.703l-10.798,33.233
			c-3.676,11.315-14.221,18.976-26.118,18.976h-34.943C140.631,224.348,130.087,216.687,126.411,205.372z"/>
		<path id="XMLID_2309_" style="fill:#B3404A;" d="M187.472,234.348h-34.943c-16.279,0-30.597-10.402-35.628-25.885l-10.798-33.233
			c-5.03-15.483,0.438-32.315,13.609-41.884l28.27-20.538c6.442-4.681,14.057-7.155,22.02-7.155s15.577,2.475,22.02,7.155
			l28.269,20.538c13.171,9.568,18.64,26.4,13.609,41.884l-10.8,33.232C218.068,223.945,203.75,234.348,187.472,234.348z
			 M170,125.652c-3.712,0-7.261,1.153-10.264,3.335l-28.27,20.538c-6.139,4.461-8.688,12.307-6.343,19.524l10.798,33.232
			c2.345,7.217,9.019,12.065,16.607,12.065h34.943c7.588,0,14.262-4.849,16.607-12.066l10.797-33.231
			c2.345-7.218-0.204-15.063-6.343-19.524l-28.269-20.538C177.261,126.806,173.712,125.652,170,125.652z"/>
	</g>
	<g id="XMLID_2312_">
		<rect id="XMLID_2313_" x="160" y="10" style="fill:#B3404A;" width="20" height="105.652"/>
	</g>
	<g id="XMLID_2314_">
		
			<rect id="XMLID_2315_" x="265.365" y="84.885" transform="matrix(-0.3327 -0.943 0.943 -0.3327 237.3216 442.9139)" style="fill:#B3404A;" width="19.999" height="105.214"/>
	</g>
	<g id="XMLID_2316_">
		
			<rect id="XMLID_2317_" x="17.399" y="127.503" transform="matrix(-0.9431 -0.3326 0.3326 -0.9431 90.3001 290.463)" style="fill:#B3404A;" width="105.22" height="20.001"/>
	</g>
	<g id="XMLID_2318_">
		
			<rect id="XMLID_2319_" x="187.156" y="247.916" transform="matrix(-0.6679 -0.7443 0.7443 -0.6679 209.4202 609.2853)" style="fill:#B3404A;" width="106.996" height="20.001"/>
	</g>
	<g id="XMLID_2320_">
		
			<rect id="XMLID_2321_" x="94.993" y="204.413" transform="matrix(-0.7443 -0.6679 0.6679 -0.7443 10.8846 519.9903)" style="fill:#B3404A;" width="20.001" height="106.996"/>
	</g>
	<g id="XMLID_2322_">
		<path id="XMLID_2323_" style="fill:#F4B2B0;" d="M211.08,17.33l-24.94,16.12c-9.62,6.99-22.66,6.99-32.28,0l-24.94-16.12
			C142.03,13.85,155.8,10,170,10S197.97,13.85,211.08,17.33z"/>
		<path id="XMLID_2324_" style="fill:#B3404A;" d="M170,48.692c-7.867,0-15.391-2.413-21.78-6.98l-43.705-28.249l23.669-6.285
			C141.443,3.649,155.153,0,170,0s28.557,3.649,41.816,7.178l23.669,6.285L191.78,41.712C185.391,46.279,177.867,48.692,170,48.692z
			 M153.95,21.602l5.788,3.759c3,2.18,6.549,3.332,10.262,3.332s7.262-1.152,10.262-3.332l0.45-0.309l5.338-3.45
			C180.696,20.628,175.33,20,170,20S159.304,20.628,153.95,21.602z"/>
	</g>
	<g id="XMLID_2327_">
		<g id="XMLID_2328_">
			<path id="XMLID_2329_" style="fill:#F4B2B0;" d="M302.36,257.42c-16.5,24.86-39.78,44.84-67.2,57.3l8.92-32.42
				c2.74-11.57,12.62-20.07,24.48-21.04L302.36,257.42z"/>
			<path id="XMLID_2330_" style="fill:#B3404A;" d="M219.853,332.66l14.542-52.854c3.799-15.688,17.097-27.111,33.18-28.499
				l54.991-6.247l-11.874,17.89c-17.676,26.632-42.364,47.682-71.395,60.874L219.853,332.66z M279.88,270.038l-10.504,1.188
				c-7.562,0.619-13.817,5.995-15.565,13.378l-0.089,0.348l-2.652,9.639C261.668,287.659,271.344,279.413,279.88,270.038z"/>
		</g>
		<g id="XMLID_2333_">
			<path id="XMLID_2334_" style="fill:#F4B2B0;" d="M103.56,314.13c-27.65-12.86-51-33.39-67.33-58.86
				c3.32-0.48,5.76,0.65,9.17,1.46l34,8.05c11.58,2.74,20.07,12.63,21.04,24.48L103.56,314.13z"/>
			<path id="XMLID_2335_" style="fill:#B3404A;" d="M115.732,330.82l-16.39-7.623c-29.309-13.632-54.044-35.255-71.531-62.53
				l-8.382-13.074l15.371-2.221c0.999-0.144,2.012-0.217,3.013-0.217c3.198,0,5.835,0.736,7.953,1.329
				c0.616,0.172,1.257,0.354,1.946,0.518l33.991,8.047c15.763,3.729,27.264,17.04,28.683,33.163L115.732,330.82z M60.641,270.615
				c9.017,9.801,19.289,18.352,30.573,25.44l-0.741-5.979c-0.619-7.563-5.994-13.818-13.375-15.564L60.641,270.615z"/>
		</g>
	</g>
	<g id="XMLID_2338_">
		<g id="XMLID_2339_">
			<path id="XMLID_2340_" style="fill:#F4B2B0;" d="M327.94,165.59c-0.37-0.27,1.28-0.55,0.93-0.85l-26.69-22.55
				c-9.09-7.67-12.2-20.33-7.71-31.34l8.76-26.39C318.18,108.04,327.13,135.8,327.94,165.59z"/>
			<path id="XMLID_2341_" style="fill:#B3404A;" d="M318.56,187.7l-0.537-19.033l-22.297-18.839
				c-12.345-10.417-16.603-27.425-10.65-42.422l15.307-46.111l11.292,17.811c12.565,19.818,20.849,42.058,24.379,65.193l1.255-1.159
				l0.481,17.056c0.968,1.861,1.335,3.984,1.017,6.119c-0.104,0.699-0.314,1.594-0.729,2.554l0.649,17.293l-2.946-2.489
				l-7.194-5.239L318.56,187.7z M305.38,109.723l-1.651,4.903c-2.865,7.025-0.896,15.03,4.899,19.921l6.332,5.35
				C312.841,129.525,309.629,119.406,305.38,109.723z"/>
		</g>
		<g id="XMLID_2344_">
			<path id="XMLID_2345_" style="fill:#F4B2B0;" d="M37.82,142.19l-26.69,22.55c-0.35,0.3,1.3,0.58,0.93,0.85
				c0.81-29.79,9.76-57.55,24.71-81.13l8.76,26.39C50.02,121.86,46.91,134.52,37.82,142.19z"/>
			<path id="XMLID_2346_" style="fill:#B3404A;" d="M21.44,187.7l-10.028-9.268l-7.194,5.239l-2.946,2.489l0.65-17.295
				c-0.417-0.96-0.626-1.853-0.73-2.552c-0.32-2.145,0.052-4.278,1.017-6.134L2.69,143.14l1.255,1.159
				c3.53-23.136,11.814-45.375,24.379-65.193l11.292-17.811l15.307,46.111c5.953,14.997,1.695,32.005-10.655,42.426l-22.292,18.835
				L21.44,187.7z M34.62,109.723c-4.249,9.684-7.46,19.803-9.581,30.174l6.327-5.346c5.801-4.895,7.77-12.899,4.905-19.925
				L36.04,114L34.62,109.723z"/>
		</g>
	</g>
</g>
<g>
</g>
<g>
</g>
<g>
</g>
<g>
</g>
<g>
</g>
<g>
</g>
<g>
</g>
<g>
</g>
<g>
</g>
<g>
</g>
<g>
</g>
<g>
</g>
<g>
</g>
<g>
</g>
<g>
</g>
</svg>
