<?xml version="1.0" encoding="iso-8859-1"?>
<!-- Generator: Adobe Illustrator 19.0.0, SVG Export Plug-In . SVG Version: 6.00 Build 0)  -->
<svg version="1.1" id="Layer_1" xmlns="http://www.w3.org/2000/svg" xmlns:xlink="http://www.w3.org/1999/xlink" x="0px" y="0px"
	 viewBox="0 0 324.655 324.655" style="enable-background:new 0 0 324.655 324.655;" xml:space="preserve">
<g id="XMLID_1478_">
	<g id="XMLID_1479_">
		<path id="XMLID_1480_" style="fill:#B3404A;" d="M287.463,296.223H37.192C16.685,296.223,0,279.539,0,259.031V65.625
			c0-20.508,16.685-37.192,37.192-37.192h250.271c20.508,0,37.192,16.685,37.192,37.192v193.406
			C324.656,279.539,307.971,296.223,287.463,296.223z M37.192,48.432C27.712,48.432,20,56.145,20,65.625v193.406
			c0,9.479,7.712,17.192,17.192,17.192h250.271c9.479,0,17.192-7.713,17.192-17.192V65.625c0-9.479-7.713-17.192-17.192-17.192
			L37.192,48.432L37.192,48.432z"/>
	</g>
	<g id="XMLID_1483_">
		<path id="XMLID_39_" style="fill:#F4B2B0;" d="M218.896,218.896L218.896,218.896c-18.765,18.765-49.471,18.765-68.236,0
			l-44.901-44.901c-18.765-18.765-18.765-49.471,0-68.236l0,0c18.765-18.765,49.471-18.765,68.236,0l44.901,44.901
			C237.661,169.425,237.661,200.132,218.896,218.896z"/>
		<path id="XMLID_1484_" style="fill:#B3404A;" d="M184.778,242.969c-15.597,0-30.224-6.038-41.188-17.002l-44.901-44.901
			c-10.964-10.964-17.002-25.592-17.002-41.188c0-15.598,6.038-30.226,17.003-41.189c10.964-10.964,25.592-17.002,41.188-17.002
			s30.224,6.038,41.189,17.002l44.901,44.901c22.711,22.712,22.711,59.666,0,82.378
			C215.002,236.931,200.375,242.969,184.778,242.969z M139.877,101.686c-10.254,0-19.86,3.958-27.047,11.145
			s-11.145,16.792-11.145,27.047c0,10.254,3.958,19.859,11.145,27.046l44.901,44.901c7.187,7.187,16.792,11.145,27.046,11.145
			c10.255,0,19.86-3.958,27.047-11.145c14.914-14.913,14.914-39.18,0-54.093l-44.901-44.901
			C159.737,105.644,150.131,101.686,139.877,101.686z"/>
	</g>
	<g id="XMLID_1487_">
		
			<rect id="XMLID_1488_" x="152.83" y="115.678" transform="matrix(-0.7105 -0.7037 0.7037 -0.7105 164.2901 392.2454)" style="fill:#B3404A;" width="20" height="93.3"/>
	</g>
	<g id="XMLID_1489_">
		
			<rect id="XMLID_1490_" x="123.619" y="123.864" transform="matrix(-0.7071 -0.7071 0.7071 -0.7071 133.8719 323.1809)" style="fill:#B3404A;" width="20.5" height="20.001"/>
	</g>
</g>
<g>
</g>
<g>
</g>
<g>
</g>
<g>
</g>
<g>
</g>
<g>
</g>
<g>
</g>
<g>
</g>
<g>
</g>
<g>
</g>
<g>
</g>
<g>
</g>
<g>
</g>
<g>
</g>
<g>
</g>
</svg>
