<?xml version="1.0" encoding="iso-8859-1"?>
<!-- Generator: Adobe Illustrator 19.0.0, SVG Export Plug-In . SVG Version: 6.00 Build 0)  -->
<svg version="1.1" id="Layer_1" xmlns="http://www.w3.org/2000/svg" xmlns:xlink="http://www.w3.org/1999/xlink" x="0px" y="0px"
	 viewBox="0 0 360.98 360.98" style="enable-background:new 0 0 360.98 360.98;" xml:space="preserve">
<g id="XMLID_821_">
	<g id="XMLID_822_">
		<path id="XMLID_823_" style="fill:#B3404A;" d="M165.49,290.98h-60V68.463c0-8.192,5.52-15.296,13.442-17.328l94.154-25.791
			L313.302,0.528C314.718,0.178,316.169,0,317.617,0c9.855,0,17.873,8.026,17.873,17.893V260.98h-60V71.704l-57.389,14.21
			l-52.611,15.439L165.49,290.98L165.49,290.98z M125.49,270.98h20V99.766c0-8.157,5.473-15.235,13.341-17.302l54.256-15.912
			l60.215-14.91c1.415-0.351,2.867-0.528,4.316-0.528c9.854,0,17.872,8.026,17.872,17.893V240.98h20V20.591l-97.476,24.137
			L125.49,70.075V270.98z"/>
	</g>
	<g id="XMLID_826_">
		<g id="XMLID_827_">
			<circle id="XMLID_828_" style="fill:#F4B2B0;" cx="95.49" cy="290.98" r="60"/>
			<path id="XMLID_829_" style="fill:#B3404A;" d="M95.49,360.98c-38.598,0-70-31.402-70-70s31.402-70,70-70s70,31.402,70,70
				S134.088,360.98,95.49,360.98z M95.49,240.98c-27.57,0-50,22.43-50,50s22.43,50,50,50s50-22.43,50-50
				S123.061,240.98,95.49,240.98z"/>
		</g>
	</g>
	<g id="XMLID_832_">
		<g id="XMLID_833_">
			<circle id="XMLID_834_" style="fill:#F4B2B0;" cx="265.49" cy="260.98" r="60"/>
			<path id="XMLID_835_" style="fill:#B3404A;" d="M265.49,330.98c-38.598,0-70-31.402-70-70s31.402-70,70-70s70,31.402,70,70
				S304.088,330.98,265.49,330.98z M265.49,210.98c-27.57,0-50,22.43-50,50s22.43,50,50,50s50-22.43,50-50
				S293.061,210.98,265.49,210.98z"/>
		</g>
	</g>
</g>
<g>
</g>
<g>
</g>
<g>
</g>
<g>
</g>
<g>
</g>
<g>
</g>
<g>
</g>
<g>
</g>
<g>
</g>
<g>
</g>
<g>
</g>
<g>
</g>
<g>
</g>
<g>
</g>
<g>
</g>
</svg>
