<?xml version="1.0" encoding="iso-8859-1"?>
<!-- Generator: Adobe Illustrator 19.0.0, SVG Export Plug-In . SVG Version: 6.00 Build 0)  -->
<svg version="1.1" id="Layer_1" xmlns="http://www.w3.org/2000/svg" xmlns:xlink="http://www.w3.org/1999/xlink" x="0px" y="0px"
	 viewBox="0 0 397.501 397.501" style="enable-background:new 0 0 397.501 397.501;" xml:space="preserve">
<g id="XMLID_1718_">
	<g id="XMLID_1719_">
		<path id="XMLID_50_" style="fill:#F4B2B0;" d="M261.667,312.25H135.833V116.288c0-17.142,13.896-31.038,31.038-31.038h63.758
			c17.142,0,31.038,13.896,31.038,31.038V312.25z"/>
		<path id="XMLID_1720_" style="fill:#B3404A;" d="M271.667,322.25H125.833V116.288c0-22.628,18.409-41.037,41.038-41.037h63.758
			c22.628,0,41.038,18.409,41.038,41.037V322.25z M145.833,302.25h105.833V116.288c0-11.6-9.438-21.037-21.038-21.037H166.87
			c-11.6,0-21.038,9.438-21.038,21.037L145.833,302.25L145.833,302.25z"/>
	</g>
	<g id="XMLID_1723_">
		<path id="XMLID_1724_" style="fill:#B3404A;" d="M397.5,322.25H251.667v-168h104.796c22.628,0,41.038,18.409,41.038,41.037h-20
			c0-11.6-9.438-21.037-21.038-21.037h-84.796v128H377.5v-53.782h20V322.25z"/>
	</g>
	<g id="XMLID_1725_">
		<path id="XMLID_1726_" style="fill:#B3404A;" d="M145.833,322.25H0V175.288c0-22.628,18.409-41.037,41.038-41.037h104.796v188
			H145.833z M20,302.25h105.833v-148H41.038c-11.6,0-21.038,9.438-21.038,21.037C20,175.288,20,302.25,20,302.25z"/>
	</g>
	<g id="XMLID_1729_">
		<path id="XMLID_1730_" style="fill:#B3404A;" d="M223.172,207.699v15.561h-46.683v-15.561h15.345v-27.556
			c-0.648,0.864-1.658,1.748-3.025,2.647c-1.37,0.902-2.901,1.729-4.593,2.485c-1.693,0.756-3.422,1.37-5.187,1.837
			c-1.766,0.469-3.333,0.702-4.701,0.702v-15.993c1.151,0,2.647-0.395,4.484-1.188c1.837-0.792,3.656-1.746,5.458-2.864
			c1.8-1.116,3.421-2.251,4.863-3.404c1.44-1.152,2.34-2.089,2.701-2.81h17.614v46.142h13.724V207.699z"/>
	</g>
	<g id="XMLID_1732_">
		<path id="XMLID_1733_" style="fill:#B3404A;" d="M46.009,275.799c0-3.385,0.251-6.411,0.756-9.077
			c0.503-2.665,1.368-5.096,2.594-7.294c1.224-2.196,2.88-4.231,4.971-6.105c2.089-1.873,4.718-3.709,7.889-5.511
			c3.385-1.872,6.213-3.42,8.483-4.646c2.269-1.224,4.069-2.305,5.403-3.242c1.333-0.936,2.286-1.783,2.864-2.54
			c0.576-0.756,0.864-1.638,0.864-2.647c0-2.016-0.721-3.637-2.161-4.863c-1.442-1.224-3.495-1.837-6.16-1.837
			c-3.025,0-5.656,0.739-7.888,2.215c-2.234,1.478-4.395,3.404-6.484,5.782l-11.022-12.751c1.152-1.297,2.702-2.556,4.647-3.782
			c1.945-1.224,4.142-2.323,6.592-3.296c2.448-0.973,5.133-1.746,8.05-2.323c2.918-0.576,5.96-0.865,9.131-0.865
			c7.781,0,13.741,1.694,17.884,5.079c4.142,3.387,6.214,7.961,6.214,13.724c0,2.377-0.378,4.503-1.135,6.376
			c-0.756,1.874-1.748,3.549-2.972,5.025c-1.226,1.478-2.594,2.774-4.106,3.89c-1.513,1.118-3.063,2.145-4.646,3.08
			c-1.081,0.648-2.377,1.405-3.891,2.27c-1.513,0.864-3.009,1.748-4.484,2.647c-1.478,0.902-2.847,1.802-4.106,2.702
			c-1.261,0.901-2.215,1.712-2.864,2.431h29.393v15.561H46.009V275.799z"/>
	</g>
	<g id="XMLID_1735_">
		<path id="XMLID_1736_" style="fill:#B3404A;" d="M335.461,242.271c1.962,0.38,3.768,1.062,5.415,2.042
			c1.646,0.983,3.055,2.218,4.228,3.705c1.171,1.489,2.074,3.199,2.708,5.13c0.632,1.933,0.95,4.006,0.95,6.223
			c0,2.978-0.603,5.652-1.805,8.027c-1.204,2.375-2.93,4.401-5.178,6.08c-2.249,1.677-4.956,2.976-8.123,3.895
			c-3.167,0.917-6.713,1.377-10.64,1.377c-9.628,0-17.164-2.819-22.61-8.455l8.17-10.83c1.71,1.773,3.657,3.12,5.842,4.037
			c2.185,0.919,4.797,1.378,7.837,1.378c7.156,0,10.735-2.627,10.735-7.885c0-2.85-1.062-5.002-3.183-6.46
			c-2.123-1.456-5.462-2.185-10.022-2.185h-2.85v-10.925h3.135c3.546,0,6.318-0.728,8.313-2.185
			c1.995-1.456,2.993-3.387,2.993-5.795c0-2.09-0.729-3.672-2.185-4.75c-1.458-1.076-3.389-1.615-5.795-1.615
			c-2.598,0-4.957,0.618-7.078,1.853c-2.123,1.235-3.911,2.993-5.367,5.272l-9.595-11.02c1.012-1.33,2.342-2.565,3.99-3.705
			c1.646-1.14,3.515-2.104,5.605-2.897c2.09-0.791,4.337-1.409,6.745-1.853c2.406-0.442,4.876-0.665,7.41-0.665
			c3.356,0,6.427,0.396,9.215,1.188c2.786,0.793,5.161,1.933,7.125,3.42c1.962,1.489,3.482,3.263,4.56,5.32
			c1.076,2.059,1.615,4.355,1.615,6.888c0,1.9-0.301,3.705-0.903,5.415c-0.603,1.71-1.441,3.263-2.517,4.655
			c-1.078,1.394-2.36,2.55-3.848,3.467C338.865,241.337,337.233,241.954,335.461,242.271z"/>
	</g>
</g>
<g>
</g>
<g>
</g>
<g>
</g>
<g>
</g>
<g>
</g>
<g>
</g>
<g>
</g>
<g>
</g>
<g>
</g>
<g>
</g>
<g>
</g>
<g>
</g>
<g>
</g>
<g>
</g>
<g>
</g>
</svg>
