<?xml version="1.0" encoding="iso-8859-1"?>
<!-- Generator: Adobe Illustrator 19.0.0, SVG Export Plug-In . SVG Version: 6.00 Build 0)  -->
<svg version="1.1" id="Layer_1" xmlns="http://www.w3.org/2000/svg" xmlns:xlink="http://www.w3.org/1999/xlink" x="0px" y="0px"
	 viewBox="0 0 366.466 366.466" style="enable-background:new 0 0 366.466 366.466;" xml:space="preserve">
<g id="XMLID_1770_">
	<g id="XMLID_1771_">
		<path id="XMLID_1772_" style="fill:#B3404A;" d="M316.902,290.239H49.563V76.63c0-18.845,15.332-34.177,34.176-34.177h198.986
			c18.845,0,34.176,15.332,34.176,34.177v213.609H316.902z M69.563,270.239h227.338V76.63c0-7.817-6.359-14.177-14.176-14.177H83.74
			c-7.817,0-14.176,6.359-14.176,14.177L69.563,270.239L69.563,270.239z"/>
	</g>
	<g id="XMLID_1775_">
		<path id="XMLID_1776_" style="fill:#B3404A;" d="M250.936,247.782H115.53c-12.963,0-23.509-10.547-23.509-23.51V108.42
			c0-12.963,10.546-23.509,23.509-23.509h135.406c12.963,0,23.509,10.546,23.509,23.509h-20c0-1.935-1.574-3.509-3.509-3.509H115.53
			c-1.935,0-3.509,1.574-3.509,3.509v115.853c0,1.936,1.574,3.51,3.509,3.51h135.406c1.935,0,3.509-1.574,3.509-3.51v-73.167h20
			v73.167C274.445,237.235,263.899,247.782,250.936,247.782z"/>
	</g>
	<g id="XMLID_1777_">
		<g id="XMLID_1778_">
			<path id="XMLID_1779_" style="fill:#F4B2B0;" d="M101.54,279.917l-40.533,61.578c-4.756,6.785,1.724,14.97,11.852,14.97h25.543
				c4.963,0,9.521-2.078,11.852-5.403l47.178-71.145L101.54,279.917L101.54,279.917z"/>
			<path id="XMLID_1780_" style="fill:#B3404A;" d="M98.402,366.466H72.859c-9.38,0-17.571-4.543-21.375-11.857
				c-3.144-6.042-2.678-13.024,1.236-18.712l43.43-65.979h79.912l-57.619,86.886C114.201,362.854,106.709,366.466,98.402,366.466z
				 M70.068,345.918c0.603,0.282,1.521,0.548,2.792,0.548h25.543c2.07,0,3.359-0.795,3.645-1.121l36.755-55.428H106.93
				L70.068,345.918z"/>
		</g>
		<g id="XMLID_1783_">
			<path id="XMLID_1784_" style="fill:#F4B2B0;" d="M264.926,279.917h-55.893l47.178,71.145c2.331,3.325,6.889,5.403,11.852,5.403
				h25.543c10.128,0,16.609-8.185,11.852-14.97L264.926,279.917z"/>
			<path id="XMLID_1785_" style="fill:#B3404A;" d="M293.607,366.466h-25.544c-8.309,0-15.801-3.613-20.041-9.665l-0.145-0.212
				l-57.475-86.672h79.913l43.429,65.979c3.915,5.688,4.381,12.671,1.237,18.713C311.177,361.923,302.987,366.466,293.607,366.466z
				 M264.421,345.349c0.279,0.32,1.57,1.117,3.642,1.117h25.544c1.271,0,2.188-0.266,2.791-0.548l-36.861-56.001h-31.874
				L264.421,345.349z"/>
		</g>
	</g>
	<g id="XMLID_1788_">
		<path id="XMLID_1789_" style="fill:#F4B2B0;" d="M202.209,52.453v-30.84c0-6.414-5.199-11.613-11.613-11.613H175.87
			c-6.414,0-11.613,5.199-11.613,11.613v30.84H202.209z"/>
		<path id="XMLID_1790_" style="fill:#B3404A;" d="M212.209,62.453h-57.953v-40.84C154.257,9.695,163.952,0,175.87,0h14.726
			c11.918,0,21.613,9.695,21.613,21.613V62.453z M174.257,42.453h17.953v-20.84c0-0.89-0.724-1.613-1.613-1.613H175.87
			c-0.89,0-1.613,0.724-1.613,1.613L174.257,42.453L174.257,42.453z"/>
	</g>
	<g id="XMLID_1793_">
		<rect id="XMLID_1794_" x="27.733" y="270.239" style="fill:#B3404A;" width="311" height="20"/>
	</g>
</g>
<g>
</g>
<g>
</g>
<g>
</g>
<g>
</g>
<g>
</g>
<g>
</g>
<g>
</g>
<g>
</g>
<g>
</g>
<g>
</g>
<g>
</g>
<g>
</g>
<g>
</g>
<g>
</g>
<g>
</g>
</svg>
