<?xml version="1.0" encoding="iso-8859-1"?>
<!-- Generator: Adobe Illustrator 19.0.0, SVG Export Plug-In . SVG Version: 6.00 Build 0)  -->
<svg version="1.1" id="Layer_1" xmlns="http://www.w3.org/2000/svg" xmlns:xlink="http://www.w3.org/1999/xlink" x="0px" y="0px"
	 viewBox="0 0 362.786 362.786" style="enable-background:new 0 0 362.786 362.786;" xml:space="preserve">
<g id="XMLID_240_">
	<g id="XMLID_241_">
		<g id="XMLID_242_">
			<path id="XMLID_243_" style="fill:#B3404A;" d="M225.577,319.538L225.577,319.538c-36.65,0-71.106-14.273-97.021-40.188
				l-16.535-16.536c-8.237-8.237-12.774-19.203-12.775-30.877c0-11.674,4.536-22.639,12.772-30.875
				c8.237-8.238,19.203-12.774,30.877-12.774s22.64,4.537,30.877,12.774c0.786,0.786,1.713,0.903,2.196,0.903
				s1.41-0.117,2.196-0.902c1.212-1.212,1.213-3.183,0.002-4.394l-49.61-49.61c-17.024-17.025-17.024-44.726,0-61.751
				c25.916-25.915,60.372-40.188,97.021-40.188c36.652,0.002,71.107,14.275,97.021,40.188c25.914,25.914,40.186,60.37,40.188,97.021
				c-0.002,36.652-14.275,71.108-40.188,97.021C296.684,305.263,262.229,319.535,225.577,319.538z M142.895,208.287
				c-6.332,0-12.275,2.457-16.735,6.917c-4.459,4.458-6.915,10.401-6.915,16.733s2.457,12.275,6.917,16.735l16.536,16.536
				c22.138,22.138,51.571,34.33,82.878,34.33c31.309-0.002,60.743-12.194,82.879-34.331c22.136-22.136,34.328-51.57,34.33-82.879
				c-0.002-31.308-12.194-60.742-34.331-82.879c-22.136-22.136-51.57-34.328-82.879-34.33c-31.307,0-60.74,12.192-82.878,34.33
				c-9.227,9.227-9.227,24.24,0,33.467l49.61,49.61c9.009,9.009,9.008,23.668-0.002,32.678c-4.36,4.359-10.162,6.76-16.338,6.76
				s-11.978-2.401-16.338-6.76C155.17,210.744,149.227,208.287,142.895,208.287z"/>
		</g>
		<g id="XMLID_308_">
			<path id="XMLID_60_" style="fill:#F4B2B0;" d="M274.483,230.865c-8.46-8.46-22.225-8.46-30.685,0
				c-8.46,8.46-8.46,22.225,0,30.685c8.46,8.46,22.225,8.46,30.685,0C282.943,253.09,282.943,239.325,274.483,230.865
				L274.483,230.865z"/>
			<path id="XMLID_309_" style="fill:#B3404A;" d="M259.141,277.894c-8.473,0-16.433-3.293-22.414-9.273
				c-12.358-12.359-12.358-32.468,0-44.827c5.98-5.98,13.94-9.273,22.414-9.273s16.434,3.293,22.414,9.274
				c12.358,12.358,12.358,32.468,0,44.827C275.574,274.601,267.614,277.894,259.141,277.894z M259.141,234.52
				c-3.131,0-6.068,1.213-8.271,3.416c-4.561,4.561-4.561,11.981,0,16.542c2.203,2.203,5.14,3.416,8.271,3.416
				s6.068-1.213,8.271-3.416c4.561-4.561,4.561-11.982,0-16.542C265.209,235.733,262.271,234.52,259.141,234.52z"/>
		</g>
		<g id="XMLID_333_">
			<path id="XMLID_54_" style="fill:#F4B2B0;" d="M233.22,89.431c-5.598-1.5-11.445-0.728-16.466,2.169
				c-5.017,2.897-8.609,7.576-10.108,13.175c-2.002,7.463,0.152,15.498,5.621,20.967c2.682,2.682,6.043,4.62,9.72,5.607
				c5.599,1.498,11.445,0.728,16.466-2.169c5.019-2.899,8.609-7.576,10.108-13.176c2-7.465-0.152-15.498-5.621-20.967
				C240.257,92.355,236.894,90.416,233.22,89.431L233.22,89.431z"/>
			<path id="XMLID_334_" style="fill:#B3404A;" d="M227.636,142.096L227.636,142.096c-2.768,0-5.538-0.366-8.234-1.087
				c-5.376-1.442-10.287-4.276-14.207-8.197c-7.988-7.988-11.133-19.724-8.207-30.628c2.186-8.171,7.43-15.008,14.765-19.244
				c7.25-4.182,15.98-5.332,24.055-3.169c5.372,1.441,10.282,4.274,14.204,8.195c7.985,7.986,11.131,19.721,8.208,30.626
				c-2.188,8.174-7.432,15.011-14.766,19.247C238.626,140.625,233.158,142.096,227.636,142.096z M227.573,98.683
				c-2.047,0-4.006,0.531-5.822,1.579c-2.703,1.561-4.638,4.083-5.444,7.098c-1.081,4.029,0.081,8.361,3.032,11.311
				c1.442,1.443,3.254,2.487,5.24,3.02c3.014,0.806,6.156,0.398,8.877-1.172c2.703-1.561,4.638-4.083,5.445-7.099
				c1.08-4.029-0.082-8.361-3.032-11.311c-1.443-1.443-3.254-2.487-5.239-3.02C229.624,98.82,228.594,98.683,227.573,98.683z"/>
		</g>
		<g id="XMLID_340_">
			<path id="XMLID_48_" style="fill:#F4B2B0;" d="M306.076,147.879c-5.469-5.469-13.504-7.623-20.967-5.621
				c-11.558,3.096-18.44,15.017-15.342,26.572c0.983,3.676,2.924,7.036,5.607,9.72c5.469,5.469,13.502,7.625,20.965,5.622
				c11.557-3.096,18.44-15.016,15.344-26.574C310.697,153.925,308.759,150.563,306.076,147.879L306.076,147.879z"/>
			<path id="XMLID_341_" style="fill:#B3404A;" d="M290.753,194.908h-0.001c-8.365,0-16.547-3.385-22.449-9.287
				c-3.927-3.927-6.761-8.84-8.196-14.208c-2.188-8.163-1.061-16.703,3.176-24.042c4.237-7.338,11.069-12.584,19.239-14.773
				c2.661-0.714,5.413-1.076,8.177-1.076c8.366,0,16.548,3.384,22.449,9.285c3.92,3.921,6.754,8.832,8.194,14.2
				c4.522,16.888-5.534,34.303-22.416,38.825C296.266,194.546,293.515,194.908,290.753,194.908z M290.698,151.523
				c-1.015,0-2.023,0.132-2.998,0.394c-3.013,0.807-5.532,2.744-7.098,5.456c-1.565,2.711-1.983,5.86-1.176,8.869
				c0.53,1.983,1.574,3.792,3.019,5.238c2.179,2.179,5.207,3.429,8.308,3.429l0,0c1.013,0,2.021-0.132,2.995-0.394
				c6.233-1.669,9.944-8.097,8.275-14.329c-0.531-1.981-1.575-3.792-3.019-5.235C296.827,152.772,293.799,151.523,290.698,151.523z"
				/>
		</g>
	</g>
	<g id="XMLID_351_">
		<g id="XMLID_352_">
			<path id="XMLID_439_" style="fill:#F4B2B0;" d="M87.28,107.328c0-30.486-38.64-55.2-38.64-55.2S10,76.842,10,107.328
				c0,17.149,5.474,32.471,14.061,42.595c4.771,5.625,10.503,9.645,16.791,11.484c2.515,0.735,5.12,1.121,7.787,1.121
				c0.488,0,0.971-0.027,1.454-0.053l0,0C70.76,161.382,87.28,137.118,87.28,107.328z"/>
			<path id="XMLID_440_" style="fill:#B3404A;" d="M48.64,172.529c-3.571,0-7.136-0.513-10.593-1.523
				c-8.018-2.344-15.491-7.396-21.612-14.613C5.99,144.078,0,126.195,0,107.328c0-35.552,41.486-62.495,43.252-63.625l5.388-3.446
				l5.388,3.446c1.766,1.129,43.252,28.072,43.252,63.625c0,35.139-20.495,63.749-46.658,65.133
				C49.934,172.499,49.291,172.529,48.64,172.529z M48.64,64.392C37.493,72.983,20,90.114,20,107.328
				c0,14.202,4.26,27.37,11.688,36.127c3.582,4.222,7.721,7.111,11.971,8.354c1.918,0.561,3.902,0.789,5.849,0.684
				c15.34-0.812,27.772-21.071,27.772-45.165C77.28,90.118,59.794,72.989,48.64,64.392z"/>
		</g>
		<g id="XMLID_444_">
			<path id="XMLID_445_" style="fill:#B3404A;" d="M50.013,322.529h-2.747c-14.033,0-25.45-11.417-25.45-25.451V162.529h53.647
				v134.549C75.463,311.112,64.046,322.529,50.013,322.529z M41.816,182.529v114.549c0,3.005,2.445,5.451,5.45,5.451h2.747
				c3.005,0,5.45-2.445,5.45-5.451V182.529H41.816z"/>
		</g>
		<g id="XMLID_448_">
			<rect id="XMLID_449_" x="18.06" y="161.501" style="fill:#B3404A;" width="61.16" height="20"/>
		</g>
	</g>
</g>
<g>
</g>
<g>
</g>
<g>
</g>
<g>
</g>
<g>
</g>
<g>
</g>
<g>
</g>
<g>
</g>
<g>
</g>
<g>
</g>
<g>
</g>
<g>
</g>
<g>
</g>
<g>
</g>
<g>
</g>
</svg>
