<svg height="512pt" viewBox="0 -16 512 512" width="512pt" xmlns="http://www.w3.org/2000/svg"><path d="m482 370c-22.097656 0-432.15625 0-452 0-11.050781 0-20 8.949219-20 20v60c0 11.050781 8.949219 20 20 20h452c11.050781 0 20-8.949219 20-20v-60c0-11.050781-8.949219-20-20-20zm0 0" fill="#866d67"/><path d="m399 290c0 11.050781-8.949219 20-20 20-12.65625 0-234.015625 0-246 0-11.050781 0-20-8.949219-20-20 0-23.242188 0-159.324219 0-180h286zm0 0" fill="#ff712f"/><path d="m399 90v20h-286v-20c0-11.050781 8.949219-20 20-20h246c11.050781 0 20 8.949219 20 20zm0 0" fill="#866d67"/><path d="m429 420c0 5.523438-4.476562 10-10 10s-10-4.476562-10-10 4.476562-10 10-10 10 4.476562 10 10zm0 0"/><path d="m349 420c0 5.523438-4.476562 10-10 10s-10-4.476562-10-10 4.476562-10 10-10 10 4.476562 10 10zm0 0"/><path d="m183 420c0 5.523438-4.476562 10-10 10s-10-4.476562-10-10 4.476562-10 10-10 10 4.476562 10 10zm0 0"/><path d="m103 420c0 5.523438-4.476562 10-10 10s-10-4.476562-10-10 4.476562-10 10-10 10 4.476562 10 10zm0 0"/><path d="m482 360h-123v-40h20c16.542969 0 30-13.457031 30-30v-120h50c5.523438 0 10-4.476562 10-10s-4.476562-10-10-10h-50v-60c0-16.542969-13.457031-30-30-30h-60v-50c0-5.523438-4.476562-10-10-10h-103c-5.523438 0-10 4.476562-10 10v50h-63c-16.542969 0-30 13.457031-30 30v60h-50c-5.523438 0-10 4.476562-10 10s4.476562 10 10 10h50v120c0 16.542969 13.457031 30 30 30h20v40h-123c-16.542969 0-30 13.457031-30 30v60c0 16.542969 13.457031 30 30 30h452c16.542969 0 30-13.457031 30-30v-60c0-16.542969-13.457031-30-30-30zm-266-340h83v40h-83zm-83 60h246c5.515625 0 10 4.484375 10 10v10h-266v-10c0-5.515625 4.484375-10 10-10zm40 240h38c5.523438 0 10-4.476562 10-10s-4.476562-10-10-10h-78c-5.515625 0-10-4.484375-10-10v-170h266v170c0 5.515625-4.484375 10-10 10h-78c-5.523438 0-10 4.476562-10 10s4.476562 10 10 10h38v40h-166zm-153 130v-60c0-5.515625 4.484375-10 10-10h216v80h-216c-5.515625 0-10-4.484375-10-10zm472 0c0 5.515625-4.484375 10-10 10h-216v-80h216c5.515625 0 10 4.484375 10 10zm0 0"/><path d="m266 310c0 5.523438-4.476562 10-10 10s-10-4.476562-10-10 4.476562-10 10-10 10 4.476562 10 10zm0 0"/></svg>