<svg height="512pt" viewBox="-30 0 512 512.00039" width="512pt" xmlns="http://www.w3.org/2000/svg"><path d="m382 70c-21.140625 0-39.730469 10.929688-50.410156 27.449219l82.957031 82.960937c16.523437-10.679687 27.453125-29.269531 27.453125-50.410156 0-33.140625-26.863281-60-60-60zm0 0" fill="#fff2fb"/><path d="m70 70c-33.140625 0-60 26.859375-60 60 0 21.140625 10.929688 39.730469 27.449219 50.410156l82.960937-82.960937c-10.679687-16.519531-29.269531-27.449219-50.410156-27.449219zm0 0" fill="#fff2fb"/><path d="m442 286c0 119.378906-96.597656 215.996094-216 215.996094-119.382812 0-216-96.59375-216-215.996094 0-119.179688 96.316406-216 216-216 119.179688 0 216 96.316406 216 216zm0 0" fill="#ff712f"/><path d="m382 286c0 86.15625-69.84375 156-156 156s-156-69.84375-156-156 69.84375-156 156-156 156 69.84375 156 156zm0 0" fill="#fff2fb"/><path d="m452 130c0-38.597656-31.402344-70-70-70-20.742188 0-40.0625 9.046875-53.273438 24.582031-28.605468-14.601562-60.320312-22.933593-92.726562-24.355469v-40.226562h20c5.523438 0 10-4.476562 10-10s-4.476562-10-10-10h-60c-5.523438 0-10 4.476562-10 10s4.476562 10 10 10h20v40.226562c-32.40625 1.421876-64.125 9.753907-92.726562 24.355469-13.214844-15.535156-32.53125-24.582031-53.273438-24.582031-38.597656 0-70 31.402344-70 70 0 20.742188 9.046875 40.058594 24.582031 53.269531-16.101562 31.542969-24.582031 66.867188-24.582031 102.730469 0 68.292969 30.046875 130.335938 80.390625 172.855469l-19.335937 38.671875c-2.46875 4.9375-.46875 10.945312 4.472656 13.414062 4.9375 2.46875 10.945312.46875 13.417968-4.472656l17.585938-35.175781c24.816406 17.402343 52.84375 29.625 82.652344 35.875 5.40625 1.136719 10.703125-2.328125 11.835937-7.734375 1.136719-5.40625-2.328125-10.707032-7.734375-11.839844-92.132812-19.3125-163.285156-101.320312-163.285156-201.59375 0-113.890625 92.117188-206 206-206 114.15625 0 206 92.34375 206 206 0 100.15625-71.039062 182.257812-163.289062 201.59375-5.402344 1.132812-8.867188 6.433594-7.734376 11.839844 1.140626 5.4375 6.46875 8.863281 11.839844 7.734375 29.808594-6.246094 57.832032-18.46875 82.648438-35.875l17.589844 35.175781c2.46875 4.941406 8.476562 6.941406 13.414062 4.472656 4.941406-2.46875 6.945312-8.476562 4.472656-13.414062l-19.335937-38.671875c50.34375-42.515625 80.394531-104.554688 80.394531-172.855469 0-35.863281-8.480469-71.1875-24.582031-102.730469 15.53125-13.210937 24.582031-32.527343 24.582031-53.269531zm-417.257812 35.441406c-9.355469-9.285156-14.742188-21.9375-14.742188-35.441406 0-27.570312 22.429688-50 50-50 13.507812 0 26.15625 5.386719 35.441406 14.742188-28.355468 17.949218-52.730468 42.316406-70.699218 70.699218zm311.816406-70.699218c9.285156-9.355469 21.933594-14.742188 35.441406-14.742188 27.570312 0 50 22.429688 50 50 0 13.503906-5.386719 26.15625-14.746094 35.441406-17.945312-28.355468-42.316406-52.734375-70.695312-70.699218zm0 0"/><path d="m392 286c0-91.496094-74.398438-166-166-166-91.433594 0-166 74.21875-166 166 0 91.53125 74.464844 166 166 166 91.53125 0 166-74.46875 166-166zm-74.078125 77.777344c-3.90625-3.902344-10.238281-3.90625-14.144531 0-3.90625 3.902344-3.90625 10.234375 0 14.140625l18.09375 18.097656c-23.3125 20.34375-53.125 33.40625-85.871094 35.632813v-25.648438c0-5.523438-4.476562-10-10-10s-10 4.476562-10 10v25.648438c-32.746094-2.226563-62.558594-15.289063-85.875-35.632813l18.09375-18.097656c3.90625-3.902344 3.90625-10.234375 0-14.140625-3.902344-3.90625-10.234375-3.90625-14.140625 0l-18.09375 18.09375c-20.34375-23.3125-33.410156-53.128906-35.636719-85.871094h25.652344c5.523438 0 10-4.480469 10-10 0-5.523438-4.476562-10-10-10h-25.65625c2.152344-31.867188 14.5625-61.765625 35.640625-85.875l18.09375 18.09375c3.90625 3.90625 10.238281 3.90625 14.140625 0 3.90625-3.902344 3.90625-10.234375 0-14.140625l-18.09375-18.097656c24.109375-21.078125 54.011719-33.484375 85.875-35.636719v25.65625c0 5.519531 4.476562 10 10 10s10-4.480469 10-10v-25.65625c31.863281 2.152344 61.765625 14.5625 85.875 35.636719l-18.097656 18.097656c-3.90625 3.90625-3.90625 10.238281 0 14.144531 3.90625 3.902344 10.238281 3.902344 14.144531 0l18.09375-18.097656c21.078125 24.109375 33.488281 54.011719 35.636719 85.875h-25.652344c-5.523438 0-10 4.476562-10 10 0 5.519531 4.476562 10 10 9.988281h25.648438c-2.226563 32.753907-15.289063 62.570313-35.632813 85.882813zm0 0"/><path d="m286 276h-50v-50c0-5.523438-4.476562-10-10-10s-10 4.476562-10 10v60c0 5.519531 4.476562 10 10 10h60c5.523438 0 10-4.480469 10-10 0-5.523438-4.476562-10-10-10zm0 0"/><path d="m236 501.996094c0 5.523437-4.476562 10-10 10s-10-4.476563-10-10c0-5.519532 4.476562-9.996094 10-9.996094s10 4.476562 10 9.996094zm0 0"/></svg>