<svg height="512pt" viewBox="0 0 512 512" width="512pt" xmlns="http://www.w3.org/2000/svg"><path d="m376 70c-6.925781 0-233.074219 0-240 0-33.140625 0-60 26.859375-60 60v36h360v-36c0-33.140625-26.859375-60-60-60zm0 0" fill="#866d67"/><path d="m76 166v246h360c0-21.753906 0-213.898438 0-246zm0 0" fill="#ff712f"/><path d="m316 226c0 33.140625-26.859375 60-60 60-33.136719 0-60-26.859375-60-60 0-14.597656 0-54.984375 0-70 0-11.050781 8.949219-20 20-20h80c11.050781 0 20 8.949219 20 20zm0 0" fill="#fff2fb"/><g fill="#866d67"><path d="m276 225.199219c0 11.046875-8.953125 20-20 20s-20-8.953125-20-20c0-11.042969 8.953125-20 20-20s20 8.957031 20 20zm0 0"/><path d="m76 412h360c0 33.140625-26.859375 60-60 60h-240c-33.140625 0-60-26.859375-60-60zm0 0"/><path d="m76 166v60h-66c0-33.140625 26.859375-60 60-60zm0 0"/><path d="m502 226h-66v-60h6c33.140625 0 60 26.859375 60 60zm0 0"/></g><path d="m446 156.121094v-26.121094c0-38.597656-31.402344-70-70-70h-73.820312l20-40h23.820312c5.523438 0 10-4.476562 10-10s-4.476562-10-10-10h-180c-5.523438 0-10 4.476562-10 10s4.476562 10 10 10h23.820312l20 40h-73.820312c-38.597656 0-70 31.402344-70 70v26.121094c-36.742188 2.082031-66 32.625-66 69.878906 0 5.523438 4.476562 10 10 10h56v176c0 35.203125 26.121094 64.40625 60 69.273438v20.726562c0 5.523438 4.476562 10 10 10s10-4.476562 10-10v-20h65c5.523438 0 10-4.476562 10-10s-4.476562-10-10-10h-75c-24.144531 0-44.347656-17.214844-48.992188-40.011719h337.984376c-4.644532 22.796875-24.847657 40.011719-48.992188 40.011719h-75c-5.523438 0-10 4.476562-10 10s4.476562 10 10 10h65v20c0 5.523438 4.476562 10 10 10s10-4.476562 10-10v-20.726562c33.878906-4.867188 60-34.070313 60-69.273438v-176h56c5.523438 0 10-4.476562 10-10 0-37.253906-29.257812-67.796875-66-69.878906zm-360 19.878906h100v50c0 38.625 31.246094 70 70 70 38.597656 0 70-31.402344 70-70v-50h100v226h-340zm220 50c0 27.570312-22.429688 50-50 50-27.699219 0-50-22.425781-50-50v-70c0-5.515625 4.484375-10 10-10h80c5.515625 0 10 4.484375 10 10zm-93.820312-206h87.640624l-20 40h-47.640624zm-76.179688 60h240c27.570312 0 50 22.429688 50 50v26h-100c0-16.542969-13.457031-30-30-30h-80c-16.542969 0-30 13.457031-30 30h-100v-26c0-27.570312 22.429688-50 50-50zm-114.996094 136c4.386719-21.523438 22.648438-38.054688 44.996094-39.832031v39.832031zm424.996094 0v-39.832031c22.347656 1.777343 40.609375 18.308593 44.996094 39.832031zm0 0"/><path d="m256 195.199219c-16.542969 0-30 13.457031-30 30s13.457031 30 30 30 30-13.457031 30-30-13.457031-30-30-30zm0 40c-5.515625 0-10-4.484375-10-10 0-5.511719 4.484375-10 10-10s10 4.488281 10 10c0 5.515625-4.484375 10-10 10zm0 0"/><path d="m266 472c0 5.523438-4.476562 10-10 10s-10-4.476562-10-10 4.476562-10 10-10 10 4.476562 10 10zm0 0"/></svg>